<svg id="svg" version="1.1" xmlns="http://www.w3.org/2000/svg" xmlns:xlink="http://www.w3.org/1999/xlink" width="400" height="400" viewBox="0, 0, 400,400"><g id="svgg"><path id="path0" d="M54.764 43.566 L 48.721 50.651 48.720 57.682 L 48.719 64.714 53.517 59.766 L 58.314 54.818 58.324 85.221 L 58.333 115.625 64.974 115.625 L 71.615 115.625 71.615 76.042 L 71.615 36.458 66.211 36.470 L 60.807 36.482 54.764 43.566 M141.077 36.985 C 138.602 37.611,136.647 39.322,135.766 41.632 C 134.646 44.567,134.998 64.314,136.213 66.695 C 139.150 72.454,149.020 71.790,151.307 65.680 C 152.006 63.815,152.103 44.268,151.426 41.986 C 150.268 38.087,145.611 35.837,141.077 36.985 M115.885 53.776 L 115.885 70.313 118.099 70.313 L 120.313 70.313 120.313 59.974 C 120.313 54.095,120.410 49.742,120.539 49.883 C 120.664 50.019,121.848 53.587,123.170 57.813 C 124.493 62.038,125.920 66.579,126.341 67.904 L 127.108 70.313 129.439 70.313 L 131.771 70.313 131.771 53.776 L 131.771 37.240 129.557 37.240 L 127.344 37.240 127.344 46.528 C 127.344 51.636,127.293 55.765,127.232 55.704 C 127.170 55.642,125.934 51.843,124.485 47.262 C 123.036 42.681,121.730 38.551,121.582 38.086 L 121.314 37.240 118.600 37.240 L 115.885 37.240 115.885 53.776 M145.067 41.674 C 146.409 42.393,146.479 42.930,146.555 52.995 C 146.633 63.388,146.514 64.514,145.236 65.464 C 144.090 66.315,142.635 66.193,141.601 65.159 L 140.755 64.313 140.673 54.357 C 140.586 43.683,140.662 42.866,141.838 41.941 C 142.580 41.358,144.221 41.222,145.067 41.674 M139.766 83.695 C 137.130 84.673,135.588 86.522,134.977 89.439 C 134.551 91.469,134.507 108.202,134.920 110.578 C 136.302 118.514,147.850 119.647,150.872 112.144 C 152.075 109.156,151.776 89.978,150.484 87.298 C 148.899 84.010,143.663 82.250,139.766 83.695 M115.885 100.104 L 115.885 116.667 118.620 116.667 L 121.354 116.667 121.354 111.102 L 121.354 105.537 124.023 105.394 C 130.628 105.042,131.641 103.580,131.641 94.401 C 131.641 84.606,130.883 83.808,121.419 83.640 L 115.885 83.542 115.885 100.104 M153.116 84.570 C 153.215 85.107,154.630 92.549,156.259 101.107 L 159.222 116.667 162.228 116.667 L 165.235 116.667 168.367 100.195 L 171.499 83.724 169.049 83.649 C 167.702 83.608,166.541 83.633,166.469 83.705 C 166.397 83.777,165.480 88.893,164.432 95.074 C 162.807 104.650,162.239 107.573,162.240 106.359 C 162.240 106.227,161.402 101.051,160.379 94.857 L 158.518 83.594 155.726 83.594 L 152.935 83.594 153.116 84.570 M173.958 100.130 L 173.958 116.667 180.599 116.667 L 187.240 116.667 187.240 114.453 L 187.240 112.240 183.333 112.240 L 179.427 112.240 179.427 107.161 L 179.427 102.083 182.161 102.083 L 184.896 102.083 184.896 99.870 L 184.896 97.656 182.161 97.656 L 179.427 97.656 179.427 92.839 L 179.427 88.021 183.333 88.021 L 187.240 88.021 187.240 85.807 L 187.240 83.594 180.599 83.594 L 173.958 83.594 173.958 100.130 M190.104 100.104 L 190.104 116.667 192.839 116.667 L 195.573 116.667 195.573 109.201 C 195.573 105.095,195.661 101.824,195.768 101.931 C 195.876 102.038,197.079 105.368,198.443 109.331 L 200.923 116.536 203.878 116.610 C 206.625 116.679,206.820 116.652,206.650 116.220 C 205.984 114.532,201.547 101.757,201.612 101.716 C 201.656 101.688,202.198 101.445,202.816 101.176 C 205.325 100.084,205.860 98.662,205.856 93.099 C 205.850 84.809,204.762 83.802,195.638 83.640 L 190.104 83.542 190.104 100.104 M207.813 85.807 L 207.813 88.021 210.156 88.021 L 212.500 88.021 212.500 102.344 L 212.500 116.667 215.234 116.667 L 217.969 116.667 217.969 102.344 L 217.969 88.021 220.313 88.021 L 222.656 88.021 222.656 85.807 L 222.656 83.594 215.234 83.594 L 207.813 83.594 207.813 85.807 M224.479 83.743 C 224.479 83.826,225.885 88.548,227.604 94.239 L 230.729 104.585 230.729 110.626 L 230.729 116.667 233.464 116.667 L 236.198 116.667 236.198 110.241 L 236.198 103.816 239.193 93.841 C 240.840 88.355,242.188 83.805,242.188 83.730 C 242.188 83.655,241.021 83.594,239.596 83.594 L 237.004 83.594 236.771 84.440 C 236.643 84.906,235.905 87.659,235.131 90.559 C 234.357 93.459,233.654 95.832,233.569 95.833 C 233.483 95.833,232.735 93.285,231.905 90.169 C 231.076 87.054,230.341 84.300,230.272 84.049 C 230.150 83.604,224.479 83.304,224.479 83.743 M144.925 88.622 C 146.100 89.798,146.140 90.237,146.045 101.042 C 145.955 111.270,145.909 111.561,144.279 112.236 C 142.587 112.937,140.838 112.135,140.367 110.443 C 139.892 108.731,140.028 90.825,140.526 89.580 C 141.314 87.612,143.449 87.147,144.925 88.622 M124.862 88.391 C 126.162 88.935,126.358 89.896,126.257 95.242 L 126.172 99.729 125.463 100.438 C 124.869 101.031,124.476 101.164,123.054 101.255 L 121.354 101.363 121.354 94.692 L 121.354 88.021 122.665 88.021 C 123.385 88.021,124.374 88.188,124.862 88.391 M199.686 88.890 C 200.381 89.586,200.391 89.640,200.391 93.065 C 200.391 97.808,199.993 98.438,196.993 98.438 L 195.573 98.438 195.573 93.403 C 195.573 90.634,195.661 88.279,195.768 88.169 C 196.253 87.677,198.973 88.177,199.686 88.890 M73.568 180.573 C 66.556 182.797,63.651 191.009,67.724 197.093 C 73.562 205.815,87.500 201.518,87.500 190.996 C 87.500 183.841,80.284 178.444,73.568 180.573 M313.929 180.660 C 305.271 183.765,303.698 195.132,311.252 200.014 C 320.449 205.959,331.551 196.299,326.985 186.325 C 324.829 181.616,318.691 178.953,313.929 180.660 M166.536 186.809 C 156.137 190.255,157.018 204.929,167.737 206.817 C 177.373 208.514,183.633 196.380,176.700 189.446 C 174.236 186.983,169.623 185.785,166.536 186.809 M228.367 186.814 C 223.575 188.106,220.396 193.103,221.102 198.232 C 222.467 208.147,236.184 210.186,240.434 201.106 C 244.168 193.126,236.897 184.515,228.367 186.814 M62.851 206.267 C 58.319 207.050,54.633 209.745,52.462 213.865 C 50.819 216.982,50.791 217.339,50.786 235.335 C 50.781 252.028,50.804 252.426,51.852 253.545 C 52.367 254.095,52.365 254.106,47.422 280.304 C 41.778 310.215,41.925 308.594,44.859 308.594 C 46.726 308.594,46.390 309.921,51.845 281.004 C 56.813 254.664,56.825 254.608,57.588 253.966 C 59.161 252.642,59.115 253.134,59.115 237.884 L 59.115 223.918 59.876 223.157 C 60.767 222.266,61.178 222.215,62.015 222.894 L 62.630 223.391 62.760 263.714 L 62.891 304.036 63.453 305.078 C 65.821 309.467,71.955 309.485,74.295 305.110 L 74.870 304.036 75.000 280.252 C 75.128 256.847,75.139 256.462,75.651 256.083 C 76.201 255.676,77.497 255.778,77.987 256.268 C 78.165 256.446,78.299 264.491,78.385 280.286 C 78.515 304.001,78.516 304.038,79.078 305.078 C 81.421 309.421,87.663 309.483,89.855 305.186 C 90.354 304.208,90.365 303.372,90.371 264.659 C 90.374 241.508,90.476 224.701,90.617 224.096 C 91.020 222.356,92.136 221.928,93.410 223.024 L 94.141 223.652 94.271 237.933 C 94.418 254.069,94.325 253.382,96.496 254.433 C 98.382 255.346,100.486 254.897,101.639 253.337 L 102.194 252.587 102.694 253.572 C 102.969 254.114,105.019 257.839,107.250 261.849 L 111.306 269.141 111.405 271.495 C 111.502 273.770,111.435 274.107,109.414 281.521 C 108.264 285.740,107.244 289.515,107.149 289.909 L 106.975 290.625 109.202 290.625 L 111.429 290.625 111.509 298.112 C 111.600 306.689,111.654 306.921,113.798 308.008 C 115.263 308.750,116.292 308.748,117.705 308.001 C 119.740 306.925,119.792 306.682,119.792 298.116 L 119.792 290.625 121.224 290.625 L 122.656 290.625 122.656 298.077 C 122.656 305.255,122.677 305.565,123.225 306.540 C 124.778 309.303,128.951 309.140,130.404 306.260 C 130.969 305.138,130.990 304.848,130.990 297.861 L 130.990 290.625 133.203 290.625 C 134.421 290.625,135.417 290.516,135.417 290.383 C 135.417 290.249,134.421 286.470,133.205 281.984 C 129.978 270.086,129.803 271.602,135.619 261.169 C 137.345 258.073,139.074 254.909,139.462 254.137 C 140.351 252.367,140.306 252.405,140.752 253.042 C 141.741 254.454,144.808 254.891,146.365 253.841 C 147.710 252.935,148.191 251.676,151.563 240.234 C 156.145 224.686,155.940 225.177,157.439 226.159 C 158.414 226.798,158.467 226.564,152.083 249.740 C 148.789 261.699,146.094 271.569,146.094 271.674 C 146.094 271.779,148.584 271.896,151.628 271.935 L 157.161 272.005 157.292 288.542 C 157.436 306.887,157.347 306.000,159.179 307.383 C 161.120 308.848,163.705 308.913,165.594 307.544 C 167.682 306.032,167.562 307.109,167.708 288.542 L 167.839 272.005 169.401 272.005 L 170.964 272.005 171.094 288.542 C 171.238 306.887,171.149 306.000,172.981 307.383 C 174.922 308.848,177.507 308.913,179.396 307.544 C 181.484 306.032,181.364 307.109,181.510 288.542 L 181.641 272.005 187.174 271.935 C 190.218 271.896,192.710 271.779,192.712 271.675 C 192.714 271.570,190.003 261.625,186.687 249.575 C 180.487 227.045,180.397 226.638,181.495 226.050 C 182.868 225.315,182.709 224.929,186.998 239.380 C 189.273 247.047,190.892 252.058,191.289 252.662 C 192.974 255.229,197.236 254.983,198.536 252.244 C 199.398 250.426,199.192 249.501,194.512 234.199 C 187.402 210.954,188.510 211.905,168.696 212.032 L 156.641 212.109 155.026 212.855 C 153.134 213.729,150.787 216.036,149.557 218.229 C 148.819 219.546,139.844 248.108,139.844 249.141 C 139.844 249.493,139.775 249.495,139.258 249.160 C 136.747 247.534,135.641 248.280,132.276 253.867 C 128.537 260.074,128.863 259.896,121.224 259.896 C 113.508 259.896,113.970 260.164,109.804 253.271 C 106.940 248.530,105.532 247.621,103.312 249.075 L 102.604 249.539 102.600 234.470 C 102.595 218.000,102.542 217.301,101.082 214.216 C 99.481 210.832,96.187 207.955,92.502 206.721 C 90.607 206.086,66.072 205.711,62.851 206.267 M304.297 206.145 C 304.010 206.206,303.132 206.383,302.344 206.540 C 297.446 207.515,292.746 212.305,291.692 217.396 C 291.067 220.414,291.317 251.723,291.975 252.894 C 293.409 255.446,297.062 255.593,298.908 253.174 L 299.609 252.255 299.740 237.855 C 299.881 222.220,299.811 222.896,301.319 222.527 C 301.780 222.414,302.182 222.523,302.621 222.878 L 303.255 223.391 303.385 263.844 L 303.516 304.297 304.244 305.535 C 306.438 309.269,312.165 309.316,314.444 305.620 L 315.234 304.338 315.365 280.531 L 315.495 256.725 316.110 256.227 C 316.935 255.558,317.603 255.600,318.371 256.368 L 319.010 257.008 319.010 280.427 L 319.010 303.847 319.738 305.244 C 321.821 309.243,327.703 309.457,330.069 305.619 L 330.859 304.338 330.990 263.865 L 331.120 223.391 331.754 222.878 C 332.193 222.523,332.595 222.414,333.056 222.527 C 334.563 222.896,334.494 222.234,334.635 237.704 C 334.761 251.489,334.783 251.983,335.301 252.864 C 336.817 255.446,340.864 255.557,342.408 253.060 C 343.146 251.866,343.300 219.611,342.581 216.850 C 341.367 212.188,337.848 208.443,333.073 206.730 C 331.479 206.159,306.623 205.653,304.297 206.145 M218.211 212.328 C 215.530 213.067,212.837 215.436,211.248 218.453 C 209.849 221.110,201.728 248.012,201.724 250.003 C 201.718 252.914,203.205 254.427,206.070 254.427 C 209.105 254.427,209.215 254.207,213.672 239.161 C 216.940 228.131,217.662 226.101,218.401 225.854 C 218.950 225.671,219.874 226.721,219.847 227.496 C 219.828 228.041,209.215 267.109,207.915 271.419 C 207.787 271.843,208.166 271.875,213.394 271.875 L 219.010 271.875 219.010 288.199 C 219.010 304.357,219.016 304.535,219.569 305.676 C 221.088 308.814,225.493 309.471,228.025 306.939 C 229.706 305.258,229.684 305.506,229.686 287.826 L 229.688 271.875 231.250 271.875 L 232.813 271.875 232.813 288.199 C 232.813 304.357,232.818 304.535,233.371 305.676 C 234.890 308.814,239.295 309.471,241.828 306.939 C 243.508 305.258,243.487 305.506,243.488 287.831 L 243.490 271.885 249.044 271.815 L 254.599 271.745 248.526 249.740 C 242.284 227.122,242.170 226.608,243.268 226.021 C 243.874 225.697,244.924 226.249,245.150 227.011 C 253.295 254.508,252.563 252.317,254.032 253.607 C 255.781 255.143,258.903 254.600,260.158 252.541 C 261.283 250.695,261.077 249.704,256.351 234.292 C 250.965 216.726,250.121 215.028,245.703 212.872 L 244.141 212.109 231.771 212.055 C 222.485 212.014,219.104 212.082,218.211 212.328 M119.141 237.591 C 111.436 239.563,110.457 250.227,117.670 253.607 C 121.096 255.213,125.686 254.122,127.919 251.172 C 132.817 244.699,126.933 235.596,119.141 237.591 M274.030 237.600 C 266.556 239.484,265.383 249.883,272.249 253.385 C 275.916 255.256,280.499 254.300,282.867 251.172 C 287.788 244.668,281.895 235.618,274.030 237.600 M268.620 258.056 C 264.727 258.565,263.485 260.639,256.842 277.734 C 254.698 283.253,255.032 285.419,258.028 285.415 C 259.977 285.413,260.178 285.043,262.833 276.563 C 264.575 271.001,265.346 268.880,265.627 268.880 C 265.967 268.880,266.032 271.217,266.146 287.416 C 266.294 308.442,266.105 306.786,268.495 308.008 C 270.456 309.010,272.740 308.481,273.984 306.736 C 274.606 305.864,274.610 305.813,274.740 297.440 C 274.878 288.495,274.911 288.281,276.172 288.281 C 277.433 288.281,277.466 288.490,277.604 297.486 C 277.752 307.086,277.701 306.857,279.953 308.008 C 281.880 308.993,284.261 308.429,285.532 306.687 C 286.058 305.965,286.070 305.611,286.198 287.351 C 286.278 275.847,286.423 268.743,286.576 268.731 C 286.713 268.720,287.850 271.562,289.104 275.046 C 291.901 282.820,292.329 283.771,293.106 283.919 C 294.856 284.254,296.705 283.074,297.014 281.423 C 297.191 280.480,290.277 262.662,288.963 260.677 C 288.010 259.237,286.401 258.379,284.088 258.079 C 281.964 257.803,270.682 257.786,268.620 258.056 " stroke="none" fill="#fcfbfb" fill-rule="evenodd"></path><path id="path1" d="M0.000 200.000 L 0.000 400.000 200.000 400.000 L 400.000 400.000 400.000 200.000 L 400.000 0.000 200.000 0.000 L 0.000 0.000 0.000 200.000 M71.615 76.046 L 71.615 115.894 64.909 115.825 L 58.203 115.755 58.073 85.565 L 57.943 55.375 53.406 60.097 C 50.911 62.695,48.772 64.760,48.654 64.686 C 48.535 64.613,48.438 61.461,48.438 57.683 L 48.438 50.813 54.622 43.525 L 60.807 36.237 66.211 36.217 L 71.615 36.198 71.615 76.046 M146.656 37.003 C 148.518 37.479,150.048 38.779,151.040 40.728 L 151.953 42.524 152.032 53.049 C 152.098 61.844,152.046 63.797,151.717 64.925 C 149.522 72.454,138.577 73.005,135.647 65.734 C 134.706 63.399,134.674 43.970,135.607 41.667 C 137.314 37.455,141.501 35.687,146.656 37.003 M124.192 45.881 L 126.953 54.652 127.022 45.816 L 127.090 36.979 129.561 36.979 L 132.031 36.979 132.031 53.646 L 132.031 70.313 129.481 70.313 L 126.930 70.313 123.817 60.379 L 120.703 50.446 120.635 60.379 L 120.567 70.313 118.096 70.313 L 115.625 70.313 115.625 53.637 L 115.625 36.962 118.528 37.036 L 121.430 37.109 124.192 45.881 M142.549 41.649 C 140.873 42.363,140.885 42.277,140.886 53.616 C 140.887 63.382,140.914 63.977,141.395 64.765 C 142.301 66.251,144.568 66.248,145.677 64.760 C 146.311 63.908,146.688 45.439,146.111 43.467 C 145.645 41.873,143.997 41.032,142.549 41.649 M147.064 83.839 C 151.153 85.627,151.432 86.676,151.432 100.260 L 151.432 111.328 150.811 112.703 C 148.133 118.629,138.471 118.865,135.620 113.075 L 134.766 111.339 134.766 100.136 L 134.766 88.932 135.441 87.500 C 137.312 83.532,142.573 81.875,147.064 83.839 M127.374 83.827 C 131.071 84.977,131.767 86.676,131.769 94.550 C 131.772 103.568,130.657 105.170,124.055 105.635 L 121.625 105.805 121.555 111.301 L 121.484 116.797 118.555 116.871 L 115.625 116.944 115.625 100.312 C 115.625 91.165,115.713 83.591,115.820 83.481 C 116.112 83.182,126.283 83.487,127.374 83.827 M158.721 83.919 C 158.797 84.242,159.656 89.350,160.630 95.272 L 162.401 106.039 164.040 96.314 C 164.942 90.965,165.814 85.885,165.978 85.026 L 166.276 83.464 168.945 83.389 C 171.117 83.329,171.615 83.384,171.615 83.686 C 171.615 84.001,166.426 111.523,165.606 115.560 L 165.328 116.927 162.226 116.927 C 159.223 116.927,159.120 116.909,158.991 116.341 C 158.600 114.628,152.865 84.128,152.865 83.764 C 152.865 82.984,158.537 83.134,158.721 83.919 M187.240 85.807 L 187.240 88.281 183.464 88.281 L 179.688 88.281 179.688 92.829 L 179.688 97.378 182.357 97.452 L 185.026 97.526 185.026 99.870 L 185.026 102.214 182.357 102.288 L 179.688 102.362 179.688 107.171 L 179.688 111.979 183.464 111.979 L 187.240 111.979 187.240 114.453 L 187.240 116.927 180.469 116.927 L 173.698 116.927 173.698 100.304 C 173.698 91.161,173.776 83.602,173.872 83.507 C 173.967 83.411,177.014 83.333,180.642 83.333 L 187.240 83.333 187.240 85.807 M200.230 83.607 C 204.879 84.361,205.826 85.870,205.939 92.708 L 206.019 97.526 205.288 98.958 C 204.675 100.161,204.340 100.495,203.202 101.042 C 201.567 101.827,201.588 101.541,202.892 105.208 C 203.477 106.855,204.644 110.166,205.485 112.565 L 207.014 116.927 203.959 116.927 L 200.905 116.927 198.434 109.741 L 195.964 102.555 195.894 109.741 L 195.825 116.927 192.965 116.927 L 190.104 116.927 190.104 100.130 L 190.104 83.333 194.336 83.335 C 196.663 83.336,199.316 83.459,200.230 83.607 M222.786 85.807 L 222.786 88.151 220.508 88.226 L 218.229 88.302 218.229 102.623 L 218.229 116.944 215.299 116.871 L 212.370 116.797 212.302 102.539 L 212.235 88.281 210.024 88.281 L 207.813 88.281 207.813 85.803 L 207.813 83.325 215.299 83.394 L 222.786 83.464 222.786 85.807 M231.868 89.388 C 232.738 92.646,233.512 95.311,233.587 95.310 C 233.662 95.309,234.431 92.643,235.295 89.386 L 236.866 83.464 239.439 83.388 C 240.854 83.347,242.098 83.406,242.204 83.519 C 242.309 83.632,241.003 88.353,239.300 94.010 L 236.204 104.297 236.201 110.612 L 236.198 116.927 233.333 116.927 L 230.469 116.927 230.469 110.577 L 230.469 104.227 227.367 93.978 C 225.661 88.341,224.322 83.637,224.393 83.523 C 224.463 83.410,225.817 83.350,227.403 83.390 L 230.286 83.464 231.868 89.388 M141.500 88.401 C 140.392 89.177,140.343 89.733,140.421 100.619 L 140.495 110.983 141.225 111.611 C 142.023 112.297,143.626 112.464,144.570 111.958 C 145.748 111.328,145.833 110.532,145.833 100.130 C 145.833 89.728,145.748 88.933,144.570 88.302 C 143.820 87.900,142.137 87.955,141.500 88.401 M121.615 94.661 L 121.615 101.042 122.904 101.042 C 125.833 101.042,126.042 100.598,126.042 94.377 C 126.042 88.526,125.927 88.281,123.189 88.281 L 121.615 88.281 121.615 94.661 M195.833 93.395 L 195.833 98.509 197.293 98.338 C 200.048 98.014,200.260 97.649,200.260 93.224 C 200.260 88.914,199.859 88.281,197.123 88.281 L 195.833 88.281 195.833 93.395 M81.111 180.947 C 90.796 185.480,89.356 199.405,78.963 201.717 C 70.005 203.710,62.746 194.220,66.914 185.963 C 69.506 180.829,75.975 178.544,81.111 180.947 M320.280 180.439 C 331.377 183.892,330.430 199.752,319.003 201.824 C 313.719 202.782,308.317 199.421,306.727 194.184 C 304.195 185.850,312.055 177.879,320.280 180.439 M171.604 186.478 C 176.896 187.698,180.656 193.185,179.710 198.307 C 177.567 209.895,160.999 209.900,159.115 198.313 C 157.969 191.260,164.695 184.886,171.604 186.478 M234.896 186.962 C 241.758 189.575,243.843 198.296,238.886 203.650 C 232.644 210.393,221.413 206.490,220.887 197.394 C 220.443 189.730,227.792 184.258,234.896 186.962 M91.744 206.377 C 96.699 207.668,100.926 211.895,102.216 216.850 C 102.539 218.088,102.604 220.962,102.604 233.928 L 102.604 249.517 103.290 248.977 C 105.385 247.330,106.966 248.334,109.910 253.181 C 111.240 255.370,112.877 257.718,113.549 258.398 L 114.769 259.635 121.122 259.634 C 129.143 259.632,128.390 260.059,132.580 253.125 C 135.441 248.389,136.935 247.394,139.007 248.844 C 139.467 249.167,139.609 249.180,139.693 248.909 C 139.751 248.721,141.756 242.122,144.149 234.245 C 148.965 218.394,149.288 217.601,152.063 214.820 C 154.983 211.894,154.464 211.979,169.401 211.979 C 184.426 211.979,183.806 211.874,186.862 214.949 C 189.498 217.602,189.872 218.520,194.718 234.245 C 199.523 249.837,199.701 250.707,198.493 252.651 C 197.345 254.497,194.618 255.209,192.739 254.153 C 191.023 253.188,190.707 252.393,186.814 239.279 C 183.078 226.689,182.845 226.042,182.051 226.042 C 180.376 226.042,180.381 226.067,186.829 249.490 C 190.040 261.157,192.748 271.025,192.846 271.419 L 193.025 272.135 187.398 272.135 L 181.771 272.135 181.771 288.329 C 181.771 304.254,181.762 304.542,181.223 305.654 C 179.291 309.647,173.327 309.642,171.467 305.647 L 170.838 304.297 170.836 288.216 L 170.833 272.135 169.401 272.135 L 167.969 272.135 167.969 288.329 C 167.969 304.254,167.960 304.542,167.421 305.654 C 165.489 309.647,159.525 309.642,157.665 305.647 L 157.036 304.297 157.034 288.216 L 157.031 272.135 151.432 272.135 C 148.353 272.135,145.833 272.068,145.833 271.986 C 145.833 271.904,148.529 262.059,151.823 250.108 C 158.410 226.209,158.445 226.042,156.751 226.042 C 155.968 226.042,155.764 226.609,152.066 239.094 C 148.218 252.082,147.722 253.339,146.098 254.204 C 144.487 255.062,142.192 254.692,140.859 253.359 C 140.534 253.034,140.227 252.886,140.178 253.032 C 140.094 253.285,137.206 258.599,133.106 266.045 C 130.285 271.169,130.463 272.905,135.577 290.169 C 135.699 290.580,135.478 290.625,133.362 290.625 L 131.011 290.625 130.935 298.372 C 130.861 305.908,130.844 306.142,130.279 306.934 C 128.367 309.614,123.847 309.004,122.674 305.908 C 122.501 305.452,122.396 302.421,122.396 297.900 L 122.396 290.625 121.224 290.625 L 120.052 290.625 120.052 297.900 C 120.052 302.421,119.947 305.452,119.774 305.908 C 118.523 309.211,113.737 309.582,112.010 306.509 C 111.484 305.573,111.458 305.184,111.458 298.077 L 111.458 290.625 109.097 290.625 C 106.967 290.625,106.750 290.580,106.878 290.169 C 110.118 279.826,111.819 271.515,111.105 269.518 C 110.846 268.794,103.322 254.925,102.381 253.437 C 102.219 253.181,101.961 253.290,101.320 253.889 C 99.665 255.436,97.325 255.471,95.549 253.977 C 93.989 252.663,94.010 252.894,94.010 237.639 C 94.010 221.953,94.082 222.514,92.113 222.706 C 90.550 222.858,90.633 220.546,90.626 263.932 L 90.620 303.776 89.999 305.109 C 87.854 309.716,81.347 309.741,79.011 305.152 L 78.385 303.924 78.382 280.673 C 78.377 255.033,78.452 256.181,76.777 256.040 C 74.889 255.882,75.000 254.360,74.997 280.462 L 74.995 303.776 74.374 305.109 C 72.213 309.750,65.574 309.732,63.380 305.078 L 62.766 303.776 62.763 264.119 C 62.760 220.387,62.845 222.656,61.211 222.656 C 59.302 222.656,59.376 222.058,59.369 237.565 C 59.363 252.999,59.378 252.858,57.576 254.190 C 57.133 254.517,56.771 255.017,56.771 255.299 C 56.771 256.158,47.099 307.129,46.846 307.604 C 45.784 309.597,42.459 308.835,42.443 306.596 C 42.440 306.191,44.624 294.258,47.297 280.078 L 52.157 254.297 51.483 253.304 C 50.492 251.846,50.478 251.543,50.579 234.115 C 50.683 216.315,50.603 217.167,52.521 213.496 C 54.222 210.241,57.834 207.384,61.491 206.400 C 63.591 205.835,89.587 205.816,91.744 206.377 M332.280 206.374 C 336.906 207.605,340.523 210.888,342.392 215.552 L 343.099 217.318 343.180 234.245 C 343.268 252.674,343.276 252.573,341.797 253.871 C 340.173 255.297,338.348 255.469,336.517 254.368 C 334.725 253.291,334.780 253.768,334.635 237.983 C 334.491 222.219,334.543 222.656,332.804 222.656 C 331.294 222.656,331.391 220.084,331.250 263.777 C 331.124 302.645,331.103 304.071,330.626 305.031 C 328.313 309.689,321.929 309.737,319.457 305.115 L 318.880 304.036 318.750 280.264 C 318.608 254.340,318.717 256.003,317.163 255.994 C 315.551 255.984,315.640 254.616,315.564 280.485 C 315.498 303.012,315.473 304.080,315.001 305.031 C 312.688 309.689,306.304 309.737,303.832 305.115 L 303.255 304.036 303.186 263.818 C 303.110 219.805,303.215 222.656,301.681 222.656 C 299.945 222.656,300.015 222.046,299.939 237.780 L 299.870 251.992 299.155 253.072 C 297.428 255.681,293.941 255.748,292.006 253.211 L 291.276 252.254 291.276 235.046 C 291.276 218.857,291.305 217.754,291.768 216.406 C 293.442 211.531,296.534 208.336,301.126 206.738 L 303.255 205.997 317.057 205.996 C 328.296 205.996,331.123 206.066,332.280 206.374 M246.012 212.822 C 247.796 213.762,249.739 215.739,251.007 217.906 C 252.314 220.138,260.938 247.993,260.938 249.983 C 260.938 254.113,256.145 256.274,253.481 253.345 C 252.506 252.274,252.206 251.400,248.562 239.063 C 244.656 225.836,244.317 225.058,243.021 226.354 C 242.444 226.931,242.689 227.944,248.698 249.749 C 251.992 261.703,254.687 271.631,254.687 271.810 C 254.687 272.060,253.423 272.135,249.230 272.135 L 243.772 272.135 243.696 288.346 C 243.621 304.372,243.613 304.569,243.059 305.599 C 241.141 309.164,236.694 309.736,234.008 306.762 C 232.558 305.158,232.555 305.119,232.554 287.956 L 232.552 272.135 231.120 272.135 L 229.688 272.135 229.688 288.422 C 229.688 303.918,229.663 304.755,229.192 305.674 C 227.408 309.152,222.862 309.703,220.206 306.762 C 218.756 305.158,218.753 305.119,218.751 287.956 L 218.750 272.135 213.133 272.135 C 207.841 272.135,207.526 272.108,207.666 271.666 C 208.328 269.580,219.791 227.635,219.791 227.297 C 219.792 226.185,218.209 225.628,217.708 226.564 C 217.554 226.851,215.786 232.622,213.778 239.389 C 209.331 254.382,209.086 254.840,205.661 254.620 C 203.081 254.454,201.759 253.047,201.619 250.317 C 201.535 248.673,201.796 247.702,205.946 234.202 C 211.402 216.456,212.074 215.093,216.468 212.895 L 218.335 211.961 231.498 212.035 L 244.661 212.109 246.012 212.822 M124.327 237.774 C 129.582 239.741,131.568 246.271,128.305 250.860 C 125.106 255.360,118.719 255.800,114.960 251.781 C 108.698 245.086,115.737 234.561,124.327 237.774 M279.275 237.774 C 284.530 239.741,286.515 246.271,283.253 250.860 C 280.054 255.360,273.667 255.800,269.908 251.781 C 263.642 245.082,270.680 234.559,279.275 237.774 M284.598 257.950 C 286.175 258.117,288.090 259.230,289.003 260.510 C 290.014 261.927,297.135 279.837,297.135 280.962 C 297.135 282.734,295.681 284.115,293.815 284.115 C 292.199 284.115,292.145 284.012,288.763 274.517 C 287.768 271.726,286.847 269.257,286.715 269.031 C 286.566 268.777,286.469 275.579,286.461 286.849 C 286.448 304.054,286.420 305.138,285.962 306.146 C 284.439 309.499,279.363 309.499,277.840 306.146 C 277.402 305.180,277.355 304.317,277.349 297.122 C 277.343 288.763,277.313 288.542,276.172 288.542 C 275.030 288.542,275.000 288.763,275.000 297.105 C 275.000 304.621,274.971 305.104,274.457 306.166 C 272.833 309.519,267.908 309.507,266.382 306.146 C 265.924 305.138,265.897 304.064,265.891 286.862 C 265.887 272.982,265.813 268.718,265.582 268.950 C 265.414 269.117,264.242 272.547,262.977 276.572 C 260.073 285.808,259.818 286.204,257.268 285.440 C 254.496 284.610,254.570 283.038,257.757 275.000 C 264.633 257.660,264.321 258.021,272.636 257.801 C 277.933 257.661,282.395 257.717,284.598 257.950 " stroke="none" fill="#ec1c2c" fill-rule="evenodd"></path><path id="path2" d="M63.621 36.392 C 65.168 36.439,67.629 36.438,69.090 36.392 C 70.550 36.346,69.284 36.308,66.276 36.308 C 63.268 36.308,62.073 36.346,63.621 36.392 M115.745 37.305 C 115.676 37.484,115.651 45.013,115.690 54.036 L 115.759 70.443 115.822 53.850 L 115.885 37.257 118.685 37.173 L 121.484 37.090 118.677 37.034 C 116.628 36.994,115.835 37.067,115.745 37.305 M129.490 37.173 L 131.767 37.260 131.836 53.851 L 131.905 70.443 131.968 53.711 L 132.031 36.979 129.622 37.033 L 127.214 37.086 129.490 37.173 M140.743 53.646 C 140.743 59.160,140.778 61.416,140.820 58.659 C 140.862 55.902,140.862 51.390,140.820 48.633 C 140.778 45.876,140.743 48.132,140.743 53.646 M151.941 53.646 C 151.941 59.160,151.976 61.416,152.018 58.659 C 152.060 55.902,152.060 51.390,152.018 48.633 C 151.976 45.876,151.941 48.132,151.941 53.646 M146.472 53.646 C 146.472 58.730,146.506 60.811,146.549 58.268 C 146.592 55.726,146.592 51.566,146.549 49.023 C 146.506 46.481,146.472 48.561,146.472 53.646 M120.313 60.026 C 120.313 65.731,120.368 70.343,120.437 70.275 C 120.611 70.101,120.629 49.969,120.455 49.795 C 120.376 49.717,120.313 54.321,120.313 60.026 M54.413 58.789 L 53.516 59.766 54.492 58.868 C 55.401 58.033,55.588 57.813,55.390 57.813 C 55.346 57.813,54.907 58.252,54.413 58.789 M143.034 70.752 C 143.285 70.818,143.695 70.818,143.945 70.752 C 144.196 70.687,143.991 70.633,143.490 70.633 C 142.988 70.633,142.783 70.687,143.034 70.752 M142.387 83.262 C 142.856 83.320,143.559 83.318,143.950 83.259 C 144.341 83.200,143.958 83.152,143.099 83.154 C 142.240 83.155,141.919 83.204,142.387 83.262 M115.752 100.260 L 115.755 116.797 118.490 116.810 L 121.224 116.823 118.557 116.736 L 115.889 116.649 115.819 100.187 L 115.749 83.724 115.752 100.260 M173.825 100.260 L 173.828 116.797 180.469 116.803 L 187.109 116.810 180.536 116.734 L 173.962 116.658 173.892 100.191 L 173.822 83.724 173.825 100.260 M122.075 88.210 C 122.543 88.268,123.246 88.266,123.637 88.207 C 124.029 88.147,123.646 88.100,122.786 88.102 C 121.927 88.103,121.607 88.152,122.075 88.210 M181.315 88.214 C 182.425 88.263,184.242 88.263,185.352 88.214 C 186.462 88.166,185.553 88.126,183.333 88.126 C 181.113 88.126,180.205 88.166,181.315 88.214 M195.689 88.354 C 195.619 88.538,195.596 90.911,195.638 93.628 L 195.715 98.568 195.774 93.438 L 195.833 88.308 197.201 88.213 L 198.568 88.117 197.192 88.069 C 196.277 88.037,195.774 88.132,195.689 88.354 M208.919 88.212 C 209.600 88.266,210.713 88.266,211.393 88.212 C 212.074 88.159,211.517 88.115,210.156 88.115 C 208.796 88.115,208.239 88.159,208.919 88.212 M217.969 102.335 L 217.969 116.649 215.234 116.737 L 212.499 116.825 215.299 116.811 L 218.099 116.797 218.166 102.549 L 218.234 88.301 220.510 88.215 L 222.786 88.128 220.378 88.074 L 217.969 88.021 217.969 102.335 M126.149 94.661 C 126.150 97.240,126.189 98.259,126.236 96.927 C 126.283 95.595,126.283 93.485,126.235 92.239 C 126.188 90.993,126.149 92.083,126.149 94.661 M140.222 100.130 C 140.222 105.573,140.257 107.836,140.299 105.160 C 140.341 102.484,140.341 98.031,140.299 95.265 C 140.257 92.498,140.222 94.688,140.222 100.130 M145.951 100.130 C 145.951 105.430,145.986 107.561,146.028 104.866 C 146.071 102.171,146.071 97.835,146.028 95.230 C 145.986 92.626,145.951 94.831,145.951 100.130 M200.357 93.229 C 200.357 94.733,200.400 95.348,200.452 94.596 C 200.505 93.844,200.505 92.614,200.452 91.862 C 200.400 91.110,200.357 91.725,200.357 93.229 M184.988 99.870 C 184.987 101.159,185.032 101.719,185.086 101.115 C 185.141 100.510,185.141 99.456,185.088 98.771 C 185.034 98.086,184.989 98.581,184.988 99.870 M122.075 101.230 C 122.543 101.288,123.246 101.287,123.637 101.228 C 124.029 101.168,123.646 101.121,122.786 101.122 C 121.927 101.124,121.607 101.172,122.075 101.230 M195.573 109.221 L 195.573 116.649 192.773 116.737 L 189.974 116.826 192.839 116.811 L 195.703 116.797 195.833 109.415 C 195.905 105.355,195.876 101.979,195.768 101.913 C 195.661 101.846,195.573 105.135,195.573 109.221 M230.592 110.482 L 230.599 116.797 233.464 116.811 L 236.328 116.826 233.533 116.738 L 230.738 116.649 230.662 110.408 L 230.585 104.166 230.592 110.482 M61.508 115.819 C 63.326 115.864,66.373 115.864,68.279 115.820 C 70.185 115.775,68.698 115.739,64.974 115.738 C 61.250 115.738,59.690 115.775,61.508 115.819 M201.011 116.741 C 201.124 116.854,202.495 116.912,204.059 116.870 L 206.901 116.794 203.853 116.665 C 202.177 116.594,200.898 116.629,201.011 116.741 M160.742 116.859 C 161.566 116.911,162.913 116.911,163.737 116.859 C 164.561 116.807,163.887 116.765,162.240 116.765 C 160.592 116.765,159.919 116.807,160.742 116.859 M76.110 180.135 C 76.506 180.195,77.092 180.193,77.412 180.131 C 77.733 180.069,77.409 180.020,76.693 180.022 C 75.977 180.024,75.715 180.075,76.110 180.135 M316.602 180.132 C 316.924 180.194,317.451 180.194,317.773 180.132 C 318.096 180.070,317.832 180.019,317.188 180.019 C 316.543 180.019,316.279 180.070,316.602 180.132 M306.333 190.885 C 306.333 191.816,306.381 192.197,306.438 191.732 C 306.496 191.266,306.496 190.505,306.438 190.039 C 306.381 189.574,306.333 189.954,306.333 190.885 M65.685 190.885 C 65.685 191.387,65.739 191.592,65.805 191.341 C 65.870 191.090,65.870 190.680,65.805 190.430 C 65.739 190.179,65.685 190.384,65.685 190.885 M241.472 196.745 C 241.475 197.318,241.528 197.521,241.590 197.197 C 241.653 196.874,241.650 196.405,241.585 196.156 C 241.520 195.907,241.469 196.172,241.472 196.745 M84.228 198.763 L 83.464 199.609 84.310 198.845 C 85.099 198.132,85.276 197.917,85.075 197.917 C 85.030 197.917,84.649 198.298,84.228 198.763 M151.937 214.909 L 151.172 215.755 152.018 214.990 C 152.484 214.570,152.865 214.189,152.865 214.144 C 152.865 213.943,152.650 214.120,151.937 214.909 M343.091 235.286 C 343.091 244.310,343.124 247.964,343.164 243.406 C 343.204 238.848,343.204 231.465,343.164 226.999 C 343.124 222.534,343.091 226.263,343.091 235.286 M291.268 235.417 C 291.268 244.225,291.301 247.829,291.341 243.424 C 291.381 239.020,291.381 231.813,291.341 227.409 C 291.301 223.005,291.268 226.608,291.268 235.417 M59.236 237.630 C 59.236 245.221,59.269 248.289,59.310 244.448 C 59.350 240.606,59.350 234.395,59.310 230.646 C 59.269 226.896,59.236 230.039,59.236 237.630 M331.116 263.542 C 331.116 285.384,331.147 294.320,331.185 283.398 C 331.222 272.477,331.222 254.606,331.185 243.685 C 331.147 232.764,331.116 241.699,331.116 263.542 M94.132 237.760 C 94.132 245.280,94.165 248.356,94.206 244.596 C 94.246 240.837,94.246 234.684,94.206 230.924 C 94.165 227.165,94.132 230.241,94.132 237.760 M90.491 264.193 C 90.491 285.964,90.522 294.831,90.560 283.899 C 90.597 272.966,90.597 255.154,90.560 244.315 C 90.522 233.477,90.491 242.422,90.491 264.193 M129.758 245.833 C 129.758 246.478,129.809 246.742,129.871 246.419 C 129.933 246.097,129.933 245.570,129.871 245.247 C 129.809 244.925,129.758 245.189,129.758 245.833 M284.706 245.833 C 284.706 246.478,284.757 246.742,284.819 246.419 C 284.881 246.097,284.881 245.570,284.819 245.247 C 284.757 244.925,284.706 245.189,284.706 245.833 M112.560 245.833 C 112.560 246.335,112.614 246.540,112.680 246.289 C 112.745 246.038,112.745 245.628,112.680 245.378 C 112.614 245.127,112.560 245.332,112.560 245.833 M267.514 245.964 C 267.516 246.536,267.570 246.740,267.632 246.416 C 267.694 246.092,267.692 245.624,267.627 245.375 C 267.562 245.126,267.511 245.391,267.514 245.964 M260.748 250.000 C 260.748 250.645,260.799 250.908,260.861 250.586 C 260.923 250.264,260.923 249.736,260.861 249.414 C 260.799 249.092,260.748 249.355,260.748 250.000 M143.688 254.611 C 144.012 254.674,144.481 254.671,144.730 254.606 C 144.979 254.541,144.714 254.490,144.141 254.493 C 143.568 254.496,143.364 254.549,143.688 254.611 M194.209 254.611 C 194.533 254.674,195.001 254.671,195.250 254.606 C 195.499 254.541,195.234 254.490,194.661 254.493 C 194.089 254.496,193.885 254.549,194.209 254.611 M205.534 254.607 C 205.785 254.672,206.195 254.672,206.445 254.607 C 206.696 254.541,206.491 254.488,205.990 254.488 C 205.488 254.488,205.283 254.541,205.534 254.607 M255.928 254.611 C 256.251 254.674,256.720 254.671,256.969 254.606 C 257.218 254.541,256.953 254.490,256.380 254.493 C 255.807 254.496,255.604 254.549,255.928 254.611 M315.489 280.078 C 315.489 292.826,315.521 298.002,315.560 291.582 C 315.599 285.162,315.599 274.732,315.560 268.405 C 315.521 262.078,315.489 267.331,315.489 280.078 M268.555 257.992 C 268.805 258.058,269.215 258.058,269.466 257.992 C 269.717 257.927,269.512 257.873,269.010 257.873 C 268.509 257.873,268.304 257.927,268.555 257.992 M283.138 257.992 C 283.389 258.058,283.799 258.058,284.049 257.992 C 284.300 257.927,284.095 257.873,283.594 257.873 C 283.092 257.873,282.887 257.927,283.138 257.992 M286.318 268.815 C 286.249 268.994,286.224 277.168,286.263 286.979 L 286.332 304.818 286.395 286.768 C 286.443 273.205,286.533 268.765,286.759 268.905 C 286.945 269.020,286.989 268.977,286.874 268.790 C 286.634 268.403,286.472 268.410,286.318 268.815 M266.009 286.979 C 266.009 296.934,266.041 301.006,266.081 296.029 C 266.120 291.051,266.120 282.907,266.081 277.930 C 266.041 272.952,266.009 277.025,266.009 286.979 M146.003 271.940 C 146.070 272.048,148.578 272.135,151.576 272.135 L 157.027 272.135 157.097 288.086 L 157.167 304.036 157.164 288.021 L 157.161 272.005 151.522 271.875 C 148.420 271.803,145.937 271.833,146.003 271.940 M187.240 271.867 L 181.641 272.005 181.638 288.021 L 181.635 304.036 181.705 288.086 L 181.775 272.135 187.226 272.135 C 190.580 272.135,192.740 272.035,192.839 271.875 C 192.927 271.732,192.963 271.640,192.919 271.672 C 192.875 271.703,190.319 271.791,187.240 271.867 M167.833 272.187 C 167.762 272.374,167.735 279.674,167.773 288.411 L 167.843 304.297 167.906 288.216 L 167.969 272.135 169.399 272.135 L 170.829 272.135 170.899 288.086 L 170.970 304.036 170.967 288.021 L 170.964 272.005 169.463 271.927 C 168.413 271.872,167.924 271.950,167.833 272.187 M213.214 272.070 L 218.746 272.146 218.815 287.961 L 218.884 303.776 218.947 287.826 L 219.010 271.875 213.346 271.935 L 207.682 271.994 213.214 272.070 M231.053 272.067 L 232.548 272.161 232.617 287.969 L 232.686 303.776 232.749 287.826 L 232.813 271.875 231.185 271.924 L 229.557 271.973 231.053 272.067 M246.144 272.069 C 247.676 272.115,250.254 272.115,251.874 272.070 C 253.493 272.024,252.240 271.986,249.089 271.986 C 245.938 271.986,244.613 272.023,246.144 272.069 M274.855 297.005 C 274.855 301.302,274.891 303.096,274.934 300.993 C 274.978 298.889,274.978 295.373,274.934 293.180 C 274.891 290.987,274.855 292.708,274.855 297.005 M277.459 297.266 C 277.459 301.563,277.495 303.357,277.538 301.253 C 277.582 299.149,277.582 295.634,277.539 293.441 C 277.495 291.247,277.459 292.969,277.459 297.266 M119.906 297.917 C 119.906 301.999,119.942 303.669,119.986 301.628 C 120.030 299.587,120.030 296.247,119.986 294.206 C 119.942 292.165,119.906 293.835,119.906 297.917 M122.511 297.917 C 122.511 301.999,122.547 303.669,122.591 301.628 C 122.635 299.587,122.635 296.247,122.591 294.206 C 122.547 292.165,122.511 293.835,122.511 297.917 M68.428 308.518 C 68.751 308.580,69.220 308.577,69.469 308.512 C 69.718 308.447,69.453 308.396,68.880 308.399 C 68.307 308.402,68.104 308.455,68.428 308.518 M84.053 308.518 C 84.376 308.580,84.845 308.577,85.094 308.512 C 85.343 308.447,85.078 308.396,84.505 308.399 C 83.932 308.402,83.729 308.455,84.053 308.518 M308.789 308.517 C 309.111 308.579,309.639 308.579,309.961 308.517 C 310.283 308.455,310.020 308.404,309.375 308.404 C 308.730 308.404,308.467 308.455,308.789 308.517 M324.414 308.517 C 324.736 308.579,325.264 308.579,325.586 308.517 C 325.908 308.455,325.645 308.404,325.000 308.404 C 324.355 308.404,324.092 308.455,324.414 308.517 " stroke="none" fill="#f4967e" fill-rule="evenodd"></path><path id="path3" d="M127.201 46.224 C 127.201 51.380,127.236 53.526,127.278 50.993 C 127.321 48.460,127.321 44.242,127.278 41.618 C 127.236 38.995,127.201 41.068,127.201 46.224 M135.013 53.776 C 135.013 58.789,135.048 60.803,135.091 58.251 C 135.133 55.700,135.133 51.598,135.091 49.137 C 135.048 46.675,135.013 48.763,135.013 53.776 M48.492 57.602 C 48.462 61.425,48.525 64.607,48.633 64.674 C 48.740 64.740,48.798 62.726,48.761 60.197 C 48.635 51.515,48.546 50.661,48.492 57.602 M57.519 55.664 C 57.195 56.077,57.204 56.086,57.616 55.763 C 58.048 55.425,58.074 56.914,58.138 85.581 L 58.205 115.755 58.269 85.482 C 58.306 68.240,58.235 55.208,58.105 55.208 C 57.979 55.208,57.715 55.413,57.519 55.664 M51.028 62.435 L 50.130 63.411 51.107 62.514 C 52.016 61.679,52.203 61.458,52.004 61.458 C 51.961 61.458,51.521 61.898,51.028 62.435 M118.021 83.527 C 119.267 83.575,121.376 83.575,122.708 83.528 C 124.040 83.480,123.021 83.441,120.443 83.441 C 117.865 83.441,116.775 83.479,118.021 83.527 M154.232 83.526 C 155.055 83.577,156.403 83.577,157.227 83.526 C 158.050 83.474,157.376 83.432,155.729 83.432 C 154.082 83.432,153.408 83.474,154.232 83.526 M167.643 83.525 C 168.395 83.578,169.626 83.578,170.378 83.525 C 171.130 83.473,170.514 83.430,169.010 83.430 C 167.507 83.430,166.891 83.473,167.643 83.525 M177.133 83.528 C 178.951 83.573,181.998 83.573,183.904 83.528 C 185.810 83.484,184.323 83.447,180.599 83.447 C 176.875 83.447,175.315 83.483,177.133 83.528 M192.239 83.527 C 193.485 83.575,195.595 83.575,196.927 83.528 C 198.259 83.480,197.240 83.441,194.661 83.441 C 192.083 83.441,190.993 83.479,192.239 83.527 M215.224 83.527 L 222.636 83.602 222.728 85.876 L 222.821 88.151 222.804 85.807 L 222.786 83.464 215.299 83.457 L 207.812 83.451 215.224 83.527 M225.260 83.502 C 227.397 83.693,230.411 83.709,230.299 83.529 C 230.232 83.421,228.866 83.353,227.263 83.377 C 225.660 83.401,224.759 83.458,225.260 83.502 M238.216 83.525 C 238.968 83.578,240.199 83.578,240.951 83.525 C 241.702 83.473,241.087 83.430,239.583 83.430 C 238.079 83.430,237.464 83.473,238.216 83.525 M121.467 94.661 C 121.467 98.242,121.504 99.743,121.549 97.997 C 121.594 96.251,121.594 93.321,121.549 91.487 C 121.504 89.652,121.467 91.081,121.467 94.661 M179.548 92.903 L 179.557 97.526 182.161 97.540 L 184.766 97.553 182.233 97.466 L 179.699 97.378 179.619 92.829 L 179.539 88.281 179.548 92.903 M212.361 102.474 C 212.361 110.352,212.394 113.612,212.435 109.719 C 212.475 105.826,212.475 99.381,212.435 95.396 C 212.394 91.411,212.361 94.596,212.361 102.474 M179.543 102.418 C 179.472 102.601,179.447 104.857,179.486 107.431 L 179.557 112.109 183.464 112.121 L 187.370 112.132 183.529 112.048 L 179.688 111.965 179.688 107.164 L 179.688 102.362 182.357 102.278 L 185.026 102.193 182.349 102.138 C 180.368 102.098,179.638 102.170,179.543 102.418 M121.471 105.801 C 121.400 105.984,121.377 108.533,121.419 111.465 L 121.496 116.797 121.555 111.275 L 121.615 105.754 123.242 105.662 L 124.870 105.569 123.234 105.519 C 122.109 105.484,121.558 105.572,121.471 105.801 M179.753 196.745 C 179.756 197.318,179.809 197.521,179.872 197.197 C 179.934 196.874,179.932 196.405,179.866 196.156 C 179.801 195.907,179.750 196.172,179.753 196.745 M76.110 202.010 C 76.506 202.070,77.092 202.068,77.412 202.006 C 77.733 201.944,77.409 201.895,76.693 201.897 C 75.977 201.899,75.715 201.950,76.110 202.010 M316.602 202.007 C 316.924 202.069,317.451 202.069,317.773 202.007 C 318.096 201.945,317.832 201.894,317.188 201.894 C 316.543 201.894,316.279 201.945,316.602 202.007 M50.643 235.547 C 50.643 244.284,50.676 247.820,50.716 243.406 C 50.756 238.991,50.756 231.843,50.716 227.520 C 50.676 223.198,50.643 226.810,50.643 235.547 M299.861 237.630 C 299.861 245.078,299.894 248.087,299.935 244.318 C 299.975 240.548,299.975 234.454,299.935 230.776 C 299.894 227.098,299.861 230.182,299.861 237.630 M303.252 263.802 C 303.252 285.501,303.283 294.378,303.320 283.529 C 303.358 272.679,303.358 254.925,303.320 244.076 C 303.283 233.226,303.252 242.103,303.252 263.802 M278.323 257.736 C 278.647 257.799,279.116 257.796,279.365 257.731 C 279.614 257.666,279.349 257.615,278.776 257.618 C 278.203 257.621,277.999 257.674,278.323 257.736 M318.875 280.469 C 318.875 293.145,318.906 298.330,318.945 291.992 C 318.984 285.654,318.984 275.283,318.945 268.945 C 318.906 262.607,318.875 267.793,318.875 280.469 M118.280 259.830 C 119.812 259.876,122.390 259.876,124.009 259.830 C 125.628 259.784,124.375 259.747,121.224 259.746 C 118.073 259.746,116.748 259.784,118.280 259.830 M243.612 287.760 C 243.612 296.426,243.645 299.971,243.685 295.638 C 243.725 291.305,243.725 284.215,243.685 279.883 C 243.645 275.550,243.612 279.095,243.612 287.760 " stroke="none" fill="#f46a57" fill-rule="evenodd"></path><path id="path4" d="M56.236 56.966 L 55.339 57.943 56.315 57.045 C 57.224 56.210,57.411 55.990,57.213 55.990 C 57.169 55.990,56.730 56.429,56.236 56.966 " stroke="none" fill="#f48c74" fill-rule="evenodd"></path></g></svg>