<svg id="svg" version="1.1" xmlns="http://www.w3.org/2000/svg" xmlns:xlink="http://www.w3.org/1999/xlink" width="400" height="400" viewBox="0, 0, 400,400"><g id="svgg"><path id="path0" d="M72.133 33.622 C 63.131 35.395,57.971 41.471,56.797 51.678 C 56.191 56.945,56.586 94.382,57.275 96.989 C 60.021 107.381,66.037 111.872,77.200 111.862 C 87.614 111.853,93.896 107.190,96.598 97.467 C 97.303 94.931,97.694 54.982,97.058 50.533 C 95.831 41.953,91.279 36.234,83.996 34.125 C 81.706 33.462,74.497 33.157,72.133 33.622 M204.667 34.256 C 203.933 34.469,203.260 34.648,203.171 34.655 C 202.501 34.703,200.487 37.013,199.955 38.342 C 199.212 40.198,198.859 54.709,199.485 57.676 C 200.385 61.943,202.617 63.600,207.467 63.600 C 213.062 63.600,214.931 61.597,215.369 55.133 L 215.545 52.533 212.839 52.533 L 210.133 52.533 210.133 55.213 C 210.133 59.338,208.800 60.825,206.226 59.568 C 204.567 58.758,204.495 58.259,204.587 48.272 C 204.680 38.172,204.764 37.867,207.467 37.867 C 209.577 37.867,210.133 38.788,210.133 42.279 L 210.133 44.800 212.839 44.800 L 215.545 44.800 215.370 42.306 C 214.893 35.521,210.830 32.465,204.667 34.256 M127.733 48.762 L 127.733 63.467 130.400 63.467 L 133.067 63.467 133.067 56.785 L 133.067 50.103 134.200 50.185 L 135.333 50.267 137.067 56.866 L 138.800 63.465 141.400 63.466 C 142.830 63.466,144.000 63.377,144.000 63.267 C 143.999 63.157,143.170 60.127,142.158 56.533 C 141.145 52.940,140.275 49.799,140.225 49.554 C 140.169 49.281,140.495 48.865,141.067 48.477 C 144.415 46.213,144.405 38.180,141.051 35.856 C 139.397 34.710,137.655 34.375,132.467 34.209 L 127.733 34.057 127.733 48.762 M146.667 48.800 L 146.667 63.467 152.800 63.467 L 158.933 63.467 158.933 61.600 L 158.933 59.733 155.467 59.733 L 152.000 59.733 152.000 54.933 L 152.000 50.133 154.800 50.133 L 157.600 50.133 157.600 48.267 L 157.600 46.400 154.800 46.400 L 152.000 46.400 152.000 42.267 L 152.000 38.133 155.467 38.133 L 158.933 38.133 158.933 36.133 L 158.933 34.133 152.800 34.133 L 146.667 34.133 146.667 48.800 M161.267 34.281 C 161.157 34.395,161.067 41.021,161.067 49.006 L 161.067 63.522 166.333 63.416 C 176.511 63.210,177.556 61.632,177.262 46.933 C 177.078 37.731,176.354 35.976,172.259 34.814 C 170.424 34.293,161.663 33.868,161.267 34.281 M180.000 45.214 C 180.000 61.704,180.718 63.432,187.680 63.693 C 195.593 63.989,196.628 61.562,196.473 43.067 L 196.400 34.267 193.800 34.190 L 191.200 34.114 191.199 45.390 C 191.197 59.119,191.069 59.733,188.213 59.733 C 185.231 59.733,185.215 59.665,185.118 45.800 L 185.036 34.133 182.518 34.133 L 180.000 34.133 180.000 45.214 M218.133 48.800 L 218.133 63.467 224.267 63.467 L 230.400 63.467 230.400 61.600 L 230.400 59.733 226.933 59.733 L 223.467 59.733 223.467 54.933 L 223.467 50.133 226.133 50.133 L 228.800 50.133 228.800 48.267 L 228.800 46.400 226.133 46.400 L 223.467 46.400 223.467 42.267 L 223.467 38.133 226.933 38.133 L 230.400 38.133 230.400 36.133 L 230.400 34.133 224.267 34.133 L 218.133 34.133 218.133 48.800 M232.533 48.785 L 232.533 63.516 237.667 63.403 C 247.877 63.177,248.400 62.453,248.400 48.533 L 248.400 39.600 247.640 38.053 C 246.204 35.127,244.343 34.428,237.400 34.208 L 232.533 34.054 232.533 48.785 M35.953 35.695 C 33.997 37.315,30.707 39.248,26.542 41.223 L 23.216 42.800 23.208 48.067 C 23.203 51.625,23.292 53.333,23.485 53.333 C 23.837 53.333,30.231 51.109,32.379 50.239 C 33.248 49.888,34.058 49.600,34.179 49.600 C 34.301 49.600,34.400 63.340,34.400 80.133 L 34.400 110.667 41.733 110.667 L 49.067 110.667 49.067 72.533 L 49.067 34.400 43.267 34.421 L 37.467 34.442 35.953 35.695 M136.520 38.215 C 137.892 38.690,138.512 39.942,138.517 42.254 C 138.526 45.425,137.408 46.667,134.547 46.667 L 133.067 46.667 133.067 42.267 L 133.067 37.867 134.333 37.882 C 135.030 37.890,136.014 38.040,136.520 38.215 M170.361 38.513 C 171.675 39.193,171.733 39.634,171.732 48.879 C 171.731 59.547,171.664 59.733,167.849 59.733 L 166.400 59.733 166.400 48.933 L 166.400 38.133 168.013 38.133 C 168.901 38.133,169.957 38.304,170.361 38.513 M242.196 38.911 L 243.067 39.690 243.067 48.711 C 243.067 59.672,243.045 59.733,239.160 59.733 L 237.867 59.733 237.867 48.933 L 237.867 38.133 239.596 38.133 C 241.129 38.133,241.423 38.221,242.196 38.911 M79.945 46.894 C 82.487 48.704,82.533 49.172,82.533 73.067 L 82.533 93.733 81.936 95.316 C 80.062 100.283,74.842 100.740,72.533 96.140 L 71.600 94.280 71.524 73.567 C 71.442 51.243,71.493 50.248,72.831 48.084 C 74.045 46.119,77.942 45.468,79.945 46.894 M175.200 81.956 C 170.089 83.138,169.493 84.572,169.383 95.963 C 169.258 108.895,170.188 110.845,176.840 111.595 C 178.295 111.759,178.389 111.819,179.600 113.361 C 180.721 114.787,183.617 117.304,183.831 117.037 C 183.877 116.980,184.119 116.188,184.368 115.278 L 184.821 113.622 183.461 112.311 L 182.101 111.000 183.521 109.567 C 185.791 107.276,185.969 106.451,186.083 97.639 C 186.209 87.969,185.662 85.091,183.361 83.336 C 181.527 81.938,177.918 81.327,175.200 81.956 M292.245 81.858 C 288.486 82.529,286.499 85.146,286.569 89.333 C 286.623 92.552,287.528 93.963,292.050 97.881 C 296.059 101.355,296.962 102.751,296.735 105.121 C 296.293 109.717,291.200 107.472,291.200 102.682 C 291.200 101.727,291.142 101.718,288.499 102.274 C 286.130 102.772,286.307 102.549,286.671 104.572 C 287.706 110.342,292.675 113.213,297.733 110.965 C 303.911 108.220,303.243 100.912,296.258 94.819 C 291.436 90.611,290.672 89.243,291.862 86.942 C 293.210 84.335,296.320 85.718,296.721 89.103 L 296.880 90.444 297.840 90.268 C 301.841 89.533,301.745 89.654,300.788 86.557 C 299.637 82.831,296.492 81.102,292.245 81.858 M127.733 96.667 L 127.733 111.200 130.400 111.200 L 133.067 111.200 133.067 96.667 L 133.067 82.133 130.400 82.133 L 127.733 82.133 127.733 96.667 M136.533 96.655 L 136.533 111.200 138.796 111.200 L 141.059 111.200 141.130 102.625 L 141.200 94.050 143.447 99.492 C 144.682 102.485,146.285 106.343,147.009 108.067 L 148.324 111.200 150.029 111.200 L 151.733 111.200 151.733 96.667 L 151.733 82.133 149.604 82.133 L 147.474 82.133 147.404 90.304 L 147.333 98.474 143.844 90.370 L 140.355 82.267 138.444 82.188 L 136.533 82.110 136.533 96.655 M155.200 96.667 L 155.200 111.200 161.333 111.200 L 167.467 111.200 167.467 109.333 L 167.467 107.467 164.000 107.467 L 160.533 107.467 160.533 102.667 L 160.533 97.867 163.333 97.867 L 166.133 97.867 166.133 96.000 L 166.133 94.133 163.333 94.133 L 160.533 94.133 160.533 90.000 L 160.533 85.867 164.000 85.867 L 167.467 85.867 167.467 84.000 L 167.467 82.133 161.333 82.133 L 155.200 82.133 155.200 96.667 M188.862 93.800 C 188.969 106.657,189.016 107.033,190.750 109.207 C 193.599 112.777,201.921 112.268,203.934 108.400 C 205.073 106.209,205.149 105.362,205.263 93.533 L 205.374 82.133 202.687 82.133 L 200.000 82.133 199.994 93.533 C 199.989 104.158,199.954 105.009,199.481 106.050 C 198.818 107.512,197.456 108.015,195.911 107.369 C 194.039 106.587,194.019 106.447,193.917 93.533 L 193.826 82.133 191.296 82.133 L 188.765 82.133 188.862 93.800 M212.800 82.335 C 212.800 82.535,207.339 109.453,207.066 110.600 C 206.926 111.190,206.966 111.200,209.434 111.200 L 211.945 111.200 212.385 108.733 C 212.628 107.377,212.894 105.872,212.978 105.391 L 213.130 104.515 215.698 104.591 L 218.267 104.667 218.809 107.867 L 219.352 111.067 221.809 111.143 C 223.161 111.186,224.267 111.139,224.267 111.040 C 224.267 110.780,218.668 83.155,218.503 82.600 C 218.358 82.113,212.800 81.855,212.800 82.335 M226.400 96.667 L 226.400 111.200 232.533 111.200 L 238.667 111.200 238.667 109.333 L 238.667 107.467 235.200 107.467 L 231.733 107.467 231.733 94.800 L 231.733 82.133 229.067 82.133 L 226.400 82.133 226.400 96.667 M240.533 96.667 L 240.533 111.200 243.200 111.200 L 245.867 111.200 245.867 96.667 L 245.867 82.133 243.200 82.133 L 240.533 82.133 240.533 96.667 M247.467 84.000 L 247.467 85.867 249.867 85.867 L 252.267 85.867 252.267 98.533 L 252.267 111.200 254.933 111.200 L 257.600 111.200 257.600 98.533 L 257.600 85.867 260.000 85.867 L 262.400 85.867 262.400 84.000 L 262.400 82.133 254.933 82.133 L 247.467 82.133 247.467 84.000 M264.000 96.667 L 264.000 111.200 266.533 111.200 L 269.067 111.200 269.067 96.667 L 269.067 82.133 266.533 82.133 L 264.000 82.133 264.000 96.667 M272.800 96.667 L 272.800 111.200 278.933 111.200 L 285.067 111.200 285.067 109.333 L 285.067 107.467 281.600 107.467 L 278.133 107.467 278.133 102.667 L 278.133 97.867 280.800 97.867 L 283.467 97.867 283.467 96.000 L 283.467 94.133 280.800 94.133 L 278.133 94.133 278.133 90.008 L 278.133 85.883 281.533 85.808 L 284.933 85.733 285.012 83.933 L 285.091 82.133 278.946 82.133 L 272.800 82.133 272.800 96.667 M179.037 85.855 C 180.580 86.442,180.667 87.020,180.667 96.667 C 180.667 104.556,180.618 105.555,180.198 106.323 C 179.281 108.002,176.532 108.147,175.360 106.579 C 174.590 105.547,174.338 88.640,175.070 87.096 C 175.715 85.737,177.367 85.220,179.037 85.855 M216.686 95.085 C 217.189 98.131,217.600 100.722,217.600 100.844 C 217.600 101.225,213.868 101.114,213.857 100.733 C 213.839 100.150,215.583 89.360,215.679 89.457 C 215.730 89.507,216.183 92.040,216.686 95.085 M182.027 164.240 C 169.056 177.212,164.234 182.196,164.353 182.506 C 164.502 182.895,167.729 182.933,200.267 182.933 C 232.804 182.933,236.031 182.895,236.181 182.506 C 236.371 182.011,200.949 146.400,200.267 146.400 C 200.046 146.400,191.838 154.428,182.027 164.240 M113.533 232.734 C 101.801 244.466,95.733 250.717,95.733 251.070 C 95.733 252.013,131.333 287.376,131.851 286.947 C 132.224 286.637,132.267 282.938,132.267 251.087 C 132.267 215.950,132.245 214.933,131.479 214.933 C 131.398 214.933,123.322 222.944,113.533 232.734 M268.711 215.111 C 268.383 215.439,268.502 286.882,268.831 287.086 C 269.139 287.276,305.067 251.563,305.067 251.067 C 305.067 250.790,269.320 214.933,269.044 214.933 C 268.959 214.933,268.809 215.013,268.711 215.111 M162.789 215.800 C 162.718 215.983,162.692 221.353,162.730 227.733 L 162.800 239.333 200.133 239.402 C 234.996 239.466,237.489 239.441,237.800 239.018 C 238.272 238.377,238.284 216.258,237.813 215.787 C 237.336 215.309,162.972 215.323,162.789 215.800 M162.789 263.000 C 162.718 263.183,162.692 268.553,162.730 274.933 L 162.800 286.533 200.133 286.602 C 234.996 286.666,237.489 286.641,237.800 286.218 C 238.232 285.631,238.286 263.983,237.857 263.182 C 237.509 262.531,163.038 262.350,162.789 263.000 M164.353 319.627 C 164.163 320.122,199.584 355.733,200.267 355.733 C 200.835 355.733,236.267 320.235,236.267 319.666 C 236.267 318.975,164.618 318.937,164.353 319.627 " stroke="none" fill="#fbfbfb" fill-rule="evenodd"></path><path id="path1" d="M0.000 200.000 L 0.000 400.000 200.000 400.000 L 400.000 400.000 400.000 200.000 L 400.000 0.000 200.000 0.000 L 0.000 0.000 0.000 200.000 M81.361 33.456 C 89.399 34.667,94.515 39.402,96.661 47.616 C 97.542 50.988,97.635 53.813,97.543 74.400 L 97.452 94.800 96.751 97.362 C 94.021 107.337,87.572 112.135,76.933 112.103 C 67.814 112.075,62.229 108.881,58.786 101.722 C 56.592 97.161,56.667 98.178,56.667 72.800 L 56.667 50.267 57.275 47.867 C 60.067 36.857,68.893 31.576,81.361 33.456 M210.770 34.244 C 213.923 35.193,215.240 37.402,215.418 42.040 L 215.534 45.067 212.834 45.067 L 210.133 45.067 210.132 42.867 C 210.129 38.764,209.171 37.459,206.659 38.135 C 204.795 38.637,204.701 39.055,204.584 47.333 C 204.434 58.050,204.819 59.733,207.422 59.733 C 209.490 59.733,210.129 58.522,210.132 54.600 L 210.133 52.267 212.800 52.267 L 215.467 52.267 215.467 54.520 C 215.467 61.333,212.654 64.345,206.680 63.928 C 203.048 63.675,200.677 61.988,199.603 58.892 C 198.461 55.603,198.758 40.812,200.026 37.866 C 201.470 34.509,206.272 32.891,210.770 34.244 M49.067 72.533 L 49.067 110.933 41.600 110.933 L 34.133 110.933 34.133 80.400 C 34.133 63.607,34.034 49.867,33.913 49.867 C 33.791 49.867,32.981 50.154,32.113 50.506 C 30.412 51.195,23.600 53.600,23.351 53.600 C 23.268 53.600,23.200 51.152,23.200 48.161 L 23.200 42.722 27.267 40.724 C 31.458 38.665,35.645 36.075,36.780 34.838 L 37.426 34.133 43.246 34.133 L 49.067 34.133 49.067 72.533 M137.920 34.433 C 142.157 35.331,143.952 37.995,143.669 42.963 C 143.488 46.125,142.333 48.292,140.338 49.207 C 140.304 49.223,141.174 52.431,142.271 56.337 C 143.369 60.242,144.267 63.504,144.267 63.586 C 144.267 63.667,143.011 63.733,141.477 63.733 L 138.687 63.733 138.427 62.733 C 138.284 62.183,137.612 59.573,136.934 56.933 C 135.128 49.898,135.345 50.400,134.113 50.400 L 133.067 50.400 133.067 57.067 L 133.067 63.733 130.267 63.733 L 127.467 63.733 127.467 48.933 L 127.467 34.133 131.987 34.133 C 134.473 34.133,137.143 34.268,137.920 34.433 M159.200 36.133 L 159.200 38.133 155.733 38.133 L 152.267 38.133 152.267 42.267 L 152.267 46.400 154.933 46.400 L 157.600 46.400 157.600 48.400 L 157.600 50.400 154.933 50.400 L 152.267 50.400 152.267 55.067 L 152.267 59.733 155.733 59.733 L 159.200 59.733 159.200 61.733 L 159.200 63.733 152.933 63.733 L 146.667 63.733 146.667 48.933 L 146.667 34.133 152.933 34.133 L 159.200 34.133 159.200 36.133 M171.877 34.540 C 174.133 35.117,175.435 36.111,176.397 37.991 L 177.200 39.562 177.200 48.514 C 177.200 58.234,177.158 58.573,175.680 60.736 C 174.139 62.992,171.509 63.710,164.733 63.725 L 161.067 63.733 161.067 48.933 L 161.067 34.133 165.677 34.133 C 168.936 34.133,170.754 34.253,171.877 34.540 M185.390 45.981 C 185.465 57.530,185.481 57.847,186.026 58.581 C 187.234 60.209,189.678 59.991,190.581 58.175 C 191.024 57.286,191.074 56.183,191.151 45.667 L 191.236 34.133 193.900 34.133 L 196.564 34.133 196.471 45.933 C 196.365 59.294,196.322 59.617,194.361 61.745 C 191.304 65.061,183.849 64.634,181.422 61.003 C 180.015 58.897,179.941 58.192,179.810 45.667 L 179.689 34.133 182.501 34.133 L 185.312 34.133 185.390 45.981 M230.400 36.133 L 230.400 38.133 226.933 38.133 L 223.467 38.133 223.467 42.267 L 223.467 46.400 226.267 46.400 L 229.067 46.400 229.067 48.400 L 229.067 50.400 226.267 50.400 L 223.467 50.400 223.467 55.067 L 223.467 59.733 227.078 59.733 L 230.690 59.733 230.612 61.667 L 230.533 63.600 224.267 63.600 L 218.000 63.600 217.931 48.867 L 217.862 34.133 224.131 34.133 L 230.400 34.133 230.400 36.133 M244.073 34.679 C 248.132 36.082,248.903 38.596,248.743 49.918 C 248.571 62.184,247.586 63.392,237.533 63.670 L 232.533 63.808 232.533 48.943 L 232.533 34.078 237.800 34.204 C 241.117 34.284,243.439 34.460,244.073 34.679 M133.067 42.438 L 133.067 46.743 134.715 46.570 C 137.472 46.282,138.400 45.183,138.400 42.209 C 138.399 39.300,137.320 38.144,134.600 38.137 L 133.067 38.133 133.067 42.438 M166.667 48.970 L 166.667 59.807 168.195 59.627 C 171.609 59.226,171.600 59.255,171.600 48.788 C 171.600 38.258,171.557 38.141,167.667 38.135 L 166.667 38.133 166.667 48.970 M238.133 48.927 L 238.133 59.795 239.667 59.604 C 243.058 59.181,243.053 59.197,243.060 48.933 C 243.068 38.598,243.039 38.504,239.690 38.200 L 238.133 38.059 238.133 48.927 M75.540 46.382 C 73.623 46.860,72.699 48.038,71.970 50.933 C 71.351 53.387,71.432 92.658,72.060 94.683 C 74.071 101.175,80.826 100.538,82.125 93.733 C 82.673 90.865,82.378 51.691,81.796 49.970 C 80.800 47.029,78.422 45.664,75.540 46.382 M181.044 82.018 C 185.329 83.290,185.978 85.088,186.084 95.963 C 186.185 106.389,186.017 107.341,183.676 109.682 L 182.319 111.040 183.687 112.297 C 184.944 113.453,185.035 113.616,184.807 114.311 C 184.671 114.726,184.427 115.584,184.265 116.217 L 183.970 117.367 183.156 116.851 C 182.167 116.225,180.249 114.391,179.029 112.903 C 178.181 111.869,178.030 111.798,176.427 111.669 C 172.960 111.391,170.788 109.753,169.682 106.581 C 168.950 104.482,168.958 88.852,169.692 86.672 C 171.134 82.391,175.824 80.468,181.044 82.018 M297.766 82.341 C 299.736 83.360,301.150 85.785,301.371 88.519 L 301.467 89.705 299.733 90.049 C 298.780 90.239,297.736 90.456,297.412 90.532 C 296.904 90.652,296.804 90.535,296.668 89.669 C 296.102 86.047,294.235 84.674,292.388 86.521 C 290.695 88.214,291.626 90.679,295.057 93.592 C 300.638 98.330,302.602 101.682,301.990 105.428 C 300.481 114.668,286.838 113.579,286.579 104.197 L 286.533 102.557 287.904 102.247 C 288.658 102.076,289.694 101.858,290.206 101.762 L 291.137 101.588 291.318 103.037 C 291.787 106.786,294.662 108.817,296.193 106.480 C 297.585 104.356,296.453 101.980,292.293 98.290 C 286.543 93.189,285.290 90.412,286.805 86.119 C 288.183 82.213,293.789 80.281,297.766 82.341 M133.067 96.667 L 133.067 111.467 130.400 111.467 L 127.733 111.467 127.733 96.667 L 127.733 81.867 130.400 81.867 L 133.067 81.867 133.067 96.667 M143.732 89.713 L 147.067 97.427 147.137 89.647 L 147.208 81.867 149.604 81.867 L 152.000 81.867 152.000 96.678 L 152.000 111.490 150.091 111.412 L 148.181 111.333 144.824 103.223 L 141.467 95.112 141.333 103.223 L 141.200 111.333 138.867 111.410 L 136.533 111.487 136.533 96.665 L 136.533 81.843 138.466 81.922 L 140.398 82.000 143.732 89.713 M167.733 83.867 L 167.733 85.867 164.267 85.867 L 160.800 85.867 160.800 90.000 L 160.800 94.133 163.467 94.133 L 166.133 94.133 166.133 96.133 L 166.133 98.133 163.467 98.133 L 160.800 98.133 160.800 102.800 L 160.800 107.467 164.267 107.467 L 167.733 107.467 167.733 109.467 L 167.733 111.467 161.467 111.467 L 155.200 111.467 155.200 96.667 L 155.200 81.867 161.467 81.867 L 167.733 81.867 167.733 83.867 M194.133 92.949 C 194.133 106.591,194.305 107.467,196.987 107.467 C 199.816 107.467,199.852 107.297,199.949 93.533 L 200.031 81.867 202.682 81.867 L 205.333 81.867 205.333 93.022 C 205.333 105.233,205.228 106.376,203.894 108.603 C 201.609 112.419,193.561 112.883,190.651 109.367 C 188.910 107.263,188.800 106.316,188.800 93.439 L 188.800 81.867 191.467 81.867 L 194.133 81.867 194.133 92.949 M221.449 96.200 C 223.045 104.083,224.406 110.743,224.474 111.000 C 224.584 111.421,224.337 111.467,221.932 111.467 L 219.268 111.467 219.090 110.333 C 218.993 109.710,218.722 108.150,218.489 106.867 L 218.066 104.533 215.699 104.533 C 214.398 104.533,213.326 104.563,213.318 104.600 C 213.310 104.637,213.033 106.167,212.704 108.000 L 212.105 111.333 209.519 111.410 C 207.186 111.479,206.933 111.439,206.933 111.010 C 206.932 110.555,212.411 83.305,212.698 82.333 C 212.818 81.927,213.202 81.867,215.691 81.867 L 218.546 81.867 221.449 96.200 M231.733 94.667 L 231.733 107.467 235.200 107.467 L 238.667 107.467 238.667 109.467 L 238.667 111.467 232.400 111.467 L 226.133 111.467 226.133 96.667 L 226.133 81.867 228.933 81.867 L 231.733 81.867 231.733 94.667 M246.069 96.600 L 246.000 111.333 243.267 111.409 L 240.533 111.485 240.533 96.676 L 240.533 81.867 243.336 81.867 L 246.138 81.867 246.069 96.600 M262.400 84.000 L 262.400 86.133 260.136 86.133 L 257.872 86.133 257.803 98.733 L 257.733 111.333 255.000 111.409 L 252.267 111.485 252.267 98.809 L 252.267 86.133 249.733 86.133 L 247.200 86.133 247.200 84.000 L 247.200 81.867 254.800 81.867 L 262.400 81.867 262.400 84.000 M269.333 96.676 L 269.333 111.485 266.600 111.409 L 263.867 111.333 263.798 96.600 L 263.729 81.867 266.531 81.867 L 269.333 81.867 269.333 96.676 M285.067 83.867 L 285.067 85.867 281.600 85.867 L 278.133 85.867 278.133 90.000 L 278.133 94.133 280.933 94.133 L 283.733 94.133 283.733 96.133 L 283.733 98.133 280.933 98.133 L 278.133 98.133 278.133 102.800 L 278.133 107.467 281.745 107.467 L 285.357 107.467 285.278 109.400 L 285.200 111.333 278.933 111.333 L 272.667 111.333 272.598 96.600 L 272.529 81.867 278.798 81.867 L 285.067 81.867 285.067 83.867 M176.061 86.045 C 174.230 86.782,173.948 104.922,175.739 106.713 C 177.205 108.179,179.718 107.592,180.255 105.659 C 180.705 104.039,180.620 88.458,180.156 87.346 C 179.610 86.040,177.634 85.412,176.061 86.045 M214.830 95.139 C 214.425 97.739,214.035 100.077,213.962 100.333 C 213.847 100.744,214.042 100.800,215.582 100.800 C 217.075 100.800,217.332 100.731,217.326 100.333 C 217.314 99.585,215.826 90.670,215.690 90.534 C 215.622 90.466,215.235 92.538,214.830 95.139 M218.640 164.106 C 231.708 177.176,236.566 182.196,236.447 182.506 C 236.298 182.895,233.049 182.933,200.267 182.933 C 167.485 182.933,164.235 182.895,164.086 182.506 C 163.896 182.011,199.584 146.133,200.267 146.133 C 200.487 146.133,208.755 154.221,218.640 164.106 M132.133 251.063 C 132.133 286.188,132.121 287.062,131.628 287.157 C 130.956 287.286,95.467 251.868,95.467 251.068 C 95.467 250.265,130.893 214.896,131.600 214.993 C 132.130 215.066,132.133 215.269,132.133 251.063 M287.266 232.733 C 298.989 244.455,305.067 250.714,305.067 251.067 C 305.067 251.868,269.578 287.286,268.906 287.157 C 268.423 287.064,267.917 216.509,268.390 215.267 C 268.741 214.345,270.561 216.029,287.266 232.733 M237.837 215.564 C 238.054 215.826,238.119 219.213,238.069 227.631 L 238.000 239.333 200.267 239.333 L 162.533 239.333 162.464 227.631 C 162.414 219.213,162.479 215.826,162.696 215.564 C 162.949 215.260,169.100 215.200,200.267 215.200 C 231.434 215.200,237.584 215.260,237.837 215.564 M237.618 262.676 C 238.115 262.943,238.133 263.358,238.133 274.667 C 238.133 285.976,238.115 286.391,237.618 286.657 C 237.269 286.844,225.148 286.933,200.267 286.933 C 175.385 286.933,163.264 286.844,162.916 286.657 C 162.152 286.248,162.104 263.132,162.867 262.688 C 163.521 262.307,236.906 262.295,237.618 262.676 M236.370 319.534 C 236.783 320.188,201.330 355.733,200.265 355.733 C 199.590 355.733,164.000 320.516,164.000 319.849 C 164.000 318.931,164.025 318.930,200.359 318.999 C 234.053 319.063,236.092 319.093,236.370 319.534 " stroke="none" fill="#dc1464" fill-rule="evenodd"></path><path id="path2" d="M76.600 33.250 C 76.857 33.318,77.277 33.318,77.533 33.250 C 77.790 33.183,77.580 33.129,77.067 33.129 C 76.553 33.129,76.343 33.183,76.600 33.250 M40.319 34.332 C 41.887 34.379,44.527 34.379,46.185 34.333 C 47.843 34.286,46.560 34.247,43.333 34.247 C 40.107 34.247,38.750 34.285,40.319 34.332 M127.591 48.933 C 127.591 57.000,127.625 60.338,127.666 56.352 C 127.708 52.366,127.708 45.766,127.667 41.686 C 127.625 37.605,127.591 40.867,127.591 48.933 M185.189 45.333 C 185.189 51.420,185.224 53.910,185.266 50.867 C 185.309 47.823,185.309 42.843,185.266 39.800 C 185.224 36.757,185.189 39.247,185.189 45.333 M166.522 48.933 C 166.522 54.947,166.557 57.445,166.600 54.485 C 166.643 51.524,166.643 46.604,166.600 43.551 C 166.557 40.498,166.522 42.920,166.522 48.933 M138.473 42.400 C 138.473 43.060,138.525 43.330,138.588 43.000 C 138.652 42.670,138.652 42.130,138.588 41.800 C 138.525 41.470,138.473 41.740,138.473 42.400 M248.648 48.533 C 248.648 51.980,248.686 53.390,248.732 51.667 C 248.779 49.943,248.779 47.123,248.732 45.400 C 248.686 43.677,248.648 45.087,248.648 48.533 M199.046 48.933 C 199.046 52.013,199.085 53.237,199.132 51.652 C 199.180 50.068,199.180 47.548,199.132 46.052 C 199.085 44.557,199.046 45.853,199.046 48.933 M211.533 44.996 C 212.230 45.051,213.370 45.051,214.067 44.996 C 214.763 44.941,214.193 44.896,212.800 44.896 C 211.407 44.896,210.837 44.941,211.533 44.996 M228.890 48.267 C 228.890 49.367,228.937 49.817,228.994 49.267 C 229.052 48.717,229.052 47.817,228.994 47.267 C 228.937 46.717,228.890 47.167,228.890 48.267 M97.460 72.800 C 97.460 83.433,97.493 87.783,97.533 82.467 C 97.574 77.150,97.574 68.450,97.533 63.133 C 97.493 57.817,97.460 62.167,97.460 72.800 M196.339 54.667 C 196.339 55.327,196.391 55.597,196.455 55.267 C 196.518 54.937,196.518 54.397,196.455 54.067 C 196.391 53.737,196.339 54.007,196.339 54.667 M159.021 61.733 C 159.022 62.760,159.070 63.147,159.128 62.594 C 159.186 62.041,159.185 61.201,159.126 60.727 C 159.067 60.254,159.020 60.707,159.021 61.733 M187.667 63.922 C 187.997 63.985,188.537 63.985,188.867 63.922 C 189.197 63.858,188.927 63.806,188.267 63.806 C 187.607 63.806,187.337 63.858,187.667 63.922 M206.867 63.922 C 207.197 63.985,207.737 63.985,208.067 63.922 C 208.397 63.858,208.127 63.806,207.467 63.806 C 206.807 63.806,206.537 63.858,206.867 63.922 M129.000 82.063 C 129.770 82.117,131.030 82.117,131.800 82.063 C 132.570 82.009,131.940 81.965,130.400 81.965 C 128.860 81.965,128.230 82.009,129.000 82.063 M137.067 82.030 C 138.658 82.231,140.473 82.251,140.359 82.067 C 140.291 81.957,139.372 81.885,138.318 81.907 C 137.263 81.929,136.700 81.984,137.067 82.030 M149.664 82.061 L 151.729 82.155 151.801 96.611 L 151.873 111.067 151.870 96.533 L 151.867 82.000 149.733 81.984 L 147.600 81.968 149.664 82.061 M158.200 82.066 C 159.923 82.112,162.743 82.112,164.467 82.066 C 166.190 82.019,164.780 81.981,161.333 81.981 C 157.887 81.981,156.477 82.019,158.200 82.066 M191.330 82.061 L 193.861 82.153 193.935 92.610 L 194.009 103.067 194.005 92.533 L 194.000 82.000 191.399 81.985 L 188.799 81.969 191.330 82.061 M201.400 82.063 C 202.097 82.118,203.237 82.118,203.933 82.063 C 204.630 82.008,204.060 81.963,202.667 81.963 C 201.273 81.963,200.703 82.008,201.400 82.063 M215.457 82.061 C 217.244 82.120,218.330 82.270,218.477 82.477 C 218.642 82.708,218.676 82.686,218.599 82.400 C 218.511 82.077,217.931 81.997,215.578 81.985 L 212.667 81.969 215.457 82.061 M226.256 82.200 C 226.185 82.383,226.160 89.013,226.200 96.933 L 226.271 111.333 226.336 96.743 L 226.400 82.153 229.000 82.065 L 231.600 81.978 228.992 81.922 C 227.108 81.882,226.348 81.959,226.256 82.200 M242.076 82.064 C 242.851 82.118,244.051 82.117,244.742 82.062 C 245.434 82.008,244.800 81.963,243.333 81.964 C 241.867 81.965,241.301 82.010,242.076 82.064 M251.133 82.066 C 253.223 82.111,256.643 82.111,258.733 82.066 C 260.823 82.021,259.113 81.984,254.933 81.984 C 250.753 81.984,249.043 82.021,251.133 82.066 M266.530 82.061 L 269.062 82.153 269.134 96.610 L 269.207 111.067 269.203 96.533 L 269.200 82.000 266.599 81.985 L 263.999 81.969 266.530 82.061 M275.815 82.066 C 277.547 82.112,280.307 82.112,281.948 82.066 C 283.590 82.019,282.173 81.981,278.800 81.981 C 275.427 81.981,274.083 82.019,275.815 82.066 M248.600 86.063 C 249.297 86.118,250.437 86.118,251.133 86.063 C 251.830 86.008,251.260 85.963,249.867 85.963 C 248.473 85.963,247.903 86.008,248.600 86.063 M258.733 86.063 C 259.430 86.118,260.570 86.118,261.267 86.063 C 261.963 86.008,261.393 85.963,260.000 85.963 C 258.607 85.963,258.037 86.008,258.733 86.063 M180.650 96.533 C 180.650 100.567,180.687 102.217,180.733 100.200 C 180.778 98.183,180.778 94.883,180.733 92.867 C 180.687 90.850,180.650 92.500,180.650 96.533 M169.183 96.533 C 169.183 100.273,169.220 101.803,169.266 99.933 C 169.312 98.063,169.312 95.003,169.266 93.133 C 169.220 91.263,169.183 92.793,169.183 96.533 M283.518 95.924 L 283.467 97.848 280.733 97.934 L 278.000 98.021 280.742 98.077 C 283.899 98.142,283.806 98.217,283.665 95.705 L 283.569 94.000 283.518 95.924 M161.800 98.063 C 162.570 98.117,163.830 98.117,164.600 98.063 C 165.370 98.009,164.740 97.965,163.200 97.965 C 161.660 97.965,161.030 98.009,161.800 98.063 M293.867 99.550 C 293.867 99.596,294.257 99.986,294.733 100.417 L 295.600 101.200 294.817 100.333 C 294.087 99.525,293.867 99.344,293.867 99.550 M167.554 109.467 C 167.555 110.493,167.604 110.881,167.661 110.327 C 167.719 109.774,167.718 108.934,167.659 108.461 C 167.600 107.987,167.553 108.440,167.554 109.467 M38.083 110.866 C 40.182 110.911,43.542 110.911,45.549 110.866 C 47.557 110.821,45.840 110.784,41.733 110.784 C 37.627 110.784,35.984 110.821,38.083 110.866 M76.067 112.194 C 76.617 112.252,77.517 112.252,78.067 112.194 C 78.617 112.137,78.167 112.090,77.067 112.090 C 75.967 112.090,75.517 112.137,76.067 112.194 M218.400 164.133 C 228.153 173.887,236.192 181.867,236.265 181.867 C 236.338 181.867,228.419 173.887,218.667 164.133 C 208.914 154.380,200.875 146.400,200.802 146.400 C 200.728 146.400,208.647 154.380,218.400 164.133 M287.067 232.800 C 296.893 242.627,304.992 250.667,305.065 250.667 C 305.139 250.667,297.159 242.627,287.333 232.800 C 277.507 222.973,269.408 214.933,269.335 214.933 C 269.261 214.933,277.241 222.973,287.067 232.800 M268.396 251.067 C 268.396 270.720,268.428 278.721,268.467 268.846 C 268.505 258.971,268.505 242.891,268.467 233.113 C 268.428 223.334,268.396 231.413,268.396 251.067 M162.522 227.467 C 162.522 233.847,162.557 236.457,162.600 233.267 C 162.642 230.077,162.642 224.857,162.600 221.667 C 162.557 218.477,162.522 221.087,162.522 227.467 M162.522 274.667 C 162.522 281.047,162.557 283.657,162.600 280.467 C 162.642 277.277,162.642 272.057,162.600 268.867 C 162.557 265.677,162.522 268.287,162.522 274.667 " stroke="none" fill="#ec8cb4" fill-rule="evenodd"></path><path id="path3" d="M78.200 33.250 C 78.457 33.318,78.877 33.318,79.133 33.250 C 79.390 33.183,79.180 33.129,78.667 33.129 C 78.153 33.129,77.943 33.183,78.200 33.250 M159.025 36.133 C 159.026 37.307,159.073 37.753,159.129 37.126 C 159.185 36.499,159.184 35.539,159.127 34.993 C 159.070 34.447,159.024 34.960,159.025 36.133 M179.855 44.667 C 179.855 50.533,179.890 52.895,179.933 49.916 C 179.976 46.936,179.976 42.136,179.933 39.249 C 179.890 36.362,179.855 38.800,179.855 44.667 M217.997 48.867 L 218.000 63.600 224.267 63.600 L 230.533 63.600 230.554 61.600 L 230.574 59.600 230.475 61.533 L 230.377 63.467 224.257 63.467 L 218.138 63.467 218.066 48.800 L 217.993 34.133 217.997 48.867 M133.536 38.055 C 133.868 38.119,134.348 38.117,134.603 38.050 C 134.858 37.983,134.587 37.931,134.000 37.934 C 133.413 37.937,133.205 37.991,133.536 38.055 M152.108 42.267 C 152.108 44.613,152.149 45.538,152.199 44.321 C 152.248 43.104,152.248 41.184,152.198 40.054 C 152.148 38.924,152.108 39.920,152.108 42.267 M237.988 48.933 C 237.988 54.947,238.023 57.445,238.066 54.485 C 238.109 51.524,238.109 46.604,238.066 43.551 C 238.024 40.498,237.989 42.920,237.988 48.933 M242.995 42.133 C 242.995 42.647,243.050 42.857,243.117 42.600 C 243.184 42.343,243.184 41.923,243.117 41.667 C 243.050 41.410,242.995 41.620,242.995 42.133 M34.067 69.267 C 34.104 80.083,34.165 93.913,34.203 100.000 C 34.241 106.087,34.301 97.237,34.336 80.333 C 34.371 63.430,34.310 49.600,34.200 49.600 C 34.090 49.600,34.030 58.450,34.067 69.267 M133.533 50.322 C 133.863 50.385,134.403 50.385,134.733 50.322 C 135.063 50.258,134.793 50.206,134.133 50.206 C 133.473 50.206,133.203 50.258,133.533 50.322 M152.118 50.476 C 152.046 50.665,152.023 52.855,152.067 55.343 L 152.147 59.867 152.207 55.143 L 152.267 50.419 155.000 50.332 L 157.733 50.246 154.992 50.190 C 152.961 50.148,152.216 50.222,152.118 50.476 M224.876 50.331 C 225.725 50.384,227.045 50.383,227.810 50.330 C 228.574 50.276,227.880 50.232,226.267 50.233 C 224.653 50.234,224.028 50.278,224.876 50.331 M211.400 52.463 C 212.170 52.517,213.430 52.517,214.200 52.463 C 214.970 52.409,214.340 52.365,212.800 52.365 C 211.260 52.365,210.630 52.409,211.400 52.463 M243.006 55.200 C 243.006 55.860,243.058 56.130,243.122 55.800 C 243.185 55.470,243.185 54.930,243.122 54.600 C 243.058 54.270,243.006 54.540,243.006 55.200 M82.526 72.800 C 82.526 82.700,82.559 86.750,82.600 81.800 C 82.641 76.850,82.641 68.750,82.600 63.800 C 82.559 58.850,82.526 62.900,82.526 72.800 M128.876 63.664 C 129.725 63.717,131.045 63.717,131.810 63.663 C 132.574 63.609,131.880 63.566,130.267 63.566 C 128.653 63.567,128.028 63.611,128.876 63.664 M140.076 63.664 C 140.925 63.717,142.245 63.717,143.010 63.663 C 143.774 63.609,143.080 63.566,141.467 63.566 C 139.853 63.567,139.228 63.611,140.076 63.664 M149.815 63.666 C 151.620 63.712,154.500 63.712,156.215 63.666 C 157.930 63.619,156.453 63.581,152.933 63.582 C 149.413 63.582,148.010 63.620,149.815 63.666 M163.000 63.665 C 164.137 63.715,165.997 63.715,167.133 63.665 C 168.270 63.615,167.340 63.574,165.067 63.574 C 162.793 63.574,161.863 63.615,163.000 63.665 M234.467 63.665 C 235.603 63.715,237.463 63.715,238.600 63.665 C 239.737 63.615,238.807 63.574,236.533 63.574 C 234.260 63.574,233.330 63.615,234.467 63.665 M147.141 89.759 C 147.100 94.100,147.157 97.707,147.267 97.775 C 147.377 97.843,147.467 94.291,147.467 89.882 C 147.467 85.474,147.410 81.867,147.341 81.867 C 147.272 81.867,147.182 85.418,147.141 89.759 M167.558 83.867 C 167.559 85.040,167.606 85.487,167.662 84.860 C 167.719 84.232,167.718 83.272,167.661 82.726 C 167.603 82.180,167.557 82.693,167.558 83.867 M245.931 96.457 L 245.867 111.181 243.133 111.268 L 240.400 111.354 243.142 111.410 C 245.132 111.451,245.918 111.375,246.011 111.133 C 246.081 110.950,246.106 104.260,246.067 96.267 L 245.995 81.733 245.931 96.457 M247.293 84.000 C 247.293 85.247,247.339 85.757,247.395 85.133 C 247.451 84.510,247.451 83.490,247.395 82.867 C 247.339 82.243,247.293 82.753,247.293 84.000 M263.863 96.600 L 263.867 111.333 266.533 111.347 L 269.200 111.361 266.602 111.271 L 264.005 111.181 263.932 96.524 L 263.860 81.867 263.863 96.600 M272.663 96.600 L 272.667 111.333 278.933 111.333 L 285.200 111.333 285.220 109.333 L 285.240 107.333 285.142 109.267 L 285.043 111.200 278.924 111.200 L 272.805 111.200 272.732 96.533 L 272.660 81.867 272.663 96.600 M160.641 90.000 C 160.642 92.347,160.682 93.271,160.732 92.054 C 160.781 90.837,160.781 88.917,160.731 87.787 C 160.681 86.658,160.641 87.653,160.641 90.000 M257.664 98.591 L 257.600 111.181 254.867 111.268 L 252.133 111.354 254.875 111.410 C 256.866 111.451,257.652 111.375,257.745 111.133 C 257.815 110.950,257.840 105.220,257.800 98.400 L 257.728 86.000 257.664 98.591 M141.067 102.907 L 141.067 111.179 138.867 111.272 L 136.667 111.364 138.933 111.349 L 141.200 111.333 141.333 103.108 C 141.407 98.583,141.377 94.826,141.267 94.759 C 141.157 94.691,141.067 98.358,141.067 102.907 M160.644 102.800 C 160.644 105.440,160.684 106.484,160.732 105.120 C 160.781 103.756,160.780 101.596,160.732 100.320 C 160.683 99.044,160.643 100.160,160.644 102.800 M215.600 100.800 L 213.733 100.972 215.667 101.020 C 216.809 101.047,217.600 100.958,217.600 100.800 C 217.600 100.653,217.570 100.555,217.533 100.580 C 217.497 100.606,216.627 100.705,215.600 100.800 M301.934 104.400 C 301.937 104.987,301.991 105.195,302.055 104.864 C 302.119 104.532,302.117 104.052,302.050 103.797 C 301.983 103.542,301.931 103.813,301.934 104.400 M61.600 106.217 C 61.600 106.263,61.990 106.653,62.467 107.083 L 63.333 107.867 62.550 107.000 C 61.820 106.192,61.600 106.011,61.600 106.217 M212.000 110.889 C 212.000 111.101,211.172 111.218,209.400 111.255 L 206.800 111.311 209.309 111.399 C 211.629 111.481,212.671 111.249,212.182 110.760 C 212.082 110.660,212.000 110.718,212.000 110.889 M148.238 111.280 C 148.356 111.397,149.281 111.456,150.293 111.410 L 152.133 111.328 150.079 111.197 C 148.949 111.125,148.121 111.163,148.238 111.280 M129.000 111.397 C 129.770 111.450,131.030 111.450,131.800 111.397 C 132.570 111.343,131.940 111.299,130.400 111.299 C 128.860 111.299,128.230 111.343,129.000 111.397 M158.349 111.399 C 160.154 111.446,163.034 111.445,164.749 111.399 C 166.464 111.353,164.987 111.315,161.467 111.315 C 157.947 111.315,156.544 111.353,158.349 111.399 M220.467 111.397 C 221.237 111.450,222.497 111.450,223.267 111.397 C 224.037 111.343,223.407 111.299,221.867 111.299 C 220.327 111.299,219.697 111.343,220.467 111.397 M229.282 111.399 C 231.087 111.446,233.967 111.445,235.682 111.399 C 237.397 111.353,235.920 111.315,232.400 111.315 C 228.880 111.315,227.477 111.353,229.282 111.399 M181.533 215.400 C 191.837 215.439,208.697 215.439,219.000 215.400 C 229.303 215.361,220.873 215.330,200.267 215.330 C 179.660 215.330,171.230 215.361,181.533 215.400 M113.200 269.333 C 123.026 279.160,131.125 287.200,131.199 287.200 C 131.272 287.200,123.293 279.160,113.467 269.333 C 103.641 259.507,95.541 251.467,95.468 251.467 C 95.395 251.467,103.374 259.507,113.200 269.333 M181.667 262.600 C 191.897 262.639,208.637 262.639,218.867 262.600 C 229.097 262.561,220.727 262.530,200.267 262.530 C 179.807 262.530,171.437 262.561,181.667 262.600 M181.667 286.867 C 191.897 286.905,208.637 286.905,218.867 286.867 C 229.097 286.828,220.727 286.796,200.267 286.796 C 179.807 286.796,171.437 286.828,181.667 286.867 M182.333 319.133 C 192.197 319.172,208.337 319.172,218.200 319.133 C 228.063 319.095,219.993 319.063,200.267 319.063 C 180.540 319.063,172.470 319.095,182.333 319.133 M181.867 338.000 C 191.619 347.753,199.658 355.733,199.732 355.733 C 199.805 355.733,191.886 347.753,182.133 338.000 C 172.381 328.247,164.342 320.267,164.268 320.267 C 164.195 320.267,172.114 328.247,181.867 338.000 " stroke="none" fill="#e44c8c" fill-rule="evenodd"></path><path id="path4" d="M181.866 164.200 L 164.133 182.000 181.933 164.267 C 191.723 154.514,199.733 146.504,199.733 146.467 C 199.733 146.280,198.350 147.653,181.866 164.200 M113.199 232.867 L 95.333 250.800 113.267 232.934 C 123.130 223.108,131.200 215.038,131.200 215.001 C 131.200 214.814,129.807 216.196,113.199 232.867 M287.066 269.400 L 269.200 287.333 287.133 269.467 C 303.804 252.860,305.186 251.467,304.999 251.467 C 304.962 251.467,296.892 259.537,287.066 269.400 M218.399 338.067 L 200.667 355.867 218.467 338.134 C 235.013 321.650,236.386 320.267,236.199 320.267 C 236.162 320.267,228.152 328.277,218.399 338.067 " stroke="none" fill="#ec69a1" fill-rule="evenodd"></path></g></svg>