<svg id="svg" version="1.1" xmlns="http://www.w3.org/2000/svg" xmlns:xlink="http://www.w3.org/1999/xlink" width="400" height="400" viewBox="0, 0, 400,400"><g id="svgg"><path id="path0" d="M112.608 34.131 C 105.940 35.130,104.822 43.381,110.663 48.497 C 117.222 54.242,118.816 57.252,116.333 59.205 C 114.174 60.903,111.467 58.371,111.467 54.654 C 111.467 54.021,111.175 54.011,108.753 54.562 L 106.867 54.991 107.035 56.423 C 107.614 61.346,110.052 63.600,114.800 63.600 C 123.483 63.600,124.997 54.738,117.482 47.902 C 111.911 42.834,111.309 41.934,111.985 39.679 C 112.903 36.616,116.504 37.551,117.103 41.008 C 117.337 42.360,117.478 42.659,117.830 42.557 C 118.070 42.487,119.017 42.288,119.933 42.114 C 121.849 41.750,121.984 41.391,121.203 38.759 C 120.120 35.114,117.057 33.465,112.608 34.131 M147.808 34.131 C 141.140 35.130,140.022 43.381,145.863 48.497 C 152.422 54.242,154.016 57.252,151.533 59.205 C 149.374 60.903,146.667 58.371,146.667 54.654 C 146.667 54.021,146.375 54.011,143.953 54.562 L 142.067 54.991 142.231 56.389 C 142.817 61.376,145.213 63.600,150.000 63.600 C 155.135 63.600,157.588 60.972,157.278 55.801 C 157.069 52.313,156.105 50.950,149.684 45.067 C 147.183 42.774,146.620 41.563,147.185 39.679 C 148.103 36.616,151.704 37.551,152.303 41.008 C 152.537 42.360,152.678 42.659,153.030 42.557 C 153.270 42.487,154.217 42.288,155.133 42.114 C 157.049 41.750,157.184 41.391,156.403 38.759 C 155.320 35.114,152.257 33.465,147.808 34.131 M293.194 34.123 C 287.856 34.935,286.813 37.641,286.990 50.225 C 287.152 61.680,288.349 63.600,295.333 63.600 C 300.887 63.600,302.933 61.325,302.933 55.152 L 302.933 52.533 300.568 52.533 L 298.203 52.533 298.078 55.345 C 297.898 59.403,296.396 60.937,293.925 59.587 C 292.389 58.748,292.310 58.228,292.287 48.858 C 292.262 38.611,292.470 37.867,295.363 37.867 C 297.437 37.867,298.115 39.093,298.127 42.867 L 298.133 44.800 300.533 44.800 L 302.933 44.800 302.933 42.309 C 302.933 35.957,299.593 33.150,293.194 34.123 M354.912 34.125 C 350.953 34.831,349.144 37.393,349.383 41.954 C 349.558 45.291,350.106 46.047,356.314 51.529 C 360.355 55.096,360.726 59.733,356.971 59.733 C 355.335 59.733,354.225 58.250,353.893 55.620 C 353.698 54.077,353.561 54.035,350.647 54.642 L 349.160 54.952 349.392 56.743 C 350.714 66.971,365.487 65.881,364.435 55.634 C 364.100 52.375,362.731 50.434,357.365 45.612 C 354.074 42.655,353.251 40.522,354.734 38.798 C 356.627 36.597,359.467 38.434,359.467 41.860 C 359.467 42.621,359.538 42.707,360.067 42.581 C 360.397 42.503,361.417 42.294,362.333 42.118 C 364.168 41.765,364.149 41.798,363.700 39.680 C 362.785 35.359,359.530 33.302,354.912 34.125 M35.873 35.759 C 33.638 37.609,28.577 40.519,24.867 42.089 L 23.467 42.681 23.467 48.007 C 23.467 50.937,23.544 53.333,23.639 53.333 C 23.954 53.333,32.920 50.082,33.667 49.698 L 34.400 49.320 34.400 79.993 L 34.400 110.667 41.600 110.667 L 48.800 110.667 48.800 72.533 L 48.800 34.400 43.133 34.421 L 37.467 34.442 35.873 35.759 M68.289 35.486 C 66.458 37.142,59.863 40.940,56.600 42.218 L 55.467 42.662 55.467 47.998 C 55.467 50.932,55.537 53.333,55.623 53.333 C 55.935 53.333,63.633 50.578,65.000 49.978 L 66.400 49.363 66.400 80.015 L 66.400 110.667 73.733 110.667 L 81.067 110.667 81.067 72.533 L 81.067 34.400 75.267 34.411 L 69.467 34.422 68.289 35.486 M123.793 46.067 C 123.901 59.309,123.947 59.637,125.992 61.765 C 128.971 64.865,136.565 64.316,138.595 60.853 C 139.891 58.641,139.991 57.540,139.996 45.533 L 140.000 34.400 137.477 34.400 L 134.954 34.400 134.877 46.114 C 134.802 57.516,134.785 57.848,134.243 58.581 C 132.898 60.396,130.596 60.309,129.479 58.400 C 128.956 57.505,128.930 56.997,128.854 45.933 L 128.774 34.400 126.236 34.400 L 123.698 34.400 123.793 46.067 M157.067 36.257 L 157.067 38.113 159.533 38.190 L 162.000 38.267 162.069 50.867 L 162.139 63.467 164.669 63.467 L 167.200 63.467 167.200 50.800 L 167.200 38.133 169.600 38.133 L 172.000 38.133 172.000 36.267 L 172.000 34.400 164.533 34.400 L 157.067 34.400 157.067 36.257 M176.840 36.067 C 176.665 36.983,175.342 43.523,173.900 50.600 L 171.277 63.467 173.741 63.467 L 176.204 63.467 176.659 60.867 C 176.909 59.437,177.201 57.907,177.307 57.467 L 177.501 56.667 180.010 56.667 L 182.519 56.667 182.982 59.200 C 183.237 60.593,183.515 62.123,183.601 62.600 L 183.758 63.467 186.145 63.467 C 187.459 63.467,188.533 63.377,188.533 63.267 C 188.532 62.972,182.945 35.415,182.775 34.867 C 182.650 34.462,182.268 34.400,179.895 34.400 L 177.159 34.400 176.840 36.067 M190.400 48.933 L 190.400 63.467 192.933 63.467 L 195.467 63.467 195.467 48.933 L 195.467 34.400 192.933 34.400 L 190.400 34.400 190.400 48.933 M198.667 48.921 L 198.667 63.467 200.800 63.467 L 202.933 63.467 202.944 54.867 C 202.953 47.548,203.008 46.366,203.310 46.933 C 203.505 47.300,205.142 51.170,206.949 55.533 L 210.234 63.467 211.917 63.467 L 213.600 63.467 213.600 48.933 L 213.600 34.400 211.467 34.400 L 209.333 34.400 209.333 42.444 C 209.333 46.869,209.254 50.410,209.157 50.313 C 209.061 50.216,207.464 46.626,205.609 42.335 L 202.236 34.533 200.452 34.454 L 198.667 34.376 198.667 48.921 M220.934 35.000 C 220.652 36.183,215.200 63.068,215.200 63.275 C 215.200 63.391,216.304 63.452,217.652 63.410 L 220.105 63.333 220.704 60.000 C 221.033 58.167,221.310 56.637,221.318 56.600 C 221.326 56.563,222.409 56.533,223.724 56.533 C 226.580 56.533,226.401 56.323,227.078 60.467 L 227.568 63.467 230.018 63.467 L 232.468 63.467 229.567 49.173 C 227.972 41.311,226.667 34.771,226.667 34.639 C 226.667 34.021,221.083 34.372,220.934 35.000 M233.867 48.937 L 233.867 63.513 239.400 63.418 C 248.319 63.263,250.267 61.767,250.267 55.067 C 250.267 50.862,249.299 49.100,246.452 48.122 L 245.510 47.798 246.713 47.266 C 248.992 46.258,250.021 43.424,249.407 39.843 C 248.664 35.501,246.913 34.569,239.267 34.447 L 233.867 34.361 233.867 48.937 M252.533 48.933 L 252.533 63.467 258.667 63.467 L 264.800 63.467 264.800 61.741 L 264.800 60.015 261.267 59.941 L 257.733 59.867 257.664 47.133 L 257.595 34.400 255.064 34.400 L 252.533 34.400 252.533 48.933 M266.133 48.933 L 266.133 63.467 272.267 63.467 L 278.400 63.467 278.400 61.733 L 278.400 60.000 274.933 60.000 L 271.467 60.000 271.467 55.067 L 271.467 50.133 274.133 50.133 L 276.800 50.133 276.800 48.267 L 276.800 46.400 274.133 46.400 L 271.467 46.400 271.467 42.133 L 271.467 37.867 274.933 37.867 L 278.400 37.867 278.400 36.133 L 278.400 34.400 272.267 34.400 L 266.133 34.400 266.133 48.933 M305.600 48.933 L 305.600 63.467 308.133 63.467 L 310.667 63.467 310.667 48.933 L 310.667 34.400 308.133 34.400 L 305.600 34.400 305.600 48.933 M311.733 36.257 L 311.733 38.113 314.200 38.190 L 316.667 38.267 316.736 50.867 L 316.805 63.467 319.336 63.467 L 321.867 63.467 321.867 50.800 L 321.867 38.133 324.267 38.133 L 326.667 38.133 326.667 36.267 L 326.667 34.400 319.200 34.400 L 311.733 34.400 311.733 36.257 M327.733 48.933 L 327.733 63.467 330.267 63.467 L 332.800 63.467 332.800 48.933 L 332.800 34.400 330.267 34.400 L 327.733 34.400 327.733 48.933 M336.000 48.933 L 336.000 63.467 342.133 63.467 L 348.267 63.467 348.267 61.733 L 348.267 60.000 344.800 60.000 L 341.333 60.000 341.333 55.067 L 341.333 50.133 344.000 50.133 L 346.667 50.133 346.667 48.267 L 346.667 46.400 344.000 46.400 L 341.333 46.400 341.333 42.133 L 341.333 37.867 344.667 37.867 L 348.000 37.867 348.000 36.133 L 348.000 34.400 342.000 34.400 L 336.000 34.400 336.000 48.933 M243.412 38.458 C 244.573 39.010,245.121 40.376,244.978 42.365 C 244.779 45.143,243.709 46.123,240.867 46.129 L 239.200 46.133 239.200 41.961 L 239.200 37.790 240.945 37.952 C 241.905 38.042,243.015 38.270,243.412 38.458 M181.030 47.333 C 181.492 50.267,181.869 52.817,181.868 53.000 C 181.867 53.235,181.315 53.333,180.000 53.333 C 178.401 53.333,178.133 53.267,178.132 52.867 C 178.128 51.769,179.855 41.617,180.014 41.799 C 180.111 41.910,180.568 44.400,181.030 47.333 M224.778 46.800 C 225.232 49.587,225.672 52.197,225.756 52.600 L 225.909 53.333 223.888 53.333 C 222.776 53.333,221.867 53.262,221.867 53.175 C 221.867 52.321,223.743 41.520,223.869 41.648 C 223.916 41.695,224.325 44.013,224.778 46.800 M243.691 50.585 C 244.849 51.433,245.332 52.698,245.333 54.875 C 245.334 58.470,244.209 59.731,241.000 59.732 L 239.200 59.733 239.200 54.764 L 239.200 49.795 241.091 49.930 C 242.378 50.022,243.209 50.232,243.691 50.585 M173.302 82.235 C 171.301 82.950,170.450 83.699,169.542 85.544 L 168.667 87.322 168.667 96.661 C 168.667 105.914,168.672 106.013,169.299 107.398 C 170.654 110.397,173.048 111.600,177.292 111.414 C 182.434 111.190,184.215 109.172,184.475 103.276 L 184.608 100.267 182.037 100.267 L 179.467 100.267 179.467 102.826 C 179.467 106.565,178.765 107.733,176.520 107.733 C 173.980 107.733,173.511 105.694,173.647 95.242 C 173.765 86.174,173.961 85.600,176.936 85.600 C 178.790 85.600,179.320 86.475,179.424 89.710 L 179.515 92.533 182.062 92.533 L 184.609 92.533 184.472 89.650 C 184.268 85.347,183.066 83.216,180.314 82.279 C 178.829 81.773,174.668 81.747,173.302 82.235 M191.082 82.251 C 187.096 83.724,186.400 85.833,186.400 96.443 C 186.400 109.466,187.845 111.809,195.631 111.415 C 201.965 111.095,203.067 108.909,203.067 96.667 C 203.067 86.080,202.572 84.244,199.291 82.640 C 197.656 81.841,192.811 81.611,191.082 82.251 M336.881 82.305 C 334.116 83.285,332.619 86.043,332.860 89.712 C 333.073 92.967,333.668 93.790,339.686 99.158 C 342.973 102.090,344.034 105.061,342.411 106.788 C 340.432 108.894,337.333 106.332,337.333 102.589 C 337.333 101.722,337.450 101.727,334.033 102.450 L 332.733 102.725 332.899 104.096 C 333.482 108.936,335.729 111.230,340.079 111.429 C 345.073 111.658,348.000 109.039,348.000 104.345 C 348.000 100.726,346.766 98.675,342.056 94.464 C 337.496 90.388,336.587 88.359,338.473 86.473 C 340.425 84.520,342.455 85.826,343.061 89.425 C 343.210 90.309,343.314 90.431,343.817 90.314 C 344.138 90.239,345.090 90.039,345.933 89.870 C 347.705 89.514,347.803 89.231,347.045 86.676 C 345.811 82.521,341.502 80.668,336.881 82.305 M112.000 82.229 C 112.000 82.389,106.409 109.873,106.237 110.558 L 106.076 111.200 108.584 111.200 L 111.092 111.200 111.565 108.333 C 112.265 104.093,111.903 104.503,114.876 104.591 L 117.444 104.667 117.995 107.867 L 118.545 111.067 121.014 111.143 C 123.466 111.220,123.481 111.216,123.337 110.610 C 123.139 109.776,117.600 82.397,117.600 82.250 C 117.600 82.186,116.340 82.133,114.800 82.133 C 113.260 82.133,112.000 82.176,112.000 82.229 M125.067 96.654 L 125.067 111.200 127.200 111.200 L 129.333 111.200 129.344 102.600 C 129.353 95.281,129.408 94.099,129.710 94.667 C 129.905 95.033,131.542 98.903,133.349 103.267 L 136.634 111.200 138.317 111.200 L 140.000 111.200 140.000 96.667 L 140.000 82.133 137.867 82.133 L 135.733 82.133 135.733 90.178 C 135.733 94.602,135.654 98.143,135.557 98.046 C 135.461 97.950,133.864 94.360,132.009 90.069 L 128.636 82.267 126.852 82.188 L 125.067 82.109 125.067 96.654 M143.200 96.667 L 143.200 111.249 148.333 111.150 C 158.111 110.963,158.753 110.138,158.887 97.600 C 159.041 83.147,158.503 82.348,148.486 82.176 L 143.200 82.085 143.200 96.667 M206.035 87.267 C 205.950 90.090,205.810 96.630,205.725 101.800 L 205.570 111.200 207.585 111.200 L 209.600 111.200 209.601 107.533 C 209.602 101.320,209.949 91.296,210.138 92.000 C 210.237 92.367,211.197 96.837,212.272 101.933 L 214.226 111.200 215.780 111.200 C 216.634 111.200,217.333 111.155,217.333 111.100 C 217.333 110.827,221.356 91.889,221.430 91.815 C 221.568 91.676,221.867 101.837,221.867 106.710 L 221.867 111.200 223.887 111.200 L 225.908 111.200 225.749 103.400 C 225.662 99.110,225.519 92.570,225.432 88.867 L 225.273 82.133 222.681 82.133 L 220.090 82.133 218.438 89.933 C 217.529 94.223,216.582 98.723,216.332 99.933 C 216.083 101.143,215.813 102.133,215.733 102.133 C 215.654 102.133,214.712 97.843,213.642 92.600 C 212.572 87.357,211.636 82.857,211.563 82.600 C 211.449 82.196,211.078 82.133,208.811 82.133 L 206.192 82.133 206.035 87.267 M229.232 84.333 C 229.149 85.543,229.010 92.083,228.921 98.867 L 228.760 111.200 230.780 111.200 L 232.800 111.200 232.801 105.267 C 232.802 99.771,233.056 91.634,233.221 91.799 C 233.290 91.867,237.333 110.829,237.333 111.080 C 237.333 111.146,238.053 111.200,238.933 111.200 C 239.813 111.200,240.533 111.105,240.533 110.989 C 240.533 110.539,244.487 91.957,244.609 91.836 C 244.679 91.765,244.826 96.093,244.935 101.454 L 245.132 111.200 247.111 111.200 L 249.090 111.200 248.943 106.467 C 248.862 103.863,248.723 97.323,248.634 91.933 L 248.471 82.133 245.858 82.133 L 243.244 82.133 242.976 83.400 C 242.829 84.097,241.912 88.447,240.938 93.067 C 239.099 101.797,238.986 102.278,238.820 102.105 C 238.732 102.013,234.667 82.590,234.667 82.261 C 234.667 82.191,233.477 82.133,232.024 82.133 L 229.381 82.133 229.232 84.333 M251.788 93.933 C 251.897 108.247,252.043 108.874,255.733 110.837 C 257.298 111.669,262.646 111.556,264.407 110.654 C 267.656 108.989,268.000 107.312,268.000 93.156 L 268.000 82.133 265.467 82.133 L 262.933 82.133 262.932 93.267 C 262.930 106.880,262.776 107.600,259.867 107.600 C 256.978 107.600,256.800 106.758,256.800 93.082 L 256.800 82.133 254.249 82.133 L 251.698 82.133 251.788 93.933 M270.933 96.654 L 270.933 111.200 273.067 111.200 L 275.200 111.200 275.204 102.600 C 275.207 97.073,275.299 94.143,275.461 94.400 C 275.600 94.620,277.241 98.490,279.107 103.000 L 282.500 111.200 284.183 111.200 L 285.867 111.200 285.867 96.667 L 285.867 82.133 283.733 82.133 L 281.600 82.133 281.600 90.178 C 281.600 94.602,281.522 98.145,281.428 98.050 C 281.333 97.955,279.737 94.365,277.882 90.072 L 274.508 82.267 272.721 82.188 L 270.933 82.109 270.933 96.654 M289.067 96.667 L 289.067 111.200 291.600 111.200 L 294.133 111.200 294.133 96.667 L 294.133 82.133 291.600 82.133 L 289.067 82.133 289.067 96.667 M295.467 84.000 L 295.467 85.867 297.867 85.867 L 300.267 85.867 300.267 98.533 L 300.267 111.200 302.797 111.200 L 305.328 111.200 305.397 98.600 L 305.467 86.000 307.800 85.923 L 310.133 85.846 310.133 83.990 L 310.133 82.133 302.800 82.133 L 295.467 82.133 295.467 84.000 M311.200 96.667 L 311.200 111.200 313.867 111.200 L 316.533 111.200 316.533 96.667 L 316.533 82.133 313.867 82.133 L 311.200 82.133 311.200 96.667 M319.467 96.667 L 319.467 111.200 325.600 111.200 L 331.733 111.200 331.733 109.475 L 331.733 107.749 328.333 107.675 L 324.933 107.600 324.861 102.733 L 324.788 97.867 327.461 97.867 L 330.133 97.867 330.133 96.000 L 330.133 94.133 327.460 94.133 L 324.786 94.133 324.860 89.933 L 324.933 85.733 328.333 85.659 L 331.733 85.584 331.733 83.859 L 331.733 82.133 325.600 82.133 L 319.467 82.133 319.467 96.667 M196.967 86.494 C 197.829 87.496,197.911 88.560,197.818 97.467 C 197.724 106.322,197.640 106.787,196.008 107.463 C 194.391 108.133,192.740 107.491,192.092 105.942 C 191.564 104.678,191.575 88.628,192.105 87.360 C 192.906 85.443,195.644 84.956,196.967 86.494 M152.582 86.633 C 153.652 87.588,153.834 89.011,153.833 96.400 C 153.833 106.410,153.558 107.228,150.136 107.421 L 148.267 107.527 148.267 96.697 L 148.267 85.867 149.996 85.867 C 151.523 85.867,151.825 85.956,152.582 86.633 M115.877 95.186 C 116.385 98.296,116.800 100.891,116.800 100.953 C 116.800 101.016,115.890 101.067,114.779 101.067 L 112.758 101.067 112.910 100.333 C 113.135 99.256,114.667 89.812,114.667 89.506 C 114.667 88.384,115.093 90.384,115.877 95.186 M138.409 158.116 C 137.835 159.188,138.045 360.371,138.621 360.892 C 139.254 361.465,198.843 361.584,199.413 361.013 C 199.880 360.547,199.880 158.386,199.413 157.920 C 198.777 157.284,138.751 157.477,138.409 158.116 M163.333 193.067 L 163.333 201.200 156.166 201.271 C 151.101 201.321,148.891 201.253,148.633 201.038 C 148.172 200.656,148.091 186.160,148.545 185.312 C 148.812 184.813,149.119 184.794,156.078 184.862 L 163.333 184.933 163.333 193.067 M189.733 193.067 L 189.733 201.200 182.533 201.271 C 176.001 201.336,175.302 201.300,175.000 200.887 C 174.570 200.300,174.520 186.105,174.945 185.312 C 175.212 184.813,175.519 184.794,182.478 184.862 L 189.733 184.933 189.733 193.067 M241.714 226.849 C 227.645 244.696,214.303 261.624,212.067 264.467 L 208.000 269.637 208.000 315.102 C 208.000 345.933,208.089 360.734,208.276 361.084 C 208.546 361.590,209.168 361.600,238.800 361.600 C 268.432 361.600,269.054 361.590,269.324 361.084 C 269.834 360.131,269.696 195.723,269.185 194.993 C 268.020 193.330,269.395 191.736,241.714 226.849 M262.279 216.921 L 262.933 217.576 262.933 227.019 C 262.933 236.168,262.916 236.483,262.381 237.164 L 261.828 237.867 253.720 237.867 L 245.612 237.867 245.177 237.202 C 244.471 236.125,244.720 235.741,251.994 226.667 C 260.847 215.624,260.916 215.558,262.279 216.921 M163.147 219.520 C 163.604 219.977,163.604 235.223,163.147 235.680 C 162.608 236.218,149.231 236.127,148.686 235.581 C 148.178 235.074,148.048 220.640,148.543 219.716 C 148.882 219.082,162.526 218.899,163.147 219.520 M189.547 219.520 C 190.004 219.977,190.004 235.223,189.547 235.680 C 189.008 236.218,175.631 236.127,175.086 235.581 C 174.578 235.074,174.448 220.640,174.943 219.716 C 175.282 219.082,188.926 218.899,189.547 219.520 M262.279 244.921 L 262.933 245.576 262.933 251.455 C 262.933 259.256,264.191 258.400,252.726 258.400 C 241.107 258.400,242.400 259.264,242.400 251.503 C 242.400 243.436,241.139 244.315,252.745 244.288 L 261.624 244.267 262.279 244.921 M235.504 251.443 L 236.133 251.953 236.133 264.748 C 236.133 276.957,236.110 277.570,235.625 278.105 C 235.127 278.655,234.933 278.667,225.845 278.667 L 216.572 278.667 215.994 277.933 C 215.503 277.311,215.431 276.933,215.514 275.437 C 215.633 273.319,215.382 273.679,225.622 260.933 C 234.607 249.749,234.060 250.274,235.504 251.443 M162.951 253.876 C 163.585 254.216,163.770 269.457,163.147 270.080 C 162.526 270.701,148.882 270.518,148.543 269.884 C 148.048 268.960,148.178 254.526,148.686 254.019 C 149.192 253.513,162.032 253.384,162.951 253.876 M189.351 253.876 C 190.074 254.263,190.164 269.962,189.445 270.238 C 188.191 270.719,175.220 270.403,174.943 269.884 C 174.448 268.960,174.578 254.526,175.086 254.019 C 175.592 253.513,188.432 253.384,189.351 253.876 M96.687 263.667 C 94.309 266.346,66.400 303.396,66.400 303.874 C 66.400 305.420,64.513 305.333,98.180 305.333 C 132.396 305.333,130.161 305.450,129.813 303.676 C 129.693 303.067,99.909 264.281,98.884 263.400 C 98.114 262.738,97.438 262.820,96.687 263.667 M262.518 265.393 C 263.228 266.406,263.126 277.407,262.400 278.133 C 261.669 278.865,244.022 278.972,242.993 278.252 C 242.207 277.701,242.051 265.987,242.819 265.219 C 243.184 264.854,244.451 264.800,252.671 264.800 L 262.103 264.800 262.518 265.393 M277.095 279.300 C 276.880 279.558,276.812 281.664,276.862 286.433 L 276.933 293.200 308.133 293.200 L 339.333 293.200 339.405 286.433 C 339.455 281.664,339.386 279.558,339.172 279.300 C 338.718 278.752,277.549 278.752,277.095 279.300 M235.581 285.486 C 236.225 286.130,236.205 297.731,235.559 298.446 C 234.962 299.105,217.009 299.206,216.118 298.555 C 215.391 298.024,215.164 286.769,215.858 285.709 L 216.279 285.067 225.720 285.067 C 233.948 285.067,235.216 285.121,235.581 285.486 M262.518 285.659 C 263.228 286.673,263.126 297.674,262.400 298.400 C 261.669 299.131,244.022 299.239,242.993 298.518 C 242.189 297.955,242.054 286.424,242.841 285.554 C 243.253 285.099,243.915 285.067,252.693 285.067 L 262.103 285.067 262.518 285.659 M163.333 296.533 L 163.333 304.667 156.166 304.738 C 151.101 304.788,148.891 304.720,148.633 304.505 C 148.130 304.088,148.091 289.083,148.591 288.582 C 148.833 288.340,150.741 288.276,156.124 288.329 L 163.333 288.400 163.333 296.533 M189.733 296.533 L 189.733 304.667 182.533 304.738 C 176.001 304.803,175.302 304.767,175.000 304.354 C 174.570 303.766,174.520 289.572,174.945 288.778 C 175.212 288.279,175.519 288.261,182.478 288.329 L 189.733 288.400 189.733 296.533 M277.267 298.688 C 276.671 299.035,276.527 360.953,277.120 361.547 C 277.365 361.792,284.625 361.867,308.172 361.867 L 338.903 361.867 339.318 361.274 C 339.688 360.746,339.733 357.350,339.733 330.133 C 339.733 302.917,339.688 299.521,339.318 298.993 L 338.903 298.400 308.318 298.408 C 288.040 298.413,277.576 298.508,277.267 298.688 M235.581 305.752 C 236.225 306.397,236.205 317.998,235.559 318.712 C 234.844 319.502,216.793 319.460,216.000 318.667 C 215.274 317.941,215.172 306.939,215.882 305.926 L 216.297 305.333 225.729 305.333 C 233.949 305.333,235.216 305.387,235.581 305.752 M262.518 305.926 C 263.228 306.939,263.126 317.941,262.400 318.667 C 261.646 319.421,243.713 319.505,242.888 318.759 C 242.180 318.119,242.139 306.597,242.841 305.821 C 243.253 305.366,243.915 305.333,252.693 305.333 L 262.103 305.333 262.518 305.926 M304.955 305.984 C 305.654 306.941,305.494 318.172,304.772 318.825 C 304.242 319.305,303.679 319.333,294.748 319.333 L 285.286 319.333 284.776 318.704 C 284.310 318.128,284.267 317.589,284.267 312.358 L 284.267 306.642 284.931 305.978 L 285.595 305.314 295.086 305.390 C 304.126 305.463,304.595 305.491,304.955 305.984 M332.422 305.984 C 333.121 306.941,332.961 318.172,332.239 318.825 C 331.709 319.305,331.146 319.333,322.215 319.333 L 312.753 319.333 312.243 318.704 C 311.777 318.128,311.733 317.589,311.733 312.358 L 311.733 306.642 312.398 305.978 L 313.062 305.314 322.553 305.390 C 331.592 305.463,332.061 305.491,332.422 305.984 M66.453 311.253 C 65.903 311.804,66.000 360.362,66.552 360.914 C 66.918 361.280,68.234 361.333,76.952 361.333 L 86.933 361.333 86.933 346.303 C 86.933 331.500,86.942 331.261,87.486 330.569 L 88.039 329.867 97.619 329.867 C 106.844 329.867,107.220 329.886,107.733 330.400 C 108.254 330.921,108.267 331.289,108.267 346.133 L 108.267 361.333 118.418 361.333 C 124.905 361.333,128.755 361.234,129.084 361.057 C 129.723 360.715,129.915 311.888,129.280 311.253 C 128.815 310.789,66.918 310.789,66.453 311.253 M163.147 322.987 C 163.770 323.610,163.585 338.851,162.951 339.191 C 162.032 339.683,149.192 339.554,148.686 339.048 C 148.178 338.540,148.048 324.106,148.543 323.182 C 148.882 322.549,162.526 322.366,163.147 322.987 M189.445 322.829 C 190.164 323.105,190.074 338.804,189.351 339.191 C 188.401 339.699,175.736 339.552,175.154 339.025 C 174.584 338.510,174.393 324.209,174.943 323.182 C 175.220 322.664,188.191 322.348,189.445 322.829 M235.512 326.041 C 236.220 326.681,236.261 338.203,235.559 338.979 C 234.844 339.769,216.793 339.727,216.000 338.933 C 215.274 338.207,215.172 327.206,215.882 326.193 L 216.297 325.600 225.661 325.600 C 234.000 325.600,235.078 325.648,235.512 326.041 M262.518 326.193 C 263.228 327.206,263.126 338.207,262.400 338.933 C 261.646 339.687,243.713 339.772,242.888 339.025 C 242.180 338.385,242.139 326.864,242.841 326.088 C 243.253 325.633,243.915 325.600,252.693 325.600 L 262.103 325.600 262.518 326.193 M304.741 326.015 C 305.544 326.578,305.679 338.109,304.892 338.979 C 304.167 339.781,285.592 339.725,284.786 338.919 C 283.969 338.103,284.087 326.585,284.918 325.978 C 285.725 325.389,303.895 325.422,304.741 326.015 M332.207 326.015 C 333.011 326.578,333.146 338.109,332.359 338.979 C 331.644 339.769,313.060 339.727,312.267 338.933 C 311.766 338.432,311.733 338.044,311.733 332.533 C 311.733 327.022,311.766 326.634,312.267 326.133 C 312.998 325.402,331.178 325.294,332.207 326.015 " stroke="none" fill="#fcfbfb" fill-rule="evenodd"></path><path id="path1" d="M0.000 200.000 L 0.000 400.000 200.000 400.000 L 400.000 400.000 400.000 200.000 L 400.000 0.000 200.000 0.000 L 0.000 0.000 0.000 200.000 M118.572 34.821 C 120.242 35.852,121.583 38.314,121.674 40.515 L 121.733 41.964 120.000 42.312 C 119.047 42.503,118.013 42.720,117.703 42.793 C 117.195 42.912,117.122 42.779,116.965 41.440 C 116.671 38.945,116.042 38.133,114.400 38.133 C 113.280 38.133,112.824 38.380,112.390 39.219 C 111.298 41.330,112.067 42.779,116.278 46.544 C 123.138 52.677,124.471 58.378,119.950 62.248 C 114.936 66.540,107.669 63.219,106.821 56.249 L 106.640 54.764 108.384 54.442 C 109.343 54.266,110.489 54.049,110.930 53.961 C 111.713 53.804,111.733 53.827,111.735 54.833 C 111.740 58.544,114.595 60.978,116.434 58.839 C 118.183 56.806,116.932 54.164,112.354 50.222 C 107.300 45.869,106.080 43.442,106.919 39.401 C 107.918 34.591,114.201 32.122,118.572 34.821 M153.772 34.821 C 155.442 35.852,156.783 38.314,156.874 40.515 L 156.933 41.964 155.200 42.312 C 154.247 42.503,153.213 42.720,152.903 42.793 C 152.395 42.912,152.322 42.779,152.165 41.440 C 151.864 38.886,151.252 38.133,149.474 38.133 C 148.174 38.133,147.440 38.860,147.276 40.306 C 147.060 42.226,147.683 43.150,151.478 46.544 C 158.338 52.677,159.671 58.378,155.150 62.248 C 150.140 66.536,142.874 63.219,142.003 56.246 L 141.818 54.768 143.573 54.445 C 144.538 54.267,145.689 54.049,146.130 53.961 C 146.913 53.804,146.933 53.827,146.935 54.833 C 146.940 58.544,149.795 60.978,151.634 58.839 C 153.376 56.814,152.154 54.232,147.573 50.259 C 141.683 45.151,140.319 40.926,143.201 36.720 C 145.158 33.864,150.630 32.881,153.772 34.821 M298.503 34.244 C 301.696 35.205,302.994 37.388,303.155 42.067 L 303.258 45.067 300.562 45.067 L 297.867 45.067 297.867 42.706 C 297.867 38.769,296.884 37.464,294.419 38.128 C 292.593 38.620,292.533 38.956,292.533 48.782 C 292.533 59.143,292.677 59.733,295.200 59.733 C 297.215 59.733,297.867 58.531,297.867 54.809 L 297.867 52.267 300.566 52.267 L 303.266 52.267 303.153 55.425 C 302.932 61.621,300.129 64.389,294.539 63.932 C 288.100 63.405,286.683 60.676,286.683 48.800 C 286.683 40.011,287.251 37.367,289.550 35.463 C 291.374 33.953,295.616 33.375,298.503 34.244 M359.487 34.171 C 361.757 34.851,363.490 37.175,363.965 40.177 C 364.266 42.072,364.433 41.905,361.725 42.416 L 359.488 42.838 359.362 42.152 C 359.293 41.775,359.165 41.029,359.078 40.494 C 358.489 36.875,354.185 37.386,354.450 41.043 C 354.587 42.936,354.878 43.328,358.469 46.458 C 363.317 50.684,364.601 52.791,364.610 56.533 C 364.635 66.584,350.102 66.580,349.163 56.528 L 349.001 54.790 351.234 54.327 C 352.462 54.072,353.545 53.865,353.642 53.865 C 353.738 53.866,353.900 54.497,354.001 55.267 C 354.501 59.056,357.333 61.076,358.867 58.736 C 360.114 56.831,359.066 54.202,355.953 51.425 C 349.486 45.657,349.201 45.224,349.200 41.200 C 349.200 35.556,353.745 32.451,359.487 34.171 M49.067 72.533 L 49.067 110.933 41.600 110.933 L 34.133 110.933 34.133 80.400 C 34.133 63.607,34.034 49.867,33.913 49.867 C 33.791 49.867,32.981 50.154,32.113 50.506 C 30.412 51.195,23.600 53.600,23.351 53.600 C 23.268 53.600,23.200 51.152,23.200 48.161 L 23.200 42.722 27.267 40.724 C 31.458 38.665,35.645 36.075,36.780 34.838 L 37.426 34.133 43.246 34.133 L 49.067 34.133 49.067 72.533 M81.067 72.533 L 81.067 110.933 73.600 110.933 L 66.133 110.933 66.133 80.400 C 66.133 63.607,66.034 49.867,65.913 49.867 C 65.791 49.867,64.981 50.154,64.113 50.506 C 62.412 51.195,55.600 53.600,55.351 53.600 C 55.268 53.600,55.200 51.152,55.200 48.161 L 55.200 42.722 59.267 40.724 C 63.458 38.665,67.645 36.075,68.780 34.838 L 69.426 34.133 75.246 34.133 L 81.067 34.133 81.067 72.533 M129.068 45.400 C 129.070 58.970,129.132 59.312,131.675 59.653 C 134.618 60.047,134.921 58.637,134.928 44.467 L 134.933 34.133 137.615 34.133 L 140.297 34.133 140.204 45.933 C 140.098 59.294,140.055 59.617,138.094 61.745 C 135.444 64.620,128.463 64.716,125.779 61.914 C 123.773 59.819,123.485 57.644,123.475 44.467 L 123.467 34.133 126.267 34.133 L 129.067 34.133 129.068 45.400 M172.211 36.200 L 172.133 38.267 169.800 38.344 L 167.467 38.421 167.467 51.077 L 167.467 63.733 164.667 63.733 L 161.867 63.733 161.867 51.067 L 161.867 38.400 159.467 38.400 L 157.067 38.400 157.067 36.267 L 157.067 34.133 164.678 34.133 L 172.289 34.133 172.211 36.200 M182.933 34.348 C 182.933 34.465,184.253 41.073,185.867 49.030 C 187.480 56.988,188.800 63.556,188.800 63.626 C 188.800 63.696,187.631 63.718,186.203 63.676 L 183.606 63.600 183.167 61.200 C 182.926 59.880,182.649 58.350,182.552 57.800 L 182.376 56.800 179.988 56.800 C 178.675 56.800,177.594 56.830,177.587 56.867 C 177.580 56.903,177.306 58.433,176.979 60.267 L 176.383 63.600 173.791 63.676 C 171.651 63.739,171.200 63.684,171.200 63.359 C 171.200 63.028,176.511 36.517,176.934 34.733 C 177.080 34.121,182.933 33.745,182.933 34.348 M195.467 48.933 L 195.467 63.733 192.800 63.733 L 190.133 63.733 190.133 48.933 L 190.133 34.133 192.800 34.133 L 195.467 34.133 195.467 48.933 M205.601 41.870 L 208.933 49.606 209.004 41.870 L 209.075 34.133 211.471 34.133 L 213.867 34.133 213.867 48.945 L 213.867 63.757 211.981 63.678 L 210.096 63.600 206.660 55.333 L 203.225 47.067 203.146 55.333 L 203.067 63.600 200.733 63.677 L 198.400 63.754 198.400 48.944 L 198.400 34.133 200.334 34.133 L 202.269 34.133 205.601 41.870 M226.769 34.600 C 227.032 35.490,232.533 62.892,232.533 63.311 C 232.533 63.666,232.134 63.733,230.019 63.733 L 227.504 63.733 227.228 62.333 C 227.076 61.563,226.796 60.033,226.607 58.933 L 226.264 56.933 223.834 56.857 L 221.405 56.781 221.225 57.924 C 221.127 58.552,220.855 60.117,220.622 61.400 L 220.199 63.733 217.537 63.733 C 214.913 63.733,214.877 63.725,215.016 63.133 C 215.094 62.803,216.448 56.143,218.026 48.333 L 220.895 34.133 223.763 34.133 C 226.264 34.133,226.648 34.193,226.769 34.600 M244.677 34.546 C 250.096 35.951,251.884 44.287,247.388 47.186 L 246.375 47.839 247.121 48.217 C 252.386 50.889,251.609 61.018,245.982 63.061 C 244.939 63.440,243.551 63.565,239.267 63.667 L 233.867 63.795 233.867 48.964 L 233.867 34.133 238.477 34.133 C 241.774 34.133,243.541 34.251,244.677 34.546 M257.867 46.933 L 257.867 59.733 261.333 59.733 L 264.800 59.733 264.800 61.738 L 264.800 63.743 258.600 63.672 L 252.400 63.600 252.331 48.867 L 252.262 34.133 255.064 34.133 L 257.867 34.133 257.867 46.933 M278.400 36.133 L 278.400 38.133 274.933 38.133 L 271.467 38.133 271.467 42.267 L 271.467 46.400 274.267 46.400 L 277.067 46.400 277.067 48.400 L 277.067 50.400 274.267 50.400 L 271.467 50.400 271.467 55.067 L 271.467 59.733 275.078 59.733 L 278.690 59.733 278.612 61.667 L 278.533 63.600 272.267 63.600 L 266.000 63.600 265.931 48.867 L 265.862 34.133 272.131 34.133 L 278.400 34.133 278.400 36.133 M310.933 48.933 L 310.933 63.733 308.133 63.733 L 305.333 63.733 305.333 48.933 L 305.333 34.133 308.133 34.133 L 310.933 34.133 310.933 48.933 M326.878 36.200 L 326.800 38.267 324.467 38.344 L 322.133 38.421 322.133 51.077 L 322.133 63.733 319.333 63.733 L 316.533 63.733 316.533 51.077 L 316.533 38.420 314.067 38.343 L 311.600 38.267 311.522 36.200 L 311.444 34.133 319.200 34.133 L 326.956 34.133 326.878 36.200 M333.067 48.943 L 333.067 63.752 330.333 63.676 L 327.600 63.600 327.531 48.867 L 327.462 34.133 330.264 34.133 L 333.067 34.133 333.067 48.943 M348.267 36.133 L 348.267 38.133 344.800 38.133 L 341.333 38.133 341.333 42.267 L 341.333 46.400 344.133 46.400 L 346.933 46.400 346.933 48.400 L 346.933 50.400 344.133 50.400 L 341.333 50.400 341.333 55.067 L 341.333 59.733 344.945 59.733 L 348.557 59.733 348.478 61.667 L 348.400 63.600 342.133 63.600 L 335.867 63.600 335.798 48.867 L 335.729 34.133 341.998 34.133 L 348.267 34.133 348.267 36.133 M239.467 42.135 L 239.467 46.209 241.039 46.045 C 243.939 45.742,244.800 44.826,244.800 42.044 C 244.800 39.256,244.023 38.426,241.200 38.199 L 239.467 38.060 239.467 42.135 M223.762 42.460 C 223.746 42.566,223.373 44.879,222.933 47.600 C 222.493 50.321,222.133 52.664,222.133 52.807 C 222.133 52.950,222.915 53.067,223.870 53.067 L 225.606 53.067 225.432 51.933 C 225.033 49.343,223.788 42.281,223.762 42.460 M179.094 47.555 C 178.669 50.220,178.267 52.550,178.199 52.733 C 178.108 52.980,178.558 53.067,179.923 53.067 L 181.769 53.067 180.942 48.013 C 180.487 45.234,180.059 42.903,179.990 42.835 C 179.922 42.766,179.518 44.890,179.094 47.555 M239.467 54.770 L 239.467 59.467 241.329 59.467 C 243.811 59.467,244.676 58.765,245.108 56.400 C 245.812 52.551,244.478 50.356,241.324 50.178 L 239.467 50.073 239.467 54.770 M179.955 82.011 C 183.251 82.990,184.800 85.859,184.800 90.982 L 184.800 92.800 182.000 92.800 L 179.200 92.800 179.200 90.036 C 179.200 86.511,178.824 85.867,176.768 85.867 C 173.963 85.867,173.787 86.599,173.913 97.733 C 174.019 107.162,174.109 107.467,176.792 107.467 C 178.731 107.467,179.053 106.906,179.156 103.357 L 179.246 100.267 182.023 100.267 L 184.800 100.267 184.800 102.084 C 184.800 108.854,182.453 111.600,176.667 111.600 C 171.773 111.600,169.435 109.757,168.537 105.191 C 167.942 102.168,168.295 87.914,169.008 86.122 C 170.508 82.358,175.194 80.598,179.955 82.011 M198.933 82.309 C 200.513 83.028,201.525 84.074,202.373 85.867 L 203.067 87.333 203.067 96.667 C 203.067 107.315,202.999 107.688,200.681 109.825 C 197.560 112.702,190.321 112.228,187.978 108.994 C 185.716 105.871,185.262 89.421,187.326 85.348 C 189.045 81.956,194.829 80.442,198.933 82.309 M343.232 82.011 C 345.372 82.766,346.852 84.669,347.434 87.413 C 347.933 89.766,347.950 89.735,345.933 90.103 C 344.943 90.283,343.863 90.497,343.533 90.578 C 343.017 90.704,342.933 90.618,342.932 89.962 C 342.924 85.979,338.867 84.052,337.974 87.608 C 337.453 89.684,338.068 90.662,342.247 94.408 C 347.000 98.669,348.475 101.301,348.206 105.047 C 347.567 113.945,334.758 114.172,332.912 105.317 C 332.349 102.618,332.335 102.641,334.800 102.092 C 337.679 101.450,337.520 101.392,337.651 103.133 C 337.979 107.481,342.207 109.268,342.835 105.324 C 343.220 102.899,342.269 101.580,336.353 96.333 C 328.720 89.564,333.925 78.728,343.232 82.011 M120.675 96.533 C 122.304 104.527,123.591 111.157,123.536 111.267 C 123.481 111.377,122.315 111.467,120.945 111.467 L 118.455 111.467 118.034 109.133 C 117.802 107.850,117.534 106.286,117.437 105.657 L 117.262 104.514 114.833 104.590 L 112.403 104.667 112.059 106.667 C 111.870 107.767,111.590 109.301,111.437 110.076 L 111.158 111.485 108.579 111.409 C 106.471 111.347,106.009 111.260,106.049 110.933 C 106.130 110.277,111.745 82.563,111.873 82.191 C 111.961 81.934,112.706 81.867,114.851 81.924 L 117.713 82.000 120.675 96.533 M132.000 89.611 L 135.333 97.354 135.404 89.610 L 135.475 81.867 137.871 81.867 L 140.267 81.867 140.267 96.678 L 140.267 111.490 138.381 111.412 L 136.496 111.333 133.058 103.067 L 129.620 94.800 129.610 103.133 L 129.600 111.467 127.200 111.467 L 124.800 111.467 124.800 96.667 L 124.800 81.867 126.733 81.867 L 128.667 81.867 132.000 89.611 M152.951 82.156 C 158.514 83.175,159.316 85.176,159.142 97.600 C 158.966 110.166,158.182 111.142,148.067 111.399 L 142.933 111.530 142.933 96.698 L 142.933 81.867 147.151 81.867 C 149.471 81.867,152.081 81.997,152.951 82.156 M213.601 91.589 C 214.698 96.936,215.673 101.226,215.768 101.122 C 215.863 101.018,216.744 97.093,217.726 92.400 C 218.708 87.707,219.626 83.417,219.766 82.867 L 220.021 81.867 222.779 81.867 L 225.537 81.867 225.704 93.000 C 225.796 99.123,225.900 105.753,225.936 107.733 L 226.000 111.333 223.971 111.411 L 221.942 111.488 221.771 110.240 C 221.677 109.554,221.599 105.919,221.597 102.163 C 221.593 91.680,221.561 91.682,219.355 102.270 L 217.467 111.333 215.814 111.412 L 214.161 111.491 213.901 110.479 C 213.759 109.922,212.887 105.842,211.964 101.413 C 211.041 96.983,210.221 93.423,210.143 93.501 C 210.064 93.580,209.940 97.624,209.867 102.489 L 209.733 111.333 207.600 111.333 L 205.467 111.333 205.533 106.400 C 205.570 103.687,205.674 97.057,205.764 91.667 L 205.929 81.867 208.768 81.867 L 211.607 81.867 213.601 91.589 M236.835 91.867 C 237.964 97.293,238.901 101.673,238.917 101.600 C 238.933 101.527,239.877 97.087,241.016 91.733 L 243.086 82.000 245.900 81.925 L 248.713 81.850 248.890 92.302 C 248.987 98.050,249.067 104.719,249.067 107.122 L 249.067 111.489 247.000 111.411 L 244.933 111.333 244.768 102.457 C 244.678 97.575,244.549 93.527,244.483 93.460 C 244.416 93.394,243.612 96.968,242.695 101.403 C 241.778 105.838,240.910 109.922,240.767 110.479 L 240.506 111.491 238.866 111.412 L 237.226 111.333 235.297 102.267 C 234.236 97.280,233.314 93.020,233.248 92.800 C 233.182 92.580,233.114 96.060,233.095 100.533 C 233.077 105.007,232.986 109.297,232.894 110.067 L 232.726 111.467 230.612 111.467 L 228.497 111.467 228.654 103.400 C 228.740 98.963,228.882 92.299,228.969 88.591 L 229.127 81.849 231.954 81.925 L 234.782 82.000 236.835 91.867 M257.068 93.133 C 257.070 106.555,257.241 107.467,259.757 107.467 C 262.679 107.467,262.913 106.319,262.925 91.933 L 262.933 81.867 265.617 81.867 L 268.302 81.867 268.214 93.667 C 268.113 107.259,268.062 107.596,265.770 109.783 C 263.019 112.409,256.647 112.428,253.951 109.818 C 251.778 107.714,251.479 105.607,251.472 92.333 L 251.467 81.867 254.267 81.867 L 257.067 81.867 257.068 93.133 M277.871 89.600 L 281.200 97.333 281.271 89.600 L 281.341 81.867 283.737 81.867 L 286.133 81.867 286.133 96.667 L 286.133 111.467 284.296 111.467 L 282.459 111.467 281.366 108.867 C 280.765 107.437,279.196 103.687,277.878 100.533 L 275.482 94.800 275.474 103.133 L 275.467 111.467 273.067 111.467 L 270.667 111.467 270.667 96.667 L 270.667 81.867 272.604 81.867 L 274.542 81.867 277.871 89.600 M294.400 96.676 L 294.400 111.485 291.667 111.409 L 288.933 111.333 288.864 96.600 L 288.795 81.867 291.598 81.867 L 294.400 81.867 294.400 96.676 M310.400 84.000 L 310.400 86.133 308.000 86.133 L 305.600 86.133 305.600 98.800 L 305.600 111.467 302.800 111.467 L 300.000 111.467 300.000 98.800 L 300.000 86.133 297.600 86.133 L 295.200 86.133 295.200 84.000 L 295.200 81.867 302.800 81.867 L 310.400 81.867 310.400 84.000 M316.533 96.667 L 316.533 111.467 313.867 111.467 L 311.200 111.467 311.200 96.667 L 311.200 81.867 313.867 81.867 L 316.533 81.867 316.533 96.667 M332.000 83.867 L 332.000 85.867 328.533 85.867 L 325.067 85.867 325.067 90.000 L 325.067 94.133 327.733 94.133 L 330.400 94.133 330.400 96.133 L 330.400 98.133 327.733 98.133 L 325.067 98.133 325.067 102.800 L 325.067 107.467 328.533 107.467 L 332.000 107.467 332.000 109.467 L 332.000 111.467 325.733 111.467 L 319.467 111.467 319.467 96.667 L 319.467 81.867 325.733 81.867 L 332.000 81.867 332.000 83.867 M148.533 96.666 L 148.533 107.541 149.933 107.396 C 153.464 107.030,153.467 107.021,153.467 96.667 C 153.467 86.185,153.506 86.310,150.137 85.958 L 148.533 85.791 148.533 96.666 M192.807 86.393 C 191.995 87.205,191.972 87.535,192.055 97.157 L 192.133 106.180 192.882 106.823 C 194.298 108.041,196.545 107.608,197.223 105.987 C 197.773 104.670,197.773 88.663,197.223 87.346 C 196.578 85.805,193.960 85.240,192.807 86.393 M114.036 94.714 C 113.622 97.255,113.220 99.663,113.142 100.067 L 113.000 100.800 114.767 100.800 C 115.870 100.800,116.533 100.690,116.533 100.508 C 116.533 100.202,114.966 90.697,114.852 90.314 C 114.816 90.193,114.449 92.173,114.036 94.714 M199.512 157.775 C 199.983 158.201,200.000 161.716,200.000 259.493 L 200.000 360.770 199.407 361.185 C 198.472 361.840,139.346 361.815,138.621 361.159 C 137.898 360.505,137.852 158.619,138.575 157.821 C 139.227 157.101,198.717 157.055,199.512 157.775 M148.711 185.244 C 148.330 185.625,148.510 200.716,148.899 201.039 C 149.158 201.253,151.299 201.321,156.166 201.271 L 163.067 201.200 163.137 193.133 L 163.208 185.067 156.048 185.067 C 152.111 185.067,148.809 185.147,148.711 185.244 M175.111 185.244 C 174.730 185.625,174.910 200.716,175.299 201.039 C 175.558 201.253,177.699 201.321,182.566 201.271 L 189.467 201.200 189.537 193.133 L 189.608 185.067 182.448 185.067 C 178.511 185.067,175.209 185.147,175.111 185.244 M269.104 194.643 L 269.733 195.153 269.801 277.975 C 269.869 360.553,269.868 360.799,269.335 361.332 C 268.783 361.884,209.456 362.207,208.640 361.663 C 207.739 361.061,207.733 360.779,207.733 315.121 L 207.733 269.941 208.349 269.037 C 209.389 267.512,266.709 194.822,267.153 194.467 C 267.741 193.995,268.374 194.053,269.104 194.643 M259.987 217.133 C 259.406 217.749,251.562 227.431,247.403 232.667 C 244.859 235.870,244.558 236.721,245.704 237.472 C 246.774 238.173,261.758 237.941,262.288 237.216 C 262.940 236.324,262.839 217.572,262.179 216.975 C 261.502 216.362,260.658 216.424,259.987 217.133 M148.654 219.803 C 148.583 219.988,148.557 223.618,148.596 227.870 L 148.667 235.600 155.867 235.600 L 163.067 235.600 163.137 227.533 L 163.208 219.467 155.996 219.467 C 150.435 219.467,148.754 219.544,148.654 219.803 M175.054 219.803 C 174.983 219.988,174.957 223.618,174.996 227.870 L 175.067 235.600 182.267 235.600 L 189.467 235.600 189.537 227.533 L 189.608 219.467 182.396 219.467 C 176.835 219.467,175.154 219.544,175.054 219.803 M243.133 244.821 C 242.545 245.164,242.408 257.235,242.987 257.813 C 243.529 258.356,261.699 258.263,262.248 257.714 C 262.930 257.032,262.868 245.599,262.179 244.975 C 261.599 244.450,244.014 244.308,243.133 244.821 M227.682 258.600 C 215.572 273.600,215.733 273.368,215.733 275.751 C 215.733 278.578,215.053 278.400,225.867 278.400 C 233.961 278.400,235.216 278.346,235.581 277.981 C 236.212 277.350,236.216 252.693,235.585 251.793 C 234.523 250.277,234.125 250.620,227.682 258.600 M148.656 254.199 C 148.584 254.386,148.557 258.018,148.596 262.270 L 148.667 270.000 155.937 270.071 L 163.208 270.142 163.137 262.071 L 163.067 254.000 155.927 253.929 C 150.324 253.873,148.758 253.931,148.656 254.199 M175.056 254.199 C 174.984 254.386,174.957 258.018,174.996 262.270 L 175.067 270.000 182.337 270.071 L 189.608 270.142 189.537 262.071 L 189.467 254.000 182.327 253.929 C 176.724 253.873,175.158 253.931,175.056 254.199 M99.106 263.295 C 99.837 264.023,129.684 302.826,129.933 303.372 C 130.145 303.837,130.106 304.136,129.765 304.656 L 129.321 305.333 98.133 305.333 L 66.946 305.333 66.517 304.680 C 65.859 303.675,65.375 304.370,81.325 283.441 C 98.289 261.179,97.677 261.873,99.106 263.295 M243.133 265.088 C 242.545 265.431,242.408 277.502,242.987 278.080 C 243.445 278.539,261.888 278.539,262.347 278.080 C 262.938 277.488,262.786 265.790,262.179 265.241 C 261.599 264.717,244.014 264.575,243.133 265.088 M339.413 279.253 C 339.951 279.791,339.860 292.636,339.314 293.181 C 338.674 293.821,277.593 293.821,276.952 293.181 C 276.407 292.636,276.316 279.791,276.853 279.253 C 277.318 278.789,338.949 278.789,339.413 279.253 M216.326 285.482 C 215.661 285.947,215.386 296.985,216.009 298.151 C 216.274 298.646,216.665 298.667,225.737 298.667 L 235.188 298.667 235.609 298.024 C 236.303 296.965,236.076 285.976,235.349 285.445 C 234.543 284.856,217.171 284.890,216.326 285.482 M243.133 285.355 C 242.545 285.698,242.408 297.768,242.987 298.347 C 243.445 298.805,261.888 298.805,262.347 298.347 C 263.024 297.670,262.776 285.973,262.074 285.482 C 261.359 284.981,243.975 284.865,243.133 285.355 M148.853 288.587 C 148.231 289.209,148.415 304.184,149.049 304.524 C 149.602 304.820,162.035 304.923,162.778 304.638 C 163.419 304.392,163.419 288.674,162.778 288.429 C 161.931 288.104,149.192 288.248,148.853 288.587 M175.253 288.587 C 174.631 289.209,174.815 304.184,175.449 304.524 C 176.002 304.820,188.435 304.923,189.178 304.638 C 189.819 304.392,189.819 288.674,189.178 288.429 C 188.331 288.104,175.592 288.248,175.253 288.587 M339.141 298.548 L 339.733 298.964 339.733 330.133 L 339.733 361.303 339.141 361.718 C 338.174 362.395,277.917 362.345,277.092 361.667 L 276.524 361.200 276.595 330.008 L 276.667 298.816 277.333 298.478 C 278.444 297.916,338.335 297.984,339.141 298.548 M216.326 305.748 C 215.661 306.214,215.386 317.252,216.009 318.418 C 216.274 318.913,216.665 318.933,225.737 318.933 L 235.188 318.933 235.609 318.291 C 236.303 317.231,236.076 306.242,235.349 305.711 C 234.543 305.122,217.171 305.156,216.326 305.748 M243.267 305.608 C 242.558 305.893,242.299 317.926,242.987 318.613 C 243.445 319.072,261.888 319.072,262.347 318.613 C 263.024 317.936,262.776 306.240,262.074 305.748 C 261.396 305.274,244.414 305.147,243.267 305.608 M284.975 306.088 C 284.188 306.957,284.322 318.222,285.126 318.785 C 285.847 319.290,303.630 319.417,304.551 318.924 C 305.038 318.663,305.067 318.304,305.067 312.400 C 305.067 306.496,305.038 306.137,304.551 305.876 C 303.515 305.322,285.492 305.516,284.975 306.088 M312.419 306.019 C 311.652 306.787,311.807 318.235,312.593 318.785 C 313.313 319.290,331.096 319.417,332.018 318.924 C 332.505 318.663,332.533 318.304,332.533 312.400 C 332.533 306.496,332.505 306.137,332.018 305.876 C 331.086 305.378,312.928 305.510,312.419 306.019 M129.274 311.082 L 129.867 311.497 129.863 335.948 C 129.860 349.397,129.770 360.532,129.663 360.693 C 129.104 361.531,128.223 361.600,118.151 361.600 L 108.000 361.600 108.000 346.187 C 108.000 334.554,107.922 330.695,107.680 330.453 C 107.137 329.910,88.168 330.004,87.619 330.552 C 87.248 330.924,87.200 332.719,87.200 346.286 L 87.200 361.600 77.236 361.600 C 67.559 361.600,67.252 361.584,66.569 361.047 L 65.867 360.495 65.867 336.114 C 65.867 312.089,65.874 311.726,66.400 311.200 C 67.138 310.462,128.225 310.347,129.274 311.082 M148.654 323.270 C 148.583 323.455,148.557 327.085,148.596 331.337 L 148.667 339.067 155.867 339.067 L 163.067 339.067 163.137 331.000 L 163.208 322.933 155.996 322.933 C 150.435 322.933,148.754 323.010,148.654 323.270 M175.111 323.111 C 175.013 323.209,174.933 326.807,174.933 331.106 L 174.933 338.923 175.533 339.070 C 175.863 339.151,179.133 339.183,182.800 339.142 L 189.467 339.067 189.537 331.000 L 189.608 322.933 182.448 322.933 C 178.511 322.933,175.209 323.013,175.111 323.111 M216.533 325.939 L 215.867 326.282 215.795 332.216 C 215.699 340.124,214.384 339.200,225.737 339.200 L 235.188 339.200 235.609 338.557 C 236.167 337.706,236.089 326.647,235.520 326.079 C 235.015 325.575,217.495 325.446,216.533 325.939 M243.467 325.794 C 243.247 325.878,242.979 326.079,242.871 326.240 C 242.520 326.765,242.628 338.522,242.987 338.880 C 243.445 339.339,261.888 339.339,262.347 338.880 C 263.024 338.203,262.776 326.507,262.074 326.015 C 261.476 325.597,244.515 325.395,243.467 325.794 M284.809 326.382 C 284.400 327.147,284.440 338.466,284.853 338.880 C 285.312 339.339,304.288 339.339,304.747 338.880 C 305.201 338.426,305.201 326.641,304.747 326.187 C 304.120 325.560,285.150 325.747,284.809 326.382 M312.276 326.382 C 311.867 327.147,311.906 338.466,312.320 338.880 C 312.779 339.339,331.754 339.339,332.213 338.880 C 332.667 338.426,332.667 326.641,332.213 326.187 C 331.587 325.560,312.616 325.747,312.276 326.382 " stroke="none" fill="#fc9c24" fill-rule="evenodd"></path><path id="path2" d="M123.588 44.800 C 123.588 50.593,123.623 52.963,123.666 50.067 C 123.709 47.170,123.709 42.430,123.666 39.533 C 123.623 36.637,123.588 39.007,123.588 44.800 M128.921 44.667 C 128.921 50.387,128.957 52.689,129.000 49.782 C 129.043 46.876,129.043 42.196,129.000 39.382 C 128.956 36.569,128.921 38.947,128.921 44.667 M172.051 36.190 L 172.000 38.113 169.667 38.201 L 167.333 38.290 169.675 38.345 C 172.384 38.409,172.338 38.452,172.198 35.972 L 172.103 34.267 172.051 36.190 M209.008 42.159 C 208.967 46.427,209.021 50.057,209.129 50.226 C 209.237 50.395,209.327 46.903,209.329 42.467 C 209.331 38.030,209.277 34.400,209.208 34.400 C 209.139 34.400,209.049 37.892,209.008 42.159 M252.397 48.933 L 252.400 63.600 258.533 63.607 L 264.667 63.615 258.602 63.536 L 252.538 63.457 252.465 48.862 L 252.393 34.267 252.397 48.933 M265.997 48.933 L 266.000 63.600 272.267 63.600 L 278.533 63.600 278.553 61.799 L 278.573 59.998 278.474 61.732 L 278.376 63.467 272.257 63.467 L 266.138 63.467 266.065 48.867 L 265.993 34.267 265.997 48.933 M311.580 36.267 L 311.600 38.267 314.000 38.282 L 316.400 38.297 314.078 38.205 L 311.756 38.114 311.658 36.190 L 311.560 34.267 311.580 36.267 M326.718 36.190 L 326.667 38.113 324.333 38.201 L 322.000 38.290 324.342 38.345 C 327.051 38.409,327.004 38.452,326.865 35.972 L 326.769 34.267 326.718 36.190 M327.597 48.933 L 327.600 63.600 330.201 63.615 L 332.801 63.631 330.270 63.539 L 327.738 63.447 327.665 48.857 L 327.593 34.267 327.597 48.933 M335.863 48.933 L 335.867 63.600 342.133 63.600 L 348.400 63.600 348.420 61.799 L 348.440 59.998 348.341 61.732 L 348.242 63.467 342.123 63.467 L 336.005 63.467 335.932 48.867 L 335.860 34.267 335.863 48.933 M158.200 38.329 C 158.897 38.384,160.037 38.384,160.733 38.329 C 161.430 38.274,160.860 38.229,159.467 38.229 C 158.073 38.229,157.503 38.274,158.200 38.329 M239.307 42.133 C 239.307 44.407,239.348 45.337,239.398 44.200 C 239.448 43.063,239.448 41.203,239.398 40.067 C 239.348 38.930,239.307 39.860,239.307 42.133 M354.195 40.800 C 354.195 41.313,354.250 41.523,354.317 41.267 C 354.384 41.010,354.384 40.590,354.317 40.333 C 354.250 40.077,354.195 40.287,354.195 40.800 M106.734 41.200 C 106.737 41.787,106.791 41.995,106.855 41.664 C 106.919 41.332,106.917 40.852,106.850 40.597 C 106.783 40.342,106.731 40.613,106.734 41.200 M141.934 41.200 C 141.937 41.787,141.991 41.995,142.055 41.664 C 142.119 41.332,142.117 40.852,142.050 40.597 C 141.983 40.342,141.931 40.613,141.934 41.200 M249.662 41.600 C 249.662 42.113,249.717 42.323,249.784 42.067 C 249.851 41.810,249.851 41.390,249.784 41.133 C 249.717 40.877,249.662 41.087,249.662 41.600 M292.384 48.800 C 292.384 52.980,292.421 54.690,292.466 52.600 C 292.511 50.510,292.511 47.090,292.466 45.000 C 292.421 42.910,292.384 44.620,292.384 48.800 M286.782 48.933 C 286.782 52.453,286.820 53.856,286.866 52.051 C 286.912 50.246,286.912 47.366,286.866 45.651 C 286.819 43.936,286.781 45.413,286.782 48.933 M202.996 54.989 L 202.933 63.445 200.733 63.535 L 198.533 63.625 200.742 63.679 C 203.478 63.746,203.223 64.693,203.133 54.797 L 203.059 46.533 202.996 54.989 M153.867 48.933 C 154.364 49.447,154.831 49.867,154.905 49.867 C 154.978 49.867,154.631 49.447,154.133 48.933 C 153.636 48.420,153.169 48.000,153.095 48.000 C 153.022 48.000,153.369 48.420,153.867 48.933 M34.262 80.133 C 34.262 97.000,34.294 103.861,34.333 95.379 C 34.372 86.898,34.372 73.098,34.333 64.713 C 34.294 56.327,34.262 63.267,34.262 80.133 M66.262 80.133 C 66.262 97.000,66.294 103.861,66.333 95.379 C 66.372 86.898,66.372 73.098,66.333 64.713 C 66.294 56.327,66.262 63.267,66.262 80.133 M239.318 50.210 C 239.246 50.399,239.220 52.589,239.260 55.076 L 239.333 59.600 240.667 59.621 L 242.000 59.642 240.733 59.540 L 239.467 59.439 239.467 54.802 L 239.467 50.166 240.467 50.061 L 241.467 49.956 240.458 49.911 C 239.847 49.884,239.398 50.002,239.318 50.210 M272.733 50.330 C 273.503 50.384,274.763 50.384,275.533 50.330 C 276.303 50.276,275.673 50.232,274.133 50.232 C 272.593 50.232,271.963 50.276,272.733 50.330 M342.600 50.330 C 343.370 50.384,344.630 50.384,345.400 50.330 C 346.170 50.276,345.540 50.232,344.000 50.232 C 342.460 50.232,341.830 50.276,342.600 50.330 M299.267 52.463 C 299.963 52.518,301.103 52.518,301.800 52.463 C 302.497 52.408,301.927 52.363,300.533 52.363 C 299.140 52.363,298.570 52.408,299.267 52.463 M176.267 63.156 C 176.267 63.368,175.438 63.484,173.667 63.522 L 171.067 63.577 173.576 63.666 C 175.896 63.748,176.938 63.516,176.449 63.027 C 176.349 62.926,176.267 62.984,176.267 63.156 M183.703 63.544 C 183.820 63.660,184.984 63.720,186.291 63.676 L 188.667 63.596 186.079 63.465 C 184.655 63.392,183.586 63.428,183.703 63.544 M163.409 63.664 C 164.184 63.718,165.384 63.717,166.076 63.662 C 166.767 63.608,166.133 63.563,164.667 63.564 C 163.200 63.565,162.634 63.610,163.409 63.664 M191.676 63.664 C 192.451 63.718,193.651 63.717,194.342 63.662 C 195.034 63.608,194.400 63.563,192.933 63.564 C 191.467 63.565,190.901 63.610,191.676 63.664 M211.133 63.660 C 211.610 63.719,212.390 63.719,212.867 63.660 C 213.343 63.600,212.953 63.552,212.000 63.552 C 211.047 63.552,210.657 63.600,211.133 63.660 M216.333 63.663 C 217.030 63.718,218.170 63.718,218.867 63.663 C 219.563 63.608,218.993 63.563,217.600 63.563 C 216.207 63.563,215.637 63.608,216.333 63.663 M228.867 63.663 C 229.563 63.718,230.703 63.718,231.400 63.663 C 232.097 63.608,231.527 63.563,230.133 63.563 C 228.740 63.563,228.170 63.608,228.867 63.663 M236.067 63.665 C 237.350 63.714,239.450 63.714,240.733 63.665 C 242.017 63.616,240.967 63.576,238.400 63.576 C 235.833 63.576,234.783 63.616,236.067 63.665 M306.876 63.664 C 307.651 63.718,308.851 63.717,309.542 63.662 C 310.234 63.608,309.600 63.563,308.133 63.564 C 306.667 63.565,306.101 63.610,306.876 63.664 M318.076 63.664 C 318.851 63.718,320.051 63.717,320.742 63.662 C 321.434 63.608,320.800 63.563,319.333 63.564 C 317.867 63.565,317.301 63.610,318.076 63.664 M135.408 89.893 C 135.367 94.160,135.421 97.790,135.529 97.959 C 135.637 98.128,135.727 94.637,135.729 90.200 C 135.731 85.763,135.677 82.133,135.608 82.133 C 135.539 82.133,135.449 85.625,135.408 89.893 M248.595 82.933 C 248.595 83.447,248.650 83.657,248.717 83.400 C 248.784 83.143,248.784 82.723,248.717 82.467 C 248.650 82.210,248.595 82.420,248.595 82.933 M251.588 92.667 C 251.588 98.533,251.623 100.895,251.666 97.916 C 251.709 94.936,251.709 90.136,251.666 87.249 C 251.623 84.362,251.588 86.800,251.588 92.667 M256.922 92.667 C 256.922 98.533,256.957 100.895,257.000 97.916 C 257.043 94.936,257.043 90.136,257.000 87.249 C 256.957 84.362,256.921 86.800,256.922 92.667 M281.275 89.892 C 281.234 94.160,281.290 97.707,281.400 97.775 C 281.510 97.843,281.600 94.351,281.600 90.016 C 281.600 85.680,281.544 82.133,281.475 82.133 C 281.406 82.133,281.316 85.625,281.275 89.892 M288.930 96.667 L 288.933 111.333 291.534 111.349 L 294.135 111.364 291.603 111.272 L 289.071 111.181 288.999 96.590 L 288.926 82.000 288.930 96.667 M331.821 83.867 C 331.822 84.893,331.870 85.281,331.928 84.727 C 331.986 84.174,331.985 83.334,331.926 82.861 C 331.867 82.387,331.820 82.840,331.821 83.867 M324.908 90.000 C 324.908 92.347,324.949 93.271,324.999 92.054 C 325.048 90.837,325.048 88.917,324.998 87.787 C 324.948 86.658,324.908 87.653,324.908 90.000 M179.293 90.400 C 179.293 91.647,179.339 92.157,179.395 91.533 C 179.451 90.910,179.451 89.890,179.395 89.267 C 179.339 88.643,179.293 89.153,179.293 90.400 M191.852 96.533 C 191.852 101.007,191.888 102.837,191.933 100.600 C 191.977 98.363,191.977 94.703,191.933 92.467 C 191.888 90.230,191.852 92.060,191.852 96.533 M184.623 90.667 C 184.623 91.767,184.670 92.217,184.728 91.667 C 184.785 91.117,184.785 90.217,184.728 89.667 C 184.670 89.117,184.623 89.567,184.623 90.667 M228.891 90.800 C 228.892 91.973,228.939 92.420,228.996 91.793 C 229.052 91.166,229.051 90.206,228.994 89.660 C 228.937 89.113,228.890 89.627,228.891 90.800 M205.691 93.733 C 205.692 94.907,205.739 95.353,205.796 94.726 C 205.852 94.099,205.851 93.139,205.794 92.593 C 205.737 92.047,205.690 92.560,205.691 93.733 M209.954 93.733 C 209.955 94.760,210.004 95.147,210.061 94.594 C 210.119 94.041,210.118 93.201,210.059 92.727 C 210.000 92.254,209.953 92.707,209.954 93.733 M221.288 92.600 C 221.229 92.930,221.261 93.560,221.359 94.000 C 221.503 94.647,221.543 94.533,221.568 93.400 C 221.601 91.940,221.472 91.571,221.288 92.600 M225.691 94.800 C 225.692 95.973,225.739 96.420,225.796 95.793 C 225.852 95.166,225.851 94.206,225.794 93.660 C 225.737 93.113,225.690 93.627,225.691 94.800 M244.623 95.467 C 244.623 96.567,244.670 97.017,244.728 96.467 C 244.785 95.917,244.785 95.017,244.728 94.467 C 244.670 93.917,244.623 94.367,244.623 95.467 M248.891 97.733 C 248.892 98.907,248.939 99.353,248.996 98.726 C 249.052 98.099,249.051 97.139,248.994 96.593 C 248.937 96.047,248.890 96.560,248.891 97.733 M324.910 102.800 C 324.910 105.440,324.950 106.484,324.999 105.120 C 325.047 103.756,325.047 101.596,324.998 100.320 C 324.950 99.044,324.910 100.160,324.910 102.800 M179.296 102.667 C 179.296 104.060,179.341 104.630,179.396 103.933 C 179.451 103.237,179.451 102.097,179.396 101.400 C 179.341 100.703,179.296 101.273,179.296 102.667 M184.625 102.267 C 184.626 103.440,184.673 103.887,184.729 103.260 C 184.785 102.632,184.784 101.672,184.727 101.126 C 184.670 100.580,184.624 101.093,184.625 102.267 M113.794 100.992 C 114.267 101.051,115.107 101.052,115.661 100.995 C 116.214 100.937,115.827 100.889,114.800 100.888 C 113.773 100.886,113.321 100.934,113.794 100.992 M228.625 107.067 C 228.626 108.240,228.673 108.687,228.729 108.060 C 228.785 107.432,228.784 106.472,228.727 105.926 C 228.670 105.380,228.624 105.893,228.625 107.067 M232.893 107.200 C 232.893 108.447,232.939 108.957,232.995 108.333 C 233.051 107.710,233.051 106.690,232.995 106.067 C 232.939 105.443,232.893 105.953,232.893 107.200 M221.690 108.000 C 221.690 109.100,221.737 109.550,221.794 109.000 C 221.852 108.450,221.852 107.550,221.794 107.000 C 221.737 106.450,221.690 106.900,221.690 108.000 M205.444 109.600 L 205.467 111.333 207.600 111.333 L 209.733 111.333 209.755 109.799 L 209.777 108.264 209.675 109.732 L 209.573 111.200 207.599 111.200 L 205.625 111.200 205.524 109.533 L 205.422 107.867 205.444 109.600 M225.911 109.922 L 225.867 111.178 223.800 111.268 L 221.733 111.359 223.808 111.413 C 226.131 111.473,226.238 111.391,226.063 109.695 C 225.961 108.709,225.954 108.719,225.911 109.922 M244.906 110.000 L 244.933 111.333 247.001 111.351 L 249.068 111.369 247.082 111.274 L 245.095 111.178 244.987 109.922 L 244.879 108.667 244.906 110.000 M106.103 111.278 C 106.220 111.394,107.384 111.453,108.691 111.409 L 111.067 111.330 108.479 111.198 C 107.055 111.126,105.986 111.162,106.103 111.278 M215.733 111.200 L 214.000 111.375 215.651 111.421 C 216.559 111.446,217.376 111.347,217.467 111.200 C 217.557 111.053,217.594 110.954,217.549 110.979 C 217.504 111.005,216.687 111.104,215.733 111.200 M237.307 111.281 C 237.425 111.399,238.230 111.458,239.094 111.411 L 240.667 111.327 238.879 111.197 C 237.896 111.125,237.188 111.163,237.307 111.281 M119.800 111.396 C 120.497 111.451,121.637 111.451,122.333 111.396 C 123.030 111.341,122.460 111.296,121.067 111.296 C 119.673 111.296,119.103 111.341,119.800 111.396 M126.067 111.395 C 126.690 111.451,127.710 111.451,128.333 111.395 C 128.957 111.339,128.447 111.293,127.200 111.293 C 125.953 111.293,125.443 111.339,126.067 111.395 M137.533 111.393 C 138.010 111.452,138.790 111.452,139.267 111.393 C 139.743 111.334,139.353 111.285,138.400 111.285 C 137.447 111.285,137.057 111.334,137.533 111.393 M145.279 111.399 C 146.496 111.448,148.416 111.448,149.546 111.398 C 150.676 111.348,149.680 111.308,147.333 111.308 C 144.987 111.308,144.062 111.349,145.279 111.399 M229.807 111.396 C 230.434 111.452,231.394 111.451,231.940 111.394 C 232.487 111.337,231.973 111.290,230.800 111.291 C 229.627 111.292,229.180 111.339,229.807 111.396 M271.933 111.395 C 272.557 111.451,273.577 111.451,274.200 111.395 C 274.823 111.339,274.313 111.293,273.067 111.293 C 271.820 111.293,271.310 111.339,271.933 111.395 M283.400 111.393 C 283.877 111.452,284.657 111.452,285.133 111.393 C 285.610 111.334,285.220 111.285,284.267 111.285 C 283.313 111.285,282.923 111.334,283.400 111.393 M301.542 111.397 C 302.317 111.451,303.517 111.450,304.209 111.396 C 304.901 111.341,304.267 111.297,302.800 111.297 C 301.333 111.298,300.767 111.343,301.542 111.397 M312.467 111.397 C 313.237 111.450,314.497 111.450,315.267 111.397 C 316.037 111.343,315.407 111.299,313.867 111.299 C 312.327 111.299,311.697 111.343,312.467 111.397 M322.467 111.399 C 324.190 111.446,327.010 111.446,328.733 111.399 C 330.457 111.353,329.047 111.315,325.600 111.315 C 322.153 111.315,320.743 111.353,322.467 111.399 M152.349 184.999 C 154.375 185.045,157.615 185.045,159.549 184.999 C 161.484 184.954,159.827 184.917,155.867 184.917 C 151.907 184.917,150.324 184.954,152.349 184.999 M175.107 185.000 C 175.039 185.110,177.102 185.169,179.692 185.132 C 188.582 185.002,189.457 184.912,182.349 184.856 C 178.434 184.825,175.176 184.890,175.107 185.000 M163.318 193.067 C 163.318 197.393,163.355 199.163,163.399 197.000 C 163.444 194.837,163.444 191.297,163.399 189.133 C 163.355 186.970,163.318 188.740,163.318 193.067 M189.718 193.067 C 189.718 197.393,189.755 199.163,189.799 197.000 C 189.844 194.837,189.844 191.297,189.799 189.133 C 189.755 186.970,189.718 188.740,189.718 193.067 M269.732 278.133 C 269.732 323.527,269.762 342.097,269.800 319.400 C 269.838 296.703,269.838 259.563,269.800 236.867 C 269.762 214.170,269.732 232.740,269.732 278.133 M163.318 227.467 C 163.318 231.793,163.355 233.563,163.399 231.400 C 163.444 229.237,163.444 225.697,163.399 223.533 C 163.355 221.370,163.318 223.140,163.318 227.467 M189.718 227.600 C 189.718 232.000,189.755 233.837,189.799 231.683 C 189.844 229.529,189.844 225.929,189.800 223.683 C 189.755 221.437,189.718 223.200,189.718 227.600 M242.514 251.467 C 242.514 254.767,242.552 256.117,242.599 254.467 C 242.646 252.817,242.646 250.117,242.599 248.467 C 242.552 246.817,242.514 248.167,242.514 251.467 M189.718 262.000 C 189.718 266.400,189.755 268.237,189.799 266.083 C 189.844 263.929,189.844 260.329,189.800 258.083 C 189.755 255.837,189.718 257.600,189.718 262.000 M163.318 262.133 C 163.318 266.460,163.355 268.230,163.399 266.067 C 163.444 263.903,163.444 260.363,163.399 258.200 C 163.355 256.037,163.318 257.807,163.318 262.133 M242.514 271.733 C 242.514 275.033,242.552 276.383,242.599 274.733 C 242.646 273.083,242.646 270.383,242.599 268.733 C 242.552 267.083,242.514 268.433,242.514 271.733 M207.864 315.200 C 207.864 340.060,207.895 350.230,207.933 337.800 C 207.972 325.370,207.972 305.030,207.933 292.600 C 207.895 280.170,207.864 290.340,207.864 315.200 M221.267 278.600 C 223.797 278.643,227.937 278.643,230.467 278.600 C 232.997 278.556,230.927 278.520,225.867 278.520 C 220.807 278.520,218.737 278.556,221.267 278.600 M242.514 292.000 C 242.514 295.300,242.552 296.650,242.599 295.000 C 242.646 293.350,242.646 290.650,242.599 289.000 C 242.552 287.350,242.514 288.700,242.514 292.000 M163.318 296.533 C 163.318 300.860,163.355 302.630,163.399 300.467 C 163.444 298.303,163.444 294.763,163.399 292.600 C 163.355 290.437,163.318 292.207,163.318 296.533 M189.718 296.533 C 189.718 300.860,189.755 302.630,189.799 300.467 C 189.844 298.303,189.844 294.763,189.799 292.600 C 189.755 290.437,189.718 292.207,189.718 296.533 M293.021 298.333 C 301.429 298.372,315.109 298.372,323.421 298.333 C 331.733 298.294,324.853 298.262,308.133 298.262 C 291.413 298.262,284.613 298.294,293.021 298.333 M221.116 298.866 C 223.564 298.910,227.644 298.910,230.183 298.866 C 232.722 298.822,230.720 298.786,225.733 298.786 C 220.747 298.786,218.669 298.822,221.116 298.866 M248.050 298.866 C 250.497 298.910,254.577 298.910,257.116 298.866 C 259.656 298.822,257.653 298.786,252.667 298.786 C 247.680 298.786,245.602 298.822,248.050 298.866 M242.514 312.267 C 242.514 315.567,242.552 316.917,242.599 315.267 C 242.646 313.617,242.646 310.917,242.599 309.267 C 242.552 307.617,242.514 308.967,242.514 312.267 M305.180 312.400 C 305.181 315.627,305.219 316.910,305.266 315.252 C 305.313 313.594,305.313 310.954,305.266 309.385 C 305.218 307.817,305.180 309.173,305.180 312.400 M332.647 312.400 C 332.647 315.627,332.686 316.910,332.733 315.252 C 332.779 313.594,332.779 310.954,332.732 309.385 C 332.685 307.817,332.647 309.173,332.647 312.400 M221.267 319.133 C 223.797 319.177,227.937 319.177,230.467 319.133 C 232.997 319.089,230.927 319.053,225.867 319.053 C 220.807 319.053,218.737 319.089,221.267 319.133 M247.933 319.133 C 250.463 319.177,254.603 319.177,257.133 319.133 C 259.663 319.089,257.593 319.053,252.533 319.053 C 247.473 319.053,245.403 319.089,247.933 319.133 M152.318 322.866 C 154.179 322.912,157.299 322.912,159.251 322.866 C 161.203 322.820,159.680 322.783,155.867 322.783 C 152.053 322.783,150.456 322.820,152.318 322.866 M178.718 322.866 C 180.579 322.912,183.699 322.912,185.651 322.866 C 187.603 322.820,186.080 322.783,182.267 322.783 C 178.453 322.783,176.856 322.820,178.718 322.866 M163.318 330.933 C 163.318 335.260,163.355 337.030,163.399 334.867 C 163.444 332.703,163.444 329.163,163.399 327.000 C 163.355 324.837,163.318 326.607,163.318 330.933 M189.600 331.120 C 189.527 335.550,189.559 339.082,189.671 338.970 C 189.783 338.857,189.843 335.233,189.804 330.916 L 189.733 323.067 189.600 331.120 M290.333 325.800 C 292.863 325.843,297.003 325.843,299.533 325.800 C 302.063 325.756,299.993 325.720,294.933 325.720 C 289.873 325.720,287.803 325.756,290.333 325.800 M317.800 325.800 C 320.330 325.843,324.470 325.843,327.000 325.800 C 329.530 325.756,327.460 325.720,322.400 325.720 C 317.340 325.720,315.270 325.756,317.800 325.800 M242.514 332.533 C 242.514 335.833,242.552 337.183,242.599 335.533 C 242.646 333.883,242.646 331.183,242.599 329.533 C 242.552 327.883,242.514 329.233,242.514 332.533 M305.181 332.533 C 305.181 335.833,305.219 337.183,305.266 335.533 C 305.313 333.883,305.313 331.183,305.266 329.533 C 305.219 327.883,305.181 329.233,305.181 332.533 M332.647 332.667 C 332.647 335.893,332.686 337.177,332.733 335.519 C 332.779 333.860,332.779 331.220,332.732 329.652 C 332.685 328.083,332.647 329.440,332.647 332.667 M221.267 339.400 C 223.797 339.443,227.937 339.443,230.467 339.400 C 232.997 339.356,230.927 339.320,225.867 339.320 C 220.807 339.320,218.737 339.356,221.267 339.400 M247.933 339.400 C 250.463 339.443,254.603 339.443,257.133 339.400 C 259.663 339.356,257.593 339.320,252.533 339.320 C 247.473 339.320,245.403 339.356,247.933 339.400 M290.200 339.400 C 292.803 339.443,297.063 339.443,299.667 339.400 C 302.270 339.356,300.140 339.320,294.933 339.320 C 289.727 339.320,287.597 339.356,290.200 339.400 M317.667 339.400 C 320.270 339.443,324.530 339.443,327.133 339.400 C 329.737 339.356,327.607 339.320,322.400 339.320 C 317.193 339.320,315.063 339.356,317.667 339.400 M72.351 361.533 C 75.110 361.576,79.550 361.576,82.217 361.533 C 84.885 361.489,82.627 361.454,77.200 361.454 C 71.773 361.454,69.591 361.490,72.351 361.533 M113.284 361.533 C 116.117 361.576,120.677 361.576,123.418 361.533 C 126.158 361.490,123.840 361.454,118.267 361.454 C 112.693 361.454,110.451 361.490,113.284 361.533 " stroke="none" fill="#fcb863" fill-rule="evenodd"></path><path id="path3" d="M43.200 34.330 L 48.800 34.411 48.800 72.534 L 48.800 110.658 41.533 110.736 L 34.267 110.813 41.600 110.807 L 48.933 110.800 48.933 72.533 L 48.933 34.267 43.266 34.259 L 37.600 34.250 43.200 34.330 M72.319 34.332 C 73.887 34.379,76.527 34.379,78.185 34.333 C 79.843 34.286,78.560 34.247,75.333 34.247 C 72.107 34.247,70.750 34.285,72.319 34.332 M125.009 34.330 C 125.784 34.384,126.984 34.384,127.676 34.329 C 128.367 34.274,127.733 34.230,126.267 34.231 C 124.800 34.231,124.234 34.276,125.009 34.330 M137.463 34.328 L 139.994 34.419 140.068 45.010 L 140.142 55.600 140.138 44.933 L 140.133 34.267 137.533 34.251 L 134.932 34.236 137.463 34.328 M160.733 34.333 C 162.823 34.378,166.243 34.378,168.333 34.333 C 170.423 34.288,168.713 34.251,164.533 34.251 C 160.353 34.251,158.643 34.288,160.733 34.333 M179.724 34.328 C 181.510 34.387,182.597 34.536,182.744 34.743 C 182.908 34.974,182.943 34.952,182.865 34.667 C 182.777 34.343,182.198 34.264,179.845 34.251 L 176.933 34.236 179.724 34.328 M190.198 48.867 L 190.262 63.600 190.333 49.010 L 190.405 34.419 193.002 34.332 L 195.600 34.245 192.867 34.189 L 190.133 34.133 190.198 48.867 M198.464 48.867 L 198.529 63.600 198.600 48.978 L 198.671 34.356 200.511 34.445 C 201.523 34.494,202.295 34.443,202.226 34.333 C 202.158 34.223,201.269 34.133,200.251 34.133 L 198.400 34.133 198.464 48.867 M211.531 34.328 L 213.595 34.421 213.668 48.877 L 213.740 63.333 213.737 48.800 L 213.733 34.267 211.600 34.251 L 209.467 34.234 211.531 34.328 M220.978 34.311 C 220.880 34.409,220.802 34.619,220.804 34.778 C 220.807 34.956,220.887 34.943,221.014 34.743 C 221.147 34.534,222.200 34.389,224.010 34.333 L 226.800 34.246 223.978 34.190 C 222.426 34.159,221.076 34.213,220.978 34.311 M236.067 34.332 C 237.350 34.381,239.450 34.381,240.733 34.332 C 242.017 34.283,240.967 34.243,238.400 34.243 C 235.833 34.243,234.783 34.283,236.067 34.332 M254.997 34.332 L 257.595 34.419 257.664 47.143 L 257.733 59.867 261.267 59.879 L 264.801 59.891 261.334 59.804 L 257.867 59.718 257.867 46.926 L 257.867 34.133 255.133 34.189 L 252.400 34.245 254.997 34.332 M269.133 34.332 C 270.857 34.379,273.677 34.379,275.400 34.332 C 277.123 34.286,275.713 34.248,272.267 34.248 C 268.820 34.248,267.410 34.286,269.133 34.332 M305.459 34.457 C 305.387 34.646,305.360 41.280,305.400 49.200 L 305.471 63.600 305.536 49.000 L 305.600 34.400 308.131 34.400 L 310.662 34.400 310.734 48.867 L 310.807 63.333 310.803 48.800 L 310.800 34.267 308.195 34.190 C 306.261 34.134,305.557 34.202,305.459 34.457 M315.400 34.333 C 317.490 34.378,320.910 34.378,323.000 34.333 C 325.090 34.288,323.380 34.251,319.200 34.251 C 315.020 34.251,313.310 34.288,315.400 34.333 M330.198 34.332 L 332.795 34.419 332.867 49.010 L 332.938 63.600 333.002 48.867 L 333.067 34.133 330.333 34.189 L 327.600 34.245 330.198 34.332 M341.933 34.333 L 348.000 34.410 348.000 36.130 L 348.000 37.851 344.600 37.934 L 341.200 38.017 344.733 38.075 L 348.267 38.133 348.267 36.133 L 348.267 34.133 342.067 34.195 L 335.867 34.256 341.933 34.333 M239.804 38.058 C 240.209 38.119,240.809 38.118,241.137 38.054 C 241.465 37.991,241.133 37.941,240.400 37.943 C 239.667 37.945,239.398 37.997,239.804 38.058 M273.133 38.064 C 274.123 38.116,275.743 38.116,276.733 38.064 C 277.723 38.013,276.913 37.971,274.933 37.971 C 272.953 37.971,272.143 38.013,273.133 38.064 M167.323 50.800 C 167.323 57.840,167.358 60.682,167.400 57.115 C 167.442 53.548,167.442 47.788,167.400 44.315 C 167.358 40.842,167.323 43.760,167.323 50.800 M321.990 50.800 C 321.990 57.840,322.024 60.682,322.066 57.115 C 322.109 53.548,322.108 47.788,322.066 44.315 C 322.024 40.842,321.990 43.760,321.990 50.800 M161.990 50.933 C 161.990 57.900,162.024 60.750,162.066 57.267 C 162.109 53.783,162.109 48.083,162.066 44.600 C 162.024 41.117,161.990 43.967,161.990 50.933 M316.657 50.933 C 316.657 57.900,316.691 60.750,316.733 57.267 C 316.775 53.783,316.775 48.083,316.733 44.600 C 316.691 41.117,316.657 43.967,316.657 50.933 M349.149 41.200 C 349.151 42.080,349.201 42.408,349.260 41.929 C 349.319 41.449,349.318 40.729,349.257 40.329 C 349.196 39.928,349.148 40.320,349.149 41.200 M302.987 42.467 L 302.933 44.800 300.544 44.800 L 298.155 44.800 298.059 42.600 L 297.963 40.400 297.982 42.667 L 298.000 44.933 300.471 45.010 C 303.367 45.100,303.261 45.210,303.132 42.243 L 303.041 40.133 302.987 42.467 M244.880 41.867 C 244.880 42.673,244.930 43.003,244.991 42.600 C 245.052 42.197,245.052 41.537,244.991 41.133 C 244.930 40.730,244.880 41.060,244.880 41.867 M179.733 41.969 C 179.733 42.189,179.853 42.443,180.000 42.533 C 180.147 42.624,180.267 42.518,180.267 42.298 C 180.267 42.078,180.147 41.824,180.000 41.733 C 179.853 41.643,179.733 41.749,179.733 41.969 M23.378 42.578 C 23.131 42.824,23.153 53.600,23.400 53.600 C 23.510 53.600,23.600 51.080,23.600 48.000 C 23.600 44.920,23.590 42.400,23.578 42.400 C 23.566 42.400,23.476 42.480,23.378 42.578 M55.378 42.578 C 55.131 42.824,55.153 53.600,55.400 53.600 C 55.510 53.600,55.600 51.080,55.600 48.000 C 55.600 44.920,55.590 42.400,55.578 42.400 C 55.566 42.400,55.476 42.480,55.378 42.578 M276.890 48.267 C 276.890 49.367,276.937 49.817,276.994 49.267 C 277.052 48.717,277.052 47.817,276.994 47.267 C 276.937 46.717,276.890 47.167,276.890 48.267 M346.756 48.267 C 346.756 49.367,346.803 49.817,346.861 49.267 C 346.918 48.717,346.918 47.817,346.861 47.267 C 346.803 46.717,346.756 47.167,346.756 48.267 M351.733 47.600 C 352.231 48.113,352.698 48.533,352.771 48.533 C 352.845 48.533,352.498 48.113,352.000 47.600 C 351.502 47.087,351.035 46.667,350.962 46.667 C 350.889 46.667,351.236 47.087,351.733 47.600 M225.600 52.788 C 225.600 52.929,224.730 53.085,223.667 53.135 L 221.733 53.227 223.800 53.280 C 225.483 53.323,225.867 53.259,225.867 52.933 C 225.867 52.713,225.807 52.533,225.733 52.533 C 225.660 52.533,225.600 52.648,225.600 52.788 M297.961 54.800 C 297.961 56.120,298.006 56.694,298.062 56.075 C 298.117 55.456,298.118 54.376,298.063 53.675 C 298.008 52.974,297.962 53.480,297.961 54.800 M303.028 54.800 C 303.027 56.120,303.072 56.694,303.128 56.075 C 303.184 55.456,303.185 54.376,303.130 53.675 C 303.075 52.974,303.029 53.480,303.028 54.800 M179.000 53.261 C 179.550 53.318,180.450 53.318,181.000 53.261 C 181.550 53.203,181.100 53.156,180.000 53.156 C 178.900 53.156,178.450 53.203,179.000 53.261 M250.467 55.067 C 250.470 55.653,250.525 55.862,250.589 55.530 C 250.652 55.199,250.650 54.719,250.583 54.464 C 250.516 54.209,250.464 54.480,250.467 55.067 M128.862 55.733 C 128.862 56.247,128.917 56.457,128.984 56.200 C 129.051 55.943,129.051 55.523,128.984 55.267 C 128.917 55.010,128.862 55.220,128.862 55.733 M122.213 56.533 C 122.213 57.340,122.263 57.670,122.324 57.267 C 122.385 56.863,122.385 56.203,122.324 55.800 C 122.263 55.397,122.213 55.727,122.213 56.533 M157.410 56.667 C 157.412 57.400,157.463 57.668,157.525 57.263 C 157.586 56.858,157.584 56.258,157.521 55.930 C 157.458 55.602,157.408 55.933,157.410 56.667 M177.508 56.733 C 177.440 56.843,178.561 56.933,180.000 56.933 C 181.439 56.933,182.560 56.843,182.492 56.733 C 182.424 56.623,181.303 56.533,180.000 56.533 C 178.697 56.533,177.576 56.623,177.508 56.733 M222.467 56.729 C 223.163 56.784,224.303 56.784,225.000 56.729 C 225.697 56.674,225.127 56.629,223.733 56.629 C 222.340 56.629,221.770 56.674,222.467 56.729 M273.133 59.931 C 274.123 59.982,275.743 59.982,276.733 59.931 C 277.723 59.880,276.913 59.838,274.933 59.838 C 272.953 59.838,272.143 59.880,273.133 59.931 M294.733 59.917 C 294.990 59.984,295.410 59.984,295.667 59.917 C 295.923 59.850,295.713 59.795,295.200 59.795 C 294.687 59.795,294.477 59.850,294.733 59.917 M343.000 59.931 C 343.990 59.982,345.610 59.982,346.600 59.931 C 347.590 59.880,346.780 59.838,344.800 59.838 C 342.820 59.838,342.010 59.880,343.000 59.931 M114.333 63.922 C 114.663 63.985,115.203 63.985,115.533 63.922 C 115.863 63.858,115.593 63.806,114.933 63.806 C 114.273 63.806,114.003 63.858,114.333 63.922 M131.400 63.922 C 131.730 63.985,132.270 63.985,132.600 63.922 C 132.930 63.858,132.660 63.806,132.000 63.806 C 131.340 63.806,131.070 63.858,131.400 63.922 M149.533 63.922 C 149.863 63.985,150.403 63.985,150.733 63.922 C 151.063 63.858,150.793 63.806,150.133 63.806 C 149.473 63.806,149.203 63.858,149.533 63.922 M294.600 63.922 C 294.930 63.985,295.470 63.985,295.800 63.922 C 296.130 63.858,295.860 63.806,295.200 63.806 C 294.540 63.806,294.270 63.858,294.600 63.922 M356.736 63.922 C 357.068 63.986,357.548 63.983,357.803 63.917 C 358.058 63.850,357.787 63.798,357.200 63.801 C 356.613 63.804,356.405 63.858,356.736 63.922 M175.661 81.792 C 176.134 81.851,176.974 81.852,177.527 81.795 C 178.081 81.737,177.693 81.689,176.667 81.688 C 175.640 81.686,175.187 81.734,175.661 81.792 M193.794 81.792 C 194.267 81.851,195.107 81.852,195.661 81.795 C 196.214 81.737,195.827 81.689,194.800 81.688 C 193.773 81.686,193.321 81.734,193.794 81.792 M339.400 81.793 C 339.877 81.852,340.657 81.852,341.133 81.793 C 341.610 81.734,341.220 81.685,340.267 81.685 C 339.313 81.685,338.923 81.734,339.400 81.793 M113.410 82.064 C 114.258 82.117,115.578 82.117,116.343 82.063 C 117.108 82.009,116.413 81.966,114.800 81.966 C 113.187 81.967,112.561 82.011,113.410 82.064 M124.922 82.200 C 124.852 82.383,124.827 89.013,124.866 96.933 L 124.938 111.333 125.002 96.711 L 125.067 82.090 126.909 82.178 C 127.922 82.227,128.695 82.177,128.626 82.067 C 128.407 81.714,125.062 81.834,124.922 82.200 M137.931 82.061 L 139.995 82.155 140.068 96.611 L 140.140 111.067 140.137 96.533 L 140.133 82.000 138.000 81.984 L 135.867 81.968 137.931 82.061 M143.056 82.200 C 142.985 82.383,142.960 89.013,143.000 96.933 L 143.071 111.333 143.136 96.740 L 143.200 82.147 147.267 82.066 L 151.333 81.985 147.258 81.926 C 144.199 81.881,143.151 81.950,143.056 82.200 M205.984 82.212 C 205.907 82.412,205.885 83.646,205.934 84.954 L 206.024 87.333 206.078 84.733 L 206.133 82.133 208.778 82.133 C 210.318 82.133,211.479 82.247,211.558 82.407 C 211.632 82.557,211.663 82.527,211.625 82.340 C 211.523 81.831,206.177 81.710,205.984 82.212 M222.592 82.060 L 225.318 82.152 225.405 85.476 L 225.492 88.801 225.479 85.400 L 225.467 82.000 222.667 81.985 L 219.867 81.969 222.592 82.060 M229.173 82.241 C 229.094 82.447,229.078 83.017,229.139 83.508 C 229.238 84.319,229.252 84.298,229.291 83.276 L 229.333 82.152 232.067 82.066 L 234.800 81.979 232.058 81.923 C 229.911 81.879,229.285 81.948,229.173 82.241 M244.467 82.063 C 245.237 82.117,246.497 82.117,247.267 82.063 C 248.037 82.009,247.407 81.965,245.867 81.965 C 244.327 81.965,243.697 82.009,244.467 82.063 M253.009 82.064 C 253.784 82.118,254.984 82.117,255.676 82.062 C 256.367 82.008,255.733 81.963,254.267 81.964 C 252.800 81.965,252.234 82.010,253.009 82.064 M265.463 82.061 L 267.994 82.153 268.068 92.610 L 268.143 103.067 268.138 92.533 L 268.133 82.000 265.533 81.985 L 262.932 81.969 265.463 82.061 M270.789 82.200 C 270.719 82.383,270.694 89.013,270.733 96.933 L 270.805 111.333 270.869 96.711 L 270.933 82.090 272.775 82.178 C 273.789 82.227,274.561 82.177,274.493 82.067 C 274.274 81.714,270.929 81.834,270.789 82.200 M283.798 82.061 L 285.862 82.155 285.934 96.611 L 286.007 111.067 286.003 96.533 L 286.000 82.000 283.867 81.984 L 281.733 81.968 283.798 82.061 M291.597 82.061 L 294.129 82.153 294.201 96.610 L 294.273 111.067 294.270 96.533 L 294.267 82.000 291.666 81.985 L 289.065 81.969 291.597 82.061 M295.313 82.224 C 295.236 82.425,295.209 83.357,295.253 84.295 L 295.333 86.000 297.664 86.077 L 299.995 86.154 300.067 98.744 L 300.139 111.333 300.203 98.600 L 300.267 85.867 297.867 85.867 L 295.467 85.867 295.467 84.000 L 295.467 82.133 302.800 82.133 L 310.133 82.133 310.133 83.990 L 310.133 85.846 307.800 85.923 L 305.467 86.000 305.463 98.667 L 305.459 111.333 305.532 98.744 L 305.605 86.154 307.936 86.077 L 310.267 86.000 310.267 84.000 L 310.267 82.000 302.860 81.929 C 296.783 81.871,295.428 81.924,295.313 82.224 M312.467 82.063 C 313.237 82.117,314.497 82.117,315.267 82.063 C 316.037 82.009,315.407 81.965,313.867 81.965 C 312.327 81.965,311.697 82.009,312.467 82.063 M322.467 82.066 C 324.190 82.112,327.010 82.112,328.733 82.066 C 330.457 82.019,329.047 81.981,325.600 81.981 C 322.153 81.981,320.743 82.019,322.467 82.066 M248.641 87.733 C 248.641 90.007,248.682 90.937,248.732 89.800 C 248.782 88.663,248.782 86.803,248.732 85.667 C 248.682 84.530,248.641 85.460,248.641 87.733 M326.744 85.798 C 327.741 85.849,329.301 85.849,330.211 85.797 C 331.122 85.745,330.307 85.703,328.400 85.704 C 326.493 85.704,325.748 85.747,326.744 85.798 M148.388 96.667 C 148.388 102.680,148.423 105.178,148.466 102.218 C 148.509 99.258,148.509 94.338,148.466 91.285 C 148.424 88.231,148.389 90.653,148.388 96.667 M337.662 88.533 C 337.662 89.047,337.717 89.257,337.784 89.000 C 337.851 88.743,337.851 88.323,337.784 88.067 C 337.717 87.810,337.662 88.020,337.662 88.533 M197.719 96.533 C 197.719 101.153,197.755 103.043,197.799 100.733 C 197.844 98.423,197.844 94.643,197.799 92.333 C 197.755 90.023,197.719 91.913,197.719 96.533 M159.050 96.533 C 159.050 100.567,159.087 102.217,159.133 100.200 C 159.178 98.183,159.178 94.883,159.133 92.867 C 159.087 90.850,159.050 92.500,159.050 96.533 M168.384 96.667 C 168.384 100.773,168.421 102.416,168.466 100.317 C 168.511 98.218,168.511 94.858,168.466 92.851 C 168.421 90.843,168.384 92.560,168.384 96.667 M173.717 96.533 C 173.717 100.567,173.754 102.217,173.799 100.200 C 173.845 98.183,173.845 94.883,173.799 92.867 C 173.754 90.850,173.717 92.500,173.717 96.533 M153.714 96.400 C 153.714 99.627,153.752 100.910,153.799 99.252 C 153.846 97.594,153.846 94.954,153.799 93.385 C 153.752 91.817,153.713 93.173,153.714 96.400 M186.248 96.667 C 186.248 100.040,186.286 101.383,186.333 99.652 C 186.379 97.920,186.379 95.160,186.332 93.518 C 186.286 91.877,186.247 93.293,186.248 96.667 M244.437 92.133 C 244.353 92.353,244.392 92.803,244.525 93.133 C 244.734 93.654,244.768 93.601,244.783 92.733 C 244.801 91.673,244.688 91.478,244.437 92.133 M180.742 92.730 C 181.517 92.784,182.717 92.784,183.409 92.729 C 184.101 92.674,183.467 92.630,182.000 92.631 C 180.533 92.631,179.967 92.676,180.742 92.730 M228.907 96.800 C 228.907 99.073,228.948 100.003,228.998 98.867 C 229.048 97.730,229.048 95.870,228.998 94.733 C 228.948 93.597,228.907 94.527,228.907 96.800 M129.333 102.667 C 129.333 107.409,129.390 111.232,129.460 111.162 C 129.639 110.983,129.660 94.371,129.481 94.192 C 129.400 94.111,129.333 97.924,129.333 102.667 M275.319 102.667 C 275.319 107.433,275.355 109.383,275.400 107.000 C 275.444 104.617,275.444 100.717,275.400 98.333 C 275.355 95.950,275.319 97.900,275.319 102.667 M330.185 95.924 L 330.133 97.848 327.400 97.934 L 324.667 98.021 327.408 98.077 C 330.565 98.142,330.473 98.217,330.332 95.705 L 330.236 94.000 330.185 95.924 M205.707 99.733 C 205.707 102.007,205.748 102.937,205.798 101.800 C 205.848 100.663,205.848 98.803,205.798 97.667 C 205.748 96.530,205.707 97.460,205.707 99.733 M225.707 100.667 C 225.707 102.867,225.748 103.731,225.798 102.588 C 225.849 101.444,225.848 99.644,225.798 98.588 C 225.747 97.531,225.706 98.467,225.707 100.667 M232.908 100.933 C 232.908 103.280,232.949 104.204,232.999 102.987 C 233.048 101.770,233.048 99.850,232.998 98.721 C 232.948 97.591,232.908 98.587,232.908 100.933 M221.706 102.400 C 221.706 104.527,221.747 105.397,221.798 104.333 C 221.849 103.270,221.849 101.530,221.798 100.467 C 221.747 99.403,221.706 100.273,221.706 102.400 M209.709 104.000 C 209.709 106.420,209.749 107.410,209.798 106.200 C 209.848 104.990,209.848 103.010,209.798 101.800 C 209.749 100.590,209.709 101.580,209.709 104.000 M248.907 103.600 C 248.907 105.800,248.948 106.665,248.998 105.521 C 249.049 104.378,249.048 102.578,248.998 101.521 C 248.947 100.465,248.906 101.400,248.907 103.600 M244.906 105.067 C 244.906 107.193,244.947 108.063,244.998 107.000 C 245.049 105.937,245.049 104.197,244.998 103.133 C 244.947 102.070,244.906 102.940,244.906 105.067 M348.076 104.400 C 348.078 105.133,348.130 105.402,348.191 104.996 C 348.253 104.591,348.251 103.991,348.188 103.663 C 348.124 103.335,348.074 103.667,348.076 104.400 M328.388 107.662 L 331.709 107.749 331.806 109.408 L 331.903 111.067 331.885 109.333 L 331.867 107.600 328.466 107.588 L 325.066 107.575 328.388 107.662 M228.606 110.133 C 228.606 110.793,228.658 111.063,228.722 110.733 C 228.785 110.403,228.785 109.863,228.722 109.533 C 228.658 109.203,228.606 109.473,228.606 110.133 M70.083 110.866 C 72.182 110.911,75.542 110.911,77.549 110.866 C 79.557 110.821,77.840 110.784,73.733 110.784 C 69.627 110.784,67.984 110.821,70.083 110.866 M175.938 111.660 C 176.417 111.719,177.137 111.718,177.538 111.657 C 177.939 111.596,177.547 111.548,176.667 111.549 C 175.787 111.551,175.459 111.601,175.938 111.660 M193.800 111.660 C 194.277 111.719,195.057 111.719,195.533 111.660 C 196.010 111.600,195.620 111.552,194.667 111.552 C 193.713 111.552,193.323 111.600,193.800 111.660 M259.133 111.660 C 259.610 111.719,260.390 111.719,260.867 111.660 C 261.343 111.600,260.953 111.552,260.000 111.552 C 259.047 111.552,258.657 111.600,259.133 111.660 M340.067 111.658 C 340.470 111.719,341.130 111.719,341.533 111.658 C 341.937 111.597,341.607 111.547,340.800 111.547 C 339.993 111.547,339.663 111.597,340.067 111.658 M154.067 157.533 C 162.317 157.572,175.817 157.572,184.067 157.533 C 192.317 157.494,185.567 157.462,169.067 157.462 C 152.567 157.462,145.817 157.494,154.067 157.533 M199.865 259.467 C 199.865 315.127,199.896 337.897,199.933 310.067 C 199.971 282.237,199.971 236.697,199.933 208.867 C 199.896 181.037,199.865 203.807,199.865 259.467 M148.384 193.200 C 148.384 197.453,148.421 199.156,148.466 196.984 C 148.511 194.811,148.511 191.331,148.466 189.250 C 148.421 187.169,148.384 188.947,148.384 193.200 M174.784 193.067 C 174.784 197.247,174.821 198.957,174.866 196.867 C 174.911 194.777,174.911 191.357,174.866 189.267 C 174.821 187.177,174.784 188.887,174.784 193.067 M262.787 227.067 C 262.787 232.347,262.823 234.544,262.866 231.951 C 262.910 229.357,262.910 225.037,262.866 222.351 C 262.823 219.664,262.787 221.787,262.787 227.067 M148.707 219.400 C 148.639 219.510,150.702 219.569,153.292 219.532 C 162.182 219.402,163.057 219.312,155.949 219.256 C 152.034 219.225,148.776 219.290,148.707 219.400 M175.107 219.400 C 175.039 219.510,177.102 219.569,179.692 219.532 C 188.582 219.402,189.457 219.312,182.349 219.256 C 178.434 219.225,175.176 219.290,175.107 219.400 M148.384 227.600 C 148.384 231.853,148.421 233.556,148.466 231.384 C 148.511 229.211,148.511 225.731,148.466 223.650 C 148.421 221.569,148.384 223.347,148.384 227.600 M174.784 227.600 C 174.784 231.853,174.821 233.556,174.866 231.384 C 174.911 229.211,174.911 225.731,174.866 223.650 C 174.821 221.569,174.784 223.347,174.784 227.600 M152.467 235.933 C 154.410 235.978,157.590 235.978,159.533 235.933 C 161.477 235.887,159.887 235.850,156.000 235.850 C 152.113 235.850,150.523 235.887,152.467 235.933 M178.867 235.933 C 180.810 235.978,183.990 235.978,185.933 235.933 C 187.877 235.887,186.287 235.850,182.400 235.850 C 178.513 235.850,176.923 235.887,178.867 235.933 M248.050 244.466 C 250.497 244.510,254.577 244.510,257.116 244.466 C 259.656 244.422,257.653 244.386,252.667 244.386 C 247.680 244.386,245.602 244.422,248.050 244.466 M262.781 251.467 C 262.781 254.767,262.819 256.117,262.866 254.467 C 262.913 252.817,262.913 250.117,262.866 248.467 C 262.819 246.817,262.781 248.167,262.781 251.467 M236.123 264.800 C 236.123 271.620,236.158 274.410,236.200 271.000 C 236.242 267.590,236.242 262.010,236.200 258.600 C 236.158 255.190,236.123 257.980,236.123 264.800 M152.318 253.799 C 154.179 253.845,157.299 253.845,159.251 253.799 C 161.203 253.754,159.680 253.716,155.867 253.716 C 152.053 253.716,150.456 253.753,152.318 253.799 M178.718 253.799 C 180.579 253.845,183.699 253.845,185.651 253.799 C 187.603 253.754,186.080 253.716,182.267 253.716 C 178.453 253.716,176.856 253.753,178.718 253.799 M148.384 262.000 C 148.384 266.253,148.421 267.956,148.466 265.784 C 148.511 263.611,148.511 260.131,148.466 258.050 C 148.421 255.969,148.384 257.747,148.384 262.000 M174.784 262.000 C 174.784 266.253,174.821 267.956,174.866 265.784 C 174.911 263.611,174.911 260.131,174.866 258.050 C 174.821 255.969,174.784 257.747,174.784 262.000 M247.916 258.333 C 250.437 258.377,254.637 258.377,257.249 258.333 C 259.862 258.289,257.800 258.253,252.667 258.253 C 247.533 258.253,245.396 258.289,247.916 258.333 M262.781 271.733 C 262.781 275.033,262.819 276.383,262.866 274.733 C 262.913 273.083,262.913 270.383,262.866 268.733 C 262.819 267.083,262.781 268.433,262.781 271.733 M175.164 270.205 C 175.277 270.317,178.541 270.377,182.418 270.338 L 189.467 270.266 182.213 270.133 C 178.223 270.060,175.051 270.092,175.164 270.205 M152.349 270.333 C 154.375 270.378,157.615 270.378,159.549 270.333 C 161.484 270.287,159.827 270.250,155.867 270.250 C 151.907 270.250,150.324 270.287,152.349 270.333 M215.552 275.733 C 215.552 276.687,215.600 277.077,215.660 276.600 C 215.719 276.123,215.719 275.343,215.660 274.867 C 215.600 274.390,215.552 274.780,215.552 275.733 M247.916 278.599 C 250.437 278.643,254.637 278.643,257.249 278.600 C 259.862 278.556,257.800 278.520,252.667 278.520 C 247.533 278.520,245.396 278.556,247.916 278.599 M276.649 286.133 C 276.649 289.727,276.686 291.197,276.733 289.400 C 276.779 287.603,276.779 284.663,276.733 282.867 C 276.686 281.070,276.649 282.540,276.649 286.133 M339.582 286.267 C 339.582 289.933,339.620 291.470,339.666 289.682 C 339.712 287.894,339.712 284.894,339.666 283.016 C 339.620 281.137,339.582 282.600,339.582 286.267 M215.580 291.867 C 215.581 295.093,215.619 296.377,215.666 294.719 C 215.713 293.060,215.713 290.420,215.666 288.852 C 215.618 287.283,215.580 288.640,215.580 291.867 M262.781 292.000 C 262.781 295.300,262.819 296.650,262.866 295.000 C 262.913 293.350,262.913 290.650,262.866 289.000 C 262.819 287.350,262.781 288.700,262.781 292.000 M148.385 296.533 C 148.385 300.860,148.421 302.630,148.466 300.467 C 148.511 298.303,148.511 294.763,148.466 292.600 C 148.421 290.437,148.385 292.207,148.385 296.533 M174.784 296.533 C 174.784 300.713,174.821 302.423,174.866 300.333 C 174.911 298.243,174.911 294.823,174.866 292.733 C 174.821 290.643,174.784 292.353,174.784 296.533 M292.754 293.533 C 301.309 293.572,315.229 293.572,323.687 293.533 C 332.146 293.494,325.147 293.462,308.133 293.462 C 291.120 293.462,284.199 293.494,292.754 293.533 M276.662 330.133 C 276.662 347.220,276.694 354.210,276.733 345.667 C 276.772 337.123,276.772 323.143,276.733 314.600 C 276.694 306.057,276.662 313.047,276.662 330.133 M290.049 305.533 C 292.570 305.577,296.770 305.577,299.383 305.533 C 301.996 305.489,299.933 305.453,294.800 305.453 C 289.667 305.453,287.529 305.489,290.049 305.533 M317.516 305.533 C 320.037 305.577,324.237 305.577,326.849 305.533 C 329.462 305.489,327.400 305.453,322.267 305.453 C 317.133 305.453,314.996 305.489,317.516 305.533 M215.581 312.267 C 215.581 315.567,215.619 316.917,215.666 315.267 C 215.713 313.617,215.713 310.917,215.666 309.267 C 215.619 307.617,215.581 308.967,215.581 312.267 M262.781 312.267 C 262.781 315.567,262.819 316.917,262.866 315.267 C 262.913 313.617,262.913 310.917,262.866 309.267 C 262.819 307.617,262.781 308.967,262.781 312.267 M284.380 312.400 C 284.381 315.627,284.419 316.910,284.466 315.252 C 284.513 313.594,284.513 310.954,284.466 309.385 C 284.418 307.817,284.380 309.173,284.380 312.400 M311.847 312.400 C 311.847 315.627,311.886 316.910,311.933 315.252 C 311.979 313.594,311.979 310.954,311.932 309.385 C 311.885 307.817,311.847 309.173,311.847 312.400 M82.467 310.867 C 90.937 310.906,104.797 310.906,113.267 310.867 C 121.737 310.828,114.807 310.796,97.867 310.796 C 80.927 310.796,73.997 310.828,82.467 310.867 M129.728 336.000 C 129.728 349.420,129.760 354.910,129.800 348.200 C 129.840 341.490,129.840 330.510,129.800 323.800 C 129.760 317.090,129.728 322.580,129.728 336.000 M65.994 336.133 C 65.994 349.480,66.027 354.901,66.067 348.180 C 66.106 341.459,66.106 330.539,66.067 323.913 C 66.027 317.288,65.994 322.787,65.994 336.133 M290.183 319.399 C 292.630 319.443,296.710 319.444,299.250 319.400 C 301.789 319.356,299.787 319.320,294.800 319.320 C 289.813 319.320,287.736 319.356,290.183 319.399 M317.650 319.399 C 320.097 319.443,324.177 319.444,326.716 319.400 C 329.256 319.356,327.253 319.320,322.267 319.320 C 317.280 319.320,315.202 319.356,317.650 319.399 M148.384 331.067 C 148.384 335.320,148.421 337.023,148.466 334.850 C 148.511 332.678,148.511 329.198,148.466 327.117 C 148.421 325.036,148.384 326.813,148.384 331.067 M174.784 331.067 C 174.784 335.320,174.821 337.023,174.866 334.850 C 174.911 332.678,174.911 329.198,174.866 327.117 C 174.821 325.036,174.784 326.813,174.784 331.067 M215.581 332.533 C 215.581 335.833,215.619 337.183,215.666 335.533 C 215.713 333.883,215.713 331.183,215.666 329.533 C 215.619 327.883,215.581 329.233,215.581 332.533 M262.781 332.533 C 262.781 335.833,262.819 337.183,262.866 335.533 C 262.913 333.883,262.913 331.183,262.866 329.533 C 262.819 327.883,262.781 329.233,262.781 332.533 M311.847 332.533 C 311.847 335.833,311.886 337.183,311.932 335.533 C 311.979 333.883,311.979 331.183,311.932 329.533 C 311.886 327.883,311.847 329.233,311.847 332.533 M284.380 332.667 C 284.381 335.893,284.419 337.177,284.466 335.519 C 284.513 333.860,284.513 331.220,284.466 329.652 C 284.418 328.083,284.380 329.440,284.380 332.667 M92.733 330.066 C 95.410 330.110,99.790 330.110,102.467 330.066 C 105.143 330.023,102.953 329.987,97.600 329.987 C 92.247 329.987,90.057 330.023,92.733 330.066 M108.125 346.133 C 108.125 354.567,108.159 358.017,108.200 353.800 C 108.241 349.583,108.241 342.683,108.200 338.467 C 108.159 334.250,108.125 337.700,108.125 346.133 M87.058 346.267 C 87.058 354.627,87.092 358.008,87.133 353.781 C 87.174 349.554,87.174 342.714,87.133 338.581 C 87.092 334.448,87.058 337.907,87.058 346.267 M152.318 339.399 C 154.179 339.445,157.299 339.445,159.251 339.399 C 161.203 339.354,159.680 339.316,155.867 339.316 C 152.053 339.316,150.456 339.353,152.318 339.399 M178.718 339.399 C 180.579 339.445,183.699 339.445,185.651 339.399 C 187.603 339.354,186.080 339.316,182.267 339.316 C 178.453 339.316,176.856 339.353,178.718 339.399 M154.200 361.533 C 162.377 361.572,175.757 361.572,183.933 361.533 C 192.110 361.494,185.420 361.462,169.067 361.462 C 152.713 361.462,146.023 361.494,154.200 361.533 M223.954 361.800 C 232.215 361.839,245.655 361.839,253.821 361.800 C 261.986 361.761,255.227 361.729,238.800 361.729 C 222.373 361.729,215.693 361.761,223.954 361.800 M293.021 362.067 C 301.429 362.106,315.109 362.106,323.421 362.067 C 331.733 362.028,324.853 361.996,308.133 361.996 C 291.413 361.996,284.613 362.028,293.021 362.067 " stroke="none" fill="#fccf9a" fill-rule="evenodd"></path><path id="path4" d="" stroke="none" fill="#fcac45" fill-rule="evenodd"></path></g></svg>