<svg id="svg" version="1.1" xmlns="http://www.w3.org/2000/svg" xmlns:xlink="http://www.w3.org/1999/xlink" width="400" height="400" viewBox="0, 0, 400,400"><g id="svgg"><path id="path0" d="M78.125 35.586 C 67.832 36.963,64.285 41.881,64.114 55.013 L 64.020 62.240 70.031 62.240 L 76.042 62.240 76.042 56.558 C 76.042 48.048,77.036 46.094,81.364 46.094 C 85.272 46.094,86.070 47.841,86.061 56.380 C 86.050 66.799,85.860 67.263,78.296 75.341 C 64.309 90.277,64.018 90.894,63.866 105.924 L 63.768 115.625 80.972 115.625 L 98.177 115.625 98.177 110.289 L 98.177 104.954 87.305 104.886 L 76.432 104.818 76.468 101.302 C 76.536 94.691,76.484 94.773,88.432 82.107 C 98.004 71.959,98.816 69.950,98.823 56.380 C 98.830 43.947,97.580 40.494,92.009 37.556 C 88.948 35.941,82.406 35.013,78.125 35.586 M167.486 36.421 C 164.063 37.640,163.151 39.204,163.151 43.860 C 163.151 48.390,163.374 48.815,168.520 54.059 C 172.759 58.380,173.422 59.409,173.432 61.679 C 173.444 64.674,171.573 66.164,169.286 64.982 C 168.273 64.458,167.969 63.395,167.969 60.378 L 167.969 57.813 165.470 57.813 L 162.972 57.813 163.067 61.523 C 163.229 67.823,165.005 69.678,170.833 69.638 C 176.786 69.596,179.336 66.470,178.782 59.896 C 178.504 56.586,177.686 55.276,172.765 50.254 C 167.563 44.945,166.760 42.949,169.053 41.020 C 171.243 39.177,173.438 40.664,173.438 43.990 L 173.438 46.094 175.911 46.094 L 178.385 46.094 178.385 43.791 C 178.385 39.812,177.464 37.887,175.024 36.763 C 173.044 35.851,169.534 35.692,167.486 36.421 M205.078 36.166 C 202.645 36.811,200.685 38.607,199.855 40.952 C 198.668 44.304,199.062 63.272,200.372 65.840 C 203.080 71.147,212.279 71.157,214.984 65.856 C 216.308 63.262,216.708 44.333,215.510 40.952 C 214.173 37.179,209.441 35.008,205.078 36.166 M241.880 36.284 C 238.399 37.269,236.694 40.389,237.089 45.052 C 237.360 48.246,238.152 49.532,242.846 54.393 C 247.340 59.048,247.396 59.140,247.396 61.886 C 247.396 64.497,246.559 65.514,244.593 65.292 C 242.538 65.061,242.188 64.405,242.188 60.793 L 242.188 57.813 239.553 57.813 L 236.919 57.813 237.028 61.263 C 237.230 67.627,239.108 69.657,244.792 69.651 C 250.763 69.645,253.041 67.072,252.820 60.582 C 252.680 56.474,252.161 55.577,246.849 50.258 C 242.420 45.824,242.032 45.204,242.251 42.917 C 242.402 41.345,243.029 40.636,244.428 40.453 C 246.687 40.158,247.656 41.341,247.656 44.393 L 247.656 46.094 250.164 46.094 L 252.672 46.094 252.552 43.424 C 252.279 37.392,248.026 34.546,241.880 36.284 M129.688 52.699 L 129.688 69.271 132.418 69.271 L 135.148 69.271 135.217 61.914 L 135.286 54.557 136.090 56.771 C 136.533 57.988,137.689 61.299,138.660 64.128 L 140.425 69.271 143.260 69.271 C 144.818 69.271,146.094 69.177,146.094 69.062 C 146.094 68.947,144.980 65.711,143.620 61.869 C 140.728 53.706,140.843 54.422,142.328 53.811 C 144.852 52.774,145.390 51.193,145.270 45.178 C 145.114 37.381,144.104 36.508,134.961 36.267 L 129.688 36.127 129.688 52.699 M147.917 52.734 L 147.917 69.271 154.427 69.271 L 160.938 69.271 160.938 67.057 L 160.938 64.844 157.161 64.844 L 153.385 64.844 153.385 59.766 L 153.385 54.688 156.120 54.688 L 158.854 54.688 158.854 52.474 L 158.854 50.260 156.120 50.260 L 153.385 50.260 153.385 45.443 L 153.385 40.625 157.161 40.625 L 160.938 40.625 160.938 38.411 L 160.938 36.198 154.427 36.198 L 147.917 36.198 147.917 52.734 M181.250 52.734 L 181.250 69.271 183.984 69.271 L 186.719 69.271 186.719 63.672 L 186.719 58.073 189.015 58.073 C 195.759 58.073,196.951 56.352,196.826 46.788 L 196.745 40.495 196.022 39.265 C 194.584 36.820,192.469 36.221,185.221 36.206 L 181.250 36.198 181.250 52.734 M218.750 52.734 L 218.750 69.271 220.964 69.271 L 223.177 69.271 223.177 59.245 C 223.177 53.730,223.265 49.220,223.372 49.223 C 223.480 49.225,224.974 53.735,226.693 59.245 L 229.818 69.264 232.227 69.267 L 234.635 69.271 234.635 52.734 L 234.635 36.198 232.422 36.198 L 230.208 36.198 230.200 45.638 C 230.196 50.834,230.095 54.903,229.975 54.688 C 229.855 54.473,228.482 50.227,226.923 45.252 L 224.089 36.207 221.419 36.202 L 218.750 36.198 218.750 52.734 M255.208 52.734 L 255.208 69.271 257.943 69.271 L 260.677 69.271 260.677 52.734 L 260.677 36.198 257.943 36.198 L 255.208 36.198 255.208 52.734 M263.281 52.716 L 263.281 69.305 269.336 69.223 C 278.524 69.098,279.699 68.057,279.681 60.056 C 279.671 55.392,279.101 53.891,276.916 52.781 L 275.752 52.189 276.720 51.550 C 278.407 50.436,278.646 49.646,278.644 45.186 C 278.641 37.409,277.635 36.520,268.555 36.272 L 263.281 36.127 263.281 52.716 M281.771 52.734 L 281.771 69.271 287.891 69.271 L 294.010 69.271 294.010 67.057 L 294.010 64.844 290.625 64.844 L 287.240 64.844 287.240 50.521 L 287.240 36.198 284.505 36.198 L 281.771 36.198 281.771 52.734 M295.833 52.734 L 295.833 69.271 302.474 69.271 L 309.115 69.271 309.115 67.057 L 309.115 64.844 305.203 64.844 L 301.291 64.844 301.362 59.831 L 301.432 54.818 304.102 54.743 L 306.771 54.669 306.771 52.465 L 306.771 50.260 304.031 50.260 L 301.290 50.260 301.361 45.508 L 301.432 40.755 305.273 40.683 L 309.115 40.611 309.115 38.404 L 309.115 36.198 302.474 36.198 L 295.833 36.198 295.833 52.734 M39.119 43.555 L 33.076 50.651 33.074 57.670 L 33.073 64.690 37.877 59.754 L 42.681 54.818 42.695 85.221 L 42.708 115.625 49.349 115.625 L 55.990 115.625 55.990 76.042 L 55.990 36.458 50.576 36.458 L 45.163 36.458 39.119 43.555 M209.571 41.220 C 209.893 41.516,210.273 42.177,210.416 42.689 C 210.800 44.072,210.731 62.133,210.337 63.257 C 209.449 65.792,205.916 65.792,205.028 63.257 C 204.634 62.133,204.565 44.072,204.949 42.689 C 205.547 40.537,207.983 39.762,209.571 41.220 M138.659 41.047 C 139.571 41.397,139.844 42.555,139.844 46.077 C 139.844 50.394,139.435 51.082,136.835 51.138 L 135.286 51.172 135.215 46.232 C 135.176 43.515,135.208 41.126,135.286 40.923 C 135.427 40.556,137.586 40.635,138.659 41.047 M189.641 40.897 C 191.324 41.364,191.406 41.669,191.406 47.431 L 191.406 52.558 190.605 53.232 C 189.940 53.791,189.541 53.906,188.261 53.906 L 186.719 53.906 186.719 47.266 L 186.719 40.625 187.695 40.626 C 188.232 40.627,189.108 40.749,189.641 40.897 M271.682 40.900 C 273.240 41.332,273.558 42.076,273.563 45.294 C 273.570 49.615,273.058 50.372,270.235 50.208 L 268.880 50.130 268.809 45.713 C 268.718 40.120,268.740 40.083,271.682 40.900 M272.760 54.790 C 273.936 55.281,274.219 56.229,274.219 59.683 C 274.219 64.161,273.738 64.844,270.590 64.844 L 268.750 64.844 268.750 59.809 C 268.750 57.040,268.828 54.696,268.924 54.601 C 269.236 54.289,271.871 54.418,272.760 54.790 M135.917 82.545 C 132.693 83.117,130.623 85.246,129.955 88.675 C 129.414 91.457,129.714 109.964,130.326 111.579 C 132.492 117.293,142.030 117.996,144.784 112.645 L 145.688 110.889 145.791 106.616 L 145.894 102.344 143.414 102.344 L 140.934 102.344 140.845 106.101 C 140.729 110.956,139.824 112.311,137.201 111.559 C 135.293 111.012,135.296 111.026,135.206 99.916 C 135.108 87.769,135.280 86.979,138.021 86.979 C 140.105 86.979,140.882 88.410,140.884 92.253 L 140.885 94.531 143.396 94.531 L 145.907 94.531 145.775 91.081 C 145.512 84.178,142.314 81.409,135.917 82.545 M154.688 82.540 C 151.081 83.188,149.102 85.265,148.434 89.104 C 148.033 91.406,148.220 109.649,148.658 110.985 C 150.969 118.026,162.171 118.051,164.477 111.020 C 165.215 108.772,165.236 89.684,164.504 87.584 C 163.161 83.737,159.241 81.722,154.688 82.540 M191.681 82.576 C 188.086 83.201,186.281 85.391,186.011 89.453 C 185.719 93.863,186.444 95.291,191.720 100.684 C 195.994 105.054,196.354 105.648,196.354 108.321 C 196.354 110.611,195.550 111.771,193.963 111.771 C 191.599 111.771,191.126 111.062,190.945 107.250 L 190.812 104.427 188.344 104.427 L 185.877 104.427 185.980 107.878 C 186.165 114.071,188.157 116.146,193.918 116.146 C 199.504 116.146,201.693 113.763,201.693 107.682 C 201.693 102.963,201.465 102.535,195.929 96.863 C 191.463 92.287,191.146 91.828,191.146 89.944 C 191.146 85.197,196.333 85.736,196.574 90.508 L 196.672 92.448 199.155 92.448 L 201.638 92.448 201.494 89.830 C 201.172 83.983,197.823 81.508,191.681 82.576 M294.250 82.555 C 291.745 82.979,289.943 84.363,288.828 86.719 L 288.151 88.151 288.151 99.349 L 288.151 110.547 288.883 112.038 C 291.726 117.827,301.082 117.709,303.826 111.848 L 304.557 110.286 304.557 99.219 C 304.557 88.515,304.539 88.112,304.009 86.966 C 302.343 83.366,298.832 81.779,294.250 82.555 M167.708 99.349 L 167.708 115.885 169.922 115.885 L 172.135 115.885 172.135 105.686 C 172.135 100.076,172.222 95.572,172.327 95.678 C 172.433 95.783,173.928 100.344,175.650 105.812 L 178.781 115.755 181.187 115.830 L 183.594 115.905 183.594 99.359 L 183.594 82.813 181.380 82.813 L 179.167 82.813 179.167 92.109 C 179.167 97.223,179.067 101.295,178.946 101.159 C 178.825 101.023,177.448 96.840,175.886 91.864 L 173.047 82.817 170.378 82.815 L 167.708 82.813 167.708 99.349 M204.167 95.920 C 204.167 110.248,204.249 111.265,205.577 113.251 C 207.900 116.726,215.337 117.254,218.280 114.151 C 220.203 112.125,220.174 112.383,220.260 96.810 L 220.338 82.813 217.860 82.813 L 215.383 82.813 215.308 96.159 C 215.242 108.150,215.189 109.587,214.791 110.315 C 213.887 111.966,211.444 112.118,210.311 110.593 C 209.776 109.872,209.764 109.600,209.694 96.335 L 209.622 82.813 206.894 82.813 L 204.167 82.813 204.167 95.920 M222.917 99.349 L 222.917 115.885 225.130 115.885 L 227.344 115.885 227.344 105.165 C 227.344 99.269,227.408 94.508,227.486 94.587 C 227.564 94.665,228.541 99.460,229.658 105.242 L 231.687 115.755 232.966 115.831 L 234.245 115.907 236.036 105.545 C 237.022 99.845,237.926 95.007,238.047 94.792 C 238.168 94.576,238.269 99.208,238.273 105.143 L 238.281 115.885 240.755 115.885 L 243.229 115.885 243.229 99.349 L 243.229 82.813 239.714 82.813 C 237.780 82.813,236.198 82.900,236.197 83.008 C 236.196 83.441,233.078 101.124,232.987 101.215 C 232.901 101.301,232.356 98.582,229.884 85.742 L 229.320 82.813 226.118 82.813 L 222.917 82.813 222.917 99.349 M245.833 99.327 L 245.833 115.885 248.568 115.885 L 251.302 115.885 251.302 110.326 L 251.302 104.767 254.078 104.597 C 260.639 104.195,261.844 102.331,261.680 92.842 C 261.568 86.403,261.160 85.202,258.594 83.752 L 257.161 82.943 251.497 82.856 L 245.833 82.768 245.833 99.327 M263.021 85.026 L 263.021 87.240 265.365 87.240 L 267.708 87.240 267.708 101.563 L 267.708 115.885 270.443 115.885 L 273.177 115.885 273.177 101.563 L 273.177 87.240 275.521 87.240 L 277.865 87.240 277.865 85.026 L 277.865 82.813 270.443 82.813 L 263.021 82.813 263.021 85.026 M279.948 99.349 L 279.948 115.885 282.552 115.885 L 285.156 115.885 285.156 99.349 L 285.156 82.813 282.552 82.813 L 279.948 82.813 279.948 99.349 M307.292 99.349 L 307.292 115.885 309.632 115.885 L 311.973 115.885 312.041 105.684 L 312.109 95.483 314.148 101.973 C 315.269 105.543,316.714 110.133,317.358 112.174 L 318.531 115.885 320.984 115.885 L 323.438 115.885 323.438 99.349 L 323.438 82.813 321.094 82.813 L 318.750 82.813 318.726 92.122 L 318.701 101.432 317.053 96.354 C 316.147 93.561,314.803 89.372,314.067 87.044 L 312.728 82.813 310.010 82.813 L 307.292 82.813 307.292 99.349 M158.035 87.350 C 159.455 88.084,159.498 88.393,159.587 98.438 C 159.631 103.522,159.595 108.180,159.506 108.788 C 159.084 111.662,155.776 112.711,154.244 110.455 C 153.524 109.394,153.526 89.291,154.247 88.191 C 155.025 87.003,156.662 86.640,158.035 87.350 M297.860 87.386 C 299.190 88.317,299.219 88.564,299.219 99.214 C 299.219 110.298,299.179 110.592,297.569 111.360 C 296.419 111.908,295.088 111.677,294.247 110.782 L 293.620 110.114 293.620 99.307 L 293.620 88.499 294.470 87.739 C 295.447 86.866,296.902 86.715,297.860 87.386 M254.813 87.498 C 255.994 87.947,256.250 89.082,256.250 93.855 C 256.250 99.657,255.921 100.301,252.921 100.361 L 251.432 100.391 251.363 93.815 L 251.293 87.240 252.713 87.240 C 253.494 87.240,254.439 87.356,254.813 87.498 M232.925 129.380 C 228.382 130.950,227.995 132.251,227.995 145.964 L 227.995 156.641 228.733 158.239 C 231.661 164.574,241.497 164.300,244.068 157.813 C 244.739 156.120,245.101 140.202,244.560 136.184 C 243.777 130.361,238.690 127.386,232.925 129.380 M290.755 129.134 C 288.345 129.774,286.547 131.417,285.744 133.716 C 285.049 135.707,285.051 156.030,285.747 157.833 C 287.080 161.288,290.166 163.026,294.346 162.677 C 299.430 162.251,301.007 160.050,301.236 153.060 L 301.371 148.958 298.862 148.958 L 296.354 148.958 296.353 152.018 C 296.350 156.779,295.757 158.073,293.575 158.073 C 292.707 158.073,292.266 157.903,291.606 157.313 L 290.755 156.554 290.681 146.258 C 290.598 134.577,290.619 134.417,292.372 133.684 C 294.933 132.614,296.176 133.986,296.314 138.035 L 296.412 140.885 298.894 140.885 L 301.377 140.885 301.232 137.565 C 301.021 132.736,300.269 131.012,297.829 129.770 C 296.389 129.037,292.455 128.684,290.755 129.134 M332.292 129.415 C 330.549 130.014,328.676 131.906,327.975 133.776 C 326.774 136.977,327.190 156.239,328.517 158.856 C 331.236 164.222,340.446 164.050,343.236 158.581 C 344.454 156.193,344.746 137.111,343.614 133.854 C 342.201 129.784,337.071 127.774,332.292 129.415 M135.029 129.492 C 134.894 129.886,128.906 161.691,128.906 162.013 C 128.906 162.138,130.063 162.240,131.477 162.240 L 134.047 162.240 134.501 159.237 L 134.955 156.234 137.978 156.307 L 141.002 156.380 141.175 157.422 C 141.269 157.995,141.488 159.313,141.661 160.352 L 141.974 162.240 144.833 162.240 C 147.433 162.240,147.679 162.198,147.557 161.784 C 147.405 161.269,141.406 129.638,141.406 129.351 C 141.406 129.000,135.150 129.138,135.029 129.492 M149.479 145.694 L 149.479 162.240 151.693 162.240 L 153.906 162.240 153.914 152.018 C 153.919 146.227,154.019 141.966,154.145 142.188 C 154.267 142.402,155.753 147.002,157.447 152.409 L 160.526 162.240 162.945 162.240 L 165.365 162.240 165.365 145.703 L 165.365 129.167 163.151 129.167 L 160.938 129.167 160.938 138.464 C 160.938 144.147,160.844 147.664,160.697 147.513 C 160.565 147.377,159.180 143.223,157.620 138.281 L 154.784 129.297 152.131 129.223 L 149.479 129.148 149.479 145.694 M167.969 145.692 L 167.969 162.275 173.763 162.192 C 180.304 162.099,180.767 161.981,182.602 159.950 C 184.434 157.922,184.505 157.397,184.505 145.833 C 184.505 133.037,184.231 131.926,180.622 130.086 L 179.082 129.301 173.525 129.205 L 167.969 129.108 167.969 145.692 M191.667 145.674 L 191.667 162.240 194.401 162.240 L 197.135 162.240 197.135 156.641 L 197.135 151.042 199.432 151.042 C 206.116 151.042,207.422 149.233,207.421 139.974 C 207.421 130.267,206.590 129.404,197.070 129.215 L 191.667 129.108 191.667 145.674 M209.896 145.673 L 209.896 162.240 212.500 162.240 L 215.104 162.240 215.104 154.774 C 215.104 150.668,215.192 147.397,215.299 147.504 C 215.407 147.611,216.611 150.941,217.974 154.904 L 220.454 162.109 223.409 162.183 C 226.155 162.252,226.352 162.224,226.186 161.793 C 225.750 160.660,221.094 147.440,221.094 147.335 C 221.094 147.271,221.552 147.081,222.111 146.913 C 224.491 146.200,225.295 144.468,225.455 139.714 C 225.752 130.859,224.304 129.378,215.176 129.206 L 209.896 129.107 209.896 145.673 M247.396 145.674 L 247.396 162.240 252.557 162.240 C 259.771 162.240,261.335 161.660,262.939 158.393 L 263.672 156.901 263.672 145.964 C 263.672 129.883,263.380 129.433,252.799 129.218 L 247.396 129.108 247.396 145.674 M266.406 142.140 C 266.406 157.611,266.540 158.716,268.661 160.728 C 271.585 163.503,278.581 163.296,280.814 160.369 C 282.472 158.195,282.414 158.782,282.499 143.294 L 282.577 129.167 280.091 129.167 L 277.604 129.167 277.603 142.122 C 277.602 150.199,277.500 155.441,277.333 156.043 C 276.753 158.134,274.243 158.812,272.770 157.275 L 272.005 156.477 271.931 142.822 L 271.857 129.167 269.132 129.167 L 266.406 129.167 266.406 142.140 M302.604 131.370 L 302.604 133.573 304.883 133.649 L 307.161 133.724 307.229 147.982 L 307.296 162.240 310.028 162.240 L 312.760 162.240 312.760 147.917 L 312.760 133.594 314.974 133.594 L 317.188 133.594 317.188 131.380 L 317.188 129.167 309.896 129.167 L 302.604 129.167 302.604 131.370 M319.271 145.703 L 319.271 162.240 322.005 162.240 L 324.740 162.240 324.740 145.703 L 324.740 129.167 322.005 129.167 L 319.271 129.167 319.271 145.703 M346.875 145.703 L 346.875 162.240 349.089 162.240 L 351.302 162.240 351.302 152.031 C 351.302 146.417,351.399 141.934,351.517 142.070 C 351.635 142.206,353.129 146.799,354.837 152.276 L 357.943 162.235 360.352 162.237 L 362.760 162.240 362.760 145.703 L 362.760 129.167 360.547 129.167 L 358.333 129.167 358.329 138.607 C 358.327 143.799,358.238 147.910,358.132 147.743 C 358.026 147.576,356.651 143.330,355.076 138.307 L 352.214 129.174 349.544 129.170 L 346.875 129.167 346.875 145.703 M238.220 134.196 C 238.560 134.536,238.945 135.272,239.074 135.831 C 239.425 137.343,239.387 154.463,239.030 155.881 C 238.297 158.792,234.424 158.906,233.585 156.041 C 233.001 154.047,233.369 135.582,234.009 134.719 C 235.136 133.203,236.996 132.971,238.220 134.196 M337.668 134.150 C 338.006 134.467,338.398 135.146,338.541 135.658 C 338.890 136.915,338.882 154.781,338.531 156.043 C 337.676 159.123,333.419 158.668,332.950 155.446 C 332.488 152.265,332.924 135.480,333.489 134.719 C 334.601 133.223,336.417 132.975,337.668 134.150 M177.756 134.235 C 179.098 135.114,179.167 135.672,179.165 145.630 C 179.163 157.612,179.099 157.809,175.195 157.812 L 173.438 157.813 173.438 145.877 C 173.438 139.312,173.525 133.850,173.633 133.740 C 173.964 133.399,177.044 133.769,177.756 134.235 M201.275 134.489 C 201.944 135.158,201.954 135.227,202.040 139.547 C 202.168 146.058,201.782 146.875,198.581 146.875 L 197.135 146.875 197.135 140.408 C 197.135 136.851,197.223 133.851,197.331 133.740 C 197.790 133.267,200.583 133.798,201.275 134.489 M219.234 134.481 C 219.845 135.091,219.912 135.376,220.008 137.753 C 220.216 142.949,219.674 144.010,216.809 144.010 L 215.104 144.010 215.104 138.976 C 215.104 136.207,215.192 133.851,215.299 133.740 C 215.755 133.271,218.551 133.798,219.234 134.481 M257.086 134.219 C 258.319 135.027,258.356 135.407,258.277 146.191 L 258.203 156.293 257.353 157.053 C 256.585 157.738,256.325 157.813,254.683 157.813 L 252.865 157.813 252.865 145.668 L 252.865 133.524 254.638 133.651 C 255.672 133.725,256.693 133.962,257.086 134.219 M139.151 145.182 C 139.678 148.477,140.108 151.318,140.106 151.497 C 140.105 151.732,139.483 151.823,137.873 151.823 C 135.871 151.823,135.656 151.776,135.775 151.367 C 135.848 151.117,136.347 148.186,136.883 144.854 C 137.420 141.522,137.934 138.886,138.026 138.995 C 138.118 139.104,138.625 141.888,139.151 145.182 M130.729 193.498 C 99.434 195.353,78.136 215.531,74.638 246.640 C 71.493 274.613,80.050 295.814,99.824 309.043 C 119.757 322.379,147.240 322.475,167.305 309.281 L 170.194 307.381 174.168 310.967 C 178.377 314.766,178.721 314.985,180.065 314.733 C 181.761 314.415,181.619 315.001,184.930 294.723 C 188.381 273.586,188.339 273.976,187.260 272.897 C 186.129 271.766,186.369 271.716,167.240 277.065 C 157.543 279.776,149.116 282.123,148.512 282.281 C 147.151 282.636,146.615 283.369,146.615 284.873 C 146.615 286.167,146.449 285.979,151.882 290.835 C 154.794 293.439,154.829 293.147,151.407 294.813 C 132.291 304.118,107.809 296.169,98.445 277.618 C 92.539 265.920,93.356 243.789,100.131 231.911 C 110.509 213.719,137.334 208.239,156.679 220.360 C 168.074 227.499,178.099 240.583,190.362 264.323 C 201.444 285.774,211.420 298.059,225.130 307.139 C 266.942 334.831,314.562 316.450,321.361 269.995 C 326.650 233.867,310.668 204.943,280.599 196.223 C 252.655 188.120,226.707 197.398,206.272 222.801 C 204.065 225.544,204.069 225.568,207.741 231.771 C 209.310 234.421,211.211 237.737,211.967 239.141 C 213.491 241.973,214.164 242.580,215.733 242.539 C 216.929 242.508,216.866 242.570,220.719 237.630 C 236.242 217.731,253.218 210.404,272.526 215.270 C 287.665 219.086,297.331 228.944,300.473 243.774 C 302.792 254.717,301.950 268.623,298.433 277.487 C 289.170 300.830,262.160 306.624,237.240 290.615 C 226.225 283.539,218.135 273.418,208.372 254.501 C 195.965 230.457,184.970 215.728,172.266 206.129 C 160.447 197.200,145.413 192.628,130.729 193.498 " stroke="none" fill="#fbfbfb" fill-rule="evenodd"></path><path id="path1" d="M0.000 200.000 L 0.000 400.000 200.000 400.000 L 400.000 400.000 400.000 200.000 L 400.000 0.000 200.000 0.000 L 0.000 0.000 0.000 200.000 M87.630 35.826 C 96.418 37.627,99.089 42.418,99.089 56.380 C 99.089 70.008,98.226 72.007,87.449 83.352 C 77.020 94.331,76.578 95.084,76.567 101.888 L 76.563 104.688 87.500 104.688 L 98.438 104.688 98.438 110.288 L 98.438 115.889 81.055 115.822 L 63.672 115.755 63.603 107.298 C 63.478 91.876,64.247 90.117,77.115 76.413 C 85.939 67.015,86.070 66.700,85.895 55.290 C 85.797 48.909,85.598 48.088,83.881 46.944 C 82.657 46.128,79.960 46.110,78.650 46.909 C 76.570 48.177,76.460 48.603,76.306 55.990 L 76.172 62.370 69.962 62.440 L 63.753 62.510 63.872 55.408 C 64.005 47.534,64.140 46.693,65.814 43.274 C 68.974 36.822,77.797 33.810,87.630 35.826 M174.219 36.231 C 177.389 37.332,178.771 39.882,178.593 44.305 L 178.516 46.224 175.911 46.224 L 173.307 46.224 173.231 44.015 C 173.136 41.293,172.685 40.625,170.939 40.625 C 168.990 40.625,168.229 41.420,168.229 43.460 C 168.229 45.203,168.627 45.774,172.862 50.116 C 178.201 55.590,178.723 56.499,178.862 60.582 C 179.083 67.074,176.625 69.868,170.703 69.857 C 164.994 69.846,162.979 67.686,162.808 61.393 L 162.710 57.813 165.470 57.813 L 168.229 57.813 168.229 60.819 C 168.229 64.379,168.620 65.104,170.540 65.104 C 172.546 65.104,173.177 64.295,173.177 61.723 C 173.177 59.296,172.736 58.596,168.471 54.252 C 163.411 49.100,162.891 48.132,162.891 43.880 C 162.891 37.425,167.905 34.040,174.219 36.231 M211.233 36.326 C 212.920 36.915,214.424 38.296,215.284 40.046 L 216.016 41.536 216.092 52.321 C 216.158 61.658,216.112 63.283,215.748 64.430 C 213.605 71.203,203.324 72.046,200.118 65.711 L 199.349 64.193 199.273 53.425 C 199.189 41.545,199.249 40.958,200.772 38.856 C 202.811 36.041,207.302 34.955,211.233 36.326 M248.901 36.464 C 251.703 37.703,253.086 40.703,252.815 44.957 L 252.734 46.224 250.130 46.224 L 247.526 46.224 247.390 43.967 C 247.218 41.093,246.869 40.625,244.900 40.625 C 243.092 40.625,242.448 41.347,242.448 43.378 C 242.448 45.490,242.663 45.809,247.221 50.483 C 252.329 55.719,252.874 56.634,253.066 60.286 C 253.430 67.217,249.688 70.811,243.162 69.799 C 238.594 69.090,237.015 66.950,236.779 61.153 L 236.644 57.813 239.388 57.813 L 242.131 57.813 242.226 60.788 C 242.341 64.433,242.740 65.104,244.792 65.104 C 246.694 65.104,247.267 64.329,247.260 61.763 C 247.254 59.076,247.015 58.693,242.444 54.029 C 237.202 48.679,235.937 45.463,237.212 40.726 C 238.336 36.554,244.239 34.402,248.901 36.464 M55.990 76.046 L 55.990 115.894 49.284 115.825 L 42.578 115.755 42.448 85.528 L 42.318 55.301 37.891 59.922 C 35.456 62.464,33.317 64.552,33.138 64.563 C 32.885 64.579,32.816 63.034,32.827 57.617 L 32.841 50.651 39.012 43.428 L 45.182 36.206 50.586 36.202 L 55.990 36.198 55.990 76.046 M141.102 36.600 C 144.410 37.582,145.381 39.425,145.526 44.998 C 145.677 50.835,145.031 52.737,142.487 53.946 L 141.197 54.559 143.772 61.850 C 145.189 65.860,146.349 69.232,146.351 69.344 C 146.353 69.456,144.991 69.515,143.325 69.474 L 140.296 69.401 137.871 62.370 L 135.447 55.339 135.432 62.435 L 135.417 69.531 132.422 69.531 L 129.427 69.531 129.427 52.865 L 129.427 36.198 134.588 36.198 C 138.481 36.198,140.082 36.297,141.102 36.600 M161.198 38.542 L 161.198 40.885 157.292 40.885 L 153.385 40.885 153.385 45.573 L 153.385 50.260 156.260 50.260 L 159.135 50.260 159.060 52.539 L 158.984 54.818 156.185 54.892 L 153.385 54.966 153.385 59.905 L 153.385 64.844 157.292 64.844 L 161.198 64.844 161.198 67.188 L 161.198 69.531 154.427 69.531 L 147.656 69.531 147.656 52.865 L 147.656 36.198 154.427 36.198 L 161.198 36.198 161.198 38.542 M192.724 36.617 C 196.304 37.681,197.135 39.688,197.135 47.272 C 197.135 56.166,195.850 57.996,189.396 58.283 L 186.719 58.402 186.719 63.966 L 186.719 69.531 183.854 69.531 L 180.990 69.531 180.990 52.865 L 180.990 36.198 186.151 36.198 C 190.138 36.198,191.633 36.293,192.724 36.617 M225.745 41.081 C 226.602 43.766,227.888 47.780,228.603 50.000 L 229.903 54.036 229.926 45.117 L 229.948 36.198 232.422 36.198 L 234.896 36.198 234.896 52.865 L 234.896 69.531 232.335 69.531 L 229.775 69.531 226.671 59.664 L 223.568 49.797 223.500 59.664 L 223.431 69.531 220.960 69.531 L 218.490 69.531 218.490 52.865 L 218.490 36.198 221.339 36.198 L 224.188 36.198 225.745 41.081 M260.938 52.865 L 260.938 69.531 257.943 69.531 L 254.948 69.531 254.948 52.865 L 254.948 36.198 257.943 36.198 L 260.938 36.198 260.938 52.865 M274.680 36.595 C 278.038 37.592,278.776 39.092,278.776 44.922 C 278.776 49.825,278.516 50.734,276.825 51.733 L 276.085 52.170 277.126 52.685 C 279.291 53.756,279.557 54.588,279.557 60.289 L 279.557 65.276 278.776 66.557 C 278.164 67.561,277.657 68.008,276.432 68.620 L 274.870 69.401 269.076 69.484 L 263.281 69.567 263.281 52.882 L 263.281 36.198 268.312 36.198 C 272.062 36.198,273.683 36.299,274.680 36.595 M287.500 50.521 L 287.500 64.844 290.755 64.844 L 294.010 64.844 294.010 67.188 L 294.010 69.531 287.760 69.531 L 281.510 69.531 281.510 52.865 L 281.510 36.198 284.505 36.198 L 287.500 36.198 287.500 50.521 M309.375 38.542 L 309.375 40.885 305.469 40.885 L 301.563 40.885 301.563 45.573 L 301.563 50.260 304.297 50.260 L 307.031 50.260 307.031 52.604 L 307.031 54.948 304.297 54.948 L 301.563 54.948 301.563 59.896 L 301.563 64.844 305.469 64.844 L 309.375 64.844 309.375 67.188 L 309.375 69.531 302.604 69.531 L 295.833 69.531 295.833 52.865 L 295.833 36.198 302.604 36.198 L 309.375 36.198 309.375 38.542 M205.929 41.385 L 205.078 42.145 205.078 52.837 L 205.078 63.530 205.800 64.252 C 206.373 64.825,206.762 64.974,207.682 64.974 C 208.603 64.974,208.991 64.825,209.564 64.252 L 210.286 63.530 210.286 52.837 L 210.286 42.145 209.436 41.385 C 208.843 40.855,208.312 40.625,207.682 40.625 C 207.052 40.625,206.522 40.855,205.929 41.385 M135.417 45.932 L 135.417 51.042 136.601 51.042 C 139.311 51.042,139.583 50.566,139.583 45.841 C 139.583 41.381,139.443 41.114,137.018 40.939 L 135.417 40.823 135.417 45.932 M186.719 47.235 L 186.719 53.646 188.411 53.646 C 191.290 53.646,191.486 53.172,191.359 46.548 C 191.258 41.268,191.175 41.108,188.417 40.933 L 186.719 40.825 186.719 47.235 M269.010 45.411 L 269.010 50.000 270.544 50.000 C 273.128 50.000,273.307 49.715,273.307 45.603 C 273.307 41.442,273.119 41.120,270.583 40.937 L 269.010 40.823 269.010 45.411 M269.010 59.801 L 269.010 64.914 270.885 64.780 C 273.832 64.569,274.019 64.240,273.912 59.445 C 273.810 54.847,273.706 54.688,270.804 54.688 L 269.010 54.688 269.010 59.801 M141.383 82.700 C 144.638 83.666,145.833 86.018,145.833 91.454 L 145.833 94.792 143.229 94.792 L 140.625 94.792 140.625 92.096 C 140.625 87.994,140.206 87.240,137.931 87.240 C 136.946 87.240,136.659 87.365,136.083 88.051 L 135.400 88.862 135.473 99.532 L 135.547 110.202 136.278 110.830 C 137.318 111.724,139.001 111.704,139.863 110.787 C 140.466 110.146,140.499 109.935,140.578 106.100 L 140.662 102.083 143.247 102.083 L 145.833 102.083 145.833 106.203 C 145.833 113.939,144.044 116.244,138.021 116.266 C 133.762 116.282,131.545 114.930,130.138 111.458 C 129.210 109.170,129.236 89.468,130.170 87.153 C 131.829 83.039,136.406 81.221,141.383 82.700 M160.691 83.015 C 162.314 83.803,163.496 85.017,164.299 86.719 L 164.974 88.151 164.974 99.349 C 164.974 110.238,164.959 110.580,164.417 111.751 C 161.415 118.245,151.333 117.961,148.673 111.307 C 147.816 109.164,147.696 90.233,148.524 87.776 C 150.127 83.016,155.980 80.726,160.691 83.015 M198.299 83.203 C 200.662 84.422,201.400 85.927,201.524 89.779 L 201.619 92.708 198.986 92.708 L 196.354 92.708 196.354 90.605 C 196.354 87.991,195.630 86.979,193.758 86.979 C 192.093 86.979,191.406 87.817,191.406 89.849 C 191.406 91.969,191.396 91.953,196.106 96.789 C 201.513 102.340,201.957 103.168,201.945 107.677 C 201.928 113.519,199.710 116.062,194.377 116.352 C 188.418 116.677,185.842 114.074,185.819 107.702 L 185.807 104.297 188.477 104.223 L 191.146 104.148 191.146 106.827 C 191.147 110.029,191.571 111.179,192.886 111.550 C 195.420 112.265,196.813 110.105,196.084 106.592 C 195.790 105.180,195.629 104.972,191.683 100.921 C 186.534 95.634,186.107 94.878,185.980 90.826 C 185.837 86.284,186.985 84.082,190.140 82.843 C 192.352 81.975,196.253 82.147,198.299 83.203 M299.901 82.846 C 301.823 83.566,303.390 85.129,304.198 87.134 C 305.151 89.498,305.169 109.157,304.220 111.504 C 301.577 118.044,291.608 118.181,288.565 111.719 L 287.891 110.286 287.891 99.479 C 287.891 87.365,287.931 87.049,289.750 84.923 C 291.899 82.413,296.323 81.508,299.901 82.846 M175.388 89.779 C 176.651 93.753,177.947 97.826,178.269 98.828 L 178.855 100.651 178.880 91.602 L 178.906 82.552 181.382 82.552 L 183.858 82.552 183.791 99.284 L 183.724 116.016 181.306 116.091 L 178.888 116.166 178.539 115.309 C 178.348 114.838,176.916 110.379,175.358 105.400 L 172.526 96.346 172.396 106.181 L 172.266 116.016 169.857 116.091 L 167.448 116.165 167.448 99.359 L 167.448 82.552 170.271 82.552 L 173.093 82.552 175.388 89.779 M209.896 96.204 L 209.896 109.856 210.570 110.657 C 211.300 111.524,212.759 111.756,213.841 111.177 C 215.061 110.524,215.104 110.000,215.104 95.833 L 215.104 82.534 217.773 82.608 L 220.443 82.682 220.443 96.354 C 220.443 113.059,220.283 113.835,216.478 115.625 C 211.085 118.163,205.070 115.294,204.163 109.752 C 203.881 108.033,203.804 83.001,204.080 82.726 C 204.175 82.630,205.523 82.552,207.075 82.552 L 209.896 82.552 209.896 96.204 M229.650 83.789 C 229.795 84.469,230.596 88.582,231.428 92.928 C 232.261 97.274,232.975 100.670,233.016 100.474 C 233.056 100.278,233.766 96.195,234.594 91.400 L 236.100 82.682 239.729 82.682 L 243.359 82.682 243.359 99.349 L 243.359 116.016 240.755 116.016 L 238.151 116.016 238.062 105.859 L 237.972 95.703 236.316 105.078 C 235.406 110.234,234.591 114.834,234.506 115.299 C 234.356 116.120,234.312 116.146,233.055 116.146 C 231.427 116.146,231.737 117.081,229.535 105.534 L 227.734 96.095 227.604 106.055 L 227.474 116.016 225.130 116.016 L 222.786 116.016 222.719 99.284 L 222.652 82.552 226.019 82.552 L 229.385 82.552 229.650 83.789 M256.911 82.954 C 258.887 83.465,260.099 84.425,261.003 86.193 L 261.719 87.593 261.719 93.504 C 261.719 102.820,260.678 104.396,254.367 104.638 L 251.572 104.745 251.502 110.380 L 251.432 116.016 248.568 116.016 L 245.703 116.016 245.636 99.284 L 245.569 82.552 250.464 82.552 C 254.031 82.552,255.780 82.661,256.911 82.954 M277.865 85.026 L 277.865 87.500 275.653 87.500 L 273.442 87.500 273.375 101.758 L 273.307 116.016 270.443 116.016 L 267.578 116.016 267.511 101.758 L 267.443 87.500 265.232 87.500 L 263.021 87.500 263.021 85.026 L 263.021 82.552 270.443 82.552 L 277.865 82.552 277.865 85.026 M285.417 99.349 L 285.417 116.146 282.552 116.146 L 279.688 116.146 279.688 99.349 L 279.688 82.552 282.552 82.552 L 285.417 82.552 285.417 99.349 M315.792 91.927 L 318.724 101.172 318.737 91.862 L 318.750 82.552 321.094 82.552 L 323.438 82.552 323.438 99.358 L 323.438 116.165 320.925 116.090 L 318.412 116.016 315.261 105.995 L 312.109 95.974 312.041 106.070 L 311.973 116.165 309.567 116.090 L 307.161 116.016 307.094 99.609 C 307.057 90.586,307.084 83.053,307.154 82.869 C 307.250 82.619,307.986 82.553,310.071 82.608 L 312.860 82.682 315.792 91.927 M154.668 87.911 L 154.036 88.583 153.963 98.904 C 153.909 106.351,153.974 109.430,154.194 109.961 C 155.062 112.058,158.350 111.977,159.095 109.840 C 159.551 108.531,159.473 89.800,159.006 88.684 C 158.331 87.068,155.872 86.630,154.668 87.911 M294.422 87.892 C 294.090 88.251,293.745 88.983,293.656 89.520 C 293.381 91.188,293.471 108.385,293.760 109.428 C 294.331 111.483,296.726 112.168,298.197 110.697 L 298.958 109.936 298.958 99.389 L 298.958 88.842 298.284 88.041 C 297.367 86.951,295.366 86.874,294.422 87.892 M251.563 93.912 L 251.563 100.323 253.164 100.207 C 255.878 100.011,255.990 99.756,255.990 93.724 C 255.990 87.727,255.886 87.500,253.137 87.500 L 251.563 87.500 251.563 93.912 M239.878 129.293 C 241.568 129.885,243.071 131.266,243.930 133.015 L 244.661 134.505 244.740 145.134 C 244.807 154.110,244.756 155.978,244.417 157.146 C 242.224 164.687,230.624 164.923,228.222 157.475 C 227.146 154.140,227.469 135.804,228.651 133.129 C 230.331 129.325,235.213 127.657,239.878 129.293 M297.163 129.290 C 300.128 130.330,301.125 132.314,301.256 137.435 L 301.351 141.146 298.744 141.146 L 296.137 141.146 296.050 137.998 C 295.934 133.772,294.120 132.181,291.746 134.222 L 291.016 134.850 290.942 145.417 C 290.860 157.236,290.861 157.246,292.574 157.811 C 295.224 158.686,296.094 157.305,296.094 152.222 L 296.094 148.698 298.698 148.698 L 301.302 148.698 301.302 152.693 C 301.302 160.200,299.371 162.770,293.696 162.812 C 288.824 162.848,286.014 160.642,285.180 156.127 C 284.823 154.200,284.802 137.708,285.153 135.547 C 286.046 130.044,291.383 127.263,297.163 129.290 M338.347 129.007 C 341.091 129.652,343.088 131.527,343.883 134.204 C 344.456 136.136,344.452 155.285,343.878 157.219 C 341.639 164.759,330.097 164.887,327.739 157.399 C 326.991 155.023,327.268 134.953,328.073 133.203 C 329.773 129.510,333.690 127.911,338.347 129.007 M144.053 142.578 C 145.442 149.883,146.862 157.357,147.210 159.188 L 147.841 162.516 144.826 162.443 L 141.810 162.370 141.638 161.328 C 141.543 160.755,141.324 159.437,141.152 158.398 L 140.838 156.510 138.015 156.510 C 134.796 156.510,135.110 156.243,134.643 159.375 C 134.124 162.854,134.494 162.500,131.375 162.500 C 129.874 162.500,128.646 162.443,128.646 162.374 C 128.646 162.175,134.648 130.409,134.810 129.745 C 134.954 129.161,135.011 129.153,138.242 129.224 L 141.529 129.297 144.053 142.578 M155.581 131.315 C 155.946 132.497,157.237 136.569,158.449 140.365 L 160.652 147.266 160.664 138.216 L 160.677 129.167 163.151 129.167 L 165.625 129.167 165.625 145.833 L 165.625 162.500 163.048 162.500 L 160.472 162.500 159.420 159.180 C 158.841 157.354,157.452 152.939,156.333 149.371 L 154.297 142.882 154.229 152.691 L 154.160 162.500 151.690 162.500 L 149.219 162.500 149.219 145.833 L 149.219 129.167 152.068 129.167 L 154.916 129.167 155.581 131.315 M180.950 130.068 C 182.586 130.974,183.634 132.367,184.234 134.430 C 184.985 137.013,184.717 156.442,183.906 158.203 C 182.282 161.731,180.762 162.344,173.372 162.453 L 167.708 162.536 167.708 145.834 L 167.708 129.131 173.633 129.214 L 179.557 129.297 180.950 130.068 M204.339 130.006 C 207.123 131.474,207.552 132.845,207.552 140.266 C 207.552 149.168,206.366 150.884,199.968 151.236 L 197.396 151.378 197.396 156.939 L 197.396 162.500 194.401 162.500 L 191.406 162.500 191.406 145.815 L 191.406 129.131 197.201 129.214 C 202.930 129.296,203.010 129.305,204.339 130.006 M221.164 129.526 C 224.609 130.563,225.364 132.056,225.476 138.047 C 225.593 144.303,225.098 145.764,222.470 146.927 C 221.856 147.198,221.354 147.495,221.354 147.587 C 221.354 147.736,225.988 160.916,226.437 162.044 C 226.603 162.463,226.366 162.500,223.527 162.500 L 220.436 162.500 217.965 155.314 L 215.495 148.128 215.426 155.314 L 215.356 162.500 212.496 162.500 L 209.635 162.500 209.635 145.833 L 209.635 129.167 214.802 129.167 C 218.446 129.167,220.322 129.273,221.164 129.526 M259.099 129.577 C 260.921 130.118,262.691 131.874,263.411 133.854 C 264.060 135.637,264.220 155.173,263.603 157.202 C 263.009 159.156,261.741 160.718,260.046 161.583 L 258.503 162.370 252.819 162.453 L 247.135 162.536 247.135 145.852 L 247.135 129.167 252.427 129.167 C 256.484 129.167,258.040 129.262,259.099 129.577 M272.135 142.591 C 272.135 157.523,272.104 157.244,273.824 157.811 C 274.523 158.042,274.961 158.040,275.676 157.804 C 277.353 157.251,277.344 157.336,277.344 142.456 L 277.344 129.167 280.093 129.167 L 282.842 129.167 282.747 143.034 C 282.645 158.017,282.658 157.877,281.178 160.048 C 278.519 163.950,270.451 163.808,267.780 159.812 C 266.319 157.625,266.328 157.715,266.212 142.904 L 266.106 129.167 269.121 129.167 L 272.135 129.167 272.135 142.591 M317.448 131.510 L 317.448 133.854 315.104 133.854 L 312.760 133.854 312.760 148.177 L 312.760 162.500 309.896 162.500 L 307.031 162.500 307.031 148.177 L 307.031 133.854 304.688 133.854 L 302.344 133.854 302.344 131.510 L 302.344 129.167 309.896 129.167 L 317.448 129.167 317.448 131.510 M325.000 145.833 L 325.000 162.500 322.005 162.500 L 319.010 162.500 319.010 145.833 L 319.010 129.167 322.005 129.167 L 325.000 129.167 325.000 145.833 M353.742 133.659 C 354.526 136.130,355.810 140.143,356.596 142.578 L 358.025 147.005 358.049 138.086 L 358.073 129.167 360.547 129.167 L 363.021 129.167 363.021 145.833 L 363.021 162.500 360.458 162.500 L 357.895 162.500 355.208 153.971 C 353.730 149.281,352.315 144.798,352.065 144.010 C 351.614 142.591,351.610 142.669,351.586 152.539 L 351.563 162.500 349.089 162.500 L 346.615 162.500 346.615 145.833 L 346.615 129.167 349.466 129.167 L 352.317 129.167 353.742 133.659 M234.840 133.998 C 233.636 134.652,233.557 135.473,233.644 146.399 L 233.724 156.469 234.352 157.137 C 235.651 158.519,237.753 158.210,238.611 156.510 C 239.031 155.678,239.065 154.714,239.002 145.356 L 238.932 135.113 238.082 134.353 C 237.123 133.497,235.992 133.373,234.840 133.998 M334.319 133.998 C 333.115 134.652,333.036 135.472,333.123 146.414 L 333.203 156.499 333.925 157.221 C 334.949 158.245,336.665 158.245,337.689 157.221 L 338.411 156.499 338.411 145.806 L 338.411 135.114 337.561 134.354 C 336.603 133.497,335.471 133.373,334.319 133.998 M173.698 145.840 L 173.698 157.884 175.391 157.748 C 178.991 157.459,178.940 157.638,178.850 145.408 L 178.776 135.428 178.063 134.715 C 177.450 134.102,177.092 133.987,175.524 133.899 L 173.698 133.795 173.698 145.840 M197.396 140.234 L 197.396 146.615 198.929 146.615 C 201.652 146.615,201.678 146.558,201.773 140.514 L 201.854 135.408 201.077 134.631 C 200.401 133.955,200.113 133.854,198.848 133.854 L 197.396 133.854 197.396 140.234 M215.365 138.964 L 215.365 144.073 216.937 143.959 C 219.475 143.776,219.643 143.483,219.746 139.056 L 219.831 135.416 219.050 134.635 C 218.369 133.954,218.083 133.854,216.817 133.854 L 215.365 133.854 215.365 138.964 M252.865 145.871 L 252.865 157.888 254.753 157.732 C 258.345 157.434,258.413 157.181,258.289 144.531 C 258.185 133.927,258.159 133.854,254.440 133.854 L 252.865 133.854 252.865 145.871 M137.016 145.002 C 136.542 147.966,136.092 150.713,136.016 151.107 L 135.877 151.823 137.995 151.823 C 140.059 151.823,140.111 151.808,139.978 151.237 C 139.903 150.915,139.444 148.212,138.958 145.230 C 138.471 142.249,138.029 139.766,137.976 139.712 C 137.922 139.658,137.490 142.038,137.016 145.002 M141.153 193.500 C 168.142 196.811,187.610 214.203,207.752 252.995 C 220.107 276.791,228.608 286.539,243.313 293.771 C 271.987 307.874,297.664 295.209,301.167 265.236 C 304.350 237.995,293.053 219.506,270.458 214.979 C 251.231 211.126,235.194 218.786,219.570 239.287 C 217.064 242.574,216.900 242.709,215.408 242.707 C 213.982 242.705,213.340 241.978,210.933 237.630 C 209.743 235.482,207.858 232.190,206.744 230.316 C 203.765 225.303,203.741 225.604,207.481 221.115 C 226.173 198.677,249.907 189.374,274.960 194.664 C 302.219 200.419,318.994 219.494,322.023 248.177 C 326.956 294.896,294.995 327.451,252.504 318.989 C 226.987 313.907,205.898 295.644,190.883 265.625 C 179.781 243.429,168.784 228.637,158.006 221.404 C 137.808 207.848,109.568 213.648,99.502 233.419 C 93.555 245.100,92.998 265.747,98.328 276.978 C 105.192 291.445,121.077 299.909,138.151 298.198 C 145.445 297.467,155.148 294.046,153.732 292.704 C 153.470 292.455,151.849 290.985,150.130 289.437 C 146.682 286.332,146.377 285.945,146.363 284.674 C 146.353 283.731,147.745 282.031,148.527 282.031 C 148.749 282.031,157.110 279.737,167.108 276.933 C 187.629 271.178,186.728 271.328,187.879 273.477 L 188.388 274.428 185.318 293.529 C 182.024 314.026,181.997 314.146,180.574 314.741 C 178.946 315.421,178.466 315.097,170.702 308.055 C 170.193 307.593,170.112 307.627,167.187 309.534 C 147.409 322.431,120.181 322.518,100.590 309.748 C 80.835 296.871,71.748 275.920,74.207 248.918 C 76.988 218.389,95.725 198.092,125.000 193.894 C 129.812 193.204,137.262 193.023,141.153 193.500 " stroke="none" fill="#cc8c2c" fill-rule="evenodd"></path><path id="path2" d="M230.065 45.443 C 230.065 50.599,230.100 52.745,230.143 50.212 C 230.185 47.679,230.185 43.460,230.143 40.837 C 230.100 38.214,230.066 40.286,230.065 45.443 M234.758 52.734 C 234.758 61.901,234.791 65.613,234.831 60.984 C 234.870 56.354,234.870 48.854,234.831 44.317 C 234.791 39.780,234.758 43.568,234.758 52.734 M260.800 52.734 C 260.800 61.901,260.832 65.613,260.872 60.984 C 260.912 56.354,260.912 48.854,260.872 44.317 C 260.832 39.780,260.800 43.568,260.800 52.734 M287.361 50.521 C 287.361 58.470,287.394 61.722,287.435 57.747 C 287.475 53.773,287.475 47.269,287.435 43.294 C 287.394 39.320,287.361 42.572,287.361 50.521 M162.846 43.880 C 162.847 44.883,162.894 45.261,162.950 44.721 C 163.007 44.180,163.006 43.360,162.948 42.898 C 162.891 42.436,162.845 42.878,162.846 43.880 M178.475 44.141 C 178.476 45.286,178.521 45.723,178.576 45.110 C 178.631 44.498,178.631 43.560,178.575 43.027 C 178.519 42.494,178.474 42.995,178.475 44.141 M145.415 45.833 C 145.415 47.767,145.456 48.558,145.506 47.591 C 145.556 46.624,145.556 45.042,145.506 44.076 C 145.456 43.109,145.415 43.900,145.415 45.833 M247.479 44.531 C 247.479 45.462,247.526 45.843,247.584 45.378 C 247.642 44.912,247.642 44.150,247.584 43.685 C 247.526 43.219,247.479 43.600,247.479 44.531 M210.534 52.865 C 210.534 57.806,210.569 59.827,210.612 57.357 C 210.654 54.886,210.654 50.843,210.612 48.372 C 210.569 45.902,210.534 47.923,210.534 52.865 M99.066 56.120 C 99.066 58.698,99.105 59.717,99.153 58.385 C 99.200 57.053,99.200 54.944,99.152 53.698 C 99.104 52.452,99.066 53.542,99.066 56.120 M269.731 54.616 C 270.199 54.674,270.902 54.673,271.294 54.613 C 271.685 54.554,271.302 54.506,270.443 54.508 C 269.583 54.509,269.263 54.558,269.731 54.616 M154.762 54.880 C 155.591 54.932,156.880 54.932,157.627 54.879 C 158.373 54.827,157.695 54.784,156.120 54.785 C 154.544 54.786,153.933 54.828,154.762 54.880 M302.799 54.879 C 303.551 54.932,304.782 54.932,305.534 54.879 C 306.286 54.827,305.671 54.784,304.167 54.784 C 302.663 54.784,302.048 54.827,302.799 54.879 M42.574 85.286 C 42.574 102.044,42.605 108.861,42.643 100.436 C 42.681 92.010,42.681 78.299,42.643 69.967 C 42.605 61.635,42.574 68.529,42.574 85.286 M274.055 59.635 C 274.055 61.139,274.098 61.755,274.150 61.003 C 274.203 60.251,274.203 59.020,274.150 58.268 C 274.098 57.516,274.055 58.132,274.055 59.635 M168.065 60.417 C 168.065 61.921,168.108 62.536,168.161 61.784 C 168.213 61.032,168.213 59.801,168.161 59.049 C 168.108 58.298,168.065 58.913,168.065 60.417 M187.565 58.263 C 188.102 58.319,188.981 58.319,189.518 58.263 C 190.055 58.206,189.616 58.160,188.542 58.160 C 187.467 58.160,187.028 58.206,187.565 58.263 M252.950 61.328 C 252.951 62.331,252.998 62.709,253.055 62.169 C 253.111 61.628,253.110 60.808,253.053 60.346 C 252.995 59.883,252.949 60.326,252.950 61.328 M173.248 61.719 C 173.248 62.363,173.299 62.627,173.361 62.305 C 173.423 61.982,173.423 61.455,173.361 61.133 C 173.299 60.811,173.248 61.074,173.248 61.719 M168.945 82.744 C 169.697 82.797,170.928 82.797,171.680 82.744 C 172.432 82.691,171.816 82.648,170.313 82.648 C 168.809 82.648,168.193 82.691,168.945 82.744 M179.029 82.869 C 178.958 83.054,178.932 87.307,178.971 92.319 L 179.043 101.432 179.105 92.122 L 179.167 82.813 181.378 82.813 L 183.590 82.813 183.660 99.414 L 183.730 116.016 183.727 99.349 L 183.724 82.682 181.441 82.607 C 179.757 82.551,179.124 82.620,179.029 82.869 M206.834 82.742 L 209.631 82.830 209.702 95.907 L 209.773 108.984 209.769 95.833 L 209.766 82.682 206.901 82.668 L 204.036 82.653 206.834 82.742 M216.610 82.744 C 217.367 82.797,218.539 82.797,219.214 82.743 C 219.890 82.690,219.271 82.647,217.839 82.647 C 216.406 82.648,215.854 82.692,216.610 82.744 M222.776 82.878 C 222.707 83.057,222.683 90.586,222.721 99.609 L 222.790 116.016 222.854 99.422 L 222.917 82.829 226.107 82.747 L 229.297 82.665 226.099 82.608 C 223.737 82.567,222.868 82.637,222.776 82.878 M237.814 82.745 C 238.775 82.795,240.415 82.795,241.460 82.746 C 242.505 82.696,241.719 82.655,239.714 82.655 C 237.708 82.654,236.854 82.695,237.814 82.745 M245.693 82.878 C 245.624 83.057,245.599 90.586,245.638 99.609 L 245.707 116.016 245.770 99.420 L 245.833 82.825 250.456 82.747 L 255.078 82.669 250.448 82.611 C 246.939 82.566,245.787 82.631,245.693 82.878 M266.748 82.747 C 268.869 82.791,272.268 82.791,274.300 82.747 C 276.332 82.703,274.596 82.667,270.443 82.667 C 266.289 82.667,264.626 82.703,266.748 82.747 M281.185 82.744 C 281.937 82.797,283.167 82.797,283.919 82.744 C 284.671 82.691,284.056 82.648,282.552 82.648 C 281.048 82.648,280.433 82.691,281.185 82.744 M308.668 82.745 C 309.497 82.797,310.786 82.796,311.533 82.744 C 312.280 82.691,311.602 82.649,310.026 82.649 C 308.451 82.650,307.840 82.693,308.668 82.745 M319.857 82.743 C 320.537 82.797,321.650 82.797,322.331 82.743 C 323.011 82.690,322.454 82.646,321.094 82.646 C 319.733 82.646,319.176 82.690,319.857 82.743 M267.569 101.693 C 267.569 109.570,267.603 112.831,267.643 108.938 C 267.684 105.045,267.684 98.600,267.643 94.615 C 267.603 90.630,267.570 93.815,267.569 101.693 M273.299 101.693 C 273.299 109.570,273.332 112.831,273.372 108.938 C 273.413 105.045,273.413 98.600,273.372 94.615 C 273.332 90.630,273.299 93.815,273.299 101.693 M256.096 93.750 C 256.096 96.113,256.135 97.080,256.183 95.898 C 256.232 94.717,256.232 92.783,256.183 91.602 C 256.135 90.420,256.096 91.387,256.096 93.750 M153.764 99.349 C 153.764 104.648,153.798 106.779,153.841 104.085 C 153.883 101.390,153.883 97.054,153.841 94.449 C 153.798 91.845,153.764 94.049,153.764 99.349 M304.804 99.219 C 304.804 104.017,304.839 105.980,304.882 103.581 C 304.925 101.182,304.925 97.256,304.882 94.857 C 304.839 92.458,304.804 94.421,304.804 99.219 M197.860 92.640 C 198.617 92.693,199.789 92.692,200.464 92.639 C 201.140 92.586,200.521 92.542,199.089 92.543 C 197.656 92.544,197.104 92.587,197.860 92.640 M237.986 94.987 C 237.934 95.238,237.951 100.072,238.025 105.729 L 238.160 116.016 238.221 105.273 C 238.277 95.322,238.241 93.769,237.986 94.987 M227.344 105.339 C 227.344 111.187,227.400 115.916,227.469 115.847 C 227.643 115.673,227.659 95.020,227.485 94.846 C 227.407 94.769,227.344 99.490,227.344 105.339 M172.254 105.729 C 172.254 111.387,172.288 113.701,172.330 110.872 C 172.372 108.044,172.372 103.415,172.330 100.586 C 172.288 97.757,172.254 100.072,172.254 105.729 M63.658 107.292 C 63.658 111.947,63.693 113.851,63.737 111.523 C 63.780 109.196,63.780 105.387,63.737 103.060 C 63.693 100.732,63.658 102.637,63.658 107.292 M187.183 104.359 C 187.940 104.412,189.112 104.411,189.787 104.358 C 190.463 104.304,189.844 104.261,188.411 104.262 C 186.979 104.262,186.426 104.306,187.183 104.359 M235.875 128.830 C 236.199 128.892,236.668 128.890,236.917 128.825 C 237.166 128.760,236.901 128.709,236.328 128.712 C 235.755 128.714,235.551 128.768,235.875 128.830 M292.907 128.830 C 293.231 128.892,293.699 128.890,293.948 128.825 C 294.197 128.760,293.932 128.709,293.359 128.712 C 292.786 128.714,292.583 128.768,292.907 128.830 M335.355 128.830 C 335.679 128.892,336.147 128.890,336.396 128.825 C 336.645 128.760,336.380 128.709,335.807 128.712 C 335.234 128.714,335.031 128.768,335.355 128.830 M165.487 145.703 C 165.487 154.870,165.520 158.582,165.560 153.952 C 165.600 149.323,165.600 141.823,165.560 137.286 C 165.520 132.749,165.487 136.536,165.487 145.703 M191.529 145.703 C 191.529 154.870,191.562 158.582,191.601 153.952 C 191.641 149.323,191.641 141.823,191.601 137.286 C 191.562 132.749,191.529 136.536,191.529 145.703 M271.996 142.188 C 271.996 149.421,272.029 152.380,272.070 148.763 C 272.111 145.146,272.111 139.229,272.070 135.612 C 272.029 131.995,271.996 134.954,271.996 142.188 M302.436 131.380 C 302.435 132.669,302.479 133.229,302.534 132.625 C 302.589 132.021,302.589 130.966,302.535 130.281 C 302.482 129.597,302.437 130.091,302.436 131.380 M324.862 145.703 C 324.862 154.870,324.895 158.582,324.935 153.952 C 324.975 149.323,324.975 141.823,324.935 137.286 C 324.895 132.749,324.862 136.536,324.862 145.703 M358.014 138.306 C 357.975 143.333,358.031 147.500,358.138 147.566 C 358.245 147.633,358.333 143.520,358.333 138.427 C 358.333 133.334,358.278 129.167,358.210 129.167 C 358.142 129.167,358.054 133.279,358.014 138.306 M362.883 145.703 C 362.883 154.870,362.916 158.582,362.956 153.952 C 362.995 149.323,362.995 141.823,362.956 137.286 C 362.916 132.749,362.883 136.536,362.883 145.703 M173.558 145.833 C 173.558 152.493,173.591 155.218,173.633 151.888 C 173.674 148.558,173.674 143.109,173.633 139.779 C 173.591 136.449,173.558 139.173,173.558 145.833 M233.451 145.833 C 233.451 151.061,233.486 153.200,233.528 150.586 C 233.571 147.972,233.571 143.695,233.528 141.081 C 233.486 138.467,233.451 140.605,233.451 145.833 M332.930 145.703 C 332.930 150.859,332.965 153.006,333.007 150.473 C 333.050 147.940,333.050 143.721,333.008 141.098 C 332.965 138.474,332.930 140.547,332.930 145.703 M179.023 145.703 C 179.024 150.716,179.059 152.730,179.101 150.179 C 179.144 147.627,179.144 143.525,179.101 141.064 C 179.058 138.602,179.023 140.690,179.023 145.703 M263.919 145.703 C 263.919 150.716,263.954 152.730,263.997 150.179 C 264.040 147.627,264.040 143.525,263.997 141.064 C 263.954 138.602,263.919 140.690,263.919 145.703 M285.012 145.703 C 285.012 150.286,285.048 152.125,285.091 149.788 C 285.134 147.452,285.134 143.702,285.091 141.455 C 285.047 139.208,285.012 141.120,285.012 145.703 M351.302 152.083 C 351.302 157.717,351.358 162.270,351.427 162.202 C 351.601 162.027,351.618 142.156,351.444 141.982 C 351.366 141.904,351.302 146.450,351.302 152.083 M153.906 152.214 C 153.906 157.776,153.962 162.270,154.031 162.202 C 154.205 162.028,154.223 142.417,154.049 142.243 C 153.970 142.165,153.906 146.651,153.906 152.214 M198.112 151.230 C 198.577 151.288,199.339 151.288,199.805 151.230 C 200.270 151.172,199.889 151.125,198.958 151.125 C 198.027 151.125,197.646 151.172,198.112 151.230 M322.196 252.604 C 322.196 253.105,322.249 253.311,322.315 253.060 C 322.380 252.809,322.380 252.399,322.315 252.148 C 322.249 251.898,322.196 252.103,322.196 252.604 M301.628 254.557 C 301.631 255.130,301.684 255.334,301.747 255.010 C 301.809 254.686,301.807 254.217,301.741 253.968 C 301.676 253.719,301.625 253.984,301.628 254.557 M301.628 259.505 C 301.631 260.078,301.684 260.282,301.747 259.958 C 301.809 259.634,301.807 259.165,301.741 258.916 C 301.676 258.667,301.625 258.932,301.628 259.505 M263.607 299.659 C 263.857 299.724,264.268 299.724,264.518 299.659 C 264.769 299.593,264.564 299.540,264.063 299.540 C 263.561 299.540,263.356 299.593,263.607 299.659 M266.605 299.663 C 266.929 299.726,267.397 299.723,267.646 299.658 C 267.895 299.593,267.630 299.542,267.057 299.545 C 266.484 299.548,266.281 299.601,266.605 299.663 M130.924 319.194 C 131.247 319.256,131.774 319.256,132.096 319.194 C 132.419 319.132,132.155 319.081,131.510 319.081 C 130.866 319.081,130.602 319.132,130.924 319.194 M135.091 319.194 C 135.413 319.256,135.941 319.256,136.263 319.194 C 136.585 319.132,136.322 319.081,135.677 319.081 C 135.033 319.081,134.769 319.132,135.091 319.194 " stroke="none" fill="#e5c48d" fill-rule="evenodd"></path><path id="path3" d="M80.658 35.344 C 81.121 35.402,81.941 35.403,82.481 35.346 C 83.021 35.290,82.643 35.243,81.641 35.242 C 80.638 35.241,80.196 35.287,80.658 35.344 M129.550 52.865 C 129.550 62.103,129.582 65.882,129.622 61.263 C 129.662 56.644,129.662 49.085,129.622 44.466 C 129.582 39.847,129.550 43.626,129.550 52.865 M255.071 52.865 C 255.071 62.103,255.103 65.882,255.143 61.263 C 255.183 56.644,255.183 49.085,255.143 44.466 C 255.103 39.847,255.071 43.626,255.071 52.865 M281.633 52.865 C 281.633 62.103,281.666 65.882,281.706 61.263 C 281.745 56.644,281.745 49.085,281.706 44.466 C 281.666 39.847,281.633 43.626,281.633 52.865 M309.208 38.542 C 309.208 39.902,309.252 40.459,309.306 39.779 C 309.360 39.098,309.360 37.985,309.306 37.305 C 309.252 36.624,309.208 37.181,309.208 38.542 M170.378 40.544 C 170.628 40.610,171.038 40.610,171.289 40.544 C 171.540 40.479,171.335 40.425,170.833 40.425 C 170.332 40.425,170.127 40.479,170.378 40.544 M135.266 45.964 C 135.265 48.828,135.303 50.036,135.350 48.647 C 135.397 47.258,135.397 44.914,135.351 43.438 C 135.304 41.963,135.266 43.099,135.266 45.964 M173.288 44.271 L 173.307 46.224 175.847 46.239 L 178.387 46.254 175.923 46.164 L 173.460 46.075 173.364 44.196 L 173.268 42.318 173.288 44.271 M252.653 44.327 L 252.604 46.075 250.065 46.160 L 247.526 46.245 250.073 46.300 C 252.995 46.362,252.940 46.407,252.798 44.111 L 252.703 42.578 252.653 44.327 M139.683 45.964 C 139.683 47.682,139.725 48.352,139.776 47.451 C 139.827 46.550,139.827 45.144,139.775 44.326 C 139.724 43.508,139.682 44.245,139.683 45.964 M172.396 49.870 C 174.182 51.660,175.702 53.125,175.773 53.125 C 175.845 53.125,174.442 51.660,172.656 49.870 C 170.870 48.079,169.350 46.615,169.279 46.615 C 169.207 46.615,170.610 48.079,172.396 49.870 M99.019 50.781 C 99.019 51.283,99.072 51.488,99.138 51.237 C 99.203 50.986,99.203 50.576,99.138 50.326 C 99.072 50.075,99.019 50.280,99.019 50.781 M269.596 50.187 C 269.990 50.246,270.635 50.246,271.029 50.187 C 271.423 50.127,271.100 50.078,270.313 50.078 C 269.525 50.078,269.202 50.127,269.596 50.187 M32.930 50.590 C 32.861 50.771,32.835 54.023,32.874 57.817 L 32.943 64.714 33.073 57.487 C 33.145 53.512,33.170 50.260,33.130 50.260 C 33.090 50.260,33.000 50.409,32.930 50.590 M158.947 52.474 C 158.946 53.763,158.990 54.323,159.044 53.719 C 159.099 53.114,159.100 52.060,159.046 51.375 C 158.992 50.690,158.947 51.185,158.947 52.474 M168.359 54.167 C 170.074 55.885,171.535 57.292,171.606 57.292 C 171.678 57.292,170.334 55.885,168.620 54.167 C 166.906 52.448,165.444 51.042,165.373 51.042 C 165.301 51.042,166.645 52.448,168.359 54.167 M76.101 56.831 L 76.042 62.230 69.857 62.305 L 63.672 62.380 69.865 62.440 C 74.696 62.487,76.086 62.427,76.186 62.167 C 76.256 61.984,76.279 59.494,76.237 56.633 L 76.160 51.432 76.101 56.831 M187.305 53.832 C 187.699 53.892,188.343 53.892,188.737 53.832 C 189.131 53.773,188.809 53.724,188.021 53.724 C 187.233 53.724,186.911 53.773,187.305 53.832 M135.271 62.109 C 135.271 66.263,135.307 67.926,135.351 65.804 C 135.395 63.683,135.395 60.285,135.351 58.252 C 135.307 56.220,135.271 57.956,135.271 62.109 M39.315 58.268 L 37.630 60.026 39.388 58.341 C 40.355 57.414,41.146 56.623,41.146 56.583 C 41.146 56.391,40.881 56.635,39.315 58.268 M236.815 60.417 C 236.815 61.921,236.858 62.536,236.911 61.784 C 236.963 61.032,236.963 59.801,236.911 59.049 C 236.858 58.298,236.815 58.913,236.815 60.417 M99.024 61.589 C 99.027 62.161,99.080 62.365,99.143 62.041 C 99.205 61.717,99.202 61.249,99.137 61.000 C 99.072 60.751,99.021 61.016,99.024 61.589 M309.208 67.188 C 309.208 68.548,309.252 69.105,309.306 68.424 C 309.360 67.744,309.360 66.631,309.306 65.951 C 309.252 65.270,309.208 65.827,309.208 67.188 M170.250 69.976 C 170.574 70.038,171.043 70.036,171.292 69.971 C 171.541 69.905,171.276 69.854,170.703 69.857 C 170.130 69.860,169.926 69.914,170.250 69.976 M207.230 69.976 C 207.554 70.038,208.022 70.036,208.271 69.971 C 208.520 69.905,208.255 69.854,207.682 69.857 C 207.109 69.860,206.906 69.914,207.230 69.976 M244.469 69.976 C 244.793 70.038,245.262 70.036,245.511 69.971 C 245.760 69.905,245.495 69.854,244.922 69.857 C 244.349 69.860,244.145 69.914,244.469 69.976 M80.194 73.112 L 79.297 74.089 80.273 73.191 C 80.811 72.698,81.250 72.258,81.250 72.215 C 81.250 72.016,81.030 72.203,80.194 73.112 M76.028 77.539 L 75.130 78.516 76.107 77.618 C 76.644 77.125,77.083 76.685,77.083 76.642 C 77.083 76.443,76.863 76.630,76.028 77.539 M90.351 80.143 L 89.453 81.120 90.430 80.222 C 90.967 79.729,91.406 79.289,91.406 79.246 C 91.406 79.047,91.186 79.234,90.351 80.143 M204.027 95.833 C 204.027 103.066,204.061 106.025,204.101 102.409 C 204.142 98.792,204.142 92.874,204.101 89.258 C 204.061 85.641,204.027 88.600,204.027 95.833 M220.433 95.703 C 220.433 102.865,220.467 105.757,220.508 102.130 C 220.549 98.504,220.548 92.644,220.508 89.109 C 220.467 85.575,220.433 88.542,220.433 95.703 M243.292 99.274 L 243.229 115.867 240.690 115.952 L 238.151 116.037 240.698 116.091 C 242.538 116.131,243.280 116.055,243.370 115.820 C 243.438 115.641,243.463 108.112,243.425 99.089 L 243.355 82.682 243.292 99.274 M307.159 99.479 L 307.161 116.016 309.505 116.030 L 311.849 116.045 309.572 115.955 L 307.296 115.866 307.226 99.404 L 307.156 82.943 307.159 99.479 M85.938 84.766 C 85.305 85.410,84.846 85.938,84.918 85.938 C 84.989 85.938,85.565 85.410,86.198 84.766 C 86.830 84.121,87.289 83.594,87.218 83.594 C 87.146 83.594,86.570 84.121,85.938 84.766 M251.419 87.570 C 251.349 87.752,251.326 90.711,251.367 94.146 L 251.442 100.391 251.502 93.960 L 251.563 87.529 252.799 87.431 L 254.036 87.333 252.791 87.287 C 251.988 87.256,251.501 87.357,251.419 87.570 M264.135 87.431 C 264.820 87.485,265.875 87.484,266.479 87.430 C 267.084 87.375,266.523 87.331,265.234 87.332 C 263.945 87.333,263.451 87.377,264.135 87.431 M274.552 87.431 C 275.237 87.485,276.291 87.484,276.896 87.430 C 277.500 87.375,276.940 87.331,275.651 87.332 C 274.362 87.333,273.867 87.377,274.552 87.431 M81.364 89.648 L 80.599 90.495 81.445 89.730 C 82.234 89.017,82.411 88.802,82.210 88.802 C 82.165 88.802,81.785 89.183,81.364 89.648 M191.212 89.974 C 191.214 90.547,191.268 90.751,191.330 90.427 C 191.392 90.103,191.390 89.634,191.325 89.385 C 191.260 89.136,191.209 89.401,191.212 89.974 M299.076 99.349 C 299.076 104.648,299.111 106.779,299.153 104.085 C 299.196 101.390,299.196 97.054,299.153 94.449 C 299.111 91.845,299.076 94.049,299.076 99.349 M129.545 99.349 C 129.545 104.505,129.579 106.651,129.622 104.118 C 129.665 101.585,129.665 97.367,129.622 94.743 C 129.580 92.120,129.545 94.193,129.545 99.349 M135.274 99.349 C 135.274 104.505,135.308 106.651,135.351 104.118 C 135.394 101.585,135.394 97.367,135.351 94.743 C 135.309 92.120,135.274 94.193,135.274 99.349 M148.033 99.219 C 148.033 103.874,148.068 105.778,148.112 103.451 C 148.155 101.123,148.155 97.314,148.112 94.987 C 148.068 92.660,148.033 94.564,148.033 99.219 M195.443 96.354 C 197.301 98.216,198.879 99.740,198.951 99.740 C 199.022 99.740,197.561 98.216,195.703 96.354 C 193.845 94.492,192.267 92.969,192.195 92.969 C 192.123 92.969,193.585 94.492,195.443 96.354 M141.862 94.723 C 142.614 94.776,143.844 94.776,144.596 94.723 C 145.348 94.671,144.733 94.628,143.229 94.628 C 141.725 94.628,141.110 94.671,141.862 94.723 M191.406 100.651 C 193.192 102.441,194.712 103.906,194.784 103.906 C 194.855 103.906,193.453 102.441,191.667 100.651 C 189.881 98.861,188.361 97.396,188.289 97.396 C 188.217 97.396,189.620 98.861,191.406 100.651 M141.862 102.275 C 142.614 102.328,143.844 102.328,144.596 102.275 C 145.348 102.223,144.733 102.180,143.229 102.180 C 141.725 102.180,141.110 102.223,141.862 102.275 M185.774 107.161 C 185.775 108.737,185.818 109.348,185.870 108.519 C 185.922 107.690,185.921 106.401,185.869 105.655 C 185.816 104.908,185.774 105.586,185.774 107.161 M251.362 110.213 L 251.302 115.868 248.503 115.952 L 245.703 116.035 248.511 116.091 C 251.909 116.157,251.592 116.802,251.497 110.019 L 251.421 104.557 251.362 110.213 M201.912 107.682 C 201.913 108.828,201.959 109.264,202.014 108.652 C 202.069 108.039,202.068 107.102,202.012 106.569 C 201.956 106.035,201.911 106.536,201.912 107.682 M45.883 115.819 C 47.701 115.864,50.748 115.864,52.654 115.820 C 54.560 115.775,53.073 115.739,49.349 115.738 C 45.625 115.738,44.065 115.775,45.883 115.819 M72.480 115.820 C 77.324 115.860,85.176 115.860,89.928 115.820 C 94.680 115.780,90.716 115.748,81.120 115.748 C 71.523 115.748,67.635 115.781,72.480 115.820 M318.460 115.961 C 318.573 116.074,319.769 116.132,321.117 116.089 L 323.568 116.012 320.910 115.884 C 319.449 115.813,318.346 115.848,318.460 115.961 M168.555 116.077 C 169.235 116.130,170.348 116.130,171.029 116.077 C 171.709 116.023,171.152 115.979,169.792 115.979 C 168.431 115.979,167.874 116.023,168.555 116.077 M180.013 116.077 C 180.693 116.130,181.807 116.130,182.487 116.077 C 183.167 116.023,182.611 115.979,181.250 115.979 C 179.889 115.979,179.333 116.023,180.013 116.077 M224.031 116.077 C 224.716 116.131,225.771 116.130,226.375 116.076 C 226.979 116.021,226.419 115.977,225.130 115.978 C 223.841 115.979,223.347 116.023,224.031 116.077 M232.357 116.072 C 232.751 116.132,233.395 116.132,233.789 116.072 C 234.183 116.012,233.861 115.963,233.073 115.963 C 232.285 115.963,231.963 116.012,232.357 116.072 M269.085 116.078 C 269.914 116.130,271.203 116.130,271.950 116.077 C 272.696 116.025,272.018 115.982,270.443 115.983 C 268.867 115.983,268.256 116.026,269.085 116.078 M281.055 116.078 C 281.878 116.130,283.226 116.130,284.049 116.078 C 284.873 116.026,284.199 115.984,282.552 115.984 C 280.905 115.984,280.231 116.026,281.055 116.078 M167.831 145.833 C 167.831 155.072,167.864 158.851,167.904 154.232 C 167.943 149.613,167.943 142.054,167.904 137.435 C 167.864 132.816,167.831 136.595,167.831 145.833 M266.266 141.797 C 266.266 148.815,266.300 151.649,266.341 148.094 C 266.382 144.539,266.382 138.797,266.341 135.333 C 266.300 131.870,266.266 134.779,266.266 141.797 M282.673 142.318 C 282.673 149.622,282.706 152.648,282.747 149.042 C 282.788 145.435,282.788 139.459,282.747 135.760 C 282.706 132.062,282.673 135.013,282.673 142.318 M319.133 145.833 C 319.133 155.072,319.166 158.851,319.206 154.232 C 319.245 149.613,319.245 142.054,319.206 137.435 C 319.166 132.816,319.133 136.595,319.133 145.833 M197.259 140.299 L 197.266 146.745 198.307 146.767 L 199.349 146.789 198.377 146.687 L 197.405 146.585 197.328 140.219 L 197.252 133.854 197.259 140.299 M290.743 145.833 C 290.743 151.061,290.777 153.200,290.820 150.586 C 290.862 147.972,290.862 143.695,290.820 141.081 C 290.777 138.467,290.743 140.605,290.743 145.833 M227.721 145.833 C 227.721 150.488,227.756 152.393,227.799 150.065 C 227.842 147.738,227.842 143.929,227.799 141.602 C 227.756 139.274,227.721 141.178,227.721 145.833 M197.246 156.901 C 197.247 160.052,197.284 161.305,197.330 159.686 C 197.376 158.067,197.376 155.489,197.330 153.957 C 197.284 152.425,197.246 153.750,197.246 156.901 M136.523 156.442 C 137.347 156.494,138.695 156.494,139.518 156.442 C 140.342 156.391,139.668 156.348,138.021 156.348 C 136.374 156.348,135.700 156.391,136.523 156.442 M213.537 214.518 L 210.807 217.318 213.607 214.588 C 215.146 213.087,216.406 211.827,216.406 211.789 C 216.406 211.600,216.072 211.918,213.537 214.518 M105.460 224.935 L 104.036 226.432 105.534 225.009 C 106.925 223.687,107.151 223.438,106.957 223.438 C 106.917 223.438,106.243 224.111,105.460 224.935 M165.875 227.930 C 166.513 228.610,167.070 229.167,167.112 229.167 C 167.307 229.167,167.100 228.933,165.951 227.854 L 164.714 226.693 165.875 227.930 M94.631 257.161 C 94.631 258.880,94.673 259.549,94.724 258.649 C 94.775 257.748,94.775 256.342,94.723 255.524 C 94.672 254.706,94.630 255.443,94.631 257.161 M301.646 257.031 C 301.646 257.962,301.693 258.343,301.751 257.878 C 301.809 257.412,301.809 256.650,301.751 256.185 C 301.693 255.719,301.646 256.100,301.646 257.031 M105.339 287.240 C 106.044 287.956,106.680 288.542,106.751 288.542 C 106.823 288.542,106.304 287.956,105.599 287.240 C 104.894 286.523,104.258 285.938,104.186 285.938 C 104.115 285.938,104.633 286.523,105.339 287.240 M290.485 289.648 L 289.193 291.016 290.560 289.723 C 291.312 289.013,291.927 288.397,291.927 288.356 C 291.927 288.162,291.686 288.378,290.485 289.648 M212.500 297.005 C 213.423 297.936,214.236 298.698,214.308 298.698 C 214.379 298.698,213.683 297.936,212.760 297.005 C 211.838 296.074,211.024 295.313,210.953 295.313 C 210.881 295.313,211.577 296.074,212.500 297.005 M304.948 304.297 C 303.881 305.371,303.066 306.250,303.138 306.250 C 303.210 306.250,304.141 305.371,305.208 304.297 C 306.275 303.223,307.090 302.344,307.018 302.344 C 306.947 302.344,306.015 303.223,304.948 304.297 " stroke="none" fill="#dca259" fill-rule="evenodd"></path><path id="path4" d="M47.996 36.392 C 49.543 36.439,52.004 36.438,53.465 36.392 C 54.925 36.346,53.659 36.308,50.651 36.308 C 47.643 36.308,46.448 36.346,47.996 36.392 M147.784 52.865 L 147.786 69.401 154.427 69.401 L 161.068 69.401 161.083 67.188 L 161.098 64.974 161.008 67.122 L 160.917 69.271 154.419 69.271 L 147.921 69.271 147.851 52.799 L 147.781 36.328 147.784 52.865 M160.990 38.339 L 160.938 40.611 157.096 40.691 L 153.255 40.770 157.105 40.828 C 161.549 40.894,161.260 41.088,161.132 38.128 L 161.042 36.068 160.990 38.339 M181.117 52.865 L 181.120 69.401 183.854 69.414 L 186.589 69.427 183.921 69.340 L 181.254 69.253 181.184 52.791 L 181.114 36.328 181.117 52.865 M218.617 52.865 L 218.620 69.401 220.964 69.401 L 223.307 69.401 223.438 59.310 C 223.509 53.760,223.480 49.219,223.372 49.219 C 223.265 49.219,223.177 53.730,223.177 59.245 L 223.177 69.271 220.965 69.271 L 218.754 69.271 218.684 52.799 L 218.614 36.328 218.617 52.865 M135.875 40.809 C 136.199 40.871,136.668 40.869,136.917 40.804 C 137.166 40.739,136.901 40.688,136.328 40.691 C 135.755 40.694,135.551 40.747,135.875 40.809 M187.308 40.812 C 187.704 40.872,188.290 40.870,188.610 40.808 C 188.931 40.747,188.607 40.698,187.891 40.699 C 187.174 40.701,186.912 40.752,187.308 40.812 M268.865 40.960 C 268.795 41.144,268.772 43.283,268.815 45.713 L 268.894 50.130 268.952 45.523 L 269.010 40.915 270.117 40.816 L 271.224 40.716 270.109 40.670 C 269.405 40.642,268.947 40.748,268.865 40.960 M301.418 40.960 C 301.347 41.144,301.324 43.341,301.367 45.842 L 301.445 50.391 301.504 45.645 L 301.563 40.899 305.404 40.820 L 309.245 40.740 305.395 40.683 C 302.458 40.639,301.516 40.704,301.418 40.960 M278.745 45.182 C 278.746 46.901,278.788 47.570,278.839 46.669 C 278.890 45.769,278.889 44.362,278.838 43.544 C 278.786 42.727,278.745 43.464,278.745 45.182 M196.983 47.135 C 196.983 49.785,197.022 50.869,197.069 49.544 C 197.116 48.219,197.116 46.051,197.069 44.727 C 197.022 43.402,196.983 44.486,196.983 47.135 M168.029 43.490 C 168.029 43.991,168.083 44.196,168.148 43.945 C 168.214 43.695,168.214 43.285,168.148 43.034 C 168.083 42.783,168.029 42.988,168.029 43.490 M204.805 52.865 C 204.805 58.236,204.840 60.433,204.882 57.747 C 204.925 55.062,204.925 50.667,204.882 47.982 C 204.840 45.296,204.805 47.493,204.805 52.865 M273.525 45.573 C 273.525 46.647,273.571 47.087,273.627 46.549 C 273.683 46.012,273.683 45.133,273.627 44.596 C 273.571 44.059,273.525 44.499,273.525 45.573 M244.922 48.438 C 245.772 49.297,246.527 50.000,246.598 50.000 C 246.670 50.000,246.033 49.297,245.182 48.438 C 244.332 47.578,243.578 46.875,243.506 46.875 C 243.434 46.875,244.071 47.578,244.922 48.438 M306.863 52.474 C 306.862 53.763,306.907 54.323,306.961 53.719 C 307.016 53.114,307.016 52.060,306.963 51.375 C 306.909 50.690,306.864 51.185,306.863 52.474 M135.872 51.225 C 136.195 51.288,136.722 51.288,137.044 51.225 C 137.367 51.163,137.103 51.113,136.458 51.113 C 135.814 51.113,135.550 51.163,135.872 51.225 M86.046 55.990 C 86.046 58.639,86.084 59.723,86.132 58.398 C 86.179 57.074,86.179 54.906,86.132 53.581 C 86.084 52.256,86.046 53.340,86.046 55.990 M63.912 56.901 C 63.913 59.909,63.950 61.104,63.997 59.556 C 64.043 58.009,64.042 55.548,63.996 54.087 C 63.950 52.627,63.912 53.893,63.912 56.901 M268.859 59.766 C 268.859 62.630,268.897 63.838,268.944 62.449 C 268.991 61.060,268.991 58.716,268.944 57.240 C 268.898 55.765,268.860 56.901,268.859 59.766 M301.411 59.896 C 301.411 62.689,301.449 63.831,301.496 62.435 C 301.543 61.038,301.543 58.753,301.496 57.357 C 301.449 55.960,301.411 57.103,301.411 59.896 M162.858 60.547 C 162.858 62.122,162.901 62.733,162.953 61.905 C 163.005 61.076,163.005 59.787,162.952 59.040 C 162.900 58.293,162.857 58.971,162.858 60.547 M36.572 61.003 L 35.807 61.849 36.654 61.084 C 37.443 60.371,37.620 60.156,37.419 60.156 C 37.374 60.156,36.993 60.537,36.572 61.003 M143.229 69.271 L 140.234 69.427 143.294 69.479 C 145.195 69.512,146.354 69.433,146.354 69.271 C 146.354 69.128,146.325 69.034,146.289 69.062 C 146.253 69.091,144.876 69.185,143.229 69.271 M131.064 69.464 C 131.893 69.515,133.182 69.515,133.929 69.462 C 134.676 69.410,133.997 69.368,132.422 69.368 C 130.846 69.369,130.235 69.412,131.064 69.464 M231.055 69.462 C 231.735 69.516,232.848 69.516,233.529 69.462 C 234.209 69.409,233.652 69.365,232.292 69.365 C 230.931 69.365,230.374 69.409,231.055 69.462 M256.585 69.464 C 257.414 69.515,258.703 69.515,259.450 69.462 C 260.196 69.410,259.518 69.368,257.943 69.368 C 256.367 69.369,255.756 69.412,256.585 69.464 M265.690 69.465 C 267.087 69.512,269.372 69.512,270.768 69.465 C 272.165 69.418,271.022 69.380,268.229 69.380 C 265.436 69.380,264.294 69.418,265.690 69.465 M284.846 69.465 C 286.608 69.511,289.421 69.510,291.096 69.465 C 292.770 69.420,291.328 69.383,287.891 69.383 C 284.453 69.383,283.083 69.420,284.846 69.465 M299.008 69.465 C 300.826 69.510,303.873 69.510,305.779 69.466 C 307.685 69.421,306.198 69.384,302.474 69.384 C 298.750 69.384,297.190 69.421,299.008 69.465 M167.571 99.349 C 167.571 108.516,167.603 112.228,167.643 107.598 C 167.683 102.969,167.683 95.469,167.643 90.932 C 167.603 86.395,167.571 90.182,167.571 99.349 M215.225 95.833 C 215.225 103.066,215.258 106.025,215.299 102.409 C 215.340 98.792,215.340 92.874,215.299 89.258 C 215.258 85.641,215.225 88.600,215.225 95.833 M279.810 99.349 C 279.810 108.516,279.843 112.228,279.883 107.598 C 279.923 102.969,279.923 95.469,279.883 90.932 C 279.843 86.395,279.810 90.182,279.810 99.349 M285.279 99.349 C 285.279 108.516,285.312 112.228,285.351 107.598 C 285.391 102.969,285.391 95.469,285.351 90.932 C 285.312 86.395,285.279 90.182,285.279 99.349 M196.440 90.755 C 196.441 91.758,196.488 92.136,196.544 91.596 C 196.601 91.055,196.600 90.235,196.542 89.773 C 196.485 89.311,196.438 89.753,196.440 90.755 M140.720 92.057 C 140.721 93.490,140.765 94.042,140.817 93.286 C 140.870 92.529,140.870 91.357,140.816 90.681 C 140.763 90.006,140.719 90.625,140.720 92.057 M159.493 99.349 C 159.493 104.648,159.528 106.779,159.570 104.085 C 159.612 101.390,159.612 97.054,159.570 94.449 C 159.527 91.845,159.493 94.049,159.493 99.349 M287.877 99.219 C 287.877 104.017,287.912 105.980,287.955 103.581 C 287.998 101.182,287.998 97.256,287.955 94.857 C 287.912 92.458,287.877 94.421,287.877 99.219 M76.417 102.083 L 76.432 104.818 87.299 104.886 L 98.167 104.954 98.245 110.224 L 98.323 115.495 98.315 110.156 L 98.307 104.818 87.444 104.750 L 76.581 104.682 76.491 102.015 L 76.402 99.349 76.417 102.083 M252.018 100.444 C 252.340 100.506,252.868 100.506,253.190 100.444 C 253.512 100.382,253.249 100.331,252.604 100.331 C 251.960 100.331,251.696 100.382,252.018 100.444 M140.727 105.729 C 140.727 107.663,140.768 108.454,140.818 107.487 C 140.868 106.520,140.868 104.938,140.818 103.971 C 140.768 103.005,140.727 103.796,140.727 105.729 M190.978 106.641 C 190.977 107.930,191.021 108.490,191.076 107.885 C 191.130 107.281,191.131 106.226,191.077 105.542 C 191.023 104.857,190.979 105.352,190.978 106.641 M137.565 116.325 C 137.816 116.391,138.226 116.391,138.477 116.325 C 138.727 116.260,138.522 116.206,138.021 116.206 C 137.520 116.206,137.314 116.260,137.565 116.325 M156.055 116.325 C 156.305 116.391,156.715 116.391,156.966 116.325 C 157.217 116.260,157.012 116.206,156.510 116.206 C 156.009 116.206,155.804 116.260,156.055 116.325 M193.294 116.325 C 193.545 116.391,193.955 116.391,194.206 116.325 C 194.456 116.260,194.251 116.206,193.750 116.206 C 193.249 116.206,193.044 116.260,193.294 116.325 M212.044 116.325 C 212.295 116.391,212.705 116.391,212.956 116.325 C 213.206 116.260,213.001 116.206,212.500 116.206 C 211.999 116.206,211.794 116.260,212.044 116.325 M295.898 116.325 C 296.149 116.391,296.559 116.391,296.810 116.325 C 297.061 116.260,296.855 116.206,296.354 116.206 C 295.853 116.206,295.648 116.260,295.898 116.325 M149.346 145.833 L 149.349 162.370 151.563 162.385 L 153.776 162.400 151.630 162.310 L 149.483 162.219 149.413 145.758 L 149.343 129.297 149.346 145.833 M160.795 138.411 C 160.795 143.568,160.829 145.714,160.872 143.181 C 160.915 140.648,160.915 136.429,160.872 133.806 C 160.830 131.183,160.795 133.255,160.795 138.411 M209.763 145.833 L 209.766 162.370 212.500 162.370 L 215.234 162.370 215.365 154.988 C 215.436 150.928,215.407 147.552,215.299 147.486 C 215.192 147.419,215.104 150.712,215.104 154.802 L 215.104 162.240 212.502 162.240 L 209.900 162.240 209.830 145.768 L 209.760 129.297 209.763 145.833 M247.263 145.833 L 247.266 162.370 251.758 162.379 L 256.250 162.389 251.825 162.308 L 247.400 162.227 247.330 145.762 L 247.260 129.297 247.263 145.833 M277.465 142.318 C 277.465 149.622,277.498 152.648,277.539 149.042 C 277.580 145.435,277.580 139.459,277.539 135.760 C 277.498 132.062,277.465 135.013,277.465 142.318 M317.240 131.305 L 317.188 133.573 314.909 133.660 L 312.630 133.747 314.917 133.801 C 317.597 133.863,317.506 133.963,317.382 131.097 L 317.292 129.036 317.240 131.305 M346.742 145.833 L 346.745 162.370 348.958 162.385 L 351.172 162.400 349.025 162.310 L 346.879 162.219 346.809 145.758 L 346.739 129.297 346.742 145.833 M174.284 133.780 C 174.678 133.840,175.322 133.840,175.716 133.780 C 176.110 133.721,175.788 133.672,175.000 133.672 C 174.212 133.672,173.890 133.721,174.284 133.780 M197.985 133.781 C 198.381 133.840,198.967 133.839,199.287 133.777 C 199.608 133.715,199.284 133.666,198.568 133.668 C 197.852 133.670,197.590 133.721,197.985 133.781 M215.220 133.927 C 215.150 134.111,215.127 136.484,215.169 139.201 L 215.247 144.141 215.306 139.012 L 215.365 133.883 216.602 133.785 L 217.839 133.688 216.593 133.641 C 215.785 133.610,215.303 133.711,215.220 133.927 M253.585 133.782 C 254.053 133.840,254.757 133.839,255.148 133.780 C 255.539 133.720,255.156 133.673,254.297 133.674 C 253.438 133.676,253.117 133.725,253.585 133.782 M304.750 133.782 L 307.027 133.874 307.094 148.122 L 307.161 162.370 309.896 162.383 L 312.630 162.396 309.963 162.309 L 307.296 162.222 307.229 147.973 L 307.161 133.724 304.818 133.707 L 302.474 133.690 304.750 133.782 M201.929 140.234 C 201.929 142.669,201.968 143.700,202.016 142.526 C 202.065 141.351,202.065 139.359,202.017 138.099 C 201.969 136.838,201.930 137.799,201.929 140.234 M219.890 138.802 C 219.890 140.449,219.932 141.123,219.984 140.299 C 220.036 139.476,220.036 138.128,219.984 137.305 C 219.932 136.481,219.890 137.155,219.890 138.802 M296.209 138.476 L 296.224 141.016 298.698 141.030 L 301.172 141.044 298.772 140.955 L 296.373 140.867 296.283 138.402 L 296.194 135.936 296.209 138.476 M338.660 145.833 C 338.660 151.204,338.694 153.402,338.737 150.716 C 338.779 148.031,338.779 143.636,338.737 140.951 C 338.694 138.265,338.660 140.462,338.660 145.833 M239.180 145.833 C 239.180 151.061,239.215 153.200,239.257 150.586 C 239.300 147.972,239.300 143.695,239.257 141.081 C 239.215 138.467,239.180 140.605,239.180 145.833 M296.207 149.039 C 296.135 149.226,296.114 150.779,296.159 152.489 L 296.242 155.599 296.298 152.288 L 296.354 148.977 298.893 148.892 L 301.432 148.807 298.885 148.752 C 296.987 148.712,296.305 148.785,296.207 149.039 M220.542 162.314 C 220.655 162.426,222.027 162.484,223.590 162.443 L 226.432 162.367 223.384 162.238 C 221.708 162.167,220.429 162.201,220.542 162.314 M130.143 162.432 C 130.895 162.484,132.126 162.484,132.878 162.432 C 133.630 162.379,133.014 162.336,131.510 162.336 C 130.007 162.336,129.391 162.379,130.143 162.432 M143.294 162.432 C 144.118 162.484,145.465 162.484,146.289 162.432 C 147.113 162.380,146.439 162.338,144.792 162.338 C 143.145 162.338,142.471 162.380,143.294 162.432 M161.784 162.431 C 162.464 162.485,163.577 162.485,164.258 162.431 C 164.938 162.377,164.382 162.333,163.021 162.333 C 161.660 162.333,161.104 162.377,161.784 162.431 M170.104 162.433 C 171.350 162.481,173.459 162.481,174.792 162.434 C 176.124 162.386,175.104 162.347,172.526 162.347 C 169.948 162.347,168.858 162.386,170.104 162.433 M193.043 162.432 C 193.872 162.484,195.161 162.484,195.908 162.431 C 196.655 162.379,195.977 162.336,194.401 162.337 C 192.826 162.338,192.215 162.380,193.043 162.432 M320.648 162.432 C 321.476 162.484,322.765 162.484,323.512 162.431 C 324.259 162.379,323.581 162.336,322.005 162.337 C 320.430 162.338,319.819 162.380,320.648 162.432 M359.180 162.431 C 359.860 162.485,360.973 162.485,361.654 162.431 C 362.334 162.377,361.777 162.333,360.417 162.333 C 359.056 162.333,358.499 162.377,359.180 162.431 M132.227 193.413 C 132.549 193.475,133.076 193.475,133.398 193.413 C 133.721 193.351,133.457 193.300,132.813 193.300 C 132.168 193.300,131.904 193.351,132.227 193.413 M136.393 193.413 C 136.715 193.475,137.243 193.475,137.565 193.413 C 137.887 193.351,137.624 193.300,136.979 193.300 C 136.335 193.300,136.071 193.351,136.393 193.413 M305.078 210.417 C 305.638 210.990,306.154 211.458,306.225 211.458 C 306.297 211.458,305.898 210.990,305.339 210.417 C 304.779 209.844,304.263 209.375,304.191 209.375 C 304.120 209.375,304.519 209.844,305.078 210.417 M290.614 225.065 C 291.693 226.215,291.927 226.422,291.927 226.226 C 291.927 226.184,291.370 225.628,290.690 224.989 L 289.453 223.828 290.614 225.065 M228.116 229.102 L 226.693 230.599 228.190 229.176 C 229.581 227.853,229.807 227.604,229.613 227.604 C 229.573 227.604,228.899 228.278,228.116 229.102 M74.019 253.125 C 74.019 253.626,74.072 253.831,74.138 253.581 C 74.203 253.330,74.203 252.920,74.138 252.669 C 74.072 252.419,74.019 252.624,74.019 253.125 M322.213 254.688 C 322.213 255.475,322.262 255.798,322.322 255.404 C 322.382 255.010,322.382 254.365,322.322 253.971 C 322.262 253.577,322.213 253.900,322.213 254.688 M322.213 259.635 C 322.213 260.423,322.262 260.745,322.322 260.352 C 322.382 259.958,322.382 259.313,322.322 258.919 C 322.262 258.525,322.213 258.848,322.213 259.635 M74.019 261.198 C 74.019 261.699,74.072 261.904,74.138 261.654 C 74.203 261.403,74.203 260.993,74.138 260.742 C 74.072 260.492,74.019 260.697,74.019 261.198 M227.214 282.552 C 227.773 283.125,228.289 283.594,228.361 283.594 C 228.433 283.594,228.033 283.125,227.474 282.552 C 226.915 281.979,226.398 281.510,226.327 281.510 C 226.255 281.510,226.654 281.979,227.214 282.552 M132.754 298.629 C 133.367 298.684,134.304 298.683,134.838 298.627 C 135.371 298.571,134.870 298.526,133.724 298.527 C 132.578 298.528,132.142 298.574,132.754 298.629 M133.008 319.194 C 133.330 319.256,133.857 319.256,134.180 319.194 C 134.502 319.132,134.238 319.081,133.594 319.081 C 132.949 319.081,132.686 319.132,133.008 319.194 M263.090 320.239 C 263.485 320.299,264.071 320.297,264.392 320.235 C 264.712 320.174,264.388 320.125,263.672 320.127 C 262.956 320.129,262.694 320.179,263.090 320.239 M266.862 320.236 C 267.184 320.298,267.712 320.298,268.034 320.236 C 268.356 320.174,268.092 320.123,267.448 320.123 C 266.803 320.123,266.540 320.174,266.862 320.236 " stroke="none" fill="#eccca4" fill-rule="evenodd"></path></g></svg>