<svg id="svg" version="1.1" xmlns="http://www.w3.org/2000/svg" xmlns:xlink="http://www.w3.org/1999/xlink" width="400" height="400" viewBox="0, 0, 400,400"><g id="svgg"><path id="path0" d="M73.708 32.730 C 62.938 34.011,58.698 39.793,58.443 53.549 L 58.328 59.739 64.485 59.739 L 70.642 59.739 70.642 54.421 C 70.642 47.206,71.152 45.548,73.734 44.366 C 76.784 42.969,80.124 43.991,81.470 46.733 L 82.112 48.041 82.185 54.514 C 82.302 64.880,81.401 66.125,73.657 66.293 L 69.960 66.373 69.960 71.438 L 69.960 76.503 73.992 76.592 C 79.154 76.706,80.297 77.158,81.622 79.614 C 82.393 81.043,82.506 97.815,81.758 99.814 C 79.848 104.918,72.599 105.206,70.533 100.260 C 69.953 98.872,69.725 95.926,69.744 90.062 L 69.763 84.384 63.672 84.384 L 57.581 84.384 57.589 91.312 C 57.603 102.384,58.613 106.342,62.421 110.238 C 69.173 117.148,86.054 116.419,92.007 108.960 C 95.079 105.112,95.857 101.376,95.851 90.517 C 95.842 77.089,94.302 73.931,86.428 71.199 C 86.053 71.068,86.191 70.943,87.223 70.480 C 90.961 68.802,93.583 65.730,94.589 61.848 C 95.077 59.963,95.104 48.336,94.626 45.846 C 92.758 36.120,85.176 31.366,73.708 32.730 M134.015 33.185 C 131.253 33.656,129.288 35.199,128.281 37.688 C 127.495 39.631,127.360 59.559,128.118 61.809 C 129.325 65.392,131.748 67.007,135.915 67.007 C 141.742 67.007,143.544 64.793,143.726 57.411 L 143.831 53.152 141.308 53.152 L 138.785 53.152 138.785 56.680 C 138.785 61.506,138.330 62.465,136.039 62.465 C 133.212 62.465,133.106 62.020,133.106 50.097 C 133.106 37.959,133.167 37.706,136.111 37.706 C 138.189 37.706,138.785 38.793,138.785 42.582 L 138.785 45.202 141.311 45.202 L 143.837 45.202 143.724 41.738 C 143.591 37.675,143.275 36.537,141.877 35.096 C 140.300 33.471,137.016 32.673,134.015 33.185 M147.416 50.085 L 147.416 66.780 153.549 66.780 L 159.682 66.780 159.682 64.515 L 159.682 62.250 156.332 62.187 L 152.981 62.124 152.923 47.757 L 152.864 33.390 150.140 33.390 L 147.416 33.390 147.416 50.085 M162.862 50.085 L 162.862 66.780 165.588 66.780 L 168.313 66.780 168.313 50.085 L 168.313 33.390 165.588 33.390 L 162.862 33.390 162.862 50.085 M172.629 50.085 L 172.629 66.780 174.901 66.780 L 177.172 66.780 177.172 56.067 C 177.172 50.174,177.217 45.398,177.272 45.453 C 177.373 45.554,178.304 50.230,180.229 60.307 C 180.801 63.305,181.321 65.988,181.383 66.269 C 181.574 67.129,183.900 67.031,184.076 66.156 C 184.470 64.195,187.162 48.792,187.531 46.389 C 187.942 43.716,188.075 46.065,188.075 55.978 L 188.075 66.780 190.574 66.780 L 193.072 66.780 193.072 50.085 L 193.072 33.390 189.575 33.390 L 186.077 33.390 185.806 34.923 C 185.657 35.767,184.936 39.919,184.203 44.150 C 183.470 48.382,182.824 51.891,182.767 51.948 C 182.646 52.069,182.636 52.019,180.685 41.908 C 179.865 37.660,179.142 34.006,179.077 33.788 C 178.972 33.434,178.611 33.390,175.794 33.390 L 172.629 33.390 172.629 50.085 M202.073 34.242 C 201.994 34.710,201.572 36.985,201.134 39.296 C 200.697 41.607,200.089 44.827,199.784 46.451 C 199.479 48.075,198.509 53.223,197.628 57.892 C 196.746 62.560,196.025 66.470,196.025 66.580 C 196.025 66.690,197.185 66.780,198.604 66.780 L 201.183 66.780 201.567 64.338 C 201.779 62.995,202.007 61.616,202.073 61.272 L 202.194 60.647 205.209 60.647 L 208.224 60.647 208.492 62.294 C 208.639 63.200,208.869 64.580,209.003 65.361 L 209.246 66.780 212.090 66.780 L 214.935 66.780 214.787 66.042 C 214.706 65.636,213.304 58.251,211.672 49.631 C 210.040 41.011,208.666 33.830,208.619 33.674 C 208.555 33.465,207.703 33.390,205.374 33.390 L 202.216 33.390 202.073 34.242 M214.196 35.654 L 214.196 37.917 216.525 37.982 L 218.853 38.047 218.911 52.413 L 218.970 66.780 221.694 66.780 L 224.418 66.780 224.418 52.357 L 224.418 37.933 226.689 37.933 L 228.961 37.933 228.961 35.662 L 228.961 33.390 221.579 33.390 L 214.196 33.390 214.196 35.654 M232.368 50.085 L 232.368 66.780 238.955 66.780 L 245.542 66.780 245.542 64.509 L 245.542 62.237 241.681 62.237 L 237.819 62.237 237.819 57.127 L 237.819 52.016 240.545 52.016 L 243.271 52.016 243.271 49.744 L 243.271 47.473 240.545 47.473 L 237.819 47.473 237.819 42.703 L 237.819 37.933 241.681 37.933 L 245.542 37.933 245.542 35.662 L 245.542 33.390 238.955 33.390 L 232.368 33.390 232.368 50.085 M33.220 40.911 L 27.030 48.190 27.030 55.100 C 27.030 58.901,27.113 62.010,27.214 62.010 C 27.316 62.010,29.434 59.889,31.923 57.297 C 34.411 54.705,36.525 52.550,36.622 52.508 C 36.718 52.466,36.797 66.291,36.797 83.229 L 36.797 114.026 43.613 114.026 L 50.428 114.026 50.425 73.822 L 50.421 33.617 44.915 33.624 L 39.409 33.631 33.220 40.911 M206.359 49.410 C 207.582 56.914,207.672 56.333,205.288 56.328 C 202.678 56.323,202.783 56.878,204.006 49.517 C 204.598 45.957,205.089 43.001,205.097 42.949 C 205.172 42.441,205.478 44.007,206.359 49.410 M152.505 80.787 C 149.623 81.638,147.834 84.072,147.393 87.741 C 146.979 91.184,147.242 107.498,147.737 109.011 C 148.977 112.813,152.422 114.880,156.700 114.390 C 161.884 113.796,163.543 111.219,163.543 103.763 L 163.543 100.398 161.068 100.398 L 158.593 100.398 158.505 104.089 C 158.389 109.010,158.034 109.710,155.659 109.710 C 152.900 109.710,152.868 109.567,152.868 97.316 C 152.868 85.199,152.924 84.952,155.707 84.952 C 157.822 84.952,158.341 85.851,158.494 89.786 L 158.607 92.689 161.018 92.625 L 163.430 92.561 163.418 89.381 C 163.402 85.259,163.032 83.966,161.396 82.327 C 159.583 80.512,155.711 79.841,152.505 80.787 M198.161 80.773 C 193.562 82.186,192.847 84.414,192.848 97.331 C 192.849 110.165,193.432 112.124,197.756 113.811 C 203.253 115.956,208.773 112.998,209.646 107.439 C 209.947 105.518,209.947 89.356,209.646 87.499 C 208.734 81.882,203.854 79.024,198.161 80.773 M132.792 81.261 C 132.724 81.604,132.250 84.134,131.739 86.882 C 131.227 89.631,130.514 93.413,130.153 95.287 C 129.793 97.161,129.079 100.943,128.566 103.691 C 128.054 106.440,127.398 109.889,127.108 111.357 L 126.582 114.026 129.228 114.026 L 131.874 114.026 132.295 111.205 C 132.837 107.573,132.507 107.868,135.957 107.943 L 138.886 108.007 139.389 110.960 C 139.666 112.584,139.899 113.938,139.906 113.969 C 139.914 114.001,141.184 114.026,142.728 114.026 L 145.536 114.026 145.431 113.401 C 145.374 113.058,144.935 110.733,144.456 108.234 C 143.978 105.735,143.122 101.238,142.554 98.240 C 141.987 95.241,141.009 90.103,140.381 86.822 C 139.753 83.541,139.239 80.806,139.239 80.746 C 139.239 80.685,137.816 80.636,136.077 80.636 L 132.915 80.636 132.792 81.261 M165.588 82.907 L 165.588 85.179 167.859 85.179 L 170.131 85.179 170.131 99.602 L 170.131 114.026 172.970 114.026 L 175.809 114.026 175.809 99.602 L 175.809 85.179 178.081 85.179 L 180.352 85.179 180.352 82.907 L 180.352 80.636 172.970 80.636 L 165.588 80.636 165.588 82.907 M183.532 97.331 L 183.532 114.026 186.258 114.026 L 188.984 114.026 188.984 97.331 L 188.984 80.636 186.258 80.636 L 183.532 80.636 183.532 97.331 M213.515 97.324 L 213.515 114.026 215.907 114.026 L 218.298 114.026 218.278 103.894 C 218.267 98.321,218.298 93.722,218.346 93.673 C 218.395 93.625,219.486 96.932,220.771 101.023 C 222.055 105.114,223.509 109.713,224.001 111.244 L 224.896 114.026 227.269 114.026 L 229.642 114.026 229.642 97.331 L 229.642 80.636 227.371 80.636 L 225.099 80.636 225.084 90.119 C 225.075 95.790,224.988 99.420,224.869 99.148 C 224.759 98.898,223.395 94.656,221.839 89.722 L 219.008 80.750 216.262 80.686 L 213.515 80.622 213.515 97.324 M202.857 85.339 C 204.194 86.129,204.202 86.204,204.202 97.316 C 204.202 105.472,204.140 107.602,203.885 108.212 C 203.041 110.233,199.883 110.317,198.863 108.345 C 198.427 107.502,198.352 87.783,198.780 86.554 C 199.277 85.129,201.420 84.490,202.857 85.339 M136.944 96.366 C 137.483 99.645,137.977 102.609,138.042 102.953 L 138.160 103.578 135.832 103.578 L 133.504 103.578 133.626 102.953 C 133.693 102.609,134.189 99.645,134.729 96.366 C 135.268 93.086,135.767 90.403,135.837 90.403 C 135.907 90.403,136.405 93.086,136.944 96.366 M194.094 176.646 C 148.545 177.716,104.999 196.278,71.950 228.710 C 63.357 237.142,51.682 250.932,52.136 252.114 C 53.598 255.924,69.450 273.471,78.966 281.812 C 109.719 308.767,143.891 323.160,186.031 326.907 C 203.667 328.475,228.218 326.282,246.667 321.491 C 285.708 311.352,323.011 286.243,345.907 254.691 C 348.160 251.586,348.263 252.388,345.060 248.117 C 311.371 203.198,254.840 175.500,198.978 176.543 C 197.666 176.567,195.468 176.614,194.094 176.646 M206.956 190.909 C 230.733 193.690,250.840 209.897,258.473 232.435 C 260.408 238.147,260.544 240.196,259.100 241.841 C 257.190 244.016,254.780 243.788,252.349 241.201 C 249.575 238.250,248.147 241.329,250.394 245.417 C 251.399 247.246,251.423 247.789,250.535 248.657 C 249.554 249.617,246.759 251.153,245.429 251.465 C 242.327 252.191,241.550 252.831,240.521 255.504 C 239.527 258.086,239.727 259.519,241.531 262.738 C 245.149 269.195,242.755 269.768,235.944 264.075 C 233.292 261.859,232.715 260.920,230.369 254.996 C 227.696 248.247,227.150 247.564,224.696 247.901 C 222.384 248.218,221.673 249.215,222.151 251.471 C 222.571 253.447,221.081 257.398,219.377 258.832 C 218.332 259.711,218.213 259.662,215.841 257.383 C 214.107 255.717,211.740 254.485,208.092 253.350 C 202.737 251.683,201.402 250.556,200.474 246.918 C 199.922 244.757,199.328 244.126,196.622 242.831 C 195.343 242.218,193.450 241.090,192.417 240.324 C 189.563 238.208,188.536 237.853,188.153 238.852 C 187.899 239.513,188.611 240.372,193.030 244.733 C 199.299 250.920,199.726 252.264,196.218 254.770 C 191.689 258.005,190.378 257.678,185.151 252.010 C 181.217 247.744,181.145 247.712,181.153 250.224 C 181.167 254.130,183.981 258.084,188.529 260.590 C 192.190 262.606,192.168 264.468,188.440 268.093 C 185.480 270.972,185.127 271.755,185.124 275.457 C 185.122 277.765,185.029 278.524,184.563 280.000 C 184.256 280.974,183.890 282.306,183.750 282.959 C 183.512 284.075,182.562 285.292,181.930 285.292 C 181.598 285.292,181.041 286.557,180.191 289.241 C 178.392 294.925,176.634 297.056,172.535 298.521 C 167.025 300.490,165.548 298.935,165.204 290.801 L 165.067 287.564 164.415 287.564 C 163.338 287.564,162.599 285.825,162.077 282.065 C 161.826 280.255,161.352 279.883,159.891 280.350 C 158.391 280.830,158.210 280.696,157.893 278.867 C 157.629 277.342,157.693 277.422,154.699 274.901 C 152.762 273.269,153.101 273.215,148.047 275.953 C 146.767 276.646,145.668 277.100,145.435 277.032 C 145.213 276.968,144.613 276.807,144.103 276.676 C 143.056 276.406,143.019 276.347,141.807 273.027 C 139.593 266.965,138.551 261.129,138.392 253.904 C 138.238 246.873,138.309 246.344,139.614 244.741 C 140.177 244.050,141.021 242.855,141.489 242.085 C 142.325 240.710,142.371 240.675,144.140 240.084 L 145.940 239.483 148.893 240.111 C 152.530 240.884,154.842 241.606,158.660 243.160 C 165.559 245.969,168.511 246.009,171.318 243.332 C 173.863 240.906,171.396 237.401,168.391 239.174 L 167.536 239.678 165.824 237.832 C 163.358 235.174,162.686 235.452,163.884 238.636 C 165.538 243.031,163.511 241.987,160.930 237.115 C 158.920 233.323,157.592 232.629,155.572 234.317 C 153.819 235.781,151.562 236.682,147.653 237.477 C 146.559 237.700,145.217 238.159,144.535 238.544 C 142.052 239.945,139.858 237.378,140.896 234.286 C 141.462 232.599,145.084 231.597,147.416 232.482 C 150.285 233.571,152.238 232.323,151.572 229.827 C 151.229 228.540,151.364 228.324,152.958 227.607 C 153.720 227.264,155.100 226.494,156.023 225.896 C 159.318 223.762,164.063 223.336,167.445 224.871 C 169.694 225.891,171.247 225.385,173.993 222.738 C 175.076 221.694,176.387 220.597,176.906 220.301 C 178.009 219.671,178.071 219.397,177.255 218.756 C 175.847 217.648,174.409 218.177,172.164 220.628 C 169.802 223.205,168.610 223.513,164.988 222.482 C 154.045 219.366,157.693 213.672,171.380 212.507 C 174.373 212.252,176.138 211.976,177.965 211.478 C 181.463 210.523,183.588 210.263,184.986 210.619 C 187.346 211.221,186.954 211.956,183.211 213.949 C 179.658 215.841,179.002 216.512,179.819 217.415 C 180.631 218.312,182.647 217.513,188.643 213.919 C 192.914 211.358,192.908 211.441,189.034 208.467 C 186.975 206.887,186.580 205.971,186.728 203.116 C 186.903 199.723,181.828 198.736,170.480 199.955 C 166.626 200.369,166.568 200.361,167.832 199.563 C 174.388 195.424,184.088 192.014,192.050 191.048 C 193.174 190.911,194.350 190.763,194.662 190.717 C 196.286 190.483,204.394 190.609,206.956 190.909 M159.152 208.152 L 159.783 208.695 159.497 210.362 C 159.068 212.863,157.801 214.087,154.423 215.261 C 151.970 216.114,149.692 215.135,150.613 213.623 C 153.646 208.650,157.133 206.416,159.152 208.152 M155.207 218.392 C 156.948 219.218,156.597 220.129,153.921 221.735 C 152.940 222.324,151.066 223.889,149.174 225.702 C 145.533 229.189,143.974 230.116,142.895 229.434 C 142.486 229.174,146.281 221.381,147.514 219.949 C 149.050 218.166,153.032 217.360,155.207 218.392 M259.380 245.163 C 261.533 246.587,261.984 248.714,261.633 255.786 C 261.456 259.344,260.765 264.473,260.417 264.810 C 260.101 265.115,257.814 262.266,256.920 260.454 C 254.799 256.151,254.738 252.154,256.753 249.321 C 257.620 248.100,257.609 247.420,256.697 245.874 C 255.718 244.215,257.310 243.793,259.380 245.163 M245.532 258.388 C 247.772 260.484,247.743 261.901,245.460 261.893 C 244.255 261.889,243.526 261.512,242.886 260.562 C 241.054 257.843,243.128 256.140,245.532 258.388 M214.135 257.929 C 215.929 258.679,217.339 260.260,217.043 261.192 C 216.597 262.596,212.181 262.356,210.766 260.850 L 210.232 260.281 210.681 259.449 C 211.531 257.874,212.735 257.344,214.135 257.929 M248.382 263.910 C 249.430 264.388,250.994 266.017,250.994 266.632 C 250.994 268.543,245.512 268.344,244.419 266.393 C 243.523 264.794,246.385 263.001,248.382 263.910 M256.394 269.550 C 256.804 270.324,257.306 271.635,257.510 272.465 L 257.882 273.972 257.130 275.828 C 254.572 282.139,250.145 289.078,245.548 293.981 C 243.459 296.209,243.535 296.181,241.681 295.400 C 239.969 294.680,239.344 294.686,238.364 295.433 C 237.162 296.350,236.390 295.936,236.495 294.431 C 236.589 293.080,236.356 293.091,233.959 294.541 C 230.741 296.489,230.220 296.241,229.182 292.269 C 228.801 290.814,228.331 289.244,228.137 288.780 C 226.882 285.776,227.643 282.003,230.166 278.727 C 232.328 275.918,234.569 274.916,243.103 272.941 C 247.993 271.809,249.726 271.131,252.686 269.192 C 255.046 267.645,255.405 267.680,256.394 269.550 M192.740 268.866 C 193.311 269.437,193.065 271.151,192.166 272.860 C 191.757 273.639,190.915 275.860,190.295 277.797 C 188.363 283.837,187.303 285.534,186.564 283.771 C 185.997 282.418,186.661 275.717,187.701 272.295 C 188.504 269.650,191.492 267.617,192.740 268.866 M233.208 300.047 C 234.902 300.242,237.371 301.041,237.361 301.391 C 237.356 301.608,234.329 303.713,231.914 305.179 C 217.855 313.714,200.073 316.300,184.441 312.082 C 180.797 311.098,180.758 308.427,184.339 305.076 C 189.866 299.907,197.680 299.776,211.811 304.617 C 214.852 305.659,217.074 306.290,217.943 306.359 L 219.307 306.466 221.692 304.490 C 225.030 301.725,227.268 300.513,229.869 300.061 C 231.307 299.811,231.158 299.812,233.208 300.047 " stroke="none" fill="#fbfbfb" fill-rule="evenodd"></path><path id="path1" d="M0.000 200.000 L 0.000 400.000 200.000 400.000 L 400.000 400.000 400.000 200.000 L 400.000 0.000 200.000 0.000 L 0.000 0.000 0.000 200.000 M83.362 33.047 C 92.047 35.327,95.173 40.917,95.173 54.167 C 95.173 63.846,93.605 67.421,88.163 70.144 L 86.372 71.041 87.308 71.318 C 90.290 72.198,93.070 74.530,94.371 77.245 C 95.819 80.266,95.892 81.001,95.803 91.669 L 95.724 101.193 95.105 103.193 C 92.662 111.087,86.703 114.940,76.620 115.145 C 67.310 115.335,61.116 111.526,58.615 104.072 C 57.707 101.366,57.470 98.719,57.469 91.255 L 57.467 84.270 63.694 84.270 L 69.921 84.270 70.015 91.369 C 70.094 97.317,70.173 98.664,70.504 99.681 C 72.207 104.913,80.090 104.924,81.643 99.696 C 82.172 97.914,82.170 81.674,81.640 80.119 C 80.766 77.552,78.858 76.775,73.436 76.775 L 69.725 76.775 69.786 71.493 L 69.847 66.212 73.708 66.086 C 75.982 66.011,77.850 65.842,78.251 65.675 C 79.530 65.143,80.664 64.201,81.275 63.162 L 81.885 62.124 81.960 55.650 C 82.044 48.472,81.917 47.374,80.835 45.880 C 79.077 43.453,73.893 43.322,72.227 45.662 C 71.053 47.311,70.991 47.694,70.870 53.947 L 70.755 59.852 64.452 59.913 L 58.149 59.973 58.150 54.802 C 58.154 40.954,62.091 34.706,72.005 32.820 C 74.368 32.370,81.310 32.509,83.362 33.047 M140.200 33.688 C 142.981 35.054,143.847 36.990,143.875 41.908 L 143.896 45.315 141.283 45.315 L 138.671 45.315 138.558 42.210 C 138.410 38.160,137.364 36.965,134.878 38.004 C 133.340 38.646,133.333 38.697,133.333 50.085 C 133.333 62.237,133.368 62.387,136.195 62.280 C 138.173 62.206,138.418 61.648,138.558 56.899 L 138.671 53.038 141.283 53.038 L 143.896 53.038 143.880 57.240 C 143.853 64.830,142.013 67.121,135.945 67.121 C 131.252 67.121,128.864 65.385,127.767 61.174 C 127.259 59.224,127.269 40.909,127.779 38.946 C 128.511 36.133,130.231 34.128,132.624 33.303 C 134.443 32.675,138.564 32.885,140.200 33.688 M153.040 47.643 L 153.098 62.010 156.390 62.010 L 159.682 62.010 159.682 64.512 L 159.682 67.015 153.492 66.954 L 147.303 66.894 147.244 50.312 C 147.212 41.193,147.235 33.600,147.296 33.440 C 147.380 33.220,148.091 33.165,150.194 33.213 L 152.981 33.277 153.040 47.643 M168.427 50.085 L 168.427 66.894 165.588 66.894 L 162.748 66.894 162.690 50.022 L 162.632 33.149 165.529 33.213 L 168.427 33.277 168.427 50.085 M179.202 33.674 C 179.313 33.955,179.878 36.689,180.457 39.750 C 182.040 48.120,182.683 51.350,182.753 51.281 C 182.813 51.221,184.430 41.928,185.371 36.232 C 185.927 32.863,185.533 33.139,189.682 33.214 L 193.186 33.277 193.186 50.085 L 193.186 66.894 190.574 66.894 L 187.961 66.894 187.848 56.559 C 187.785 50.875,187.668 46.684,187.588 47.246 C 187.507 47.808,186.971 50.926,186.397 54.174 C 185.822 57.422,185.091 61.562,184.771 63.373 C 184.095 67.199,184.183 67.054,182.599 66.964 L 181.374 66.894 180.646 63.260 C 180.246 61.261,179.360 56.763,178.677 53.265 L 177.434 46.905 177.360 56.899 L 177.286 66.894 174.901 66.894 L 172.516 66.894 172.457 50.312 C 172.425 41.193,172.447 33.603,172.507 33.447 C 172.733 32.854,178.960 33.065,179.202 33.674 M208.720 33.674 C 208.825 33.955,209.286 36.178,209.745 38.614 C 210.205 41.051,211.591 48.359,212.827 54.855 C 214.062 61.352,214.995 66.747,214.900 66.844 C 214.805 66.942,213.459 66.993,211.909 66.958 L 209.091 66.894 208.837 65.417 C 208.698 64.605,208.462 63.225,208.313 62.351 L 208.043 60.761 205.204 60.761 C 202.551 60.761,202.359 60.791,202.265 61.215 C 202.210 61.465,202.008 62.641,201.817 63.827 C 201.241 67.401,201.634 67.007,198.646 67.007 C 195.472 67.007,195.637 67.322,196.486 62.870 C 196.874 60.835,197.485 57.638,197.843 55.764 C 198.202 53.890,198.918 50.108,199.434 47.359 C 200.713 40.552,201.910 34.292,202.050 33.674 C 202.164 33.174,202.235 33.163,205.348 33.163 C 208.439 33.163,208.535 33.177,208.720 33.674 M229.188 35.662 L 229.188 38.160 226.918 38.160 L 224.648 38.160 224.590 52.527 L 224.532 66.894 221.692 66.894 L 218.853 66.894 218.794 52.527 L 218.736 38.160 216.491 38.160 C 213.867 38.160,213.969 38.261,213.969 35.662 C 213.969 32.898,213.148 33.163,221.717 33.163 L 229.188 33.163 229.188 35.662 M245.720 35.718 L 245.785 38.160 241.916 38.160 L 238.047 38.160 238.047 42.817 L 238.047 47.473 240.780 47.473 L 243.514 47.473 243.449 49.801 L 243.384 52.129 240.716 52.193 L 238.047 52.257 238.047 57.134 L 238.047 62.010 241.916 62.010 L 245.785 62.010 245.720 64.452 L 245.656 66.894 238.955 66.894 L 232.254 66.894 232.196 50.025 L 232.138 33.156 238.897 33.216 L 245.656 33.277 245.720 35.718 M50.426 73.825 L 50.426 114.260 43.555 114.200 L 36.684 114.140 36.684 83.419 C 36.684 66.522,36.630 52.723,36.565 52.754 C 36.500 52.785,34.411 54.932,31.923 57.524 C 29.434 60.116,27.316 62.237,27.214 62.237 C 27.113 62.237,27.030 59.019,27.030 55.085 L 27.030 47.933 33.220 40.671 L 39.409 33.408 44.918 33.399 L 50.426 33.390 50.426 73.825 M205.128 43.742 C 205.103 44.097,203.321 54.739,203.163 55.480 L 203.030 56.104 205.093 56.104 C 207.082 56.104,207.155 56.086,207.148 55.593 C 207.140 55.012,205.156 43.367,205.128 43.742 M159.568 80.836 C 162.547 82.157,163.391 83.903,163.502 88.984 L 163.583 92.675 160.951 92.675 L 158.319 92.675 158.318 90.119 C 158.316 86.131,157.834 85.179,155.817 85.179 C 153.022 85.179,152.994 85.289,152.913 96.615 C 152.826 108.725,152.953 109.390,155.409 109.633 C 157.795 109.868,158.318 108.829,158.319 103.861 L 158.319 100.170 160.920 100.170 L 163.521 100.170 163.589 103.623 C 163.752 111.899,161.941 114.367,155.707 114.367 C 151.355 114.367,149.173 113.088,147.821 109.744 C 147.047 107.829,146.890 88.063,147.629 85.629 C 149.014 81.069,154.828 78.735,159.568 80.836 M204.506 80.641 C 206.485 81.252,208.188 82.781,209.107 84.772 L 209.767 86.201 209.833 96.846 C 209.905 108.703,209.879 108.967,208.398 111.226 C 205.086 116.279,196.129 115.551,193.598 110.023 C 192.429 107.470,192.167 88.947,193.253 85.632 C 194.712 81.179,199.447 79.079,204.506 80.641 M140.126 84.554 C 140.537 86.709,141.266 90.517,141.746 93.015 C 142.226 95.514,143.090 100.062,143.665 103.123 C 144.240 106.184,144.947 109.887,145.236 111.352 C 145.525 112.817,145.708 114.069,145.642 114.134 C 145.446 114.331,139.957 114.268,139.833 114.068 C 139.770 113.967,139.490 112.587,139.211 111.002 L 138.703 108.120 135.823 108.120 L 132.942 108.120 132.555 110.676 C 131.946 114.692,132.355 114.253,129.220 114.253 C 127.012 114.253,126.519 114.193,126.519 113.924 C 126.519 113.743,127.191 110.038,128.012 105.690 C 131.874 85.245,132.450 82.180,132.587 81.374 L 132.711 80.636 136.045 80.636 L 139.378 80.636 140.126 84.554 M180.579 83.021 L 180.579 85.406 178.194 85.406 L 175.809 85.406 175.809 99.836 L 175.809 114.267 172.913 114.203 L 170.017 114.140 170.017 99.773 L 170.017 85.406 167.689 85.406 L 165.361 85.406 165.361 83.021 L 165.361 80.636 172.970 80.636 L 180.579 80.636 180.579 83.021 M189.211 97.451 L 189.211 114.267 186.315 114.203 L 183.419 114.140 183.360 97.388 L 183.302 80.636 186.256 80.636 L 189.211 80.636 189.211 97.451 M220.293 84.214 C 220.920 86.181,222.181 90.169,223.096 93.074 L 224.759 98.358 224.818 89.497 L 224.878 80.636 227.373 80.636 L 229.869 80.636 229.869 97.452 L 229.869 114.268 227.314 114.204 L 224.759 114.140 224.304 112.763 C 224.055 112.006,222.624 107.487,221.124 102.720 L 218.399 94.053 218.340 104.153 L 218.280 114.253 215.898 114.253 L 213.515 114.253 213.515 97.445 L 213.515 80.636 216.334 80.636 L 219.153 80.636 220.293 84.214 M199.873 85.513 C 198.663 86.171,198.643 86.342,198.567 96.650 C 198.489 107.319,198.525 107.861,199.391 108.830 C 200.557 110.135,202.843 109.879,203.630 108.355 C 204.151 107.347,204.145 87.537,203.623 86.437 C 203.052 85.233,201.219 84.781,199.873 85.513 M135.764 91.539 C 135.691 91.726,135.259 94.179,134.803 96.990 C 134.348 99.801,133.920 102.382,133.853 102.726 L 133.731 103.350 135.804 103.350 C 137.317 103.350,137.873 103.274,137.863 103.066 C 137.812 101.941,135.869 91.270,135.764 91.539 M211.016 176.723 C 264.030 179.653,313.746 206.152,345.429 248.365 C 348.470 252.417,348.388 251.536,346.022 254.779 C 331.465 274.720,310.113 293.114,286.655 305.917 C 232.693 335.370,163.716 334.719,110.140 304.252 C 87.497 291.376,66.153 272.403,52.489 253.005 L 51.746 251.950 53.619 249.371 C 59.970 240.629,70.015 229.745,78.924 221.953 C 116.022 189.504,161.364 173.979,211.016 176.723 M192.590 191.129 C 184.276 192.181,174.980 195.356,168.654 199.304 L 167.291 200.155 168.427 200.025 C 182.922 198.375,187.012 199.194,186.882 203.721 C 186.812 206.190,187.266 207.006,189.726 208.831 C 193.149 211.370,193.141 211.394,188.035 214.434 C 181.969 218.045,180.854 218.468,179.792 217.555 C 178.622 216.548,179.370 215.750,183.440 213.658 C 184.577 213.074,185.736 212.352,186.017 212.053 L 186.528 211.509 185.891 211.093 C 184.826 210.395,182.210 210.557,178.308 211.563 C 175.983 212.162,174.145 212.478,172.061 212.636 C 167.191 213.007,164.722 213.438,163.203 214.184 C 156.970 217.242,157.382 220.043,164.370 222.123 C 168.693 223.409,169.263 223.284,172.120 220.416 C 174.729 217.797,175.828 217.455,177.476 218.751 C 178.295 219.395,178.238 219.703,177.194 220.290 C 176.706 220.564,175.278 221.750,174.020 222.926 C 171.023 225.728,170.209 225.977,167.346 224.967 C 163.508 223.613,159.137 224.062,155.917 226.139 C 154.856 226.823,153.430 227.630,152.747 227.932 C 151.408 228.524,151.375 228.589,151.762 229.879 C 152.467 232.232,150.199 233.879,147.748 232.795 C 145.355 231.736,141.527 232.665,141.054 234.419 C 140.185 237.649,142.500 240.046,144.767 238.262 C 145.085 238.013,146.040 237.652,146.891 237.460 C 151.953 236.322,153.941 235.567,155.515 234.184 C 157.397 232.532,159.047 233.159,160.515 236.083 C 163.102 241.238,165.064 242.870,163.717 238.748 C 162.591 235.304,163.294 234.904,165.791 237.566 L 167.524 239.415 168.421 238.958 C 171.508 237.384,173.904 240.436,171.691 243.122 C 169.164 246.188,165.661 246.226,158.463 243.269 C 148.742 239.274,143.622 238.928,141.644 242.132 C 141.191 242.866,140.343 244.054,139.759 244.770 L 138.697 246.073 138.503 249.045 C 138.003 256.708,139.411 266.009,142.229 273.653 L 143.171 276.210 144.313 276.549 C 145.878 277.014,145.757 277.042,148.374 275.604 C 149.658 274.898,150.965 274.183,151.278 274.015 C 152.416 273.405,153.516 273.617,154.680 274.673 C 155.265 275.204,156.129 275.933,156.601 276.292 C 157.521 276.994,158.092 278.071,158.092 279.109 C 158.092 280.359,158.536 280.646,159.800 280.215 C 161.662 279.581,161.999 280.026,162.612 283.930 C 162.983 286.291,163.461 287.204,164.371 287.293 L 165.085 287.362 165.240 289.905 C 165.751 298.326,166.813 299.921,171.162 298.799 C 176.076 297.530,178.676 294.573,180.240 288.472 C 180.733 286.545,181.321 285.547,182.408 284.788 C 182.950 284.409,183.345 283.925,183.426 283.538 C 183.500 283.191,183.863 281.913,184.234 280.697 C 184.820 278.777,184.917 278.074,184.969 275.359 C 185.043 271.464,185.239 271.029,188.248 268.070 C 192.087 264.295,192.029 262.715,187.969 260.456 C 183.875 258.179,180.806 253.653,180.806 249.893 C 180.806 247.256,181.121 247.406,185.453 252.111 C 189.186 256.166,190.121 256.827,191.797 256.597 C 194.127 256.278,197.007 254.422,197.840 252.702 C 198.764 250.793,198.658 250.620,193.197 245.094 C 187.819 239.652,187.640 239.420,188.178 238.599 C 188.759 237.712,189.549 237.986,192.297 240.031 C 193.308 240.783,195.282 241.985,196.684 242.702 C 199.627 244.207,200.078 244.718,200.815 247.375 C 201.687 250.523,202.768 251.387,208.033 253.142 C 212.395 254.595,214.136 255.529,216.197 257.518 C 218.549 259.789,219.074 259.654,220.832 256.318 C 222.141 253.835,222.294 253.132,221.924 251.273 C 221.383 248.550,223.903 246.795,226.598 248.019 C 227.932 248.625,228.262 249.208,230.549 254.989 C 233.169 261.613,233.590 262.200,238.146 265.588 C 243.371 269.472,244.424 268.619,241.444 262.919 C 239.620 259.431,239.470 258.816,239.963 256.870 C 240.838 253.417,241.909 252.145,244.424 251.573 C 246.926 251.004,250.441 249.050,250.942 247.950 C 251.157 247.478,251.058 247.131,250.250 245.528 C 247.868 240.799,249.410 237.951,252.592 241.204 C 254.295 242.944,254.753 243.155,256.474 242.990 C 259.726 242.677,260.606 239.943,259.082 234.889 C 252.109 211.757,232.968 195.051,209.199 191.350 C 205.944 190.844,195.905 190.710,192.590 191.129 M155.707 208.176 C 154.760 208.508,154.202 209.088,151.908 212.123 C 150.431 214.078,150.337 214.471,151.212 215.043 C 153.330 216.430,158.613 213.796,159.198 211.062 C 159.837 208.071,158.694 207.126,155.707 208.176 M150.907 218.397 C 148.373 218.948,147.832 219.401,146.154 222.374 C 144.841 224.699,142.878 229.007,143.023 229.245 C 143.582 230.160,145.661 228.891,149.193 225.479 C 151.159 223.580,152.860 222.155,153.825 221.597 C 156.565 220.014,156.845 219.199,154.914 218.426 C 153.828 217.991,152.806 217.984,150.907 218.397 M256.896 245.990 C 257.725 247.631,257.754 248.337,257.031 249.197 C 254.244 252.509,255.499 259.990,259.515 263.998 C 260.411 264.892,260.419 264.880,260.838 262.067 C 262.630 250.023,261.504 244.654,257.180 244.637 L 256.212 244.634 256.896 245.990 M242.867 257.707 C 241.341 258.776,243.228 261.670,245.451 261.670 C 247.450 261.670,247.600 260.824,245.926 259.007 C 244.497 257.456,243.705 257.120,242.867 257.707 M211.931 258.308 C 210.181 259.489,210.174 260.487,211.911 261.376 C 215.049 262.982,218.127 261.694,216.252 259.559 C 214.910 258.031,213.113 257.510,211.931 258.308 M245.555 264.306 C 243.546 265.997,244.655 267.526,248.041 267.734 C 250.607 267.892,251.416 266.968,250.063 265.427 C 248.573 263.730,246.772 263.282,245.555 264.306 M253.492 268.844 C 250.652 270.905,247.931 272.065,243.952 272.911 C 235.027 274.808,232.195 276.119,229.871 279.429 C 227.665 282.570,227.254 285.380,228.447 289.154 C 228.823 290.341,229.313 292.074,229.536 293.005 C 230.262 296.038,230.887 296.211,234.138 294.276 C 236.431 292.911,236.642 292.924,236.729 294.433 C 236.812 295.877,237.178 296.039,238.430 295.188 C 239.510 294.454,239.697 294.459,241.722 295.275 L 243.384 295.945 244.376 294.991 C 248.826 290.710,254.571 281.904,257.126 275.445 C 258.505 271.963,255.847 267.135,253.492 268.844 M191.035 268.737 C 188.391 269.792,186.891 273.778,186.558 280.636 C 186.282 286.329,187.624 285.420,189.912 278.365 C 190.561 276.366,191.499 273.890,191.997 272.864 C 193.531 269.703,193.112 267.907,191.035 268.737 M229.529 300.288 C 227.093 300.773,224.757 302.116,221.253 305.043 C 218.732 307.150,218.770 307.150,212.252 304.943 C 197.723 300.025,189.853 300.067,184.531 305.094 C 180.819 308.601,180.998 311.118,185.027 312.058 C 203.463 316.357,222.775 312.537,236.642 301.850 L 237.168 301.444 236.254 300.978 C 234.744 300.208,231.566 299.881,229.529 300.288 " stroke="none" fill="#3c7c43" fill-rule="evenodd"></path><path id="path2" d="M147.294 33.447 C 147.234 33.603,147.212 41.193,147.244 50.312 L 147.303 66.894 153.436 66.899 L 159.568 66.905 153.492 66.839 L 147.416 66.773 147.416 50.089 L 147.416 33.404 150.199 33.333 L 152.981 33.261 150.192 33.212 C 148.132 33.176,147.374 33.237,147.294 33.447 M165.474 33.330 L 168.313 33.404 168.313 50.085 L 168.313 66.766 165.645 66.841 L 162.976 66.915 165.701 66.904 L 168.427 66.894 168.427 50.085 L 168.427 33.277 165.531 33.266 L 162.634 33.255 165.474 33.330 M174.162 33.332 C 175.068 33.375,176.550 33.375,177.456 33.332 C 178.362 33.289,177.621 33.253,175.809 33.253 C 173.998 33.253,173.257 33.289,174.162 33.332 M185.955 33.328 C 185.895 33.424,187.472 33.473,189.459 33.436 L 193.072 33.368 193.072 50.067 L 193.072 66.765 190.573 66.841 L 188.074 66.917 190.630 66.905 L 193.186 66.894 193.186 50.085 L 193.186 33.277 189.625 33.214 C 187.667 33.180,186.015 33.231,185.955 33.328 M203.691 33.332 C 204.597 33.375,206.079 33.375,206.985 33.332 C 207.890 33.289,207.149 33.253,205.338 33.253 C 203.526 33.253,202.785 33.289,203.691 33.332 M217.888 33.333 C 219.980 33.370,223.404 33.370,225.497 33.333 C 227.589 33.295,225.877 33.265,221.692 33.265 C 217.507 33.265,215.795 33.295,217.888 33.333 M235.505 33.333 C 237.418 33.371,240.485 33.371,242.320 33.333 C 244.155 33.295,242.589 33.264,238.842 33.264 C 235.094 33.264,233.592 33.295,235.505 33.333 M214.051 35.662 C 214.051 36.848,214.090 37.334,214.136 36.740 C 214.183 36.147,214.183 35.176,214.136 34.583 C 214.090 33.989,214.051 34.475,214.051 35.662 M215.275 38.100 C 215.931 38.146,217.005 38.146,217.660 38.100 C 218.316 38.055,217.780 38.017,216.468 38.017 C 215.156 38.017,214.620 38.055,215.275 38.100 M224.569 38.084 C 224.486 38.168,224.418 44.655,224.418 52.501 L 224.418 66.766 221.749 66.841 L 219.080 66.915 221.806 66.904 L 224.532 66.894 224.590 52.535 L 224.648 38.176 226.975 38.102 L 229.302 38.029 227.011 37.981 C 225.751 37.955,224.653 38.001,224.569 38.084 M237.921 38.223 C 237.860 38.383,237.840 40.555,237.876 43.050 L 237.943 47.587 237.995 42.879 L 238.047 38.171 241.965 38.103 L 245.883 38.035 241.958 37.984 C 238.943 37.945,238.006 38.000,237.921 38.223 M143.870 42.362 C 143.871 43.986,143.907 44.621,143.951 43.772 C 143.994 42.924,143.994 41.595,143.950 40.820 C 143.906 40.044,143.870 40.738,143.870 42.362 M138.642 42.703 C 138.642 44.015,138.679 44.551,138.725 43.896 C 138.771 43.240,138.771 42.166,138.725 41.511 C 138.679 40.855,138.642 41.391,138.642 42.703 M177.172 56.778 L 177.172 66.764 174.957 66.841 L 172.743 66.918 175.014 66.906 L 177.286 66.894 177.399 56.843 C 177.462 51.314,177.436 46.791,177.342 46.792 C 177.249 46.792,177.172 51.285,177.172 56.778 M82.098 55.196 C 82.098 58.382,82.130 59.685,82.169 58.092 C 82.208 56.499,82.208 53.893,82.169 52.300 C 82.130 50.707,82.098 52.010,82.098 55.196 M70.739 54.742 C 70.739 57.553,70.771 58.702,70.811 57.297 C 70.851 55.892,70.851 53.592,70.811 52.186 C 70.771 50.781,70.739 51.931,70.739 54.742 M237.971 52.167 C 237.761 52.377,237.779 61.959,237.990 62.089 C 238.083 62.147,238.131 59.959,238.095 57.226 L 238.030 52.258 240.707 52.186 L 243.384 52.114 240.753 52.065 C 239.306 52.038,238.054 52.084,237.971 52.167 M36.682 83.589 L 36.684 114.140 43.555 114.145 L 50.426 114.150 43.612 114.085 L 36.799 114.019 36.740 83.529 L 36.681 53.038 36.682 83.589 M34.632 54.571 L 33.277 55.991 34.696 54.635 C 35.477 53.889,36.116 53.251,36.116 53.216 C 36.116 53.048,35.892 53.253,34.632 54.571 M138.648 56.332 C 138.648 58.143,138.683 58.884,138.726 57.978 C 138.769 57.073,138.769 55.591,138.726 54.685 C 138.683 53.779,138.648 54.520,138.648 56.332 M143.874 56.786 C 143.874 58.847,143.909 59.691,143.951 58.660 C 143.993 57.629,143.993 55.943,143.951 54.912 C 143.909 53.881,143.874 54.725,143.874 56.786 M29.181 60.250 L 27.825 61.670 29.245 60.314 C 30.563 59.054,30.768 58.830,30.600 58.830 C 30.565 58.830,29.927 59.469,29.181 60.250 M203.805 60.815 C 204.523 60.860,205.698 60.860,206.417 60.815 C 207.135 60.770,206.547 60.733,205.111 60.733 C 203.674 60.733,203.086 60.770,203.805 60.815 M71.389 66.267 C 72.238 66.311,73.567 66.311,74.342 66.267 C 75.118 66.223,74.424 66.187,72.800 66.187 C 71.175 66.187,70.541 66.224,71.389 66.267 M214.878 66.528 C 214.878 66.736,214.143 66.788,211.946 66.736 C 210.334 66.698,209.062 66.743,209.120 66.837 C 209.290 67.110,214.829 67.042,215.001 66.765 C 215.083 66.632,215.089 66.462,215.014 66.387 C 214.939 66.312,214.878 66.375,214.878 66.528 M182.117 66.945 C 182.525 66.995,183.138 66.994,183.479 66.943 C 183.821 66.891,183.487 66.849,182.737 66.851 C 181.988 66.852,181.708 66.894,182.117 66.945 M197.340 66.949 C 198.126 66.993,199.352 66.993,200.066 66.948 C 200.779 66.903,200.136 66.867,198.637 66.867 C 197.138 66.867,196.554 66.904,197.340 66.949 M235.605 66.950 C 237.447 66.988,240.463 66.988,242.306 66.950 C 244.148 66.912,242.641 66.881,238.955 66.881 C 235.270 66.881,233.762 66.912,235.605 66.950 M183.416 97.331 L 183.419 114.140 186.315 114.150 L 189.211 114.161 186.373 114.087 L 183.535 114.013 183.475 97.268 L 183.414 80.522 183.416 97.331 M224.821 89.630 C 224.787 94.577,224.834 98.742,224.926 98.886 C 225.017 99.030,225.094 94.983,225.096 89.892 C 225.098 84.801,225.051 80.636,224.991 80.636 C 224.931 80.636,224.855 84.683,224.821 89.630 M82.101 89.835 C 82.101 94.333,82.132 96.205,82.169 93.995 C 82.206 91.786,82.206 88.106,82.169 85.818 C 82.132 83.530,82.101 85.338,82.101 89.835 M170.014 99.886 L 170.017 114.140 172.913 114.150 L 175.810 114.161 172.972 114.087 L 170.134 114.013 170.073 99.823 L 170.012 85.633 170.014 99.886 M204.079 97.331 C 204.079 102.828,204.109 105.044,204.145 102.256 C 204.181 99.468,204.181 94.970,204.145 92.262 C 204.109 89.553,204.079 91.834,204.079 97.331 M192.721 97.331 C 192.721 101.953,192.751 103.812,192.788 101.462 C 192.825 99.111,192.825 95.329,192.788 93.057 C 192.751 90.785,192.721 92.709,192.721 97.331 M159.634 100.339 C 160.420 100.383,161.646 100.383,162.360 100.338 C 163.073 100.293,162.430 100.257,160.931 100.257 C 159.432 100.258,158.848 100.294,159.634 100.339 M90.957 110.221 L 90.290 110.960 91.028 110.293 C 91.716 109.671,91.870 109.483,91.695 109.483 C 91.656 109.483,91.324 109.815,90.957 110.221 M142.760 114.026 L 139.807 114.161 142.690 114.207 C 144.418 114.235,145.628 114.162,145.713 114.026 C 145.790 113.901,145.821 113.820,145.783 113.845 C 145.744 113.871,144.384 113.952,142.760 114.026 M127.825 114.194 C 128.606 114.239,129.884 114.239,130.664 114.194 C 131.445 114.150,130.806 114.114,129.245 114.114 C 127.683 114.114,127.044 114.150,127.825 114.194 M214.716 114.194 C 215.439 114.239,216.563 114.239,217.214 114.193 C 217.866 114.148,217.274 114.111,215.900 114.111 C 214.526 114.112,213.993 114.149,214.716 114.194 M226.065 114.194 C 226.783 114.239,227.959 114.239,228.677 114.194 C 229.395 114.149,228.807 114.112,227.371 114.112 C 225.934 114.112,225.346 114.149,226.065 114.194 M73.878 115.091 C 74.097 115.148,74.455 115.148,74.673 115.091 C 74.892 115.034,74.713 114.987,74.276 114.987 C 73.839 114.987,73.660 115.034,73.878 115.091 M191.539 176.647 C 191.758 176.704,192.115 176.704,192.334 176.647 C 192.553 176.590,192.374 176.543,191.936 176.543 C 191.499 176.543,191.320 176.590,191.539 176.647 M207.439 176.647 C 207.658 176.704,208.015 176.704,208.234 176.647 C 208.453 176.590,208.274 176.543,207.836 176.543 C 207.399 176.543,207.220 176.590,207.439 176.647 M183.816 177.101 C 184.035 177.159,184.392 177.159,184.611 177.101 C 184.830 177.044,184.651 176.998,184.214 176.998 C 183.776 176.998,183.597 177.044,183.816 177.101 M198.343 190.742 C 199.181 190.785,200.612 190.786,201.523 190.742 C 202.434 190.699,201.749 190.664,200.000 190.663 C 198.251 190.663,197.505 190.698,198.343 190.742 M176.891 199.366 C 177.173 199.420,177.582 199.418,177.799 199.361 C 178.017 199.304,177.785 199.260,177.286 199.262 C 176.786 199.265,176.608 199.311,176.891 199.366 M324.134 224.943 C 324.134 224.982,324.466 225.315,324.872 225.682 L 325.610 226.349 324.943 225.610 C 324.321 224.922,324.134 224.768,324.134 224.943 M74.375 226.065 L 73.708 226.803 74.446 226.136 C 75.134 225.514,75.289 225.327,75.113 225.327 C 75.074 225.327,74.742 225.659,74.375 226.065 M169.052 225.483 C 169.270 225.540,169.628 225.540,169.847 225.483 C 170.065 225.426,169.886 225.379,169.449 225.379 C 169.012 225.379,168.833 225.426,169.052 225.483 M66.087 234.355 L 65.304 235.207 66.156 234.424 C 66.948 233.696,67.112 233.504,66.938 233.504 C 66.900 233.504,66.517 233.887,66.087 234.355 M333.220 234.029 C 333.220 234.068,333.552 234.400,333.958 234.767 L 334.696 235.434 334.029 234.696 C 333.407 234.008,333.220 233.854,333.220 234.029 M255.593 243.200 C 255.812 243.257,256.170 243.257,256.388 243.200 C 256.607 243.143,256.428 243.096,255.991 243.096 C 255.554 243.096,255.375 243.143,255.593 243.200 M256.502 244.563 C 256.721 244.620,257.078 244.620,257.297 244.563 C 257.516 244.506,257.337 244.459,256.899 244.459 C 256.462 244.459,256.283 244.506,256.502 244.563 M195.457 247.359 C 196.072 247.984,196.627 248.495,196.689 248.495 C 196.752 248.495,196.300 247.984,195.684 247.359 C 195.069 246.735,194.515 246.224,194.452 246.224 C 194.390 246.224,194.842 246.735,195.457 247.359 M224.702 247.743 C 224.920 247.800,225.278 247.800,225.497 247.743 C 225.716 247.686,225.537 247.639,225.099 247.639 C 224.662 247.639,224.483 247.686,224.702 247.743 M138.392 249.404 C 138.392 249.966,138.437 250.196,138.491 249.915 C 138.545 249.634,138.545 249.174,138.491 248.893 C 138.437 248.612,138.392 248.842,138.392 249.404 M138.395 255.196 C 138.397 255.821,138.441 256.049,138.493 255.704 C 138.546 255.359,138.544 254.848,138.490 254.568 C 138.436 254.289,138.394 254.571,138.395 255.196 M261.500 255.877 C 261.502 256.377,261.549 256.555,261.603 256.272 C 261.657 255.990,261.655 255.581,261.598 255.364 C 261.542 255.146,261.497 255.378,261.500 255.877 M216.014 257.467 C 216.437 257.905,216.835 258.262,216.898 258.262 C 216.960 258.262,216.665 257.905,216.241 257.467 C 215.817 257.030,215.419 256.672,215.357 256.672 C 215.294 256.672,215.590 257.030,216.014 257.467 M239.689 258.489 C 239.689 258.927,239.736 259.106,239.793 258.887 C 239.850 258.668,239.850 258.311,239.793 258.092 C 239.736 257.873,239.689 258.052,239.689 258.489 M187.840 268.427 L 186.599 269.733 187.905 268.492 C 189.118 267.338,189.315 267.121,189.146 267.121 C 189.111 267.121,188.523 267.709,187.840 268.427 M332.414 270.812 L 331.516 271.777 332.482 270.880 C 333.379 270.044,333.551 269.847,333.379 269.847 C 333.342 269.847,332.908 270.281,332.414 270.812 M70.184 273.765 C 73.030 276.666,73.367 276.991,73.367 276.828 C 73.367 276.795,71.962 275.390,70.244 273.705 L 67.121 270.642 70.184 273.765 M184.948 275.752 C 184.948 276.190,184.994 276.369,185.052 276.150 C 185.109 275.931,185.109 275.574,185.052 275.355 C 184.994 275.136,184.948 275.315,184.948 275.752 M326.281 276.945 L 325.383 277.910 326.349 277.012 C 327.246 276.177,327.418 275.980,327.247 275.980 C 327.209 275.980,326.775 276.414,326.281 276.945 M165.191 290.630 C 165.193 291.130,165.240 291.308,165.294 291.025 C 165.348 290.743,165.346 290.334,165.290 290.117 C 165.233 289.899,165.188 290.131,165.191 290.630 M244.282 295.116 L 243.384 296.082 244.350 295.184 C 245.248 294.349,245.420 294.151,245.248 294.151 C 245.211 294.151,244.776 294.585,244.282 295.116 M183.974 305.451 L 183.191 306.303 184.043 305.520 C 184.836 304.792,184.999 304.600,184.826 304.600 C 184.788 304.600,184.405 304.983,183.974 305.451 M193.697 327.474 C 193.978 327.528,194.438 327.528,194.719 327.474 C 195.000 327.420,194.770 327.376,194.208 327.376 C 193.646 327.376,193.416 327.420,193.697 327.474 M205.054 327.474 C 205.335 327.528,205.795 327.528,206.076 327.474 C 206.357 327.420,206.127 327.376,205.565 327.376 C 205.003 327.376,204.773 327.420,205.054 327.474 " stroke="none" fill="#82ab86" fill-rule="evenodd"></path><path id="path3" d="M42.192 33.560 C 43.722 33.599,46.227 33.599,47.757 33.560 C 49.287 33.520,48.035 33.488,44.974 33.488 C 41.914 33.488,40.662 33.520,42.192 33.560 M152.975 47.700 C 152.975 55.633,153.003 58.878,153.038 54.912 C 153.073 50.945,153.073 44.455,153.038 40.488 C 153.003 36.522,152.975 39.767,152.975 47.700 M162.743 50.085 C 162.743 59.330,162.771 63.079,162.805 58.416 C 162.839 53.753,162.839 46.189,162.805 41.607 C 162.771 37.025,162.743 40.840,162.743 50.085 M172.510 49.972 C 172.510 59.154,172.538 62.910,172.572 58.319 C 172.607 53.728,172.607 46.215,172.572 41.624 C 172.538 37.033,172.510 40.789,172.510 49.972 M229.045 35.662 C 229.045 36.973,229.082 37.510,229.128 36.854 C 229.174 36.198,229.174 35.125,229.128 34.469 C 229.082 33.813,229.045 34.350,229.045 35.662 M232.249 50.085 C 232.249 59.330,232.277 63.079,232.311 58.416 C 232.345 53.753,232.345 46.189,232.311 41.607 C 232.277 37.025,232.249 40.840,232.249 50.085 M245.624 35.662 C 245.624 36.848,245.662 37.334,245.709 36.740 C 245.756 36.147,245.756 35.176,245.709 34.583 C 245.662 33.989,245.624 34.475,245.624 35.662 M89.722 36.414 C 89.722 36.453,90.054 36.785,90.460 37.152 L 91.198 37.819 90.531 37.081 C 89.909 36.393,89.722 36.239,89.722 36.414 M218.846 52.470 C 218.846 60.403,218.875 63.648,218.910 59.682 C 218.944 55.716,218.944 49.225,218.910 45.258 C 218.875 41.292,218.846 44.537,218.846 52.470 M127.531 50.085 C 127.531 55.207,127.561 57.335,127.598 54.814 C 127.634 52.292,127.634 48.101,127.598 45.501 C 127.561 42.900,127.531 44.963,127.531 50.085 M187.952 56.445 C 187.952 62.067,187.982 64.334,188.018 61.484 C 188.054 58.633,188.054 54.033,188.018 51.262 C 187.982 48.491,187.952 50.823,187.952 56.445 M243.354 49.858 C 243.354 51.107,243.393 51.589,243.439 50.929 C 243.485 50.269,243.484 49.247,243.438 48.658 C 243.391 48.069,243.353 48.609,243.354 49.858 M95.044 54.287 C 95.044 57.223,95.076 58.424,95.116 56.956 C 95.155 55.488,95.155 53.086,95.116 51.618 C 95.076 50.150,95.044 51.352,95.044 54.287 M58.255 55.082 L 58.262 59.852 64.339 59.858 L 70.415 59.864 64.400 59.798 L 58.385 59.731 58.316 55.022 L 58.248 50.312 58.255 55.082 M31.907 57.297 L 30.551 58.717 31.970 57.361 C 33.289 56.102,33.494 55.877,33.326 55.877 C 33.291 55.877,32.652 56.516,31.907 57.297 M204.266 56.272 C 204.863 56.319,205.783 56.318,206.310 56.270 C 206.837 56.223,206.349 56.184,205.224 56.185 C 204.100 56.186,203.669 56.225,204.266 56.272 M245.625 64.395 C 245.626 65.645,245.664 66.127,245.710 65.467 C 245.756 64.806,245.756 63.784,245.709 63.195 C 245.662 62.606,245.625 63.146,245.625 64.395 M135.325 67.172 C 135.733 67.223,136.346 67.222,136.688 67.170 C 137.029 67.118,136.695 67.076,135.945 67.078 C 135.196 67.079,134.917 67.121,135.325 67.172 M189.091 97.331 C 189.091 106.576,189.119 110.325,189.154 105.662 C 189.188 100.999,189.188 93.435,189.154 88.853 C 189.119 84.271,189.091 88.086,189.091 97.331 M229.750 97.331 C 229.750 106.576,229.778 110.325,229.813 105.662 C 229.847 100.999,229.847 93.435,229.813 88.853 C 229.778 84.271,229.750 88.086,229.750 97.331 M165.461 83.077 L 165.474 85.292 167.746 85.304 L 170.017 85.316 167.811 85.240 L 165.604 85.163 165.526 83.013 L 165.448 80.862 165.461 83.077 M69.832 90.630 C 69.832 93.941,69.864 95.295,69.903 93.640 C 69.942 91.985,69.942 89.276,69.903 87.621 C 69.864 85.965,69.832 87.320,69.832 90.630 M178.081 85.179 L 175.696 85.317 178.010 85.362 C 179.359 85.387,180.384 85.311,180.466 85.179 C 180.543 85.054,180.574 84.972,180.536 84.996 C 180.497 85.021,179.392 85.103,178.081 85.179 M158.403 90.176 C 158.403 91.488,158.441 92.024,158.487 91.369 C 158.532 90.713,158.532 89.639,158.487 88.984 C 158.441 88.328,158.403 88.864,158.403 90.176 M158.410 103.691 C 158.410 105.565,158.445 106.301,158.488 105.327 C 158.531 104.354,158.531 102.820,158.488 101.920 C 158.445 101.020,158.410 101.817,158.410 103.691 M133.587 103.066 C 133.561 103.568,133.605 103.577,135.889 103.530 L 138.217 103.482 136.017 103.408 C 134.169 103.346,133.801 103.272,133.716 102.945 C 133.641 102.662,133.606 102.695,133.587 103.066 M62.237 110.278 C 62.661 110.716,63.059 111.073,63.121 111.073 C 63.184 111.073,62.888 110.716,62.465 110.278 C 62.041 109.841,61.643 109.483,61.580 109.483 C 61.518 109.483,61.814 109.841,62.237 110.278 M75.699 115.098 C 76.044 115.150,76.555 115.149,76.834 115.095 C 77.114 115.041,76.831 114.998,76.207 115.000 C 75.582 115.001,75.353 115.045,75.699 115.098 M193.697 176.657 C 194.228 176.705,195.097 176.705,195.627 176.657 C 196.158 176.609,195.724 176.570,194.662 176.570 C 193.600 176.570,193.166 176.609,193.697 176.657 M204.379 176.657 C 204.913 176.705,205.730 176.705,206.196 176.656 C 206.661 176.607,206.224 176.568,205.224 176.568 C 204.225 176.569,203.844 176.609,204.379 176.657 M195.517 190.734 C 195.799 190.789,196.208 190.786,196.425 190.730 C 196.642 190.673,196.411 190.628,195.911 190.631 C 195.412 190.633,195.234 190.680,195.517 190.734 M203.694 190.734 C 203.976 190.789,204.385 190.786,204.602 190.730 C 204.819 190.673,204.588 190.628,204.089 190.631 C 203.589 190.633,203.411 190.680,203.694 190.734 M174.730 199.589 C 174.949 199.646,175.307 199.646,175.525 199.589 C 175.744 199.532,175.565 199.485,175.128 199.485 C 174.691 199.485,174.512 199.532,174.730 199.589 M187.394 206.999 C 187.394 207.038,187.726 207.370,188.132 207.737 L 188.870 208.404 188.203 207.666 C 187.581 206.978,187.394 206.823,187.394 206.999 M241.908 206.990 C 241.908 207.025,242.700 207.817,243.668 208.751 L 245.429 210.449 243.731 208.688 C 242.154 207.053,241.908 206.824,241.908 206.990 M149.343 225.383 L 147.076 227.712 149.404 225.444 C 150.684 224.197,151.732 223.150,151.732 223.116 C 151.732 222.952,151.448 223.221,149.343 225.383 M172.956 223.793 L 172.288 224.532 173.027 223.864 C 173.433 223.497,173.765 223.165,173.765 223.126 C 173.765 222.951,173.577 223.105,172.956 223.793 M161.903 224.130 C 162.437 224.178,163.255 224.178,163.720 224.129 C 164.185 224.080,163.748 224.041,162.748 224.042 C 161.749 224.042,161.368 224.082,161.903 224.130 M327.087 227.939 C 327.892 228.751,328.601 229.415,328.664 229.415 C 328.726 229.415,328.119 228.751,327.314 227.939 C 326.509 227.127,325.800 226.462,325.737 226.462 C 325.675 226.462,326.282 227.127,327.087 227.939 M70.297 230.153 L 68.030 232.482 70.358 230.214 C 71.638 228.967,72.686 227.920,72.686 227.886 C 72.686 227.722,72.402 227.991,70.297 230.153 M331.403 232.254 C 332.207 233.066,332.917 233.731,332.979 233.731 C 333.042 233.731,332.435 233.066,331.630 232.254 C 330.825 231.442,330.115 230.778,330.053 230.778 C 329.990 230.778,330.598 231.442,331.403 232.254 M144.974 232.304 C 145.318 232.356,145.880 232.356,146.224 232.304 C 146.567 232.251,146.286 232.209,145.599 232.209 C 144.912 232.209,144.631 232.251,144.974 232.304 M192.277 244.179 C 192.892 244.804,193.447 245.315,193.509 245.315 C 193.572 245.315,193.120 244.804,192.504 244.179 C 191.889 243.555,191.335 243.044,191.272 243.044 C 191.210 243.044,191.662 243.555,192.277 244.179 M165.985 245.475 C 166.266 245.530,166.726 245.530,167.007 245.475 C 167.288 245.421,167.058 245.377,166.496 245.377 C 165.934 245.377,165.704 245.421,165.985 245.475 M180.871 249.744 C 180.873 250.369,180.917 250.598,180.969 250.252 C 181.022 249.907,181.020 249.396,180.966 249.117 C 180.912 248.837,180.870 249.120,180.871 249.744 M184.441 251.292 C 184.441 251.331,184.773 251.663,185.179 252.030 L 185.917 252.697 185.250 251.959 C 184.628 251.271,184.441 251.116,184.441 251.292 M261.722 252.357 C 261.722 252.794,261.769 252.973,261.826 252.754 C 261.883 252.535,261.883 252.178,261.826 251.959 C 261.769 251.740,261.722 251.919,261.722 252.357 M222.204 252.697 C 222.206 253.197,222.253 253.375,222.307 253.092 C 222.361 252.810,222.359 252.401,222.303 252.184 C 222.246 251.966,222.201 252.198,222.204 252.697 M187.734 254.855 C 188.222 255.355,188.673 255.764,188.735 255.764 C 188.797 255.764,188.449 255.355,187.961 254.855 C 187.473 254.355,187.023 253.947,186.961 253.947 C 186.898 253.947,187.246 254.355,187.734 254.855 M138.383 256.899 C 138.383 257.337,138.430 257.516,138.487 257.297 C 138.544 257.078,138.544 256.721,138.487 256.502 C 138.430 256.283,138.383 256.462,138.383 256.899 M234.526 262.805 C 235.141 263.430,235.696 263.941,235.758 263.941 C 235.821 263.941,235.368 263.430,234.753 262.805 C 234.138 262.181,233.583 261.670,233.521 261.670 C 233.458 261.670,233.911 262.181,234.526 262.805 M334.000 268.995 L 333.333 269.733 334.072 269.066 C 334.760 268.444,334.914 268.257,334.739 268.257 C 334.700 268.257,334.367 268.589,334.000 268.995 M66.440 269.847 C 66.927 270.346,67.378 270.755,67.440 270.755 C 67.503 270.755,67.155 270.346,66.667 269.847 C 66.179 269.347,65.728 268.938,65.666 268.938 C 65.603 268.938,65.952 269.347,66.440 269.847 M154.458 274.730 C 154.881 275.168,155.279 275.525,155.342 275.525 C 155.404 275.525,155.109 275.168,154.685 274.730 C 154.261 274.293,153.863 273.935,153.801 273.935 C 153.738 273.935,154.034 274.293,154.458 274.730 M74.276 277.683 C 74.700 278.120,75.098 278.478,75.160 278.478 C 75.223 278.478,74.927 278.120,74.503 277.683 C 74.079 277.246,73.681 276.888,73.619 276.888 C 73.557 276.888,73.852 277.246,74.276 277.683 M231.104 277.626 L 230.437 278.365 231.175 277.697 C 231.864 277.076,232.018 276.888,231.843 276.888 C 231.804 276.888,231.471 277.220,231.104 277.626 M324.460 278.535 L 323.793 279.273 324.532 278.606 C 325.220 277.984,325.374 277.797,325.199 277.797 C 325.160 277.797,324.827 278.129,324.460 278.535 M231.062 299.986 C 231.281 300.043,231.638 300.043,231.857 299.986 C 232.076 299.929,231.897 299.882,231.459 299.882 C 231.022 299.882,230.843 299.929,231.062 299.986 M195.173 301.131 C 195.642 301.180,196.408 301.180,196.877 301.131 C 197.345 301.082,196.962 301.042,196.025 301.042 C 195.088 301.042,194.705 301.082,195.173 301.131 M218.115 306.573 C 218.333 306.631,218.691 306.631,218.910 306.573 C 219.128 306.516,218.949 306.470,218.512 306.470 C 218.075 306.470,217.896 306.516,218.115 306.573 M198.816 314.081 C 199.539 314.126,200.663 314.125,201.314 314.080 C 201.966 314.034,201.374 313.997,200.000 313.998 C 198.626 313.998,198.093 314.035,198.816 314.081 M190.857 327.243 C 191.076 327.301,191.434 327.301,191.652 327.243 C 191.871 327.186,191.692 327.140,191.255 327.140 C 190.818 327.140,190.639 327.186,190.857 327.243 M208.120 327.243 C 208.339 327.301,208.697 327.301,208.915 327.243 C 209.134 327.186,208.955 327.140,208.518 327.140 C 208.081 327.140,207.902 327.186,208.120 327.243 M198.807 327.481 C 199.401 327.528,200.372 327.528,200.965 327.481 C 201.559 327.434,201.073 327.396,199.886 327.396 C 198.700 327.396,198.214 327.434,198.807 327.481 " stroke="none" fill="#a4c2a4" fill-rule="evenodd"></path><path id="path4" d="M133.210 50.085 C 133.210 55.457,133.240 57.622,133.276 54.897 C 133.313 52.171,133.313 47.776,133.276 45.129 C 133.240 42.483,133.210 44.713,133.210 50.085 M138.758 45.266 C 138.857 45.365,140.053 45.415,141.416 45.379 L 143.896 45.313 141.237 45.200 C 139.775 45.139,138.659 45.168,138.758 45.266 M139.977 53.092 C 140.696 53.137,141.871 53.137,142.589 53.092 C 143.308 53.047,142.720 53.010,141.283 53.010 C 139.847 53.010,139.259 53.047,139.977 53.092 M154.752 62.179 C 155.726 62.222,157.259 62.222,158.159 62.179 C 159.059 62.136,158.262 62.101,156.388 62.101 C 154.514 62.101,153.778 62.137,154.752 62.179 M240.034 62.179 C 241.065 62.221,242.751 62.221,243.782 62.179 C 244.813 62.137,243.969 62.103,241.908 62.103 C 239.847 62.103,239.003 62.137,240.034 62.179 M69.831 71.437 C 69.831 74.310,69.863 75.454,69.903 73.979 C 69.942 72.504,69.942 70.153,69.903 68.755 C 69.863 67.357,69.830 68.563,69.831 71.437 M71.721 76.716 C 72.501 76.760,73.779 76.760,74.560 76.716 C 75.341 76.671,74.702 76.635,73.140 76.635 C 71.579 76.635,70.940 76.671,71.721 76.716 M180.433 83.021 C 180.432 84.145,180.470 84.634,180.518 84.107 C 180.566 83.580,180.566 82.660,180.519 82.063 C 180.472 81.465,180.433 81.897,180.433 83.021 M134.412 108.061 C 135.193 108.106,136.471 108.106,137.252 108.061 C 138.032 108.017,137.394 107.981,135.832 107.981 C 134.270 107.981,133.631 108.017,134.412 108.061 M178.595 199.368 C 178.940 199.420,179.451 199.419,179.731 199.365 C 180.010 199.311,179.727 199.268,179.103 199.270 C 178.478 199.272,178.250 199.316,178.595 199.368 M249.229 241.908 C 249.229 242.345,249.276 242.524,249.333 242.306 C 249.390 242.087,249.390 241.729,249.333 241.511 C 249.276 241.292,249.229 241.471,249.229 241.908 M329.354 273.878 L 327.200 276.093 329.415 273.940 C 330.633 272.755,331.630 271.759,331.630 271.725 C 331.630 271.561,331.354 271.822,329.354 273.878 M195.741 327.478 C 196.147 327.529,196.811 327.529,197.217 327.478 C 197.624 327.428,197.291 327.387,196.479 327.387 C 195.667 327.387,195.335 327.428,195.741 327.478 M202.555 327.478 C 202.961 327.529,203.626 327.529,204.032 327.478 C 204.438 327.428,204.106 327.387,203.294 327.387 C 202.482 327.387,202.149 327.428,202.555 327.478 " stroke="none" fill="#98bc9b" fill-rule="evenodd"></path></g></svg>