<svg id="svg" version="1.1" xmlns="http://www.w3.org/2000/svg" xmlns:xlink="http://www.w3.org/1999/xlink" width="400" height="400" viewBox="0, 0, 400,400"><g id="svgg"><path id="path0" d="M131.875 52.500 L 131.875 69.063 137.969 69.063 L 144.063 69.063 144.063 66.886 L 144.063 64.709 140.703 64.620 L 137.344 64.531 137.262 50.234 L 137.181 35.938 134.528 35.938 L 131.875 35.938 131.875 52.500 M146.563 52.512 L 146.563 69.087 149.297 68.997 L 152.031 68.906 152.112 52.422 L 152.193 35.938 149.378 35.938 L 146.563 35.938 146.563 52.512 M155.313 52.500 L 155.313 69.063 158.125 69.063 L 160.938 69.063 160.938 61.719 L 160.938 54.375 163.750 54.375 L 166.563 54.375 166.563 52.188 L 166.563 50.000 163.750 50.000 L 160.938 50.000 160.938 45.156 L 160.938 40.313 164.688 40.313 L 168.438 40.313 168.438 38.125 L 168.438 35.938 161.875 35.938 L 155.313 35.938 155.313 52.500 M170.938 52.500 L 170.938 69.063 177.500 69.063 L 184.063 69.063 184.063 66.885 L 184.063 64.707 180.234 64.619 L 176.406 64.531 176.320 59.453 L 176.235 54.375 179.055 54.375 L 181.875 54.375 181.875 52.188 L 181.875 50.000 179.063 50.000 L 176.250 50.000 176.250 45.156 L 176.250 40.313 180.156 40.313 L 184.063 40.313 184.063 38.125 L 184.063 35.938 177.500 35.938 L 170.938 35.938 170.938 52.500 M37.734 43.498 L 31.563 50.728 31.574 57.630 L 31.585 64.531 36.253 59.766 C 38.820 57.145,40.994 55.000,41.085 55.000 C 41.176 55.000,41.250 68.641,41.250 85.313 L 41.250 115.625 47.813 115.625 L 54.375 115.625 54.375 75.938 L 54.375 36.250 49.141 36.259 L 43.906 36.268 37.734 43.498 M83.424 38.310 C 82.916 39.444,82.500 40.427,82.500 40.496 C 82.500 40.564,81.151 44.032,79.502 48.201 C 77.854 52.370,75.477 58.383,74.221 61.563 C 72.965 64.742,70.572 70.789,68.903 75.000 C 67.235 79.211,64.831 85.303,63.560 88.538 L 61.250 94.420 61.250 98.616 L 61.250 102.813 72.969 102.813 L 84.688 102.813 84.688 109.219 L 84.688 115.625 90.938 115.625 L 97.188 115.625 97.188 109.219 L 97.188 102.813 99.844 102.813 L 102.500 102.813 102.500 97.669 L 102.500 92.525 99.922 92.435 L 97.344 92.344 97.264 64.297 L 97.184 36.250 90.767 36.250 L 84.349 36.250 83.424 38.310 M84.857 92.109 C 84.723 92.459,72.813 92.745,72.813 92.398 C 72.813 92.202,74.353 87.899,77.027 80.625 C 78.512 76.586,80.616 70.820,81.701 67.813 C 85.169 58.208,84.831 57.374,84.925 75.781 C 84.970 84.547,84.939 91.895,84.857 92.109 M186.406 82.622 C 184.964 83.252,183.481 84.633,182.721 86.055 C 181.649 88.058,181.645 109.747,182.716 111.748 C 185.960 117.810,196.037 117.033,197.955 110.573 C 198.661 108.195,198.661 89.617,197.955 87.240 C 196.717 83.071,190.796 80.704,186.406 82.622 M131.875 99.083 L 131.875 115.704 137.266 115.539 C 146.821 115.246,147.965 114.253,147.968 106.250 C 147.969 101.177,147.539 99.937,145.431 98.934 L 144.143 98.321 145.087 97.676 C 146.899 96.437,147.226 95.330,147.123 90.781 C 146.957 83.464,146.076 82.703,137.602 82.559 L 131.875 82.461 131.875 99.083 M151.013 98.984 L 151.094 115.469 157.578 115.553 L 164.063 115.638 164.063 113.288 L 164.063 110.938 160.313 110.938 L 156.563 110.938 156.563 105.938 L 156.563 100.938 159.219 100.938 L 161.875 100.938 161.875 98.750 L 161.875 96.563 159.219 96.563 L 156.563 96.563 156.563 91.719 L 156.563 86.875 160.313 86.875 L 164.063 86.875 164.063 84.688 L 164.063 82.500 157.497 82.500 L 150.932 82.500 151.013 98.984 M167.188 99.063 L 167.188 115.625 173.281 115.625 L 179.375 115.625 179.375 113.281 L 179.375 110.938 176.094 110.938 L 172.813 110.938 172.813 96.719 L 172.813 82.500 170.000 82.500 L 167.188 82.500 167.188 99.063 M200.631 82.891 C 200.634 83.105,200.988 85.813,201.417 88.906 C 201.847 92.000,202.398 96.078,202.643 97.969 C 203.323 103.233,204.661 113.140,204.869 114.453 L 205.055 115.625 207.506 115.625 C 210.411 115.625,210.019 116.337,211.086 109.112 C 212.136 102.002,213.145 95.813,213.276 95.682 C 213.460 95.498,213.680 96.605,214.536 102.031 C 214.997 104.953,215.678 109.172,216.049 111.406 L 216.724 115.469 219.279 115.559 L 221.833 115.650 222.006 114.309 C 222.102 113.572,222.531 110.297,222.961 107.031 C 223.390 103.766,223.964 99.336,224.236 97.188 C 224.508 95.039,225.002 91.172,225.334 88.594 C 226.194 81.911,226.347 82.500,223.750 82.500 C 222.547 82.500,221.563 82.554,221.563 82.620 C 221.563 82.687,221.150 86.097,220.646 90.199 C 220.141 94.300,219.634 98.546,219.518 99.634 C 219.102 103.548,218.894 103.530,218.311 99.531 C 218.010 97.469,217.427 93.531,217.017 90.781 C 216.606 88.031,216.177 85.043,216.063 84.141 L 215.857 82.500 213.553 82.500 C 212.287 82.500,211.250 82.616,211.250 82.757 C 211.250 82.899,210.899 85.676,210.470 88.929 C 210.041 92.182,209.472 96.531,209.206 98.594 C 208.456 104.412,208.486 104.468,207.366 95.156 C 206.911 91.375,206.379 86.980,206.184 85.391 L 205.829 82.500 203.227 82.500 C 201.351 82.500,200.627 82.609,200.631 82.891 M233.130 82.722 C 233.139 83.162,234.311 92.134,235.469 100.625 C 236.091 105.180,236.740 110.102,236.913 111.563 C 237.438 116.014,237.143 115.625,240.000 115.625 C 242.328 115.625,242.498 115.580,242.637 114.922 C 242.718 114.535,243.066 112.391,243.409 110.156 C 245.492 96.595,245.739 95.207,245.963 95.792 C 246.092 96.130,246.652 99.430,247.208 103.125 C 247.764 106.820,248.448 111.109,248.726 112.656 L 249.234 115.469 251.770 115.559 L 254.307 115.649 254.651 113.059 C 254.840 111.634,255.208 108.781,255.468 106.719 C 256.015 102.385,257.289 92.649,257.962 87.656 C 258.705 82.142,258.822 82.500,256.286 82.500 L 254.134 82.500 253.786 84.922 C 253.595 86.254,253.076 90.438,252.634 94.219 C 251.545 103.523,251.456 103.900,251.001 101.094 C 250.609 98.679,250.057 94.867,249.019 87.422 L 248.333 82.500 246.060 82.500 L 243.788 82.500 243.615 83.828 C 243.520 84.559,243.025 88.320,242.515 92.188 C 242.005 96.055,241.493 100.047,241.378 101.059 C 241.068 103.766,240.780 102.762,239.998 96.250 C 239.616 93.070,239.074 88.711,238.793 86.563 L 238.281 82.656 235.703 82.565 C 234.285 82.516,233.127 82.586,233.130 82.722 M264.083 84.766 C 263.718 86.877,262.232 94.786,259.556 108.850 C 258.941 112.084,258.438 114.932,258.438 115.178 C 258.438 115.528,258.973 115.625,260.904 115.625 C 263.719 115.625,263.411 115.993,264.100 111.797 L 264.497 109.375 267.523 109.375 L 270.549 109.375 270.941 111.953 C 271.510 115.689,271.450 115.625,274.368 115.625 C 277.397 115.625,277.263 115.895,276.392 111.563 C 275.995 109.586,274.954 104.172,274.079 99.531 C 273.204 94.891,272.109 89.160,271.646 86.797 L 270.802 82.500 267.639 82.500 L 264.475 82.500 264.083 84.766 M276.563 84.688 L 276.563 86.875 278.747 86.875 L 280.931 86.875 281.012 101.172 L 281.094 115.469 283.750 115.469 L 286.406 115.469 286.488 101.186 L 286.569 86.902 288.831 86.811 L 291.094 86.719 291.186 84.609 L 291.279 82.500 283.921 82.500 L 276.563 82.500 276.563 84.688 M293.750 99.069 L 293.750 115.637 300.391 115.553 L 307.031 115.469 307.123 113.203 L 307.215 110.938 303.295 110.938 L 299.375 110.938 299.375 105.950 L 299.375 100.962 302.109 100.872 L 304.844 100.781 304.936 98.684 L 305.028 96.587 302.280 96.497 L 299.531 96.406 299.445 91.650 L 299.359 86.894 303.195 86.807 L 307.031 86.719 307.124 84.609 L 307.216 82.500 300.483 82.500 L 293.750 82.500 293.750 99.069 M310.313 99.038 L 310.313 115.625 312.969 115.625 L 315.625 115.625 315.635 108.047 C 315.640 103.879,315.759 100.680,315.900 100.938 C 316.040 101.195,317.181 104.430,318.435 108.125 C 319.688 111.820,320.852 115.020,321.020 115.234 C 321.391 115.707,326.563 115.788,326.563 115.321 C 326.563 115.153,325.438 111.836,324.063 107.949 C 321.200 99.857,321.329 100.439,322.338 100.186 C 324.967 99.526,326.115 96.463,325.865 90.770 C 325.553 83.662,324.407 82.704,316.040 82.553 L 310.313 82.450 310.313 99.038 M191.762 87.019 C 193.072 87.936,193.155 88.728,193.059 99.497 L 192.969 109.742 192.092 110.496 C 191.538 110.972,190.825 111.250,190.156 111.250 C 189.488 111.250,188.774 110.972,188.221 110.496 L 187.344 109.742 187.253 99.497 C 187.146 87.367,187.326 86.563,190.156 86.563 C 190.681 86.563,191.404 86.768,191.762 87.019 M141.250 87.500 C 141.798 88.048,141.875 88.542,141.875 91.493 C 141.875 95.854,141.640 96.250,139.045 96.250 L 137.188 96.250 137.188 91.563 L 137.188 86.875 138.906 86.875 C 140.208 86.875,140.777 87.027,141.250 87.500 M319.545 87.642 C 320.272 88.368,320.313 88.602,320.313 92.031 C 320.313 96.485,319.888 97.188,317.202 97.188 L 315.625 97.188 315.625 92.031 L 315.625 86.875 317.202 86.875 C 318.459 86.875,318.934 87.030,319.545 87.642 M268.579 97.734 C 269.075 100.785,269.543 103.668,269.620 104.141 L 269.758 105.000 267.535 105.000 C 266.313 105.000,265.310 104.895,265.306 104.766 C 265.285 103.932,267.308 92.188,267.473 92.188 C 267.585 92.188,268.083 94.684,268.579 97.734 M141.863 101.309 C 142.432 101.920,142.500 102.400,142.500 105.817 C 142.500 110.473,142.184 110.938,139.020 110.938 L 137.188 110.938 137.188 105.781 L 137.188 100.625 139.207 100.625 C 140.881 100.625,141.334 100.742,141.863 101.309 M139.482 161.485 C 127.005 172.232,112.248 174.147,96.030 167.125 C 92.814 165.732,92.813 165.734,92.813 171.854 C 92.813 177.366,92.685 177.016,95.469 179.146 C 108.475 189.100,124.575 187.544,138.792 174.960 C 141.315 172.726,140.989 172.723,143.616 175.007 C 159.112 188.476,179.514 188.153,196.751 174.165 C 198.405 172.823,198.426 172.826,201.052 174.801 C 218.936 188.246,238.641 188.305,253.430 174.957 C 255.932 172.699,255.777 172.693,258.447 175.143 C 272.009 187.590,288.090 189.033,301.600 179.016 L 304.063 177.190 304.063 172.071 C 304.063 165.705,304.075 165.724,300.845 167.130 C 284.659 174.180,270.112 172.267,257.332 161.407 C 255.937 160.221,254.791 159.467,254.580 159.597 C 254.381 159.720,252.911 160.707,251.313 161.790 C 233.609 173.792,215.179 173.663,200.938 161.440 C 198.449 159.304,198.504 159.304,196.142 161.364 C 182.091 173.616,163.201 173.778,145.584 161.797 C 143.974 160.702,142.494 159.709,142.295 159.590 C 142.087 159.466,140.891 160.272,139.482 161.485 M140.399 193.205 C 127.582 204.588,112.383 206.790,96.030 199.635 C 92.812 198.227,92.813 198.226,92.813 204.397 L 92.813 209.343 93.828 210.311 C 105.606 221.528,123.281 220.577,138.177 207.925 C 141.405 205.184,140.938 205.232,143.438 207.375 C 159.268 220.947,179.653 220.680,196.751 206.675 C 198.409 205.317,198.298 205.296,201.487 207.593 C 219.721 220.732,238.168 220.766,253.125 207.689 C 255.993 205.181,255.738 205.181,258.505 207.682 C 272.289 220.143,288.261 221.548,301.626 211.477 L 304.063 209.641 304.063 204.546 C 304.063 198.206,304.072 198.221,300.845 199.638 C 284.976 206.602,270.198 204.718,257.688 194.134 C 255.815 192.549,254.786 191.873,254.538 192.062 C 236.306 206.004,216.093 206.819,201.274 194.210 C 198.698 192.018,198.213 191.851,197.314 192.848 C 194.801 195.634,187.062 200.286,182.649 201.663 C 170.860 205.341,155.999 202.059,143.868 193.097 C 141.862 191.615,142.201 191.604,140.399 193.205 M93.828 243.320 C 93.124 243.626,93.417 244.902,94.659 246.948 C 100.995 257.377,106.181 271.587,107.855 283.105 C 110.053 298.234,105.358 317.276,95.035 335.103 C 92.290 339.844,93.014 340.274,100.884 338.576 C 117.061 335.086,132.233 323.124,141.985 306.172 C 142.985 304.434,143.092 304.408,144.442 305.573 C 158.919 318.063,185.134 332.019,203.147 336.826 C 237.837 346.084,274.094 330.971,303.100 295.164 C 306.447 291.032,306.552 291.541,300.975 284.844 C 285.428 266.173,264.034 251.467,244.219 245.827 C 216.319 237.887,181.934 248.180,147.385 274.815 C 145.001 276.652,143.001 278.105,142.940 278.044 C 142.878 277.982,142.031 276.605,141.058 274.982 C 134.462 263.987,123.731 253.598,113.869 248.660 C 107.379 245.410,95.996 242.376,93.828 243.320 M251.994 270.785 C 260.594 273.025,264.455 283.398,259.414 290.724 C 254.652 297.646,244.975 298.508,239.264 292.521 C 229.958 282.764,238.962 267.390,251.994 270.785 " stroke="none" fill="#fafbfb" fill-rule="evenodd"></path><path id="path1" d="M0.000 200.000 L 0.000 400.000 200.000 400.000 L 400.000 400.000 400.000 200.000 L 400.000 0.000 200.000 0.000 L 0.000 0.000 0.000 200.000 M137.500 50.000 L 137.500 64.375 140.781 64.375 L 144.063 64.375 144.063 66.882 L 144.063 69.388 137.891 69.303 L 131.719 69.219 131.638 52.422 L 131.557 35.625 134.529 35.625 L 137.500 35.625 137.500 50.000 M152.430 51.875 C 152.535 71.420,152.896 69.421,149.288 69.308 L 146.406 69.219 146.325 52.411 L 146.245 35.602 149.294 35.692 L 152.344 35.781 152.430 51.875 M168.438 38.125 L 168.438 40.625 164.688 40.625 L 160.938 40.625 160.938 45.145 L 160.938 49.664 163.828 49.754 L 166.719 49.844 166.811 52.109 L 166.902 54.375 163.920 54.375 L 160.938 54.375 160.938 61.887 L 160.938 69.398 158.047 69.309 L 155.156 69.219 155.075 52.813 C 155.030 43.789,155.061 36.230,155.143 36.016 C 155.256 35.720,156.895 35.625,161.865 35.625 L 168.438 35.625 168.438 38.125 M184.219 38.125 L 184.219 40.469 180.391 40.556 L 176.563 40.644 176.563 45.166 L 176.563 49.688 179.375 49.688 L 182.188 49.688 182.188 52.031 L 182.188 54.375 179.375 54.375 L 176.563 54.375 176.563 59.375 L 176.563 64.375 180.482 64.375 L 184.401 64.375 184.310 66.797 L 184.219 69.219 177.500 69.219 L 170.781 69.219 170.700 52.416 L 170.620 35.613 177.419 35.697 L 184.219 35.781 184.219 38.125 M54.611 76.016 L 54.531 115.781 47.813 115.781 L 41.094 115.781 41.014 85.588 L 40.934 55.394 37.108 59.312 C 31.717 64.831,31.861 64.688,31.705 64.688 C 31.626 64.688,31.563 61.457,31.563 57.508 L 31.563 50.329 33.516 48.057 C 34.590 46.807,35.680 45.569,35.938 45.305 C 36.195 45.041,38.017 42.896,39.986 40.538 L 43.566 36.250 49.128 36.250 L 54.690 36.250 54.611 76.016 M97.500 64.219 L 97.500 92.188 100.156 92.188 L 102.813 92.188 102.813 97.500 L 102.813 102.813 100.163 102.813 L 97.513 102.813 97.428 109.297 L 97.344 115.781 90.938 115.781 L 84.531 115.781 84.447 109.297 L 84.362 102.813 72.650 102.813 L 60.938 102.813 60.938 98.572 C 60.938 94.003,60.921 94.071,63.621 87.773 C 64.036 86.807,64.375 85.910,64.375 85.781 C 64.375 85.652,64.717 84.756,65.136 83.789 C 66.208 81.314,70.625 70.120,70.625 69.880 C 70.625 69.770,70.896 69.085,71.226 68.356 C 71.557 67.627,72.625 64.992,73.600 62.500 C 77.968 51.332,80.075 45.992,80.628 44.688 C 80.956 43.914,81.661 42.156,82.196 40.781 C 82.731 39.406,83.367 37.824,83.610 37.266 L 84.052 36.250 90.776 36.250 L 97.500 36.250 97.500 64.219 M84.234 61.484 C 84.120 61.957,83.324 64.242,82.466 66.563 C 81.608 68.883,80.569 71.695,80.156 72.813 C 79.744 73.930,78.689 76.813,77.813 79.219 C 75.178 86.452,74.768 87.566,73.929 89.769 C 73.487 90.931,73.125 91.950,73.125 92.035 C 73.125 92.119,75.727 92.188,78.906 92.188 L 84.688 92.188 84.688 76.406 C 84.688 60.902,84.653 59.759,84.234 61.484 M194.138 82.570 C 195.971 83.349,197.648 85.157,198.186 86.935 C 198.771 88.866,198.766 108.960,198.181 110.896 C 196.074 117.867,184.448 117.732,182.055 110.708 C 181.463 108.973,181.325 89.463,181.889 87.430 C 183.197 82.722,189.039 80.405,194.138 82.570 M144.375 83.125 C 147.931 85.100,148.855 94.333,145.802 97.385 L 144.785 98.402 145.651 98.761 C 147.686 99.604,148.125 100.924,148.125 106.204 C 148.125 114.554,147.206 115.382,137.734 115.569 L 131.563 115.690 131.563 98.914 L 131.563 82.138 137.266 82.241 C 142.667 82.338,143.043 82.385,144.375 83.125 M164.310 84.609 L 164.219 87.031 160.391 87.119 L 156.563 87.207 156.563 91.728 L 156.563 96.250 159.388 96.250 L 162.214 96.250 162.123 98.672 L 162.031 101.094 159.297 101.184 L 156.563 101.274 156.563 106.106 L 156.563 110.938 160.469 110.938 L 164.375 110.938 164.375 113.281 L 164.375 115.625 157.500 115.625 L 150.625 115.625 150.625 98.906 L 150.625 82.188 157.513 82.188 L 164.401 82.188 164.310 84.609 M173.050 96.641 L 173.131 110.938 176.253 110.938 L 179.375 110.938 179.375 113.281 L 179.375 115.625 173.125 115.625 L 166.875 115.625 166.875 98.895 L 166.875 82.165 169.922 82.254 L 172.969 82.344 173.050 96.641 M206.075 83.203 C 206.380 85.068,207.432 93.239,207.815 96.719 C 208.349 101.567,208.560 101.558,209.191 96.656 C 210.020 90.222,210.929 83.686,211.106 82.891 C 211.250 82.239,211.431 82.188,213.566 82.188 C 216.301 82.188,216.082 81.855,216.735 86.979 C 217.001 89.070,217.482 92.398,217.803 94.375 C 218.124 96.352,218.495 98.953,218.628 100.156 C 218.760 101.359,218.915 101.992,218.971 101.563 C 219.252 99.416,220.624 88.199,220.949 85.391 L 221.320 82.188 223.785 82.188 L 226.250 82.188 226.255 83.203 C 226.257 83.762,225.915 86.680,225.495 89.688 C 224.804 94.629,224.299 98.474,222.630 111.484 L 222.098 115.625 219.205 115.625 L 216.311 115.625 216.100 113.672 C 215.984 112.598,215.563 109.820,215.164 107.500 C 214.765 105.180,214.274 102.109,214.074 100.675 C 213.477 96.412,213.287 96.366,212.688 100.336 C 212.391 102.300,211.812 106.016,211.399 108.594 C 210.987 111.172,210.609 113.773,210.559 114.375 L 210.469 115.469 207.634 115.558 L 204.799 115.647 204.100 110.558 C 203.716 107.759,203.058 102.938,202.639 99.844 C 202.219 96.750,201.522 91.688,201.089 88.594 C 200.657 85.500,200.305 82.793,200.308 82.578 C 200.311 82.295,201.083 82.188,203.111 82.188 L 205.909 82.188 206.075 83.203 M238.684 83.594 C 238.734 84.281,239.109 87.305,239.519 90.313 C 239.929 93.320,240.361 96.954,240.479 98.387 C 240.776 101.967,241.045 101.341,241.866 95.156 C 242.254 92.234,242.805 88.156,243.092 86.094 L 243.612 82.344 245.988 82.253 C 248.756 82.148,248.422 81.638,249.225 87.188 C 249.511 89.164,250.083 92.914,250.497 95.521 C 250.911 98.128,251.250 100.717,251.250 101.276 C 251.250 103.180,251.503 102.037,251.844 98.594 C 252.032 96.703,252.462 93.047,252.801 90.469 C 253.139 87.891,253.502 84.973,253.606 83.984 L 253.795 82.188 256.272 82.188 L 258.750 82.188 258.750 83.136 C 258.750 83.657,258.484 85.942,258.159 88.214 C 257.834 90.485,257.190 95.297,256.728 98.906 C 256.266 102.516,255.581 107.719,255.205 110.469 L 254.522 115.469 251.636 115.559 L 248.750 115.648 248.750 114.804 C 248.750 114.340,248.413 111.979,248.001 109.558 C 247.588 107.137,246.923 103.188,246.523 100.781 L 245.794 96.406 245.418 98.750 C 244.723 103.085,243.475 111.393,243.281 112.969 C 242.939 115.756,243.100 115.625,240.013 115.625 L 237.255 115.625 236.770 112.109 C 236.503 110.176,235.914 105.781,235.461 102.344 C 235.009 98.906,234.374 94.266,234.050 92.031 C 233.726 89.797,233.381 87.266,233.282 86.406 C 233.183 85.547,233.027 84.241,232.936 83.504 L 232.771 82.163 235.682 82.254 L 238.594 82.344 238.684 83.594 M271.382 83.672 C 271.493 84.488,271.937 86.984,272.367 89.219 C 272.797 91.453,273.508 95.180,273.948 97.500 C 276.810 112.620,277.218 114.705,277.419 115.234 C 277.531 115.531,276.811 115.625,274.434 115.625 L 271.302 115.625 270.963 114.047 C 270.777 113.179,270.625 112.066,270.625 111.573 C 270.625 109.774,270.481 109.688,267.492 109.688 L 264.739 109.688 264.426 111.172 C 264.254 111.988,264.016 113.324,263.896 114.141 L 263.679 115.625 260.902 115.625 C 258.891 115.625,258.124 115.517,258.121 115.234 C 258.118 115.020,258.462 113.086,258.884 110.938 C 259.307 108.789,260.024 105.063,260.478 102.656 C 263.044 89.054,263.678 85.740,264.081 83.828 L 264.427 82.188 267.803 82.188 L 271.179 82.188 271.382 83.672 M291.498 84.609 L 291.406 87.031 289.141 87.123 L 286.875 87.215 286.875 101.420 L 286.875 115.625 283.906 115.625 L 280.938 115.625 280.938 101.406 L 280.938 87.188 278.594 87.188 L 276.250 87.188 276.250 84.688 L 276.250 82.188 283.919 82.188 L 291.589 82.188 291.498 84.609 M307.344 84.688 L 307.344 87.031 303.516 87.119 L 299.688 87.207 299.688 91.728 L 299.688 96.250 302.344 96.250 L 305.000 96.250 305.000 98.750 L 305.000 101.250 302.344 101.250 L 299.688 101.250 299.688 106.094 L 299.688 110.938 303.594 110.938 L 307.500 110.938 307.500 113.281 L 307.500 115.625 300.625 115.625 L 293.750 115.625 293.750 98.900 L 293.750 82.175 300.547 82.260 L 307.344 82.344 307.344 84.688 M321.968 82.816 C 327.415 84.854,328.178 97.410,323.016 100.053 C 322.166 100.489,321.859 100.823,321.970 101.194 C 322.139 101.762,324.399 108.218,325.927 112.497 C 326.449 113.957,326.875 115.258,326.875 115.388 C 326.875 115.518,325.494 115.625,323.805 115.625 L 320.735 115.625 319.593 112.266 C 318.965 110.418,317.921 107.381,317.273 105.516 L 316.094 102.127 316.010 108.876 L 315.925 115.625 312.963 115.625 L 310.000 115.625 310.000 98.906 L 310.000 82.188 315.145 82.188 C 319.533 82.188,320.536 82.280,321.968 82.816 M188.267 87.642 L 187.500 88.409 187.500 98.875 L 187.500 109.340 188.241 110.201 C 189.199 111.315,190.934 111.392,191.960 110.366 C 192.653 109.673,192.656 109.622,192.656 98.870 L 192.656 88.070 191.919 87.472 C 190.866 86.620,189.212 86.697,188.267 87.642 M137.500 91.563 L 137.500 95.938 139.040 95.938 C 141.364 95.938,141.563 95.595,141.563 91.589 C 141.563 87.608,141.314 87.188,138.960 87.188 L 137.500 87.188 137.500 91.563 M315.938 92.228 L 315.938 97.269 317.356 97.109 C 319.773 96.836,320.000 96.415,320.000 92.209 C 320.000 87.684,319.751 87.188,317.482 87.188 L 315.938 87.188 315.938 92.228 M266.888 96.016 C 266.681 97.605,266.262 100.172,265.956 101.719 C 265.285 105.123,265.226 105.000,267.529 105.000 L 269.397 105.000 269.209 103.359 C 268.995 101.495,267.473 93.125,267.347 93.125 C 267.302 93.125,267.095 94.426,266.888 96.016 M137.500 105.976 L 137.500 111.015 139.237 110.871 C 141.838 110.655,142.316 110.036,142.454 106.698 C 142.660 101.764,142.215 100.938,139.353 100.938 L 137.500 100.938 137.500 105.976 M143.648 160.078 C 153.935 168.266,169.105 172.323,179.688 169.715 C 186.121 168.130,190.190 165.970,196.344 160.876 C 197.342 160.050,198.230 159.375,198.318 159.375 C 198.671 159.375,199.714 160.055,200.537 160.821 C 214.261 173.599,234.302 173.619,252.267 160.873 C 254.950 158.969,254.827 158.952,258.055 161.674 C 270.829 172.445,284.124 173.787,302.553 166.164 C 304.203 165.482,304.375 166.020,304.375 171.859 L 304.375 177.078 302.422 178.640 C 289.167 189.241,273.607 188.260,258.906 175.896 C 257.617 174.812,256.563 173.816,256.563 173.681 C 256.563 172.971,255.294 173.706,252.430 176.076 C 237.119 188.750,217.972 188.206,200.388 174.598 L 198.454 173.101 196.493 174.620 C 178.106 188.856,156.674 188.594,142.034 173.954 C 141.254 173.174,140.941 173.296,138.906 175.171 C 125.198 187.801,107.882 189.300,94.870 178.983 L 92.500 177.104 92.500 172.012 C 92.500 165.729,92.738 165.254,95.247 166.525 C 106.145 172.047,120.049 172.385,130.156 167.374 C 134.116 165.411,139.339 161.770,140.909 159.879 C 141.496 159.171,142.611 159.252,143.648 160.078 M144.812 193.437 C 147.042 195.063,153.046 198.490,154.385 198.902 C 154.809 199.032,155.297 199.249,155.469 199.384 C 155.641 199.518,157.258 200.117,159.063 200.714 C 172.491 205.158,183.968 203.173,194.885 194.520 C 198.967 191.284,198.179 191.249,202.551 194.865 C 214.719 204.930,233.825 205.562,247.656 196.358 C 255.596 191.074,254.831 191.306,257.188 193.460 C 269.080 204.332,286.305 206.504,301.530 199.051 C 304.188 197.750,304.375 198.098,304.375 204.331 L 304.375 209.612 303.047 210.694 C 288.923 222.196,270.689 220.543,256.785 206.502 C 255.968 205.678,255.831 205.735,253.028 208.070 C 250.767 209.954,249.655 210.769,246.563 212.813 C 245.491 213.521,242.450 214.901,239.969 215.806 C 228.121 220.125,212.528 216.738,200.674 207.271 C 198.561 205.582,198.615 205.576,195.587 207.822 C 177.339 221.352,156.622 220.834,142.115 206.484 C 141.289 205.667,141.110 205.746,138.177 208.242 C 123.295 220.908,107.446 221.784,93.828 210.694 L 92.500 209.612 92.505 204.572 C 92.507 201.799,92.613 199.374,92.739 199.183 C 93.229 198.440,94.274 198.433,95.650 199.165 C 109.484 206.520,127.953 204.185,139.531 193.615 C 141.844 191.504,142.147 191.494,144.812 193.437 M227.344 242.797 C 251.677 244.372,274.959 256.683,296.223 279.219 C 300.648 283.908,305.938 290.529,305.938 291.378 C 305.938 294.357,286.981 313.473,276.757 320.803 C 272.368 323.950,271.308 324.650,267.495 326.918 C 246.647 339.315,226.520 342.733,205.000 337.532 C 187.050 333.193,166.089 322.459,147.119 307.891 C 142.609 304.427,143.283 304.464,141.422 307.578 C 131.554 324.099,115.845 336.083,100.313 338.939 C 92.941 340.295,91.799 339.803,94.075 336.250 C 95.139 334.589,99.889 325.325,100.484 323.750 C 100.712 323.148,101.340 321.602,101.881 320.313 C 110.582 299.564,110.150 281.051,100.445 258.862 C 99.501 256.703,95.362 248.421,95.002 247.969 C 91.609 243.713,92.785 242.324,98.850 243.424 C 115.799 246.495,132.140 258.712,141.567 275.359 C 142.282 276.623,142.920 277.709,142.984 277.774 C 143.048 277.839,143.774 277.336,144.597 276.656 C 148.765 273.216,159.113 266.034,164.844 262.603 C 177.084 255.276,187.303 250.520,198.906 246.752 C 204.385 244.973,213.300 243.254,219.219 242.835 C 221.109 242.701,222.727 242.574,222.813 242.553 C 222.898 242.531,224.938 242.641,227.344 242.797 M246.094 270.774 C 234.065 273.457,231.786 288.673,242.500 294.764 C 247.289 297.486,254.204 296.309,257.958 292.134 C 266.213 282.952,257.976 268.123,246.094 270.774 " stroke="none" fill="#047cbc" fill-rule="evenodd"></path><path id="path2" d="M146.393 36.016 C 146.311 36.230,146.280 43.789,146.325 52.813 L 146.407 69.219 146.563 52.422 C 146.648 43.183,146.679 35.625,146.631 35.625 C 146.582 35.625,146.476 35.801,146.393 36.016 M184.123 38.037 L 184.063 40.293 180.234 40.392 L 176.406 40.490 180.244 40.557 C 184.644 40.635,184.462 40.760,184.295 37.780 L 184.183 35.781 184.123 38.037 M54.527 76.094 C 54.527 97.922,54.564 106.805,54.609 95.835 C 54.655 84.865,54.655 67.005,54.609 56.148 C 54.564 45.290,54.527 54.266,54.527 76.094 M162.747 40.544 C 163.828 40.605,165.515 40.605,166.497 40.543 C 167.478 40.481,166.594 40.431,164.531 40.432 C 162.469 40.432,161.666 40.483,162.747 40.544 M181.872 52.124 L 182.025 54.531 182.122 52.375 C 182.175 51.189,182.106 50.105,181.968 49.967 C 181.831 49.829,181.788 50.799,181.872 52.124 M36.074 60.078 L 35.156 61.094 36.172 60.176 C 36.730 59.671,37.188 59.214,37.188 59.160 C 37.188 58.919,36.930 59.131,36.074 60.078 M184.165 66.719 C 184.166 67.922,184.223 68.376,184.291 67.727 C 184.358 67.079,184.357 66.095,184.288 65.540 C 184.219 64.985,184.164 65.516,184.165 66.719 M150.771 99.063 C 150.771 108.258,150.810 112.020,150.859 107.422 C 150.908 102.824,150.908 95.301,150.859 90.703 C 150.810 86.105,150.771 89.867,150.771 99.063 M286.707 101.406 C 286.707 109.313,286.747 112.502,286.797 108.494 C 286.846 104.486,286.846 98.018,286.797 94.119 C 286.747 90.221,286.706 93.500,286.707 101.406 M147.302 91.094 C 147.302 92.813,147.355 93.476,147.418 92.568 C 147.482 91.660,147.481 90.253,147.417 89.443 C 147.353 88.632,147.301 89.375,147.302 91.094 M187.326 98.906 C 187.326 104.234,187.369 106.458,187.421 103.848 C 187.473 101.237,187.473 96.878,187.421 94.160 C 187.369 91.442,187.327 93.578,187.326 98.906 M84.507 109.219 C 84.508 112.828,84.553 114.262,84.608 112.405 C 84.664 110.548,84.663 107.595,84.608 105.842 C 84.552 104.090,84.507 105.609,84.507 109.219 M92.626 171.875 C 92.626 174.539,92.674 175.629,92.732 174.297 C 92.791 172.965,92.791 170.785,92.732 169.453 C 92.674 168.121,92.626 169.211,92.626 171.875 M112.266 171.153 C 112.566 171.232,113.059 171.232,113.359 171.153 C 113.660 171.074,113.414 171.010,112.813 171.010 C 112.211 171.010,111.965 171.074,112.266 171.153 M167.102 185.226 C 167.657 185.295,168.642 185.296,169.290 185.228 C 169.938 185.160,169.484 185.104,168.281 185.103 C 167.078 185.101,166.548 185.157,167.102 185.226 M227.415 185.226 C 227.970 185.295,228.954 185.296,229.602 185.228 C 230.251 185.160,229.797 185.104,228.594 185.103 C 227.391 185.101,226.860 185.157,227.415 185.226 M92.626 204.375 C 92.626 207.039,92.674 208.129,92.732 206.797 C 92.791 205.465,92.791 203.285,92.732 201.953 C 92.674 200.621,92.626 201.711,92.626 204.375 M113.047 203.666 C 113.777 203.732,114.973 203.732,115.703 203.666 C 116.434 203.601,115.836 203.547,114.375 203.547 C 112.914 203.547,112.316 203.601,113.047 203.666 M281.493 203.667 C 282.228 203.733,283.353 203.732,283.993 203.665 C 284.633 203.598,284.031 203.543,282.656 203.545 C 281.281 203.546,280.758 203.601,281.493 203.667 M167.427 217.726 C 167.989 217.796,168.833 217.795,169.302 217.723 C 169.772 217.652,169.313 217.595,168.281 217.597 C 167.250 217.599,166.866 217.657,167.427 217.726 M227.740 217.726 C 228.302 217.796,229.145 217.795,229.615 217.723 C 230.085 217.652,229.625 217.595,228.594 217.597 C 227.563 217.599,227.178 217.657,227.740 217.726 M222.422 339.916 C 223.152 339.982,224.348 339.982,225.078 339.916 C 225.809 339.851,225.211 339.797,223.750 339.797 C 222.289 339.797,221.691 339.851,222.422 339.916 " stroke="none" fill="#5ca4d1" fill-rule="evenodd"></path><path id="path3" d="M152.333 52.344 C 152.333 61.453,152.373 65.135,152.422 60.525 C 152.470 55.915,152.470 48.462,152.422 43.962 C 152.373 39.463,152.333 43.234,152.333 52.344 M155.152 52.500 L 155.156 69.219 158.125 69.238 L 161.094 69.258 158.206 69.149 L 155.318 69.039 155.233 52.410 L 155.148 35.781 155.152 52.500 M166.668 52.188 C 166.668 53.477,166.723 54.004,166.790 53.359 C 166.858 52.715,166.858 51.660,166.790 51.016 C 166.723 50.371,166.668 50.898,166.668 52.188 M39.358 56.797 L 38.281 57.969 39.453 56.892 C 40.544 55.889,40.769 55.625,40.530 55.625 C 40.478 55.625,39.950 56.152,39.358 56.797 M177.500 69.063 L 170.781 69.238 177.403 69.306 C 181.557 69.349,184.098 69.259,184.219 69.063 C 184.325 68.891,184.368 68.781,184.315 68.819 C 184.262 68.857,181.195 68.966,177.500 69.063 M134.938 69.296 C 136.709 69.352,139.522 69.351,141.188 69.295 C 142.855 69.239,141.406 69.194,137.969 69.194 C 134.531 69.194,133.168 69.240,134.938 69.296 M147.891 69.292 C 148.707 69.357,150.043 69.357,150.859 69.292 C 151.676 69.228,151.008 69.175,149.375 69.175 C 147.742 69.175,147.074 69.228,147.891 69.292 M167.021 98.906 C 167.021 108.188,167.061 111.939,167.109 107.244 C 167.158 102.548,167.158 94.954,167.109 90.369 C 167.060 85.783,167.021 89.625,167.021 98.906 M291.311 84.439 L 291.250 86.848 288.984 86.955 L 286.719 87.063 288.994 87.125 C 291.658 87.198,291.638 87.221,291.483 84.188 L 291.372 82.031 291.311 84.439 M172.957 96.719 C 172.957 104.625,172.997 107.815,173.047 103.807 C 173.096 99.799,173.096 93.330,173.047 89.432 C 172.997 85.533,172.956 88.813,172.957 96.719 M307.248 84.600 L 307.188 86.856 303.359 86.944 L 299.531 87.031 299.518 91.719 L 299.504 96.406 299.604 91.797 L 299.704 87.188 303.456 87.188 C 307.752 87.188,307.586 87.306,307.420 84.342 L 307.308 82.344 307.248 84.600 M138.047 87.096 C 138.434 87.170,139.066 87.170,139.453 87.096 C 139.840 87.021,139.523 86.960,138.750 86.960 C 137.977 86.960,137.660 87.021,138.047 87.096 M158.359 87.106 C 159.434 87.167,161.191 87.167,162.266 87.106 C 163.340 87.045,162.461 86.995,160.313 86.995 C 158.164 86.995,157.285 87.045,158.359 87.106 M277.430 87.104 C 278.165 87.170,279.290 87.169,279.930 87.102 C 280.570 87.035,279.969 86.981,278.594 86.982 C 277.219 86.983,276.695 87.038,277.430 87.104 M315.763 87.279 C 315.678 87.501,315.651 89.856,315.703 92.513 L 315.799 97.344 315.868 92.284 L 315.938 87.225 317.109 87.103 L 318.281 86.980 317.100 86.928 C 316.380 86.896,315.857 87.033,315.763 87.279 M326.056 91.875 C 326.056 93.852,326.106 94.660,326.168 93.672 C 326.230 92.684,326.230 91.066,326.168 90.078 C 326.106 89.090,326.056 89.898,326.056 91.875 M141.675 91.563 C 141.675 93.195,141.728 93.863,141.792 93.047 C 141.857 92.230,141.857 90.895,141.792 90.078 C 141.728 89.262,141.675 89.930,141.675 91.563 M320.114 92.031 C 320.115 93.750,320.167 94.413,320.231 93.505 C 320.294 92.597,320.293 91.191,320.229 90.380 C 320.165 89.570,320.113 90.313,320.114 92.031 M138.047 96.158 C 138.434 96.233,139.066 96.233,139.453 96.158 C 139.840 96.084,139.523 96.023,138.750 96.023 C 137.977 96.023,137.660 96.084,138.047 96.158 M138.207 100.849 C 138.682 100.921,139.386 100.919,139.770 100.845 C 140.154 100.771,139.766 100.712,138.906 100.714 C 138.047 100.717,137.732 100.777,138.207 100.849 M157.900 101.168 C 158.722 101.232,159.987 101.231,160.713 101.166 C 161.438 101.100,160.766 101.047,159.219 101.048 C 157.672 101.049,157.078 101.103,157.900 101.168 M299.513 101.342 C 299.427 101.564,299.401 103.849,299.453 106.420 L 299.549 111.094 299.618 106.184 L 299.688 101.274 302.422 101.170 L 305.156 101.066 302.412 101.002 C 300.407 100.955,299.626 101.046,299.513 101.342 M315.625 108.438 C 315.625 112.448,315.691 115.664,315.771 115.583 C 315.983 115.371,316.015 101.536,315.803 101.324 C 315.705 101.226,315.625 104.427,315.625 108.438 M266.016 109.605 C 266.832 109.669,268.168 109.669,268.984 109.605 C 269.801 109.540,269.133 109.488,267.500 109.488 C 265.867 109.488,265.199 109.540,266.016 109.605 M307.295 113.281 C 307.296 114.656,307.351 115.180,307.417 114.445 C 307.483 113.710,307.482 112.585,307.415 111.945 C 307.348 111.305,307.293 111.906,307.295 113.281 M44.453 115.858 C 46.301 115.913,49.324 115.913,51.172 115.858 C 53.020 115.803,51.508 115.758,47.813 115.758 C 44.117 115.758,42.605 115.803,44.453 115.858 M87.734 115.858 C 89.496 115.914,92.379 115.914,94.141 115.858 C 95.902 115.802,94.461 115.757,90.938 115.757 C 87.414 115.757,85.973 115.802,87.734 115.858 M223.051 242.721 C 223.439 242.796,224.002 242.793,224.301 242.715 C 224.599 242.636,224.281 242.575,223.594 242.579 C 222.906 242.582,222.662 242.646,223.051 242.721 M261.350 283.438 C 261.350 284.555,261.407 285.012,261.476 284.453 C 261.545 283.895,261.545 282.980,261.476 282.422 C 261.407 281.863,261.350 282.320,261.350 283.438 M108.225 291.250 C 108.225 292.367,108.282 292.824,108.351 292.266 C 108.420 291.707,108.420 290.793,108.351 290.234 C 108.282 289.676,108.225 290.133,108.225 291.250 M129.209 322.891 L 127.344 324.844 129.297 322.979 C 131.111 321.246,131.393 320.938,131.162 320.938 C 131.114 320.938,130.235 321.816,129.209 322.891 M219.613 339.909 C 220.002 339.983,220.564 339.980,220.863 339.902 C 221.162 339.824,220.844 339.763,220.156 339.766 C 219.469 339.770,219.224 339.834,219.613 339.909 M226.801 339.909 C 227.189 339.983,227.752 339.980,228.051 339.902 C 228.349 339.824,228.031 339.763,227.344 339.766 C 226.656 339.770,226.412 339.834,226.801 339.909 " stroke="none" fill="#3594cc" fill-rule="evenodd"></path><path id="path4" d="M131.711 36.003 C 131.626 36.225,131.594 43.719,131.640 52.656 L 131.724 68.906 131.800 52.422 L 131.875 35.938 134.528 35.938 L 137.181 35.938 137.262 50.234 L 137.344 64.531 140.704 64.548 L 144.064 64.565 140.785 64.459 L 137.506 64.354 137.425 50.068 L 137.344 35.781 134.604 35.691 C 132.589 35.624,131.824 35.707,131.711 36.003 M148.047 35.854 C 148.777 35.920,149.973 35.920,150.703 35.854 C 151.434 35.788,150.836 35.734,149.375 35.734 C 147.914 35.734,147.316 35.788,148.047 35.854 M158.672 35.858 C 160.434 35.914,163.316 35.914,165.078 35.858 C 166.840 35.802,165.398 35.757,161.875 35.757 C 158.352 35.757,156.910 35.802,158.672 35.858 M170.768 36.016 C 170.686 36.230,170.657 43.719,170.703 52.656 L 170.787 68.906 170.862 52.428 L 170.938 35.950 177.578 35.859 L 184.219 35.768 177.568 35.697 C 172.482 35.642,170.883 35.717,170.768 36.016 M97.341 64.453 L 97.344 92.344 99.914 92.434 L 102.485 92.525 102.583 97.591 L 102.681 102.656 102.669 97.500 L 102.656 92.344 100.080 92.253 L 97.503 92.162 97.421 64.362 L 97.339 36.562 97.341 64.453 M176.319 45.078 L 176.250 50.000 178.984 49.936 L 181.719 49.873 179.149 49.768 L 176.579 49.662 176.484 44.909 L 176.389 40.156 176.319 45.078 M162.275 49.918 C 163.097 49.982,164.362 49.981,165.088 49.916 C 165.813 49.850,165.141 49.797,163.594 49.798 C 162.047 49.799,161.453 49.853,162.275 49.918 M176.394 59.375 L 176.406 64.531 180.156 64.546 L 183.906 64.560 180.242 64.458 L 176.578 64.356 176.480 59.287 L 176.382 54.219 176.394 59.375 M40.127 55.703 L 39.531 56.406 40.233 55.812 L 40.934 55.218 41.016 85.500 L 41.097 115.781 41.173 85.391 C 41.216 68.676,41.131 55.000,40.986 55.000 C 40.841 55.000,40.454 55.316,40.127 55.703 M84.757 60.156 C 84.713 60.328,84.681 67.602,84.687 76.321 L 84.698 92.174 78.677 92.266 L 72.656 92.358 78.682 92.429 C 83.267 92.483,84.743 92.407,84.857 92.109 C 84.939 91.895,84.968 84.547,84.922 75.781 C 84.876 67.016,84.802 59.984,84.757 60.156 M32.483 63.672 L 31.406 64.844 32.578 63.767 C 33.669 62.764,33.894 62.500,33.655 62.500 C 33.603 62.500,33.075 63.027,32.483 63.672 M188.977 82.101 C 189.532 82.170,190.517 82.171,191.165 82.103 C 191.813 82.035,191.359 81.979,190.156 81.978 C 188.953 81.976,188.423 82.032,188.977 82.101 M131.706 82.578 C 131.624 82.793,131.594 90.281,131.640 99.219 L 131.724 115.469 131.800 98.992 L 131.875 82.516 136.797 82.421 L 141.719 82.327 136.787 82.257 C 133.077 82.205,131.818 82.284,131.706 82.578 M157.486 82.418 L 164.034 82.512 164.150 84.539 L 164.265 86.565 164.242 84.454 L 164.219 82.344 157.578 82.334 L 150.937 82.325 157.486 82.418 M168.516 82.417 C 169.332 82.482,170.668 82.482,171.484 82.417 C 172.301 82.353,171.633 82.300,170.000 82.300 C 168.367 82.300,167.699 82.353,168.516 82.417 M201.963 82.418 C 202.784 82.482,204.050 82.481,204.775 82.416 C 205.500 82.350,204.828 82.297,203.281 82.298 C 201.734 82.299,201.141 82.353,201.963 82.418 M212.430 82.417 C 213.165 82.483,214.290 82.482,214.930 82.415 C 215.570 82.348,214.969 82.293,213.594 82.295 C 212.219 82.296,211.695 82.351,212.430 82.417 M221.367 82.646 C 221.270 82.898,221.264 83.285,221.352 83.505 C 221.441 83.726,221.524 83.590,221.538 83.203 C 221.571 82.248,225.788 82.102,226.035 83.047 C 226.142 83.458,226.186 83.420,226.214 82.891 C 226.259 82.007,221.701 81.777,221.367 82.646 M233.017 82.422 C 232.937 82.551,234.124 82.656,235.655 82.656 C 237.185 82.656,238.438 82.551,238.438 82.422 C 238.438 82.293,237.250 82.188,235.800 82.188 C 234.349 82.188,233.097 82.293,233.017 82.422 M244.930 82.417 C 245.665 82.483,246.790 82.482,247.430 82.415 C 248.070 82.348,247.469 82.293,246.094 82.295 C 244.719 82.296,244.195 82.351,244.930 82.417 M253.870 82.638 C 253.775 82.886,253.763 83.343,253.844 83.654 C 253.939 84.023,254.003 83.922,254.026 83.359 C 254.078 82.138,258.296 81.991,258.529 83.203 C 258.646 83.806,258.671 83.784,258.707 83.047 L 258.750 82.188 256.396 82.188 C 254.635 82.188,253.999 82.301,253.870 82.638 M266.027 82.419 C 267.022 82.481,268.568 82.480,269.465 82.417 C 270.361 82.355,269.547 82.304,267.656 82.304 C 265.766 82.305,265.032 82.357,266.027 82.419 M276.312 84.609 L 276.374 87.031 276.482 84.771 L 276.590 82.511 283.998 82.422 L 291.406 82.332 283.828 82.260 L 276.250 82.188 276.312 84.609 M296.936 82.421 C 298.774 82.476,301.868 82.476,303.811 82.421 C 305.754 82.366,304.250 82.321,300.469 82.321 C 296.688 82.320,295.098 82.365,296.936 82.421 M310.143 82.578 C 310.061 82.793,310.032 90.352,310.078 99.375 L 310.162 115.781 310.237 99.149 L 310.313 82.516 315.078 82.421 L 319.844 82.326 315.068 82.257 C 311.484 82.205,310.256 82.285,310.143 82.578 M137.313 91.563 C 137.313 94.227,137.361 95.316,137.420 93.984 C 137.478 92.652,137.478 90.473,137.420 89.141 C 137.361 87.809,137.313 88.898,137.313 91.563 M192.952 98.906 C 192.952 104.578,192.994 106.943,193.046 104.160 C 193.098 101.378,193.098 96.738,193.046 93.848 C 192.995 90.958,192.952 93.234,192.952 98.906 M181.701 98.750 C 181.701 103.992,181.744 106.137,181.796 103.516 C 181.849 100.895,181.849 96.605,181.796 93.984 C 181.744 91.363,181.701 93.508,181.701 98.750 M198.576 98.906 C 198.576 104.063,198.619 106.216,198.671 103.691 C 198.724 101.167,198.724 96.948,198.671 94.316 C 198.619 91.684,198.576 93.750,198.576 98.906 M61.060 98.750 C 61.060 101.070,61.109 102.020,61.169 100.859 C 61.229 99.699,61.229 97.801,61.169 96.641 C 61.109 95.480,61.060 96.430,61.060 98.750 M245.816 96.094 C 246.073 97.243,246.252 97.492,246.245 96.693 C 246.243 96.363,246.098 95.883,245.923 95.625 C 245.692 95.283,245.663 95.409,245.816 96.094 M159.127 96.476 L 161.847 96.586 161.960 98.528 L 162.074 100.469 162.053 98.438 L 162.031 96.406 159.219 96.386 L 156.406 96.365 159.127 96.476 M301.025 96.480 C 301.847 96.545,303.112 96.544,303.838 96.478 C 304.563 96.413,303.891 96.360,302.344 96.361 C 300.797 96.362,300.203 96.415,301.025 96.480 M137.315 105.781 C 137.315 108.703,137.362 109.940,137.420 108.531 C 137.478 107.121,137.478 104.731,137.420 103.218 C 137.363 101.706,137.316 102.859,137.315 105.781 M208.147 101.778 C 208.135 102.155,208.266 102.550,208.438 102.656 C 208.807 102.885,208.807 102.579,208.438 101.719 C 208.179 101.116,208.168 101.118,208.147 101.778 M97.320 109.219 C 97.320 112.828,97.366 114.262,97.421 112.405 C 97.476 110.548,97.476 107.595,97.420 105.842 C 97.365 104.090,97.320 105.609,97.320 109.219 M164.168 113.125 C 164.168 114.414,164.223 114.941,164.290 114.297 C 164.358 113.652,164.358 112.598,164.290 111.953 C 164.223 111.309,164.168 111.836,164.168 113.125 M304.188 171.875 C 304.188 174.539,304.236 175.629,304.295 174.297 C 304.353 172.965,304.353 170.785,304.295 169.453 C 304.236 168.121,304.188 169.211,304.188 171.875 M171.484 170.846 C 171.871 170.920,172.504 170.920,172.891 170.846 C 173.277 170.771,172.961 170.710,172.188 170.710 C 171.414 170.710,171.098 170.771,171.484 170.846 M223.984 170.846 C 224.371 170.920,225.004 170.920,225.391 170.846 C 225.777 170.771,225.461 170.710,224.688 170.710 C 223.914 170.710,223.598 170.771,223.984 170.846 M110.391 171.153 C 110.691 171.232,111.184 171.232,111.484 171.153 C 111.785 171.074,111.539 171.010,110.938 171.010 C 110.336 171.010,110.090 171.074,110.391 171.153 M117.113 171.159 C 117.502 171.233,118.064 171.230,118.363 171.152 C 118.662 171.074,118.344 171.013,117.656 171.016 C 116.969 171.020,116.724 171.084,117.113 171.159 M278.828 171.153 C 279.129 171.232,279.621 171.232,279.922 171.153 C 280.223 171.074,279.977 171.010,279.375 171.010 C 278.773 171.010,278.527 171.074,278.828 171.153 M285.551 171.159 C 285.939 171.233,286.502 171.230,286.801 171.152 C 287.099 171.074,286.781 171.013,286.094 171.016 C 285.406 171.020,285.162 171.084,285.551 171.159 M257.500 174.531 C 258.083 175.133,258.630 175.625,258.716 175.625 C 258.802 175.625,258.396 175.133,257.813 174.531 C 257.229 173.930,256.682 173.438,256.596 173.438 C 256.510 173.438,256.917 173.930,257.500 174.531 M142.188 173.848 C 142.188 173.902,142.645 174.359,143.203 174.863 L 144.219 175.781 143.301 174.766 C 142.445 173.819,142.188 173.606,142.188 173.848 M114.453 185.840 C 114.754 185.919,115.246 185.919,115.547 185.840 C 115.848 185.762,115.602 185.698,115.000 185.698 C 114.398 185.698,114.152 185.762,114.453 185.840 M281.328 185.840 C 281.629 185.919,282.121 185.919,282.422 185.840 C 282.723 185.762,282.477 185.698,281.875 185.698 C 281.273 185.698,281.027 185.762,281.328 185.840 M304.188 204.375 C 304.188 207.039,304.236 208.129,304.295 206.797 C 304.353 205.465,304.353 203.285,304.295 201.953 C 304.236 200.621,304.188 201.711,304.188 204.375 M113.047 218.351 C 113.605 218.420,114.520 218.420,115.078 218.351 C 115.637 218.282,115.180 218.225,114.063 218.225 C 112.945 218.225,112.488 218.282,113.047 218.351 M281.790 218.351 C 282.345 218.420,283.329 218.421,283.977 218.353 C 284.626 218.285,284.172 218.229,282.969 218.228 C 281.766 218.226,281.235 218.282,281.790 218.351 M221.484 243.045 C 222.730 243.104,224.770 243.104,226.016 243.045 C 227.262 242.985,226.242 242.937,223.750 242.937 C 221.258 242.937,220.238 242.985,221.484 243.045 M129.688 260.469 C 130.795 261.586,131.771 262.500,131.857 262.500 C 131.943 262.500,131.107 261.586,130.000 260.469 C 128.893 259.352,127.916 258.438,127.831 258.438 C 127.745 258.438,128.580 259.352,129.688 260.469 M292.656 275.938 C 294.196 277.484,295.526 278.750,295.612 278.750 C 295.698 278.750,294.508 277.484,292.969 275.938 C 291.429 274.391,290.099 273.125,290.013 273.125 C 289.927 273.125,291.117 274.391,292.656 275.938 M235.406 283.438 C 235.406 284.383,235.465 284.770,235.536 284.297 C 235.608 283.824,235.608 283.051,235.536 282.578 C 235.465 282.105,235.406 282.492,235.406 283.438 M261.635 283.438 C 261.635 284.039,261.699 284.285,261.778 283.984 C 261.857 283.684,261.857 283.191,261.778 282.891 C 261.699 282.590,261.635 282.836,261.635 283.438 M247.415 296.476 C 247.970 296.545,248.954 296.546,249.602 296.478 C 250.251 296.410,249.797 296.354,248.594 296.353 C 247.391 296.351,246.860 296.407,247.415 296.476 M296.387 302.891 L 295.469 303.906 296.484 302.988 C 297.043 302.484,297.500 302.027,297.500 301.973 C 297.500 301.731,297.242 301.944,296.387 302.891 M288.574 310.703 L 287.656 311.719 288.672 310.801 C 289.619 309.945,289.831 309.688,289.590 309.688 C 289.536 309.688,289.079 310.145,288.574 310.703 M127.012 324.766 L 126.094 325.781 127.109 324.863 C 128.056 324.008,128.269 323.750,128.027 323.750 C 127.973 323.750,127.516 324.207,127.012 324.766 M217.578 339.590 C 217.879 339.669,218.371 339.669,218.672 339.590 C 218.973 339.512,218.727 339.448,218.125 339.448 C 217.523 339.448,217.277 339.512,217.578 339.590 " stroke="none" fill="#86b4dc" fill-rule="evenodd"></path></g></svg>