<svg id="svg" version="1.1" xmlns="http://www.w3.org/2000/svg" xmlns:xlink="http://www.w3.org/1999/xlink" width="400" height="400" viewBox="0, 0, 400,400"><g id="svgg"><path id="path0" d="M35.538 40.798 L 29.395 47.996 29.447 55.098 L 29.500 62.201 34.200 57.296 L 38.900 52.391 38.951 83.195 L 39.001 114.000 45.801 114.000 L 52.600 114.000 52.600 73.800 L 52.600 33.600 47.140 33.600 L 41.680 33.600 35.538 40.798 M61.000 56.200 L 61.000 78.800 67.070 78.800 L 73.140 78.800 73.262 76.850 C 73.578 71.811,75.645 69.604,79.823 69.843 C 82.460 69.995,83.991 71.276,84.728 73.949 C 85.288 75.981,85.298 97.585,84.740 99.600 C 83.151 105.334,75.360 105.286,73.465 99.530 C 73.182 98.673,73.112 97.434,73.048 92.150 L 72.970 85.800 66.885 85.800 L 60.800 85.800 60.800 92.024 C 60.800 102.478,61.904 106.687,65.617 110.387 C 72.998 117.742,90.473 116.312,95.773 107.919 C 98.356 103.830,98.600 102.000,98.600 86.747 C 98.600 69.948,98.006 66.834,94.033 62.814 C 88.872 57.591,77.967 58.007,74.192 63.569 C 73.812 64.130,73.432 64.592,73.348 64.595 C 73.265 64.598,73.220 60.078,73.248 54.550 L 73.300 44.500 84.950 44.448 L 96.600 44.397 96.600 38.998 L 96.600 33.600 78.800 33.600 L 61.000 33.600 61.000 56.200 M127.800 49.900 L 127.800 66.200 133.800 66.200 L 139.800 66.200 139.800 64.005 L 139.800 61.810 136.550 61.755 L 133.300 61.700 133.249 47.650 L 133.197 33.600 130.499 33.600 L 127.800 33.600 127.800 49.900 M143.000 49.900 L 143.000 66.200 145.700 66.200 L 148.400 66.200 148.400 49.900 L 148.400 33.600 145.700 33.600 L 143.000 33.600 143.000 49.900 M152.000 49.900 L 152.000 66.200 154.700 66.200 L 157.400 66.200 157.400 59.000 L 157.400 51.800 160.200 51.800 L 163.000 51.800 163.000 49.600 L 163.000 47.400 160.200 47.400 L 157.400 47.400 157.400 42.700 L 157.400 38.000 161.100 38.000 L 164.800 38.000 164.800 35.800 L 164.800 33.600 158.400 33.600 L 152.000 33.600 152.000 49.900 M167.800 49.900 L 167.800 66.200 174.300 66.200 L 180.800 66.200 180.800 64.000 L 180.800 61.800 177.000 61.800 L 173.200 61.800 173.200 56.800 L 173.200 51.800 175.900 51.800 L 178.600 51.800 178.600 49.600 L 178.600 47.400 175.900 47.400 L 173.200 47.400 173.200 42.700 L 173.200 38.000 177.000 38.000 L 180.800 38.000 180.800 35.800 L 180.800 33.600 174.300 33.600 L 167.800 33.600 167.800 49.900 M133.809 81.405 C 130.722 82.056,128.550 84.452,128.012 87.800 C 127.740 89.490,127.735 106.065,128.006 107.800 C 128.661 112.001,131.163 114.186,135.517 114.359 C 140.621 114.563,143.520 112.335,144.191 107.694 C 144.448 105.914,144.455 89.933,144.199 88.166 C 143.453 83.005,139.235 80.261,133.809 81.405 M147.600 97.794 L 147.600 114.000 149.800 114.000 L 152.000 114.000 152.000 103.960 C 152.000 98.438,152.076 94.006,152.169 94.110 C 152.263 94.215,153.725 98.732,155.419 104.149 L 158.500 113.998 160.850 113.999 L 163.200 114.000 163.200 97.800 L 163.200 81.600 161.002 81.600 L 158.804 81.600 158.752 90.831 L 158.700 100.062 155.795 90.881 L 152.891 81.700 150.245 81.644 L 147.600 81.588 147.600 97.794 M175.200 97.800 L 175.200 114.000 181.200 114.000 L 187.200 114.000 187.200 111.905 L 187.200 109.810 183.950 109.755 L 180.700 109.700 180.649 95.650 L 180.597 81.600 177.899 81.600 L 175.200 81.600 175.200 97.800 M194.917 82.150 C 194.533 83.981,189.000 113.518,189.000 113.735 C 189.000 114.278,193.972 114.098,194.087 113.550 C 194.140 113.303,194.328 112.155,194.506 111.000 C 194.684 109.845,194.874 108.743,194.928 108.550 C 195.016 108.237,195.335 108.200,197.900 108.200 C 200.463 108.200,200.784 108.238,200.879 108.550 C 200.982 108.892,201.800 113.619,201.800 113.872 C 201.800 113.942,203.062 114.000,204.604 114.000 L 207.408 114.000 207.305 113.550 C 207.248 113.303,205.897 106.215,204.303 97.800 C 202.708 89.385,201.356 82.298,201.298 82.050 C 201.194 81.607,201.142 81.600,198.112 81.600 L 195.032 81.600 194.917 82.150 M209.800 97.794 L 209.800 114.000 212.000 114.000 L 214.200 114.000 214.200 103.960 C 214.200 98.438,214.276 94.006,214.369 94.110 C 214.462 94.215,215.925 98.732,217.619 104.149 L 220.700 113.998 223.050 113.999 L 225.400 114.000 225.400 97.800 L 225.400 81.600 223.202 81.600 L 221.004 81.600 220.952 90.841 L 220.900 100.083 217.996 90.891 L 215.093 81.700 212.446 81.644 L 209.800 81.588 209.800 97.794 M229.200 97.812 L 229.200 114.023 234.750 113.962 C 242.527 113.875,244.265 112.900,245.194 108.100 C 245.682 105.582,245.384 87.513,244.832 86.144 C 243.298 82.335,241.541 81.600,233.967 81.600 L 229.200 81.600 229.200 97.812 M136.809 85.800 C 137.551 85.800,138.559 86.943,138.803 88.060 C 139.250 90.111,138.985 107.755,138.493 108.600 C 137.425 110.438,134.671 110.408,133.654 108.548 C 133.210 107.734,132.994 89.373,133.412 87.867 C 133.765 86.593,135.251 85.433,136.166 85.717 C 136.313 85.763,136.602 85.800,136.809 85.800 M238.736 86.514 C 240.014 87.453,239.999 87.317,240.000 97.903 C 240.000 109.814,240.094 109.514,236.293 109.751 L 234.600 109.856 234.600 97.908 L 234.600 85.960 236.386 86.030 C 237.803 86.086,238.288 86.185,238.736 86.514 M199.079 97.478 L 200.135 103.800 197.968 103.800 C 195.985 103.800,195.800 103.768,195.800 103.427 C 195.800 102.467,197.789 90.923,197.931 91.064 C 197.981 91.115,198.498 94.001,199.079 97.478 M156.500 159.124 C 142.958 161.197,133.398 170.356,131.479 183.094 C 131.128 185.421,131.201 185.299,130.201 185.227 C 126.337 184.948,120.746 186.801,117.050 189.587 C 105.785 198.075,106.229 215.726,117.904 223.573 L 119.309 224.517 118.050 226.108 C 107.637 239.270,115.314 259.408,131.766 262.088 C 135.864 262.756,180.124 262.874,183.800 262.227 C 206.436 258.244,217.389 232.316,204.567 213.070 C 200.562 207.060,193.373 201.914,186.700 200.283 C 185.930 200.094,185.273 199.920,185.241 199.894 C 185.208 199.869,185.511 199.053,185.913 198.082 C 192.607 181.912,182.699 163.242,165.493 159.604 C 163.550 159.194,157.986 158.896,156.500 159.124 M253.200 159.128 C 249.834 159.800,247.739 160.761,247.312 161.828 C 246.580 163.658,247.615 164.958,249.384 164.429 C 253.602 163.165,260.597 166.899,264.112 172.293 C 265.622 174.608,266.405 174.909,268.357 173.923 C 273.881 171.132,282.058 171.603,285.257 174.896 C 287.615 177.325,289.988 174.881,288.070 171.997 C 284.108 166.038,277.724 163.734,270.544 165.673 L 268.588 166.202 266.644 164.238 C 262.691 160.244,257.498 158.270,253.200 159.128 M246.400 181.533 C 242.668 182.120,238.651 183.909,235.495 186.389 L 234.278 187.345 232.789 186.476 C 224.027 181.360,213.900 182.385,207.931 188.992 C 205.936 191.200,207.958 194.356,210.173 192.492 C 214.425 188.914,225.288 190.546,232.211 195.801 C 234.737 197.720,235.109 197.679,237.714 195.197 C 243.965 189.242,254.388 186.454,258.895 189.531 C 259.546 189.976,260.862 189.872,261.365 189.337 C 264.423 186.082,253.545 180.409,246.400 181.533 M239.000 232.390 C 234.822 233.278,228.586 236.849,227.444 239.007 C 226.245 241.273,228.237 243.179,230.382 241.818 C 236.644 237.847,249.288 240.596,257.400 247.692 C 259.785 249.778,260.564 249.794,262.753 247.800 C 270.432 240.807,283.028 237.961,289.724 241.706 C 291.930 242.940,293.200 242.429,293.200 240.309 C 293.200 239.013,292.739 238.458,289.910 236.351 C 281.780 230.294,270.782 230.590,261.693 237.112 L 260.205 238.179 258.305 236.908 C 252.070 232.740,245.065 231.100,239.000 232.390 M155.600 270.546 C 155.435 270.609,155.234 270.759,155.153 270.880 C 154.977 271.143,154.946 300.428,155.121 300.884 C 155.329 301.424,168.102 301.356,168.393 300.813 C 168.845 299.968,168.661 271.261,168.200 270.800 C 167.805 270.405,156.566 270.178,155.600 270.546 M102.121 314.316 C 101.876 314.957,101.986 326.906,102.240 327.160 C 102.590 327.510,297.410 327.510,297.760 327.160 C 298.014 326.906,298.124 314.957,297.879 314.316 C 297.692 313.830,102.308 313.830,102.121 314.316 M102.314 337.714 C 101.904 338.125,101.834 350.354,102.240 350.760 C 102.590 351.110,297.410 351.110,297.760 350.760 C 298.166 350.354,298.096 338.125,297.686 337.714 C 297.204 337.232,102.796 337.232,102.314 337.714 " stroke="none" fill="#fbfbfb" fill-rule="evenodd"></path><path id="path1" d="M0.000 200.000 L 0.000 400.000 200.000 400.000 L 400.000 400.000 400.000 200.000 L 400.000 0.000 200.000 0.000 L 0.000 0.000 0.000 200.000 M52.800 73.800 L 52.800 114.200 45.901 114.200 L 39.001 114.200 38.951 83.379 L 38.900 52.558 34.216 57.429 C 31.639 60.108,29.457 62.330,29.366 62.367 C 29.275 62.403,29.200 59.201,29.200 55.251 L 29.200 48.068 35.450 40.734 L 41.700 33.400 47.250 33.400 L 52.800 33.400 52.800 73.800 M96.800 39.000 L 96.800 44.600 85.100 44.600 L 73.400 44.600 73.400 54.530 L 73.400 64.460 73.965 63.680 C 79.064 56.641,91.737 57.633,96.139 65.417 C 98.536 69.654,98.700 71.021,98.700 86.700 C 98.700 102.446,98.496 103.958,95.813 108.057 C 90.255 116.550,73.004 117.888,65.569 110.402 C 61.697 106.504,60.600 102.333,60.600 91.508 L 60.600 85.800 66.885 85.800 L 73.171 85.800 73.241 92.350 C 73.309 98.649,73.330 98.945,73.776 100.066 C 75.676 104.836,82.559 104.987,84.423 100.300 L 84.900 99.100 84.961 87.600 C 85.025 75.377,84.963 74.303,84.099 72.598 C 83.179 70.782,81.716 69.949,79.400 69.922 C 75.548 69.878,73.686 72.047,73.453 76.850 L 73.349 79.000 67.074 79.000 L 60.800 79.000 60.800 56.200 L 60.800 33.400 78.800 33.400 L 96.800 33.400 96.800 39.000 M133.400 47.500 L 133.400 61.600 136.700 61.600 L 140.000 61.600 140.000 63.900 L 140.000 66.200 133.900 66.200 L 127.800 66.200 127.800 49.800 L 127.800 33.400 130.600 33.400 L 133.400 33.400 133.400 47.500 M148.400 49.800 L 148.400 66.200 145.600 66.200 L 142.800 66.200 142.800 49.800 L 142.800 33.400 145.600 33.400 L 148.400 33.400 148.400 49.800 M165.000 35.700 L 165.000 38.000 161.300 38.000 L 157.600 38.000 157.600 42.600 L 157.600 47.200 160.300 47.200 L 163.000 47.200 163.000 49.500 L 163.000 51.800 160.300 51.800 L 157.600 51.800 157.600 59.000 L 157.600 66.200 154.700 66.200 L 151.800 66.200 151.800 49.800 L 151.800 33.400 158.400 33.400 L 165.000 33.400 165.000 35.700 M181.000 35.700 L 181.000 38.000 177.200 38.000 L 173.400 38.000 173.400 42.600 L 173.400 47.200 176.100 47.200 L 178.800 47.200 178.800 49.500 L 178.800 51.800 176.100 51.800 L 173.400 51.800 173.400 56.700 L 173.400 61.600 177.200 61.600 L 181.000 61.600 181.000 63.900 L 181.000 66.200 174.300 66.200 L 167.600 66.200 167.600 49.800 L 167.600 33.400 174.300 33.400 L 181.000 33.400 181.000 35.700 M139.125 81.507 C 141.240 82.104,142.924 83.691,143.833 85.944 C 144.390 87.324,144.689 106.101,144.190 108.400 C 142.524 116.081,130.869 116.968,128.300 109.610 C 127.505 107.334,127.308 89.391,128.050 86.870 C 129.429 82.184,133.882 80.027,139.125 81.507 M153.083 82.050 C 153.227 82.408,154.505 86.381,155.923 90.880 L 158.500 99.059 158.600 90.280 L 158.700 81.500 161.050 81.444 L 163.400 81.387 163.400 97.794 L 163.400 114.200 160.931 114.200 L 158.461 114.200 155.381 104.416 L 152.300 94.632 152.248 104.416 L 152.196 114.200 149.798 114.200 L 147.400 114.200 147.400 97.800 L 147.400 81.400 150.110 81.400 L 152.820 81.400 153.083 82.050 M180.751 95.550 L 180.803 109.600 184.101 109.600 L 187.400 109.600 187.400 111.900 L 187.400 114.200 181.300 114.200 L 175.200 114.200 175.200 97.794 L 175.200 81.389 177.950 81.444 L 180.700 81.500 180.751 95.550 M201.277 81.563 C 201.332 81.652,202.732 88.875,204.389 97.613 C 206.045 106.351,207.437 113.660,207.483 113.855 C 207.559 114.185,207.356 114.207,204.636 114.155 L 201.708 114.100 201.225 111.150 L 200.742 108.200 197.905 108.200 L 195.069 108.200 194.607 111.200 L 194.145 114.200 191.472 114.200 C 189.998 114.200,188.800 114.118,188.800 114.018 C 188.800 113.763,194.795 81.957,194.901 81.650 C 195.000 81.363,201.102 81.279,201.277 81.563 M215.283 82.050 C 215.428 82.408,216.706 86.388,218.123 90.896 L 220.700 99.093 220.800 90.296 L 220.900 81.500 223.250 81.444 L 225.600 81.387 225.600 97.794 L 225.600 114.200 223.124 114.200 L 220.648 114.200 220.132 112.550 C 219.849 111.642,218.465 107.237,217.058 102.761 L 214.500 94.622 214.448 104.411 L 214.396 114.200 211.998 114.200 L 209.600 114.200 209.600 97.800 L 209.600 81.400 212.310 81.400 L 215.020 81.400 215.283 82.050 M239.300 81.596 C 242.119 82.050,244.082 83.689,245.027 86.379 C 245.569 87.922,245.871 104.877,245.404 107.560 C 244.874 110.604,243.597 112.485,241.360 113.518 L 240.100 114.100 234.550 114.164 L 229.000 114.228 229.000 97.814 L 229.000 81.400 233.550 81.401 C 236.053 81.402,238.640 81.489,239.300 81.596 M134.890 86.081 C 133.466 86.702,133.507 86.380,133.438 97.400 C 133.397 104.060,133.447 107.541,133.592 108.035 C 134.295 110.434,137.927 110.436,138.593 108.037 C 139.004 106.557,138.852 88.234,138.421 87.285 C 137.830 85.983,136.307 85.464,134.890 86.081 M234.600 97.900 L 234.600 109.600 236.050 109.589 C 237.917 109.574,238.771 109.271,239.343 108.420 L 239.800 107.741 239.800 97.747 L 239.800 87.753 239.024 86.976 L 238.247 86.200 236.424 86.200 L 234.600 86.200 234.600 97.900 M196.929 97.124 C 196.399 100.411,195.922 103.258,195.869 103.450 C 195.782 103.767,195.971 103.800,197.896 103.800 L 200.018 103.800 199.899 103.150 C 199.833 102.793,199.355 99.946,198.836 96.824 L 197.893 91.149 196.929 97.124 M165.080 159.415 C 182.613 162.979,192.729 181.503,186.108 197.923 C 185.720 198.884,185.434 199.701,185.472 199.738 C 185.509 199.776,186.328 200.035,187.291 200.314 C 193.114 202.002,198.796 205.715,202.663 210.358 C 218.229 229.050,208.491 256.947,184.550 262.246 L 182.500 262.700 158.500 262.658 C 133.257 262.615,132.600 262.593,129.464 261.684 C 114.152 257.247,108.101 238.404,118.000 225.984 L 119.157 224.532 117.928 223.741 C 101.278 213.014,108.683 186.293,128.600 185.233 L 131.100 185.100 131.250 183.700 C 132.958 167.786,149.133 156.174,165.080 159.415 M258.816 159.304 C 262.121 160.161,265.632 162.531,268.035 165.529 L 268.539 166.158 270.201 165.676 C 277.723 163.498,284.566 165.983,288.369 172.275 C 290.135 175.197,287.443 177.364,285.109 174.899 C 282.195 171.820,274.199 171.340,268.635 173.911 C 266.224 175.025,265.645 174.844,264.119 172.502 C 260.605 167.112,255.444 164.160,250.090 164.480 C 247.961 164.607,247.866 164.595,247.470 164.156 C 244.666 161.042,252.535 157.677,258.816 159.304 M253.095 181.816 C 256.342 182.627,261.112 185.462,261.734 186.950 C 262.666 189.181,260.886 190.658,258.637 189.519 C 253.305 186.817,243.991 189.441,237.447 195.488 C 234.968 197.778,234.690 197.793,232.031 195.792 C 225.284 190.716,215.478 189.220,210.407 192.494 C 209.057 193.366,208.365 193.396,207.585 192.615 C 205.940 190.971,207.339 188.656,211.683 185.836 C 217.884 181.809,226.189 182.148,233.437 186.723 L 234.195 187.202 235.810 186.005 C 241.365 181.886,247.463 180.408,253.095 181.816 M246.995 232.109 C 250.602 232.694,254.726 234.394,258.339 236.786 L 260.179 238.004 261.809 236.894 C 272.347 229.718,284.687 230.307,292.466 238.357 C 294.884 240.859,292.639 243.647,289.681 241.814 C 283.529 238.002,270.562 240.935,262.847 247.885 C 260.556 249.948,259.825 249.936,257.353 247.793 C 249.172 240.699,236.411 237.946,230.338 241.965 C 228.507 243.176,227.200 242.485,227.200 240.305 C 227.200 238.738,227.384 238.490,230.021 236.503 C 235.204 232.599,240.909 231.122,246.995 232.109 M168.360 270.640 C 168.707 270.987,168.707 300.813,168.360 301.160 C 168.017 301.503,155.583 301.503,155.240 301.160 C 154.893 300.813,154.893 270.987,155.240 270.640 C 155.417 270.463,157.151 270.400,161.800 270.400 C 166.449 270.400,168.183 270.463,168.360 270.640 M297.889 314.245 C 298.154 314.623,298.200 315.583,298.200 320.700 C 298.200 325.817,298.154 326.777,297.889 327.155 L 297.577 327.600 200.000 327.600 L 102.423 327.600 102.111 327.155 C 101.846 326.777,101.800 325.817,101.800 320.700 C 101.800 315.583,101.846 314.623,102.111 314.245 L 102.423 313.800 200.000 313.800 L 297.577 313.800 297.889 314.245 M297.889 337.845 C 298.154 338.223,298.200 339.183,298.200 344.300 C 298.200 349.417,298.154 350.377,297.889 350.755 L 297.577 351.200 200.000 351.200 L 102.423 351.200 102.111 350.755 C 101.846 350.377,101.800 349.417,101.800 344.300 C 101.800 339.183,101.846 338.223,102.111 337.845 L 102.423 337.400 200.000 337.400 L 297.577 337.400 297.889 337.845 " stroke="none" fill="#54c42c" fill-rule="evenodd"></path><path id="path2" d="M60.897 56.200 C 60.897 68.685,60.921 73.793,60.950 67.550 C 60.979 61.308,60.979 51.093,60.950 44.850 C 60.921 38.608,60.897 43.715,60.897 56.200 M164.876 35.800 C 164.876 37.065,164.908 37.583,164.948 36.950 C 164.987 36.318,164.987 35.282,164.948 34.650 C 164.908 34.018,164.876 34.535,164.876 35.800 M180.876 35.800 C 180.876 37.065,180.908 37.583,180.948 36.950 C 180.987 36.318,180.987 35.282,180.948 34.650 C 180.908 34.018,180.876 34.535,180.876 35.800 M157.494 42.700 L 157.500 47.300 160.250 47.309 L 163.001 47.318 160.304 47.253 L 157.607 47.189 157.548 42.644 L 157.489 38.100 157.494 42.700 M173.294 42.700 L 173.300 47.300 175.950 47.309 L 178.601 47.318 176.004 47.253 L 173.407 47.188 173.348 42.644 L 173.289 38.100 173.294 42.700 M73.293 54.600 C 73.293 60.155,73.318 62.428,73.350 59.650 C 73.381 56.873,73.381 52.328,73.350 49.550 C 73.318 46.773,73.293 49.045,73.293 54.600 M157.490 59.000 C 157.490 63.015,157.517 64.658,157.550 62.650 C 157.582 60.643,157.582 57.358,157.550 55.350 C 157.517 53.343,157.490 54.985,157.490 59.000 M173.295 56.750 L 173.300 61.700 177.043 61.754 L 180.787 61.809 180.854 64.005 L 180.921 66.201 180.910 63.950 L 180.900 61.700 177.153 61.646 L 173.407 61.591 173.348 56.696 L 173.289 51.800 173.295 56.750 M136.543 61.747 L 139.787 61.810 139.854 64.005 L 139.921 66.201 139.910 63.950 L 139.900 61.700 136.600 61.692 L 133.300 61.684 136.543 61.747 M73.257 77.900 C 73.259 78.450,73.298 78.651,73.344 78.347 C 73.389 78.043,73.388 77.593,73.341 77.347 C 73.293 77.101,73.256 77.350,73.257 77.900 M180.695 95.600 C 180.695 103.355,180.720 106.528,180.750 102.650 C 180.780 98.773,180.780 92.428,180.750 88.550 C 180.720 84.673,180.695 87.845,180.695 95.600 M73.088 91.300 C 73.088 94.380,73.116 95.612,73.150 94.038 C 73.183 92.464,73.183 89.944,73.149 88.438 C 73.116 86.932,73.088 88.220,73.088 91.300 M133.292 97.800 C 133.292 102.915,133.318 105.008,133.350 102.450 C 133.381 99.893,133.381 95.708,133.350 93.150 C 133.318 90.593,133.292 92.685,133.292 97.800 M138.892 97.800 C 138.892 102.695,138.918 104.698,138.950 102.250 C 138.982 99.803,138.982 95.798,138.950 93.350 C 138.918 90.903,138.892 92.905,138.892 97.800 M245.492 97.900 C 245.492 102.630,245.518 104.536,245.550 102.136 C 245.582 99.737,245.582 95.867,245.550 93.536 C 245.518 91.206,245.492 93.170,245.492 97.900 M152.093 104.000 C 152.093 109.555,152.118 111.828,152.150 109.050 C 152.181 106.273,152.181 101.728,152.150 98.950 C 152.118 96.173,152.093 98.445,152.093 104.000 M214.293 104.000 C 214.293 109.555,214.318 111.828,214.350 109.050 C 214.381 106.273,214.381 101.728,214.350 98.950 C 214.318 96.173,214.293 98.445,214.293 104.000 M60.646 96.600 C 60.646 96.985,60.688 97.142,60.738 96.950 C 60.788 96.758,60.788 96.442,60.738 96.250 C 60.688 96.058,60.646 96.215,60.646 96.600 M78.550 115.146 C 79.017 115.189,79.783 115.189,80.250 115.146 C 80.718 115.104,80.335 115.070,79.400 115.070 C 78.465 115.070,78.083 115.104,78.550 115.146 M275.450 172.138 C 275.643 172.188,275.957 172.188,276.150 172.138 C 276.343 172.088,276.185 172.046,275.800 172.046 C 275.415 172.046,275.257 172.088,275.450 172.138 M217.154 190.745 C 217.513 190.789,218.053 190.789,218.354 190.743 C 218.654 190.697,218.360 190.661,217.700 190.662 C 217.040 190.663,216.794 190.700,217.154 190.745 M210.054 229.800 C 210.054 230.295,210.093 230.498,210.141 230.250 C 210.189 230.003,210.189 229.597,210.141 229.350 C 210.093 229.103,210.054 229.305,210.054 229.800 M210.050 232.100 C 210.053 232.540,210.094 232.696,210.141 232.448 C 210.189 232.199,210.187 231.839,210.137 231.648 C 210.087 231.456,210.048 231.660,210.050 232.100 M161.250 262.749 C 162.433 262.785,164.368 262.785,165.550 262.749 C 166.733 262.714,165.765 262.685,163.400 262.685 C 161.035 262.685,160.067 262.714,161.250 262.749 " stroke="none" fill="#ace494" fill-rule="evenodd"></path><path id="path3" d="M52.698 73.800 C 52.698 96.075,52.721 105.188,52.750 94.050 C 52.779 82.912,52.779 64.687,52.750 53.550 C 52.721 42.412,52.698 51.525,52.698 73.800 M96.688 39.000 C 96.688 42.135,96.716 43.417,96.750 41.850 C 96.783 40.282,96.783 37.717,96.750 36.150 C 96.716 34.583,96.688 35.865,96.688 39.000 M151.895 49.800 C 151.895 58.875,151.920 62.588,151.950 58.050 C 151.980 53.513,151.980 46.088,151.950 41.550 C 151.920 37.013,151.895 40.725,151.895 49.800 M167.695 49.800 C 167.695 58.875,167.720 62.588,167.750 58.050 C 167.780 53.513,167.780 46.088,167.750 41.550 C 167.720 37.013,167.695 40.725,167.695 49.800 M33.994 57.550 L 32.700 58.900 34.050 57.606 C 34.793 56.894,35.400 56.286,35.400 56.256 C 35.400 56.109,35.196 56.296,33.994 57.550 M93.400 62.063 C 93.400 62.097,93.692 62.390,94.050 62.713 L 94.700 63.300 94.113 62.650 C 93.565 62.044,93.400 61.908,93.400 62.063 M98.694 86.800 C 98.694 93.125,98.719 95.712,98.750 92.550 C 98.781 89.387,98.781 84.212,98.750 81.050 C 98.719 77.887,98.694 80.475,98.694 86.800 M135.550 81.141 C 135.797 81.189,136.203 81.189,136.450 81.141 C 136.697 81.093,136.495 81.054,136.000 81.054 C 135.505 81.054,135.303 81.093,135.550 81.141 M148.641 81.548 C 149.379 81.586,150.639 81.587,151.441 81.549 C 152.244 81.511,151.640 81.479,150.100 81.479 C 148.560 81.479,147.904 81.510,148.641 81.548 M158.716 81.575 C 158.574 81.803,158.551 99.418,158.692 99.559 C 158.751 99.618,158.800 95.605,158.800 90.640 L 158.800 81.613 161.150 81.549 L 163.500 81.486 161.162 81.443 C 159.876 81.419,158.775 81.479,158.716 81.575 M176.441 81.548 C 177.179 81.586,178.439 81.587,179.241 81.549 C 180.044 81.511,179.440 81.479,177.900 81.479 C 176.360 81.479,175.704 81.510,176.441 81.548 M194.930 81.550 C 194.879 81.633,195.796 81.676,196.969 81.647 C 200.901 81.550,201.324 81.476,198.162 81.438 C 196.436 81.417,194.982 81.468,194.930 81.550 M210.841 81.548 C 211.579 81.586,212.839 81.587,213.641 81.549 C 214.444 81.511,213.840 81.479,212.300 81.479 C 210.760 81.479,210.104 81.510,210.841 81.548 M220.915 81.575 C 220.774 81.804,220.751 99.618,220.892 99.759 C 220.951 99.818,221.000 95.760,221.000 90.740 L 221.000 81.613 223.350 81.549 L 225.700 81.486 223.362 81.443 C 222.076 81.419,220.975 81.479,220.915 81.575 M231.350 81.549 C 232.697 81.584,234.903 81.584,236.250 81.549 C 237.597 81.515,236.495 81.486,233.800 81.486 C 231.105 81.486,230.003 81.515,231.350 81.549 M235.250 86.146 C 235.663 86.189,236.338 86.189,236.750 86.146 C 237.163 86.103,236.825 86.067,236.000 86.067 C 235.175 86.067,234.838 86.103,235.250 86.146 M239.892 97.900 C 239.892 103.070,239.918 105.214,239.950 102.664 C 239.981 100.114,239.981 95.884,239.950 93.264 C 239.918 90.644,239.892 92.730,239.892 97.900 M127.691 97.900 C 127.691 102.410,127.718 104.284,127.750 102.063 C 127.782 99.843,127.782 96.153,127.750 93.863 C 127.718 91.574,127.691 93.390,127.691 97.900 M78.950 103.741 C 79.198 103.789,79.603 103.789,79.850 103.741 C 80.098 103.693,79.895 103.654,79.400 103.654 C 78.905 103.654,78.703 103.693,78.950 103.741 M187.276 111.900 C 187.277 113.220,187.309 113.734,187.348 113.042 C 187.387 112.350,187.387 111.270,187.348 110.642 C 187.308 110.014,187.276 110.580,187.276 111.900 M158.656 158.947 C 159.182 158.989,159.992 158.988,160.456 158.946 C 160.920 158.904,160.490 158.870,159.500 158.871 C 158.510 158.872,158.130 158.906,158.656 158.947 M254.750 158.945 C 255.107 158.989,255.693 158.989,256.050 158.945 C 256.407 158.900,256.115 158.864,255.400 158.864 C 254.685 158.864,254.393 158.900,254.750 158.945 M266.392 163.850 C 267.220 164.733,267.400 164.892,267.400 164.742 C 267.400 164.710,266.973 164.282,266.450 163.792 L 265.500 162.900 266.392 163.850 M250.552 164.341 C 250.801 164.389,251.161 164.387,251.352 164.337 C 251.544 164.287,251.340 164.248,250.900 164.250 C 250.460 164.253,250.304 164.294,250.552 164.341 M275.053 164.944 C 275.357 164.989,275.807 164.988,276.053 164.941 C 276.299 164.893,276.050 164.856,275.500 164.857 C 274.950 164.859,274.749 164.898,275.053 164.944 M139.291 167.250 L 138.500 168.100 139.350 167.309 C 140.140 166.574,140.292 166.400,140.141 166.400 C 140.108 166.400,139.725 166.783,139.291 167.250 M248.150 181.345 C 248.507 181.389,249.093 181.389,249.450 181.345 C 249.808 181.300,249.515 181.264,248.800 181.264 C 248.085 181.264,247.793 181.300,248.150 181.345 M188.070 187.400 C 188.070 188.335,188.104 188.718,188.146 188.250 C 188.189 187.783,188.189 187.018,188.146 186.550 C 188.104 186.083,188.070 186.465,188.070 187.400 M261.846 188.000 C 261.846 188.385,261.888 188.543,261.938 188.350 C 261.988 188.158,261.988 187.843,261.938 187.650 C 261.888 187.458,261.846 187.615,261.846 188.000 M207.887 188.850 L 207.300 189.500 207.950 188.913 C 208.556 188.365,208.692 188.200,208.537 188.200 C 208.503 188.200,208.210 188.493,207.887 188.850 M253.053 188.544 C 253.357 188.589,253.807 188.588,254.053 188.541 C 254.299 188.493,254.050 188.456,253.500 188.457 C 252.950 188.459,252.749 188.498,253.053 188.544 M114.789 191.350 L 114.100 192.100 114.850 191.411 C 115.263 191.032,115.600 190.694,115.600 190.661 C 115.600 190.508,115.431 190.652,114.789 191.350 M108.666 206.300 C 108.667 207.070,108.703 207.360,108.746 206.946 C 108.789 206.531,108.789 205.901,108.744 205.546 C 108.700 205.190,108.665 205.530,108.666 206.300 M200.700 208.400 C 201.464 209.170,202.134 209.800,202.189 209.800 C 202.244 209.800,201.664 209.170,200.900 208.400 C 200.136 207.630,199.466 207.000,199.411 207.000 C 199.356 207.000,199.936 207.630,200.700 208.400 M227.887 238.250 L 227.300 238.900 227.950 238.313 C 228.556 237.765,228.692 237.600,228.537 237.600 C 228.503 237.600,228.210 237.893,227.887 238.250 M293.254 240.400 C 293.254 240.895,293.293 241.097,293.341 240.850 C 293.389 240.603,293.389 240.197,293.341 239.950 C 293.293 239.703,293.254 239.905,293.254 240.400 M262.087 248.450 L 261.500 249.100 262.150 248.513 C 262.756 247.965,262.892 247.800,262.737 247.800 C 262.703 247.800,262.410 248.093,262.087 248.450 M119.600 255.900 C 119.973 256.285,120.323 256.600,120.378 256.600 C 120.433 256.600,120.173 256.285,119.800 255.900 C 119.427 255.515,119.077 255.200,119.022 255.200 C 118.967 255.200,119.227 255.515,119.600 255.900 M152.850 262.749 C 154.033 262.785,155.968 262.785,157.150 262.749 C 158.333 262.714,157.365 262.685,155.000 262.685 C 152.635 262.685,151.667 262.714,152.850 262.749 M101.889 320.700 C 101.889 324.110,101.916 325.533,101.950 323.862 C 101.983 322.192,101.983 319.402,101.950 317.662 C 101.916 315.923,101.889 317.290,101.889 320.700 M298.089 320.700 C 298.089 324.110,298.116 325.533,298.150 323.862 C 298.183 322.192,298.183 319.402,298.150 317.662 C 298.116 315.923,298.089 317.290,298.089 320.700 M101.889 344.300 C 101.889 347.710,101.916 349.133,101.950 347.462 C 101.983 345.792,101.983 343.002,101.950 341.262 C 101.916 339.523,101.889 340.890,101.889 344.300 M298.089 344.300 C 298.089 347.710,298.116 349.133,298.150 347.462 C 298.183 345.792,298.183 343.002,298.150 341.262 C 298.116 339.523,298.089 340.890,298.089 344.300 " stroke="none" fill="#89d56a" fill-rule="evenodd"></path><path id="path4" d="M44.450 33.550 C 45.963 33.583,48.438 33.583,49.950 33.550 C 51.463 33.516,50.225 33.488,47.200 33.488 C 44.175 33.488,42.938 33.516,44.450 33.550 M69.850 33.550 C 74.772 33.580,82.827 33.580,87.750 33.550 C 92.672 33.520,88.645 33.496,78.800 33.496 C 68.955 33.496,64.927 33.520,69.850 33.550 M130.449 33.550 L 133.197 33.611 133.250 47.656 L 133.303 61.700 133.351 47.550 L 133.400 33.400 130.550 33.444 L 127.700 33.488 130.449 33.550 M142.849 49.850 L 142.898 66.300 142.950 49.956 L 143.002 33.611 145.751 33.550 L 148.500 33.488 145.650 33.444 L 142.800 33.400 142.849 49.850 M155.150 33.550 C 156.938 33.583,159.863 33.583,161.650 33.550 C 163.438 33.516,161.975 33.489,158.400 33.489 C 154.825 33.489,153.363 33.516,155.150 33.550 M171.063 33.550 C 172.912 33.583,175.882 33.583,177.663 33.550 C 179.443 33.516,177.930 33.489,174.300 33.490 C 170.670 33.490,169.213 33.517,171.063 33.550 M79.150 44.550 C 82.367 44.581,87.632 44.581,90.850 44.550 C 94.067 44.519,91.435 44.494,85.000 44.494 C 78.565 44.494,75.932 44.519,79.150 44.550 M178.676 49.600 C 178.676 50.865,178.708 51.383,178.748 50.750 C 178.787 50.118,178.787 49.083,178.748 48.450 C 178.708 47.818,178.676 48.335,178.676 49.600 M29.290 55.100 C 29.290 59.060,29.317 60.708,29.350 58.763 C 29.382 56.818,29.382 53.578,29.350 51.563 C 29.317 49.548,29.290 51.140,29.290 55.100 M37.287 54.050 L 36.700 54.700 37.350 54.113 C 37.708 53.790,38.000 53.497,38.000 53.463 C 38.000 53.308,37.835 53.444,37.287 54.050 M31.989 59.550 L 31.300 60.300 32.050 59.611 C 32.748 58.969,32.892 58.800,32.739 58.800 C 32.706 58.800,32.368 59.138,31.989 59.550 M83.946 59.144 C 84.301 59.189,84.931 59.189,85.346 59.146 C 85.760 59.103,85.470 59.067,84.700 59.066 C 83.930 59.065,83.590 59.100,83.946 59.144 M85.093 86.800 C 85.093 92.685,85.119 95.093,85.150 92.150 C 85.181 89.208,85.181 84.392,85.150 81.450 C 85.119 78.508,85.093 80.915,85.093 86.800 M64.062 78.950 C 65.802 78.983,68.592 78.983,70.262 78.950 C 71.933 78.916,70.510 78.889,67.100 78.889 C 63.690 78.889,62.323 78.916,64.062 78.950 M147.449 97.850 L 147.400 114.200 149.750 114.157 L 152.100 114.114 149.851 114.051 L 147.602 113.987 147.550 97.743 L 147.498 81.500 147.449 97.850 M163.200 97.794 L 163.200 113.987 160.850 114.051 L 158.500 114.114 160.950 114.157 L 163.400 114.200 163.400 97.900 C 163.400 88.935,163.355 81.600,163.300 81.600 C 163.245 81.600,163.200 88.887,163.200 97.794 M209.649 97.850 L 209.600 114.200 211.950 114.157 L 214.300 114.114 212.051 114.051 L 209.802 113.987 209.750 97.743 L 209.698 81.500 209.649 97.850 M225.400 97.794 L 225.400 113.987 223.050 114.051 L 220.700 114.114 223.150 114.157 L 225.600 114.200 225.600 97.900 C 225.600 88.935,225.555 81.600,225.500 81.600 C 225.445 81.600,225.400 88.887,225.400 97.794 M229.049 97.850 L 229.000 114.200 233.850 114.154 L 238.700 114.108 233.951 114.050 L 229.202 113.993 229.150 97.746 L 229.098 81.500 229.049 97.850 M60.687 90.900 C 60.687 93.760,60.715 94.902,60.750 93.438 C 60.784 91.974,60.784 89.634,60.749 88.238 C 60.715 86.842,60.687 88.040,60.687 90.900 M93.887 110.250 L 93.300 110.900 93.950 110.313 C 94.556 109.765,94.692 109.600,94.537 109.600 C 94.503 109.600,94.210 109.892,93.887 110.250 M182.350 109.749 C 183.258 109.786,184.743 109.786,185.650 109.749 C 186.558 109.712,185.815 109.681,184.000 109.681 C 182.185 109.681,181.442 109.712,182.350 109.749 M235.146 109.744 C 235.501 109.789,236.131 109.789,236.546 109.746 C 236.960 109.703,236.670 109.667,235.900 109.666 C 235.130 109.665,234.790 109.700,235.146 109.744 M188.800 114.050 C 188.800 114.133,189.993 114.184,191.450 114.164 C 194.115 114.128,193.795 114.053,190.550 113.954 C 189.587 113.924,188.799 113.968,188.800 114.050 M42.350 114.150 C 44.248 114.183,47.352 114.183,49.250 114.150 C 51.148 114.117,49.595 114.090,45.800 114.090 C 42.005 114.090,40.453 114.117,42.350 114.150 M178.150 114.150 C 179.828 114.183,182.572 114.183,184.250 114.150 C 185.928 114.116,184.555 114.089,181.200 114.089 C 177.845 114.089,176.472 114.116,178.150 114.150 M203.150 114.149 C 203.947 114.186,205.253 114.186,206.050 114.149 C 206.847 114.111,206.195 114.079,204.600 114.079 C 203.005 114.079,202.353 114.111,203.150 114.149 M135.653 114.544 C 135.957 114.589,136.407 114.588,136.653 114.541 C 136.899 114.493,136.650 114.456,136.100 114.457 C 135.550 114.459,135.349 114.498,135.653 114.544 M261.500 169.200 C 261.930 169.640,262.326 170.000,262.381 170.000 C 262.436 170.000,262.130 169.640,261.700 169.200 C 261.270 168.760,260.874 168.400,260.819 168.400 C 260.764 168.400,261.070 168.760,261.500 169.200 M220.546 183.144 C 220.901 183.189,221.531 183.189,221.946 183.146 C 222.360 183.103,222.070 183.067,221.300 183.066 C 220.530 183.065,220.190 183.100,220.546 183.144 M207.046 190.800 C 207.046 191.185,207.088 191.343,207.138 191.150 C 207.188 190.958,207.188 190.643,207.138 190.450 C 207.088 190.258,207.046 190.415,207.046 190.800 M242.754 231.945 C 243.113 231.989,243.653 231.989,243.954 231.943 C 244.254 231.897,243.960 231.861,243.300 231.862 C 242.640 231.863,242.394 231.900,242.754 231.945 M276.146 231.944 C 276.501 231.989,277.131 231.989,277.546 231.946 C 277.960 231.903,277.670 231.867,276.900 231.866 C 276.130 231.865,275.790 231.900,276.146 231.944 M237.555 240.147 C 238.026 240.189,238.746 240.188,239.155 240.145 C 239.565 240.102,239.180 240.068,238.300 240.069 C 237.420 240.069,237.085 240.104,237.555 240.147 M281.250 240.146 C 281.663 240.189,282.338 240.189,282.750 240.146 C 283.163 240.103,282.825 240.067,282.000 240.067 C 281.175 240.067,280.838 240.103,281.250 240.146 M136.750 262.549 C 137.768 262.585,139.433 262.585,140.450 262.549 C 141.468 262.513,140.635 262.483,138.600 262.483 C 136.565 262.483,135.733 262.513,136.750 262.549 M169.750 262.749 C 170.988 262.784,173.013 262.784,174.250 262.749 C 175.488 262.714,174.475 262.686,172.000 262.686 C 169.525 262.686,168.513 262.714,169.750 262.749 M179.352 262.741 C 179.601 262.789,179.961 262.787,180.152 262.737 C 180.344 262.687,180.140 262.648,179.700 262.650 C 179.260 262.653,179.104 262.694,179.352 262.741 M158.650 301.350 C 160.383 301.383,163.218 301.383,164.950 301.350 C 166.683 301.316,165.265 301.289,161.800 301.289 C 158.335 301.289,156.918 301.316,158.650 301.350 M151.250 313.950 C 178.063 313.978,221.938 313.978,248.750 313.950 C 275.563 313.922,253.625 313.899,200.000 313.899 C 146.375 313.899,124.438 313.922,151.250 313.950 M151.250 327.550 C 178.063 327.578,221.938 327.578,248.750 327.550 C 275.563 327.522,253.625 327.499,200.000 327.499 C 146.375 327.499,124.438 327.522,151.250 327.550 M151.250 351.150 C 178.063 351.178,221.938 351.178,248.750 351.150 C 275.563 351.122,253.625 351.099,200.000 351.099 C 146.375 351.099,124.438 351.122,151.250 351.150 " stroke="none" fill="#b4e4a4" fill-rule="evenodd"></path></g></svg>