<svg id="svg" version="1.1" xmlns="http://www.w3.org/2000/svg" xmlns:xlink="http://www.w3.org/1999/xlink" width="400" height="400" viewBox="0, 0, 400,400"><g id="svgg"><path id="path0" d="M244.605 29.967 C 240.844 30.960,239.102 37.105,241.304 41.611 C 242.000 43.036,242.837 44.063,245.331 46.554 C 249.047 50.265,249.839 51.622,249.647 53.942 C 249.301 58.108,244.721 57.447,244.721 53.231 L 244.721 51.410 242.461 51.410 L 240.200 51.410 240.308 53.836 C 240.529 58.803,243.148 61.149,248.078 60.795 C 252.338 60.489,254.293 58.115,254.294 53.246 C 254.295 49.520,253.579 48.172,249.229 43.712 C 245.421 39.808,244.822 38.762,245.047 36.414 C 245.395 32.799,249.608 32.913,249.909 36.546 L 250.032 38.033 252.266 38.033 L 254.499 38.033 254.362 36.525 C 253.866 31.066,250.079 28.521,244.605 29.967 M304.671 29.967 C 300.909 30.961,299.162 37.093,301.359 41.590 C 302.065 43.035,302.895 44.058,305.389 46.557 C 308.780 49.955,309.763 51.498,309.768 53.426 C 309.778 57.933,305.082 57.753,304.636 53.229 L 304.457 51.410 302.361 51.410 L 300.265 51.410 300.373 53.836 C 300.594 58.803,303.214 61.149,308.144 60.795 C 312.353 60.493,314.305 58.156,314.341 53.377 C 314.370 49.530,313.727 48.299,309.306 43.734 C 305.481 39.785,304.888 38.750,305.113 36.414 C 305.460 32.799,309.673 32.913,309.974 36.546 L 310.098 38.033 312.332 38.033 L 314.567 38.033 314.399 36.426 C 313.830 30.983,310.128 28.525,304.671 29.967 M120.918 45.220 L 120.918 60.590 123.279 60.590 L 125.639 60.590 125.639 54.858 L 125.639 49.127 127.987 48.975 C 133.631 48.609,134.951 46.808,134.951 39.475 C 134.951 31.328,133.761 30.120,125.574 29.948 L 120.918 29.851 120.918 45.220 M138.920 44.525 C 137.641 52.567,136.535 59.472,136.461 59.869 L 136.328 60.590 138.454 60.590 C 140.887 60.590,140.596 60.956,141.169 57.180 L 141.508 54.951 144.520 54.951 L 147.532 54.951 147.934 57.705 L 148.336 60.459 150.736 60.534 C 152.927 60.603,153.127 60.569,153.026 60.141 C 152.965 59.883,151.969 53.711,150.811 46.426 C 149.654 39.141,148.580 32.443,148.425 31.541 L 148.143 29.902 144.694 29.902 L 141.245 29.902 138.920 44.525 M155.541 45.221 L 155.541 60.590 157.766 60.590 L 159.991 60.590 160.061 54.361 L 160.131 48.131 161.767 48.134 C 163.202 48.136,163.492 48.225,164.128 48.860 L 164.852 49.585 165.007 54.628 C 165.203 61.009,164.998 60.590,167.925 60.590 C 170.075 60.590,170.268 60.549,170.085 60.131 C 169.975 59.879,169.810 57.311,169.720 54.426 C 169.530 48.381,169.198 47.145,167.490 46.138 L 166.557 45.587 167.394 45.023 C 170.310 43.058,170.596 34.138,167.825 31.554 C 166.463 30.283,165.422 30.061,160.328 29.953 L 155.541 29.852 155.541 45.221 M171.541 32.000 L 171.541 34.098 174.033 34.098 L 176.525 34.098 176.525 47.344 L 176.525 60.590 178.883 60.590 L 181.241 60.590 181.309 47.410 L 181.377 34.230 183.934 34.154 L 186.492 34.079 186.492 31.991 L 186.492 29.902 179.016 29.902 L 171.541 29.902 171.541 32.000 M188.590 45.237 L 188.590 60.590 190.686 60.590 L 192.781 60.590 192.850 49.550 L 192.918 38.511 195.345 47.518 C 196.680 52.471,198.022 57.439,198.326 58.557 L 198.880 60.590 201.342 60.590 L 203.803 60.590 203.803 45.246 L 203.803 29.902 201.705 29.902 L 199.607 29.902 199.607 38.995 C 199.607 43.996,199.528 48.009,199.432 47.913 C 199.336 47.816,198.183 43.754,196.872 38.885 L 194.486 30.033 191.538 29.959 L 188.590 29.884 188.590 45.237 M207.213 45.246 L 207.213 60.590 213.770 60.590 L 220.328 60.590 220.328 58.498 L 220.328 56.407 216.197 56.335 L 212.066 56.262 211.994 51.738 L 211.922 47.213 215.207 47.213 L 218.492 47.213 218.492 45.123 L 218.492 43.033 215.279 42.959 L 212.066 42.885 211.994 38.492 L 211.922 34.098 216.125 34.098 L 220.328 34.098 220.328 32.000 L 220.328 29.902 213.770 29.902 L 207.213 29.902 207.213 45.246 M223.475 45.221 L 223.475 60.590 225.705 60.590 L 227.934 60.590 227.934 54.265 L 227.934 47.939 229.646 48.048 C 231.079 48.139,231.475 48.273,232.072 48.871 L 232.787 49.585 232.936 54.628 C 233.125 60.996,232.925 60.590,235.859 60.590 C 238.011 60.590,238.202 60.550,238.014 60.131 C 237.901 59.879,237.738 57.311,237.651 54.426 C 237.469 48.382,237.138 47.149,235.424 46.138 L 234.491 45.587 235.329 45.023 C 238.130 43.135,238.592 34.787,236.055 31.897 C 234.680 30.331,233.648 30.074,228.262 29.956 L 223.475 29.852 223.475 45.221 M257.311 45.246 L 257.311 60.590 259.672 60.590 L 262.033 60.590 262.033 54.033 L 262.033 47.475 264.787 47.475 L 267.541 47.475 267.541 54.033 L 267.541 60.590 269.902 60.590 L 272.262 60.590 272.262 45.246 L 272.262 29.902 269.902 29.902 L 267.541 29.902 267.541 36.459 L 267.541 43.016 264.787 43.016 L 262.033 43.016 262.033 36.459 L 262.033 29.902 259.672 29.902 L 257.311 29.902 257.311 45.246 M275.934 45.246 L 275.934 60.590 278.295 60.590 L 280.656 60.590 280.656 45.246 L 280.656 29.902 278.295 29.902 L 275.934 29.902 275.934 45.246 M284.328 45.220 L 284.328 60.590 286.689 60.590 L 289.049 60.590 289.049 54.858 L 289.049 49.127 291.372 48.976 C 296.932 48.616,298.345 46.746,298.355 39.738 C 298.366 31.399,297.162 30.142,288.984 29.956 L 284.328 29.851 284.328 45.220 M45.844 40.852 L 39.624 48.131 39.615 55.209 L 39.607 62.286 44.445 57.307 L 49.284 52.328 49.298 83.213 L 49.311 114.098 56.131 114.098 L 62.951 114.098 62.951 73.836 L 62.951 33.574 57.507 33.574 L 52.064 33.574 45.844 40.852 M69.246 38.951 L 69.246 44.328 79.607 44.328 C 88.281 44.328,89.967 44.387,89.967 44.693 C 89.967 44.893,85.954 60.497,81.049 79.367 C 76.144 98.238,72.131 113.774,72.131 113.892 C 72.131 114.011,75.109 114.076,78.749 114.037 L 85.366 113.967 94.213 80.000 L 103.059 46.033 103.071 39.803 L 103.082 33.574 86.164 33.574 L 69.246 33.574 69.246 38.951 M129.759 35.001 C 130.383 35.727,130.395 35.833,130.313 39.636 C 130.211 44.382,130.106 44.566,127.375 44.785 L 125.639 44.924 125.639 39.481 L 125.639 34.037 127.380 34.148 C 128.895 34.245,129.203 34.355,129.759 35.001 M164.293 34.864 C 165.053 35.623,165.284 41.150,164.610 42.454 C 164.126 43.389,162.804 43.892,161.180 43.758 L 160.131 43.672 160.059 39.223 C 160.019 36.776,160.051 34.606,160.130 34.400 C 160.364 33.791,163.577 34.149,164.293 34.864 M232.227 34.864 C 232.988 35.623,233.218 41.150,232.544 42.454 C 232.061 43.389,230.739 43.892,229.115 43.758 L 228.066 43.672 227.993 39.223 C 227.954 36.776,227.986 34.606,228.064 34.400 C 228.298 33.791,231.512 34.149,232.227 34.864 M293.080 34.865 C 293.603 35.388,293.639 35.690,293.639 39.475 C 293.639 44.405,293.555 44.563,290.785 44.785 L 289.049 44.924 289.049 39.475 L 289.049 34.027 290.785 34.166 C 292.081 34.270,292.662 34.447,293.080 34.865 M145.696 43.016 C 146.213 46.551,146.701 49.767,146.781 50.164 L 146.927 50.885 144.545 50.885 C 143.236 50.885,142.161 50.797,142.157 50.689 C 142.115 49.596,144.427 35.522,144.571 35.990 C 144.673 36.320,145.179 39.482,145.696 43.016 M140.326 75.509 C 138.123 76.229,136.626 77.712,136.011 79.782 C 135.415 81.789,135.415 99.981,136.011 101.989 C 137.810 108.047,147.828 108.050,149.627 101.994 C 150.224 99.981,150.225 81.793,149.628 79.782 C 148.621 76.392,144.049 74.292,140.326 75.509 M238.459 75.710 C 236.935 76.269,235.453 77.796,234.923 79.354 C 234.278 81.245,234.278 100.525,234.923 102.417 C 236.378 106.689,243.560 108.023,246.741 104.612 C 248.289 102.953,248.507 101.864,248.610 95.279 L 248.705 89.180 245.402 89.180 L 242.098 89.180 242.098 91.279 L 242.098 93.377 243.148 93.377 L 244.197 93.377 244.197 96.800 C 244.197 100.751,243.939 101.555,242.523 102.023 C 241.396 102.395,240.485 102.173,239.697 101.334 L 239.082 100.680 239.004 91.530 C 238.915 81.189,238.998 80.481,240.377 79.824 C 242.725 78.704,244.031 79.907,244.156 83.306 L 244.247 85.770 246.486 85.770 L 248.725 85.770 248.603 83.082 C 248.426 79.167,247.466 77.217,245.115 75.993 C 243.707 75.260,240.104 75.107,238.459 75.710 M255.958 75.589 C 254.713 75.920,252.989 77.406,252.253 78.782 C 251.355 80.461,251.343 101.291,252.238 102.951 C 254.852 107.795,262.852 107.743,265.138 102.867 L 265.836 101.377 265.836 90.885 L 265.836 80.393 265.146 78.923 C 263.729 75.900,259.945 74.527,255.958 75.589 M305.458 75.606 C 301.696 76.600,299.948 82.732,302.146 87.230 C 302.852 88.674,303.682 89.697,306.176 92.197 C 309.567 95.594,310.550 97.137,310.555 99.065 C 310.565 103.572,305.869 103.392,305.423 98.868 L 305.244 97.049 303.148 97.049 L 301.052 97.049 301.160 99.475 C 301.381 104.442,304.001 106.788,308.931 106.434 C 313.140 106.132,315.092 103.796,315.128 99.016 C 315.157 95.170,314.514 93.938,310.092 89.373 C 306.268 85.424,305.675 84.389,305.900 82.053 C 306.247 78.438,310.460 78.553,310.761 82.185 L 310.885 83.672 313.119 83.672 L 315.353 83.672 315.185 82.065 C 314.617 76.622,310.915 74.164,305.458 75.606 M120.918 90.885 L 120.918 106.230 123.279 106.230 L 125.639 106.230 125.639 99.803 L 125.639 93.377 128.787 93.377 L 131.934 93.377 131.934 91.279 L 131.934 89.180 128.787 89.180 L 125.639 89.180 125.639 84.459 L 125.639 79.738 129.574 79.738 L 133.508 79.738 133.508 77.639 L 133.508 75.541 127.213 75.541 L 120.918 75.541 120.918 90.885 M153.180 90.861 L 153.180 106.230 155.541 106.230 L 157.902 106.230 157.902 99.934 L 157.902 93.639 159.279 93.643 C 162.397 93.652,162.875 94.548,162.911 100.459 C 162.948 106.447,162.767 106.082,165.738 106.174 C 167.677 106.234,168.130 106.181,167.958 105.912 C 167.838 105.726,167.679 103.154,167.602 100.197 C 167.445 94.076,167.125 92.883,165.343 91.782 L 164.428 91.217 165.334 90.602 C 167.005 89.466,167.475 88.003,167.475 83.934 C 167.475 76.836,166.264 75.758,158.098 75.592 L 153.180 75.492 153.180 90.861 M176.262 77.639 L 176.262 79.738 178.754 79.738 L 181.246 79.738 181.246 92.984 L 181.246 106.230 183.607 106.230 L 185.967 106.230 185.967 92.984 L 185.967 79.738 188.459 79.738 L 190.951 79.738 190.951 77.639 L 190.951 75.541 183.607 75.541 L 176.262 75.541 176.262 77.639 M193.311 90.885 L 193.311 106.230 195.541 106.230 L 197.770 106.230 197.770 99.672 L 197.770 93.115 200.656 93.115 L 203.541 93.115 203.541 99.672 L 203.541 106.230 205.902 106.230 L 208.262 106.230 208.262 90.885 L 208.262 75.541 205.902 75.541 L 203.541 75.541 203.541 82.098 L 203.541 88.656 200.656 88.656 L 197.770 88.656 197.770 82.098 L 197.770 75.541 195.541 75.541 L 193.311 75.541 193.311 90.885 M211.934 90.885 L 211.934 106.230 218.361 106.230 L 224.787 106.230 224.787 104.131 L 224.787 102.033 220.721 102.033 L 216.656 102.033 216.656 97.443 L 216.656 92.852 219.934 92.852 L 223.213 92.852 223.213 90.754 L 223.213 88.656 219.934 88.656 L 216.656 88.656 216.656 84.197 L 216.656 79.738 220.721 79.738 L 224.787 79.738 224.787 77.639 L 224.787 75.541 218.361 75.541 L 211.934 75.541 211.934 90.885 M272.681 76.255 C 272.597 76.656,271.526 83.298,270.300 91.016 C 269.074 98.734,268.009 105.315,267.932 105.639 C 267.797 106.215,267.846 106.230,269.991 106.230 L 272.188 106.230 272.517 103.803 C 272.995 100.272,272.823 100.428,276.136 100.516 L 278.932 100.590 279.126 101.508 C 279.232 102.013,279.454 103.282,279.618 104.328 L 279.916 106.230 282.253 106.230 C 283.539 106.230,284.586 106.141,284.581 106.033 C 284.575 105.925,283.480 99.049,282.147 90.754 L 279.724 75.672 276.278 75.599 L 272.832 75.526 272.681 76.255 M286.951 90.885 L 286.951 106.230 293.246 106.230 L 299.541 106.230 299.541 104.131 L 299.541 102.033 295.607 102.033 L 291.672 102.033 291.672 88.787 L 291.672 75.541 289.311 75.541 L 286.951 75.541 286.951 90.885 M144.545 80.242 L 145.311 81.009 145.311 90.850 C 145.311 100.680,145.311 100.693,144.721 101.379 C 143.762 102.493,142.142 102.576,141.127 101.561 L 140.328 100.762 140.328 90.885 L 140.328 81.009 141.095 80.242 C 141.662 79.674,142.110 79.475,142.820 79.475 C 143.529 79.475,143.977 79.674,144.545 80.242 M260.379 80.108 L 261.115 80.741 261.115 90.835 C 261.115 100.360,261.087 100.959,260.620 101.476 C 259.558 102.649,257.219 102.413,256.494 101.058 C 256.091 100.304,255.945 82.369,256.331 80.990 C 256.744 79.514,259.093 79.003,260.379 80.108 M161.434 80.111 C 162.643 80.616,162.963 81.769,162.846 85.189 C 162.727 88.641,162.278 89.225,159.613 89.395 L 157.902 89.504 157.902 84.796 C 157.902 82.206,157.980 80.009,158.077 79.913 C 158.388 79.601,160.516 79.727,161.434 80.111 M277.243 88.743 C 277.822 92.613,278.295 95.948,278.295 96.152 C 278.295 96.446,277.795 96.525,275.914 96.525 L 273.532 96.525 273.683 95.803 C 273.767 95.407,274.249 92.249,274.755 88.787 C 275.743 82.034,275.986 80.694,276.112 81.311 C 276.156 81.528,276.665 84.872,277.243 88.743 M200.787 155.980 C 182.483 157.518,164.974 170.075,157.900 186.738 C 156.120 190.931,156.540 190.531,153.688 190.736 C 140.313 191.694,126.603 198.953,117.936 209.664 C 99.845 232.025,103.157 264.741,125.344 282.840 L 126.229 283.562 125.542 286.765 C 115.911 331.622,164.743 366.433,203.501 342.339 L 205.690 340.978 207.566 342.147 C 223.598 352.132,245.162 352.152,261.481 342.197 C 281.020 330.277,290.746 306.601,285.006 284.933 L 284.646 283.571 287.044 281.475 C 312.877 258.893,309.689 217.607,280.656 198.756 C 273.553 194.144,263.040 190.689,256.110 190.689 L 254.643 190.689 254.083 189.311 C 245.087 167.206,224.016 154.028,200.787 155.980 M212.197 166.736 C 224.970 168.804,236.269 177.013,242.368 188.657 C 243.323 190.481,243.609 191.247,243.362 191.326 C 243.172 191.386,242.072 191.634,240.918 191.877 C 226.875 194.831,213.876 204.826,206.636 218.238 C 205.278 220.753,205.427 220.733,204.356 218.557 C 198.188 206.025,185.171 195.731,170.946 192.136 C 166.855 191.103,167.106 191.413,168.354 188.931 C 176.399 172.930,194.342 163.847,212.197 166.736 M153.575 207.410 C 153.578 221.987,158.330 233.907,168.201 244.104 C 169.338 245.279,170.171 246.297,170.052 246.366 C 169.933 246.435,169.128 246.576,168.262 246.679 C 154.295 248.342,139.233 258.489,131.658 271.338 C 130.257 273.715,130.607 273.708,128.342 271.410 C 110.276 253.085,113.520 222.355,135.039 207.965 C 140.332 204.426,148.529 201.324,152.918 201.199 L 153.574 201.180 153.575 207.410 M260.852 201.690 C 293.101 208.536,305.373 247.801,282.612 271.312 L 280.622 273.368 279.111 270.889 C 271.255 258.003,258.475 249.187,243.829 246.550 C 242.250 246.265,240.902 246.033,240.834 246.033 C 240.766 246.033,241.763 244.941,243.049 243.607 C 251.522 234.820,256.523 223.405,257.296 211.084 C 257.425 209.027,257.487 207.049,257.434 206.689 C 257.381 206.328,257.280 204.941,257.210 203.607 L 257.083 201.180 257.788 201.184 C 258.175 201.187,259.554 201.414,260.852 201.690 M168.441 202.210 C 188.316 207.346,202.188 227.093,199.656 246.644 C 199.324 249.208,199.488 249.093,196.917 248.550 C 175.984 244.126,161.454 224.100,164.021 203.213 C 164.283 201.078,164.165 201.105,168.441 202.210 M246.742 202.426 C 247.199 204.581,246.948 212.954,246.342 215.781 C 242.782 232.375,229.930 245.364,213.926 248.542 C 211.191 249.085,211.495 249.395,211.119 245.689 C 209.123 225.998,223.462 206.504,243.279 201.967 C 246.389 201.255,246.497 201.269,246.742 202.426 M238.896 256.277 C 252.048 257.708,264.105 265.545,270.547 276.849 C 272.051 279.488,272.069 279.377,269.967 280.339 C 252.186 288.471,231.399 283.260,219.550 267.701 C 217.871 265.497,215.344 261.419,215.344 260.913 C 215.344 260.197,223.734 257.288,227.541 256.684 C 232.255 255.937,234.896 255.842,238.896 256.277 M179.227 256.527 C 184.491 256.963,188.907 258.084,193.335 260.108 C 195.814 261.241,195.767 260.817,193.770 264.074 C 182.735 282.078,160.855 288.989,141.451 280.602 L 139.033 279.557 139.715 278.205 C 145.622 266.491,159.323 257.600,173.115 256.532 C 174.485 256.425,175.725 256.323,175.869 256.305 C 176.013 256.286,177.524 256.386,179.227 256.527 M207.510 270.576 C 221.438 286.773,221.317 310.789,207.230 325.827 L 205.499 327.675 203.536 325.394 C 189.503 309.079,189.335 286.583,203.125 270.450 C 205.349 267.849,205.160 267.843,207.510 270.576 M236.110 291.793 C 248.091 295.779,260.670 295.391,272.229 290.679 L 275.386 289.392 275.528 290.073 C 279.958 311.297,265.487 333.302,243.803 338.314 C 234.256 340.520,222.665 338.943,214.943 334.387 L 214.034 333.850 215.429 332.237 C 225.774 320.275,230.138 304.649,227.508 288.991 L 227.344 288.016 229.979 289.323 C 231.429 290.042,234.188 291.153,236.110 291.793 M183.250 289.273 C 180.782 304.707,185.454 320.935,195.552 331.999 C 196.484 333.020,197.246 333.906,197.246 333.967 C 197.246 334.215,190.945 337.055,188.984 337.691 C 182.778 339.704,174.108 340.217,168.131 338.925 C 146.015 334.143,131.798 313.775,135.105 291.607 C 135.453 289.273,135.423 289.287,137.734 290.330 C 150.591 296.131,167.304 295.836,180.308 289.580 C 183.538 288.026,183.448 288.036,183.250 289.273 " stroke="none" fill="#fafbfb" fill-rule="evenodd"></path><path id="path1" d="M0.000 200.000 L 0.000 400.000 200.000 400.000 L 400.000 400.000 400.000 200.000 L 400.000 0.000 200.000 0.000 L 0.000 0.000 0.000 200.000 M250.951 30.199 C 253.150 31.257,254.426 33.621,254.426 36.637 L 254.426 38.295 252.066 38.295 L 249.705 38.295 249.705 36.888 C 249.705 34.930,249.041 34.098,247.475 34.098 C 243.452 34.098,244.432 38.746,249.537 43.879 C 254.007 48.374,255.083 50.829,254.417 55.014 C 253.902 58.245,252.393 59.986,249.454 60.739 C 243.976 62.142,240.138 59.057,240.133 53.246 L 240.131 51.279 242.426 51.203 L 244.721 51.127 244.721 52.694 C 244.721 56.047,246.738 57.566,248.816 55.779 C 250.798 54.074,249.588 50.968,245.273 46.682 C 240.637 42.078,239.471 39.095,240.504 34.479 C 241.458 30.220,246.609 28.109,250.951 30.199 M311.017 30.199 C 313.215 31.257,314.492 33.671,314.492 36.769 L 314.492 38.295 312.131 38.295 L 309.770 38.295 309.770 36.888 C 309.770 34.267,307.305 32.946,305.855 34.789 C 304.208 36.884,305.342 39.633,309.620 43.910 C 315.397 49.685,316.426 56.104,312.130 59.569 C 307.007 63.701,299.752 59.646,300.113 52.852 L 300.197 51.279 302.492 51.203 L 304.787 51.127 304.787 52.672 C 304.787 55.461,305.410 56.393,307.273 56.393 C 308.427 56.393,309.490 55.448,309.546 54.373 C 309.697 51.484,309.124 50.438,305.336 46.689 C 300.705 42.105,299.370 38.588,300.596 34.208 C 301.740 30.121,306.806 28.172,311.017 30.199 M131.410 30.448 C 134.640 31.913,135.805 35.545,135.143 42.089 C 134.628 47.177,133.006 48.791,128.197 48.999 L 125.639 49.110 125.639 54.850 L 125.639 60.590 123.148 60.590 L 120.656 60.590 120.656 45.246 L 120.656 29.902 125.443 29.907 C 129.693 29.913,130.362 29.973,131.410 30.448 M150.680 44.525 C 151.965 52.567,153.068 59.472,153.129 59.869 L 153.240 60.590 150.745 60.590 L 148.251 60.590 147.980 58.951 C 147.832 58.049,147.632 56.810,147.537 56.197 L 147.364 55.082 144.530 55.082 C 141.272 55.082,141.632 54.730,141.102 58.426 L 140.792 60.590 138.457 60.590 C 136.169 60.590,136.124 60.578,136.258 60.000 C 136.333 59.675,137.397 53.095,138.623 45.377 C 139.849 37.659,140.921 31.020,141.004 30.623 L 141.156 29.902 144.749 29.902 L 148.341 29.902 150.680 44.525 M165.705 30.208 C 167.350 30.622,168.952 32.230,169.458 33.976 C 170.597 37.903,169.598 43.849,167.601 45.029 L 166.842 45.477 167.849 46.339 C 169.531 47.779,169.767 48.719,169.944 54.689 C 170.029 57.574,170.194 60.082,170.311 60.262 C 170.475 60.517,169.933 60.590,167.884 60.590 C 166.433 60.590,165.228 60.561,165.207 60.525 C 165.186 60.489,165.091 58.157,164.996 55.344 C 164.775 48.749,164.538 48.262,161.561 48.262 L 160.262 48.262 160.262 54.426 L 160.262 60.590 157.770 60.590 L 155.279 60.590 155.279 45.246 L 155.279 29.902 159.884 29.902 C 162.525 29.902,165.008 30.032,165.705 30.208 M186.492 32.131 L 186.492 34.361 184.000 34.361 L 181.508 34.361 181.508 47.475 L 181.508 60.590 179.016 60.590 L 176.525 60.590 176.525 47.475 L 176.525 34.361 174.033 34.361 L 171.541 34.361 171.541 32.131 L 171.541 29.902 179.016 29.902 L 186.492 29.902 186.492 32.131 M194.833 30.754 C 194.962 31.223,196.000 35.085,197.140 39.335 L 199.213 47.064 199.282 38.483 L 199.351 29.902 201.577 29.902 L 203.803 29.902 203.803 45.246 L 203.803 60.590 201.246 60.587 L 198.689 60.585 195.803 49.817 L 192.918 39.049 192.850 49.820 L 192.781 60.590 190.554 60.590 L 188.328 60.590 188.328 45.246 L 188.328 29.902 191.463 29.902 L 194.598 29.902 194.833 30.754 M220.328 32.131 L 220.328 34.361 216.262 34.361 L 212.197 34.361 212.197 38.557 L 212.197 42.754 215.475 42.754 L 218.754 42.754 218.754 44.984 L 218.754 47.213 215.475 47.213 L 212.197 47.213 212.197 51.672 L 212.197 56.131 216.262 56.131 L 220.328 56.131 220.328 58.361 L 220.328 60.590 213.770 60.590 L 207.213 60.590 207.213 45.246 L 207.213 29.902 213.770 29.902 L 220.328 29.902 220.328 32.131 M234.673 30.621 C 238.526 32.680,239.137 42.901,235.535 45.029 L 234.776 45.477 235.784 46.339 C 237.454 47.769,237.691 48.718,237.873 54.689 C 237.961 57.574,238.128 60.082,238.245 60.262 C 238.410 60.517,237.868 60.590,235.819 60.590 C 234.368 60.590,233.163 60.561,233.141 60.525 C 233.120 60.489,233.025 58.157,232.931 55.344 C 232.709 48.749,232.473 48.262,229.496 48.262 L 228.197 48.262 228.197 54.426 L 228.197 60.590 225.705 60.590 L 223.213 60.590 223.213 45.226 L 223.213 29.862 228.393 29.948 C 233.166 30.026,233.660 30.079,234.673 30.621 M262.033 36.459 L 262.033 43.016 264.787 43.016 L 267.541 43.016 267.541 36.459 L 267.541 29.902 270.033 29.902 L 272.525 29.902 272.525 45.246 L 272.525 60.590 270.033 60.590 L 267.541 60.590 267.541 54.033 L 267.541 47.475 264.787 47.475 L 262.033 47.475 262.033 54.033 L 262.033 60.590 259.541 60.590 L 257.049 60.590 257.049 45.246 L 257.049 29.902 259.541 29.902 L 262.033 29.902 262.033 36.459 M280.918 45.246 L 280.918 60.590 278.426 60.590 L 275.934 60.590 275.934 45.246 L 275.934 29.902 278.426 29.902 L 280.918 29.902 280.918 45.246 M295.263 30.621 C 297.797 31.975,298.492 33.880,298.492 39.475 C 298.492 46.784,297.045 48.789,291.615 49.007 L 289.049 49.110 289.049 54.850 L 289.049 60.590 286.557 60.590 L 284.066 60.590 284.066 45.226 L 284.066 29.862 289.115 29.947 C 293.751 30.026,294.254 30.081,295.263 30.621 M62.951 73.705 L 62.951 114.098 56.132 114.098 L 49.314 114.098 49.247 83.320 L 49.180 52.541 44.600 57.287 C 42.080 59.897,39.926 62.072,39.813 62.120 C 39.699 62.168,39.607 59.005,39.607 55.090 L 39.607 47.972 45.836 40.651 L 52.066 33.329 57.508 33.320 L 62.951 33.311 62.951 73.705 M103.082 39.872 L 103.082 46.433 94.545 79.282 C 89.849 97.349,85.890 112.574,85.748 113.115 L 85.488 114.098 78.678 114.098 C 74.933 114.098,71.873 114.069,71.877 114.033 C 71.882 113.997,75.939 98.387,80.893 79.344 L 89.899 44.721 79.441 44.653 L 68.984 44.584 68.984 38.948 L 68.984 33.311 86.033 33.311 L 103.082 33.311 103.082 39.872 M125.639 39.475 L 125.639 44.590 127.178 44.590 C 128.337 44.590,128.886 44.456,129.407 44.047 L 130.098 43.503 130.094 39.522 C 130.092 37.332,130.004 35.411,129.898 35.252 C 129.512 34.674,128.527 34.361,127.099 34.361 L 125.639 34.361 125.639 39.475 M160.262 38.951 L 160.262 43.541 161.807 43.541 C 164.286 43.541,164.971 42.547,164.971 38.951 C 164.971 35.355,164.286 34.361,161.807 34.361 L 160.262 34.361 160.262 38.951 M228.197 38.951 L 228.197 43.541 229.741 43.541 C 232.228 43.541,232.887 42.555,232.900 38.820 C 232.913 35.374,232.195 34.361,229.741 34.361 L 228.197 34.361 228.197 38.951 M289.049 39.475 L 289.049 44.590 290.635 44.590 C 293.293 44.590,293.508 44.206,293.508 39.475 C 293.508 34.744,293.293 34.361,290.635 34.361 L 289.049 34.361 289.049 39.475 M143.362 43.313 C 142.807 47.117,142.298 50.377,142.231 50.557 C 142.138 50.804,142.669 50.885,144.365 50.885 C 145.968 50.885,146.623 50.792,146.623 50.565 C 146.623 49.850,144.737 37.341,144.561 36.886 C 144.447 36.593,143.964 39.182,143.362 43.313 M146.616 75.996 C 149.899 77.639,150.295 79.242,150.295 90.885 C 150.295 102.590,149.917 104.094,146.536 105.817 C 142.393 107.929,137.256 106.136,135.817 102.078 C 135.326 100.693,135.326 81.078,135.817 79.693 C 137.279 75.569,142.317 73.844,146.616 75.996 M244.459 75.571 C 247.303 76.421,248.656 78.968,248.656 83.468 L 248.656 86.053 246.361 85.977 L 244.066 85.902 243.934 83.370 C 243.753 79.865,242.067 78.536,239.963 80.239 L 239.344 80.741 239.344 90.885 L 239.344 101.030 239.963 101.531 C 240.873 102.268,242.481 102.199,243.291 101.389 C 243.911 100.769,243.934 100.615,243.934 97.192 L 243.934 93.639 242.875 93.639 L 241.816 93.639 241.891 91.344 L 241.967 89.049 245.311 88.976 L 248.656 88.902 248.656 94.901 C 248.656 99.319,248.558 101.225,248.284 102.134 C 246.564 107.852,237.462 108.318,234.909 102.820 C 234.253 101.407,233.903 83.006,234.482 80.364 C 235.417 76.095,239.559 74.105,244.459 75.571 M262.505 75.962 C 265.774 77.561,266.008 78.624,265.913 91.480 L 265.836 101.902 265.071 103.283 C 262.448 108.017,254.459 107.778,252.032 102.892 L 251.410 101.639 251.410 91.016 C 251.410 79.630,251.418 79.551,252.784 77.695 C 254.714 75.074,259.094 74.293,262.505 75.962 M311.804 75.838 C 314.002 76.896,315.279 79.310,315.279 82.408 L 315.279 83.934 312.918 83.934 L 310.557 83.934 310.557 82.527 C 310.557 80.569,309.893 79.738,308.328 79.738 C 304.296 79.738,305.292 84.435,310.407 89.549 C 316.194 95.335,317.220 101.737,312.917 105.208 C 307.794 109.340,300.539 105.286,300.900 98.492 L 300.984 96.918 303.279 96.842 L 305.574 96.766 305.574 98.311 C 305.574 101.101,306.196 102.033,308.060 102.033 C 309.214 102.033,310.277 101.087,310.333 100.012 C 310.483 97.123,309.911 96.078,306.123 92.328 C 301.492 87.744,300.157 84.227,301.383 79.848 C 302.527 75.761,307.593 73.812,311.804 75.838 M133.770 77.770 L 133.770 80.000 129.705 80.000 L 125.639 80.000 125.639 84.590 L 125.639 89.180 128.787 89.180 L 131.934 89.180 131.934 91.410 L 131.934 93.639 128.787 93.639 L 125.639 93.639 125.639 99.934 L 125.639 106.230 123.148 106.230 L 120.656 106.230 120.656 90.885 L 120.656 75.541 127.213 75.541 L 133.770 75.541 133.770 77.770 M163.441 75.807 C 166.498 76.657,167.444 78.352,167.566 83.202 C 167.675 87.534,167.329 88.922,165.793 90.309 L 164.798 91.208 165.676 91.909 C 167.394 93.280,167.806 95.170,167.930 102.230 L 168.000 106.230 165.602 106.230 C 162.690 106.229,162.889 106.579,162.874 101.421 C 162.855 94.932,162.406 93.902,159.592 93.902 L 158.164 93.902 158.164 100.066 L 158.164 106.230 155.672 106.230 L 153.180 106.230 153.180 90.885 L 153.180 75.541 157.836 75.542 C 160.397 75.543,162.919 75.663,163.441 75.807 M191.213 77.770 L 191.213 80.000 188.721 80.000 L 186.230 80.000 186.230 93.115 L 186.230 106.230 183.738 106.230 L 181.246 106.230 181.246 93.115 L 181.246 80.000 178.623 80.000 L 176.000 80.000 176.000 77.770 L 176.000 75.541 183.607 75.541 L 191.213 75.541 191.213 77.770 M198.033 82.098 L 198.033 88.656 200.656 88.656 L 203.279 88.656 203.279 82.098 L 203.279 75.541 205.902 75.541 L 208.525 75.541 208.525 90.885 L 208.525 106.230 205.902 106.230 L 203.279 106.230 203.279 99.672 L 203.279 93.115 200.656 93.115 L 198.033 93.115 198.033 99.672 L 198.033 106.230 195.541 106.230 L 193.049 106.230 193.049 90.885 L 193.049 75.541 195.541 75.541 L 198.033 75.541 198.033 82.098 M225.049 77.770 L 225.049 80.000 220.852 80.000 L 216.656 80.000 216.656 84.197 L 216.656 88.393 219.934 88.393 L 223.213 88.393 223.213 90.623 L 223.213 92.852 219.934 92.852 L 216.656 92.852 216.656 97.311 L 216.656 101.770 220.852 101.770 L 225.049 101.770 225.049 104.000 L 225.049 106.230 218.361 106.230 L 211.672 106.230 211.672 90.885 L 211.672 75.541 218.361 75.541 L 225.049 75.541 225.049 77.770 M279.970 76.262 C 280.049 76.659,281.122 83.357,282.354 91.148 C 283.587 98.938,284.642 105.518,284.699 105.770 C 284.793 106.183,284.547 106.230,282.254 106.230 L 279.704 106.230 279.328 103.541 L 278.951 100.852 276.043 100.779 L 273.136 100.705 272.810 103.008 C 272.313 106.510,272.556 106.230,270.015 106.230 C 268.531 106.230,267.803 106.131,267.803 105.930 C 267.803 105.765,268.866 98.995,270.164 90.885 C 271.462 82.776,272.525 76.006,272.525 75.841 C 272.525 75.630,273.612 75.541,276.176 75.541 L 279.827 75.541 279.970 76.262 M291.672 88.656 L 291.672 101.770 295.738 101.770 L 299.803 101.770 299.803 104.000 L 299.803 106.230 293.246 106.230 L 286.689 106.230 286.689 90.885 L 286.689 75.541 289.180 75.541 L 291.672 75.541 291.672 88.656 M141.308 80.066 C 140.423 80.738,140.328 81.787,140.328 90.885 C 140.328 100.011,140.418 100.988,141.322 101.675 C 142.126 102.286,143.829 102.117,144.544 101.356 L 145.180 100.680 145.263 91.848 C 145.352 82.261,145.270 81.008,144.506 80.243 C 143.916 79.654,141.991 79.547,141.308 80.066 M257.013 80.239 L 256.393 80.741 256.393 90.885 L 256.393 101.030 257.013 101.531 C 257.922 102.268,259.530 102.199,260.340 101.389 L 260.984 100.745 260.984 90.933 C 260.984 81.403,260.968 81.100,260.440 80.429 C 259.753 79.556,257.978 79.458,257.013 80.239 M158.164 84.590 L 158.164 89.180 159.750 89.180 C 162.340 89.180,162.623 88.729,162.623 84.590 C 162.623 80.451,162.340 80.000,159.750 80.000 L 158.164 80.000 158.164 84.590 M275.843 82.754 C 275.650 83.650,273.836 95.853,273.836 96.259 C 273.836 96.417,274.737 96.525,276.071 96.525 C 278.252 96.525,278.302 96.511,278.173 95.934 C 278.100 95.610,277.619 92.452,277.103 88.918 C 276.022 81.511,276.066 81.723,275.843 82.754 M209.208 155.813 C 228.819 157.389,245.811 169.539,253.395 187.409 L 254.620 190.294 257.558 190.600 C 301.344 195.168,320.517 247.876,289.705 278.978 C 287.830 280.871,285.963 282.666,285.557 282.966 L 284.819 283.511 285.477 286.477 C 293.608 323.167,261.248 356.123,224.262 348.818 C 218.873 347.753,211.617 344.909,207.383 342.200 C 205.561 341.034,206.000 340.993,203.376 342.578 C 164.398 366.122,115.790 331.716,125.280 287.302 C 125.645 285.594,125.963 284.069,125.988 283.912 C 126.013 283.755,124.970 282.686,123.672 281.537 C 89.757 251.502,108.005 195.152,153.107 190.642 L 156.295 190.324 156.859 188.776 C 163.299 171.114,181.628 157.426,200.968 155.836 C 204.887 155.514,205.471 155.512,209.208 155.813 M199.832 166.676 C 186.469 168.593,174.899 176.735,168.679 188.602 L 167.367 191.105 170.409 191.830 C 184.725 195.243,198.169 205.724,204.356 218.295 C 205.437 220.492,205.201 220.594,207.166 217.074 C 214.252 204.381,226.732 194.995,240.852 191.738 C 242.259 191.414,243.410 191.101,243.410 191.043 C 243.410 190.626,241.276 186.860,239.700 184.496 C 231.222 171.775,214.959 164.507,199.832 166.676 M152.656 201.355 C 119.119 206.659,104.864 246.729,127.966 270.754 C 130.607 273.501,130.224 273.477,131.720 270.988 C 139.180 258.584,152.477 249.386,166.713 246.784 L 169.920 246.198 167.824 243.951 C 159.294 234.808,154.600 224.401,153.420 212.011 C 153.147 209.149,153.261 203.211,153.616 201.770 C 153.696 201.446,153.660 201.196,153.537 201.216 C 153.413 201.236,153.016 201.298,152.656 201.355 M257.493 205.744 C 257.982 220.370,252.846 233.792,242.816 244.098 L 240.998 245.966 242.532 246.154 C 256.554 247.873,271.479 257.862,279.115 270.637 C 279.866 271.891,280.531 272.977,280.594 273.049 C 280.777 273.257,284.273 269.440,285.891 267.265 C 304.337 242.473,289.861 206.466,259.491 201.602 L 257.343 201.258 257.493 205.744 M164.337 202.068 C 163.549 204.730,163.967 212.913,165.138 217.750 C 168.837 233.025,182.257 245.880,197.172 248.435 C 199.486 248.832,199.262 249.106,199.570 245.502 C 201.162 226.892,189.214 209.060,171.197 203.158 C 166.851 201.734,164.545 201.368,164.337 202.068 M243.541 202.101 C 227.247 205.831,215.010 218.553,211.755 235.148 C 211.261 237.665,211.082 246.028,211.482 247.906 L 211.685 248.861 214.105 248.343 C 233.767 244.132,247.219 227.006,246.771 206.756 C 246.645 201.067,246.839 201.346,243.541 202.101 M228.361 256.658 C 223.390 257.467,215.606 260.176,215.607 261.098 C 215.607 261.577,218.188 265.744,219.752 267.790 C 231.387 283.008,252.330 288.295,269.584 280.367 L 271.759 279.368 271.110 278.089 C 263.591 263.249,245.034 253.947,228.361 256.658 M170.718 256.924 C 158.328 258.614,147.224 265.939,140.770 276.679 C 138.983 279.653,138.938 279.398,141.436 280.471 C 160.900 288.833,182.405 282.069,193.635 264.052 C 195.481 261.090,195.482 261.205,193.615 260.367 C 186.217 257.047,178.412 255.874,170.718 256.924 M204.298 269.290 C 192.654 281.629,189.750 300.841,197.261 315.843 C 199.170 319.654,202.945 324.999,205.103 326.942 L 205.675 327.458 207.034 325.923 C 221.442 309.646,221.281 285.677,206.656 269.815 L 205.246 268.286 204.298 269.290 M180.504 289.625 C 167.282 296.059,150.235 296.302,137.160 290.244 C 135.460 289.457,135.543 289.343,135.070 293.102 C 131.308 322.990,160.661 347.007,189.268 337.447 C 191.173 336.810,196.984 334.206,196.984 333.989 C 196.984 333.938,196.093 332.864,195.005 331.604 C 185.148 320.185,180.424 303.532,183.052 289.465 C 183.175 288.804,183.262 288.272,183.245 288.285 C 183.227 288.297,181.994 288.900,180.504 289.625 M227.845 290.158 C 230.460 304.900,225.692 320.491,214.609 333.440 C 213.877 334.295,220.681 337.154,226.475 338.425 C 230.313 339.268,238.891 339.263,242.793 338.415 C 262.344 334.169,275.919 317.644,276.021 297.967 C 276.037 294.990,275.577 289.574,275.309 289.574 C 275.284 289.574,274.313 289.974,273.153 290.464 C 258.413 296.680,240.963 295.864,227.655 288.335 C 227.573 288.289,227.659 289.109,227.845 290.158 " stroke="none" fill="#1c4c6c" fill-rule="evenodd"></path><path id="path2" d="M246.754 29.562 C 247.079 29.625,247.610 29.625,247.934 29.562 C 248.259 29.500,247.993 29.448,247.344 29.448 C 246.695 29.448,246.430 29.500,246.754 29.562 M306.820 29.562 C 307.144 29.625,307.675 29.625,308.000 29.562 C 308.325 29.500,308.059 29.448,307.410 29.448 C 306.761 29.448,306.495 29.500,306.820 29.562 M120.779 45.246 C 120.779 53.757,120.812 57.201,120.852 52.899 C 120.893 48.597,120.893 41.633,120.852 37.424 C 120.812 33.215,120.779 36.734,120.779 45.246 M257.172 45.246 C 257.172 53.757,257.205 57.201,257.246 52.899 C 257.286 48.597,257.286 41.633,257.246 37.424 C 257.205 33.215,257.172 36.734,257.172 45.246 M280.779 45.246 C 280.779 53.757,280.812 57.201,280.852 52.899 C 280.893 48.597,280.893 41.633,280.852 37.424 C 280.812 33.215,280.779 36.734,280.779 45.246 M212.041 38.557 C 212.041 40.938,212.081 41.911,212.130 40.721 C 212.178 39.531,212.178 37.584,212.130 36.393 C 212.081 35.203,212.041 36.177,212.041 38.557 M130.200 39.475 C 130.201 41.351,130.243 42.084,130.293 41.104 C 130.344 40.124,130.343 38.590,130.292 37.694 C 130.241 36.798,130.200 37.600,130.200 39.475 M169.795 38.164 C 169.796 39.318,169.842 39.758,169.897 39.141 C 169.953 38.524,169.952 37.579,169.896 37.042 C 169.839 36.505,169.794 37.010,169.795 38.164 M249.776 37.246 C 249.776 37.895,249.828 38.161,249.890 37.836 C 249.953 37.511,249.953 36.980,249.890 36.656 C 249.828 36.331,249.776 36.597,249.776 37.246 M305.110 36.984 C 305.110 37.489,305.164 37.695,305.230 37.443 C 305.296 37.190,305.296 36.777,305.230 36.525 C 305.164 36.272,305.110 36.479,305.110 36.984 M237.725 38.164 C 237.727 39.174,237.774 39.555,237.831 39.011 C 237.888 38.466,237.887 37.640,237.829 37.174 C 237.771 36.709,237.724 37.154,237.725 38.164 M309.837 37.377 C 309.840 37.954,309.893 38.159,309.956 37.833 C 310.019 37.507,310.016 37.035,309.951 36.784 C 309.885 36.533,309.834 36.800,309.837 37.377 M293.606 39.475 C 293.607 41.062,293.650 41.678,293.702 40.843 C 293.755 40.008,293.754 38.710,293.701 37.958 C 293.648 37.206,293.606 37.889,293.606 39.475 M135.172 39.475 C 135.173 40.630,135.219 41.069,135.274 40.452 C 135.330 39.835,135.329 38.891,135.273 38.354 C 135.216 37.817,135.171 38.321,135.172 39.475 M160.721 43.726 C 161.046 43.789,161.577 43.789,161.902 43.726 C 162.226 43.664,161.961 43.612,161.311 43.612 C 160.662 43.612,160.397 43.664,160.721 43.726 M228.656 43.726 C 228.980 43.789,229.511 43.789,229.836 43.726 C 230.161 43.664,229.895 43.612,229.246 43.612 C 228.597 43.612,228.331 43.664,228.656 43.726 M303.989 45.443 C 305.076 46.601,305.311 46.809,305.311 46.612 C 305.311 46.570,304.751 46.009,304.066 45.366 L 302.820 44.197 303.989 45.443 M243.934 45.508 C 244.424 46.013,244.883 46.426,244.955 46.426 C 245.027 46.426,244.686 46.013,244.197 45.508 C 243.707 45.003,243.248 44.590,243.176 44.590 C 243.104 44.590,243.445 45.003,243.934 45.508 M212.042 51.672 C 212.042 54.197,212.082 55.230,212.130 53.967 C 212.178 52.705,212.178 50.639,212.130 49.377 C 212.082 48.115,212.042 49.148,212.042 51.672 M160.721 48.185 C 161.046 48.248,161.577 48.248,161.902 48.185 C 162.226 48.123,161.961 48.071,161.311 48.071 C 160.662 48.071,160.397 48.123,160.721 48.185 M228.656 48.185 C 228.980 48.248,229.511 48.248,229.836 48.185 C 230.161 48.123,229.895 48.071,229.246 48.071 C 228.597 48.071,228.331 48.123,228.656 48.185 M237.739 53.902 C 237.740 55.633,237.782 56.307,237.834 55.400 C 237.885 54.492,237.885 53.076,237.833 52.252 C 237.781 51.428,237.739 52.170,237.739 53.902 M241.385 51.341 C 242.075 51.395,243.137 51.394,243.746 51.339 C 244.354 51.284,243.790 51.240,242.492 51.241 C 241.193 51.241,240.695 51.286,241.385 51.341 M301.451 51.341 C 302.140 51.395,303.202 51.394,303.811 51.339 C 304.420 51.284,303.856 51.240,302.557 51.241 C 301.259 51.241,300.761 51.286,301.451 51.341 M254.487 53.246 C 254.487 53.751,254.541 53.957,254.607 53.705 C 254.673 53.452,254.673 53.039,254.607 52.787 C 254.541 52.534,254.487 52.741,254.487 53.246 M46.545 55.148 L 45.508 56.262 46.623 55.225 C 47.236 54.655,47.738 54.154,47.738 54.111 C 47.738 53.912,47.509 54.111,46.545 55.148 M246.754 61.038 C 247.079 61.100,247.610 61.100,247.934 61.038 C 248.259 60.975,247.993 60.924,247.344 60.924 C 246.695 60.924,246.430 60.975,246.754 61.038 M306.820 61.038 C 307.144 61.100,307.675 61.100,308.000 61.038 C 308.325 60.975,308.059 60.924,307.410 60.924 C 306.761 60.924,306.495 60.975,306.820 61.038 M142.233 75.205 C 142.632 75.265,143.222 75.263,143.545 75.201 C 143.867 75.139,143.541 75.089,142.820 75.091 C 142.098 75.093,141.834 75.144,142.233 75.205 M240.856 75.205 C 241.255 75.265,241.845 75.263,242.168 75.201 C 242.490 75.139,242.164 75.089,241.443 75.091 C 240.721 75.093,240.457 75.144,240.856 75.205 M258.168 75.205 C 258.566 75.265,259.156 75.263,259.479 75.201 C 259.802 75.139,259.475 75.089,258.754 75.091 C 258.033 75.093,257.769 75.144,258.168 75.205 M307.607 75.202 C 307.931 75.264,308.462 75.264,308.787 75.202 C 309.111 75.139,308.846 75.088,308.197 75.088 C 307.548 75.088,307.282 75.139,307.607 75.202 M120.779 90.885 C 120.779 99.397,120.812 102.841,120.852 98.539 C 120.893 94.236,120.893 87.273,120.852 83.063 C 120.812 78.854,120.779 82.374,120.779 90.885 M133.601 77.770 C 133.601 79.069,133.645 79.633,133.700 79.024 C 133.755 78.416,133.756 77.353,133.701 76.664 C 133.647 75.974,133.602 76.472,133.601 77.770 M176.093 77.770 C 176.092 79.069,176.137 79.633,176.192 79.024 C 176.247 78.416,176.247 77.353,176.193 76.664 C 176.139 75.974,176.094 76.472,176.093 77.770 M203.393 82.098 C 203.393 85.777,203.430 87.282,203.475 85.443 C 203.520 83.603,203.520 80.593,203.475 78.754 C 203.430 76.915,203.393 78.420,203.393 82.098 M208.385 90.885 C 208.385 99.397,208.418 102.841,208.459 98.539 C 208.499 94.236,208.499 87.273,208.459 83.063 C 208.418 78.854,208.385 82.374,208.385 90.885 M286.811 90.885 C 286.812 99.397,286.845 102.841,286.885 98.539 C 286.926 94.236,286.926 87.273,286.885 83.063 C 286.845 78.854,286.811 82.374,286.811 90.885 M186.089 93.115 C 186.089 100.400,186.123 103.380,186.164 99.738 C 186.205 96.095,186.205 90.134,186.164 86.492 C 186.123 82.849,186.089 85.830,186.089 93.115 M150.151 90.885 C 150.151 95.934,150.186 97.963,150.229 95.393 C 150.272 92.823,150.272 88.692,150.229 86.213 C 150.186 83.733,150.151 85.836,150.151 90.885 M261.102 90.885 C 261.102 95.934,261.137 97.963,261.180 95.393 C 261.223 92.823,261.223 88.692,261.180 86.213 C 261.137 83.733,261.102 85.836,261.102 90.885 M305.897 82.623 C 305.897 83.128,305.951 83.334,306.017 83.082 C 306.083 82.830,306.083 82.416,306.017 82.164 C 305.951 81.911,305.897 82.118,305.897 82.623 M244.046 83.934 L 244.066 85.902 246.361 85.918 L 248.657 85.934 246.438 85.842 L 244.219 85.750 244.123 83.859 L 244.026 81.967 244.046 83.934 M310.624 83.016 C 310.626 83.593,310.680 83.799,310.743 83.472 C 310.806 83.146,310.803 82.674,310.738 82.423 C 310.672 82.172,310.621 82.439,310.624 83.016 M162.716 84.590 C 162.715 85.889,162.760 86.453,162.815 85.844 C 162.870 85.235,162.870 84.173,162.816 83.483 C 162.762 82.794,162.717 83.292,162.716 84.590 M243.749 89.113 C 244.728 89.163,246.263 89.163,247.158 89.112 C 248.054 89.061,247.252 89.019,245.377 89.020 C 243.502 89.020,242.769 89.062,243.749 89.113 M158.623 89.365 C 158.948 89.428,159.479 89.428,159.803 89.365 C 160.128 89.303,159.862 89.252,159.213 89.252 C 158.564 89.252,158.298 89.303,158.623 89.365 M304.776 91.082 C 305.419 91.767,305.980 92.328,306.022 92.328 C 306.219 92.328,306.011 92.092,304.852 91.005 L 303.607 89.836 304.776 91.082 M203.393 99.672 C 203.393 103.351,203.430 104.856,203.475 103.016 C 203.520 101.177,203.520 98.167,203.475 96.328 C 203.430 94.489,203.393 95.993,203.393 99.672 M158.623 93.824 C 158.948 93.887,159.479 93.887,159.803 93.824 C 160.128 93.762,159.862 93.711,159.213 93.711 C 158.564 93.711,158.298 93.762,158.623 93.824 M244.035 96.656 C 244.035 98.387,244.078 99.061,244.129 98.154 C 244.180 97.246,244.180 95.830,244.128 95.006 C 244.076 94.182,244.034 94.925,244.035 96.656 M302.237 96.980 C 302.927 97.034,303.989 97.034,304.598 96.979 C 305.207 96.924,304.643 96.879,303.344 96.880 C 302.046 96.881,301.548 96.926,302.237 96.980 M167.709 100.459 C 167.709 102.407,167.751 103.203,167.801 102.230 C 167.852 101.256,167.852 99.662,167.801 98.689 C 167.751 97.715,167.709 98.511,167.709 100.459 M299.634 104.000 C 299.633 105.298,299.678 105.863,299.733 105.254 C 299.788 104.645,299.788 103.583,299.734 102.893 C 299.680 102.204,299.635 102.702,299.634 104.000 M142.364 106.677 C 142.690 106.740,143.162 106.738,143.413 106.672 C 143.664 106.606,143.397 106.555,142.820 106.558 C 142.243 106.561,142.037 106.615,142.364 106.677 M240.987 106.677 C 241.313 106.740,241.785 106.738,242.036 106.672 C 242.287 106.606,242.020 106.555,241.443 106.558 C 240.866 106.561,240.660 106.615,240.987 106.677 M258.033 106.677 C 258.357 106.739,258.889 106.739,259.213 106.677 C 259.538 106.614,259.272 106.563,258.623 106.563 C 257.974 106.563,257.708 106.614,258.033 106.677 M307.607 106.677 C 307.931 106.739,308.462 106.739,308.787 106.677 C 309.111 106.614,308.846 106.563,308.197 106.563 C 307.548 106.563,307.282 106.614,307.607 106.677 M204.393 155.732 C 204.934 155.789,205.820 155.789,206.361 155.732 C 206.902 155.675,206.459 155.629,205.377 155.629 C 204.295 155.629,203.852 155.675,204.393 155.732 M121.173 205.836 L 119.475 207.607 121.246 205.909 C 122.890 204.333,123.136 204.066,122.943 204.066 C 122.903 204.066,122.106 204.862,121.173 205.836 M153.246 206.033 C 153.249 206.610,153.303 206.815,153.366 206.489 C 153.429 206.162,153.426 205.690,153.361 205.440 C 153.295 205.189,153.244 205.456,153.246 206.033 M214.806 206.623 L 213.902 207.607 214.885 206.703 C 215.426 206.205,215.869 205.763,215.869 205.719 C 215.869 205.519,215.647 205.707,214.806 206.623 M246.911 208.000 C 246.911 209.226,246.957 209.728,247.012 209.115 C 247.067 208.502,247.067 207.498,247.012 206.885 C 246.957 206.272,246.911 206.774,246.911 208.000 M153.252 209.574 C 153.252 210.223,153.303 210.489,153.365 210.164 C 153.428 209.839,153.428 209.308,153.365 208.984 C 153.303 208.659,153.252 208.925,153.252 209.574 M128.778 213.180 L 127.344 214.689 128.852 213.255 C 130.254 211.923,130.481 211.672,130.286 211.672 C 130.245 211.672,129.566 212.351,128.778 213.180 M223.072 213.311 L 221.770 214.689 223.148 213.387 C 223.905 212.671,224.525 212.051,224.525 212.010 C 224.525 211.814,224.282 212.032,223.072 213.311 M175.869 237.115 C 176.432 237.692,176.952 238.164,177.024 238.164 C 177.097 238.164,176.695 237.692,176.131 237.115 C 175.568 236.538,175.048 236.066,174.976 236.066 C 174.903 236.066,175.305 236.538,175.869 237.115 M106.063 242.492 C 106.064 243.934,106.108 244.491,106.161 243.729 C 106.214 242.967,106.213 241.786,106.160 241.106 C 106.106 240.426,106.062 241.049,106.063 242.492 M199.667 240.787 C 199.667 241.292,199.721 241.498,199.787 241.246 C 199.853 240.993,199.853 240.580,199.787 240.328 C 199.721 240.075,199.667 240.282,199.667 240.787 M294.124 242.623 C 294.124 243.849,294.170 244.351,294.225 243.738 C 294.280 243.125,294.280 242.121,294.225 241.508 C 294.170 240.895,294.124 241.397,294.124 242.623 M168.525 244.721 C 169.381 245.587,170.141 246.295,170.213 246.295 C 170.285 246.295,169.643 245.587,168.787 244.721 C 167.930 243.856,167.171 243.148,167.098 243.148 C 167.026 243.148,167.668 243.856,168.525 244.721 M263.738 268.328 C 264.448 269.049,265.088 269.639,265.161 269.639 C 265.233 269.639,264.710 269.049,264.000 268.328 C 263.290 267.607,262.649 267.016,262.577 267.016 C 262.505 267.016,263.027 267.607,263.738 268.328 M128.656 271.738 C 129.512 272.603,130.272 273.311,130.344 273.311 C 130.416 273.311,129.775 272.603,128.918 271.738 C 128.061 270.872,127.302 270.164,127.230 270.164 C 127.157 270.164,127.799 270.872,128.656 271.738 M157.574 294.742 C 157.898 294.805,158.430 294.805,158.754 294.742 C 159.079 294.680,158.813 294.629,158.164 294.629 C 157.515 294.629,157.249 294.680,157.574 294.742 M252.000 294.742 C 252.325 294.805,252.856 294.805,253.180 294.742 C 253.505 294.680,253.239 294.629,252.590 294.629 C 251.941 294.629,251.675 294.680,252.000 294.742 M182.383 297.705 C 182.383 298.787,182.430 299.230,182.486 298.689 C 182.543 298.148,182.543 297.262,182.486 296.721 C 182.430 296.180,182.383 296.623,182.383 297.705 M217.780 298.098 C 217.782 298.820,217.833 299.084,217.893 298.685 C 217.953 298.286,217.952 297.696,217.890 297.373 C 217.827 297.051,217.778 297.377,217.780 298.098 " stroke="none" fill="#68879c" fill-rule="evenodd"></path><path id="path3" d="M155.402 45.246 C 155.402 53.757,155.435 57.201,155.475 52.899 C 155.516 48.597,155.516 41.633,155.475 37.424 C 155.435 33.215,155.402 36.734,155.402 45.246 M199.462 38.951 C 199.462 44.000,199.498 46.028,199.541 43.458 C 199.584 40.889,199.584 36.757,199.540 34.278 C 199.497 31.799,199.462 33.902,199.462 38.951 M223.336 45.246 C 223.336 53.757,223.369 57.201,223.410 52.899 C 223.450 48.597,223.450 41.633,223.410 37.424 C 223.369 33.215,223.336 36.734,223.336 45.246 M272.385 45.246 C 272.385 53.757,272.418 57.201,272.459 52.899 C 272.499 48.597,272.499 41.633,272.459 37.424 C 272.418 33.215,272.385 36.734,272.385 45.246 M69.106 38.951 L 69.115 44.459 79.475 44.464 L 89.836 44.468 79.546 44.395 L 69.257 44.322 69.177 38.882 L 69.098 33.443 69.106 38.951 M126.365 34.288 C 126.837 34.347,127.545 34.346,127.939 34.286 C 128.333 34.226,127.948 34.178,127.082 34.180 C 126.216 34.181,125.894 34.230,126.365 34.288 M160.116 34.436 C 160.045 34.621,160.022 36.776,160.066 39.223 L 160.145 43.672 160.204 39.030 L 160.262 34.388 161.639 34.292 L 163.016 34.195 161.631 34.147 C 160.706 34.114,160.203 34.211,160.116 34.436 M172.796 34.292 C 173.558 34.345,174.738 34.345,175.419 34.291 C 176.099 34.237,175.475 34.193,174.033 34.194 C 172.590 34.195,172.033 34.239,172.796 34.292 M181.366 34.426 C 181.297 34.607,181.272 40.597,181.311 47.738 L 181.382 60.721 181.445 47.551 L 181.508 34.380 183.934 34.294 L 186.361 34.207 183.926 34.153 C 182.179 34.114,181.456 34.191,181.366 34.426 M213.967 34.294 C 215.157 34.342,217.105 34.342,218.295 34.294 C 219.485 34.245,218.511 34.205,216.131 34.205 C 213.751 34.205,212.777 34.245,213.967 34.294 M228.051 34.436 C 227.980 34.621,227.957 36.776,228.000 39.223 L 228.079 43.672 228.138 39.030 L 228.197 34.388 229.574 34.292 L 230.951 34.195 229.566 34.147 C 228.641 34.114,228.137 34.211,228.051 34.436 M289.639 34.286 C 290.036 34.346,290.685 34.346,291.082 34.286 C 291.479 34.226,291.154 34.177,290.361 34.177 C 289.567 34.177,289.243 34.226,289.639 34.286 M251.090 38.226 C 251.779 38.280,252.842 38.279,253.451 38.224 C 254.059 38.169,253.495 38.125,252.197 38.126 C 250.898 38.127,250.400 38.172,251.090 38.226 M311.155 38.226 C 311.845 38.280,312.907 38.279,313.516 38.224 C 314.125 38.169,313.561 38.125,312.262 38.126 C 310.964 38.127,310.466 38.172,311.155 38.226 M213.705 42.948 C 214.607 43.000,216.082 43.000,216.984 42.948 C 217.885 42.897,217.148 42.855,215.344 42.855 C 213.541 42.855,212.803 42.897,213.705 42.948 M126.230 44.778 C 126.626 44.838,127.275 44.838,127.672 44.778 C 128.069 44.718,127.744 44.669,126.951 44.669 C 126.157 44.669,125.833 44.718,126.230 44.778 M289.639 44.778 C 290.036 44.838,290.685 44.838,291.082 44.778 C 291.479 44.718,291.154 44.669,290.361 44.669 C 289.567 44.669,289.243 44.718,289.639 44.778 M228.048 54.295 C 228.048 57.830,228.085 59.275,228.130 57.508 C 228.176 55.741,228.176 52.849,228.130 51.082 C 228.085 49.315,228.048 50.761,228.048 54.295 M160.113 54.426 C 160.113 57.889,160.151 59.269,160.196 57.493 C 160.242 55.718,160.241 52.885,160.196 51.198 C 160.150 49.511,160.113 50.964,160.113 54.426 M240.075 52.590 C 240.077 53.311,240.128 53.575,240.188 53.177 C 240.249 52.778,240.247 52.188,240.185 51.865 C 240.122 51.543,240.073 51.869,240.075 52.590 M300.144 52.721 C 300.144 53.515,300.193 53.839,300.253 53.443 C 300.314 53.046,300.314 52.397,300.253 52.000 C 300.193 51.603,300.144 51.928,300.144 52.721 M304.596 52.459 C 304.596 53.108,304.647 53.374,304.710 53.049 C 304.772 52.725,304.772 52.193,304.710 51.869 C 304.647 51.544,304.596 51.810,304.596 52.459 M144.384 55.011 C 146.247 55.069,147.339 55.213,147.486 55.419 C 147.648 55.647,147.682 55.626,147.605 55.344 C 147.518 55.025,146.935 54.948,144.503 54.936 L 141.508 54.922 144.384 55.011 M214.242 56.326 C 215.439 56.375,217.328 56.375,218.439 56.326 C 219.550 56.277,218.570 56.237,216.262 56.237 C 213.954 56.238,213.045 56.278,214.242 56.326 M43.660 58.033 L 42.623 59.148 43.738 58.111 C 44.351 57.540,44.852 57.039,44.852 56.996 C 44.852 56.798,44.624 56.996,43.660 58.033 M193.172 90.885 C 193.172 99.397,193.205 102.841,193.246 98.539 C 193.286 94.236,193.286 87.273,193.246 83.063 C 193.205 78.854,193.172 82.374,193.172 90.885 M197.885 82.098 C 197.885 85.777,197.921 87.282,197.966 85.443 C 198.012 83.603,198.012 80.593,197.966 78.754 C 197.921 76.915,197.885 78.420,197.885 82.098 M224.839 77.567 L 224.787 79.724 220.656 79.804 L 216.525 79.883 220.664 79.942 C 225.422 80.009,225.116 80.192,224.982 77.353 L 224.891 75.410 224.839 77.567 M127.541 79.933 C 128.659 79.982,130.489 79.982,131.607 79.933 C 132.725 79.884,131.810 79.843,129.574 79.843 C 127.338 79.843,126.423 79.884,127.541 79.933 M158.754 79.926 C 159.151 79.986,159.800 79.986,160.197 79.926 C 160.593 79.865,160.269 79.816,159.475 79.816 C 158.682 79.816,158.357 79.865,158.754 79.926 M177.517 79.931 C 178.279 79.985,179.460 79.984,180.140 79.930 C 180.820 79.876,180.197 79.833,178.754 79.834 C 177.311 79.834,176.755 79.878,177.517 79.931 M187.222 79.931 C 187.984 79.985,189.164 79.984,189.845 79.930 C 190.525 79.876,189.902 79.833,188.459 79.834 C 187.016 79.834,186.460 79.878,187.222 79.931 M234.348 90.885 C 234.348 96.079,234.383 98.240,234.426 95.689 C 234.469 93.138,234.469 88.889,234.426 86.247 C 234.383 83.604,234.348 85.692,234.348 90.885 M239.069 90.885 C 239.069 95.934,239.104 97.963,239.147 95.393 C 239.190 92.823,239.190 88.692,239.147 86.213 C 239.104 83.733,239.069 85.836,239.069 90.885 M251.397 90.885 C 251.397 95.934,251.432 97.963,251.475 95.393 C 251.518 92.823,251.518 88.692,251.475 86.213 C 251.432 83.733,251.397 85.836,251.397 90.885 M256.118 90.885 C 256.118 95.790,256.153 97.760,256.196 95.262 C 256.240 92.764,256.239 88.751,256.196 86.344 C 256.153 83.937,256.118 85.980,256.118 90.885 M311.942 83.865 C 312.632 83.919,313.694 83.919,314.303 83.864 C 314.912 83.809,314.348 83.764,313.049 83.765 C 311.751 83.766,311.253 83.811,311.942 83.865 M218.306 88.588 C 219.286 88.639,220.820 88.638,221.716 88.587 C 222.611 88.536,221.810 88.495,219.934 88.495 C 218.059 88.496,217.326 88.538,218.306 88.588 M241.928 91.279 C 241.928 92.505,241.973 93.007,242.028 92.393 C 242.083 91.780,242.083 90.777,242.028 90.164 C 241.973 89.551,241.928 90.052,241.928 91.279 M197.885 99.672 C 197.885 103.351,197.921 104.856,197.966 103.016 C 198.012 101.177,198.012 98.167,197.966 96.328 C 197.921 94.489,197.885 95.993,197.885 99.672 M127.148 93.571 C 128.049 93.622,129.525 93.622,130.426 93.571 C 131.328 93.520,130.590 93.478,128.787 93.478 C 126.984 93.478,126.246 93.520,127.148 93.571 M300.931 98.361 C 300.931 99.154,300.980 99.479,301.040 99.082 C 301.100 98.685,301.100 98.036,301.040 97.639 C 300.980 97.243,300.931 97.567,300.931 98.361 M305.383 98.098 C 305.383 98.748,305.434 99.013,305.497 98.689 C 305.559 98.364,305.559 97.833,305.497 97.508 C 305.434 97.184,305.383 97.449,305.383 98.098 M274.698 100.653 C 275.533 100.705,276.831 100.705,277.583 100.652 C 278.335 100.599,277.652 100.557,276.066 100.557 C 274.479 100.558,273.863 100.601,274.698 100.653 M220.711 101.963 L 224.766 102.046 224.858 104.072 L 224.950 106.098 224.934 104.000 L 224.918 101.902 220.787 101.891 L 216.655 101.881 220.711 101.963 M293.574 101.965 C 294.692 102.015,296.521 102.015,297.639 101.965 C 298.757 101.916,297.843 101.876,295.607 101.876 C 293.370 101.876,292.456 101.916,293.574 101.965 M204.922 166.221 C 205.320 166.281,205.911 166.280,206.233 166.217 C 206.556 166.155,206.230 166.106,205.508 166.108 C 204.787 166.110,204.523 166.161,204.922 166.221 M168.384 171.213 L 166.951 172.721 168.459 171.288 C 169.860 169.956,170.087 169.705,169.893 169.705 C 169.852 169.705,169.173 170.384,168.384 171.213 M194.754 205.639 C 195.611 206.505,196.370 207.213,196.443 207.213 C 196.515 207.213,195.873 206.505,195.016 205.639 C 194.160 204.774,193.400 204.066,193.328 204.066 C 193.256 204.066,193.898 204.774,194.754 205.639 M289.311 205.770 C 290.095 206.564,290.795 207.213,290.867 207.213 C 290.939 207.213,290.357 206.564,289.574 205.770 C 288.790 204.977,288.090 204.328,288.018 204.328 C 287.946 204.328,288.528 204.977,289.311 205.770 M257.378 206.033 C 257.381 206.610,257.434 206.815,257.497 206.489 C 257.560 206.162,257.557 205.690,257.492 205.440 C 257.426 205.189,257.375 205.456,257.378 206.033 M163.764 208.000 C 163.764 209.226,163.809 209.728,163.864 209.115 C 163.919 208.502,163.919 207.498,163.864 206.885 C 163.809 206.272,163.764 206.774,163.764 208.000 M257.383 209.574 C 257.383 210.223,257.434 210.489,257.497 210.164 C 257.559 209.839,257.559 209.308,257.497 208.984 C 257.434 208.659,257.383 208.925,257.383 209.574 M304.600 241.180 C 304.602 241.902,304.653 242.166,304.713 241.767 C 304.773 241.368,304.771 240.778,304.709 240.455 C 304.647 240.133,304.598 240.459,304.600 241.180 M210.957 241.311 C 210.957 241.961,211.008 242.226,211.070 241.902 C 211.133 241.577,211.133 241.046,211.070 240.721 C 211.008 240.397,210.957 240.662,210.957 241.311 M116.549 242.492 C 116.550 243.646,116.596 244.085,116.651 243.468 C 116.707 242.852,116.706 241.907,116.650 241.370 C 116.593 240.833,116.548 241.338,116.549 242.492 M304.600 243.803 C 304.602 244.525,304.653 244.789,304.713 244.390 C 304.773 243.991,304.771 243.401,304.709 243.078 C 304.647 242.756,304.598 243.082,304.600 243.803 M210.951 243.803 C 210.954 244.380,211.008 244.586,211.071 244.259 C 211.133 243.933,211.131 243.461,211.065 243.210 C 211.000 242.959,210.948 243.226,210.951 243.803 M241.957 244.787 L 240.656 246.164 242.033 244.862 C 242.790 244.146,243.410 243.527,243.410 243.485 C 243.410 243.290,243.167 243.507,241.957 244.787 M175.937 256.448 C 176.264 256.511,176.736 256.508,176.987 256.443 C 177.237 256.377,176.970 256.326,176.393 256.328 C 175.816 256.331,175.611 256.385,175.937 256.448 M187.541 271.869 C 186.904 272.518,186.442 273.049,186.514 273.049 C 186.586 273.049,187.166 272.518,187.803 271.869 C 188.440 271.220,188.903 270.689,188.831 270.689 C 188.758 270.689,188.178 271.220,187.541 271.869 M120.656 278.639 C 120.656 278.685,121.039 279.068,121.508 279.492 L 122.361 280.262 121.590 279.410 C 120.872 278.615,120.656 278.437,120.656 278.639 M228.285 297.967 C 228.285 299.049,228.331 299.492,228.388 298.951 C 228.444 298.410,228.444 297.525,228.388 296.984 C 228.331 296.443,228.285 296.885,228.285 297.967 M192.865 297.705 C 192.865 298.498,192.915 298.823,192.975 298.426 C 193.035 298.030,193.035 297.380,192.975 296.984 C 192.915 296.587,192.865 296.911,192.865 297.705 M124.147 298.098 C 124.148 298.964,124.197 299.286,124.256 298.815 C 124.314 298.344,124.313 297.635,124.253 297.241 C 124.193 296.847,124.145 297.233,124.147 298.098 M233.906 349.829 C 234.378 349.888,235.086 349.887,235.480 349.827 C 235.874 349.767,235.489 349.719,234.623 349.721 C 233.757 349.722,233.435 349.771,233.906 349.829 " stroke="none" fill="#94acbc" fill-rule="evenodd"></path><path id="path4" d="M188.451 45.246 C 188.451 53.757,188.484 57.201,188.524 52.899 C 188.565 48.597,188.565 41.633,188.524 37.424 C 188.484 33.215,188.451 36.734,188.451 45.246 M284.189 45.246 C 284.189 53.757,284.222 57.201,284.262 52.899 C 284.303 48.597,284.303 41.633,284.262 37.424 C 284.222 33.215,284.189 36.734,284.189 45.246 M54.754 33.507 C 56.233 33.554,58.652 33.554,60.131 33.507 C 61.610 33.460,60.400 33.422,57.443 33.422 C 54.485 33.422,53.275 33.460,54.754 33.507 M77.724 33.508 C 82.459 33.548,90.131 33.548,94.773 33.508 C 99.415 33.468,95.541 33.435,86.164 33.435 C 76.787 33.435,72.989 33.468,77.724 33.508 M218.583 45.115 C 218.583 46.341,218.629 46.843,218.684 46.230 C 218.739 45.616,218.739 44.613,218.684 44.000 C 218.629 43.387,218.583 43.889,218.583 45.115 M169.805 54.951 C 169.806 56.682,169.848 57.356,169.899 56.449 C 169.951 55.541,169.950 54.125,169.898 53.301 C 169.847 52.477,169.805 53.220,169.805 54.951 M191.042 77.639 C 191.042 78.866,191.088 79.367,191.143 78.754 C 191.198 78.141,191.198 77.138,191.143 76.525 C 191.088 75.911,191.042 76.413,191.042 77.639 M211.795 90.885 C 211.795 99.397,211.828 102.841,211.869 98.539 C 211.909 94.236,211.909 87.273,211.869 83.063 C 211.828 78.854,211.795 82.374,211.795 90.885 M158.010 84.590 C 158.010 87.187,158.050 88.214,158.097 86.872 C 158.145 85.530,158.145 83.406,158.097 82.151 C 158.049 80.896,158.010 81.993,158.010 84.590 M135.461 90.885 C 135.461 95.502,135.497 97.353,135.541 95.000 C 135.584 92.647,135.584 88.869,135.540 86.606 C 135.497 84.343,135.461 86.269,135.461 90.885 M242.560 93.563 C 242.887 93.625,243.359 93.623,243.610 93.557 C 243.860 93.492,243.593 93.440,243.016 93.443 C 242.439 93.446,242.234 93.500,242.560 93.563 M158.015 100.066 C 158.015 103.528,158.052 104.908,158.098 103.132 C 158.143 101.357,158.143 98.524,158.097 96.837 C 158.052 95.151,158.015 96.603,158.015 100.066 M153.241 207.738 C 153.241 208.243,153.295 208.449,153.361 208.197 C 153.427 207.944,153.427 207.531,153.361 207.279 C 153.295 207.026,153.241 207.233,153.241 207.738 M271.213 260.852 C 271.703 261.357,272.162 261.770,272.234 261.770 C 272.306 261.770,271.965 261.357,271.475 260.852 C 270.986 260.348,270.527 259.934,270.454 259.934 C 270.382 259.934,270.724 260.348,271.213 260.852 " stroke="none" fill="#8ca4b4" fill-rule="evenodd"></path></g></svg>