<svg id="svg" version="1.1" xmlns="http://www.w3.org/2000/svg" xmlns:xlink="http://www.w3.org/1999/xlink" width="400" height="400" viewBox="0, 0, 400,400"><g id="svgg"><path id="path0" d="M175.675 29.997 C 171.583 31.521,171.222 32.849,171.330 45.965 C 171.436 58.940,172.077 60.425,177.726 60.794 C 183.150 61.149,185.443 58.659,185.443 52.412 L 185.443 49.311 183.378 49.311 L 181.313 49.311 181.194 52.196 C 181.038 56.002,180.056 57.169,177.674 56.383 C 176.027 55.840,176.000 55.657,176.001 45.193 C 176.002 34.527,176.040 34.312,177.959 33.951 C 180.132 33.544,181.003 34.588,181.187 37.825 L 181.319 40.131 183.381 40.131 L 185.443 40.131 185.443 37.541 C 185.443 33.674,184.640 31.841,182.362 30.506 C 180.891 29.644,177.348 29.374,175.675 29.997 M251.737 29.998 C 248.792 31.095,247.741 32.968,247.739 37.120 C 247.737 41.183,248.361 42.419,252.447 46.448 C 256.795 50.736,258.075 53.808,256.300 55.697 C 254.292 57.835,251.803 56.265,251.803 52.861 L 251.803 51.410 249.535 51.410 L 247.266 51.410 247.424 53.638 C 247.751 58.282,249.696 60.508,253.676 60.794 C 258.279 61.124,260.969 59.045,261.500 54.748 C 262.018 50.555,260.999 48.287,256.641 43.930 C 252.539 39.831,251.495 37.526,252.619 35.058 C 253.760 32.554,257.049 33.805,257.049 36.743 L 257.049 38.033 259.279 38.033 L 261.508 38.033 261.508 36.632 C 261.508 31.396,256.718 28.144,251.737 29.998 M292.042 30.061 C 288.445 31.338,288.147 32.429,288.054 44.680 C 287.955 57.709,288.381 59.302,292.277 60.459 C 298.415 62.281,302.164 59.130,302.164 52.149 L 302.164 49.311 299.934 49.311 L 297.705 49.311 297.705 52.182 C 297.705 55.764,297.268 56.525,295.213 56.525 C 294.195 56.525,293.880 56.400,293.354 55.789 L 292.721 55.053 292.721 45.211 L 292.721 35.369 293.488 34.603 C 295.576 32.515,297.705 34.105,297.705 37.750 L 297.705 40.131 299.934 40.131 L 302.164 40.131 302.164 37.818 C 302.164 31.389,297.777 28.027,292.042 30.061 M121.180 45.220 L 121.180 60.590 123.541 60.590 L 125.902 60.590 125.902 54.856 L 125.902 49.122 128.209 48.990 C 133.843 48.669,135.213 46.808,135.213 39.475 C 135.213 31.328,134.023 30.120,125.836 29.948 L 121.180 29.851 121.180 45.220 M137.967 45.246 L 137.967 60.590 144.393 60.590 L 150.820 60.590 150.820 58.361 L 150.820 56.131 146.623 56.131 L 142.426 56.131 142.426 51.672 L 142.426 47.213 145.847 47.213 L 149.267 47.213 149.191 45.049 L 149.115 42.885 145.764 42.812 L 142.413 42.738 142.485 38.484 L 142.557 34.230 146.689 34.157 L 150.820 34.085 150.820 31.993 L 150.820 29.902 144.393 29.902 L 137.967 29.902 137.967 45.246 M157.522 30.230 C 157.466 30.410,156.405 36.990,155.164 44.852 C 153.923 52.715,152.841 59.472,152.761 59.869 L 152.614 60.590 154.826 60.590 L 157.037 60.590 157.377 57.836 L 157.717 55.082 160.783 55.082 L 163.850 55.082 164.175 57.377 C 164.671 60.879,164.408 60.590,167.105 60.590 C 169.403 60.590,169.450 60.578,169.323 60.000 C 169.251 59.675,168.185 53.036,166.954 45.246 C 165.723 37.456,164.655 30.816,164.582 30.492 C 164.424 29.790,157.734 29.541,157.522 30.230 M188.590 45.246 L 188.590 60.590 195.158 60.590 L 201.726 60.590 201.650 58.426 L 201.574 56.262 197.443 56.190 L 193.311 56.118 193.311 51.665 L 193.311 47.213 196.590 47.213 L 199.869 47.213 199.869 44.984 L 199.869 42.754 196.590 42.754 L 193.311 42.754 193.311 38.426 L 193.311 34.098 197.508 34.098 L 201.705 34.098 201.705 32.000 L 201.705 29.902 195.148 29.902 L 188.590 29.902 188.590 45.246 M222.689 42.111 C 222.689 56.743,222.779 56.386,219.082 56.392 L 218.230 56.393 218.230 58.528 L 218.230 60.662 220.723 60.531 C 223.992 60.360,225.308 59.627,226.488 57.322 L 227.279 55.776 227.356 42.839 L 227.433 29.902 225.061 29.902 L 222.689 29.902 222.689 42.111 M230.614 42.951 C 230.686 55.564,230.707 56.039,231.238 57.180 C 233.469 61.973,241.183 62.295,243.775 57.705 L 244.590 56.262 244.665 43.082 L 244.740 29.902 242.501 29.902 L 240.262 29.902 240.262 42.477 L 240.262 55.053 239.629 55.789 C 239.104 56.400,238.788 56.525,237.770 56.525 C 236.753 56.525,236.437 56.400,235.912 55.789 L 235.279 55.053 235.279 42.477 L 235.279 29.902 232.909 29.902 L 230.539 29.902 230.614 42.951 M263.082 32.000 L 263.082 34.098 265.574 34.098 L 268.066 34.098 268.066 47.344 L 268.066 60.590 270.424 60.590 L 272.782 60.590 272.850 47.410 L 272.918 34.230 275.344 34.154 L 277.770 34.079 277.770 31.990 L 277.770 29.902 270.426 29.902 L 263.082 29.902 263.082 32.000 M280.131 45.246 L 280.131 60.590 282.492 60.590 L 284.852 60.590 284.852 45.246 L 284.852 29.902 282.492 29.902 L 280.131 29.902 280.131 45.246 M305.311 45.246 L 305.311 60.590 311.738 60.590 L 318.164 60.590 318.164 58.361 L 318.164 56.131 314.098 56.131 L 310.033 56.131 310.033 51.672 L 310.033 47.213 313.322 47.213 L 316.611 47.213 316.535 45.049 L 316.459 42.885 313.246 42.812 L 310.033 42.738 310.033 38.418 L 310.033 34.098 314.098 34.098 L 318.164 34.098 318.164 32.000 L 318.164 29.902 311.738 29.902 L 305.311 29.902 305.311 45.246 M81.049 32.812 C 72.370 33.782,66.980 39.183,65.447 48.447 C 64.694 52.996,64.974 98.503,65.773 101.377 C 68.509 111.226,75.910 115.866,87.308 114.876 C 97.169 114.019,102.365 109.530,104.147 100.328 C 105.047 95.680,104.686 78.610,103.598 74.301 C 101.390 65.565,93.554 61.055,85.201 63.714 C 82.673 64.518,78.689 67.919,78.689 69.272 C 78.689 69.402,78.560 69.508,78.402 69.508 C 77.869 69.508,78.239 49.753,78.805 48.002 C 80.447 42.927,87.849 42.144,90.299 46.787 C 90.807 47.750,90.880 48.367,90.969 52.393 L 91.068 56.918 97.243 56.918 L 103.418 56.918 103.274 52.000 C 102.842 37.233,95.811 31.163,81.049 32.812 M40.078 40.857 L 33.860 48.131 33.856 55.213 L 33.852 62.295 38.685 57.311 L 43.518 52.328 43.529 83.213 L 43.541 114.098 50.361 114.098 L 57.180 114.098 57.180 73.836 L 57.180 33.574 51.738 33.578 L 46.295 33.583 40.078 40.857 M129.932 34.865 C 130.455 35.388,130.492 35.690,130.492 39.475 C 130.492 44.422,130.399 44.595,127.713 44.673 L 126.033 44.721 125.962 39.373 L 125.891 34.026 127.632 34.165 C 128.934 34.270,129.514 34.446,129.932 34.865 M163.015 49.770 L 163.180 50.885 160.774 50.885 L 158.368 50.885 158.518 50.033 C 158.601 49.564,159.093 46.289,159.611 42.754 C 160.129 39.220,160.622 36.151,160.705 35.934 C 160.829 35.615,161.644 40.499,163.015 49.770 M204.775 56.034 C 204.673 56.136,204.590 57.202,204.590 58.404 L 204.590 60.590 205.508 60.590 C 206.584 60.590,206.568 60.506,205.902 62.689 C 205.237 64.866,205.224 64.787,206.258 64.787 C 207.610 64.787,209.373 60.740,209.257 57.899 L 209.180 56.000 207.070 55.925 C 205.909 55.883,204.876 55.932,204.775 56.034 M87.036 74.109 C 88.767 74.623,90.027 75.867,90.661 77.686 C 91.507 80.114,91.393 98.473,90.520 100.405 C 88.151 105.649,80.545 105.311,78.793 99.884 C 78.230 98.140,77.936 83.672,78.395 80.263 C 79.095 75.064,82.378 72.726,87.036 74.109 M185.896 75.627 C 181.868 76.880,180.343 82.671,182.741 87.607 C 183.238 88.628,184.370 89.970,186.622 92.207 C 190.988 96.544,192.110 99.344,190.318 101.428 C 188.539 103.496,185.967 101.984,185.967 98.871 L 185.967 97.049 183.738 97.049 L 181.508 97.049 181.508 98.838 C 181.508 103.749,184.021 106.492,188.522 106.492 C 193.381 106.492,195.901 103.558,195.621 98.225 C 195.452 95.020,194.726 93.743,190.698 89.579 C 186.565 85.306,185.698 83.585,186.481 81.212 C 187.431 78.333,190.895 79.054,191.155 82.185 L 191.278 83.672 193.513 83.672 L 195.748 83.672 195.595 81.844 C 195.164 76.700,191.009 74.036,185.896 75.627 M236.050 75.512 C 234.018 76.174,232.575 77.518,231.868 79.406 C 231.158 81.305,231.061 99.671,231.749 101.989 C 233.619 108.287,244.109 107.919,245.484 101.507 C 245.870 99.709,245.870 82.062,245.484 80.264 C 244.699 76.602,239.989 74.230,236.050 75.512 M271.469 75.681 C 270.029 76.125,268.698 77.365,267.959 78.951 C 267.192 80.599,266.966 99.504,267.684 101.991 C 269.441 108.075,279.227 108.088,281.032 102.010 C 281.350 100.938,281.443 99.335,281.443 94.903 L 281.443 89.180 278.164 89.180 L 274.885 89.180 274.885 91.279 L 274.885 93.377 275.934 93.377 L 276.984 93.377 276.984 97.035 C 276.984 100.523,276.954 100.726,276.351 101.428 C 275.436 102.491,273.548 102.491,272.633 101.428 L 272.000 100.692 272.000 90.850 L 272.000 81.009 272.767 80.242 C 274.854 78.155,276.984 79.744,276.984 83.390 L 276.984 85.770 279.242 85.770 L 281.501 85.770 281.394 82.951 C 281.158 76.720,277.290 73.886,271.469 75.681 M124.724 76.131 C 124.647 76.456,123.582 83.036,122.355 90.754 C 121.129 98.472,120.059 105.111,119.977 105.508 L 119.827 106.230 122.029 106.230 L 124.230 106.230 124.607 103.541 L 124.984 100.852 128.037 100.779 L 131.091 100.705 131.402 103.008 C 131.875 106.515,131.616 106.230,134.334 106.230 L 136.697 106.230 136.545 105.508 C 136.462 105.111,135.390 98.472,134.164 90.754 C 132.938 83.036,131.874 76.456,131.799 76.131 C 131.666 75.556,131.573 75.541,128.262 75.541 C 124.953 75.541,124.859 75.557,124.724 76.131 M139.016 90.877 L 139.016 106.230 141.112 106.230 L 143.207 106.230 143.276 95.294 L 143.344 84.359 145.945 94.048 C 147.376 99.377,148.709 104.298,148.906 104.984 L 149.266 106.230 151.617 106.230 L 153.967 106.230 153.967 90.885 L 153.967 75.541 151.872 75.541 L 149.777 75.541 149.708 84.489 L 149.639 93.437 147.254 84.555 L 144.869 75.672 141.943 75.598 L 139.016 75.524 139.016 90.877 M157.639 90.889 L 157.639 106.286 162.557 106.190 C 172.003 106.005,172.415 105.326,172.262 90.165 C 172.120 76.129,171.880 75.768,162.557 75.587 L 157.639 75.492 157.639 90.889 M197.246 77.630 L 197.246 79.718 199.672 79.793 L 202.098 79.869 202.166 93.049 L 202.234 106.230 204.593 106.230 L 206.951 106.230 206.951 92.984 L 206.951 79.738 209.443 79.738 L 211.934 79.738 211.934 77.639 L 211.934 75.541 204.590 75.541 L 197.246 75.541 197.246 77.630 M214.033 90.861 L 214.033 106.230 216.393 106.230 L 218.754 106.230 218.754 99.934 L 218.754 93.639 220.079 93.639 C 223.229 93.639,223.738 94.602,223.738 100.565 C 223.738 106.389,223.657 106.230,226.598 106.230 L 228.947 106.230 228.703 105.379 C 228.569 104.911,228.456 102.698,228.453 100.461 C 228.444 94.851,227.921 92.849,226.186 91.777 L 225.281 91.217 226.177 90.608 C 227.859 89.465,228.602 86.833,228.394 82.760 C 228.089 76.793,226.699 75.737,218.951 75.587 L 214.033 75.492 214.033 90.861 M248.918 90.885 L 248.918 106.230 251.016 106.230 L 253.115 106.230 253.133 95.148 C 253.149 85.951,253.208 84.222,253.480 84.984 C 253.660 85.489,255.036 90.475,256.538 96.066 L 259.268 106.230 261.699 106.230 L 264.131 106.230 264.131 90.885 L 264.131 75.541 262.033 75.541 L 259.934 75.541 259.918 84.656 C 259.909 89.669,259.806 93.534,259.689 93.246 C 259.573 92.957,258.440 88.856,257.171 84.131 L 254.864 75.541 251.891 75.541 L 248.918 75.541 248.918 90.885 M240.292 80.251 L 241.067 81.027 240.993 90.998 L 240.918 100.970 240.321 101.567 C 239.406 102.481,237.543 102.409,236.699 101.428 L 236.066 100.692 236.066 90.850 L 236.066 81.009 236.832 80.242 C 237.894 79.180,239.224 79.184,240.292 80.251 M166.002 80.028 C 167.562 80.572,167.607 80.870,167.607 90.702 C 167.607 102.005,167.678 101.770,164.214 101.770 L 162.361 101.770 162.361 90.754 L 162.361 79.738 163.764 79.738 C 164.536 79.738,165.543 79.869,166.002 80.028 M222.287 80.111 C 223.496 80.616,223.816 81.769,223.698 85.189 C 223.580 88.641,223.130 89.225,220.466 89.395 L 218.754 89.504 218.754 84.796 C 218.754 82.206,218.833 80.009,218.929 79.913 C 219.240 79.601,221.369 79.727,222.287 80.111 M129.305 89.049 C 129.886 92.944,130.362 96.220,130.361 96.328 C 130.361 96.436,129.289 96.525,127.979 96.525 L 125.598 96.525 125.738 95.803 C 125.815 95.407,126.305 92.131,126.826 88.525 C 127.348 84.918,127.843 81.790,127.928 81.574 C 128.128 81.060,128.044 80.601,129.305 89.049 M152.129 120.901 C 149.489 121.704,148.220 123.298,147.660 126.518 C 146.955 130.566,148.093 133.146,152.535 137.574 C 156.885 141.909,158.009 144.725,156.219 146.805 C 154.441 148.873,151.869 147.361,151.869 144.248 L 151.869 142.426 149.639 142.426 L 147.410 142.426 147.410 144.215 C 147.410 149.166,149.934 151.869,154.560 151.869 C 159.281 151.869,161.801 148.887,161.523 143.631 C 161.351 140.357,160.688 139.183,156.667 135.026 C 152.384 130.598,151.487 128.737,152.484 126.351 C 153.596 123.690,157.115 124.728,157.115 127.718 L 157.115 129.049 159.382 129.049 L 161.650 129.049 161.497 127.221 C 161.078 122.229,156.941 119.437,152.129 120.901 M249.064 121.047 C 245.063 122.472,244.674 123.904,244.775 136.829 L 244.852 146.754 245.551 148.244 C 247.837 153.120,255.836 153.172,258.450 148.328 C 259.346 146.668,259.333 125.838,258.435 124.159 C 256.845 121.186,252.617 119.782,249.064 121.047 M285.113 120.901 C 282.383 121.731,280.897 123.739,280.538 127.082 C 280.122 130.967,281.254 133.360,285.507 137.584 C 289.873 141.921,290.996 144.721,289.203 146.805 C 287.424 148.873,284.852 147.361,284.852 144.248 L 284.852 142.426 282.623 142.426 L 280.393 142.426 280.393 144.215 C 280.393 149.126,282.907 151.869,287.407 151.869 C 292.266 151.869,294.786 148.935,294.506 143.602 C 294.339 140.428,293.591 139.084,289.834 135.213 C 285.589 130.839,284.790 129.422,285.233 127.057 C 285.849 123.777,289.760 124.188,290.040 127.562 L 290.163 129.049 292.398 129.049 L 294.633 129.049 294.480 127.221 C 294.062 122.229,289.925 119.437,285.113 120.901 M121.180 136.262 L 121.180 151.607 123.541 151.607 L 125.902 151.607 125.902 136.262 L 125.902 120.918 123.541 120.918 L 121.180 120.918 121.180 136.262 M129.311 136.262 L 129.311 151.607 131.410 151.607 L 133.508 151.607 133.508 140.546 C 133.508 134.463,133.594 129.573,133.700 129.678 C 133.805 129.783,135.203 134.731,136.805 140.672 L 139.719 151.475 142.122 151.551 L 144.525 151.626 144.525 136.272 L 144.525 120.918 142.430 120.918 L 140.335 120.918 140.266 129.953 L 140.197 138.988 138.120 131.199 C 136.978 126.915,135.882 122.849,135.684 122.164 L 135.324 120.918 132.318 120.918 L 129.311 120.918 129.311 136.262 M163.148 123.007 L 163.148 125.095 165.574 125.170 L 168.000 125.246 168.068 138.426 L 168.136 151.607 170.494 151.607 L 172.852 151.607 172.852 138.361 L 172.852 125.115 175.344 125.115 L 177.836 125.115 177.836 123.016 L 177.836 120.918 170.492 120.918 L 163.148 120.918 163.148 123.007 M179.934 136.262 L 179.934 151.607 182.295 151.607 L 184.656 151.607 184.656 136.262 L 184.656 120.918 182.295 120.918 L 179.934 120.918 179.934 136.262 M187.016 123.007 L 187.016 125.095 189.443 125.170 L 191.869 125.246 191.937 138.426 L 192.005 151.607 194.363 151.607 L 196.721 151.607 196.721 138.361 L 196.721 125.115 199.213 125.115 L 201.705 125.115 201.705 123.016 L 201.705 120.918 194.361 120.918 L 187.016 120.918 187.016 123.007 M203.549 132.393 C 203.558 144.406,203.719 147.018,204.557 148.651 C 206.945 153.308,215.021 152.984,217.209 148.143 L 217.836 146.754 217.915 133.836 L 217.995 120.918 215.751 120.918 L 213.508 120.918 213.508 133.180 C 213.507 144.329,213.466 145.526,213.049 146.361 C 212.088 148.283,209.118 147.988,208.542 145.913 C 208.367 145.283,208.265 140.517,208.264 132.918 L 208.262 120.918 205.902 120.918 L 203.541 120.918 203.549 132.393 M219.803 123.016 L 219.803 125.115 222.295 125.115 L 224.787 125.115 224.787 138.361 L 224.787 151.607 227.145 151.607 L 229.503 151.607 229.571 138.426 L 229.639 125.246 232.197 125.171 L 234.754 125.096 234.754 123.007 L 234.754 120.918 227.279 120.918 L 219.803 120.918 219.803 123.016 M236.852 136.262 L 236.852 151.607 239.213 151.607 L 241.574 151.607 241.574 136.262 L 241.574 120.918 239.213 120.918 L 236.852 120.918 236.852 136.262 M262.295 136.262 L 262.295 151.607 264.393 151.607 L 266.492 151.607 266.492 140.546 C 266.492 134.463,266.575 129.569,266.676 129.671 C 266.777 129.772,268.172 134.719,269.774 140.665 L 272.689 151.475 275.098 151.551 L 277.508 151.626 277.508 136.272 L 277.508 120.918 275.410 120.918 L 273.311 120.918 273.292 130.033 L 273.272 139.148 271.172 131.410 C 270.018 127.154,268.897 123.052,268.682 122.295 L 268.291 120.918 265.293 120.918 L 262.295 120.918 262.295 136.262 M253.660 125.619 L 254.426 126.386 254.426 136.262 L 254.426 146.139 253.627 146.938 C 252.683 147.882,251.092 147.864,250.125 146.898 C 249.439 146.212,249.121 127.442,249.775 126.169 C 250.522 124.713,252.477 124.436,253.660 125.619 M295.404 175.514 C 289.383 176.377,286.190 180.060,285.716 186.689 L 285.561 188.852 286.846 188.848 C 294.310 188.821,299.016 183.996,299.016 176.370 L 299.016 175.213 298.033 175.245 C 297.492 175.263,296.309 175.384,295.404 175.514 M272.588 177.115 C 268.287 182.470,269.956 190.402,276.119 193.898 L 276.922 194.354 277.846 192.587 C 281.019 186.514,279.912 181.780,274.367 177.710 C 272.946 176.667,272.947 176.667,272.588 177.115 M261.772 189.180 C 258.445 194.933,259.662 200.436,265.105 204.254 L 266.662 205.346 267.478 203.984 C 270.854 198.349,269.820 192.908,264.631 189.007 C 262.651 187.518,262.736 187.513,261.772 189.180 M281.838 192.402 C 281.009 193.484,278.387 196.404,276.011 198.890 C 269.054 206.170,264.918 212.614,264.918 216.177 C 264.918 216.965,264.712 216.804,260.871 213.024 C 252.818 205.100,247.330 206.527,231.869 220.567 C 223.662 228.018,218.333 230.431,210.098 230.421 C 200.708 230.410,194.404 227.151,183.516 216.677 C 167.927 201.681,153.127 195.826,134.981 197.475 L 133.175 197.639 135.154 198.891 C 141.163 202.689,144.220 209.261,148.056 226.627 C 153.148 249.682,161.642 259.646,178.492 262.334 L 180.590 262.668 179.410 262.902 C 173.988 263.976,171.395 265.214,163.431 270.532 C 153.197 277.365,147.522 278.631,135.240 276.819 C 134.355 276.688,134.723 276.939,137.311 278.233 C 139.043 279.099,142.052 280.783,144.000 281.977 C 154.099 288.167,155.917 289.234,158.777 290.648 C 163.880 293.172,170.447 295.058,177.443 296.008 C 179.174 296.243,180.974 296.490,181.443 296.557 L 182.295 296.680 182.295 305.487 L 182.295 314.294 176.721 314.125 C 173.656 314.032,162.531 313.786,152.000 313.577 C 141.469 313.368,131.170 313.134,129.115 313.057 L 125.377 312.916 125.377 318.950 L 125.377 324.984 127.148 324.992 C 128.121 324.996,151.397 324.505,178.872 323.900 L 228.826 322.800 238.938 323.919 C 244.499 324.534,249.138 325.091,249.246 325.157 C 249.354 325.223,249.443 327.604,249.443 330.449 C 249.443 338.103,247.351 337.342,268.128 337.252 L 284.578 337.180 285.306 336.453 L 286.033 335.726 286.033 319.054 L 286.033 302.383 285.176 301.618 L 284.320 300.852 267.683 300.852 L 251.046 300.852 250.310 301.485 L 249.574 302.117 249.443 307.581 L 249.311 313.045 239.344 314.152 L 229.377 315.259 215.213 314.993 C 207.423 314.847,200.548 314.667,199.934 314.594 L 198.820 314.460 198.820 305.338 L 198.820 296.217 201.639 295.763 C 217.932 293.139,231.168 286.306,238.014 276.986 C 243.360 269.705,245.244 262.612,245.247 249.743 C 245.252 233.087,250.185 225.861,263.238 223.396 L 264.049 223.243 264.365 226.155 C 265.079 232.737,266.538 237.902,267.685 237.902 C 268.851 237.902,268.848 237.936,267.918 234.689 C 267.041 231.630,266.386 228.116,266.090 224.877 L 265.919 223.000 267.845 222.841 C 268.904 222.753,270.345 222.653,271.047 222.619 L 272.324 222.557 270.129 221.048 C 268.922 220.218,267.585 219.249,267.158 218.896 L 266.382 218.253 266.717 216.602 C 267.750 211.504,270.117 207.928,277.922 199.672 C 281.550 195.835,284.841 191.937,284.850 191.466 C 284.851 191.389,284.513 191.126,284.098 190.881 L 283.344 190.435 281.838 192.402 M288.656 195.236 C 286.573 195.927,284.436 197.423,282.911 199.257 L 282.220 200.087 284.212 201.419 C 289.103 204.690,294.793 203.802,298.026 199.261 L 298.589 198.471 297.688 197.714 C 295.112 195.547,291.064 194.436,288.656 195.236 M279.082 206.525 C 277.390 206.904,274.995 208.045,273.804 209.039 L 272.962 209.742 274.678 211.493 C 278.772 215.668,283.984 215.898,288.644 212.108 L 289.420 211.478 287.743 209.731 C 285.022 206.898,282.156 205.837,279.082 206.525 M249.818 287.984 C 245.540 289.008,244.719 294.528,248.520 296.707 L 249.574 297.311 267.016 297.389 C 279.111 297.442,284.815 297.377,285.621 297.176 C 290.590 295.937,290.585 289.163,285.613 288.017 C 284.279 287.709,251.093 287.679,249.818 287.984 M193.836 305.574 L 193.836 314.492 191.410 314.489 C 190.075 314.487,188.541 314.413,188.000 314.323 L 187.016 314.161 187.016 305.550 L 187.016 296.938 189.311 296.851 C 190.574 296.803,192.108 296.739,192.721 296.710 L 193.836 296.656 193.836 305.574 M114.741 310.402 C 113.787 310.817,112.601 312.160,112.328 313.135 C 111.850 314.839,112.103 324.271,112.656 325.374 C 114.543 329.135,121.133 328.530,122.220 324.495 C 122.767 322.464,122.476 313.535,121.821 312.262 C 120.815 310.307,117.162 309.347,114.741 310.402 M248.648 341.311 C 245.200 343.053,245.206 347.835,248.658 349.579 L 249.836 350.174 268.107 350.103 L 286.378 350.033 287.386 349.227 C 290.341 346.865,289.761 342.292,286.344 341.000 C 285.848 340.813,279.716 340.721,267.711 340.721 L 249.816 340.721 248.648 341.311 " stroke="none" fill="#fafbfb" fill-rule="evenodd"></path><path id="path1" d="M0.000 200.000 L 0.000 400.000 200.000 400.000 L 400.000 400.000 400.000 200.000 L 400.000 0.000 200.000 0.000 L 0.000 0.000 0.000 200.000 M182.216 30.309 C 184.663 31.506,185.705 33.785,185.705 37.943 L 185.705 40.393 183.344 40.393 L 180.984 40.393 180.984 38.151 C 180.984 35.818,180.602 34.572,179.792 34.261 C 178.822 33.889,177.547 34.102,176.906 34.742 L 176.262 35.386 176.262 45.246 L 176.262 55.106 176.906 55.750 C 179.062 57.905,180.984 56.039,180.984 51.791 L 180.984 49.049 183.344 49.049 L 185.705 49.049 185.705 52.024 C 185.705 55.335,185.347 56.926,184.247 58.515 C 182.147 61.545,175.979 61.894,173.224 59.139 C 171.289 57.204,171.251 56.918,171.336 44.817 L 171.410 34.214 172.067 32.938 C 173.784 29.602,178.352 28.419,182.216 30.309 M258.337 30.283 C 260.511 31.385,261.770 33.895,261.770 37.128 L 261.770 38.295 259.410 38.295 L 257.049 38.295 257.049 37.285 C 257.049 33.654,253.092 32.598,252.444 36.055 C 252.001 38.417,252.864 39.941,256.927 43.971 C 260.946 47.957,261.639 49.325,261.639 53.259 C 261.639 59.152,257.983 62.133,252.433 60.763 C 248.943 59.902,247.557 57.966,247.386 53.716 L 247.282 51.126 249.608 51.202 L 251.934 51.279 252.066 53.335 C 252.337 57.585,256.803 57.699,256.781 53.456 C 256.771 51.534,255.946 50.242,252.459 46.688 C 247.847 41.988,246.689 39.172,247.588 34.844 C 248.555 30.186,253.775 27.971,258.337 30.283 M298.391 30.028 C 300.990 31.112,302.166 33.344,302.367 37.572 L 302.501 40.393 300.138 40.393 L 297.776 40.393 297.646 37.891 C 297.454 34.239,295.423 32.716,293.488 34.775 L 292.852 35.452 292.852 45.290 L 292.852 55.127 293.588 55.760 C 295.839 57.697,297.497 56.206,297.654 52.104 L 297.771 49.049 300.133 49.049 L 302.496 49.049 302.371 52.393 C 302.138 58.615,300.163 60.938,295.082 60.965 C 291.728 60.983,289.706 59.801,288.490 57.113 C 287.724 55.418,287.509 36.517,288.228 34.044 C 289.336 30.229,294.234 28.294,298.391 30.028 M131.168 30.201 C 134.636 31.240,136.115 35.369,135.419 42.074 C 134.886 47.213,133.001 49.031,128.197 49.043 L 125.902 49.049 125.902 54.820 L 125.902 60.590 123.410 60.590 L 120.918 60.590 120.918 45.246 L 120.918 29.902 125.543 29.902 C 128.250 29.902,130.583 30.026,131.168 30.201 M151.082 32.131 L 151.082 34.361 146.885 34.361 L 142.689 34.361 142.689 38.557 L 142.689 42.754 145.967 42.754 L 149.246 42.754 149.246 44.984 L 149.246 47.213 145.967 47.213 L 142.689 47.213 142.689 51.672 L 142.689 56.131 146.885 56.131 L 151.082 56.131 151.082 58.361 L 151.082 60.590 144.393 60.590 L 137.705 60.590 137.705 45.246 L 137.705 29.902 144.393 29.902 L 151.082 29.902 151.082 32.131 M164.721 30.070 C 164.721 30.163,165.784 36.874,167.082 44.984 C 168.380 53.093,169.443 59.922,169.443 60.159 C 169.443 60.529,169.087 60.590,166.951 60.590 C 165.580 60.590,164.458 60.502,164.457 60.393 C 164.455 60.190,164.044 57.437,163.792 55.934 L 163.648 55.082 160.811 55.082 L 157.974 55.082 157.664 57.115 C 157.072 60.995,157.407 60.590,154.784 60.590 L 152.495 60.590 154.662 47.016 C 155.853 39.551,156.962 32.646,157.126 31.672 L 157.424 29.902 161.073 29.902 C 163.080 29.902,164.721 29.978,164.721 30.070 M201.705 32.131 L 201.705 34.361 197.639 34.361 L 193.574 34.361 193.574 38.557 L 193.574 42.754 196.852 42.754 L 200.131 42.754 200.131 44.984 L 200.131 47.213 196.852 47.213 L 193.574 47.213 193.574 51.672 L 193.574 56.131 197.639 56.131 L 201.705 56.131 201.705 58.361 L 201.705 60.590 195.016 60.590 L 188.328 60.590 188.328 45.246 L 188.328 29.902 195.016 29.902 L 201.705 29.902 201.705 32.131 M227.353 43.082 L 227.279 56.262 226.464 57.705 C 225.431 59.532,223.688 60.521,221.077 60.762 C 218.065 61.040,217.967 60.965,217.967 58.386 L 217.967 56.192 219.707 56.081 C 222.622 55.896,222.426 56.883,222.426 42.332 L 222.426 29.902 224.927 29.902 L 227.428 29.902 227.353 43.082 M235.332 42.471 L 235.410 55.040 236.046 55.717 C 236.768 56.486,238.466 56.645,239.289 56.021 C 240.171 55.352,240.262 54.023,240.262 41.903 L 240.262 29.902 242.635 29.902 L 245.007 29.902 244.924 42.820 C 244.829 57.482,244.851 57.318,242.760 59.246 C 239.206 62.521,232.980 61.387,231.048 57.113 L 230.426 55.738 230.345 42.820 L 230.264 29.902 232.759 29.902 L 235.255 29.902 235.332 42.471 M278.033 32.131 L 278.033 34.361 275.541 34.361 L 273.049 34.361 273.049 47.475 L 273.049 60.590 270.557 60.590 L 268.066 60.590 268.066 47.475 L 268.066 34.361 265.443 34.361 L 262.820 34.361 262.820 32.131 L 262.820 29.902 270.426 29.902 L 278.033 29.902 278.033 32.131 M284.852 45.246 L 284.852 60.590 282.361 60.590 L 279.869 60.590 279.869 45.246 L 279.869 29.902 282.361 29.902 L 284.852 29.902 284.852 45.246 M318.426 32.131 L 318.426 34.361 314.230 34.361 L 310.033 34.361 310.033 38.557 L 310.033 42.754 313.311 42.754 L 316.590 42.754 316.590 44.984 L 316.590 47.213 313.311 47.213 L 310.033 47.213 310.033 51.672 L 310.033 56.131 314.230 56.131 L 318.426 56.131 318.426 58.361 L 318.426 60.590 311.738 60.590 L 305.049 60.590 305.049 45.246 L 305.049 29.902 311.738 29.902 L 318.426 29.902 318.426 32.131 M89.443 32.805 C 99.107 34.371,103.074 39.927,103.522 52.525 L 103.688 57.180 97.383 57.180 L 91.078 57.180 90.945 52.918 C 90.796 48.138,90.566 47.090,89.367 45.724 C 87.342 43.419,82.546 43.373,80.340 45.638 C 78.651 47.373,78.591 47.805,78.490 59.148 L 78.399 69.377 79.157 68.197 C 81.391 64.719,84.953 62.946,89.694 62.955 C 97.094 62.968,101.702 66.712,103.812 74.429 L 104.511 76.984 104.514 88.525 C 104.516 99.670,104.496 100.138,103.930 102.164 C 101.438 111.094,95.524 115.023,84.590 115.012 C 72.834 115.000,66.485 109.402,65.052 97.785 C 64.515 93.434,64.829 49.694,65.415 47.228 C 68.081 36.007,76.821 30.760,89.443 32.805 M57.180 73.836 L 57.180 114.361 50.361 114.361 L 43.541 114.361 43.527 83.475 L 43.513 52.590 38.675 57.569 L 33.836 62.549 33.836 55.260 L 33.836 47.972 40.066 40.651 L 46.295 33.329 51.738 33.320 L 57.180 33.311 57.180 73.836 M125.902 39.475 L 125.902 44.590 127.487 44.590 C 130.145 44.590,130.361 44.206,130.361 39.475 C 130.361 34.744,130.145 34.361,127.487 34.361 L 125.902 34.361 125.902 39.475 M159.756 42.951 C 159.278 46.233,158.827 49.302,158.754 49.770 L 158.620 50.623 160.753 50.623 C 161.926 50.623,162.888 50.534,162.892 50.426 C 162.916 49.748,160.915 36.984,160.784 36.984 C 160.696 36.984,160.233 39.669,159.756 42.951 M209.311 58.052 C 209.311 60.007,209.206 60.480,208.299 62.577 L 207.286 64.918 206.201 64.999 C 204.924 65.094,204.945 65.205,205.742 62.623 L 206.369 60.590 205.480 60.590 L 204.590 60.590 204.590 58.230 L 204.590 55.869 206.951 55.869 L 209.311 55.869 209.311 58.052 M82.270 74.350 C 80.345 75.036,79.235 76.588,78.693 79.351 C 78.177 81.987,78.453 98.688,79.038 100.193 C 80.956 105.126,88.211 105.212,90.412 100.328 C 91.127 98.742,91.281 80.718,90.601 78.190 C 89.653 74.663,86.050 73.002,82.270 74.350 M191.899 75.668 C 193.994 76.543,195.206 78.289,195.659 81.083 C 196.153 84.127,196.303 83.934,193.443 83.934 L 190.951 83.934 190.951 82.443 C 190.951 79.873,188.475 78.599,187.035 80.429 C 185.451 82.443,186.525 85.036,190.752 89.401 C 195.132 93.924,196.240 96.256,195.811 100.046 C 195.313 104.451,192.967 106.581,188.590 106.604 C 183.930 106.629,181.599 104.222,181.305 99.082 L 181.173 96.787 183.536 96.787 L 185.898 96.787 186.028 98.802 C 186.299 103.039,190.780 103.467,190.774 99.255 C 190.771 97.001,190.045 95.823,186.482 92.287 C 182.284 88.120,181.639 86.851,181.639 82.751 C 181.639 76.555,186.308 73.332,191.899 75.668 M242.317 75.886 C 243.676 76.563,245.056 78.186,245.544 79.679 C 245.998 81.067,246.177 98.309,245.764 100.761 C 244.617 107.559,235.087 109.068,232.000 102.939 L 231.213 101.377 231.213 90.885 L 231.213 80.393 232.000 78.831 C 233.777 75.303,238.463 73.965,242.317 75.886 M277.720 75.682 C 280.265 76.701,281.393 78.875,281.627 83.213 L 281.779 86.033 279.413 86.033 L 277.046 86.033 276.938 83.550 C 276.778 79.903,274.709 78.348,272.767 80.415 L 272.131 81.091 272.131 90.929 L 272.131 100.767 272.867 101.400 C 275.259 103.457,276.825 101.845,276.944 97.203 L 277.035 93.639 275.819 93.639 L 274.603 93.639 274.678 91.344 L 274.754 89.049 278.164 89.049 L 281.574 89.049 281.569 95.213 C 281.563 102.216,281.336 103.218,279.347 105.015 C 275.918 108.114,269.638 106.886,267.769 102.752 C 266.808 100.626,266.794 81.161,267.752 79.082 C 269.408 75.488,273.632 74.047,277.720 75.682 M131.934 75.681 C 131.934 75.757,132.997 82.449,134.295 90.550 C 135.593 98.651,136.656 105.493,136.656 105.754 C 136.656 106.179,136.395 106.230,134.194 106.230 L 131.732 106.230 131.422 104.066 C 130.892 100.370,131.252 100.721,128.002 100.721 L 125.175 100.721 124.865 102.885 C 124.341 106.536,124.598 106.230,122.070 106.230 C 120.120 106.230,119.869 106.175,119.869 105.754 C 119.869 105.493,120.931 98.651,122.230 90.550 C 123.528 82.449,124.590 75.757,124.590 75.681 C 124.590 75.604,126.243 75.541,128.262 75.541 C 130.282 75.541,131.934 75.604,131.934 75.681 M145.683 78.098 C 146.067 79.505,147.135 83.430,148.057 86.820 L 149.732 92.984 149.751 84.262 L 149.770 75.541 152.000 75.541 L 154.230 75.541 154.230 90.885 L 154.230 106.230 151.650 106.230 L 149.070 106.230 146.207 95.600 L 143.344 84.971 143.276 95.600 L 143.207 106.230 140.981 106.230 L 138.754 106.230 138.754 90.885 L 138.754 75.541 141.870 75.541 L 144.986 75.541 145.683 78.098 M168.656 76.088 C 172.129 77.662,172.181 77.867,172.276 90.230 C 172.395 105.802,172.257 106.030,162.689 106.183 L 157.377 106.268 157.377 90.905 L 157.377 75.541 162.426 75.547 C 166.940 75.552,167.600 75.609,168.656 76.088 M212.197 77.770 L 212.197 80.000 209.574 80.000 L 206.951 80.000 206.951 93.115 L 206.951 106.230 204.459 106.230 L 201.967 106.230 201.967 93.115 L 201.967 80.000 199.475 80.000 L 196.984 80.000 196.984 77.770 L 196.984 75.541 204.590 75.541 L 212.197 75.541 212.197 77.770 M225.330 76.262 C 229.080 78.162,229.940 87.332,226.647 90.307 L 225.664 91.196 226.640 92.016 C 228.089 93.232,228.474 94.625,228.614 99.148 C 228.679 101.239,228.775 103.689,228.828 104.590 L 228.923 106.230 226.490 106.230 C 223.483 106.230,223.707 106.678,223.504 100.239 L 223.344 95.167 222.608 94.534 C 222.025 94.033,221.576 93.902,220.444 93.902 L 219.016 93.902 219.016 100.066 L 219.016 106.230 216.525 106.230 L 214.033 106.230 214.033 90.885 L 214.033 75.541 218.969 75.541 C 223.835 75.541,223.926 75.551,225.330 76.262 M257.309 84.018 L 259.541 92.363 259.610 83.952 L 259.679 75.541 262.036 75.541 L 264.393 75.541 264.393 90.894 L 264.393 106.248 261.727 106.173 L 259.061 106.098 256.284 95.779 L 253.508 85.460 253.440 95.845 L 253.371 106.230 251.013 106.230 L 248.656 106.230 248.656 90.877 L 248.656 75.525 251.867 75.598 L 255.078 75.672 257.309 84.018 M236.914 80.261 C 236.076 81.042,236.029 81.708,236.116 91.586 L 236.197 100.680 236.833 101.356 C 237.685 102.263,239.156 102.283,240.182 101.400 L 240.918 100.767 240.918 90.929 L 240.918 81.091 240.282 80.415 C 239.468 79.548,237.763 79.471,236.914 80.261 M162.361 90.914 L 162.361 101.828 164.356 101.727 C 167.531 101.567,167.344 102.246,167.344 90.844 L 167.344 81.288 166.700 80.644 C 166.139 80.082,165.821 80.000,164.209 80.000 L 162.361 80.000 162.361 90.914 M219.016 84.590 L 219.016 89.180 220.316 89.180 C 223.118 89.180,223.560 88.455,223.433 84.063 C 223.325 80.335,223.088 80.000,220.561 80.000 L 219.016 80.000 219.016 84.590 M127.922 82.623 C 127.791 82.973,125.894 95.576,125.899 96.066 C 125.901 96.174,126.846 96.262,128.000 96.262 C 129.826 96.262,130.097 96.203,130.091 95.803 C 130.070 94.559,128.051 82.282,127.922 82.623 M157.801 121.044 C 160.084 121.997,161.395 124.130,161.718 127.420 L 161.906 129.332 159.445 129.256 L 156.984 129.180 156.902 127.738 C 156.705 124.250,152.789 123.980,152.457 127.431 C 152.233 129.766,152.826 130.802,156.650 134.750 C 161.022 139.265,161.709 140.560,161.696 144.262 C 161.677 149.448,159.289 152.007,154.492 151.981 C 149.755 151.956,147.398 149.513,147.316 144.541 L 147.279 142.295 149.535 142.220 L 151.792 142.145 151.946 144.187 C 152.267 148.430,156.727 148.832,156.705 144.617 C 156.693 142.367,156.082 141.377,152.490 137.782 C 148.163 133.453,147.541 132.240,147.541 128.137 C 147.541 121.936,152.206 118.711,157.801 121.044 M255.533 121.121 C 256.793 121.678,258.135 123.074,258.815 124.534 C 259.500 126.004,259.662 144.639,259.010 147.063 C 257.276 153.518,247.542 153.931,245.059 147.654 C 244.362 145.894,244.362 126.631,245.059 124.870 C 246.587 121.007,251.390 119.288,255.533 121.121 M290.785 121.045 C 292.879 121.920,294.091 123.666,294.545 126.460 C 295.038 129.504,295.188 129.311,292.328 129.311 L 289.836 129.311 289.836 127.820 C 289.836 125.250,287.360 123.976,285.921 125.806 C 284.323 127.837,285.406 130.415,289.715 134.840 C 293.980 139.220,294.681 140.554,294.667 144.262 C 294.648 149.456,292.290 151.989,287.475 151.989 C 282.802 151.989,280.539 149.657,280.205 144.498 L 280.053 142.164 282.418 142.164 L 284.783 142.164 284.913 144.179 C 285.107 147.205,287.035 148.441,288.967 146.779 C 290.946 145.076,289.728 141.992,285.367 137.664 C 281.168 133.496,280.525 132.230,280.525 128.130 C 280.525 121.932,285.192 118.709,290.785 121.045 M125.902 136.262 L 125.902 151.607 123.410 151.607 L 120.918 151.607 120.918 136.262 L 120.918 120.918 123.410 120.918 L 125.902 120.918 125.902 136.262 M137.859 129.632 L 140.197 138.346 140.266 129.632 L 140.335 120.918 142.561 120.918 L 144.787 120.918 144.787 136.262 L 144.787 151.607 142.194 151.607 L 139.601 151.607 139.044 149.574 C 138.738 148.456,137.456 143.705,136.195 139.016 L 133.902 130.492 133.833 141.049 L 133.765 151.607 131.538 151.607 L 129.311 151.607 129.311 136.262 L 129.311 120.918 132.417 120.918 L 135.522 120.918 137.859 129.632 M178.098 123.148 L 178.098 125.377 175.475 125.377 L 172.852 125.377 172.852 138.492 L 172.852 151.607 170.361 151.607 L 167.869 151.607 167.869 138.492 L 167.869 125.377 165.377 125.377 L 162.885 125.377 162.885 123.148 L 162.885 120.918 170.492 120.918 L 178.098 120.918 178.098 123.148 M184.918 136.262 L 184.918 151.607 182.426 151.607 L 179.934 151.607 179.934 136.262 L 179.934 120.918 182.426 120.918 L 184.918 120.918 184.918 136.262 M201.967 123.148 L 201.967 125.377 199.344 125.377 L 196.721 125.377 196.721 138.492 L 196.721 151.607 194.230 151.607 L 191.738 151.607 191.738 138.492 L 191.738 125.377 189.246 125.377 L 186.754 125.377 186.754 123.148 L 186.754 120.918 194.361 120.918 L 201.967 120.918 201.967 123.148 M208.583 133.663 L 208.656 146.407 209.275 146.909 C 210.184 147.645,211.792 147.576,212.602 146.766 L 213.246 146.122 213.246 133.520 L 213.246 120.918 215.607 120.918 L 217.967 120.918 217.967 133.592 C 217.967 147.520,217.924 147.972,216.401 149.813 C 213.841 152.908,207.368 152.840,205.089 149.693 C 203.581 147.611,203.541 147.196,203.541 133.461 L 203.541 120.918 206.026 120.918 L 208.510 120.918 208.583 133.663 M234.754 123.148 L 234.754 125.377 232.262 125.377 L 229.770 125.377 229.770 138.492 L 229.770 151.607 227.279 151.607 L 224.787 151.607 224.787 138.492 L 224.787 125.377 222.295 125.377 L 219.803 125.377 219.803 123.148 L 219.803 120.918 227.279 120.918 L 234.754 120.918 234.754 123.148 M241.574 136.262 L 241.574 151.607 239.082 151.607 L 236.590 151.607 236.590 136.262 L 236.590 120.918 239.082 120.918 L 241.574 120.918 241.574 136.262 M270.890 129.770 L 273.277 138.623 273.294 129.770 L 273.311 120.918 275.541 120.918 L 277.770 120.918 277.770 136.262 L 277.770 151.607 275.160 151.607 L 272.549 151.607 272.320 150.754 C 272.194 150.285,270.919 145.543,269.488 140.217 L 266.885 130.532 266.817 141.069 L 266.748 151.607 264.522 151.607 L 262.295 151.607 262.295 136.262 L 262.295 120.918 265.399 120.918 L 268.503 120.918 270.890 129.770 M250.249 125.806 C 249.721 126.477,249.705 126.780,249.705 136.310 L 249.705 146.122 250.349 146.766 C 251.036 147.454,252.463 147.637,253.367 147.153 C 254.315 146.645,254.426 145.507,254.426 136.262 C 254.426 125.317,254.379 125.115,251.840 125.115 C 251.020 125.115,250.674 125.265,250.249 125.806 M299.013 176.984 C 298.997 183.895,295.301 188.064,288.514 188.823 C 285.330 189.179,285.296 189.157,285.503 186.914 C 286.214 179.207,290.119 175.323,297.246 175.235 L 299.016 175.213 299.013 176.984 M276.376 179.303 C 280.268 183.094,280.830 186.942,278.254 192.174 C 277.098 194.523,276.980 194.581,275.416 193.578 C 269.970 190.083,268.549 184.670,271.524 178.754 C 272.890 176.036,273.038 176.053,276.376 179.303 M264.040 188.355 C 269.708 192.255,270.997 197.075,268.013 203.213 C 266.778 205.754,266.846 205.737,264.656 204.091 C 259.082 199.902,258.224 194.254,262.231 188.131 C 262.714 187.394,262.628 187.384,264.040 188.355 M285.058 191.356 C 285.320 191.532,281.474 196.157,278.307 199.475 C 270.452 207.704,268.349 210.794,266.988 216.107 L 266.478 218.098 267.338 218.819 C 267.810 219.216,269.259 220.278,270.557 221.180 L 272.918 222.820 270.164 222.885 C 265.880 222.985,266.124 222.818,266.330 225.522 C 266.530 228.160,267.210 231.646,268.213 235.181 C 268.600 236.546,268.873 237.701,268.819 237.747 C 268.765 237.794,268.297 237.909,267.779 238.002 L 266.838 238.172 266.148 235.873 C 265.144 232.528,264.398 228.676,264.212 225.880 L 264.049 223.432 263.139 223.603 C 250.398 225.993,245.640 232.838,245.362 249.180 C 245.153 261.451,244.571 264.933,241.685 271.179 C 236.013 283.456,221.476 292.624,202.754 295.731 C 201.384 295.958,199.938 296.210,199.541 296.290 L 198.820 296.435 198.820 305.422 L 198.820 314.409 205.180 314.579 C 208.679 314.672,215.613 314.820,220.590 314.908 L 229.639 315.068 239.208 313.993 C 244.470 313.402,248.867 312.918,248.978 312.918 C 249.089 312.918,249.180 310.670,249.180 307.921 C 249.180 299.803,247.212 300.560,268.085 300.650 L 284.633 300.721 285.399 301.578 L 286.164 302.435 286.164 319.106 L 286.164 335.778 285.420 336.522 C 284.346 337.596,284.072 337.610,266.754 337.522 C 247.278 337.423,249.180 338.213,249.180 330.217 C 249.180 327.483,249.151 325.239,249.115 325.230 C 249.079 325.222,244.505 324.710,238.951 324.093 L 228.852 322.971 178.230 324.099 C 150.387 324.720,127.105 325.232,126.492 325.237 L 125.377 325.246 125.377 319.082 L 125.377 312.918 128.197 312.923 C 129.748 312.925,141.285 313.159,153.836 313.443 C 166.387 313.727,177.866 313.961,179.344 313.963 L 182.033 313.967 182.033 305.359 L 182.033 296.750 179.213 296.425 C 167.373 295.059,160.908 292.634,148.459 284.889 C 140.686 280.053,138.167 278.646,134.426 277.052 C 133.089 276.482,132.661 276.217,133.246 276.320 C 146.615 278.683,152.990 277.381,163.887 270.063 C 170.957 265.314,176.097 262.916,179.454 262.798 C 179.790 262.786,178.885 262.566,177.443 262.308 C 161.573 259.468,152.908 249.284,148.199 227.934 C 144.018 208.982,140.668 201.902,134.295 198.556 L 132.590 197.661 133.770 197.436 C 135.884 197.032,145.441 197.142,148.556 197.605 C 161.695 199.559,171.737 205.084,184.461 217.362 C 194.245 226.803,201.518 230.439,210.492 230.377 C 218.583 230.322,223.447 227.926,233.183 219.199 C 242.050 211.252,247.313 208.194,252.197 208.152 C 255.709 208.121,256.785 208.706,261.124 213.002 L 264.565 216.410 265.428 213.775 C 266.999 208.978,269.140 205.932,276.095 198.592 C 278.506 196.048,281.121 193.113,281.908 192.069 L 283.338 190.170 284.161 190.738 C 284.613 191.050,285.017 191.328,285.058 191.356 M295.082 195.890 C 296.020 196.354,297.259 197.136,297.836 197.627 L 298.885 198.520 297.443 199.994 C 292.967 204.566,287.638 204.875,283.148 200.823 L 282.098 199.876 283.897 198.143 C 287.481 194.690,291.164 193.948,295.082 195.890 M284.802 207.207 C 285.802 207.741,287.068 208.750,288.044 209.794 L 289.646 211.506 288.889 212.124 C 284.101 216.024,278.848 215.883,274.690 211.743 C 272.691 209.751,272.679 209.563,274.478 208.368 C 278.132 205.942,281.679 205.543,284.802 207.207 M131.672 275.946 C 131.959 276.141,131.853 276.165,131.279 276.037 C 130.314 275.821,130.105 275.671,130.776 275.676 C 131.052 275.678,131.456 275.800,131.672 275.946 M286.885 288.294 C 288.589 289.119,289.443 290.553,289.443 292.590 C 289.443 294.627,288.589 296.062,286.885 296.886 C 285.429 297.591,250.488 297.777,248.840 297.088 C 244.978 295.475,244.947 290.147,248.787 288.150 C 250.211 287.410,285.332 287.542,286.885 288.294 M187.279 305.574 L 187.279 314.230 190.557 314.230 L 193.836 314.230 193.836 305.574 L 193.836 296.918 190.557 296.918 L 187.279 296.918 187.279 305.574 M120.915 310.980 C 122.419 312.338,122.541 313.017,122.445 319.497 L 122.361 325.157 121.626 326.120 C 120.474 327.628,119.643 327.933,116.967 327.828 C 112.586 327.656,112.000 326.609,112.000 318.951 C 112.000 311.147,112.677 310.033,117.415 310.033 C 119.863 310.033,119.869 310.034,120.915 310.980 M285.959 340.733 C 290.213 341.914,290.757 347.689,286.820 349.861 C 285.809 350.419,252.187 350.688,249.746 350.158 C 244.934 349.112,244.630 342.030,249.343 340.783 C 250.744 340.412,284.637 340.366,285.959 340.733 " stroke="none" fill="#04649c" fill-rule="evenodd"></path><path id="path2" d="M177.902 29.558 C 178.154 29.624,178.567 29.624,178.820 29.558 C 179.072 29.492,178.866 29.438,178.361 29.438 C 177.856 29.438,177.649 29.492,177.902 29.558 M254.101 29.563 C 254.428 29.625,254.900 29.623,255.151 29.557 C 255.401 29.492,255.134 29.440,254.557 29.443 C 253.980 29.446,253.775 29.500,254.101 29.563 M294.623 29.558 C 294.875 29.624,295.289 29.624,295.541 29.558 C 295.793 29.492,295.587 29.438,295.082 29.438 C 294.577 29.438,294.370 29.492,294.623 29.558 M121.041 45.246 C 121.041 53.757,121.074 57.201,121.115 52.899 C 121.155 48.597,121.155 41.633,121.115 37.424 C 121.074 33.215,121.041 36.734,121.041 45.246 M230.416 41.705 C 230.416 48.269,230.450 50.954,230.492 47.672 C 230.533 44.390,230.533 39.020,230.492 35.738 C 230.450 32.456,230.416 35.141,230.416 41.705 M49.129 33.507 C 50.688 33.554,53.166 33.554,54.637 33.507 C 56.108 33.460,54.833 33.422,51.803 33.422 C 48.774 33.423,47.570 33.461,49.129 33.507 M272.909 47.475 C 272.909 54.761,272.942 57.741,272.983 54.098 C 273.025 50.456,273.025 44.495,272.983 40.852 C 272.942 37.210,272.909 40.190,272.909 47.475 M176.118 45.246 C 176.118 50.295,176.153 52.324,176.196 49.754 C 176.239 47.184,176.239 43.052,176.196 40.573 C 176.153 38.094,176.118 40.197,176.118 45.246 M302.214 38.350 L 302.164 40.111 299.869 40.198 L 297.574 40.286 299.877 40.340 C 302.527 40.402,302.501 40.425,302.359 38.135 L 302.263 36.590 302.214 38.350 M182.230 40.323 C 182.843 40.378,183.846 40.378,184.459 40.323 C 185.072 40.268,184.570 40.223,183.344 40.223 C 182.118 40.223,181.616 40.268,182.230 40.323 M199.961 45.115 C 199.961 46.341,200.006 46.843,200.061 46.230 C 200.116 45.616,200.116 44.613,200.061 44.000 C 200.006 43.387,199.961 43.889,199.961 45.115 M302.257 51.541 C 302.256 52.839,302.301 53.404,302.356 52.795 C 302.411 52.186,302.411 51.124,302.357 50.434 C 302.303 49.745,302.258 50.243,302.257 51.541 M251.882 52.721 C 251.882 53.515,251.931 53.839,251.991 53.443 C 252.051 53.046,252.051 52.397,251.991 52.000 C 251.931 51.603,251.882 51.928,251.882 52.721 M103.441 54.295 C 103.441 55.810,103.485 56.430,103.538 55.672 C 103.591 54.915,103.591 53.675,103.538 52.918 C 103.485 52.161,103.441 52.780,103.441 54.295 M219.475 60.775 C 219.800 60.838,220.331 60.838,220.656 60.775 C 220.980 60.713,220.715 60.662,220.066 60.662 C 219.416 60.662,219.151 60.713,219.475 60.775 M188.131 75.197 C 188.384 75.263,188.797 75.263,189.049 75.197 C 189.302 75.131,189.095 75.077,188.590 75.077 C 188.085 75.077,187.879 75.131,188.131 75.197 M238.101 75.202 C 238.428 75.265,238.900 75.262,239.151 75.197 C 239.401 75.131,239.134 75.080,238.557 75.083 C 237.980 75.085,237.775 75.139,238.101 75.202 M273.902 75.197 C 274.154 75.263,274.567 75.263,274.820 75.197 C 275.072 75.131,274.866 75.077,274.361 75.077 C 273.856 75.077,273.649 75.131,273.902 75.197 M157.500 90.885 C 157.500 99.397,157.533 102.841,157.574 98.539 C 157.614 94.236,157.614 87.273,157.574 83.063 C 157.533 78.854,157.500 82.374,157.500 90.885 M202.089 93.115 C 202.089 100.400,202.123 103.380,202.164 99.738 C 202.205 96.095,202.205 90.134,202.164 86.492 C 202.123 82.849,202.089 85.830,202.089 93.115 M218.876 84.656 L 218.885 89.311 220.002 89.337 L 221.119 89.363 220.074 89.257 L 219.028 89.151 218.947 84.575 L 218.867 80.000 218.876 84.656 M91.132 88.918 C 91.132 93.030,91.168 94.711,91.213 92.656 C 91.257 90.600,91.257 87.236,91.213 85.180 C 91.168 83.125,91.132 84.807,91.132 88.918 M267.134 90.885 C 267.134 95.790,267.170 97.760,267.213 95.262 C 267.256 92.764,267.256 88.751,267.213 86.344 C 267.169 83.937,267.134 85.980,267.134 90.885 M281.493 83.859 L 281.443 85.750 279.148 85.837 L 276.852 85.925 279.156 85.979 C 281.820 86.041,281.775 86.084,281.638 83.645 L 281.544 81.967 281.493 83.859 M167.462 90.885 C 167.462 95.646,167.497 97.630,167.540 95.295 C 167.584 92.960,167.584 89.065,167.541 86.640 C 167.497 84.214,167.462 86.125,167.462 90.885 M223.565 84.590 C 223.566 85.744,223.612 86.184,223.668 85.567 C 223.723 84.950,223.722 84.006,223.666 83.468 C 223.610 82.931,223.564 83.436,223.565 84.590 M253.235 95.344 C 253.235 101.403,253.269 103.845,253.311 100.769 C 253.353 97.694,253.353 92.737,253.311 89.753 C 253.269 86.769,253.235 89.285,253.235 95.344 M274.715 91.279 C 274.715 92.505,274.760 93.007,274.815 92.393 C 274.870 91.780,274.870 90.777,274.815 90.164 C 274.760 89.551,274.715 90.052,274.715 91.279 M281.553 94.426 C 281.553 97.384,281.592 98.593,281.638 97.115 C 281.685 95.636,281.685 93.216,281.638 91.738 C 281.592 90.259,281.553 91.469,281.553 94.426 M218.872 93.973 C 218.802 94.156,218.778 97.019,218.820 100.334 L 218.896 106.361 218.956 100.146 L 219.016 93.932 220.131 93.831 L 221.246 93.731 220.123 93.685 C 219.420 93.656,218.952 93.764,218.872 93.973 M195.733 98.885 C 195.733 99.390,195.787 99.597,195.853 99.344 C 195.919 99.092,195.919 98.679,195.853 98.426 C 195.787 98.174,195.733 98.380,195.733 98.885 M154.033 120.574 C 154.285 120.640,154.698 120.640,154.951 120.574 C 155.203 120.508,154.997 120.454,154.492 120.454 C 153.987 120.454,153.780 120.508,154.033 120.574 M251.607 120.574 C 251.859 120.640,252.272 120.640,252.525 120.574 C 252.777 120.508,252.570 120.454,252.066 120.454 C 251.561 120.454,251.354 120.508,251.607 120.574 M287.016 120.574 C 287.269 120.640,287.682 120.640,287.934 120.574 C 288.187 120.508,287.980 120.454,287.475 120.454 C 286.970 120.454,286.764 120.508,287.016 120.574 M121.041 136.262 C 121.041 144.774,121.074 148.218,121.115 143.916 C 121.155 139.614,121.155 132.650,121.115 128.440 C 121.074 124.231,121.041 127.751,121.041 136.262 M213.367 132.984 C 213.367 139.692,213.401 142.436,213.442 139.082 C 213.484 135.728,213.484 130.239,213.442 126.885 C 213.401 123.531,213.367 126.275,213.367 132.984 M236.713 136.262 C 236.713 144.774,236.746 148.218,236.787 143.916 C 236.827 139.614,236.827 132.650,236.787 128.440 C 236.746 124.231,236.713 127.751,236.713 136.262 M167.991 138.492 C 167.991 145.777,168.024 148.757,168.065 145.115 C 168.107 141.472,168.107 135.511,168.065 131.869 C 168.024 128.226,167.991 131.207,167.991 138.492 M191.859 138.492 C 191.859 145.777,191.893 148.757,191.934 145.115 C 191.975 141.472,191.975 135.511,191.934 131.869 C 191.893 128.226,191.859 131.207,191.859 138.492 M147.226 143.738 C 147.226 144.531,147.275 144.856,147.335 144.459 C 147.396 144.062,147.396 143.413,147.335 143.016 C 147.275 142.620,147.226 142.944,147.226 143.738 M280.212 143.869 C 280.214 144.734,280.263 145.057,280.321 144.585 C 280.380 144.114,280.378 143.406,280.319 143.012 C 280.259 142.618,280.211 143.003,280.212 143.869 M294.618 144.262 C 294.618 144.767,294.672 144.974,294.738 144.721 C 294.804 144.469,294.804 144.056,294.738 143.803 C 294.672 143.551,294.618 143.757,294.618 144.262 M269.967 222.876 C 270.364 222.936,271.013 222.936,271.410 222.876 C 271.807 222.816,271.482 222.767,270.689 222.767 C 269.895 222.767,269.570 222.816,269.967 222.876 M160.000 253.508 C 160.489 254.013,160.949 254.426,161.021 254.426 C 161.093 254.426,160.752 254.013,160.262 253.508 C 159.773 253.003,159.313 252.590,159.241 252.590 C 159.169 252.590,159.511 253.003,160.000 253.508 M141.967 277.427 C 142.220 277.493,142.633 277.493,142.885 277.427 C 143.138 277.361,142.931 277.307,142.426 277.307 C 141.921 277.307,141.715 277.361,141.967 277.427 M132.000 313.099 C 132.252 313.165,132.666 313.165,132.918 313.099 C 133.170 313.033,132.964 312.979,132.459 312.979 C 131.954 312.979,131.748 313.033,132.000 313.099 M144.328 313.361 C 144.580 313.427,144.993 313.427,145.246 313.361 C 145.498 313.295,145.292 313.241,144.787 313.241 C 144.282 313.241,144.075 313.295,144.328 313.361 M156.393 313.623 C 156.646 313.689,157.059 313.689,157.311 313.623 C 157.564 313.557,157.357 313.503,156.852 313.503 C 156.348 313.503,156.141 313.557,156.393 313.623 M168.593 313.890 C 168.919 313.953,169.392 313.951,169.642 313.885 C 169.893 313.819,169.626 313.768,169.049 313.771 C 168.472 313.774,168.267 313.828,168.593 313.890 M180.787 314.148 C 181.039 314.214,181.452 314.214,181.705 314.148 C 181.957 314.082,181.751 314.028,181.246 314.028 C 180.741 314.028,180.534 314.082,180.787 314.148 M192.328 314.410 C 192.580 314.476,192.993 314.476,193.246 314.410 C 193.498 314.344,193.292 314.290,192.787 314.290 C 192.282 314.290,192.075 314.344,192.328 314.410 M203.607 314.673 C 203.859 314.739,204.272 314.739,204.525 314.673 C 204.777 314.607,204.570 314.553,204.066 314.553 C 203.561 314.553,203.354 314.607,203.607 314.673 M215.148 314.935 C 215.400 315.001,215.813 315.001,216.066 314.935 C 216.318 314.869,216.111 314.815,215.607 314.815 C 215.102 314.815,214.895 314.869,215.148 314.935 M226.689 315.197 C 226.941 315.263,227.354 315.263,227.607 315.197 C 227.859 315.131,227.652 315.077,227.148 315.077 C 226.643 315.077,226.436 315.131,226.689 315.197 M223.016 323.066 C 223.269 323.132,223.682 323.132,223.934 323.066 C 224.187 323.000,223.980 322.946,223.475 322.946 C 222.970 322.946,222.764 323.000,223.016 323.066 M211.213 323.328 C 211.466 323.394,211.879 323.394,212.131 323.328 C 212.384 323.262,212.177 323.208,211.672 323.208 C 211.167 323.208,210.961 323.262,211.213 323.328 M199.410 323.591 C 199.662 323.657,200.075 323.657,200.328 323.591 C 200.580 323.525,200.374 323.471,199.869 323.471 C 199.364 323.471,199.157 323.525,199.410 323.591 M187.607 323.853 C 187.859 323.919,188.272 323.919,188.525 323.853 C 188.777 323.787,188.570 323.733,188.066 323.733 C 187.561 323.733,187.354 323.787,187.607 323.853 M175.803 324.115 C 176.056 324.181,176.469 324.181,176.721 324.115 C 176.974 324.049,176.767 323.995,176.262 323.995 C 175.757 323.995,175.551 324.049,175.803 324.115 M164.000 324.378 C 164.252 324.444,164.666 324.444,164.918 324.378 C 165.170 324.312,164.964 324.258,164.459 324.258 C 163.954 324.258,163.748 324.312,164.000 324.378 M151.934 324.640 C 152.187 324.706,152.600 324.706,152.852 324.640 C 153.105 324.574,152.898 324.520,152.393 324.520 C 151.889 324.520,151.682 324.574,151.934 324.640 M140.131 324.902 C 140.384 324.968,140.797 324.968,141.049 324.902 C 141.302 324.836,141.095 324.782,140.590 324.782 C 140.085 324.782,139.879 324.836,140.131 324.902 M128.328 325.164 C 128.580 325.230,128.993 325.230,129.246 325.164 C 129.498 325.098,129.292 325.044,128.787 325.044 C 128.282 325.044,128.075 325.098,128.328 325.164 M259.232 340.656 C 263.967 340.696,271.639 340.696,276.281 340.656 C 280.923 340.615,277.049 340.583,267.672 340.583 C 258.295 340.583,254.497 340.616,259.232 340.656 " stroke="none" fill="#5b9cc1" fill-rule="evenodd"></path><path id="path3" d="M137.828 45.246 C 137.828 53.757,137.861 57.201,137.902 52.899 C 137.942 48.597,137.942 41.633,137.901 37.424 C 137.861 33.215,137.828 36.734,137.828 45.246 M150.872 31.928 L 150.820 34.085 146.689 34.157 L 142.557 34.230 142.547 38.492 L 142.537 42.755 142.619 38.558 L 142.702 34.361 146.769 34.361 C 151.440 34.361,151.148 34.542,151.015 31.713 L 150.924 29.770 150.872 31.928 M244.842 41.836 C 244.842 48.472,244.876 51.149,244.918 47.785 C 244.959 44.421,244.959 38.992,244.918 35.720 C 244.876 32.448,244.842 35.200,244.842 41.836 M277.823 31.925 L 277.770 34.079 275.344 34.165 L 272.918 34.252 275.352 34.306 C 278.189 34.370,278.095 34.462,277.966 31.713 L 277.875 29.770 277.823 31.925 M279.992 45.246 C 279.992 53.757,280.025 57.201,280.065 52.899 C 280.106 48.597,280.106 41.633,280.065 37.424 C 280.025 33.215,279.992 36.734,279.992 45.246 M305.172 45.246 C 305.172 53.757,305.205 57.201,305.246 52.899 C 305.286 48.597,305.286 41.633,305.246 37.424 C 305.205 33.215,305.172 36.734,305.172 45.246 M318.216 31.928 L 318.164 34.085 314.033 34.164 L 309.902 34.244 314.041 34.302 C 318.799 34.369,318.493 34.553,318.360 31.713 L 318.268 29.770 318.216 31.928 M126.492 34.286 C 126.889 34.346,127.538 34.346,127.934 34.286 C 128.331 34.226,128.007 34.177,127.213 34.177 C 126.420 34.177,126.095 34.226,126.492 34.286 M195.344 34.294 C 196.534 34.342,198.482 34.342,199.672 34.294 C 200.862 34.245,199.889 34.205,197.508 34.205 C 195.128 34.205,194.154 34.245,195.344 34.294 M264.337 34.292 C 265.099 34.345,266.279 34.345,266.960 34.291 C 267.640 34.237,267.016 34.193,265.574 34.194 C 264.131 34.195,263.574 34.239,264.337 34.292 M185.534 38.033 C 185.534 39.259,185.579 39.761,185.635 39.148 C 185.690 38.534,185.690 37.531,185.635 36.918 C 185.579 36.305,185.534 36.807,185.534 38.033 M261.508 37.105 L 261.508 38.012 259.213 38.100 L 256.918 38.187 259.344 38.241 L 261.770 38.295 261.770 37.246 C 261.770 36.669,261.711 36.197,261.639 36.197 C 261.567 36.197,261.508 36.605,261.508 37.105 M181.072 38.295 C 181.072 39.377,181.118 39.820,181.175 39.279 C 181.231 38.738,181.231 37.852,181.175 37.311 C 181.118 36.770,181.072 37.213,181.072 38.295 M247.405 37.246 C 247.405 37.751,247.459 37.957,247.525 37.705 C 247.591 37.452,247.591 37.039,247.525 36.787 C 247.459 36.534,247.405 36.741,247.405 37.246 M287.854 45.246 C 287.854 49.718,287.890 51.584,287.934 49.393 C 287.978 47.202,287.978 43.543,287.934 41.262 C 287.890 38.981,287.854 40.774,287.854 45.246 M255.202 42.557 C 255.845 43.243,256.406 43.803,256.448 43.803 C 256.645 43.803,256.437 43.568,255.279 42.481 L 254.033 41.311 255.202 42.557 M126.623 44.775 C 126.948 44.838,127.479 44.838,127.803 44.775 C 128.128 44.713,127.862 44.662,127.213 44.662 C 126.564 44.662,126.298 44.713,126.623 44.775 M142.534 51.672 C 142.534 54.197,142.573 55.230,142.622 53.967 C 142.670 52.705,142.670 50.639,142.622 49.377 C 142.573 48.115,142.534 49.148,142.534 51.672 M181.038 51.607 L 181.092 54.164 181.179 51.738 L 181.266 49.311 183.345 49.311 L 185.424 49.311 185.509 52.000 L 185.594 54.689 185.650 51.869 L 185.705 49.049 183.344 49.049 L 180.984 49.049 181.038 51.607 M298.828 49.242 C 299.517 49.297,300.579 49.296,301.188 49.241 C 301.797 49.186,301.233 49.141,299.934 49.142 C 298.636 49.143,298.138 49.188,298.828 49.242 M78.221 60.393 C 78.189 65.407,78.252 69.508,78.361 69.508 C 78.540 69.509,78.535 62.354,78.351 54.426 C 78.310 52.695,78.252 55.380,78.221 60.393 M64.912 73.967 C 64.912 85.869,64.944 90.738,64.984 84.787 C 65.023 78.836,65.023 69.098,64.984 63.148 C 64.944 57.197,64.912 62.066,64.912 73.967 M39.344 56.525 C 38.707 57.174,38.245 57.705,38.317 57.705 C 38.389 57.705,38.969 57.174,39.607 56.525 C 40.244 55.875,40.706 55.344,40.634 55.344 C 40.562 55.344,39.981 55.875,39.344 56.525 M218.689 56.316 C 219.013 56.379,219.544 56.379,219.869 56.316 C 220.193 56.254,219.928 56.203,219.279 56.203 C 218.630 56.203,218.364 56.254,218.689 56.316 M150.911 58.492 C 150.911 59.718,150.957 60.220,151.012 59.607 C 151.067 58.993,151.067 57.990,151.012 57.377 C 150.957 56.764,150.911 57.266,150.911 58.492 M318.256 58.492 C 318.256 59.718,318.301 60.220,318.356 59.607 C 318.411 58.993,318.411 57.990,318.356 57.377 C 318.301 56.764,318.256 57.266,318.256 58.492 M94.230 57.114 C 95.925 57.160,98.698 57.160,100.393 57.114 C 102.089 57.068,100.702 57.031,97.311 57.031 C 93.921 57.031,92.534 57.068,94.230 57.114 M237.180 61.033 C 237.433 61.099,237.846 61.099,238.098 61.033 C 238.351 60.967,238.144 60.913,237.639 60.913 C 237.134 60.913,236.928 60.967,237.180 61.033 M205.115 64.846 C 205.115 64.958,205.587 65.049,206.164 65.049 C 206.741 65.049,207.213 65.003,207.213 64.946 C 207.213 64.889,206.741 64.797,206.164 64.742 C 205.587 64.687,205.115 64.734,205.115 64.846 M84.266 73.893 C 84.665 73.953,85.255 73.952,85.577 73.890 C 85.900 73.827,85.574 73.778,84.852 73.780 C 84.131 73.782,83.867 73.833,84.266 73.893 M138.877 90.885 C 138.877 99.397,138.910 102.841,138.951 98.539 C 138.991 94.236,138.991 87.273,138.951 83.063 C 138.910 78.854,138.877 82.374,138.877 90.885 M154.090 90.885 C 154.090 99.397,154.123 102.841,154.164 98.539 C 154.204 94.236,154.204 87.273,154.164 83.063 C 154.123 78.854,154.090 82.374,154.090 90.885 M197.099 77.770 L 197.115 79.869 199.475 79.884 L 201.836 79.898 199.551 79.808 L 197.267 79.718 197.175 77.695 L 197.083 75.672 197.099 77.770 M163.082 79.927 C 163.551 79.986,164.318 79.986,164.787 79.927 C 165.256 79.869,164.872 79.822,163.934 79.822 C 162.997 79.822,162.613 79.869,163.082 79.927 M208.206 79.931 C 208.968 79.985,210.148 79.984,210.828 79.930 C 211.509 79.876,210.885 79.833,209.443 79.834 C 208.000 79.834,207.443 79.878,208.206 79.931 M219.607 79.926 C 220.003 79.986,220.652 79.986,221.049 79.926 C 221.446 79.865,221.121 79.816,220.328 79.816 C 219.534 79.816,219.210 79.865,219.607 79.926 M91.077 80.787 C 91.077 81.292,91.131 81.498,91.197 81.246 C 91.263 80.993,91.263 80.580,91.197 80.328 C 91.131 80.075,91.077 80.282,91.077 80.787 M78.280 88.918 C 78.280 93.318,78.316 95.118,78.360 92.918 C 78.404 90.718,78.404 87.118,78.360 84.918 C 78.316 82.718,78.280 84.518,78.280 88.918 M186.301 82.623 C 186.301 83.272,186.352 83.538,186.415 83.213 C 186.477 82.889,186.477 82.357,186.415 82.033 C 186.352 81.708,186.301 81.974,186.301 82.623 M231.199 90.885 C 231.199 95.646,231.235 97.630,231.278 95.295 C 231.322 92.960,231.322 89.065,231.278 86.640 C 231.235 84.214,231.199 86.125,231.199 90.885 M192.336 83.865 C 193.025 83.919,194.088 83.919,194.696 83.864 C 195.305 83.809,194.741 83.764,193.443 83.765 C 192.144 83.766,191.646 83.811,192.336 83.865 M191.727 90.557 C 192.814 91.715,193.049 91.924,193.049 91.727 C 193.049 91.685,192.489 91.124,191.803 90.481 L 190.557 89.311 191.727 90.557 M187.934 93.639 C 188.498 94.216,189.018 94.689,189.090 94.689 C 189.162 94.689,188.760 94.216,188.197 93.639 C 187.633 93.062,187.113 92.590,187.041 92.590 C 186.969 92.590,187.371 93.062,187.934 93.639 M275.344 93.562 C 275.669 93.625,276.200 93.625,276.525 93.562 C 276.849 93.500,276.584 93.448,275.934 93.448 C 275.285 93.448,275.020 93.500,275.344 93.562 M91.077 97.049 C 91.077 97.554,91.131 97.761,91.197 97.508 C 91.263 97.256,91.263 96.843,91.197 96.590 C 91.131 96.338,91.077 96.544,91.077 97.049 M104.454 97.049 C 104.454 97.554,104.508 97.761,104.574 97.508 C 104.640 97.256,104.640 96.843,104.574 96.590 C 104.508 96.338,104.454 96.544,104.454 97.049 M181.312 97.967 C 181.315 98.544,181.369 98.749,181.431 98.423 C 181.494 98.097,181.492 97.625,181.426 97.374 C 181.360 97.123,181.309 97.390,181.312 97.967 M82.560 115.071 C 82.887 115.133,83.359 115.131,83.610 115.065 C 83.860 115.000,83.593 114.948,83.016 114.951 C 82.439 114.954,82.234 115.008,82.560 115.071 M85.970 115.071 C 86.297 115.133,86.769 115.131,87.019 115.065 C 87.270 115.000,87.003 114.948,86.426 114.951 C 85.849 114.954,85.644 115.008,85.970 115.071 M144.648 136.262 C 144.648 144.774,144.681 148.218,144.721 143.916 C 144.762 139.614,144.762 132.650,144.721 128.440 C 144.681 124.231,144.648 127.751,144.648 136.262 M163.001 123.148 L 163.016 125.246 165.377 125.261 L 167.738 125.275 165.453 125.185 L 163.168 125.095 163.077 123.072 L 162.985 121.049 163.001 123.148 M184.779 136.262 C 184.779 144.774,184.812 148.218,184.852 143.916 C 184.893 139.614,184.893 132.650,184.852 128.440 C 184.812 124.231,184.779 127.751,184.779 136.262 M186.869 123.148 L 186.885 125.246 189.246 125.261 L 191.607 125.275 189.322 125.185 L 187.037 125.095 186.945 123.072 L 186.853 121.049 186.869 123.148 M208.383 133.115 C 208.383 139.895,208.417 142.706,208.459 139.362 C 208.500 136.018,208.500 130.471,208.459 127.034 C 208.417 123.598,208.383 126.334,208.383 133.115 M277.631 136.262 C 277.631 144.774,277.664 148.218,277.705 143.916 C 277.745 139.614,277.745 132.650,277.705 128.440 C 277.664 124.231,277.631 127.751,277.631 136.262 M174.107 125.308 C 174.869 125.362,176.050 125.361,176.730 125.307 C 177.411 125.253,176.787 125.210,175.344 125.211 C 173.902 125.211,173.345 125.255,174.107 125.308 M197.976 125.308 C 198.738 125.362,199.919 125.361,200.599 125.307 C 201.279 125.253,200.656 125.210,199.213 125.211 C 197.770 125.211,197.214 125.255,197.976 125.308 M221.058 125.308 C 221.820 125.362,223.001 125.361,223.681 125.307 C 224.361 125.253,223.738 125.210,222.295 125.211 C 220.852 125.211,220.296 125.255,221.058 125.308 M229.628 125.443 C 229.559 125.623,229.535 131.613,229.574 138.754 L 229.644 151.738 229.707 138.567 L 229.770 125.396 232.328 125.310 L 234.885 125.225 232.320 125.170 C 230.467 125.130,229.719 125.206,229.628 125.443 M152.197 127.869 C 152.200 128.446,152.254 128.651,152.317 128.325 C 152.379 127.999,152.377 127.526,152.311 127.276 C 152.246 127.025,152.194 127.292,152.197 127.869 M285.181 127.869 C 285.184 128.446,285.238 128.651,285.300 128.325 C 285.363 127.999,285.361 127.526,285.295 127.276 C 285.229 127.025,285.178 127.292,285.181 127.869 M259.266 136.262 C 259.266 141.311,259.301 143.340,259.344 140.770 C 259.387 138.200,259.387 134.069,259.344 131.590 C 259.301 129.110,259.266 131.213,259.266 136.262 M158.237 129.242 C 158.927 129.297,159.989 129.296,160.598 129.241 C 161.207 129.186,160.643 129.141,159.344 129.142 C 158.046 129.143,157.548 129.188,158.237 129.242 M291.221 129.242 C 291.911 129.297,292.973 129.296,293.582 129.241 C 294.190 129.186,293.626 129.141,292.328 129.142 C 291.030 129.143,290.531 129.188,291.221 129.242 M133.508 140.590 C 133.508 146.697,133.565 151.637,133.634 151.568 C 133.809 151.393,133.826 129.804,133.651 129.629 C 133.572 129.550,133.508 134.483,133.508 140.590 M266.552 140.603 L 266.611 151.738 266.748 140.852 C 266.824 134.866,266.797 129.855,266.689 129.718 C 266.580 129.581,266.519 134.479,266.552 140.603 M157.628 135.934 C 158.272 136.620,158.832 137.180,158.874 137.180 C 159.071 137.180,158.863 136.945,157.705 135.858 L 156.459 134.689 157.628 135.934 M290.612 135.934 C 291.699 137.093,291.934 137.301,291.934 137.104 C 291.934 137.062,291.374 136.501,290.689 135.858 L 289.443 134.689 290.612 135.934 M153.694 138.820 C 154.337 139.505,154.898 140.066,154.940 140.066 C 155.137 140.066,154.929 139.830,153.770 138.743 L 152.525 137.574 153.694 138.820 M286.820 139.016 C 287.383 139.593,287.903 140.066,287.975 140.066 C 288.047 140.066,287.645 139.593,287.082 139.016 C 286.518 138.439,285.998 137.967,285.926 137.967 C 285.854 137.967,286.256 138.439,286.820 139.016 M275.672 178.705 C 275.672 178.750,276.056 179.134,276.525 179.557 L 277.377 180.328 276.607 179.475 C 275.889 178.681,275.672 178.502,275.672 178.705 M259.733 195.672 C 259.733 196.177,259.787 196.384,259.853 196.131 C 259.919 195.879,259.919 195.466,259.853 195.213 C 259.787 194.961,259.733 195.167,259.733 195.672 M269.452 197.377 C 269.454 198.098,269.505 198.362,269.565 197.964 C 269.626 197.565,269.624 196.975,269.562 196.652 C 269.499 196.330,269.450 196.656,269.452 197.377 M278.676 198.885 L 277.639 200.000 278.754 198.963 C 279.791 197.999,279.989 197.770,279.791 197.770 C 279.748 197.770,279.246 198.272,278.676 198.885 M251.738 208.185 C 252.062 208.248,252.593 208.248,252.918 208.185 C 253.243 208.123,252.977 208.071,252.328 208.071 C 251.679 208.071,251.413 208.123,251.738 208.185 M286.951 208.869 C 286.951 208.914,287.334 209.298,287.803 209.721 L 288.656 210.492 287.885 209.639 C 287.167 208.845,286.951 208.666,286.951 208.869 M259.148 211.279 C 259.637 211.784,260.096 212.197,260.168 212.197 C 260.241 212.197,259.899 211.784,259.410 211.279 C 258.920 210.774,258.461 210.361,258.389 210.361 C 258.317 210.361,258.658 210.774,259.148 211.279 M183.869 217.049 C 185.089 218.275,186.146 219.279,186.218 219.279 C 186.290 219.279,185.351 218.275,184.131 217.049 C 182.911 215.823,181.854 214.820,181.782 214.820 C 181.710 214.820,182.649 215.823,183.869 217.049 M268.131 222.869 C 268.384 222.935,268.797 222.935,269.049 222.869 C 269.302 222.803,269.095 222.749,268.590 222.749 C 268.085 222.749,267.879 222.803,268.131 222.869 M266.033 223.869 C 266.036 224.446,266.090 224.651,266.153 224.325 C 266.215 223.999,266.213 223.526,266.147 223.276 C 266.082 223.025,266.030 223.292,266.033 223.869 M140.393 277.427 C 140.646 277.493,141.059 277.493,141.311 277.427 C 141.564 277.361,141.357 277.307,140.852 277.307 C 140.348 277.307,140.141 277.361,140.393 277.427 M191.937 296.841 C 192.264 296.904,192.736 296.902,192.987 296.836 C 193.237 296.770,192.970 296.719,192.393 296.722 C 191.816 296.725,191.611 296.779,191.937 296.841 M187.134 305.574 C 187.134 310.407,187.169 312.384,187.213 309.967 C 187.256 307.551,187.256 303.597,187.213 301.180 C 187.169 298.764,187.134 300.741,187.134 305.574 M259.757 300.787 C 264.203 300.827,271.403 300.827,275.757 300.787 C 280.110 300.746,276.472 300.713,267.672 300.713 C 258.872 300.713,255.310 300.746,259.757 300.787 M249.240 307.850 C 249.186 312.390,249.136 312.891,248.721 313.000 C 248.291 313.112,248.292 313.121,248.730 313.150 C 249.428 313.195,249.461 312.914,249.377 307.664 L 249.299 302.820 249.240 307.850 M128.852 313.109 C 129.393 313.166,130.279 313.166,130.820 313.109 C 131.361 313.053,130.918 313.006,129.836 313.006 C 128.754 313.006,128.311 313.053,128.852 313.109 M141.056 313.373 C 141.673 313.428,142.617 313.427,143.154 313.371 C 143.692 313.315,143.187 313.269,142.033 313.270 C 140.879 313.271,140.439 313.317,141.056 313.373 M153.122 313.635 C 153.739 313.690,154.683 313.690,155.220 313.633 C 155.757 313.577,155.252 313.532,154.098 313.533 C 152.944 313.533,152.505 313.580,153.122 313.635 M165.311 313.896 C 165.852 313.953,166.738 313.953,167.279 313.896 C 167.820 313.839,167.377 313.793,166.295 313.793 C 165.213 313.793,164.770 313.839,165.311 313.896 M177.515 314.160 C 178.132 314.215,179.076 314.214,179.613 314.158 C 180.151 314.102,179.646 314.056,178.492 314.057 C 177.338 314.058,176.898 314.104,177.515 314.160 M189.180 314.421 C 189.721 314.477,190.607 314.477,191.148 314.421 C 191.689 314.364,191.246 314.318,190.164 314.318 C 189.082 314.318,188.639 314.364,189.180 314.421 M200.584 314.681 C 201.050 314.739,201.876 314.740,202.420 314.683 C 202.965 314.626,202.584 314.579,201.574 314.578 C 200.564 314.577,200.119 314.623,200.584 314.681 M212.000 314.945 C 212.541 315.002,213.426 315.002,213.967 314.945 C 214.508 314.889,214.066 314.842,212.984 314.842 C 211.902 314.842,211.459 314.889,212.000 314.945 M223.541 315.207 C 224.082 315.264,224.967 315.264,225.508 315.207 C 226.049 315.151,225.607 315.105,224.525 315.105 C 223.443 315.105,223.000 315.151,223.541 315.207 M219.869 323.076 C 220.410 323.133,221.295 323.133,221.836 323.076 C 222.377 323.020,221.934 322.973,220.852 322.973 C 219.770 322.973,219.328 323.020,219.869 323.076 M208.066 323.339 C 208.607 323.395,209.492 323.395,210.033 323.339 C 210.574 323.282,210.131 323.236,209.049 323.236 C 207.967 323.236,207.525 323.282,208.066 323.339 M196.262 323.601 C 196.803 323.657,197.689 323.657,198.230 323.601 C 198.770 323.544,198.328 323.498,197.246 323.498 C 196.164 323.498,195.721 323.544,196.262 323.601 M184.459 323.863 C 185.000 323.920,185.885 323.920,186.426 323.863 C 186.967 323.807,186.525 323.760,185.443 323.760 C 184.361 323.760,183.918 323.807,184.459 323.863 M172.656 324.125 C 173.197 324.182,174.082 324.182,174.623 324.125 C 175.164 324.069,174.721 324.023,173.639 324.023 C 172.557 324.023,172.115 324.069,172.656 324.125 M160.728 324.389 C 161.345 324.445,162.289 324.444,162.827 324.387 C 163.364 324.331,162.859 324.286,161.705 324.287 C 160.551 324.288,160.111 324.334,160.728 324.389 M148.787 324.650 C 149.328 324.707,150.213 324.707,150.754 324.650 C 151.295 324.594,150.852 324.547,149.770 324.547 C 148.689 324.547,148.246 324.594,148.787 324.650 M136.984 324.912 C 137.525 324.969,138.410 324.969,138.951 324.912 C 139.492 324.856,139.049 324.809,137.967 324.809 C 136.885 324.809,136.443 324.856,136.984 324.912 M125.967 325.171 C 126.364 325.232,127.013 325.232,127.410 325.171 C 127.807 325.111,127.482 325.062,126.689 325.062 C 125.895 325.062,125.570 325.111,125.967 325.171 M249.290 330.230 C 249.290 333.043,249.329 334.193,249.376 332.787 C 249.423 331.380,249.423 329.079,249.376 327.672 C 249.329 326.266,249.290 327.416,249.290 330.230 " stroke="none" fill="#7cb4cc" fill-rule="evenodd"></path><path id="path4" d="M188.451 45.246 C 188.451 53.757,188.484 57.201,188.524 52.899 C 188.565 48.597,188.565 41.633,188.524 37.424 C 188.484 33.215,188.451 36.734,188.451 45.246 M222.547 41.705 C 222.547 48.269,222.581 50.954,222.623 47.672 C 222.664 44.390,222.664 39.020,222.623 35.738 C 222.581 32.456,222.547 35.141,222.547 41.705 M262.913 32.131 C 262.912 33.430,262.956 33.994,263.011 33.385 C 263.066 32.776,263.067 31.714,263.013 31.024 C 262.959 30.335,262.914 30.833,262.913 32.131 M193.418 38.557 C 193.418 40.938,193.458 41.911,193.507 40.721 C 193.555 39.531,193.555 37.584,193.507 36.393 C 193.458 35.203,193.418 36.177,193.418 38.557 M130.459 39.475 C 130.459 41.062,130.503 41.678,130.555 40.843 C 130.607 40.008,130.607 38.710,130.554 37.958 C 130.501 37.206,130.458 37.889,130.459 39.475 M135.437 39.475 C 135.437 40.774,135.481 41.338,135.536 40.729 C 135.591 40.120,135.592 39.058,135.537 38.369 C 135.483 37.679,135.438 38.177,135.437 39.475 M84.397 43.989 C 84.723 44.052,85.195 44.049,85.446 43.983 C 85.696 43.918,85.430 43.867,84.852 43.869 C 84.275 43.872,84.070 43.926,84.397 43.989 M257.049 44.148 C 257.049 44.193,257.433 44.576,257.902 45.000 L 258.754 45.770 257.984 44.918 C 257.266 44.123,257.049 43.945,257.049 44.148 M193.419 51.672 C 193.419 54.197,193.459 55.230,193.507 53.967 C 193.555 52.705,193.555 50.639,193.507 49.377 C 193.459 48.115,193.419 49.148,193.419 51.672 M159.672 50.815 C 160.285 50.870,161.289 50.870,161.902 50.815 C 162.515 50.760,162.013 50.715,160.787 50.715 C 159.561 50.715,159.059 50.760,159.672 50.815 M248.467 51.341 C 249.157 51.395,250.219 51.394,250.828 51.339 C 251.436 51.284,250.872 51.240,249.574 51.241 C 248.275 51.241,247.777 51.286,248.467 51.341 M42.606 53.311 L 41.836 54.164 42.689 53.394 C 43.483 52.675,43.662 52.459,43.459 52.459 C 43.414 52.459,43.030 52.843,42.606 53.311 M218.060 58.361 C 218.060 59.659,218.104 60.223,218.159 59.614 C 218.214 59.006,218.215 57.943,218.160 57.254 C 218.106 56.564,218.061 57.062,218.060 58.361 M35.791 60.393 L 34.754 61.508 35.869 60.471 C 36.482 59.901,36.984 59.399,36.984 59.357 C 36.984 59.158,36.755 59.357,35.791 60.393 M98.885 65.918 C 98.885 65.963,99.269 66.347,99.738 66.771 L 100.590 67.541 99.820 66.689 C 99.102 65.894,98.885 65.716,98.885 65.918 M212.028 77.770 C 212.027 79.069,212.071 79.633,212.126 79.024 C 212.181 78.416,212.182 77.353,212.128 76.664 C 212.073 75.974,212.028 76.472,212.028 77.770 M248.779 90.885 C 248.779 99.397,248.812 102.841,248.852 98.539 C 248.893 94.236,248.893 87.273,248.852 83.063 C 248.812 78.854,248.779 82.374,248.779 90.885 M259.614 84.091 C 259.574 88.794,259.628 92.777,259.734 92.944 C 259.840 93.110,259.928 89.262,259.930 84.393 C 259.933 79.525,259.879 75.541,259.810 75.541 C 259.742 75.541,259.654 79.389,259.614 84.091 M264.254 90.885 C 264.254 99.397,264.287 102.841,264.328 98.539 C 264.368 94.236,264.368 87.273,264.328 83.063 C 264.287 78.854,264.254 82.374,264.254 90.885 M191.022 82.885 C 191.022 83.534,191.073 83.800,191.136 83.475 C 191.198 83.151,191.198 82.620,191.136 82.295 C 191.073 81.970,191.022 82.236,191.022 82.885 M245.889 90.885 C 245.889 95.934,245.924 97.963,245.967 95.393 C 246.010 92.823,246.010 88.692,245.967 86.213 C 245.924 83.733,245.888 85.836,245.889 90.885 M195.738 83.016 C 195.741 83.593,195.795 83.799,195.858 83.472 C 195.920 83.146,195.918 82.674,195.852 82.423 C 195.787 82.172,195.735 82.439,195.738 83.016 M189.115 88.000 C 189.604 88.505,190.064 88.918,190.136 88.918 C 190.208 88.918,189.866 88.505,189.377 88.000 C 188.888 87.495,188.428 87.082,188.356 87.082 C 188.284 87.082,188.625 87.495,189.115 88.000 M276.535 89.113 C 277.515 89.163,279.050 89.163,279.945 89.112 C 280.841 89.061,280.039 89.019,278.164 89.020 C 276.289 89.020,275.556 89.062,276.535 89.113 M185.180 91.148 C 185.670 91.652,186.129 92.066,186.201 92.066 C 186.273 92.066,185.932 91.652,185.443 91.148 C 184.953 90.643,184.494 90.230,184.422 90.230 C 184.350 90.230,184.691 90.643,185.180 91.148 M128.000 96.262 L 125.770 96.427 128.066 96.476 C 129.453 96.505,130.361 96.421,130.361 96.262 C 130.361 96.118,130.331 96.022,130.295 96.049 C 130.259 96.076,129.226 96.172,128.000 96.262 M182.361 96.980 C 183.046 97.034,184.167 97.034,184.852 96.980 C 185.538 96.926,184.977 96.881,183.607 96.881 C 182.236 96.881,181.675 96.926,182.361 96.980 M223.579 100.590 C 223.579 102.610,223.620 103.401,223.670 102.349 C 223.720 101.297,223.720 99.645,223.670 98.677 C 223.619 97.710,223.578 98.570,223.579 100.590 M228.562 100.459 C 228.562 102.407,228.603 103.203,228.654 102.230 C 228.704 101.256,228.704 99.662,228.654 98.689 C 228.603 97.715,228.562 98.511,228.562 100.459 M46.885 114.294 C 48.797 114.339,51.925 114.339,53.836 114.294 C 55.748 114.250,54.184 114.213,50.361 114.213 C 46.538 114.213,44.974 114.250,46.885 114.294 M177.929 123.148 C 177.928 124.446,177.973 125.010,178.028 124.401 C 178.083 123.793,178.083 122.730,178.029 122.041 C 177.975 121.351,177.930 121.849,177.929 123.148 M201.798 123.148 C 201.797 124.446,201.842 125.010,201.897 124.401 C 201.952 123.793,201.952 122.730,201.898 122.041 C 201.844 121.351,201.799 121.849,201.798 123.148 M156.919 128.131 C 156.922 128.708,156.975 128.913,157.038 128.587 C 157.101 128.261,157.098 127.789,157.033 127.538 C 156.967 127.287,156.916 127.554,156.919 128.131 M161.645 128.262 C 161.645 128.911,161.696 129.177,161.759 128.852 C 161.821 128.528,161.821 127.997,161.759 127.672 C 161.696 127.348,161.645 127.613,161.645 128.262 M289.908 128.262 C 289.908 128.911,289.959 129.177,290.021 128.852 C 290.084 128.528,290.084 127.997,290.021 127.672 C 289.959 127.348,289.908 127.613,289.908 128.262 M249.560 136.262 C 249.560 141.167,249.596 143.137,249.639 140.639 C 249.682 138.141,249.682 134.128,249.639 131.721 C 249.596 129.314,249.560 131.357,249.560 136.262 M294.624 128.393 C 294.626 128.970,294.680 129.176,294.743 128.849 C 294.806 128.523,294.803 128.051,294.738 127.800 C 294.672 127.549,294.621 127.816,294.624 128.393 M244.576 136.262 C 244.576 141.023,244.612 143.007,244.655 140.672 C 244.699 138.337,244.699 134.442,244.655 132.017 C 244.612 129.591,244.577 131.502,244.576 136.262 M287.475 132.803 C 287.475 132.849,287.859 133.232,288.328 133.656 L 289.180 134.426 288.410 133.574 C 287.692 132.779,287.475 132.601,287.475 132.803 M151.082 136.525 C 151.571 137.030,152.031 137.443,152.103 137.443 C 152.175 137.443,151.834 137.030,151.344 136.525 C 150.855 136.020,150.395 135.607,150.323 135.607 C 150.251 135.607,150.593 136.020,151.082 136.525 M284.066 136.525 C 284.555 137.030,285.014 137.443,285.087 137.443 C 285.159 137.443,284.817 137.030,284.328 136.525 C 283.838 136.020,283.379 135.607,283.307 135.607 C 283.235 135.607,283.576 136.020,284.066 136.525 M148.533 142.357 C 149.222 142.411,150.284 142.411,150.893 142.356 C 151.502 142.301,150.938 142.256,149.639 142.257 C 148.341 142.258,147.843 142.303,148.533 142.357 M281.246 142.357 C 281.931 142.411,283.052 142.411,283.738 142.357 C 284.423 142.303,283.862 142.258,282.492 142.258 C 281.121 142.258,280.561 142.303,281.246 142.357 M285.443 187.934 C 285.446 188.511,285.500 188.717,285.563 188.390 C 285.625 188.064,285.623 187.592,285.557 187.341 C 285.492 187.090,285.440 187.357,285.443 187.934 M139.745 197.176 C 140.362 197.231,141.306 197.231,141.843 197.174 C 142.380 197.118,141.875 197.073,140.721 197.074 C 139.567 197.074,139.128 197.121,139.745 197.176 M275.793 198.885 L 274.492 200.262 275.869 198.961 C 276.626 198.245,277.246 197.625,277.246 197.584 C 277.246 197.388,277.003 197.606,275.793 198.885 M274.623 211.803 C 275.112 212.308,275.572 212.721,275.644 212.721 C 275.716 212.721,275.375 212.308,274.885 211.803 C 274.396 211.298,273.936 210.885,273.864 210.885 C 273.792 210.885,274.134 211.298,274.623 211.803 M262.295 214.426 C 263.224 215.364,264.044 216.131,264.116 216.131 C 264.188 216.131,263.487 215.364,262.557 214.426 C 261.628 213.489,260.809 212.721,260.736 212.721 C 260.664 212.721,261.366 213.489,262.295 214.426 M130.383 275.766 C 130.443 275.818,130.846 275.940,131.279 276.037 C 131.853 276.165,131.959 276.141,131.672 275.946 C 131.318 275.707,130.119 275.539,130.383 275.766 M182.150 305.311 C 182.150 310.144,182.186 312.121,182.229 309.705 C 182.272 307.289,182.272 303.334,182.229 300.918 C 182.186 298.502,182.150 300.479,182.150 305.311 M133.840 313.106 C 134.238 313.167,134.829 313.165,135.151 313.103 C 135.474 313.040,135.148 312.991,134.426 312.993 C 133.705 312.995,133.441 313.046,133.840 313.106 M146.033 313.365 C 146.357 313.428,146.889 313.428,147.213 313.365 C 147.538 313.303,147.272 313.252,146.623 313.252 C 145.974 313.252,145.708 313.303,146.033 313.365 M158.098 313.628 C 158.423 313.690,158.954 313.690,159.279 313.628 C 159.603 313.565,159.338 313.514,158.689 313.514 C 158.039 313.514,157.774 313.565,158.098 313.628 M170.426 313.890 C 170.751 313.953,171.282 313.953,171.607 313.890 C 171.931 313.828,171.666 313.776,171.016 313.776 C 170.367 313.776,170.102 313.828,170.426 313.890 M205.311 314.677 C 205.636 314.739,206.167 314.739,206.492 314.677 C 206.816 314.614,206.551 314.563,205.902 314.563 C 205.252 314.563,204.987 314.614,205.311 314.677 M216.852 314.939 C 217.177 315.002,217.708 315.002,218.033 314.939 C 218.357 314.877,218.092 314.826,217.443 314.826 C 216.793 314.826,216.528 314.877,216.852 314.939 M224.721 323.070 C 225.046 323.133,225.577 323.133,225.902 323.070 C 226.226 323.008,225.961 322.957,225.311 322.957 C 224.662 322.957,224.397 323.008,224.721 323.070 M212.918 323.333 C 213.243 323.395,213.774 323.395,214.098 323.333 C 214.423 323.270,214.157 323.219,213.508 323.219 C 212.859 323.219,212.593 323.270,212.918 323.333 M201.115 323.595 C 201.439 323.657,201.970 323.657,202.295 323.595 C 202.620 323.532,202.354 323.481,201.705 323.481 C 201.056 323.481,200.790 323.532,201.115 323.595 M189.311 323.857 C 189.636 323.920,190.167 323.920,190.492 323.857 C 190.816 323.795,190.551 323.744,189.902 323.744 C 189.252 323.744,188.987 323.795,189.311 323.857 M177.508 324.120 C 177.833 324.182,178.364 324.182,178.689 324.120 C 179.013 324.057,178.748 324.006,178.098 324.006 C 177.449 324.006,177.184 324.057,177.508 324.120 M165.705 324.382 C 166.030 324.444,166.561 324.444,166.885 324.382 C 167.210 324.319,166.944 324.268,166.295 324.268 C 165.646 324.268,165.380 324.319,165.705 324.382 M153.774 324.647 C 154.173 324.708,154.763 324.706,155.086 324.644 C 155.408 324.581,155.082 324.532,154.361 324.534 C 153.639 324.536,153.375 324.587,153.774 324.647 M141.836 324.906 C 142.161 324.969,142.692 324.969,143.016 324.906 C 143.341 324.844,143.075 324.793,142.426 324.793 C 141.777 324.793,141.511 324.844,141.836 324.906 M130.033 325.169 C 130.357 325.231,130.889 325.231,131.213 325.169 C 131.538 325.106,131.272 325.055,130.623 325.055 C 129.974 325.055,129.708 325.106,130.033 325.169 M259.757 337.508 C 264.203 337.548,271.403 337.548,275.757 337.508 C 280.110 337.468,276.472 337.435,267.672 337.435 C 258.872 337.435,255.310 337.468,259.757 337.508 M258.970 350.361 C 263.849 350.401,271.758 350.401,276.544 350.361 C 281.330 350.321,277.338 350.288,267.672 350.288 C 258.007 350.288,254.091 350.321,258.970 350.361 " stroke="none" fill="#3689b4" fill-rule="evenodd"></path></g></svg>