<svg id="svg" version="1.1" xmlns="http://www.w3.org/2000/svg" xmlns:xlink="http://www.w3.org/1999/xlink" width="400" height="400" viewBox="0, 0, 400,400"><g id="svgg"><path id="path0" d="M56.771 35.791 C 47.669 37.696,44.531 42.805,44.531 55.718 L 44.531 61.979 50.504 61.979 L 56.476 61.979 56.558 55.794 C 56.663 47.924,57.124 46.791,60.498 46.113 C 65.785 45.050,67.374 49.072,66.457 61.198 C 66.004 67.186,65.370 68.286,57.685 76.432 C 44.900 89.985,44.271 91.404,44.271 106.688 L 44.271 115.365 61.458 115.365 L 78.646 115.365 78.646 110.026 L 78.646 104.688 67.672 104.688 L 56.698 104.687 56.833 101.107 C 57.066 94.922,57.666 93.842,65.463 85.588 C 78.962 71.298,79.297 70.584,79.297 56.120 C 79.297 43.843,77.864 40.075,72.135 37.292 C 68.636 35.592,61.196 34.865,56.771 35.791 M175.627 37.068 C 172.976 37.745,171.207 39.434,170.440 42.017 C 169.863 43.960,169.871 63.357,170.449 65.306 C 172.514 72.258,183.716 72.425,186.119 65.539 C 186.827 63.508,186.832 43.796,186.124 41.768 C 184.787 37.938,180.221 35.893,175.627 37.068 M118.229 39.453 L 118.229 41.667 122.101 41.667 L 125.973 41.667 121.585 53.711 L 117.197 65.755 117.192 68.034 L 117.188 70.313 124.349 70.313 L 131.510 70.313 131.510 68.099 L 131.510 65.885 127.359 65.885 C 125.076 65.885,123.162 65.798,123.106 65.690 C 123.050 65.583,124.970 60.163,127.373 53.646 L 131.742 41.797 131.756 39.518 L 131.771 37.240 125.000 37.240 L 118.229 37.240 118.229 39.453 M134.896 53.776 L 134.896 70.313 141.406 70.313 L 147.917 70.313 147.917 68.099 L 147.917 65.885 144.141 65.885 L 140.365 65.885 140.365 60.677 L 140.365 55.469 143.099 55.469 L 145.833 55.469 145.833 53.385 L 145.833 51.302 143.099 51.302 L 140.365 51.302 140.365 46.484 L 140.365 41.667 144.141 41.667 L 147.917 41.667 147.917 39.453 L 147.917 37.240 141.406 37.240 L 134.896 37.240 134.896 53.776 M151.042 53.758 L 151.042 70.313 153.776 70.313 L 156.510 70.313 156.510 62.839 C 156.510 58.628,156.609 55.473,156.735 55.612 C 156.859 55.748,158.051 59.064,159.384 62.981 C 160.716 66.898,161.942 70.154,162.106 70.217 C 162.270 70.280,163.583 70.298,165.022 70.257 L 167.639 70.182 165.069 62.922 C 162.064 54.428,162.228 55.353,163.615 54.739 C 166.146 53.620,166.663 52.226,166.665 46.515 C 166.668 38.360,165.652 37.418,156.706 37.286 L 151.042 37.203 151.042 53.758 M179.917 41.831 C 181.187 42.720,181.250 43.284,181.244 53.703 C 181.239 62.642,181.200 63.497,180.749 64.490 C 179.598 67.025,176.162 66.463,175.505 63.632 C 175.157 62.132,175.198 45.008,175.553 43.598 C 176.055 41.606,178.299 40.697,179.917 41.831 M160.453 42.164 C 161.083 42.674,161.535 48.620,161.081 50.429 C 160.843 51.379,159.482 52.081,157.878 52.082 L 156.510 52.083 156.510 46.875 L 156.510 41.667 158.174 41.667 C 159.424 41.667,159.991 41.791,160.453 42.164 M181.173 83.695 C 178.451 84.704,176.834 86.736,176.293 89.828 C 175.765 92.848,176.072 110.727,176.682 112.448 C 178.586 117.823,185.956 118.784,188.067 113.932 C 188.396 113.178,188.410 113.211,188.486 114.909 L 188.565 116.667 190.376 116.667 L 192.188 116.667 192.188 107.943 L 192.188 99.219 188.281 99.219 L 184.375 99.219 184.375 101.302 L 184.375 103.385 185.807 103.385 L 187.240 103.385 187.238 106.445 C 187.236 111.096,186.577 112.500,184.398 112.500 C 181.658 112.500,181.510 111.867,181.510 100.130 C 181.510 89.295,181.558 88.934,183.095 88.140 C 185.580 86.855,187.077 88.144,187.199 91.673 L 187.288 94.271 189.738 94.271 L 192.188 94.271 192.188 91.546 C 192.188 87.398,191.198 85.338,188.542 83.960 C 187.325 83.329,182.616 83.160,181.173 83.695 M117.708 100.130 L 117.708 116.667 120.443 116.667 L 123.177 116.667 123.177 109.375 L 123.177 102.083 125.911 102.083 L 128.646 102.083 128.646 109.375 L 128.646 116.667 131.380 116.667 L 134.115 116.667 134.115 100.130 L 134.115 83.594 131.380 83.594 L 128.646 83.594 128.646 90.625 L 128.646 97.656 125.911 97.656 L 123.177 97.656 123.177 90.625 L 123.177 83.594 120.443 83.594 L 117.708 83.594 117.708 100.130 M137.500 97.218 C 137.500 112.474,137.523 112.701,139.255 114.618 C 142.319 118.009,149.650 117.849,152.016 114.338 C 153.345 112.365,153.385 111.864,153.385 97.218 L 153.385 83.594 150.911 83.594 L 148.438 83.594 148.438 96.836 C 148.438 105.856,148.345 110.343,148.149 110.907 C 147.562 112.591,145.055 113.063,143.730 111.739 L 142.969 110.978 142.969 97.286 L 142.969 83.594 140.234 83.594 L 137.500 83.594 137.500 97.218 M156.771 100.130 L 156.771 116.667 159.112 116.667 L 161.452 116.667 161.520 106.500 L 161.589 96.333 163.365 102.008 C 164.342 105.129,165.783 109.704,166.568 112.174 L 167.995 116.667 170.326 116.667 L 172.656 116.667 172.656 100.130 L 172.656 83.594 170.446 83.594 L 168.236 83.594 168.167 93.028 L 168.099 102.462 165.123 93.028 L 162.146 83.594 159.459 83.594 L 156.771 83.594 156.771 100.130 M195.573 100.130 L 195.573 116.667 202.214 116.667 L 208.854 116.667 208.854 114.453 L 208.854 112.240 204.948 112.240 L 201.042 112.240 201.042 107.161 L 201.042 102.083 203.776 102.083 L 206.510 102.083 206.510 99.870 L 206.510 97.656 203.776 97.656 L 201.042 97.656 201.042 92.839 L 201.042 88.021 204.948 88.021 L 208.854 88.021 208.854 85.807 L 208.854 83.594 202.214 83.594 L 195.573 83.594 195.573 100.130 M211.979 100.104 L 211.979 116.667 214.710 116.667 L 217.440 116.667 217.509 109.257 L 217.578 101.847 220.084 109.192 L 222.591 116.536 225.488 116.610 C 227.082 116.651,228.385 116.638,228.385 116.582 C 228.385 116.526,227.210 113.166,225.773 109.116 C 224.336 105.067,223.193 101.730,223.234 101.703 C 223.274 101.675,223.693 101.499,224.164 101.311 C 226.969 100.194,227.474 98.961,227.474 93.229 C 227.474 84.800,226.429 83.806,217.383 83.640 L 211.979 83.541 211.979 100.104 M220.818 88.404 C 221.850 88.937,222.135 89.994,222.135 93.276 C 222.135 97.608,221.615 98.438,218.897 98.438 L 217.448 98.438 217.448 93.229 L 217.448 88.021 218.763 88.021 C 219.486 88.021,220.411 88.193,220.818 88.404 M151.909 165.339 C 149.125 166.053,147.430 168.108,144.263 174.609 C 135.692 192.199,137.189 208.316,148.581 221.094 C 155.604 228.972,158.148 237.707,155.577 245.117 L 154.786 247.396 161.492 247.396 C 165.181 247.396,168.253 247.307,168.320 247.198 C 168.639 246.682,169.316 242.586,169.453 240.344 C 169.971 231.834,166.668 223.447,159.515 215.112 C 149.572 203.525,149.314 189.432,158.769 174.263 C 161.979 169.113,157.897 163.802,151.909 165.339 M192.793 165.463 C 189.644 166.493,186.777 170.641,183.501 178.906 C 177.256 194.662,179.243 208.878,189.323 220.573 C 196.886 229.347,199.292 237.204,196.779 244.922 C 196.406 246.068,196.099 247.093,196.097 247.201 C 196.095 247.308,199.126 247.396,202.832 247.396 L 209.571 247.396 210.059 244.987 C 212.162 234.605,208.952 224.646,200.260 214.583 C 190.812 203.647,190.638 189.678,199.762 174.572 C 201.335 171.967,201.604 170.658,200.929 168.889 C 199.864 166.102,195.919 164.441,192.793 165.463 M234.065 165.454 C 231.359 166.214,229.751 168.158,226.689 174.369 C 218.083 191.823,219.472 207.877,230.708 220.833 C 238.651 229.993,240.496 237.188,237.369 246.810 L 237.179 247.396 243.947 247.396 L 250.716 247.396 250.897 246.549 C 253.421 234.763,250.601 225.158,241.559 214.744 C 231.952 203.679,231.753 189.939,240.976 174.487 C 244.326 168.874,240.356 163.686,234.065 165.454 M89.518 256.531 C 88.743 256.983,88.244 258.249,88.420 259.317 C 94.084 293.687,119.466 322.875,154.948 335.820 C 157.025 336.578,159.046 337.279,159.440 337.377 L 160.156 337.556 160.156 340.484 C 160.156 343.736,160.416 344.821,161.338 345.426 C 162.100 345.925,228.255 346.061,229.181 345.565 C 230.207 345.016,230.469 343.967,230.469 340.406 L 230.469 337.037 233.138 336.068 C 268.407 323.270,293.512 295.221,299.982 261.383 C 300.572 258.301,300.399 257.142,299.258 256.531 C 298.539 256.147,90.178 256.147,89.518 256.531 " stroke="none" fill="#fcfcfc" fill-rule="evenodd"></path><path id="path1" d="M60.872 35.348 C 61.624 35.401,62.855 35.401,63.607 35.348 C 64.359 35.296,63.743 35.253,62.240 35.253 C 60.736 35.253,60.120 35.296,60.872 35.348 M118.022 39.388 L 118.076 41.797 118.163 39.523 L 118.249 37.248 125.075 37.174 L 131.901 37.100 124.935 37.040 L 117.969 36.979 118.022 39.388 M134.699 53.707 L 134.762 70.443 134.831 53.841 L 134.900 37.240 141.398 37.240 L 147.896 37.240 147.989 39.518 L 148.081 41.797 148.064 39.453 L 148.047 37.109 141.341 37.040 L 134.635 36.970 134.699 53.707 M153.464 37.173 C 154.868 37.220,157.095 37.220,158.412 37.173 C 159.729 37.126,158.581 37.087,155.859 37.088 C 153.138 37.088,152.060 37.127,153.464 37.173 M48.551 39.909 L 47.786 40.755 48.633 39.990 C 49.422 39.277,49.599 39.063,49.398 39.063 C 49.353 39.063,48.972 39.443,48.551 39.909 M156.570 46.810 L 156.510 52.083 158.008 52.035 L 159.505 51.987 158.143 51.892 L 156.782 51.796 156.705 46.666 L 156.629 41.536 156.570 46.810 M166.770 46.615 C 166.770 48.691,166.811 49.541,166.860 48.503 C 166.909 47.464,166.909 45.765,166.860 44.727 C 166.811 43.688,166.770 44.538,166.770 46.615 M169.910 53.646 C 169.910 59.160,169.944 61.416,169.987 58.659 C 170.029 55.902,170.029 51.390,169.987 48.633 C 169.944 45.876,169.910 48.132,169.910 53.646 M181.108 53.646 C 181.108 59.160,181.142 61.416,181.185 58.659 C 181.227 55.902,181.227 51.390,181.185 48.633 C 181.142 45.876,181.108 48.132,181.108 53.646 M175.378 53.646 C 175.378 58.874,175.413 61.012,175.455 58.398 C 175.498 55.785,175.498 51.507,175.455 48.893 C 175.413 46.279,175.378 48.418,175.378 53.646 M44.331 56.185 L 44.271 62.240 50.456 62.180 L 56.641 62.119 50.591 62.045 L 44.541 61.970 44.466 56.050 L 44.391 50.130 44.331 56.185 M141.741 51.234 C 142.570 51.286,143.859 51.286,144.606 51.233 C 145.353 51.181,144.674 51.138,143.099 51.139 C 141.523 51.140,140.912 51.183,141.741 51.234 M66.513 55.599 C 66.513 58.034,66.552 59.065,66.600 57.890 C 66.648 56.716,66.648 54.724,66.600 53.463 C 66.552 52.203,66.513 53.164,66.513 55.599 M141.741 55.661 C 142.570 55.713,143.859 55.713,144.606 55.660 C 145.353 55.608,144.674 55.566,143.099 55.566 C 141.523 55.567,140.912 55.610,141.741 55.661 M156.510 62.891 C 156.510 67.020,156.566 70.344,156.633 70.277 C 156.809 70.101,156.832 55.703,156.656 55.528 C 156.576 55.448,156.510 58.761,156.510 62.891 M123.144 65.697 C 123.256 65.808,125.213 65.866,127.494 65.826 L 131.641 65.754 127.291 65.624 C 124.899 65.553,123.033 65.586,123.144 65.697 M144.065 65.816 L 147.897 65.899 147.987 68.041 L 148.077 70.182 148.062 67.969 L 148.047 65.755 144.141 65.744 L 140.234 65.733 144.065 65.816 M60.535 73.242 L 59.505 74.349 60.612 73.320 C 61.641 72.362,61.838 72.135,61.641 72.135 C 61.599 72.135,61.101 72.633,60.535 73.242 M56.368 77.669 L 55.339 78.776 56.445 77.747 C 57.475 76.789,57.672 76.563,57.475 76.563 C 57.432 76.563,56.934 77.061,56.368 77.669 M70.691 80.013 L 69.661 81.120 70.768 80.090 C 71.798 79.133,71.995 78.906,71.798 78.906 C 71.755 78.906,71.257 79.404,70.691 80.013 M183.529 83.261 C 183.994 83.319,184.756 83.319,185.221 83.261 C 185.687 83.204,185.306 83.156,184.375 83.156 C 183.444 83.156,183.063 83.204,183.529 83.261 M66.146 84.766 C 65.513 85.410,65.054 85.938,65.126 85.938 C 65.198 85.938,65.774 85.410,66.406 84.766 C 67.039 84.121,67.498 83.594,67.426 83.594 C 67.355 83.594,66.778 84.121,66.146 84.766 M117.575 100.260 L 117.578 116.797 120.313 116.810 L 123.047 116.823 120.380 116.736 L 117.712 116.649 117.642 100.187 L 117.572 83.724 117.575 100.260 M128.500 90.625 C 128.500 94.564,128.536 96.175,128.580 94.206 C 128.624 92.236,128.624 89.014,128.580 87.044 C 128.536 85.075,128.500 86.686,128.500 90.625 M137.361 97.005 C 137.361 104.453,137.394 107.462,137.435 103.693 C 137.475 99.923,137.475 93.829,137.435 90.151 C 137.394 86.473,137.361 89.557,137.361 97.005 M153.506 96.875 C 153.506 104.251,153.540 107.269,153.581 103.581 C 153.621 99.893,153.621 93.857,153.581 90.169 C 153.540 86.481,153.506 89.499,153.506 96.875 M156.638 100.260 L 156.641 116.797 158.984 116.812 L 161.328 116.826 159.051 116.737 L 156.775 116.647 156.705 100.186 L 156.635 83.724 156.638 100.260 M172.719 100.055 L 172.656 116.647 170.247 116.733 L 167.839 116.819 170.256 116.873 C 171.991 116.912,172.708 116.835,172.797 116.602 C 172.865 116.423,172.890 108.893,172.852 99.870 L 172.782 83.464 172.719 100.055 M211.846 100.260 L 211.849 116.797 214.583 116.810 L 217.318 116.823 214.650 116.736 L 211.983 116.649 211.913 100.187 L 211.843 83.724 211.846 100.260 M201.101 92.904 L 201.159 97.786 201.237 93.041 L 201.314 88.295 205.149 88.216 L 208.984 88.136 205.013 88.078 L 201.042 88.021 201.101 92.904 M218.169 88.210 C 218.637 88.268,219.340 88.266,219.731 88.207 C 220.123 88.147,219.740 88.100,218.880 88.102 C 218.021 88.103,217.701 88.152,218.169 88.210 M61.705 89.518 L 60.807 90.495 61.784 89.597 C 62.693 88.762,62.880 88.542,62.681 88.542 C 62.638 88.542,62.198 88.981,61.705 89.518 M192.188 91.918 L 192.188 94.252 189.648 94.337 L 187.109 94.422 189.779 94.477 L 192.448 94.531 192.448 92.057 C 192.448 90.697,192.389 89.583,192.318 89.583 C 192.246 89.583,192.188 90.634,192.188 91.918 M181.629 100.130 C 181.629 105.716,181.663 107.964,181.705 105.126 C 181.748 102.288,181.747 97.717,181.705 94.970 C 181.663 92.222,181.629 94.544,181.629 100.130 M221.975 93.229 C 221.975 95.020,222.017 95.752,222.068 94.857 C 222.119 93.962,222.119 92.497,222.068 91.602 C 222.017 90.706,221.975 91.439,221.975 93.229 M206.603 99.870 C 206.602 101.159,206.646 101.719,206.701 101.115 C 206.755 100.510,206.756 99.456,206.702 98.771 C 206.648 98.086,206.604 98.581,206.603 99.870 M44.072 107.096 L 44.010 115.625 61.458 115.625 L 78.906 115.625 78.847 110.091 L 78.787 104.557 78.711 109.961 L 78.635 115.365 61.457 115.365 L 44.278 115.365 44.206 106.966 L 44.133 98.568 44.072 107.096 M56.869 101.823 C 56.869 103.470,56.912 104.144,56.963 103.320 C 57.015 102.497,57.015 101.149,56.963 100.326 C 56.912 99.502,56.869 100.176,56.869 101.823 M188.216 99.153 L 192.188 99.232 192.188 107.949 L 192.188 116.667 190.365 116.667 L 188.542 116.667 188.542 114.959 C 188.542 114.019,188.453 113.305,188.345 113.372 C 188.237 113.439,188.208 114.237,188.280 115.145 L 188.411 116.797 190.365 116.797 L 192.318 116.797 192.386 107.878 L 192.455 98.958 188.350 99.016 L 184.245 99.074 188.216 99.153 M128.509 109.375 L 128.516 116.797 131.380 116.811 L 134.245 116.826 131.449 116.738 L 128.654 116.649 128.578 109.301 L 128.503 101.953 128.509 109.375 M201.151 107.161 C 201.151 110.026,201.189 111.233,201.236 109.845 C 201.282 108.456,201.283 106.112,201.236 104.636 C 201.190 103.161,201.151 104.297,201.151 107.161 M187.080 106.641 C 187.081 108.503,187.122 109.230,187.173 108.257 C 187.223 107.285,187.222 105.761,187.172 104.872 C 187.121 103.983,187.080 104.779,187.080 106.641 M222.625 116.741 C 222.738 116.854,224.110 116.912,225.673 116.870 L 228.516 116.794 225.468 116.665 C 223.791 116.594,222.512 116.629,222.625 116.741 M198.748 116.861 C 200.565 116.906,203.612 116.906,205.518 116.861 C 207.425 116.817,205.938 116.780,202.214 116.780 C 198.490 116.780,196.930 116.816,198.748 116.861 M221.154 192.969 C 221.154 193.470,221.208 193.675,221.273 193.424 C 221.339 193.174,221.339 192.764,221.273 192.513 C 221.208 192.262,221.154 192.467,221.154 192.969 M151.918 196.224 C 151.919 197.656,151.962 198.209,152.015 197.452 C 152.068 196.695,152.067 195.524,152.014 194.848 C 151.961 194.173,151.917 194.792,151.918 196.224 M193.060 196.354 C 193.060 197.572,193.105 198.070,193.159 197.461 C 193.214 196.852,193.214 195.856,193.159 195.247 C 193.105 194.639,193.060 195.137,193.060 196.354 M234.198 196.354 C 234.198 197.285,234.245 197.666,234.303 197.201 C 234.361 196.735,234.361 195.973,234.303 195.508 C 234.245 195.042,234.198 195.423,234.198 196.354 M138.613 196.354 C 138.613 196.999,138.663 197.262,138.725 196.940 C 138.788 196.618,138.788 196.090,138.725 195.768 C 138.663 195.446,138.613 195.710,138.613 196.354 M251.894 238.802 C 251.894 239.447,251.945 239.710,252.007 239.388 C 252.069 239.066,252.069 238.538,252.007 238.216 C 251.945 237.894,251.894 238.158,251.894 238.802 M161.458 247.396 L 154.557 247.539 161.378 247.598 C 165.708 247.635,168.257 247.561,168.359 247.396 C 168.448 247.253,168.484 247.162,168.440 247.194 C 168.396 247.226,165.254 247.317,161.458 247.396 M195.833 247.461 C 195.833 247.568,198.910 247.632,202.669 247.602 C 209.518 247.548,208.732 247.458,200.325 247.332 C 197.854 247.296,195.833 247.354,195.833 247.461 M236.979 247.461 C 236.979 247.568,240.114 247.632,243.945 247.602 C 250.955 247.548,250.156 247.456,241.601 247.332 C 239.059 247.296,236.979 247.354,236.979 247.461 M142.231 256.185 C 170.830 256.221,217.705 256.221,246.398 256.185 C 275.091 256.148,251.693 256.119,194.401 256.119 C 137.109 256.119,113.633 256.148,142.231 256.185 M115.234 310.938 C 116.085 311.797,116.839 312.500,116.911 312.500 C 116.982 312.500,116.345 311.797,115.495 310.938 C 114.644 310.078,113.890 309.375,113.818 309.375 C 113.747 309.375,114.384 310.078,115.234 310.938 M178.841 346.029 C 187.900 346.067,202.725 346.067,211.784 346.029 C 220.843 345.991,213.431 345.960,195.313 345.960 C 177.194 345.960,169.782 345.991,178.841 346.029 " stroke="none" fill="#f4dcbc" fill-rule="evenodd"></path><path id="path2" d="M0.000 200.000 L 0.000 400.000 200.000 400.000 L 400.000 400.000 400.000 200.000 L 400.000 0.000 200.000 0.000 L 0.000 0.000 0.000 200.000 M68.750 35.813 C 76.707 37.894,79.383 42.419,79.626 54.200 C 79.814 63.313,79.296 67.223,77.368 71.224 C 75.545 75.010,74.596 76.166,64.807 86.533 C 57.901 93.846,57.319 94.927,57.098 100.846 L 56.964 104.427 67.935 104.427 L 78.906 104.427 78.906 110.026 L 78.906 115.625 61.439 115.625 L 43.971 115.625 44.073 106.055 C 44.233 91.001,44.751 89.868,57.769 76.073 C 66.162 67.180,66.406 66.611,66.406 55.944 C 66.406 47.624,65.138 45.470,60.683 46.223 C 57.365 46.783,56.920 47.888,56.819 55.794 L 56.738 62.240 50.480 62.240 L 44.222 62.240 44.341 55.143 C 44.540 43.325,46.808 38.995,54.211 36.300 C 57.524 35.094,65.039 34.842,68.750 35.813 M181.886 37.167 C 183.632 37.721,185.414 39.526,186.213 41.552 C 187.522 44.871,187.237 63.859,185.837 66.598 C 182.638 72.856,172.363 72.072,170.306 65.413 C 169.614 63.171,169.516 44.513,170.185 42.261 C 171.587 37.540,176.422 35.435,181.886 37.167 M132.024 39.258 L 132.016 41.536 127.627 53.516 L 123.237 65.495 127.374 65.566 L 131.510 65.638 131.510 67.975 L 131.510 70.313 124.219 70.313 L 116.927 70.313 116.927 68.123 C 116.927 65.940,116.939 65.903,121.333 53.865 L 125.739 41.797 121.854 41.725 L 117.969 41.653 117.969 39.316 L 117.969 36.979 125.000 36.979 L 132.031 36.979 132.024 39.258 M148.177 39.323 L 148.177 41.667 144.271 41.667 L 140.365 41.667 140.365 46.354 L 140.365 51.042 143.229 51.042 L 146.094 51.042 146.094 53.385 L 146.094 55.729 143.229 55.729 L 140.365 55.729 140.365 60.677 L 140.365 65.625 144.271 65.625 L 148.177 65.625 148.177 67.969 L 148.177 70.313 141.406 70.313 L 134.635 70.313 134.635 53.646 L 134.635 36.979 141.406 36.979 L 148.177 36.979 148.177 39.323 M163.281 37.654 C 166.092 38.950,166.927 40.988,166.927 46.547 C 166.927 52.039,165.996 54.278,163.375 55.088 L 162.563 55.339 165.123 62.500 C 166.531 66.439,167.688 69.812,167.695 69.995 C 167.705 70.252,167.012 70.312,164.679 70.256 L 161.650 70.182 159.225 63.151 L 156.801 56.120 156.786 63.216 L 156.771 70.313 153.776 70.313 L 150.781 70.313 150.781 53.624 L 150.781 36.935 156.445 37.024 C 161.516 37.104,162.232 37.170,163.281 37.654 M177.083 41.726 C 175.582 42.506,175.522 42.967,175.521 53.589 C 175.521 65.063,175.700 65.885,178.196 65.885 C 180.925 65.885,181.037 65.359,180.940 53.066 L 180.859 42.980 180.194 42.315 C 179.403 41.524,177.988 41.257,177.083 41.726 M156.771 46.745 L 156.771 51.823 158.215 51.823 C 160.769 51.823,161.392 50.526,161.141 45.730 C 160.964 42.358,160.370 41.673,157.617 41.668 L 156.771 41.667 156.771 46.745 M188.542 83.769 C 191.216 84.954,192.231 86.951,192.393 91.341 L 192.511 94.531 189.875 94.531 L 187.240 94.531 187.238 92.643 C 187.235 89.177,186.552 88.021,184.505 88.021 C 181.795 88.021,181.739 88.282,181.827 100.575 L 181.901 110.896 182.532 111.568 C 183.433 112.526,185.316 112.527,186.218 111.568 C 186.813 110.935,186.854 110.692,186.934 107.271 L 187.019 103.646 185.697 103.646 L 184.375 103.646 184.375 101.302 L 184.375 98.958 188.411 98.958 L 192.448 98.958 192.448 107.943 L 192.448 116.927 190.365 116.927 L 188.281 116.927 188.280 115.430 L 188.279 113.932 187.794 114.714 C 185.309 118.715,178.824 117.875,176.854 113.297 C 175.822 110.897,175.273 95.084,176.049 90.104 C 176.947 84.340,182.955 81.293,188.542 83.769 M123.177 90.365 L 123.177 97.396 125.781 97.396 L 128.385 97.396 128.385 90.356 L 128.385 83.316 131.315 83.390 L 134.245 83.464 134.312 100.195 L 134.379 116.927 131.382 116.927 L 128.385 116.927 128.385 109.635 L 128.385 102.344 125.781 102.344 L 123.177 102.344 123.177 109.635 L 123.177 116.927 120.313 116.927 L 117.448 116.927 117.448 100.130 L 117.448 83.333 120.313 83.333 L 123.177 83.333 123.177 90.365 M142.969 96.623 C 142.969 112.332,142.953 112.240,145.665 112.240 C 148.133 112.240,148.027 112.873,148.177 97.135 L 148.307 83.464 150.985 83.389 L 153.663 83.315 153.581 97.452 C 153.492 112.790,153.504 112.663,152.005 114.628 C 149.443 117.987,142.542 118.197,139.439 115.009 C 137.230 112.741,137.240 112.822,137.240 96.923 L 137.240 83.333 140.104 83.333 L 142.969 83.333 142.969 96.623 M165.066 92.237 L 167.839 101.010 167.969 92.237 L 168.099 83.464 170.508 83.389 L 172.917 83.314 172.917 100.120 L 172.917 116.927 170.378 116.925 L 167.839 116.923 164.661 106.834 L 161.484 96.745 161.471 106.836 L 161.458 116.927 158.984 116.927 L 156.510 116.927 156.510 100.122 L 156.510 83.316 159.402 83.390 L 162.293 83.464 165.066 92.237 M208.854 85.807 L 208.854 88.281 205.078 88.281 L 201.302 88.281 201.302 92.839 L 201.302 97.396 204.036 97.396 L 206.771 97.396 206.771 99.870 L 206.771 102.344 204.036 102.344 L 201.302 102.344 201.302 107.161 L 201.302 111.979 205.078 111.979 L 208.854 111.979 208.854 114.453 L 208.854 116.927 202.083 116.927 L 195.313 116.927 195.313 100.304 C 195.313 91.161,195.391 83.602,195.486 83.507 C 195.582 83.411,198.628 83.333,202.257 83.333 L 208.854 83.333 208.854 85.807 M223.905 84.102 C 226.954 85.446,227.734 87.306,227.734 93.229 C 227.734 98.703,227.085 100.306,224.414 101.422 C 223.234 101.915,222.978 100.673,226.042 109.336 C 227.474 113.387,228.646 116.751,228.646 116.814 C 228.646 116.876,227.269 116.927,225.586 116.926 L 222.526 116.925 220.002 109.569 L 217.478 102.214 217.463 109.570 L 217.448 116.927 214.583 116.927 L 211.719 116.927 211.719 100.101 L 211.719 83.274 217.122 83.384 C 222.080 83.485,222.640 83.544,223.905 84.102 M217.448 93.365 L 217.448 98.509 218.940 98.334 C 221.745 98.004,221.973 97.544,221.832 92.491 C 221.726 88.656,221.616 88.486,219.144 88.329 L 217.448 88.221 217.448 93.365 M156.981 165.779 C 160.713 167.639,161.242 170.465,158.664 174.778 C 149.820 189.575,149.904 203.682,158.898 214.073 C 168.255 224.884,171.517 235.351,168.844 245.993 L 168.426 247.656 161.476 247.656 L 154.526 247.656 155.302 245.378 C 157.884 237.803,155.473 229.093,148.697 221.514 C 137.801 209.325,135.723 195.196,142.355 178.385 C 146.911 166.837,151.378 162.987,156.981 165.779 M198.194 165.820 C 201.730 167.614,202.425 170.744,200.096 174.385 C 190.793 188.928,191.008 203.716,200.685 214.784 C 209.503 224.869,212.682 235.909,209.870 246.680 L 209.615 247.656 202.644 247.656 L 195.672 247.656 196.397 245.488 C 199.098 237.413,196.827 229.307,189.600 221.224 C 177.080 207.220,176.569 187.293,188.264 169.062 C 190.747 165.192,194.523 163.959,198.194 165.820 M239.195 165.716 C 242.831 167.410,243.620 170.573,241.326 174.257 C 235.112 184.237,232.914 195.732,235.587 204.262 C 236.832 208.233,238.310 210.649,242.560 215.663 C 250.824 225.409,253.812 236.325,251.038 246.629 L 250.761 247.656 243.870 247.656 C 239.545 247.656,236.979 247.561,236.979 247.401 C 236.979 247.261,237.150 246.704,237.358 246.164 C 240.484 238.071,238.282 229.881,230.584 220.964 C 219.035 207.585,217.820 191.325,227.024 173.324 C 230.979 165.586,234.368 163.469,239.195 165.716 M299.407 256.503 C 300.889 257.407,300.820 259.446,299.070 266.410 C 291.140 297.960,266.987 323.764,233.984 335.943 L 230.599 337.192 230.535 340.536 C 230.457 344.678,230.394 344.947,229.355 345.580 C 228.351 346.192,162.819 346.408,161.637 345.803 C 160.329 345.134,160.168 344.622,160.162 341.102 L 160.156 337.803 158.008 337.097 C 123.033 325.604,96.794 297.815,89.170 264.193 C 87.920 258.676,87.985 257.231,89.525 256.396 C 90.806 255.700,298.265 255.807,299.407 256.503 " stroke="none" fill="#d4a42c" fill-rule="evenodd"></path><path id="path3" d="M131.866 39.453 C 131.867 40.885,131.910 41.438,131.963 40.681 C 132.016 39.925,132.015 38.753,131.962 38.077 C 131.908 37.402,131.865 38.021,131.866 39.453 M150.904 53.646 C 150.904 62.884,150.937 66.663,150.976 62.044 C 151.016 57.425,151.016 49.867,150.976 45.247 C 150.937 40.628,150.904 44.408,150.904 53.646 M186.836 53.646 C 186.836 58.587,186.871 60.609,186.914 58.138 C 186.956 55.667,186.956 51.624,186.914 49.154 C 186.871 46.683,186.836 48.704,186.836 53.646 M79.539 55.990 C 79.539 59.355,79.576 60.732,79.622 59.049 C 79.667 57.367,79.667 54.613,79.622 52.930 C 79.576 51.247,79.539 52.624,79.539 55.990 M56.621 56.641 C 56.622 59.792,56.659 61.045,56.705 59.426 C 56.751 57.806,56.751 55.228,56.705 53.697 C 56.659 52.165,56.621 53.490,56.621 56.641 M145.927 53.385 C 145.927 54.746,145.971 55.303,146.025 54.622 C 146.078 53.942,146.078 52.829,146.025 52.148 C 145.971 51.468,145.927 52.025,145.927 53.385 M117.021 67.969 C 117.021 69.329,117.065 69.886,117.118 69.206 C 117.172 68.525,117.172 67.412,117.118 66.732 C 117.065 66.051,117.021 66.608,117.021 67.969 M171.354 67.790 C 171.354 67.835,171.735 68.215,172.201 68.636 L 173.047 69.401 172.282 68.555 C 171.569 67.766,171.354 67.589,171.354 67.790 M58.451 75.326 L 57.422 76.432 58.529 75.403 C 59.558 74.446,59.755 74.219,59.558 74.219 C 59.516 74.219,59.017 74.717,58.451 75.326 M54.285 79.753 L 53.255 80.859 54.362 79.830 C 55.391 78.873,55.588 78.646,55.391 78.646 C 55.349 78.646,54.851 79.144,54.285 79.753 M68.490 82.422 C 67.857 83.066,67.398 83.594,67.470 83.594 C 67.541 83.594,68.117 83.066,68.750 82.422 C 69.383 81.777,69.842 81.250,69.770 81.250 C 69.698 81.250,69.122 81.777,68.490 82.422 M118.815 83.526 C 119.639 83.577,120.986 83.577,121.810 83.526 C 122.633 83.474,121.960 83.432,120.313 83.432 C 118.665 83.432,117.992 83.474,118.815 83.526 M131.313 83.524 L 134.111 83.611 134.181 100.269 L 134.251 116.927 134.248 100.195 L 134.245 83.464 131.380 83.451 L 128.516 83.438 131.313 83.524 M138.607 83.526 C 139.430 83.577,140.778 83.577,141.602 83.526 C 142.425 83.474,141.751 83.432,140.104 83.432 C 138.457 83.432,137.783 83.474,138.607 83.526 M148.296 83.659 C 148.228 83.838,148.203 89.785,148.242 96.875 L 148.312 109.766 148.375 96.689 L 148.438 83.612 151.107 83.528 L 153.776 83.443 151.099 83.388 C 149.155 83.348,148.387 83.423,148.296 83.659 M159.235 83.524 C 161.085 83.581,162.169 83.724,162.315 83.929 C 162.476 84.155,162.509 84.134,162.434 83.854 C 162.347 83.537,161.768 83.461,159.354 83.449 L 156.380 83.435 159.235 83.524 M168.120 83.559 C 167.935 83.858,167.902 101.582,168.086 101.767 C 168.165 101.845,168.229 97.793,168.229 92.762 L 168.229 83.613 170.638 83.527 L 173.047 83.441 170.653 83.387 C 169.337 83.358,168.197 83.435,168.120 83.559 M195.432 83.659 C 195.364 83.838,195.339 91.426,195.377 100.521 L 195.447 117.057 195.510 100.330 L 195.573 83.603 202.279 83.528 L 208.984 83.454 202.270 83.394 C 197.094 83.347,195.528 83.408,195.432 83.659 M213.997 83.527 C 215.322 83.575,217.490 83.575,218.815 83.527 C 220.140 83.480,219.056 83.441,216.406 83.441 C 213.757 83.441,212.673 83.480,213.997 83.527 M63.802 87.370 C 63.170 88.014,62.711 88.542,62.782 88.542 C 62.854 88.542,63.430 88.014,64.063 87.370 C 64.695 86.725,65.154 86.198,65.082 86.198 C 65.011 86.198,64.435 86.725,63.802 87.370 M227.704 93.099 C 227.704 94.818,227.746 95.487,227.797 94.586 C 227.848 93.685,227.848 92.279,227.796 91.461 C 227.745 90.643,227.703 91.380,227.704 93.099 M175.898 100.130 C 175.899 105.143,175.934 107.157,175.976 104.606 C 176.019 102.054,176.019 97.952,175.976 95.491 C 175.933 93.030,175.898 95.117,175.898 100.130 M124.414 97.588 C 125.166 97.640,126.396 97.640,127.148 97.588 C 127.900 97.535,127.285 97.492,125.781 97.492 C 124.277 97.492,123.662 97.535,124.414 97.588 M202.679 97.589 C 203.508 97.640,204.797 97.640,205.543 97.587 C 206.290 97.535,205.612 97.493,204.036 97.493 C 202.461 97.494,201.850 97.537,202.679 97.589 M124.414 102.275 C 125.166 102.328,126.396 102.328,127.148 102.275 C 127.900 102.223,127.285 102.180,125.781 102.180 C 124.277 102.180,123.662 102.223,124.414 102.275 M202.679 102.276 C 203.508 102.328,204.797 102.327,205.543 102.275 C 206.290 102.223,205.612 102.180,204.036 102.181 C 202.461 102.181,201.850 102.224,202.679 102.276 M184.961 103.572 C 185.355 103.632,185.999 103.632,186.393 103.572 C 186.787 103.512,186.465 103.463,185.677 103.463 C 184.889 103.463,184.567 103.512,184.961 103.572 M62.435 104.622 C 65.479 104.664,70.459 104.664,73.503 104.622 C 76.546 104.580,74.056 104.546,67.969 104.546 C 61.882 104.546,59.391 104.580,62.435 104.622 M203.202 112.173 C 204.319 112.222,206.076 112.222,207.108 112.172 C 208.140 112.123,207.227 112.083,205.078 112.083 C 202.930 112.084,202.085 112.124,203.202 112.173 M183.919 112.419 C 184.170 112.485,184.580 112.485,184.831 112.419 C 185.081 112.354,184.876 112.300,184.375 112.300 C 183.874 112.300,183.669 112.354,183.919 112.419 M160.217 170.573 C 160.217 171.074,160.270 171.279,160.336 171.029 C 160.401 170.778,160.401 170.368,160.336 170.117 C 160.270 169.867,160.217 170.072,160.217 170.573 M138.602 194.531 C 138.602 195.033,138.656 195.238,138.721 194.987 C 138.787 194.736,138.787 194.326,138.721 194.076 C 138.656 193.825,138.602 194.030,138.602 194.531 M179.778 196.354 C 179.778 197.572,179.823 198.070,179.878 197.461 C 179.933 196.852,179.933 195.856,179.878 195.247 C 179.823 194.639,179.778 195.137,179.778 196.354 M220.911 196.354 C 220.911 197.142,220.960 197.464,221.020 197.070 C 221.080 196.676,221.080 196.032,221.020 195.638 C 220.960 195.244,220.911 195.566,220.911 196.354 M138.602 198.177 C 138.602 198.678,138.656 198.883,138.721 198.633 C 138.787 198.382,138.787 197.972,138.721 197.721 C 138.656 197.471,138.602 197.676,138.602 198.177 M210.738 237.500 C 210.738 238.001,210.791 238.206,210.857 237.956 C 210.922 237.705,210.922 237.295,210.857 237.044 C 210.791 236.794,210.738 236.999,210.738 237.500 M156.335 238.932 C 156.337 239.935,156.384 240.313,156.440 239.773 C 156.496 239.233,156.495 238.412,156.438 237.950 C 156.380 237.488,156.334 237.930,156.335 238.932 M169.617 238.932 C 169.618 239.935,169.665 240.313,169.721 239.773 C 169.778 239.233,169.777 238.412,169.719 237.950 C 169.662 237.488,169.616 237.930,169.617 238.932 M210.738 240.104 C 210.738 240.605,210.791 240.811,210.857 240.560 C 210.922 240.309,210.922 239.899,210.857 239.648 C 210.791 239.398,210.738 239.603,210.738 240.104 M112.630 308.333 C 113.190 308.906,113.706 309.375,113.778 309.375 C 113.849 309.375,113.450 308.906,112.891 308.333 C 112.331 307.760,111.815 307.292,111.743 307.292 C 111.672 307.292,112.071 307.760,112.630 308.333 M273.433 310.872 L 270.703 313.672 273.503 310.942 C 275.042 309.441,276.302 308.181,276.302 308.143 C 276.302 307.955,275.968 308.272,273.433 310.872 M117.708 313.411 C 118.194 313.913,118.650 314.323,118.722 314.323 C 118.794 314.323,118.455 313.913,117.969 313.411 C 117.483 312.910,117.027 312.500,116.955 312.500 C 116.884 312.500,117.222 312.910,117.708 313.411 " stroke="none" fill="#dcb45c" fill-rule="evenodd"></path><path id="path4" d="" stroke="none" fill="#e8d440" fill-rule="evenodd"></path></g></svg>