<svg id="svg" version="1.1" xmlns="http://www.w3.org/2000/svg" xmlns:xlink="http://www.w3.org/1999/xlink" width="400" height="400" viewBox="0, 0, 400,400"><g id="svgg"><path id="path0" d="M52.902 65.299 L 41.397 94.401 41.402 98.503 L 41.406 102.604 53.125 102.604 L 64.844 102.604 64.844 108.984 L 64.844 115.365 71.089 115.365 L 77.334 115.365 77.404 109.049 L 77.474 102.734 80.143 102.660 L 82.813 102.586 82.813 97.526 L 82.813 92.466 80.143 92.392 L 77.474 92.318 77.408 64.258 L 77.341 36.198 70.875 36.198 L 64.408 36.198 52.902 65.299 M124.788 37.125 C 122.573 37.722,121.259 38.793,120.263 40.817 L 119.401 42.567 119.401 53.640 L 119.401 64.714 120.023 66.091 C 120.791 67.790,122.581 69.418,124.195 69.887 C 125.347 70.221,125.395 70.276,125.521 71.377 L 125.651 72.519 130.729 73.453 L 135.807 74.386 135.884 72.448 C 135.975 70.154,136.130 70.380,134.223 70.028 C 131.871 69.593,131.834 69.569,132.697 69.034 C 135.701 67.173,135.807 66.647,135.807 53.640 L 135.807 42.567 134.946 40.817 C 133.274 37.421,129.196 35.939,124.788 37.125 M139.323 50.734 C 139.323 65.515,139.349 65.807,140.864 67.898 C 142.959 70.790,149.429 71.541,152.579 69.259 C 155.223 67.344,155.457 65.767,155.464 49.805 L 155.469 37.240 152.871 37.240 L 150.274 37.240 150.202 50.906 L 150.130 64.572 149.408 65.294 C 148.835 65.867,148.447 66.016,147.526 66.016 C 146.606 66.016,146.217 65.867,145.644 65.294 L 144.922 64.572 144.850 50.906 L 144.778 37.240 142.051 37.240 L 139.323 37.240 139.323 50.734 M163.156 37.818 C 163.079 38.144,161.729 45.267,160.156 53.646 C 158.582 62.025,157.226 69.202,157.142 69.596 L 156.990 70.313 159.615 70.313 C 161.058 70.313,162.240 70.225,162.240 70.117 C 162.242 69.862,162.991 65.408,163.160 64.648 C 163.320 63.933,168.893 63.713,169.161 64.411 C 169.234 64.603,169.498 65.980,169.746 67.471 L 170.198 70.182 172.990 70.256 C 175.129 70.313,175.780 70.252,175.776 69.996 C 175.773 69.812,174.387 62.396,172.696 53.516 L 169.622 37.370 166.459 37.297 C 163.352 37.225,163.293 37.234,163.156 37.818 M178.385 53.776 L 178.385 70.313 184.375 70.313 L 190.365 70.313 190.365 68.107 L 190.365 65.901 187.044 65.828 L 183.724 65.755 183.657 51.497 L 183.589 37.240 180.987 37.240 L 178.385 37.240 178.385 53.776 M192.969 53.776 L 192.969 70.313 195.703 70.313 L 198.438 70.313 198.438 53.776 L 198.438 37.240 195.703 37.240 L 192.969 37.240 192.969 53.776 M201.302 39.453 L 201.302 41.667 203.516 41.667 L 205.729 41.667 205.729 55.990 L 205.729 70.313 208.464 70.313 L 211.198 70.313 211.198 55.990 L 211.198 41.667 213.542 41.667 L 215.885 41.667 215.885 39.453 L 215.885 37.240 208.594 37.240 L 201.302 37.240 201.302 39.453 M217.782 37.577 C 217.857 37.772,219.277 42.422,220.938 47.911 L 223.958 57.891 223.958 64.102 L 223.958 70.313 226.693 70.313 L 229.427 70.313 229.427 63.926 L 229.427 57.540 232.422 47.565 C 234.069 42.079,235.417 37.512,235.417 37.415 C 235.417 37.319,234.259 37.240,232.845 37.240 L 230.273 37.240 229.477 40.169 C 227.324 48.096,226.873 49.579,226.729 49.219 C 226.643 49.004,225.883 46.250,225.040 43.099 L 223.508 37.370 220.577 37.296 C 218.189 37.236,217.671 37.288,217.782 37.577 M129.574 42.204 L 130.339 43.002 130.412 53.529 C 130.498 65.811,130.365 66.410,127.552 66.405 C 124.885 66.401,124.693 65.486,124.790 53.207 L 124.870 43.002 125.635 42.204 C 126.734 41.057,128.474 41.057,129.574 42.204 M168.315 59.701 C 168.000 60.230,164.063 59.908,164.063 59.353 C 164.063 58.754,165.789 48.173,166.056 47.135 C 166.165 46.713,166.611 48.768,167.327 52.995 C 167.934 56.576,168.378 59.593,168.315 59.701 M64.985 92.122 C 64.727 92.797,53.033 92.568,53.209 91.893 C 53.289 91.587,55.969 84.177,59.164 75.425 L 64.974 59.513 65.041 75.655 C 65.079 84.533,65.053 91.943,64.985 92.122 M179.441 83.770 C 177.807 84.366,175.973 86.285,175.363 88.036 C 174.632 90.136,174.608 110.059,175.334 112.138 C 176.611 115.794,180.105 117.570,184.734 116.913 C 189.342 116.260,190.619 114.255,190.822 107.357 L 190.947 103.125 188.442 103.125 L 185.938 103.125 185.936 106.315 C 185.934 111.120,185.295 112.500,183.073 112.500 C 180.332 112.500,180.160 111.710,180.258 99.563 C 180.349 88.340,180.333 88.429,182.389 87.908 C 184.795 87.298,185.764 88.555,185.898 92.462 L 185.995 95.313 188.440 95.313 L 190.885 95.313 190.885 92.886 C 190.885 87.701,189.931 85.364,187.240 83.961 C 185.954 83.290,181.082 83.171,179.441 83.770 M242.448 83.577 C 240.052 84.308,238.351 85.900,237.567 88.143 C 236.869 90.140,236.875 110.136,237.574 112.138 C 239.857 118.677,250.526 118.819,253.023 112.345 C 253.478 111.164,253.516 110.232,253.516 100.000 L 253.516 88.932 252.893 87.555 C 251.375 84.196,246.501 82.339,242.448 83.577 M119.271 100.130 L 119.271 116.667 125.781 116.667 L 132.292 116.667 132.292 114.453 L 132.292 112.240 128.516 112.240 L 124.740 112.240 124.740 107.161 L 124.740 102.083 127.474 102.083 L 130.208 102.083 130.208 99.870 L 130.208 97.656 127.474 97.656 L 124.740 97.656 124.740 92.839 L 124.740 88.021 128.516 88.021 L 132.292 88.021 132.292 85.807 L 132.292 83.594 125.781 83.594 L 119.271 83.594 119.271 100.130 M135.417 100.126 L 135.417 116.703 141.081 116.620 C 148.402 116.512,149.609 116.024,151.276 112.500 L 151.953 111.068 151.953 100.130 C 151.953 87.776,151.941 87.694,149.789 85.597 C 148.035 83.888,147.412 83.748,141.081 83.644 L 135.417 83.550 135.417 100.126 M155.469 97.224 C 155.469 111.807,155.507 112.295,156.793 114.172 C 159.227 117.723,166.816 118.098,169.634 114.806 C 171.340 112.812,171.354 112.670,171.354 97.366 L 171.354 83.594 168.880 83.594 L 166.406 83.594 166.406 96.901 C 166.406 112.429,166.394 112.500,163.677 112.500 C 160.908 112.500,160.938 112.667,160.938 97.018 L 160.938 83.594 158.203 83.594 L 155.469 83.594 155.469 97.224 M195.761 99.936 C 194.074 108.923,192.697 116.364,192.701 116.471 C 192.705 116.579,193.859 116.667,195.265 116.667 L 197.821 116.667 198.292 113.664 L 198.763 110.661 201.783 110.734 L 204.804 110.807 204.977 111.849 C 205.072 112.422,205.290 113.740,205.463 114.779 L 205.776 116.667 208.635 116.667 C 211.235 116.667,211.481 116.625,211.359 116.211 C 211.207 115.696,205.208 84.065,205.208 83.778 C 205.208 83.677,203.773 83.594,202.018 83.594 L 198.828 83.595 195.761 99.936 M210.677 85.807 L 210.677 88.021 213.021 88.021 L 215.365 88.021 215.365 102.344 L 215.365 116.667 218.099 116.667 L 220.833 116.667 220.833 102.344 L 220.833 88.021 223.177 88.021 L 225.521 88.021 225.521 85.807 L 225.521 83.594 218.099 83.594 L 210.677 83.594 210.677 85.807 M228.125 100.130 L 228.125 116.667 230.859 116.667 L 233.594 116.667 233.594 100.130 L 233.594 83.594 230.859 83.594 L 228.125 83.594 228.125 100.130 M257.031 100.130 L 257.031 116.667 259.372 116.667 L 261.713 116.667 261.781 106.523 L 261.849 96.380 263.785 102.552 C 264.849 105.947,266.289 110.511,266.984 112.695 L 268.247 116.667 270.712 116.667 L 273.177 116.667 273.177 100.130 L 273.177 83.594 270.833 83.594 L 268.490 83.594 268.490 92.882 C 268.490 97.990,268.432 102.113,268.362 102.043 C 268.247 101.927,262.500 83.944,262.500 83.698 C 262.500 83.641,261.270 83.594,259.766 83.594 L 257.031 83.594 257.031 100.130 M247.370 88.658 L 248.047 89.335 248.047 100.157 L 248.047 110.980 247.196 111.740 C 245.682 113.094,243.586 112.636,242.811 110.782 C 242.206 109.333,242.287 90.557,242.904 89.327 C 243.760 87.620,245.997 87.285,247.370 88.658 M144.940 88.402 C 146.566 89.082,146.615 89.420,146.615 100.130 C 146.615 112.131,146.535 112.373,142.633 112.187 L 141.016 112.109 140.948 100.391 C 140.910 93.945,140.936 88.525,141.005 88.346 C 141.180 87.890,143.804 87.927,144.940 88.402 M202.981 99.789 C 203.490 102.895,203.906 105.619,203.906 105.843 C 203.906 106.180,203.523 106.250,201.664 106.250 C 199.473 106.250,199.426 106.237,199.559 105.664 C 199.635 105.342,200.138 102.392,200.678 99.110 C 201.310 95.266,201.730 93.320,201.858 93.641 C 201.967 93.916,202.472 96.682,202.981 99.789 M300.104 162.603 C 296.299 164.375,295.466 166.289,295.359 173.503 L 295.276 179.167 303.650 179.167 L 312.024 179.167 311.936 173.633 C 311.850 168.182,311.838 168.077,311.120 166.614 C 309.151 162.606,304.071 160.756,300.104 162.603 M95.775 176.220 L 92.200 179.036 92.259 248.417 L 92.318 317.797 134.896 329.592 L 177.474 341.388 181.674 341.397 L 185.874 341.406 224.773 329.056 C 246.167 322.264,265.430 316.183,267.578 315.542 L 271.484 314.378 271.540 246.707 L 271.595 179.036 268.024 176.229 L 264.453 173.422 264.323 241.174 L 264.193 308.926 224.870 321.642 L 185.547 334.357 181.793 334.366 L 178.039 334.375 139.215 323.536 C 117.861 317.575,100.186 312.590,99.935 312.460 C 99.504 312.234,99.477 308.586,99.415 242.813 L 99.349 173.404 95.775 176.220 M107.292 239.509 L 107.292 305.363 142.122 315.868 C 161.279 321.646,177.100 326.428,177.279 326.495 C 177.538 326.593,177.604 315.268,177.604 270.405 L 177.604 214.192 142.664 194.010 C 123.446 182.910,107.626 173.789,107.507 173.741 C 107.389 173.694,107.292 203.289,107.292 239.509 M220.898 194.081 L 185.677 214.438 185.677 270.528 C 185.677 315.287,185.743 326.595,186.003 326.504 C 186.182 326.442,202.117 321.654,221.416 315.865 L 256.503 305.339 256.507 239.518 C 256.509 203.317,256.423 173.704,256.315 173.711 C 256.208 173.718,240.270 182.885,220.898 194.081 M295.318 244.466 L 295.324 303.255 299.445 317.554 C 301.711 325.418,303.627 331.746,303.704 331.616 C 303.780 331.486,305.673 324.965,307.911 317.125 L 311.979 302.870 311.979 244.274 L 311.979 185.677 303.646 185.677 L 295.313 185.677 295.318 244.466 " stroke="none" fill="#fbfbfb" fill-rule="evenodd"></path><path id="path1" d="M0.000 200.000 L 0.000 400.000 200.000 400.000 L 400.000 400.000 400.000 200.000 L 400.000 0.000 200.000 0.000 L 0.000 0.000 0.000 200.000 M77.604 64.063 L 77.604 92.188 80.344 92.188 L 83.084 92.188 83.013 97.461 L 82.943 102.734 80.273 102.809 L 77.604 102.883 77.604 109.254 L 77.604 115.625 71.224 115.625 L 64.844 115.625 64.844 109.247 L 64.844 102.870 53.060 102.802 L 41.276 102.734 41.205 98.692 L 41.133 94.649 52.623 65.619 C 58.942 49.652,64.173 36.442,64.246 36.263 C 64.347 36.015,65.946 35.938,70.991 35.938 L 77.604 35.938 77.604 64.063 M131.111 37.172 C 132.898 37.735,134.907 39.763,135.572 41.675 C 136.028 42.985,136.068 43.953,136.068 53.776 L 136.068 64.453 135.309 66.097 C 134.855 67.080,134.139 68.092,133.530 68.614 L 132.511 69.486 134.029 69.784 C 134.864 69.949,135.693 70.131,135.872 70.189 C 136.097 70.263,136.198 70.945,136.198 72.388 C 136.198 74.892,136.813 74.765,130.469 73.568 C 127.819 73.067,125.622 72.658,125.586 72.657 C 125.550 72.657,125.521 72.153,125.521 71.538 C 125.521 70.443,125.498 70.415,124.413 70.124 C 121.949 69.465,120.115 67.461,119.395 64.643 C 118.722 62.008,118.944 43.371,119.671 41.567 C 121.363 37.362,126.031 35.569,131.111 37.172 M145.052 50.671 L 145.052 64.363 145.813 65.124 C 146.629 65.940,147.663 66.109,148.765 65.606 C 150.149 64.976,150.124 65.234,150.206 50.586 L 150.282 36.979 152.875 36.979 L 155.469 36.979 155.469 50.734 C 155.469 65.800,155.445 66.063,153.928 68.158 C 150.916 72.316,142.490 71.502,140.107 66.823 L 139.193 65.028 139.115 51.003 L 139.037 36.979 142.045 36.979 L 145.052 36.979 145.052 50.671 M169.792 37.189 C 169.792 37.393,175.617 68.158,175.928 69.596 L 176.083 70.313 173.088 70.313 L 170.093 70.313 169.951 69.596 C 169.873 69.202,169.685 68.118,169.534 67.188 C 169.017 64.006,169.390 64.323,166.172 64.323 L 163.344 64.323 162.874 67.318 L 162.404 70.313 159.624 70.313 L 156.844 70.313 157.425 67.253 C 157.745 65.570,159.160 58.070,160.569 50.586 L 163.132 36.979 166.462 36.979 C 168.293 36.979,169.792 37.074,169.792 37.189 M183.854 51.302 L 183.854 65.625 187.240 65.625 L 190.625 65.625 190.625 67.969 L 190.625 70.313 184.375 70.313 L 178.125 70.313 178.125 53.646 L 178.125 36.979 180.990 36.979 L 183.854 36.979 183.854 51.302 M198.698 53.646 L 198.698 70.313 195.833 70.313 L 192.969 70.313 192.969 53.646 L 192.969 36.979 195.833 36.979 L 198.698 36.979 198.698 53.646 M216.146 39.323 L 216.146 41.667 213.802 41.667 L 211.458 41.667 211.458 55.990 L 211.458 70.313 208.594 70.313 L 205.729 70.313 205.729 55.990 L 205.729 41.667 203.385 41.667 L 201.042 41.667 201.042 39.323 L 201.042 36.979 208.594 36.979 L 216.146 36.979 216.146 39.323 M225.106 42.774 C 225.953 45.960,226.706 48.678,226.781 48.814 C 226.855 48.949,227.639 46.371,228.522 43.085 L 230.127 37.109 232.902 37.035 C 234.428 36.995,235.677 37.027,235.677 37.107 C 235.677 37.187,234.329 41.741,232.682 47.227 L 229.688 57.201 229.688 63.757 L 229.688 70.313 226.693 70.313 L 223.698 70.313 223.698 63.921 L 223.698 57.529 220.693 47.580 C 219.040 42.107,217.637 37.484,217.576 37.305 C 217.491 37.056,218.189 36.979,220.516 36.979 L 223.568 36.980 225.106 42.774 M126.426 41.770 C 125.026 42.380,125.000 42.601,125.000 54.069 L 125.000 64.623 125.761 65.385 C 127.618 67.241,130.019 65.989,130.333 63.001 C 130.718 59.327,130.376 43.688,129.891 42.802 C 129.217 41.571,127.830 41.158,126.426 41.770 M166.057 48.177 C 165.965 48.535,165.536 50.996,165.104 53.646 C 164.672 56.296,164.259 58.727,164.186 59.049 C 164.056 59.619,164.109 59.635,166.141 59.635 C 167.647 59.635,168.225 59.545,168.213 59.310 C 168.131 57.666,166.191 47.652,166.057 48.177 M58.978 76.358 L 53.242 92.057 58.951 92.127 C 62.091 92.166,64.702 92.155,64.754 92.104 C 64.806 92.052,64.818 84.956,64.781 76.334 L 64.714 60.659 58.978 76.358 M186.052 83.446 C 189.704 84.545,190.704 86.275,190.839 91.732 L 190.933 95.573 188.305 95.573 L 185.677 95.573 185.677 92.855 C 185.677 88.908,185.219 88.045,183.118 88.029 C 182.214 88.022,181.841 88.171,181.230 88.782 L 180.469 89.543 180.469 100.090 L 180.469 110.637 181.143 111.438 C 181.711 112.113,182.001 112.240,182.983 112.240 C 185.343 112.240,185.677 111.540,185.677 106.602 L 185.677 103.125 188.303 103.125 L 190.928 103.125 190.841 107.617 C 190.694 115.132,189.083 117.057,182.943 117.057 C 178.681 117.057,176.607 115.766,175.199 112.240 C 174.533 110.570,174.161 93.713,174.712 90.167 C 175.567 84.669,180.467 81.765,186.052 83.446 M248.379 83.470 C 250.455 84.087,251.811 85.264,252.865 87.363 L 253.776 89.180 253.776 99.994 C 253.776 109.699,253.728 110.944,253.312 112.138 C 250.939 118.935,240.152 119.004,237.435 112.240 C 236.766 110.574,236.393 93.052,236.960 89.929 C 237.935 84.559,242.793 81.811,248.379 83.470 M132.552 85.807 L 132.552 88.281 128.776 88.281 L 125.000 88.281 125.000 92.829 L 125.000 97.378 127.669 97.452 L 130.339 97.526 130.339 99.870 L 130.339 102.214 127.669 102.288 L 125.000 102.362 125.000 107.171 L 125.000 111.979 128.776 111.979 L 132.552 111.979 132.552 114.453 L 132.552 116.927 125.781 116.927 L 119.010 116.927 119.010 100.304 C 119.010 91.161,119.089 83.602,119.184 83.507 C 119.280 83.411,122.326 83.333,125.955 83.333 L 132.552 83.333 132.552 85.807 M145.973 83.617 C 151.510 84.641,152.344 86.802,152.344 100.130 C 152.344 115.580,151.576 116.710,140.951 116.882 L 135.417 116.972 135.417 100.153 L 135.417 83.333 139.926 83.333 C 142.406 83.333,145.127 83.461,145.973 83.617 M160.994 96.986 C 161.066 110.394,161.078 110.653,161.615 111.374 C 162.337 112.345,164.400 112.552,165.386 111.754 L 166.016 111.244 166.146 97.354 L 166.276 83.464 168.945 83.389 L 171.615 83.315 171.611 96.931 C 171.608 111.799,171.558 112.386,170.116 114.447 C 167.714 117.881,160.302 118.161,157.241 114.933 C 155.316 112.903,155.347 113.181,155.263 97.461 L 155.187 83.333 158.054 83.333 L 160.920 83.333 160.994 96.986 M205.339 83.919 C 205.715 85.480,211.458 116.010,211.458 116.445 C 211.458 116.912,211.268 116.939,208.532 116.871 L 205.606 116.797 205.110 113.737 L 204.615 110.677 201.787 110.677 C 200.231 110.677,198.958 110.706,198.957 110.742 C 198.956 110.778,198.722 112.155,198.438 113.802 C 198.153 115.449,197.919 116.826,197.918 116.862 C 197.914 117.032,192.448 116.902,192.449 116.732 C 192.449 116.545,198.274 85.541,198.588 84.049 L 198.739 83.333 201.969 83.333 C 205.103 83.333,205.203 83.351,205.339 83.919 M225.521 85.807 L 225.521 88.281 223.307 88.281 L 221.094 88.281 221.094 102.604 L 221.094 116.927 218.099 116.927 L 215.104 116.927 215.104 102.604 L 215.104 88.281 212.891 88.281 L 210.677 88.281 210.677 85.807 L 210.677 83.333 218.099 83.333 L 225.521 83.333 225.521 85.807 M233.791 100.204 L 233.858 116.944 230.926 116.871 L 227.995 116.797 227.927 100.391 C 227.890 91.367,227.917 83.834,227.988 83.650 C 228.083 83.400,228.822 83.334,230.920 83.390 L 233.724 83.464 233.791 100.204 M265.329 92.258 L 268.099 101.052 268.229 92.258 L 268.359 83.464 270.768 83.389 L 273.177 83.314 273.177 100.130 L 273.177 116.946 270.643 116.871 L 268.110 116.797 264.979 106.828 L 261.849 96.859 261.781 106.903 L 261.713 116.947 259.307 116.872 L 256.901 116.797 256.834 100.391 C 256.796 91.367,256.824 83.834,256.894 83.650 C 256.989 83.400,257.721 83.334,259.790 83.390 L 262.559 83.464 265.329 92.258 M243.470 88.782 L 242.708 89.543 242.708 100.090 L 242.708 110.637 243.383 111.438 C 244.778 113.097,247.579 112.300,248.015 110.120 C 248.282 108.787,248.200 91.092,247.923 90.126 C 247.294 87.932,245.009 87.242,243.470 88.782 M141.146 100.102 L 141.146 111.979 142.989 111.979 C 144.683 111.979,144.894 111.917,145.602 111.209 L 146.371 110.440 146.298 100.018 L 146.224 89.597 145.636 89.009 C 145.154 88.528,144.695 88.404,143.097 88.323 L 141.146 88.224 141.146 100.102 M200.812 99.296 C 200.339 102.190,199.889 104.880,199.813 105.273 L 199.674 105.990 201.749 105.990 L 203.823 105.990 202.837 100.101 C 202.295 96.862,201.811 94.172,201.762 94.123 C 201.713 94.074,201.285 96.402,200.812 99.296 M306.604 162.248 C 308.406 162.923,310.092 164.405,311.076 166.183 L 311.849 167.578 311.932 173.372 L 312.015 179.167 303.511 179.167 L 295.007 179.167 295.114 173.763 C 295.239 167.511,295.442 166.666,297.325 164.572 C 299.741 161.886,303.271 161.001,306.604 162.248 M99.743 242.773 L 99.746 312.370 138.740 323.247 L 177.734 334.123 181.747 334.119 L 185.760 334.115 222.112 322.365 C 242.105 315.903,259.723 310.215,261.263 309.726 L 264.063 308.836 264.063 240.985 C 264.063 201.214,264.159 173.170,264.295 173.220 C 264.423 173.268,266.177 174.596,268.192 176.172 L 271.856 179.036 271.800 246.738 L 271.745 314.439 268.750 315.327 C 267.103 315.816,247.892 321.883,226.059 328.811 L 186.362 341.406 181.788 341.418 L 177.214 341.430 134.570 329.640 L 91.927 317.850 91.937 248.443 L 91.947 179.036 95.648 176.118 C 97.684 174.512,99.437 173.194,99.544 173.188 C 99.652 173.182,99.741 204.495,99.743 242.773 M142.586 193.807 L 177.865 214.177 177.865 270.528 C 177.865 321.756,177.827 326.864,177.454 326.721 C 177.227 326.634,161.671 321.929,142.883 316.266 C 124.096 310.602,108.343 305.847,107.878 305.698 L 107.031 305.428 107.031 239.433 C 107.031 203.135,107.093 173.438,107.169 173.438 C 107.245 173.438,123.183 182.604,142.586 193.807 M256.771 239.314 C 256.771 301.788,256.747 305.202,256.315 305.430 C 256.064 305.561,240.156 310.387,220.964 316.153 C 201.771 321.919,185.921 326.691,185.742 326.757 C 185.482 326.854,185.417 315.524,185.417 270.649 L 185.417 214.420 220.898 193.929 C 240.413 182.660,256.468 173.439,256.576 173.438 C 256.683 173.438,256.771 203.082,256.771 239.314 M311.979 244.534 L 311.979 303.391 307.914 317.646 C 305.678 325.486,303.768 331.988,303.670 332.095 C 303.572 332.202,301.593 325.637,299.272 317.507 L 295.052 302.724 295.052 244.201 L 295.052 185.677 303.516 185.677 L 311.979 185.677 311.979 244.534 " stroke="none" fill="#c41c34" fill-rule="evenodd"></path><path id="path2" d="M139.183 50.260 C 139.183 57.493,139.217 60.452,139.258 56.836 C 139.298 53.219,139.298 47.301,139.258 43.685 C 139.217 40.068,139.183 43.027,139.183 50.260 M198.560 53.776 C 198.560 62.943,198.593 66.655,198.633 62.025 C 198.673 57.396,198.673 49.896,198.633 45.359 C 198.593 40.822,198.560 44.609,198.560 53.776 M215.978 39.453 C 215.977 40.742,216.021 41.302,216.076 40.698 C 216.130 40.094,216.131 39.039,216.077 38.354 C 216.023 37.670,215.979 38.164,215.978 39.453 M119.128 53.646 C 119.128 58.730,119.163 60.811,119.205 58.268 C 119.248 55.726,119.248 51.566,119.205 49.023 C 119.163 46.481,119.128 48.561,119.128 53.646 M136.055 53.646 C 136.055 58.730,136.090 60.811,136.132 58.268 C 136.175 55.726,136.175 51.566,136.132 49.023 C 136.090 46.481,136.055 48.561,136.055 53.646 M223.811 64.063 C 223.811 67.572,223.847 69.007,223.892 67.253 C 223.938 65.498,223.938 62.627,223.892 60.872 C 223.847 59.118,223.811 60.553,223.811 64.063 M190.457 68.099 C 190.456 69.388,190.500 69.948,190.555 69.344 C 190.609 68.739,190.610 67.685,190.556 67.000 C 190.502 66.315,190.458 66.810,190.457 68.099 M136.028 72.396 C 136.028 73.613,136.073 74.111,136.128 73.503 C 136.183 72.894,136.183 71.898,136.128 71.289 C 136.073 70.680,136.028 71.178,136.028 72.396 M147.073 70.757 C 147.397 70.819,147.866 70.817,148.115 70.752 C 148.364 70.687,148.099 70.636,147.526 70.639 C 146.953 70.641,146.749 70.695,147.073 70.757 M119.138 100.260 L 119.141 116.797 125.716 116.804 L 132.292 116.811 125.783 116.734 L 119.275 116.658 119.205 100.191 L 119.135 83.724 119.138 100.260 M233.657 100.056 L 233.594 116.649 230.794 116.733 L 227.995 116.816 230.802 116.872 C 232.851 116.912,233.644 116.839,233.735 116.602 C 233.803 116.423,233.828 108.893,233.789 99.870 L 233.720 83.464 233.657 100.056 M126.758 88.214 C 127.796 88.264,129.495 88.264,130.534 88.214 C 131.572 88.165,130.723 88.124,128.646 88.124 C 126.569 88.124,125.719 88.165,126.758 88.214 M141.732 88.207 C 142.126 88.267,142.770 88.267,143.164 88.207 C 143.558 88.148,143.236 88.099,142.448 88.099 C 141.660 88.099,141.338 88.148,141.732 88.207 M212.823 88.209 L 215.100 88.301 215.167 102.549 L 215.234 116.797 218.099 116.797 L 220.964 116.797 221.031 102.549 L 221.098 88.301 223.244 88.211 L 225.391 88.121 223.177 88.136 L 220.964 88.151 220.896 102.409 L 220.829 116.667 218.099 116.667 L 215.369 116.667 215.302 102.409 L 215.234 88.151 212.891 88.134 L 210.547 88.117 212.823 88.209 M82.922 97.526 C 82.922 100.391,82.960 101.598,83.006 100.209 C 83.053 98.820,83.053 96.477,83.007 95.001 C 82.960 93.525,82.922 94.661,82.922 97.526 M41.251 98.568 C 41.252 100.859,41.291 101.762,41.340 100.574 C 41.388 99.385,41.388 97.510,41.339 96.407 C 41.290 95.304,41.251 96.276,41.251 98.568 M187.183 95.505 C 187.940 95.558,189.112 95.557,189.787 95.504 C 190.463 95.450,189.844 95.407,188.411 95.408 C 186.979 95.408,186.426 95.452,187.183 95.505 M130.301 99.870 C 130.300 101.159,130.344 101.719,130.399 101.115 C 130.453 100.510,130.454 99.456,130.400 98.771 C 130.346 98.086,130.302 98.581,130.301 99.870 M268.199 116.742 C 268.313 116.855,269.509 116.913,270.857 116.871 L 273.307 116.793 270.650 116.665 C 269.188 116.594,268.086 116.629,268.199 116.742 M137.552 116.860 C 138.798 116.908,140.907 116.908,142.239 116.861 C 143.572 116.814,142.552 116.775,139.974 116.774 C 137.396 116.774,136.306 116.813,137.552 116.860 M193.954 116.859 C 194.711 116.912,195.883 116.911,196.558 116.858 C 197.234 116.804,196.615 116.761,195.182 116.762 C 193.750 116.762,193.197 116.806,193.954 116.859 M207.096 116.859 C 207.920 116.911,209.268 116.911,210.091 116.859 C 210.915 116.807,210.241 116.765,208.594 116.765 C 206.947 116.765,206.273 116.807,207.096 116.859 M258.138 116.858 C 258.818 116.912,259.932 116.912,260.612 116.858 C 261.292 116.804,260.736 116.761,259.375 116.761 C 258.014 116.761,257.458 116.804,258.138 116.858 M92.055 248.438 C 92.055 286.608,92.086 302.223,92.122 283.138 C 92.159 264.053,92.159 232.822,92.122 213.737 C 92.086 194.652,92.055 210.267,92.055 248.438 M271.615 246.797 C 271.543 284.065,271.572 314.469,271.680 314.361 C 271.788 314.254,271.846 283.762,271.810 246.601 L 271.745 179.036 271.615 246.797 M177.732 270.443 C 177.732 301.380,177.762 313.998,177.799 298.482 C 177.837 282.966,177.837 257.653,177.799 242.232 C 177.762 226.810,177.732 239.505,177.732 270.443 M179.753 334.308 C 180.863 334.357,182.679 334.357,183.789 334.308 C 184.899 334.259,183.991 334.219,181.771 334.219 C 179.551 334.219,178.643 334.259,179.753 334.308 " stroke="none" fill="#dc8c84" fill-rule="evenodd"></path><path id="path3" d="M67.498 36.132 C 69.315 36.177,72.362 36.177,74.268 36.132 C 76.175 36.088,74.688 36.051,70.964 36.051 C 67.240 36.051,65.680 36.087,67.498 36.132 M144.913 50.260 C 144.913 57.637,144.946 60.654,144.987 56.966 C 145.028 53.278,145.028 47.243,144.987 43.555 C 144.946 39.867,144.913 42.884,144.913 50.260 M124.858 53.906 C 124.858 59.421,124.892 61.676,124.935 58.919 C 124.977 56.162,124.977 51.650,124.935 48.893 C 124.892 46.136,124.858 48.392,124.858 53.906 M229.540 63.932 C 229.540 67.513,229.577 69.014,229.621 67.268 C 229.666 65.522,229.667 62.592,229.622 60.757 C 229.577 58.923,229.540 60.352,229.540 63.932 M64.807 60.221 C 64.755 60.400,64.773 67.695,64.847 76.432 L 64.980 92.318 65.042 76.107 C 65.099 61.164,65.072 59.293,64.807 60.221 M122.446 83.528 C 124.263 83.573,127.310 83.573,129.216 83.528 C 131.123 83.484,129.635 83.447,125.911 83.447 C 122.188 83.447,120.628 83.483,122.446 83.528 M137.839 83.528 C 139.243 83.575,141.470 83.574,142.787 83.527 C 144.104 83.480,142.956 83.442,140.234 83.442 C 137.513 83.442,136.435 83.481,137.839 83.528 M156.576 83.526 C 157.399 83.577,158.747 83.577,159.570 83.526 C 160.394 83.474,159.720 83.432,158.073 83.432 C 156.426 83.432,155.752 83.474,156.576 83.526 M166.265 83.659 C 166.197 83.838,166.172 89.844,166.211 97.005 L 166.281 110.026 166.344 96.819 L 166.406 83.612 169.076 83.528 L 171.745 83.443 169.067 83.388 C 167.123 83.348,166.356 83.423,166.265 83.659 M200.336 83.527 C 201.309 83.577,202.833 83.577,203.722 83.526 C 204.611 83.475,203.815 83.434,201.953 83.435 C 200.091 83.435,199.364 83.476,200.336 83.527 M214.404 83.528 C 216.525 83.572,219.924 83.572,221.956 83.528 C 223.988 83.484,222.253 83.448,218.099 83.448 C 213.945 83.448,212.283 83.484,214.404 83.528 M227.984 83.659 C 227.916 83.838,227.891 91.367,227.929 100.391 L 227.999 116.797 228.062 100.204 L 228.125 83.611 230.924 83.528 L 233.724 83.444 230.916 83.389 C 228.868 83.348,228.075 83.421,227.984 83.659 M256.890 83.659 C 256.822 83.838,256.797 91.367,256.836 100.391 L 256.905 116.797 256.968 100.179 L 257.031 83.561 259.872 83.643 C 261.434 83.687,262.658 83.636,262.591 83.529 C 262.371 83.176,257.029 83.298,256.890 83.659 M268.381 83.559 C 268.196 83.858,268.162 101.582,268.346 101.767 C 268.425 101.845,268.490 97.793,268.490 92.762 L 268.490 83.613 270.898 83.527 L 273.307 83.441 270.914 83.387 C 269.597 83.358,268.458 83.435,268.381 83.559 M124.861 92.903 L 124.870 97.526 127.474 97.540 L 130.078 97.553 127.545 97.466 L 125.012 97.378 124.932 92.829 L 124.851 88.281 124.861 92.903 M236.837 100.130 C 236.837 105.430,236.871 107.561,236.914 104.866 C 236.956 102.171,236.956 97.835,236.914 95.230 C 236.871 92.626,236.837 94.831,236.837 100.130 M242.566 100.130 C 242.566 105.430,242.601 107.561,242.643 104.866 C 242.685 102.171,242.685 97.835,242.643 95.230 C 242.600 92.626,242.566 94.831,242.566 100.130 M146.472 100.130 C 146.472 105.286,146.506 107.433,146.549 104.900 C 146.592 102.367,146.592 98.148,146.549 95.525 C 146.507 92.901,146.472 94.974,146.472 100.130 M152.201 100.130 C 152.201 105.286,152.236 107.433,152.278 104.900 C 152.321 102.367,152.321 98.148,152.278 95.525 C 152.236 92.901,152.201 94.974,152.201 100.130 M174.597 100.130 C 174.597 105.286,174.631 107.433,174.674 104.900 C 174.717 102.367,174.717 98.148,174.674 95.525 C 174.632 92.901,174.597 94.974,174.597 100.130 M180.326 100.130 C 180.326 105.286,180.361 107.433,180.403 104.900 C 180.446 102.367,180.446 98.148,180.403 95.525 C 180.361 92.901,180.326 94.974,180.326 100.130 M124.855 102.418 C 124.785 102.601,124.759 104.857,124.798 107.431 L 124.870 112.109 128.776 112.121 L 132.682 112.132 128.841 112.048 L 125.000 111.965 125.000 107.164 L 125.000 102.362 127.669 102.278 L 130.339 102.193 127.661 102.138 C 125.681 102.098,124.950 102.170,124.855 102.418 M47.201 102.799 C 50.459 102.841,55.791 102.841,59.049 102.799 C 62.308 102.758,59.642 102.724,53.125 102.724 C 46.608 102.724,43.942 102.758,47.201 102.799 M78.841 102.796 C 79.593 102.849,80.824 102.849,81.576 102.796 C 82.327 102.744,81.712 102.701,80.208 102.701 C 78.704 102.701,78.089 102.744,78.841 102.796 M200.716 106.180 C 201.325 106.235,202.321 106.235,202.930 106.180 C 203.538 106.125,203.040 106.081,201.823 106.081 C 200.605 106.081,200.107 106.125,200.716 106.180 M141.732 112.166 C 142.126 112.225,142.770 112.225,143.164 112.166 C 143.558 112.106,143.236 112.057,142.448 112.057 C 141.660 112.057,141.338 112.106,141.732 112.166 M295.161 174.219 C 295.161 177.012,295.199 178.154,295.246 176.758 C 295.293 175.361,295.293 173.076,295.246 171.680 C 295.199 170.283,295.161 171.426,295.161 174.219 M256.639 239.323 C 256.639 275.632,256.669 290.485,256.706 272.331 C 256.743 254.176,256.743 224.469,256.706 206.315 C 256.669 188.161,256.639 203.014,256.639 239.323 M295.180 244.401 C 295.180 276.771,295.210 289.974,295.247 273.742 C 295.284 257.510,295.284 231.026,295.247 214.888 C 295.210 198.750,295.180 212.031,295.180 244.401 " stroke="none" fill="#cf645b" fill-rule="evenodd"></path><path id="path4" d="M77.472 64.258 L 77.474 92.318 80.078 92.331 L 82.682 92.345 80.144 92.257 L 77.606 92.169 77.538 64.184 L 77.470 36.198 77.472 64.258 M140.700 37.172 C 141.528 37.224,142.817 37.223,143.564 37.171 C 144.311 37.118,143.633 37.076,142.057 37.077 C 140.482 37.077,139.871 37.120,140.700 37.172 M151.497 37.171 C 152.249 37.224,153.480 37.224,154.232 37.171 C 154.984 37.119,154.368 37.076,152.865 37.076 C 151.361 37.076,150.745 37.119,151.497 37.171 M164.193 37.150 C 166.667 37.341,169.734 37.354,169.622 37.174 C 169.555 37.067,168.072 37.000,166.326 37.025 C 164.580 37.050,163.620 37.106,164.193 37.150 M178.188 53.711 L 178.251 70.443 178.320 53.841 L 178.389 37.240 180.989 37.240 L 183.589 37.240 183.657 51.497 L 183.724 65.755 187.045 65.767 L 190.365 65.780 187.110 65.694 L 183.854 65.609 183.854 51.294 L 183.854 36.979 180.990 36.979 L 178.125 36.979 178.188 53.711 M194.345 37.172 C 195.174 37.224,196.463 37.223,197.210 37.171 C 197.957 37.118,197.279 37.076,195.703 37.077 C 194.128 37.077,193.517 37.120,194.345 37.172 M201.095 39.388 L 201.149 41.797 201.236 39.522 L 201.322 37.248 208.669 37.174 L 216.016 37.101 208.529 37.040 L 201.042 36.979 201.095 39.388 M218.490 37.148 C 220.626 37.339,223.641 37.355,223.528 37.174 C 223.461 37.067,222.095 36.999,220.492 37.023 C 218.890 37.047,217.988 37.103,218.490 37.148 M230.990 37.147 C 233.172 37.340,235.678 37.354,235.678 37.174 C 235.677 37.067,234.417 36.999,232.878 37.023 C 231.338 37.047,230.488 37.103,230.990 37.147 M211.320 55.990 C 211.320 63.939,211.353 67.191,211.393 63.216 C 211.433 59.242,211.433 52.738,211.393 48.763 C 211.353 44.788,211.320 48.040,211.320 55.990 M165.039 59.826 C 165.648 59.881,166.644 59.881,167.253 59.826 C 167.861 59.771,167.363 59.726,166.146 59.726 C 164.928 59.726,164.430 59.771,165.039 59.826 M164.648 64.255 C 165.472 64.307,166.820 64.307,167.643 64.255 C 168.467 64.203,167.793 64.161,166.146 64.161 C 164.499 64.161,163.825 64.203,164.648 64.255 M182.487 83.257 C 182.809 83.319,183.337 83.319,183.659 83.257 C 183.981 83.195,183.717 83.144,183.073 83.144 C 182.428 83.144,182.165 83.195,182.487 83.257 M244.727 83.257 C 245.049 83.319,245.576 83.319,245.898 83.257 C 246.221 83.195,245.957 83.144,245.313 83.144 C 244.668 83.144,244.404 83.195,244.727 83.257 M132.384 85.807 C 132.383 87.096,132.427 87.657,132.482 87.052 C 132.537 86.448,132.537 85.393,132.483 84.708 C 132.430 84.024,132.385 84.518,132.384 85.807 M155.329 96.615 C 155.329 103.848,155.363 106.807,155.403 103.190 C 155.444 99.574,155.444 93.656,155.403 90.039 C 155.363 86.423,155.329 89.382,155.329 96.615 M171.475 96.745 C 171.475 104.049,171.508 107.075,171.549 103.469 C 171.590 99.862,171.590 93.886,171.549 90.187 C 171.509 86.489,171.475 89.440,171.475 96.745 M141.005 100.130 C 141.006 106.719,141.039 109.377,141.081 106.037 C 141.122 102.697,141.122 97.306,141.080 94.058 C 141.039 90.809,141.005 93.542,141.005 100.130 M185.772 92.839 C 185.773 94.271,185.817 94.824,185.869 94.067 C 185.922 93.310,185.922 92.138,185.868 91.463 C 185.815 90.787,185.772 91.406,185.772 92.839 M253.763 100.130 C 253.763 105.143,253.798 107.157,253.841 104.606 C 253.883 102.054,253.883 97.952,253.841 95.491 C 253.798 93.030,253.763 95.117,253.763 100.130 M56.069 92.382 C 57.760 92.428,60.456 92.427,62.059 92.382 C 63.662 92.336,62.279 92.299,58.984 92.299 C 55.690 92.299,54.378 92.337,56.069 92.382 M77.344 109.110 L 77.344 115.355 71.029 115.430 L 64.714 115.504 71.159 115.565 L 77.604 115.625 77.604 109.245 C 77.604 105.736,77.546 102.865,77.474 102.865 C 77.402 102.865,77.344 105.675,77.344 109.110 M185.779 106.510 C 185.779 108.444,185.820 109.235,185.870 108.268 C 185.920 107.301,185.920 105.719,185.870 104.753 C 185.820 103.786,185.779 104.577,185.779 106.510 M132.384 114.453 C 132.383 115.742,132.427 116.302,132.482 115.698 C 132.537 115.094,132.537 114.039,132.483 113.354 C 132.430 112.670,132.385 113.164,132.384 114.453 M303.060 161.903 C 303.382 161.965,303.910 161.965,304.232 161.903 C 304.554 161.840,304.290 161.790,303.646 161.790 C 303.001 161.790,302.738 161.840,303.060 161.903 M99.607 242.708 C 99.607 281.022,99.638 296.696,99.674 277.539 C 99.711 258.382,99.711 227.035,99.674 207.878 C 99.638 188.721,99.607 204.395,99.607 242.708 M264.062 241.068 C 263.991 278.479,264.020 309.000,264.128 308.893 C 264.236 308.785,264.294 278.176,264.258 240.872 L 264.193 173.047 264.062 241.068 M107.159 239.453 C 107.159 275.833,107.190 290.755,107.227 272.612 C 107.263 254.469,107.263 224.704,107.227 206.466 C 107.190 188.229,107.159 203.073,107.159 239.453 M185.545 270.573 C 185.545 301.439,185.575 314.066,185.612 298.633 C 185.649 283.200,185.649 257.946,185.612 242.513 C 185.575 227.080,185.545 239.707,185.545 270.573 " stroke="none" fill="#e49c8c" fill-rule="evenodd"></path></g></svg>