<svg id="svg" version="1.1" xmlns="http://www.w3.org/2000/svg" xmlns:xlink="http://www.w3.org/1999/xlink" width="400" height="400" viewBox="0, 0, 400,400"><g id="svgg"><path id="path4" d="M259.239 171.419 L 257.161 173.568 259.310 171.490 C 261.305 169.561,261.577 169.271,261.387 169.271 C 261.348 169.271,260.381 170.238,259.239 171.419 M263.410 194.336 L 252.734 205.078 263.477 194.402 C 273.461 184.480,274.336 183.594,274.152 183.594 C 274.116 183.594,269.282 188.428,263.410 194.336 M153.125 196.484 C 152.492 197.129,152.033 197.656,152.105 197.656 C 152.177 197.656,152.753 197.129,153.385 196.484 C 154.018 195.840,154.477 195.313,154.405 195.313 C 154.334 195.313,153.758 195.840,153.125 196.484 M233.059 276.497 L 232.161 277.474 233.138 276.577 C 234.047 275.741,234.234 275.521,234.035 275.521 C 233.992 275.521,233.552 275.960,233.059 276.497 M245.433 288.607 L 244.141 289.974 245.508 288.682 C 246.778 287.481,246.994 287.240,246.800 287.240 C 246.759 287.240,246.144 287.855,245.433 288.607 " stroke="none" fill="#fc9484" fill-rule="evenodd"></path><path id="path0" d="M121.254 32.719 C 119.406 33.286,117.453 35.318,116.785 37.370 C 115.921 40.021,116.011 59.890,116.897 62.088 C 118.992 67.288,126.257 68.501,128.169 63.972 L 128.516 63.151 128.646 64.714 L 128.776 66.276 130.794 66.352 L 132.813 66.428 132.813 57.303 L 132.813 48.177 128.776 48.177 L 124.740 48.177 124.740 50.521 L 124.740 52.865 126.042 52.865 L 127.344 52.865 127.344 56.661 L 127.344 60.457 126.583 61.218 C 125.521 62.280,124.043 62.280,122.856 61.219 L 122.005 60.459 122.005 49.479 L 122.005 38.499 122.856 37.739 C 125.295 35.560,127.435 37.039,127.563 40.993 L 127.652 43.750 130.264 43.750 L 132.877 43.750 132.759 40.690 C 132.494 33.767,127.994 30.649,121.254 32.719 M136.001 49.414 L 136.068 66.276 142.773 66.346 L 149.479 66.415 149.479 64.067 L 149.479 61.719 145.573 61.719 L 141.667 61.719 141.667 56.649 L 141.667 51.580 144.466 51.506 L 147.266 51.432 147.341 49.154 L 147.416 46.875 144.541 46.875 L 141.667 46.875 141.667 42.057 L 141.667 37.240 145.573 37.240 L 149.479 37.240 149.479 34.896 L 149.479 32.552 142.706 32.552 L 135.934 32.552 136.001 49.414 M152.604 49.470 L 152.604 66.406 154.948 66.406 L 157.292 66.406 157.300 55.924 C 157.304 49.960,157.404 45.611,157.531 45.833 C 157.654 46.048,158.945 50.033,160.401 54.688 C 161.856 59.342,163.285 63.883,163.576 64.779 L 164.105 66.406 166.558 66.406 L 169.010 66.406 169.010 49.479 L 169.010 32.552 166.670 32.552 L 164.329 32.552 164.261 42.122 L 164.193 51.693 161.187 42.188 L 158.182 32.682 155.393 32.608 L 152.604 32.534 152.604 49.470 M172.199 49.392 L 172.266 66.276 177.604 66.276 C 188.444 66.275,189.313 65.029,189.313 49.479 C 189.313 33.904,188.536 32.766,177.798 32.597 L 172.132 32.508 172.199 49.392 M192.448 49.479 L 192.448 66.406 199.219 66.406 L 205.990 66.406 205.990 64.063 L 205.990 61.719 202.083 61.719 L 198.177 61.719 198.177 56.641 L 198.177 51.563 200.911 51.563 L 203.646 51.563 203.646 49.219 L 203.646 46.875 200.911 46.875 L 198.177 46.875 198.177 42.057 L 198.177 37.240 202.083 37.240 L 205.990 37.240 205.990 34.896 L 205.990 32.552 199.219 32.552 L 192.448 32.552 192.448 49.479 M209.115 49.456 L 209.115 66.406 211.849 66.406 L 214.583 66.406 214.583 58.811 C 214.583 54.633,214.671 51.303,214.779 51.410 C 214.886 51.518,216.102 54.907,217.482 58.941 L 219.989 66.276 222.885 66.350 C 224.924 66.402,225.781 66.335,225.781 66.126 C 225.781 65.963,224.653 62.648,223.273 58.761 C 220.271 50.302,220.396 51.227,222.135 50.340 C 224.541 49.113,224.851 48.274,224.955 42.707 C 225.119 33.964,223.932 32.817,214.518 32.620 L 209.115 32.507 209.115 49.456 M39.844 56.250 L 39.844 78.906 46.063 78.906 L 52.282 78.906 52.387 76.486 C 52.480 74.374,52.595 73.885,53.295 72.645 C 55.497 68.742,61.228 68.821,63.267 72.782 L 63.932 74.075 63.932 86.849 L 63.932 99.623 63.267 100.916 C 60.834 105.643,53.501 104.500,52.368 99.217 C 52.209 98.477,52.083 95.252,52.083 91.914 L 52.083 85.938 45.801 85.938 L 39.518 85.938 39.663 92.773 C 39.981 107.763,43.640 113.320,54.209 114.866 C 65.895 116.574,74.549 111.966,76.992 102.734 C 77.801 99.674,77.714 73.155,76.884 70.182 C 74.756 62.559,69.900 58.780,62.760 59.191 C 58.487 59.437,55.353 60.823,53.354 63.352 L 52.344 64.630 52.344 54.581 L 52.344 44.531 63.932 44.531 L 75.521 44.531 75.521 39.063 L 75.521 33.594 57.682 33.594 L 39.844 33.594 39.844 56.250 M182.065 37.648 C 183.535 38.408,183.594 38.859,183.594 49.479 C 183.594 61.636,183.567 61.719,179.570 61.719 L 177.865 61.719 177.865 49.479 L 177.865 37.240 179.570 37.240 C 180.609 37.240,181.584 37.399,182.065 37.648 M218.632 37.879 C 219.254 38.501,219.271 38.623,219.271 42.448 C 219.271 47.341,219.090 47.656,216.288 47.656 L 214.583 47.656 214.583 42.448 L 214.583 37.240 216.288 37.240 C 217.750 37.240,218.083 37.330,218.632 37.879 M137.621 79.938 C 135.509 80.631,134.119 81.872,133.181 83.903 L 132.422 85.547 132.336 95.833 C 132.219 109.928,132.746 111.728,137.419 113.201 L 138.802 113.637 138.802 114.743 L 138.802 115.848 140.169 116.117 C 144.061 116.883,148.668 117.708,149.048 117.708 C 149.413 117.708,149.479 117.392,149.479 115.662 L 149.479 113.615 147.526 113.281 C 145.358 112.910,145.244 112.807,146.311 112.176 C 148.966 110.608,149.313 109.004,149.421 97.799 C 149.538 85.744,149.280 83.955,147.114 81.790 C 145.004 79.680,140.868 78.873,137.621 79.938 M116.146 96.745 L 116.146 113.542 122.917 113.542 L 129.688 113.542 129.688 111.198 L 129.688 108.854 125.781 108.854 L 121.875 108.854 121.875 103.776 L 121.875 98.698 124.750 98.698 L 127.624 98.698 127.549 96.419 L 127.474 94.141 124.674 94.067 L 121.875 93.993 121.875 89.184 L 121.875 84.375 125.781 84.375 L 129.688 84.375 129.688 82.161 L 129.688 79.948 122.917 79.948 L 116.146 79.948 116.146 96.745 M152.659 93.945 C 152.745 109.950,152.723 109.780,155.043 111.919 C 157.919 114.570,164.139 114.640,166.804 112.051 C 168.940 109.976,168.871 110.550,168.954 94.336 L 169.027 79.948 166.415 79.948 L 163.802 79.948 163.802 93.746 L 163.802 107.544 163.069 108.365 C 161.828 109.753,159.224 109.339,158.582 107.652 C 158.436 107.266,158.333 101.438,158.333 93.473 L 158.333 79.948 155.458 79.948 L 152.583 79.948 152.659 93.945 M176.958 80.534 C 176.681 81.733,170.833 112.973,170.833 113.252 C 170.833 113.445,171.692 113.542,173.420 113.542 C 176.381 113.542,176.103 113.806,176.566 110.547 C 177.078 106.944,176.703 107.292,180.078 107.292 C 182.912 107.292,183.021 107.313,183.151 107.878 C 183.225 108.200,183.486 109.606,183.731 111.003 L 184.176 113.542 187.010 113.542 C 188.831 113.542,189.844 113.443,189.844 113.266 C 189.844 113.114,188.438 105.621,186.719 96.615 C 185.000 87.608,183.594 80.174,183.594 80.094 C 183.594 79.545,177.087 79.977,176.958 80.534 M192.188 96.745 L 192.188 113.542 198.438 113.542 L 204.688 113.542 204.688 111.198 L 204.688 108.854 201.302 108.854 L 197.917 108.854 197.917 94.401 L 197.917 79.948 195.052 79.948 L 192.188 79.948 192.188 96.745 M207.292 96.745 L 207.292 113.542 210.156 113.542 L 213.021 113.542 213.021 96.745 L 213.021 79.948 210.156 79.948 L 207.292 79.948 207.292 96.745 M215.625 82.161 L 215.625 84.375 217.969 84.375 L 220.313 84.375 220.313 98.958 L 220.313 113.542 223.177 113.542 L 226.042 113.542 226.042 98.958 L 226.042 84.375 228.385 84.375 L 230.729 84.375 230.729 82.161 L 230.729 79.948 223.177 79.948 L 215.625 79.948 215.625 82.161 M232.552 80.121 C 232.552 80.226,233.958 84.967,235.677 90.657 L 238.802 101.003 238.802 107.272 L 238.802 113.542 241.536 113.542 L 244.271 113.542 244.271 107.282 L 244.271 101.022 247.396 90.625 C 249.115 84.907,250.521 80.165,250.521 80.088 C 250.521 80.011,249.290 79.948,247.786 79.948 C 245.844 79.948,245.052 80.038,245.052 80.258 C 245.052 80.824,241.854 92.462,241.732 92.340 C 241.667 92.274,240.882 89.488,239.989 86.149 L 238.365 80.078 235.459 80.004 C 233.860 79.964,232.552 80.016,232.552 80.121 M142.221 84.523 C 143.700 85.288,143.750 85.688,143.750 96.875 C 143.750 108.361,143.721 108.566,142.025 109.275 C 140.729 109.816,139.525 109.560,138.688 108.565 L 138.021 107.773 138.021 96.890 C 138.021 86.168,138.029 85.997,138.578 85.300 C 139.523 84.098,140.852 83.815,142.221 84.523 M181.237 96.018 C 181.817 99.476,182.292 102.431,182.292 102.585 C 182.292 102.762,181.482 102.865,180.078 102.865 C 178.861 102.865,177.865 102.809,177.865 102.741 C 177.865 102.673,178.333 99.784,178.906 96.322 C 179.479 92.860,179.948 89.908,179.948 89.762 C 179.948 88.745,180.322 90.560,181.237 96.018 M241.265 151.889 C 241.195 152.070,241.169 156.025,241.207 160.679 L 241.276 169.141 251.369 169.271 L 261.461 169.401 250.553 180.307 L 239.644 191.213 237.075 189.389 C 211.692 171.373,177.056 173.880,154.556 195.362 C 134.476 214.534,128.746 243.862,140.103 269.341 C 148.690 288.606,167.701 303.296,188.410 306.671 L 191.146 307.116 191.146 316.579 L 191.146 326.042 181.402 326.042 C 176.042 326.042,171.472 326.113,171.245 326.200 C 170.880 326.340,170.833 327.422,170.833 335.702 L 170.833 345.046 180.924 345.114 L 191.016 345.182 191.146 354.818 L 191.276 364.453 200.521 364.453 L 209.766 364.453 209.896 354.818 L 210.026 345.182 220.117 345.114 L 230.208 345.046 230.208 335.702 C 230.208 327.422,230.161 326.340,229.796 326.200 C 229.570 326.113,225.000 326.042,219.640 326.042 L 209.896 326.042 209.896 316.418 L 209.896 306.794 210.872 306.623 C 247.812 300.136,271.685 263.232,262.576 226.693 C 260.709 219.202,257.934 212.994,253.117 205.533 C 252.750 204.964,253.057 204.628,263.412 194.270 C 269.283 188.398,274.175 183.594,274.283 183.594 C 274.391 183.594,274.479 187.813,274.479 192.969 L 274.479 202.344 283.335 202.344 L 292.190 202.344 292.124 177.018 L 292.057 151.693 266.724 151.626 C 246.509 151.573,241.365 151.626,241.265 151.889 M207.859 195.285 C 242.645 201.385,259.063 242.782,237.904 271.044 C 216.570 299.539,173.018 295.928,156.781 264.317 C 141.916 235.379,160.389 199.387,192.318 195.076 C 193.464 194.922,194.753 194.745,195.182 194.684 C 197.144 194.406,204.957 194.776,207.859 195.285 M170.052 230.469 L 170.052 238.023 199.674 237.957 L 229.297 237.891 229.297 230.469 L 229.297 223.047 199.674 222.981 L 170.052 222.914 170.052 230.469 M170.170 248.246 C 170.100 248.427,170.075 251.854,170.113 255.863 L 170.182 263.151 199.451 263.217 C 220.863 263.266,228.815 263.205,229.074 262.990 C 229.442 262.684,229.621 249.247,229.269 248.329 C 229.055 247.771,170.384 247.688,170.170 248.246 " stroke="none" fill="#fcfbfb" fill-rule="evenodd"></path><path id="path1" d="M0.000 200.000 L 0.000 400.000 200.000 400.000 L 400.000 400.000 400.000 200.000 L 400.000 0.000 200.000 0.000 L 0.000 0.000 0.000 200.000 M128.859 32.817 C 131.699 34.039,132.813 36.320,132.813 40.915 L 132.813 43.750 130.243 43.750 L 127.674 43.750 127.548 41.139 C 127.379 37.621,126.046 36.267,123.706 37.236 C 121.987 37.948,122.005 37.821,122.005 49.349 C 122.005 61.052,122.025 61.188,123.796 61.677 C 126.477 62.417,127.191 61.386,127.298 56.620 L 127.382 52.865 126.061 52.865 L 124.740 52.865 124.740 50.521 L 124.740 48.177 128.776 48.177 L 132.813 48.177 132.813 57.292 L 132.813 66.406 130.729 66.406 L 128.646 66.406 128.643 64.909 L 128.641 63.411 128.013 64.459 C 125.649 68.402,119.186 67.369,117.031 62.702 L 116.276 61.068 116.195 50.260 C 116.106 38.383,116.199 37.437,117.667 35.293 C 119.713 32.305,124.967 31.143,128.859 32.817 M149.740 34.896 L 149.740 37.240 145.833 37.240 L 141.927 37.240 141.927 41.927 L 141.927 46.615 144.661 46.615 L 147.396 46.615 147.396 49.089 L 147.396 51.563 144.661 51.563 L 141.927 51.563 141.927 56.503 L 141.927 61.444 145.768 61.516 L 149.609 61.589 149.684 63.997 L 149.759 66.406 142.848 66.406 L 135.938 66.406 135.938 49.479 L 135.938 32.552 142.839 32.552 L 149.740 32.552 149.740 34.896 M159.221 35.482 C 159.726 37.093,161.016 41.165,162.088 44.531 L 164.037 50.651 164.050 41.602 L 164.063 32.552 166.667 32.552 L 169.271 32.552 169.271 49.479 L 169.271 66.406 166.601 66.406 L 163.931 66.406 160.807 56.454 L 157.682 46.501 157.614 56.454 L 157.546 66.406 154.945 66.406 L 152.344 66.406 152.344 49.479 L 152.344 32.552 155.324 32.552 L 158.304 32.552 159.221 35.482 M185.286 33.373 C 186.951 34.255,187.558 34.920,188.462 36.850 L 189.193 38.411 189.193 49.219 C 189.193 62.602,188.947 63.632,185.306 65.489 L 183.763 66.276 177.949 66.359 L 172.135 66.442 172.135 49.479 L 172.135 32.517 178.060 32.600 C 183.893 32.681,184.004 32.693,185.286 33.373 M205.990 34.896 L 205.990 37.240 202.083 37.240 L 198.177 37.240 198.177 41.918 L 198.177 46.597 200.977 46.671 L 203.776 46.745 203.851 49.154 L 203.926 51.563 201.051 51.563 L 198.177 51.563 198.177 56.510 L 198.177 61.458 202.083 61.458 L 205.990 61.458 205.990 63.932 L 205.990 66.406 199.089 66.406 L 192.188 66.406 192.188 49.479 L 192.188 32.552 199.089 32.552 L 205.990 32.552 205.990 34.896 M220.673 32.921 C 224.187 33.978,225.130 35.912,225.130 42.057 C 225.130 47.893,224.543 49.448,221.888 50.645 C 220.588 51.232,220.413 50.261,223.275 58.342 C 224.618 62.133,225.798 65.498,225.897 65.820 C 226.076 66.405,226.071 66.406,222.992 66.406 L 219.908 66.406 217.441 59.251 L 214.974 52.095 214.905 59.251 L 214.836 66.406 211.845 66.406 L 208.854 66.406 208.854 49.479 L 208.854 32.552 214.151 32.552 C 217.969 32.552,219.791 32.655,220.673 32.921 M75.721 38.997 L 75.651 44.661 63.997 44.729 L 52.344 44.797 52.344 54.607 L 52.344 64.418 53.190 63.316 C 56.894 58.493,66.400 57.509,71.580 61.411 C 76.838 65.372,77.846 69.443,77.858 86.756 C 77.867 100.309,77.525 103.180,75.430 107.157 C 70.574 116.377,52.710 118.357,44.581 110.576 C 40.820 106.975,39.808 103.403,39.648 93.164 L 39.531 85.677 45.781 85.677 L 52.031 85.677 52.147 92.253 C 52.313 101.767,53.342 103.646,58.381 103.646 C 63.480 103.646,63.932 102.278,63.932 86.849 C 63.932 71.305,63.505 70.052,58.201 70.052 C 54.471 70.052,52.724 72.101,52.418 76.835 L 52.267 79.167 46.055 79.167 L 39.844 79.167 39.844 56.250 L 39.844 33.333 57.818 33.333 L 75.791 33.333 75.721 38.997 M178.125 49.349 L 178.125 61.458 179.933 61.458 C 181.469 61.458,181.852 61.364,182.472 60.830 L 183.203 60.202 183.277 49.730 C 183.365 37.192,183.380 37.240,179.435 37.240 L 178.125 37.240 178.125 49.349 M214.844 42.448 L 214.844 47.729 216.443 47.584 C 219.033 47.349,219.141 47.143,219.141 42.448 C 219.141 37.753,219.033 37.547,216.443 37.312 L 214.844 37.167 214.844 42.448 M145.218 80.276 C 149.185 82.329,149.522 83.692,149.425 97.284 C 149.338 109.437,149.318 109.559,146.994 111.701 C 145.786 112.814,145.781 112.803,147.656 113.151 C 149.572 113.506,149.479 113.372,149.479 115.785 L 149.479 117.992 148.633 117.836 C 148.167 117.751,145.736 117.302,143.229 116.839 L 138.672 115.998 138.595 114.821 C 138.519 113.671,138.490 113.636,137.391 113.342 C 132.883 112.136,132.034 109.507,132.035 96.745 C 132.035 85.603,132.346 83.800,134.661 81.485 C 136.836 79.310,142.170 78.699,145.218 80.276 M129.818 82.161 L 129.818 84.505 125.846 84.577 L 121.875 84.649 121.875 89.330 L 121.875 94.010 124.740 94.010 L 127.604 94.010 127.604 96.484 L 127.604 98.958 124.740 98.958 L 121.875 98.958 121.875 103.906 L 121.875 108.854 125.921 108.854 L 129.967 108.854 129.893 111.263 L 129.818 113.672 122.982 113.741 L 116.146 113.811 116.146 96.745 L 116.146 79.679 122.982 79.748 L 129.818 79.818 129.818 82.161 M158.390 93.471 C 158.462 107.012,158.473 107.267,159.011 107.989 C 159.733 108.958,160.666 109.273,161.907 108.967 C 163.831 108.492,163.801 108.735,163.802 93.294 L 163.802 79.688 166.547 79.688 L 169.292 79.688 169.216 93.945 C 169.141 108.152,169.138 108.208,168.539 109.692 C 166.145 115.619,156.050 115.667,153.334 109.766 L 152.734 108.464 152.661 94.076 L 152.587 79.688 155.452 79.688 L 158.316 79.688 158.390 93.471 M183.728 80.273 C 184.457 83.243,190.023 113.460,189.870 113.616 C 189.760 113.729,188.392 113.787,186.830 113.746 L 183.991 113.672 183.496 110.612 L 183.000 107.552 180.082 107.552 L 177.164 107.552 176.668 110.612 L 176.172 113.672 173.591 113.747 C 172.171 113.788,170.918 113.730,170.806 113.617 C 170.642 113.451,176.551 81.137,176.951 80.013 C 177.193 79.332,183.557 79.577,183.728 80.273 M198.114 94.336 L 198.181 108.854 201.574 108.854 L 204.967 108.854 204.893 111.263 L 204.818 113.672 198.503 113.742 L 192.188 113.811 192.188 96.741 L 192.188 79.670 195.117 79.744 L 198.047 79.818 198.114 94.336 M213.021 96.745 L 213.021 113.802 210.156 113.802 L 207.292 113.802 207.292 96.745 L 207.292 79.688 210.156 79.688 L 213.021 79.688 213.021 96.745 M230.729 82.161 L 230.729 84.635 228.385 84.635 L 226.042 84.635 226.042 99.227 L 226.042 113.819 223.112 113.746 L 220.182 113.672 220.115 99.164 L 220.048 84.656 217.771 84.580 L 215.495 84.505 215.418 82.445 C 215.376 81.312,215.401 80.228,215.475 80.036 C 215.582 79.756,217.095 79.688,223.169 79.688 L 230.729 79.688 230.729 82.161 M240.091 86.026 L 241.771 92.234 243.454 85.961 L 245.138 79.688 247.959 79.688 C 249.511 79.688,250.781 79.727,250.781 79.774 C 250.781 79.822,249.408 84.363,247.730 89.866 L 244.680 99.870 244.540 106.771 L 244.401 113.672 241.536 113.672 L 238.672 113.672 238.538 106.771 L 238.405 99.870 235.348 89.927 C 233.667 84.459,232.292 79.914,232.292 79.828 C 232.292 79.742,233.669 79.704,235.352 79.744 L 238.411 79.818 240.091 86.026 M138.974 85.055 C 138.003 86.026,137.984 86.291,138.072 97.613 L 138.151 107.856 139.002 108.615 C 140.189 109.676,141.667 109.676,142.728 108.614 L 143.490 107.853 143.490 96.875 L 143.490 85.897 142.728 85.136 C 141.685 84.093,139.973 84.056,138.974 85.055 M179.017 96.441 L 177.956 102.865 180.076 102.865 L 182.195 102.865 181.231 96.928 C 180.701 93.662,180.224 90.772,180.172 90.504 C 180.121 90.237,179.601 92.908,179.017 96.441 M292.057 176.953 L 292.057 202.474 283.268 202.543 C 278.434 202.580,274.454 202.580,274.422 202.543 C 274.391 202.505,274.303 198.284,274.227 193.163 L 274.089 183.851 263.484 194.465 L 252.879 205.078 254.324 207.292 C 278.969 245.043,257.182 297.351,213.086 306.299 L 210.156 306.894 210.156 316.468 L 210.156 326.042 220.154 326.042 C 229.031 326.042,230.170 326.088,230.311 326.454 C 230.632 327.290,230.487 344.669,230.156 345.000 C 229.924 345.232,227.310 345.313,220.003 345.313 L 210.163 345.312 210.094 354.883 L 210.026 364.453 200.521 364.453 L 191.016 364.453 190.947 354.883 L 190.879 345.313 181.038 345.313 C 173.732 345.312,171.117 345.232,170.885 345.000 C 170.555 344.669,170.410 327.290,170.731 326.454 C 170.871 326.088,172.011 326.042,180.890 326.042 L 190.892 326.042 190.824 316.624 L 190.755 307.206 188.021 306.740 C 164.018 302.647,143.466 284.184,136.746 260.677 C 124.803 218.900,155.939 177.356,199.211 177.331 C 214.262 177.322,225.387 181.055,239.215 190.754 C 239.503 190.956,241.989 188.609,250.456 180.142 L 261.327 169.271 251.237 169.271 L 241.146 169.271 241.146 160.460 C 241.146 155.614,241.225 151.571,241.321 151.474 C 241.417 151.378,252.872 151.329,266.776 151.366 L 292.057 151.432 292.057 176.953 M193.880 194.969 C 154.089 200.049,137.502 247.932,165.749 276.178 C 196.901 307.330,249.395 283.633,247.104 239.453 C 245.712 212.613,220.531 191.567,193.880 194.969 M229.366 230.321 C 229.420 236.175,229.362 237.902,229.106 238.064 C 228.534 238.427,170.468 238.333,170.104 237.969 C 169.645 237.510,169.658 223.014,170.117 222.828 C 170.296 222.756,183.685 222.717,199.870 222.741 L 229.297 222.786 229.366 230.321 M229.297 255.599 L 229.297 263.151 199.609 263.151 L 169.922 263.151 169.853 255.863 C 169.814 251.854,169.840 248.426,169.910 248.245 C 170.011 247.980,175.933 247.928,199.667 247.981 L 229.297 248.047 229.297 255.599 " stroke="none" fill="#fc3c24" fill-rule="evenodd"></path><path id="path2" d="M124.154 32.215 C 124.476 32.277,125.003 32.277,125.326 32.215 C 125.648 32.153,125.384 32.102,124.740 32.102 C 124.095 32.102,123.831 32.153,124.154 32.215 M149.573 34.896 C 149.573 36.257,149.617 36.813,149.671 36.133 C 149.724 35.452,149.724 34.339,149.671 33.659 C 149.617 32.979,149.573 33.535,149.573 34.896 M208.977 49.349 C 208.977 58.659,209.010 62.430,209.049 57.728 C 209.089 53.027,209.089 45.410,209.049 40.801 C 209.009 36.193,208.977 40.039,208.977 49.349 M57.742 33.528 L 75.510 33.597 75.589 39.064 L 75.667 44.532 75.659 38.998 L 75.651 33.464 57.813 33.461 L 39.974 33.458 57.742 33.528 M214.693 42.448 C 214.693 45.384,214.731 46.585,214.778 45.117 C 214.824 43.649,214.824 41.247,214.778 39.779 C 214.731 38.311,214.693 39.512,214.693 42.448 M225.097 42.318 C 225.098 43.893,225.141 44.504,225.193 43.675 C 225.245 42.847,225.244 41.558,225.192 40.811 C 225.139 40.064,225.097 40.742,225.097 42.318 M157.292 55.859 C 157.292 61.565,157.348 66.177,157.416 66.108 C 157.591 65.934,157.608 45.802,157.434 45.628 C 157.356 45.550,157.292 50.154,157.292 55.859 M203.738 49.089 C 203.737 50.378,203.782 50.938,203.836 50.333 C 203.891 49.729,203.891 48.674,203.838 47.990 C 203.784 47.305,203.739 47.799,203.738 49.089 M214.583 58.724 C 214.583 62.854,214.638 66.178,214.706 66.110 C 214.882 65.934,214.905 51.537,214.729 51.361 C 214.649 51.281,214.583 54.594,214.583 58.724 M149.572 63.932 C 149.571 65.221,149.615 65.782,149.669 65.177 C 149.724 64.573,149.725 63.518,149.671 62.833 C 149.617 62.149,149.572 62.643,149.572 63.932 M42.919 79.101 C 44.681 79.146,47.494 79.146,49.169 79.101 C 50.843 79.055,49.401 79.018,45.964 79.019 C 42.526 79.019,41.156 79.056,42.919 79.101 M119.466 79.882 C 121.364 79.927,124.469 79.927,126.367 79.882 C 128.265 79.838,126.712 79.801,122.917 79.801 C 119.121 79.801,117.568 79.838,119.466 79.882 M153.971 79.880 C 154.795 79.932,156.143 79.932,156.966 79.880 C 157.790 79.828,157.116 79.786,155.469 79.786 C 153.822 79.786,153.148 79.828,153.971 79.880 M166.533 79.877 L 169.006 79.967 169.077 93.173 L 169.148 106.380 169.144 93.099 L 169.141 79.818 166.601 79.803 L 164.061 79.788 166.533 79.877 M178.722 79.881 C 179.695 79.931,181.218 79.931,182.107 79.880 C 182.996 79.829,182.201 79.788,180.339 79.789 C 178.477 79.789,177.749 79.831,178.722 79.881 M193.825 79.880 C 194.653 79.932,195.942 79.932,196.689 79.879 C 197.436 79.827,196.758 79.784,195.182 79.785 C 193.607 79.786,192.996 79.828,193.825 79.880 M208.659 79.880 C 209.482 79.932,210.830 79.932,211.654 79.880 C 212.477 79.828,211.803 79.786,210.156 79.786 C 208.509 79.786,207.835 79.828,208.659 79.880 M219.336 79.882 C 221.449 79.926,224.906 79.926,227.018 79.882 C 229.131 79.838,227.402 79.803,223.177 79.803 C 218.952 79.803,217.223 79.838,219.336 79.882 M232.462 79.883 C 232.396 79.990,233.725 80.078,235.417 80.078 C 237.108 80.078,238.438 79.990,238.371 79.883 C 238.305 79.775,236.975 79.688,235.417 79.688 C 233.858 79.688,232.529 79.775,232.462 79.883 M246.549 79.879 C 247.301 79.932,248.532 79.932,249.284 79.879 C 250.036 79.827,249.421 79.784,247.917 79.784 C 246.413 79.784,245.798 79.827,246.549 79.879 M123.763 84.569 C 124.873 84.617,126.689 84.617,127.799 84.569 C 128.910 84.520,128.001 84.480,125.781 84.480 C 123.561 84.480,122.653 84.520,123.763 84.569 M216.732 84.566 C 217.412 84.620,218.525 84.620,219.206 84.566 C 219.886 84.513,219.329 84.469,217.969 84.469 C 216.608 84.469,216.051 84.513,216.732 84.566 M227.148 84.566 C 227.829 84.620,228.942 84.620,229.622 84.566 C 230.303 84.513,229.746 84.469,228.385 84.469 C 227.025 84.469,226.468 84.513,227.148 84.566 M238.655 107.031 C 238.655 110.684,238.691 112.178,238.736 110.352 C 238.781 108.525,238.781 105.537,238.736 103.711 C 238.691 101.885,238.655 103.379,238.655 107.031 M244.384 107.031 C 244.384 110.684,244.421 112.178,244.465 110.352 C 244.510 108.525,244.510 105.537,244.465 103.711 C 244.421 101.885,244.384 103.379,244.384 107.031 M178.591 107.485 C 179.492 107.536,180.898 107.535,181.716 107.484 C 182.534 107.432,181.797 107.391,180.078 107.391 C 178.359 107.392,177.690 107.434,178.591 107.485 M138.616 114.714 C 138.618 115.430,138.669 115.692,138.729 115.296 C 138.788 114.900,138.787 114.314,138.725 113.994 C 138.663 113.674,138.614 113.997,138.616 114.714 M254.102 151.497 C 261.012 151.536,272.321 151.536,279.232 151.497 C 286.143 151.459,280.488 151.427,266.667 151.427 C 252.845 151.427,247.191 151.459,254.102 151.497 M274.336 192.839 C 274.336 197.995,274.371 200.141,274.414 197.608 C 274.456 195.075,274.456 190.856,274.414 188.233 C 274.371 185.610,274.336 187.682,274.336 192.839 M278.988 202.539 C 281.396 202.582,285.263 202.582,287.582 202.539 C 289.900 202.495,287.930 202.460,283.203 202.460 C 278.477 202.460,276.580 202.496,278.988 202.539 M184.981 222.852 C 193.120 222.890,206.362 222.890,214.408 222.852 C 222.454 222.813,215.794 222.782,199.609 222.782 C 183.424 222.782,176.842 222.813,184.981 222.852 M169.906 230.469 C 169.906 234.551,169.942 236.221,169.986 234.180 C 170.030 232.139,170.030 228.799,169.986 226.758 C 169.942 224.717,169.906 226.387,169.906 230.469 M134.204 242.578 C 134.205 243.724,134.251 244.160,134.306 243.548 C 134.361 242.935,134.360 241.998,134.304 241.464 C 134.248 240.931,134.203 241.432,134.204 242.578 M169.906 255.599 C 169.906 259.609,169.942 261.214,169.986 259.164 C 170.031 257.114,170.030 253.833,169.986 251.872 C 169.942 249.912,169.906 251.589,169.906 255.599 M153.255 288.542 C 154.106 289.401,154.860 290.104,154.932 290.104 C 155.003 290.104,154.366 289.401,153.516 288.542 C 152.665 287.682,151.911 286.979,151.839 286.979 C 151.768 286.979,152.405 287.682,153.255 288.542 M210.014 316.406 C 210.014 321.777,210.048 323.975,210.091 321.289 C 210.133 318.604,210.133 314.209,210.091 311.523 C 210.048 308.838,210.014 311.035,210.014 316.406 M191.003 316.536 C 191.003 321.836,191.038 323.967,191.080 321.272 C 191.123 318.577,191.123 314.241,191.080 311.637 C 191.038 309.032,191.003 311.237,191.003 316.536 M170.690 335.677 C 170.690 340.618,170.725 342.640,170.768 340.169 C 170.811 337.699,170.811 333.656,170.768 331.185 C 170.725 328.714,170.690 330.736,170.690 335.677 M181.051 345.246 L 190.879 345.319 190.952 354.756 L 191.026 364.193 191.021 354.688 L 191.016 345.182 181.120 345.177 L 171.224 345.173 181.051 345.246 M210.014 345.379 C 209.945 345.559,209.921 349.865,209.961 354.949 L 210.033 364.193 210.095 354.756 L 210.156 345.319 219.987 345.247 L 229.818 345.176 219.979 345.114 C 212.280 345.066,210.113 345.123,210.014 345.379 " stroke="none" fill="#fc9c94" fill-rule="evenodd"></path><path id="path3" d="M152.467 49.479 C 152.467 58.861,152.499 62.699,152.539 58.008 C 152.579 53.317,152.579 45.641,152.539 40.951 C 152.499 36.260,152.467 40.098,152.467 49.479 M164.180 41.797 C 164.180 46.953,164.215 49.099,164.257 46.566 C 164.300 44.033,164.300 39.815,164.258 37.191 C 164.215 34.568,164.180 36.641,164.180 41.797 M169.133 49.479 C 169.133 58.861,169.166 62.699,169.206 58.008 C 169.245 53.317,169.245 45.641,169.206 40.951 C 169.166 36.260,169.133 40.098,169.133 49.479 M192.310 49.479 C 192.310 58.861,192.343 62.699,192.383 58.008 C 192.422 53.317,192.422 45.641,192.383 40.951 C 192.343 36.260,192.310 40.098,192.310 49.479 M141.788 41.992 L 141.797 46.745 144.531 46.758 L 147.266 46.771 144.602 46.684 L 141.939 46.597 141.859 41.918 L 141.779 37.239 141.788 41.992 M177.991 49.414 L 177.995 61.589 179.493 61.610 L 180.992 61.631 179.561 61.532 L 178.130 61.432 178.059 49.336 L 177.987 37.240 177.991 49.414 M183.451 49.479 C 183.451 54.564,183.486 56.644,183.528 54.102 C 183.571 51.559,183.571 47.399,183.528 44.857 C 183.486 42.314,183.451 44.395,183.451 49.479 M58.156 44.726 C 61.424 44.768,66.697 44.768,69.875 44.726 C 73.052 44.685,70.378 44.651,63.932 44.651 C 57.487 44.651,54.888 44.685,58.156 44.726 M199.554 46.807 C 200.383 46.859,201.672 46.859,202.418 46.806 C 203.165 46.754,202.487 46.711,200.911 46.712 C 199.336 46.713,198.725 46.755,199.554 46.807 M141.788 56.510 L 141.797 61.589 145.573 61.599 L 149.349 61.609 145.644 61.527 L 141.938 61.444 141.859 56.438 L 141.779 51.432 141.788 56.510 M63.346 59.034 C 63.597 59.099,64.007 59.099,64.258 59.034 C 64.508 58.968,64.303 58.915,63.802 58.915 C 63.301 58.915,63.096 58.968,63.346 59.034 M200.065 61.652 C 201.175 61.701,202.992 61.701,204.102 61.652 C 205.212 61.603,204.303 61.563,202.083 61.563 C 199.863 61.563,198.955 61.603,200.065 61.652 M122.855 66.851 C 123.179 66.913,123.647 66.911,123.896 66.846 C 124.145 66.780,123.880 66.729,123.307 66.732 C 122.734 66.735,122.531 66.789,122.855 66.851 M57.750 69.976 C 58.074 70.038,58.543 70.036,58.792 69.971 C 59.041 69.905,58.776 69.854,58.203 69.857 C 57.630 69.860,57.426 69.914,57.750 69.976 M77.724 86.849 C 77.724 93.008,77.758 95.490,77.799 92.365 C 77.841 89.240,77.841 84.201,77.799 81.167 C 77.758 78.133,77.723 80.690,77.724 86.849 M129.780 82.161 C 129.779 83.451,129.823 84.011,129.878 83.406 C 129.932 82.802,129.933 81.747,129.879 81.063 C 129.825 80.378,129.781 80.872,129.780 82.161 M198.038 94.401 C 198.038 102.422,198.071 105.741,198.112 101.776 C 198.152 97.812,198.152 91.249,198.112 87.193 C 198.071 83.137,198.038 86.380,198.038 94.401 M215.457 82.161 C 215.456 83.451,215.500 84.011,215.555 83.406 C 215.609 82.802,215.610 81.747,215.556 81.063 C 215.502 80.378,215.458 80.872,215.457 82.161 M220.179 99.154 L 220.182 113.672 223.112 113.685 L 226.043 113.699 223.180 113.612 L 220.317 113.525 220.246 99.080 L 220.176 84.635 220.179 99.154 M42.643 85.872 C 44.398 85.917,47.269 85.917,49.023 85.872 C 50.778 85.827,49.342 85.790,45.833 85.790 C 42.324 85.790,40.889 85.827,42.643 85.872 M143.608 96.875 C 143.608 102.389,143.642 104.645,143.685 101.888 C 143.727 99.131,143.727 94.619,143.685 91.862 C 143.642 89.105,143.608 91.361,143.608 96.875 M132.149 96.745 C 132.149 101.901,132.183 104.047,132.226 101.514 C 132.269 98.981,132.269 94.763,132.226 92.139 C 132.184 89.516,132.149 91.589,132.149 96.745 M123.242 98.890 C 124.066 98.942,125.413 98.942,126.237 98.890 C 127.061 98.839,126.387 98.796,124.740 98.796 C 123.092 98.796,122.419 98.839,123.242 98.890 M129.741 111.128 L 129.688 113.533 122.852 113.607 L 116.016 113.681 122.860 113.741 C 130.710 113.811,130.010 114.093,129.882 110.916 L 129.794 108.724 129.741 111.128 M204.741 111.128 L 204.688 113.532 198.372 113.607 L 192.057 113.682 198.381 113.742 C 205.641 113.811,205.010 114.085,204.882 110.916 L 204.794 108.724 204.741 111.128 M183.921 113.281 C 184.007 113.598,184.586 113.675,187.000 113.686 L 189.974 113.701 187.119 113.612 C 185.269 113.554,184.185 113.412,184.039 113.207 C 183.879 112.981,183.845 113.002,183.921 113.281 M172.070 113.734 C 172.822 113.786,174.053 113.786,174.805 113.734 C 175.557 113.681,174.941 113.638,173.438 113.638 C 171.934 113.638,171.318 113.681,172.070 113.734 M208.659 113.734 C 209.482 113.786,210.830 113.786,211.654 113.734 C 212.477 113.682,211.803 113.640,210.156 113.640 C 208.509 113.640,207.835 113.682,208.659 113.734 M240.179 113.734 C 241.008 113.786,242.297 113.786,243.043 113.733 C 243.790 113.681,243.112 113.638,241.536 113.639 C 239.961 113.640,239.350 113.683,240.179 113.734 M57.227 115.295 C 57.835 115.350,58.831 115.350,59.440 115.295 C 60.049 115.240,59.551 115.195,58.333 115.195 C 57.116 115.195,56.618 115.240,57.227 115.295 M248.299 182.293 C 243.425 187.162,239.500 191.146,239.577 191.146 C 239.654 191.146,243.699 187.161,248.568 182.292 C 253.436 177.422,257.361 173.438,257.290 173.439 C 257.219 173.439,253.174 177.424,248.299 182.293 M198.242 194.723 C 198.923 194.776,200.036 194.776,200.716 194.723 C 201.396 194.669,200.840 194.625,199.479 194.625 C 198.118 194.625,197.562 194.669,198.242 194.723 M184.981 238.216 C 193.120 238.254,206.362 238.254,214.408 238.216 C 222.454 238.178,215.794 238.147,199.609 238.147 C 183.424 238.147,176.842 238.178,184.981 238.216 M247.210 241.276 C 247.212 241.992,247.262 242.254,247.322 241.858 C 247.382 241.463,247.381 240.877,247.319 240.556 C 247.257 240.236,247.208 240.560,247.210 241.276 M264.644 242.448 C 264.644 242.949,264.697 243.154,264.763 242.904 C 264.828 242.653,264.828 242.243,264.763 241.992 C 264.697 241.742,264.644 241.947,264.644 242.448 M247.210 243.880 C 247.212 244.596,247.262 244.858,247.322 244.463 C 247.382 244.067,247.381 243.481,247.319 243.160 C 247.257 242.840,247.208 243.164,247.210 243.880 M134.175 245.313 C 134.175 245.814,134.229 246.019,134.294 245.768 C 134.360 245.518,134.360 245.107,134.294 244.857 C 134.229 244.606,134.175 244.811,134.175 245.313 M165.495 276.302 C 166.200 277.018,166.836 277.604,166.908 277.604 C 166.979 277.604,166.461 277.018,165.755 276.302 C 165.050 275.586,164.414 275.000,164.342 275.000 C 164.271 275.000,164.789 275.586,165.495 276.302 M230.326 335.677 C 230.326 340.762,230.361 342.842,230.403 340.299 C 230.446 337.757,230.446 333.597,230.403 331.055 C 230.361 328.512,230.326 330.592,230.326 335.677 " stroke="none" fill="#fc705f" fill-rule="evenodd"></path><path id="path4" d="M259.239 171.419 L 257.161 173.568 259.310 171.490 C 261.305 169.561,261.577 169.271,261.387 169.271 C 261.348 169.271,260.381 170.238,259.239 171.419 M263.410 194.336 L 252.734 205.078 263.477 194.402 C 273.461 184.480,274.336 183.594,274.152 183.594 C 274.116 183.594,269.282 188.428,263.410 194.336 M153.125 196.484 C 152.492 197.129,152.033 197.656,152.105 197.656 C 152.177 197.656,152.753 197.129,153.385 196.484 C 154.018 195.840,154.477 195.313,154.405 195.313 C 154.334 195.313,153.758 195.840,153.125 196.484 M233.059 276.497 L 232.161 277.474 233.138 276.577 C 234.047 275.741,234.234 275.521,234.035 275.521 C 233.992 275.521,233.552 275.960,233.059 276.497 M245.433 288.607 L 244.141 289.974 245.508 288.682 C 246.778 287.481,246.994 287.240,246.800 287.240 C 246.759 287.240,246.144 287.855,245.433 288.607 " stroke="none" fill="#fc9484" fill-rule="evenodd"></path></g></svg>