<svg id="svg" version="1.1" xmlns="http://www.w3.org/2000/svg" xmlns:xlink="http://www.w3.org/1999/xlink" width="400" height="400" viewBox="0, 0, 400,400"><g id="svgg"><path id="path0" d="M121.235 32.737 C 119.095 33.525,117.512 35.207,116.845 37.404 C 116.123 39.781,116.111 59.672,116.831 61.857 C 118.362 66.506,126.497 68.265,130.250 64.758 C 132.023 63.102,132.392 61.829,132.519 56.929 L 132.632 52.571 130.031 52.571 L 127.429 52.571 127.429 56.451 L 127.429 60.330 126.593 61.165 C 125.250 62.508,122.822 62.118,122.056 60.437 C 121.591 59.416,121.570 39.387,122.033 38.481 C 122.572 37.428,123.502 36.870,124.714 36.873 C 126.890 36.878,127.429 37.835,127.429 41.696 L 127.429 44.571 130.000 44.571 L 132.571 44.571 132.571 41.871 C 132.571 36.912,131.519 34.363,128.961 33.123 C 127.184 32.262,123.084 32.057,121.235 32.737 M135.714 49.429 L 135.714 66.286 141.857 66.286 L 148.000 66.286 148.000 64.000 L 148.000 61.714 144.714 61.714 L 141.429 61.714 141.429 47.143 L 141.429 32.571 138.571 32.571 L 135.714 32.571 135.714 49.429 M150.857 49.434 L 150.857 66.296 157.500 66.220 L 164.143 66.143 164.226 63.929 L 164.310 61.714 160.298 61.714 L 156.286 61.714 156.286 56.571 L 156.286 51.429 159.143 51.429 L 162.000 51.429 162.000 49.143 L 162.000 46.857 159.143 46.857 L 156.286 46.857 156.286 42.000 L 156.286 37.143 160.286 37.143 L 164.286 37.143 164.286 34.857 L 164.286 32.571 157.571 32.571 L 150.857 32.571 150.857 49.434 M172.727 33.214 C 172.480 34.340,170.036 47.212,169.702 49.143 C 169.526 50.164,168.825 53.829,168.146 57.286 C 167.466 60.743,166.820 64.182,166.709 64.929 L 166.507 66.286 169.067 66.286 L 171.627 66.286 172.108 63.387 C 172.718 59.716,172.406 60.000,175.821 60.000 L 178.751 60.000 179.304 63.071 L 179.857 66.143 182.643 66.225 C 184.491 66.279,185.429 66.203,185.429 65.999 C 185.429 65.658,183.428 54.981,181.708 46.143 C 181.096 43.000,180.326 38.886,179.997 37.000 C 179.668 35.114,179.332 33.346,179.251 33.071 C 178.994 32.198,172.921 32.331,172.727 33.214 M188.000 49.418 L 188.000 66.286 190.286 66.286 L 192.571 66.286 192.571 55.943 C 192.571 49.517,192.673 45.703,192.839 45.871 C 192.986 46.021,193.902 48.650,194.874 51.714 C 195.847 54.779,197.285 59.311,198.072 61.786 L 199.501 66.286 201.893 66.286 L 204.286 66.286 204.286 49.429 L 204.286 32.571 202.000 32.571 L 199.714 32.571 199.714 42.057 C 199.714 47.503,199.608 51.427,199.464 51.271 C 199.233 51.021,198.485 48.693,194.880 37.000 L 193.559 32.714 190.780 32.633 L 188.000 32.551 188.000 49.418 M213.055 39.643 C 214.945 53.837,216.631 65.862,216.759 66.071 C 217.133 66.679,221.701 66.295,221.851 65.643 C 222.141 64.381,224.857 46.736,224.857 46.116 C 224.857 45.213,225.413 46.424,225.558 47.643 C 225.746 49.228,228.126 63.898,228.455 65.500 C 228.617 66.285,228.618 66.286,231.134 66.286 L 233.651 66.286 233.819 65.357 C 234.159 63.478,238.013 33.759,238.005 33.071 C 238.001 32.637,237.699 32.571,235.714 32.571 C 233.836 32.571,233.429 32.651,233.429 33.016 C 233.429 33.261,233.052 36.443,232.592 40.087 C 232.132 43.732,231.597 48.225,231.404 50.071 C 230.985 54.081,230.745 54.265,230.287 50.929 C 230.098 49.554,229.443 45.150,228.832 41.143 C 228.220 37.136,227.719 33.568,227.717 33.214 C 227.714 32.602,227.607 32.571,225.448 32.571 C 222.869 32.571,223.014 32.420,222.712 35.429 C 222.165 40.877,220.000 55.292,220.000 53.486 C 220.000 53.308,219.809 51.776,219.576 50.081 C 219.343 48.387,218.827 44.107,218.428 40.571 C 218.030 37.036,217.632 33.789,217.543 33.357 L 217.383 32.571 214.748 32.571 L 212.113 32.571 213.055 39.643 M244.179 32.799 C 244.101 32.925,243.832 34.243,243.580 35.728 C 243.329 37.213,242.556 41.386,241.863 45.000 C 239.313 58.308,238.000 65.385,238.000 65.830 C 238.000 66.213,238.404 66.286,240.533 66.286 L 243.066 66.286 243.573 63.134 L 244.080 59.981 247.111 60.062 L 250.143 60.143 250.720 63.143 L 251.297 66.143 254.077 66.225 C 255.823 66.276,256.857 66.198,256.857 66.016 C 256.857 65.856,256.145 62.027,255.275 57.506 C 253.995 50.858,252.554 43.293,250.675 33.357 L 250.526 32.571 247.423 32.571 C 245.716 32.571,244.256 32.674,244.179 32.799 M256.286 34.857 L 256.286 37.143 258.569 37.143 L 260.852 37.143 260.926 51.643 L 261.000 66.143 263.786 66.225 L 266.571 66.306 266.571 51.725 L 266.571 37.143 268.857 37.143 L 271.143 37.143 271.143 34.857 L 271.143 32.571 263.714 32.571 L 256.286 32.571 256.286 34.857 M274.000 49.429 L 274.000 66.286 280.714 66.286 L 287.429 66.286 287.429 64.000 L 287.429 61.714 283.422 61.714 L 279.415 61.714 279.493 56.643 L 279.571 51.571 282.357 51.490 L 285.143 51.408 285.143 49.133 L 285.143 46.857 282.279 46.857 L 279.415 46.857 279.493 42.071 L 279.571 37.286 283.500 37.206 L 287.429 37.127 287.429 34.849 L 287.429 32.571 280.714 32.571 L 274.000 32.571 274.000 49.429 M290.571 49.398 L 290.571 66.286 293.286 66.286 L 296.000 66.286 296.000 58.657 C 296.000 54.318,296.107 51.146,296.248 51.300 C 296.385 51.449,297.557 54.657,298.853 58.429 C 301.881 67.238,301.204 66.286,304.439 66.286 C 305.926 66.286,307.141 66.189,307.139 66.071 C 307.133 65.696,306.093 62.592,304.015 56.741 C 302.904 53.612,302.028 51.041,302.069 51.026 C 305.539 49.786,306.373 48.334,306.523 43.268 C 306.789 34.338,305.250 32.790,295.929 32.612 L 290.571 32.510 290.571 49.398 M55.143 33.299 C 47.729 34.879,43.615 39.118,41.495 47.361 C 41.044 49.115,41.000 51.503,41.000 74.286 L 41.000 99.286 41.805 101.857 C 44.442 110.278,49.205 114.230,57.769 115.106 C 69.612 116.316,77.792 111.253,79.909 101.403 C 80.562 98.365,80.674 80.438,80.063 76.898 C 78.454 67.585,74.153 63.595,65.708 63.579 C 60.046 63.569,57.957 64.586,54.790 68.897 C 53.926 70.074,54.174 48.902,55.044 47.286 C 56.586 44.419,59.720 43.294,63.232 44.346 C 66.026 45.183,66.836 46.999,67.061 52.929 L 67.221 57.143 73.363 57.143 L 79.505 57.143 79.304 52.643 C 78.751 40.300,75.289 35.184,66.224 33.312 C 63.514 32.752,57.739 32.745,55.143 33.299 M299.519 37.475 C 300.723 38.116,300.839 38.556,300.848 42.514 C 300.859 47.202,300.546 47.714,297.673 47.714 L 296.000 47.714 296.000 42.429 L 296.000 37.143 297.447 37.143 C 298.243 37.143,299.176 37.292,299.519 37.475 M176.130 43.929 C 176.238 44.675,176.702 47.393,177.163 49.968 C 178.295 56.301,178.446 55.714,175.692 55.714 L 173.383 55.714 173.548 54.929 C 173.760 53.921,175.429 43.190,175.429 42.837 C 175.429 41.959,175.968 42.797,176.130 43.929 M248.380 48.929 C 248.959 52.425,249.432 55.382,249.431 55.500 C 249.429 55.618,248.400 55.714,247.143 55.714 C 245.465 55.714,244.857 55.616,244.857 55.345 C 244.857 55.142,245.307 52.314,245.857 49.060 C 246.407 45.807,246.857 43.016,246.857 42.858 C 246.857 41.106,247.527 43.775,248.380 48.929 M63.186 74.293 C 66.575 75.234,67.000 76.906,67.000 89.286 L 67.000 99.571 66.286 100.998 C 64.032 105.499,57.465 105.500,55.044 101.000 C 54.334 99.682,53.927 80.964,54.557 78.625 C 55.531 75.007,59.174 73.179,63.186 74.293 M187.429 79.678 C 183.348 80.566,181.529 83.306,181.764 88.212 C 181.938 91.856,182.464 92.755,187.357 97.783 C 191.867 102.418,192.286 103.104,192.286 105.870 C 192.286 109.070,189.927 110.532,187.736 108.689 C 186.858 107.950,186.857 107.945,186.857 104.975 L 186.857 102.000 184.286 102.000 L 181.714 102.000 181.716 105.071 C 181.719 111.832,185.127 114.857,191.449 113.711 C 196.079 112.871,197.697 110.723,197.708 105.400 C 197.718 100.656,197.297 99.886,191.381 93.827 C 189.217 91.611,187.314 89.449,187.152 89.023 C 186.194 86.505,187.400 84.000,189.568 84.000 C 191.650 84.000,192.571 85.268,192.571 88.134 L 192.571 89.714 195.033 89.714 L 197.495 89.714 197.373 86.929 C 197.126 81.252,193.234 78.414,187.429 79.678 M314.857 79.678 C 312.381 80.217,310.484 81.693,309.374 83.946 C 308.608 85.502,308.183 105.247,308.857 108.000 C 310.547 114.901,321.360 116.138,324.478 109.787 L 325.286 108.143 325.286 96.714 C 325.286 85.287,325.286 85.286,324.605 83.780 C 323.175 80.614,318.872 78.804,314.857 79.678 M121.604 80.500 C 121.522 80.775,121.069 83.057,120.596 85.571 C 120.123 88.086,119.221 92.843,118.591 96.143 C 117.393 102.421,115.429 113.077,115.429 113.299 C 115.429 113.431,120.559 113.488,120.587 113.357 C 120.595 113.318,120.820 111.936,121.087 110.286 L 121.571 107.286 124.485 107.204 C 127.939 107.108,127.770 106.949,128.309 110.786 L 128.681 113.429 131.483 113.429 C 133.025 113.429,134.286 113.363,134.286 113.284 C 134.286 112.966,132.762 104.674,131.714 99.286 C 131.102 96.143,130.136 91.129,129.567 88.143 C 128.998 85.157,128.402 82.104,128.242 81.357 L 127.953 80.000 124.853 80.000 C 122.147 80.000,121.734 80.064,121.604 80.500 M136.857 96.704 L 136.857 113.429 139.286 113.429 L 141.714 113.429 141.737 103.071 L 141.759 92.714 142.281 94.286 C 142.568 95.150,143.663 98.621,144.714 102.000 C 145.766 105.379,147.010 109.332,147.479 110.786 L 148.333 113.429 150.738 113.429 L 153.143 113.429 153.143 96.714 L 153.143 80.000 150.857 80.000 L 148.571 80.000 148.571 89.343 C 148.571 94.481,148.463 98.564,148.331 98.414 C 148.200 98.265,147.287 95.571,146.303 92.429 C 145.320 89.286,144.035 85.236,143.449 83.429 L 142.382 80.143 139.620 80.061 L 136.857 79.979 136.857 96.704 M156.571 96.693 L 156.571 113.429 161.847 113.429 C 169.260 113.429,170.668 112.901,172.344 109.496 L 173.286 107.583 173.286 96.691 L 173.286 85.800 172.283 83.828 C 171.409 82.108,171.082 81.748,169.712 81.000 L 168.143 80.143 162.357 80.050 L 156.571 79.958 156.571 96.693 M205.298 82.929 C 205.022 84.539,204.368 88.043,203.846 90.714 C 203.323 93.386,202.377 98.400,201.742 101.857 C 201.108 105.314,200.344 109.332,200.046 110.786 L 199.503 113.429 202.136 113.429 L 204.770 113.429 205.256 110.500 C 205.854 106.898,205.618 107.104,209.025 107.203 L 211.857 107.286 212.410 110.357 L 212.963 113.429 215.790 113.429 L 218.617 113.429 218.464 112.643 C 218.290 111.749,216.503 102.372,214.148 90.000 C 213.266 85.364,212.476 81.218,212.392 80.786 L 212.240 80.000 209.021 80.000 L 205.802 80.000 205.298 82.929 M221.143 96.704 L 221.143 113.429 223.425 113.429 L 225.707 113.429 225.782 103.071 L 225.857 92.714 227.186 96.714 C 227.917 98.914,229.179 102.836,229.991 105.429 C 230.803 108.021,231.694 110.850,231.971 111.714 L 232.475 113.286 234.952 113.368 L 237.429 113.451 237.429 96.725 L 237.429 80.000 235.143 80.000 L 232.857 80.000 232.857 89.343 C 232.857 94.701,232.750 98.570,232.607 98.414 C 232.469 98.265,231.902 96.729,231.345 95.000 C 230.361 91.943,227.317 82.292,226.884 80.857 C 226.675 80.167,226.573 80.140,223.905 80.061 L 221.143 79.979 221.143 96.704 M240.857 96.714 L 240.857 113.429 243.571 113.429 L 246.286 113.429 246.286 96.714 L 246.286 80.000 243.571 80.000 L 240.857 80.000 240.857 96.714 M249.143 82.143 L 249.143 84.286 251.429 84.286 L 253.714 84.286 253.714 98.857 L 253.714 113.429 256.571 113.429 L 259.429 113.429 259.429 98.857 L 259.429 84.286 261.714 84.286 L 264.000 84.286 264.000 82.143 L 264.000 80.000 256.571 80.000 L 249.143 80.000 249.143 82.143 M268.340 87.500 C 267.544 91.625,266.421 97.507,265.843 100.571 C 264.943 105.338,264.542 107.486,263.588 112.643 L 263.443 113.429 265.988 113.429 C 268.901 113.429,268.638 113.702,269.154 110.143 C 269.592 107.117,269.561 107.143,272.739 107.143 C 275.862 107.143,275.745 107.034,276.274 110.410 C 276.784 113.658,276.519 113.429,279.764 113.429 C 282.340 113.429,282.596 113.381,282.463 112.929 C 282.206 112.051,277.922 89.763,276.835 83.643 L 276.187 80.000 272.986 80.000 L 269.786 80.000 268.340 87.500 M281.714 82.143 L 281.714 84.286 284.143 84.286 L 286.571 84.286 286.571 98.857 L 286.571 113.429 289.283 113.429 L 291.995 113.429 292.069 98.929 L 292.143 84.429 294.500 84.346 L 296.857 84.263 296.857 82.131 L 296.857 80.000 289.286 80.000 L 281.714 80.000 281.714 82.143 M299.429 96.714 L 299.429 113.429 302.286 113.429 L 305.143 113.429 305.143 96.714 L 305.143 80.000 302.286 80.000 L 299.429 80.000 299.429 96.714 M328.857 96.704 L 328.857 113.429 331.143 113.429 L 333.429 113.429 333.429 103.286 C 333.429 93.504,333.571 91.893,334.242 94.071 C 335.012 96.574,337.642 104.923,338.921 108.929 L 340.358 113.429 342.751 113.429 L 345.143 113.429 345.143 96.714 L 345.143 80.000 342.857 80.000 L 340.571 80.000 340.571 89.343 C 340.571 99.159,340.488 99.644,339.432 96.000 C 338.692 93.443,335.566 83.594,334.854 81.571 L 334.351 80.143 331.604 80.061 L 328.857 79.979 328.857 96.704 M319.127 84.997 L 319.857 85.727 319.930 96.363 C 320.010 108.155,320.023 108.066,318.194 108.961 C 316.729 109.678,315.237 109.172,314.500 107.707 C 313.742 106.201,313.742 87.230,314.500 85.718 C 315.428 83.869,317.652 83.522,319.127 84.997 M166.919 85.405 L 167.714 86.295 167.714 96.741 L 167.714 107.187 166.904 107.998 C 166.083 108.819,164.288 109.303,162.830 109.097 L 162.143 109.000 162.068 97.000 C 162.027 90.400,162.062 84.822,162.146 84.604 C 162.462 83.781,165.998 84.374,166.919 85.405 M125.716 95.429 C 126.051 97.707,126.441 100.086,126.584 100.714 C 127.080 102.901,127.122 102.857,124.538 102.857 L 122.219 102.857 122.376 102.071 C 122.463 101.639,122.939 98.843,123.435 95.857 C 124.709 88.186,124.654 88.196,125.716 95.429 M210.116 96.286 C 210.681 99.664,211.143 102.525,211.143 102.643 C 211.143 102.761,210.114 102.857,208.857 102.857 C 207.600 102.857,206.569 102.761,206.566 102.643 C 206.542 101.701,208.713 89.744,208.877 89.918 C 208.993 90.042,209.551 92.907,210.116 96.286 M273.859 95.869 C 274.424 99.163,274.952 102.082,275.033 102.357 C 275.166 102.806,274.931 102.857,272.743 102.857 C 270.915 102.857,270.335 102.768,270.429 102.500 C 270.499 102.304,270.951 99.571,271.435 96.429 C 272.319 90.688,272.534 89.582,272.729 89.776 C 272.786 89.834,273.295 92.576,273.859 95.869 M125.949 162.140 C 125.615 162.874,125.570 162.577,130.152 190.000 C 130.847 194.164,132.132 201.943,133.007 207.286 C 133.881 212.629,135.169 220.407,135.868 224.571 C 137.034 231.517,140.305 251.332,145.020 280.000 C 146.040 286.207,147.315 293.857,147.852 297.000 C 148.389 300.143,149.113 304.573,149.461 306.845 C 149.984 310.268,150.205 311.088,150.748 311.631 L 151.403 312.286 166.558 312.286 C 178.140 312.286,181.714 312.366,181.714 312.628 C 181.714 312.816,181.965 315.677,182.272 318.985 C 183.334 330.448,183.714 334.819,183.714 335.551 L 183.714 336.286 177.501 336.286 L 171.288 336.286 185.857 350.857 L 200.426 365.429 214.929 350.929 L 229.431 336.429 223.287 336.352 C 218.653 336.293,217.144 336.188,217.148 335.923 C 217.151 335.730,217.273 334.414,217.420 333.000 C 217.567 331.586,217.949 327.086,218.268 323.000 C 218.588 318.914,218.928 314.832,219.024 313.929 L 219.199 312.286 234.568 312.286 C 248.909 312.286,249.979 312.252,250.568 311.774 C 251.125 311.323,251.346 310.338,252.442 303.417 C 254.687 289.243,256.270 279.065,256.861 275.000 C 257.181 272.800,257.883 268.236,258.420 264.857 C 258.957 261.479,259.790 256.143,260.269 253.000 C 261.654 243.933,262.761 236.759,264.128 228.000 C 264.828 223.521,265.862 216.900,266.426 213.286 C 266.990 209.671,267.961 203.324,268.582 199.181 C 269.204 195.037,269.962 190.152,270.268 188.324 C 270.574 186.496,271.035 183.521,271.293 181.714 C 271.550 179.907,272.328 174.901,273.022 170.590 C 274.173 163.431,274.244 162.694,273.849 162.090 L 273.415 161.429 199.844 161.429 L 126.273 161.429 125.949 162.140 M267.891 168.214 C 267.810 168.489,267.284 171.671,266.721 175.286 C 265.033 186.139,263.837 192.715,263.553 192.704 C 263.406 192.698,262.514 192.521,261.571 192.310 C 258.169 191.550,253.597 192.296,248.360 194.466 C 227.869 202.958,212.691 203.107,193.286 195.009 C 177.643 188.481,172.573 188.110,160.000 192.574 C 150.351 196.000,138.087 198.248,137.613 196.677 C 137.525 196.383,137.119 194.407,136.712 192.286 C 136.304 190.164,135.341 185.214,134.572 181.286 C 133.802 177.357,132.965 172.986,132.711 171.571 C 132.458 170.157,132.180 168.711,132.094 168.357 L 131.938 167.714 199.988 167.714 C 264.664 167.714,268.031 167.739,267.891 168.214 M203.191 221.000 C 205.080 223.886,212.232 234.785,215.003 239.000 C 220.208 246.918,222.199 250.556,223.392 254.325 C 228.835 271.531,218.265 286.207,200.429 286.207 C 185.617 286.207,175.584 276.362,176.073 262.307 C 176.377 253.573,177.586 251.183,194.987 224.922 C 200.302 216.901,200.342 216.851,200.829 217.495 C 201.099 217.851,202.162 219.429,203.191 221.000 " stroke="none" fill="#fbfbfb" fill-rule="evenodd"></path><path id="path1" d="M0.000 200.000 L 0.000 400.000 200.000 400.000 L 400.000 400.000 400.000 200.000 L 400.000 0.000 200.000 0.000 L 0.000 0.000 0.000 200.000 M128.429 32.576 C 131.386 33.457,132.691 36.203,132.706 41.571 L 132.714 44.714 130.000 44.714 L 127.286 44.714 127.143 41.474 C 126.984 37.865,126.594 37.143,124.807 37.143 C 122.139 37.143,122.000 37.752,122.000 49.429 C 122.000 61.078,122.154 61.771,124.741 61.771 C 126.701 61.771,126.979 61.160,127.143 56.493 L 127.286 52.429 130.000 52.429 L 132.714 52.429 132.695 56.714 C 132.660 64.601,130.524 67.084,124.015 66.805 C 119.092 66.593,116.688 64.226,115.969 58.884 C 115.497 55.376,115.779 39.389,116.343 37.680 C 117.910 32.933,122.757 30.886,128.429 32.576 M67.701 33.257 C 75.786 35.521,79.009 40.689,79.344 51.929 L 79.508 57.429 73.218 57.429 L 66.928 57.429 66.778 53.214 C 66.525 46.068,65.287 44.250,60.674 44.250 C 55.285 44.250,54.526 46.176,54.638 59.571 L 54.714 68.714 55.644 67.423 C 60.723 60.368,74.041 61.906,78.155 70.023 C 81.762 77.141,81.995 99.484,78.535 106.377 C 75.412 112.596,70.061 115.270,60.714 115.280 C 49.318 115.293,43.331 110.717,41.229 100.385 C 40.442 96.519,40.443 51.821,41.230 47.776 C 42.885 39.273,47.659 34.307,55.571 32.861 C 57.707 32.471,65.842 32.736,67.701 33.257 M141.429 47.000 L 141.429 61.429 144.857 61.429 L 148.286 61.429 148.286 64.000 L 148.286 66.571 142.000 66.571 L 135.714 66.571 135.714 49.571 L 135.714 32.571 138.571 32.571 L 141.429 32.571 141.429 47.000 M164.286 35.000 L 164.286 37.429 160.429 37.429 L 156.571 37.429 156.571 41.990 L 156.571 46.551 159.357 46.633 L 162.143 46.714 162.143 49.143 L 162.143 51.571 159.357 51.653 L 156.571 51.735 156.571 56.582 L 156.571 61.429 160.429 61.429 L 164.286 61.429 164.286 64.000 L 164.286 66.571 157.429 66.571 L 150.571 66.571 150.571 49.571 L 150.571 32.571 157.429 32.571 L 164.286 32.571 164.286 35.000 M180.376 37.643 C 180.948 40.432,181.564 43.614,181.745 44.714 C 181.925 45.814,182.512 48.900,183.048 51.571 C 184.041 56.522,185.714 65.751,185.714 66.280 C 185.714 66.460,184.572 66.571,182.735 66.571 L 179.755 66.571 179.459 65.071 C 179.297 64.246,179.084 63.057,178.986 62.429 C 178.631 60.158,178.826 60.286,175.734 60.286 L 172.935 60.286 172.749 61.643 C 172.647 62.389,172.423 63.804,172.252 64.786 L 171.941 66.571 169.114 66.571 C 165.763 66.571,165.980 67.167,167.134 61.143 C 168.433 54.356,170.757 42.031,171.577 37.571 C 171.981 35.371,172.379 33.346,172.461 33.071 C 172.592 32.632,173.017 32.571,175.973 32.571 L 179.336 32.571 180.376 37.643 M195.312 37.643 C 196.206 40.432,197.492 44.386,198.168 46.429 L 199.397 50.143 199.413 41.357 L 199.429 32.571 202.000 32.571 L 204.571 32.571 204.571 49.571 L 204.571 66.571 201.904 66.571 L 199.236 66.571 198.167 63.071 C 197.578 61.146,196.539 57.836,195.857 55.714 C 195.174 53.593,194.329 50.856,193.978 49.632 C 193.626 48.408,193.230 47.340,193.098 47.258 C 192.966 47.176,192.857 51.493,192.857 56.851 L 192.857 66.594 190.357 66.511 L 187.857 66.429 187.783 49.500 L 187.710 32.571 190.697 32.571 L 193.685 32.571 195.312 37.643 M217.714 32.795 C 217.714 32.918,218.088 35.843,218.544 39.295 C 219.001 42.747,219.543 47.023,219.748 48.796 C 220.176 52.479,220.369 52.310,220.834 47.847 C 221.185 44.478,222.480 34.648,222.743 33.357 L 222.903 32.571 225.451 32.571 C 227.299 32.571,228.000 32.670,228.002 32.929 C 228.006 33.932,230.645 51.736,230.770 51.611 C 230.971 51.410,233.143 34.082,233.143 32.684 C 233.143 32.622,234.300 32.571,235.714 32.571 C 237.582 32.571,238.285 32.669,238.284 32.929 C 238.282 33.722,237.074 43.431,236.143 50.143 C 235.599 54.071,234.956 59.086,234.715 61.286 C 234.071 67.179,234.480 66.571,231.157 66.571 C 228.704 66.571,228.305 66.504,228.180 66.071 C 228.101 65.796,227.768 63.707,227.440 61.429 C 226.460 54.626,225.365 48.158,225.152 47.920 C 224.955 47.698,223.972 53.505,222.770 62.000 L 222.143 66.429 219.454 66.511 C 216.117 66.614,216.387 66.969,215.689 61.552 C 215.366 59.048,214.476 52.436,213.711 46.857 C 212.945 41.279,212.230 35.782,212.122 34.643 L 211.926 32.571 214.820 32.571 C 216.412 32.571,217.714 32.672,217.714 32.795 M251.234 34.786 C 251.487 36.004,251.902 38.157,252.157 39.571 C 252.574 41.886,253.873 48.741,256.297 61.429 C 256.762 63.864,257.143 66.018,257.143 66.214 C 257.143 66.637,251.279 66.737,251.020 66.318 C 250.934 66.179,250.726 65.054,250.558 63.818 C 250.025 59.897,250.399 60.286,247.157 60.286 C 243.897 60.286,244.178 60.008,243.731 63.661 C 243.355 66.730,243.535 66.571,240.412 66.571 C 238.033 66.571,237.714 66.512,237.714 66.071 C 237.714 65.509,237.956 64.159,239.979 53.429 C 242.716 38.912,243.743 33.568,243.890 33.071 C 244.021 32.632,244.446 32.571,247.406 32.571 L 250.774 32.571 251.234 34.786 M271.429 35.000 L 271.429 37.429 269.143 37.429 L 266.857 37.429 266.857 52.010 L 266.857 66.591 263.786 66.510 L 260.714 66.429 260.640 51.929 L 260.566 37.429 258.283 37.429 L 256.000 37.429 256.000 35.000 L 256.000 32.571 263.714 32.571 L 271.429 32.571 271.429 35.000 M287.654 34.929 L 287.571 37.286 283.643 37.365 L 279.714 37.445 279.714 41.998 L 279.714 46.551 282.500 46.633 L 285.286 46.714 285.286 49.143 L 285.286 51.571 282.500 51.653 L 279.714 51.735 279.714 56.574 L 279.714 61.412 283.643 61.492 L 287.571 61.571 287.571 64.000 L 287.571 66.429 280.643 66.505 L 273.714 66.582 273.714 49.577 L 273.714 32.571 280.726 32.571 L 287.737 32.571 287.654 34.929 M302.365 32.874 C 307.878 34.405,308.853 47.755,303.658 50.576 L 302.334 51.295 303.054 53.290 C 303.450 54.388,304.454 57.214,305.286 59.571 C 306.117 61.929,307.000 64.409,307.248 65.084 C 307.810 66.615,307.804 66.618,304.123 66.511 L 301.286 66.429 300.096 63.000 C 299.442 61.114,298.349 57.900,297.668 55.857 L 296.429 52.143 296.352 59.357 L 296.276 66.571 293.281 66.571 L 290.286 66.571 290.286 49.571 L 290.286 32.571 295.786 32.573 C 298.811 32.574,301.771 32.709,302.365 32.874 M296.286 42.394 L 296.286 47.429 297.857 47.429 C 300.391 47.429,300.571 47.099,300.571 42.483 C 300.571 37.829,300.488 37.664,298.038 37.487 L 296.286 37.360 296.286 42.394 M175.747 43.746 C 175.500 45.061,173.714 55.215,173.714 55.305 C 173.714 55.373,174.625 55.429,175.737 55.429 L 177.760 55.429 177.595 54.643 C 177.504 54.211,177.166 52.057,176.842 49.857 C 176.266 45.931,175.812 43.401,175.747 43.746 M246.857 44.367 C 246.857 44.972,245.631 52.864,245.261 54.643 L 245.097 55.429 247.143 55.429 L 249.188 55.429 249.026 54.643 C 248.535 52.258,247.429 45.273,247.429 44.554 C 247.429 44.092,247.300 43.714,247.143 43.714 C 246.986 43.714,246.857 44.008,246.857 44.367 M57.688 74.950 C 54.842 76.451,54.571 77.704,54.571 89.391 C 54.571 99.592,54.740 100.797,56.402 102.459 C 59.041 105.098,64.181 104.316,65.854 101.021 L 66.714 99.328 66.800 89.643 C 66.892 79.215,66.753 77.892,65.385 76.152 C 63.906 74.272,60.101 73.677,57.688 74.950 M194.646 80.373 C 196.632 81.537,197.522 83.549,197.668 87.205 L 197.781 90.000 194.890 90.000 L 192.000 90.000 192.000 87.769 C 192.000 85.114,191.703 84.592,190.067 84.373 C 188.369 84.145,187.521 84.761,187.275 86.402 C 186.933 88.679,187.423 89.480,192.003 94.143 C 197.325 99.560,197.782 100.365,197.945 104.619 C 198.195 111.150,195.656 114.082,189.714 114.122 C 183.595 114.163,181.256 111.410,181.480 104.429 L 181.571 101.571 184.286 101.571 L 187.000 101.571 187.143 104.757 C 187.313 108.544,187.642 109.146,189.544 109.138 C 191.413 109.131,192.000 108.325,192.000 105.765 C 192.000 103.255,191.673 102.730,187.358 98.322 C 182.066 92.915,181.594 92.039,181.581 87.571 C 181.568 83.140,182.777 81.000,185.967 79.805 C 187.850 79.101,193.055 79.441,194.646 80.373 M321.607 80.216 C 325.339 82.167,325.996 84.638,325.996 96.714 C 325.996 107.492,325.701 109.225,323.429 111.813 C 320.526 115.120,313.139 114.934,310.283 111.482 C 308.465 109.285,308.286 107.960,308.286 96.736 C 308.286 84.555,308.575 83.048,311.312 80.960 C 313.546 79.256,319.016 78.861,321.607 80.216 M128.398 80.214 C 128.481 80.489,128.742 81.936,128.979 83.429 C 129.216 84.921,129.857 88.329,130.402 91.000 C 130.947 93.671,131.601 97.079,131.855 98.571 C 132.108 100.064,132.823 103.797,133.444 106.866 C 134.985 114.491,135.196 113.750,131.504 113.653 L 128.437 113.571 127.904 110.643 L 127.372 107.714 124.573 107.714 L 121.773 107.714 121.467 109.500 C 121.299 110.482,121.077 111.832,120.973 112.500 L 120.784 113.714 117.963 113.714 C 114.548 113.714,114.712 114.715,116.569 105.179 C 119.631 89.463,121.143 81.390,121.143 80.756 C 121.143 79.752,121.277 79.714,124.886 79.714 C 127.839 79.714,128.265 79.775,128.398 80.214 M143.014 81.000 C 144.003 84.261,147.009 93.829,147.592 95.571 L 148.261 97.571 148.274 88.643 L 148.286 79.714 150.857 79.714 L 153.429 79.714 153.429 96.714 L 153.429 113.714 150.734 113.714 C 148.182 113.714,148.029 113.680,147.860 113.071 C 147.458 111.617,144.123 101.025,142.981 97.571 L 141.752 93.857 141.733 103.786 L 141.714 113.714 139.143 113.714 L 136.571 113.714 136.571 96.705 L 136.571 79.695 139.620 79.776 L 142.668 79.857 143.014 81.000 M169.798 80.662 C 173.276 82.707,173.571 83.973,173.571 96.857 C 173.571 108.527,173.441 109.416,171.433 111.425 C 169.348 113.509,169.138 113.561,162.357 113.663 L 156.286 113.755 156.286 96.714 L 156.286 79.674 162.357 79.765 C 168.427 79.857,168.429 79.857,169.798 80.662 M213.401 84.500 C 214.734 91.611,217.062 103.839,218.017 108.744 C 218.479 111.118,218.857 113.207,218.857 113.387 C 218.857 113.613,217.891 113.714,215.744 113.714 L 212.630 113.714 212.293 111.214 C 211.772 107.351,212.111 107.682,208.766 107.776 L 205.863 107.857 205.684 109.143 C 205.585 109.850,205.414 111.168,205.303 112.071 L 205.102 113.714 202.265 113.714 C 199.814 113.714,199.429 113.650,199.429 113.241 C 199.429 112.697,200.000 109.519,202.015 98.857 C 204.607 85.147,205.460 80.721,205.607 80.214 C 205.735 79.775,206.159 79.714,209.129 79.714 L 212.505 79.714 213.401 84.500 M227.948 83.357 C 229.447 88.015,231.834 95.561,232.217 96.857 C 232.437 97.601,232.521 95.532,232.542 88.786 L 232.571 79.714 235.143 79.714 L 237.714 79.714 237.714 96.714 L 237.714 113.714 235.024 113.714 L 232.333 113.714 231.337 110.643 C 230.790 108.954,229.544 105.000,228.568 101.857 C 227.592 98.714,226.625 95.629,226.419 95.000 C 226.095 94.010,226.042 95.188,226.023 103.786 L 226.000 113.714 223.429 113.714 L 220.857 113.714 220.857 96.714 L 220.857 79.714 223.816 79.714 L 226.775 79.714 227.948 83.357 M246.571 96.714 L 246.571 113.714 243.571 113.714 L 240.571 113.714 240.571 96.714 L 240.571 79.714 243.571 79.714 L 246.571 79.714 246.571 96.714 M264.225 82.214 L 264.143 84.714 261.929 84.798 L 259.714 84.881 259.714 99.298 L 259.714 113.714 256.571 113.714 L 253.429 113.714 253.429 99.298 L 253.429 84.881 251.214 84.798 L 249.000 84.714 248.917 82.214 L 248.835 79.714 256.571 79.714 L 264.308 79.714 264.225 82.214 M276.670 81.643 C 276.907 82.704,277.493 85.629,277.971 88.143 C 280.391 100.849,282.023 109.508,282.375 111.500 L 282.765 113.714 279.705 113.714 L 276.644 113.714 276.179 111.173 C 275.923 109.776,275.714 108.421,275.714 108.163 C 275.714 107.754,275.344 107.705,272.786 107.776 L 269.858 107.857 269.512 110.143 C 268.917 114.071,269.269 113.714,265.995 113.714 C 264.426 113.714,263.143 113.618,263.143 113.500 C 263.143 113.382,263.589 110.971,264.134 108.143 C 265.332 101.924,267.706 89.370,268.740 83.786 L 269.493 79.714 272.866 79.714 L 276.240 79.714 276.670 81.643 M296.857 82.286 L 296.857 84.857 294.571 84.857 L 292.286 84.857 292.286 99.286 L 292.286 113.714 289.286 113.714 L 286.286 113.714 286.286 99.298 L 286.286 84.881 284.071 84.798 L 281.857 84.714 281.775 82.214 L 281.692 79.714 289.275 79.714 L 296.857 79.714 296.857 82.286 M305.429 96.714 L 305.429 113.714 302.429 113.714 L 299.429 113.714 299.429 96.714 L 299.429 79.714 302.429 79.714 L 305.429 79.714 305.429 96.714 M336.300 85.143 C 337.228 88.050,338.494 91.971,339.112 93.857 L 340.237 97.286 340.261 88.500 L 340.286 79.714 342.857 79.714 L 345.429 79.714 345.429 96.714 L 345.429 113.714 342.748 113.714 L 340.067 113.714 339.309 111.214 C 338.891 109.839,338.051 107.171,337.441 105.286 C 336.831 103.400,335.840 100.250,335.238 98.286 L 334.143 94.714 334.000 104.143 L 333.857 113.571 331.214 113.654 L 328.571 113.736 328.571 96.715 L 328.571 79.695 331.592 79.776 L 334.612 79.857 336.300 85.143 M316.075 84.626 C 314.328 85.090,314.286 85.380,314.287 96.772 C 314.288 106.406,314.320 107.053,314.845 107.913 C 315.841 109.547,318.163 109.541,319.162 107.903 C 320.261 106.100,319.906 84.857,318.776 84.857 C 318.740 84.857,318.326 84.750,317.855 84.618 C 317.385 84.487,316.584 84.490,316.075 84.626 M162.286 96.857 L 162.286 108.857 163.728 108.857 C 167.554 108.857,167.714 108.369,167.714 96.714 C 167.714 84.949,167.686 84.857,164.019 84.857 L 162.286 84.857 162.286 96.857 M208.571 91.501 C 208.571 91.874,208.186 94.520,207.714 97.382 C 207.243 100.243,206.857 102.646,206.857 102.721 C 206.857 102.796,207.767 102.857,208.880 102.857 L 210.903 102.857 210.742 102.071 C 210.302 99.910,209.143 92.545,209.143 91.907 C 209.143 91.505,209.014 91.097,208.857 91.000 C 208.697 90.901,208.571 91.122,208.571 91.501 M271.763 96.357 C 271.240 99.382,270.750 102.082,270.673 102.357 C 270.549 102.799,270.766 102.857,272.552 102.857 C 274.037 102.857,274.571 102.757,274.571 102.479 C 274.571 101.622,272.886 90.857,272.752 90.857 C 272.731 90.857,272.286 93.332,271.763 96.357 M124.474 91.714 C 124.255 92.288,123.234 98.285,122.995 100.402 C 122.890 101.330,122.739 102.262,122.658 102.473 C 122.543 102.772,122.959 102.857,124.541 102.857 C 126.961 102.857,126.838 103.492,125.701 96.903 C 124.719 91.208,124.700 91.125,124.474 91.714 M274.015 162.000 C 274.583 162.803,274.751 161.434,271.716 180.714 C 270.949 185.586,270.177 190.664,270.000 192.000 C 269.824 193.336,269.183 197.450,268.577 201.143 C 267.970 204.836,267.389 208.564,267.286 209.429 C 267.182 210.293,266.525 214.536,265.825 218.857 C 265.126 223.179,264.366 228.129,264.138 229.857 C 263.910 231.586,263.267 235.764,262.708 239.143 C 262.149 242.521,261.499 246.700,261.263 248.429 C 261.027 250.157,260.336 254.593,259.728 258.286 C 259.120 261.979,258.545 265.643,258.450 266.429 C 258.287 267.776,257.220 274.691,253.996 295.286 C 253.234 300.157,252.384 305.742,252.109 307.696 C 251.385 312.831,253.411 312.286,235.059 312.286 L 219.546 312.286 218.612 322.500 C 218.098 328.118,217.603 333.454,217.512 334.357 L 217.347 336.000 223.674 336.000 C 227.153 336.000,230.000 336.082,230.000 336.183 C 230.000 336.283,223.382 342.985,215.294 351.076 L 200.587 365.787 199.575 364.898 C 197.391 362.981,171.143 336.576,171.143 336.297 C 171.143 336.101,173.234 336.000,177.319 336.000 L 183.494 336.000 183.321 334.500 C 183.225 333.675,183.014 331.007,182.851 328.571 C 182.541 323.927,181.820 315.571,181.551 313.500 L 181.394 312.286 166.170 312.286 C 151.599 312.286,150.925 312.263,150.457 311.745 C 149.945 311.180,148.804 305.437,147.699 297.857 C 147.378 295.657,146.678 291.414,146.144 288.429 C 145.610 285.443,144.970 281.586,144.722 279.857 C 144.473 278.129,143.760 273.821,143.136 270.286 C 142.513 266.750,141.820 262.571,141.596 261.000 C 141.373 259.429,140.674 255.186,140.043 251.571 C 139.413 247.957,138.756 243.973,138.585 242.718 C 138.413 241.463,137.769 237.602,137.155 234.139 C 136.540 230.676,135.952 227.138,135.848 226.278 C 135.745 225.418,135.144 221.757,134.514 218.143 C 133.884 214.529,133.073 209.643,132.712 207.286 C 132.053 202.981,130.810 195.488,128.425 181.429 C 127.718 177.264,127.001 172.829,126.832 171.571 C 126.662 170.314,126.277 167.943,125.976 166.302 C 125.296 162.597,125.297 162.417,126.001 161.714 C 126.570 161.144,126.882 161.142,200.041 161.214 L 273.510 161.286 274.015 162.000 M132.286 168.043 C 132.286 168.225,132.866 171.278,133.576 174.829 C 134.285 178.380,135.508 184.500,136.294 188.429 C 137.080 192.357,137.721 195.880,137.719 196.258 L 137.714 196.944 140.643 196.761 C 146.331 196.405,151.466 195.196,160.956 191.978 C 173.157 187.840,176.626 188.107,192.571 194.415 C 213.371 202.643,225.600 202.829,245.571 195.221 C 254.498 191.821,254.259 191.883,258.429 191.870 C 261.016 191.861,262.345 191.973,262.810 192.237 C 263.682 192.734,263.554 193.092,264.423 187.714 C 265.580 180.552,267.390 169.687,267.599 168.643 L 267.786 167.714 200.036 167.714 C 149.095 167.714,132.286 167.796,132.286 168.043 M199.915 217.808 C 199.835 218.017,197.399 221.778,194.502 226.166 C 177.395 252.070,176.228 254.429,176.211 263.143 C 176.191 273.737,183.087 282.651,193.327 285.266 C 195.830 285.905,204.809 285.894,207.410 285.249 C 223.586 281.235,229.622 262.319,219.669 246.831 C 219.123 245.981,217.856 244.000,216.855 242.429 C 214.902 239.365,212.511 235.692,206.719 226.857 C 200.111 216.778,200.243 216.954,199.915 217.808 " stroke="none" fill="#24bce4" fill-rule="evenodd"></path><path id="path2" d="M124.075 32.205 C 124.510 32.271,125.153 32.269,125.504 32.201 C 125.855 32.133,125.500 32.080,124.714 32.082 C 123.929 32.084,123.641 32.139,124.075 32.205 M199.556 41.571 C 199.556 46.600,199.595 48.617,199.642 46.053 C 199.690 43.490,199.690 39.376,199.642 36.911 C 199.595 34.445,199.556 36.543,199.556 41.571 M256.126 35.000 L 256.143 37.286 258.429 37.303 L 260.714 37.320 258.511 37.220 L 256.308 37.120 256.208 34.917 L 256.108 32.714 256.126 35.000 M273.854 49.429 L 273.857 66.429 280.571 66.436 L 287.286 66.444 280.645 66.360 L 274.005 66.275 273.927 49.352 L 273.850 32.429 273.854 49.429 M156.412 37.512 C 156.334 37.715,156.309 39.869,156.357 42.298 L 156.445 46.714 156.508 42.080 L 156.571 37.445 160.357 37.356 L 164.143 37.268 160.348 37.205 C 157.464 37.158,156.519 37.231,156.412 37.512 M266.762 37.333 C 266.657 37.438,266.571 43.991,266.571 51.894 L 266.571 66.265 263.856 66.363 L 261.142 66.461 263.928 66.445 L 266.714 66.429 266.788 51.941 L 266.862 37.453 269.074 37.355 L 271.286 37.258 269.119 37.200 C 267.927 37.169,266.867 37.229,266.762 37.333 M281.487 37.354 C 282.541 37.409,284.341 37.410,285.487 37.355 C 286.634 37.301,285.771 37.256,283.571 37.256 C 281.371 37.255,280.434 37.300,281.487 37.354 M296.932 37.348 C 297.367 37.414,298.010 37.412,298.361 37.344 C 298.712 37.276,298.357 37.222,297.571 37.225 C 296.786 37.227,296.498 37.282,296.932 37.348 M121.842 49.429 C 121.842 54.536,121.881 56.625,121.928 54.071 C 121.975 51.518,121.975 47.339,121.928 44.786 C 121.881 42.232,121.842 44.321,121.842 49.429 M128.643 44.781 C 129.389 44.840,130.611 44.840,131.357 44.781 C 132.104 44.723,131.493 44.674,130.000 44.674 C 128.507 44.674,127.896 44.723,128.643 44.781 M156.412 51.797 C 156.335 51.999,156.310 54.281,156.357 56.868 L 156.444 61.571 156.508 56.653 L 156.571 51.735 159.357 51.642 L 162.143 51.548 159.348 51.488 C 157.287 51.444,156.516 51.525,156.412 51.797 M281.081 51.640 C 281.911 51.697,283.197 51.697,283.938 51.638 C 284.679 51.580,284.000 51.532,282.429 51.533 C 280.857 51.534,280.251 51.582,281.081 51.640 M128.643 52.496 C 129.389 52.555,130.611 52.555,131.357 52.496 C 132.104 52.437,131.493 52.389,130.000 52.389 C 128.507 52.389,127.896 52.437,128.643 52.496 M40.707 74.143 C 40.707 85.929,40.742 90.792,40.786 84.950 C 40.829 79.108,40.829 69.465,40.786 63.521 C 40.742 57.577,40.707 62.357,40.707 74.143 M177.714 55.095 C 177.714 55.313,176.999 55.448,175.643 55.485 L 173.571 55.540 175.543 55.641 C 177.369 55.735,178.392 55.439,177.910 54.957 C 177.802 54.850,177.714 54.912,177.714 55.095 M245.113 55.514 C 245.239 55.640,246.230 55.703,247.314 55.654 L 249.286 55.566 247.084 55.426 C 245.874 55.349,244.986 55.388,245.113 55.514 M69.929 57.356 C 71.696 57.406,74.589 57.406,76.357 57.356 C 78.125 57.306,76.679 57.265,73.143 57.265 C 69.607 57.265,68.161 57.306,69.929 57.356 M169.143 66.286 L 166.429 66.462 169.055 66.517 C 170.559 66.548,171.756 66.449,171.857 66.286 C 171.954 66.129,171.994 66.025,171.945 66.055 C 171.897 66.085,170.636 66.189,169.143 66.286 M199.330 66.357 C 199.403 66.475,200.540 66.571,201.857 66.571 C 203.174 66.571,204.312 66.475,204.384 66.357 C 204.457 66.239,203.320 66.143,201.857 66.143 C 200.394 66.143,199.257 66.239,199.330 66.357 M293.286 66.286 L 290.429 66.461 293.197 66.516 C 294.798 66.548,296.041 66.451,296.143 66.286 C 296.240 66.129,296.280 66.025,296.231 66.055 C 296.183 66.086,294.857 66.189,293.286 66.286 M138.627 66.499 C 140.308 66.549,143.136 66.549,144.913 66.499 C 146.689 66.449,145.314 66.408,141.857 66.407 C 138.400 66.407,136.946 66.448,138.627 66.499 M154.071 66.499 C 155.918 66.549,158.939 66.549,160.786 66.499 C 162.632 66.449,161.121 66.409,157.429 66.409 C 153.736 66.409,152.225 66.449,154.071 66.499 M181.367 66.497 C 182.197 66.555,183.483 66.554,184.224 66.495 C 184.965 66.437,184.286 66.389,182.714 66.390 C 181.143 66.391,180.536 66.439,181.367 66.497 M189.071 66.495 C 189.739 66.555,190.832 66.555,191.500 66.495 C 192.168 66.435,191.621 66.386,190.286 66.386 C 188.950 66.386,188.404 66.435,189.071 66.495 M218.080 66.496 C 218.831 66.555,219.988 66.554,220.651 66.494 C 221.315 66.435,220.700 66.386,219.286 66.387 C 217.871 66.388,217.329 66.437,218.080 66.496 M229.786 66.496 C 230.532 66.555,231.754 66.555,232.500 66.496 C 233.246 66.437,232.636 66.389,231.143 66.389 C 229.650 66.389,229.039 66.437,229.786 66.496 M238.929 66.496 C 239.675 66.555,240.896 66.555,241.643 66.496 C 242.389 66.437,241.779 66.389,240.286 66.389 C 238.793 66.389,238.182 66.437,238.929 66.496 M252.795 66.497 C 253.626 66.555,254.911 66.554,255.652 66.495 C 256.394 66.437,255.714 66.389,254.143 66.390 C 252.571 66.391,251.965 66.439,252.795 66.497 M303.081 66.497 C 303.911 66.555,305.197 66.554,305.938 66.495 C 306.679 66.437,306.000 66.389,304.429 66.390 C 302.857 66.391,302.251 66.439,303.081 66.497 M136.705 96.714 C 136.705 105.986,136.742 109.737,136.786 105.051 C 136.830 100.365,136.830 92.779,136.786 88.194 C 136.741 83.609,136.705 87.443,136.705 96.714 M148.222 88.885 C 148.179 93.772,148.237 97.918,148.353 98.099 C 148.468 98.280,148.565 94.282,148.567 89.214 C 148.569 84.146,148.511 80.000,148.437 80.000 C 148.362 80.000,148.266 83.998,148.222 88.885 M153.277 96.714 C 153.277 105.986,153.313 109.737,153.357 105.051 C 153.401 100.365,153.401 92.779,153.357 88.194 C 153.313 83.609,153.277 87.443,153.277 96.714 M156.420 96.714 C 156.420 105.986,156.456 109.737,156.500 105.051 C 156.544 100.365,156.544 92.779,156.500 88.194 C 156.456 83.609,156.420 87.443,156.420 96.714 M220.991 96.714 C 220.991 105.986,221.027 109.737,221.071 105.051 C 221.115 100.365,221.115 92.779,221.071 88.194 C 221.027 83.609,220.991 87.443,220.991 96.714 M246.420 96.714 C 246.420 105.986,246.456 109.737,246.500 105.051 C 246.544 100.365,246.544 92.779,246.500 88.194 C 246.456 83.609,246.420 87.443,246.420 96.714 M264.098 82.143 C 264.099 83.400,264.149 83.879,264.210 83.207 C 264.270 82.535,264.269 81.506,264.208 80.921 C 264.146 80.336,264.097 80.886,264.098 82.143 M328.705 96.714 C 328.705 105.986,328.742 109.737,328.786 105.051 C 328.830 100.365,328.830 92.779,328.786 88.194 C 328.741 83.609,328.705 87.443,328.705 96.714 M340.222 88.885 C 340.179 93.771,340.239 97.829,340.357 97.901 C 340.475 97.974,340.571 93.976,340.571 89.017 C 340.571 84.058,340.511 80.000,340.437 80.000 C 340.362 80.000,340.266 83.998,340.222 88.885 M66.983 89.143 C 66.983 93.779,67.023 95.675,67.071 93.357 C 67.119 91.039,67.119 87.246,67.071 84.929 C 67.023 82.611,66.983 84.507,66.983 89.143 M80.696 88.857 C 80.696 92.864,80.736 94.504,80.785 92.500 C 80.834 90.496,80.834 87.218,80.785 85.214 C 80.736 83.211,80.696 84.850,80.696 88.857 M189.214 84.197 C 189.489 84.269,189.939 84.269,190.214 84.197 C 190.489 84.125,190.264 84.066,189.714 84.066 C 189.164 84.066,188.939 84.125,189.214 84.197 M286.418 99.000 C 286.418 107.014,286.455 110.334,286.500 106.377 C 286.545 102.420,286.545 95.863,286.500 91.806 C 286.455 87.748,286.418 90.986,286.418 99.000 M181.522 87.571 C 181.524 88.671,181.575 89.086,181.637 88.494 C 181.699 87.901,181.698 87.001,181.635 86.494 C 181.572 85.986,181.521 86.471,181.522 87.571 M197.525 87.714 C 197.525 88.893,197.575 89.375,197.637 88.786 C 197.698 88.196,197.698 87.232,197.637 86.643 C 197.575 86.054,197.525 86.536,197.525 87.714 M319.843 96.714 C 319.843 102.057,319.881 104.202,319.928 101.482 C 319.975 98.761,319.975 94.390,319.928 91.767 C 319.881 89.145,319.842 91.371,319.843 96.714 M314.128 96.714 C 314.128 101.900,314.166 104.062,314.214 101.518 C 314.261 98.975,314.261 94.732,314.214 92.090 C 314.167 89.447,314.128 91.529,314.128 96.714 M189.417 91.786 C 190.601 93.047,190.857 93.274,190.857 93.059 C 190.857 93.014,190.246 92.403,189.500 91.702 L 188.143 90.429 189.417 91.786 M225.843 103.286 C 225.843 108.943,225.881 111.298,225.928 108.519 C 225.975 105.739,225.975 101.111,225.928 98.233 C 225.882 95.355,225.843 97.629,225.843 103.286 M186.961 104.714 C 186.962 106.286,187.010 106.892,187.068 106.062 C 187.126 105.232,187.125 103.946,187.067 103.205 C 187.008 102.464,186.961 103.143,186.961 104.714 M59.929 104.202 C 60.282 104.270,60.861 104.270,61.214 104.202 C 61.568 104.134,61.279 104.078,60.571 104.078 C 59.864 104.078,59.575 104.134,59.929 104.202 M192.086 105.714 C 192.086 106.579,192.139 106.932,192.205 106.500 C 192.270 106.068,192.270 105.361,192.205 104.929 C 192.139 104.496,192.086 104.850,192.086 105.714 M257.786 191.919 C 258.218 191.984,258.925 191.984,259.357 191.919 C 259.789 191.853,259.436 191.800,258.571 191.800 C 257.707 191.800,257.354 191.853,257.786 191.919 M224.667 263.143 C 224.667 264.321,224.718 264.804,224.780 264.214 C 224.841 263.625,224.841 262.661,224.780 262.071 C 224.718 261.482,224.667 261.964,224.667 263.143 M183.451 335.351 C 183.429 335.987,183.414 335.989,177.357 336.072 L 171.286 336.155 177.366 336.220 C 183.690 336.288,184.078 336.218,183.621 335.081 C 183.540 334.879,183.464 335.001,183.451 335.351 M220.643 336.213 C 222.332 336.264,225.096 336.264,226.786 336.213 C 228.475 336.163,227.093 336.121,223.714 336.121 C 220.336 336.121,218.954 336.163,220.643 336.213 " stroke="none" fill="#70d3ec" fill-rule="evenodd"></path><path id="path3" d="M59.643 32.778 C 60.154 32.841,60.989 32.841,61.500 32.778 C 62.011 32.715,61.593 32.663,60.571 32.663 C 59.550 32.663,59.132 32.715,59.643 32.778 M150.705 49.429 C 150.705 58.779,150.741 62.604,150.786 57.929 C 150.830 53.254,150.830 45.604,150.786 40.929 C 150.741 36.254,150.705 40.079,150.705 49.429 M204.420 49.286 C 204.420 58.557,204.456 62.309,204.500 57.622 C 204.544 52.936,204.544 45.350,204.500 40.765 C 204.456 36.180,204.420 40.014,204.420 49.286 M271.243 34.857 C 271.243 36.193,271.292 36.739,271.352 36.071 C 271.412 35.404,271.412 34.311,271.352 33.643 C 271.292 32.975,271.243 33.521,271.243 34.857 M290.420 49.429 C 290.420 58.779,290.456 62.604,290.500 57.929 C 290.544 53.254,290.544 45.604,290.500 40.929 C 290.456 36.254,290.420 40.079,290.420 49.429 M46.125 37.786 L 45.286 38.714 46.214 37.875 C 47.080 37.093,47.274 36.857,47.053 36.857 C 47.004 36.857,46.586 37.275,46.125 37.786 M296.119 42.429 C 296.119 45.414,296.162 46.597,296.213 45.057 C 296.265 43.516,296.264 41.073,296.213 39.628 C 296.161 38.183,296.119 39.443,296.119 42.429 M279.545 42.143 C 279.545 44.814,279.588 45.946,279.641 44.657 C 279.694 43.368,279.694 41.182,279.642 39.800 C 279.589 38.417,279.546 39.471,279.545 42.143 M116.128 49.571 C 116.128 54.914,116.167 57.060,116.214 54.339 C 116.261 51.618,116.261 47.247,116.214 44.625 C 116.167 42.002,116.128 44.229,116.128 49.571 M192.571 56.000 C 192.571 61.710,192.633 66.320,192.707 66.245 C 192.899 66.053,192.920 45.967,192.728 45.776 C 192.642 45.690,192.571 50.290,192.571 56.000 M79.228 50.857 C 79.228 51.721,79.282 52.075,79.348 51.643 C 79.413 51.211,79.413 50.504,79.348 50.071 C 79.282 49.639,79.228 49.993,79.228 50.857 M66.967 53.714 C 66.967 55.679,67.013 56.482,67.069 55.500 C 67.124 54.518,67.124 52.911,67.069 51.929 C 67.013 50.946,66.967 51.750,66.967 53.714 M296.062 58.586 L 296.124 66.143 296.276 58.857 C 296.360 54.850,296.332 51.449,296.214 51.300 C 296.096 51.151,296.028 54.429,296.062 58.586 M279.547 56.714 C 279.547 59.543,279.590 60.661,279.642 59.200 C 279.694 57.738,279.693 55.424,279.641 54.057 C 279.589 52.690,279.546 53.886,279.547 56.714 M230.771 52.684 C 230.654 52.981,230.625 53.292,230.708 53.374 C 230.968 53.635,231.197 53.208,231.088 52.665 C 230.988 52.168,230.973 52.169,230.771 52.684 M172.757 60.214 C 172.684 60.332,173.609 60.394,174.812 60.351 C 178.651 60.215,179.091 60.097,175.945 60.048 C 174.265 60.022,172.831 60.096,172.757 60.214 M245.510 60.211 C 246.420 60.268,247.834 60.268,248.653 60.210 C 249.473 60.153,248.729 60.106,247.000 60.107 C 245.271 60.108,244.601 60.155,245.510 60.211 M148.100 64.000 C 148.100 65.336,148.149 65.882,148.209 65.214 C 148.269 64.546,148.269 63.454,148.209 62.786 C 148.149 62.118,148.100 62.664,148.100 64.000 M64.366 63.353 C 65.117 63.412,66.274 63.412,66.937 63.352 C 67.600 63.292,66.986 63.243,65.571 63.244 C 64.157 63.245,63.615 63.294,64.366 63.353 M123.929 66.773 C 124.282 66.841,124.861 66.841,125.214 66.773 C 125.568 66.705,125.279 66.649,124.571 66.649 C 123.864 66.649,123.575 66.705,123.929 66.773 M80.367 80.143 C 80.370 80.929,80.425 81.216,80.491 80.782 C 80.556 80.347,80.555 79.705,80.487 79.353 C 80.419 79.002,80.365 79.357,80.367 80.143 M121.565 80.010 C 121.459 80.182,121.449 80.401,121.543 80.495 C 121.637 80.590,121.714 80.517,121.714 80.333 C 121.714 79.845,127.914 79.868,128.078 80.357 C 128.147 80.563,128.185 80.533,128.167 80.286 C 128.128 79.746,121.889 79.486,121.565 80.010 M137.571 79.896 C 139.569 80.107,142.509 80.126,142.385 79.929 C 142.312 79.811,141.006 79.735,139.483 79.760 C 137.960 79.785,137.100 79.846,137.571 79.896 M149.643 79.923 C 150.311 79.984,151.404 79.984,152.071 79.923 C 152.739 79.863,152.193 79.814,150.857 79.814 C 149.521 79.814,148.975 79.863,149.643 79.923 M158.929 79.927 C 160.304 79.979,162.554 79.979,163.929 79.927 C 165.304 79.875,164.179 79.832,161.429 79.832 C 158.679 79.832,157.554 79.875,158.929 79.927 M207.500 79.925 C 208.404 79.982,209.882 79.982,210.786 79.925 C 211.689 79.869,210.950 79.822,209.143 79.822 C 207.336 79.822,206.596 79.869,207.500 79.925 M221.857 79.896 C 223.855 80.107,226.794 80.126,226.671 79.929 C 226.598 79.811,225.292 79.735,223.769 79.760 C 222.246 79.785,221.386 79.846,221.857 79.896 M232.739 79.961 C 232.535 80.290,232.496 98.306,232.699 98.508 C 232.786 98.595,232.857 94.472,232.857 89.345 L 232.857 80.023 235.214 79.927 L 237.571 79.831 235.231 79.772 C 233.944 79.740,232.822 79.825,232.739 79.961 M240.703 80.071 C 240.627 80.268,240.599 87.886,240.640 97.000 L 240.714 113.571 243.429 113.587 L 246.143 113.602 243.500 113.505 L 240.857 113.408 240.857 96.714 L 240.857 80.021 243.643 79.927 L 246.429 79.834 243.634 79.774 C 241.616 79.731,240.801 79.814,240.703 80.071 M248.977 80.100 C 248.896 80.312,248.868 81.373,248.915 82.457 L 249.000 84.429 251.286 84.446 L 253.571 84.463 251.357 84.363 L 249.143 84.263 249.143 82.136 L 249.143 80.009 256.643 79.928 L 264.143 79.847 256.634 79.781 C 250.550 79.727,249.097 79.787,248.977 80.100 M269.536 80.133 C 269.447 80.364,269.441 80.718,269.522 80.919 C 269.603 81.121,269.679 81.001,269.692 80.652 C 269.713 80.043,269.835 80.015,272.929 79.928 L 276.143 79.836 272.920 79.775 C 270.310 79.726,269.666 79.794,269.536 80.133 M285.517 79.928 C 287.687 79.977,291.159 79.976,293.231 79.928 C 295.304 79.879,293.529 79.839,289.286 79.839 C 285.043 79.840,283.347 79.879,285.517 79.928 M300.786 79.925 C 301.611 79.983,302.961 79.983,303.786 79.925 C 304.611 79.867,303.936 79.820,302.286 79.820 C 300.636 79.820,299.961 79.867,300.786 79.925 M329.571 79.896 C 331.569 80.107,334.509 80.126,334.385 79.929 C 334.312 79.811,333.006 79.735,331.483 79.760 C 329.960 79.785,329.100 79.846,329.571 79.896 M342.929 79.923 L 345.143 80.023 345.143 96.726 L 345.143 113.429 342.738 113.429 C 341.381 113.429,340.270 113.301,340.188 113.136 C 340.108 112.975,340.076 113.007,340.117 113.207 C 340.170 113.470,340.902 113.571,342.738 113.571 L 345.286 113.571 345.286 96.714 L 345.286 79.857 343.000 79.840 L 340.714 79.823 342.929 79.923 M162.131 84.643 C 162.055 84.839,162.027 90.400,162.068 97.000 L 162.143 109.000 163.502 109.026 L 164.861 109.053 163.573 108.939 L 162.286 108.826 162.286 96.714 L 162.286 84.601 163.786 84.496 L 165.286 84.391 163.777 84.339 C 162.791 84.304,162.220 84.410,162.131 84.643 M260.500 84.495 C 261.168 84.555,262.261 84.555,262.929 84.495 C 263.596 84.435,263.050 84.386,261.714 84.386 C 260.379 84.386,259.832 84.435,260.500 84.495 M282.937 84.496 C 283.688 84.555,284.846 84.554,285.509 84.494 C 286.172 84.435,285.557 84.386,284.143 84.387 C 282.729 84.388,282.186 84.437,282.937 84.496 M292.190 84.476 C 292.086 84.581,292.000 91.133,292.000 99.037 L 292.000 113.408 289.285 113.506 L 286.570 113.604 289.356 113.588 L 292.143 113.571 292.217 99.083 L 292.291 84.594 294.645 84.498 L 297.000 84.402 294.690 84.344 C 293.420 84.312,292.295 84.371,292.190 84.476 M192.404 88.000 L 192.429 89.857 194.929 89.875 L 197.430 89.893 195.014 89.793 L 192.598 89.692 192.489 87.918 L 192.380 86.143 192.404 88.000 M325.557 96.714 C 325.557 102.057,325.595 104.202,325.642 101.482 C 325.689 98.761,325.689 94.390,325.642 91.767 C 325.595 89.145,325.557 91.371,325.557 96.714 M308.413 96.714 C 308.413 101.743,308.452 103.760,308.500 101.196 C 308.547 98.633,308.547 94.519,308.499 92.053 C 308.452 89.588,308.413 91.686,308.413 96.714 M333.429 103.274 L 333.429 113.405 331.214 113.506 L 329.000 113.606 331.286 113.589 L 333.571 113.571 333.714 103.357 C 333.793 97.739,333.761 93.143,333.643 93.143 C 333.525 93.143,333.429 97.702,333.429 103.274 M187.286 98.000 C 189.167 99.886,190.770 101.429,190.848 101.429 C 190.927 101.429,189.452 99.886,187.571 98.000 C 185.691 96.114,184.088 94.571,184.009 94.571 C 183.930 94.571,185.405 96.114,187.286 98.000 M80.367 97.571 C 80.370 98.357,80.425 98.645,80.491 98.210 C 80.556 97.776,80.555 97.133,80.487 96.782 C 80.419 96.430,80.365 96.786,80.367 97.571 M181.551 102.094 C 181.470 102.303,181.448 103.621,181.501 105.023 L 181.597 107.571 181.656 104.796 L 181.714 102.021 184.357 101.927 L 187.000 101.833 184.348 101.774 C 182.363 101.729,181.660 101.810,181.551 102.094 M197.812 105.286 C 197.813 106.543,197.864 107.022,197.924 106.350 C 197.984 105.678,197.983 104.649,197.922 104.064 C 197.861 103.479,197.811 104.029,197.812 105.286 M121.619 107.333 C 121.514 107.438,121.431 107.663,121.433 107.833 C 121.435 108.004,121.545 107.973,121.676 107.766 C 121.855 107.484,122.640 107.412,124.788 107.480 C 126.369 107.530,127.601 107.475,127.528 107.357 C 127.363 107.092,121.882 107.070,121.619 107.333 M205.901 107.357 C 205.828 107.475,207.159 107.571,208.857 107.571 C 210.556 107.571,211.886 107.475,211.813 107.357 C 211.740 107.239,210.410 107.143,208.857 107.143 C 207.304 107.143,205.974 107.239,205.901 107.357 M271.367 107.354 C 272.197 107.412,273.483 107.411,274.224 107.352 C 274.965 107.294,274.286 107.246,272.714 107.247 C 271.143 107.248,270.536 107.296,271.367 107.354 M75.275 110.357 L 73.857 111.857 75.357 110.439 C 76.182 109.660,76.857 108.985,76.857 108.939 C 76.857 108.726,76.592 108.963,75.275 110.357 M45.429 109.518 C 45.429 109.567,45.846 109.985,46.357 110.447 L 47.286 111.286 46.447 110.357 C 45.664 109.492,45.429 109.297,45.429 109.518 M182.857 111.232 C 182.857 111.281,183.275 111.699,183.786 112.161 L 184.714 113.000 183.875 112.071 C 183.093 111.206,182.857 111.012,182.857 111.232 M268.571 113.095 C 268.571 113.321,267.718 113.448,265.929 113.487 L 263.286 113.546 265.831 113.642 C 268.184 113.731,269.284 113.474,268.767 112.957 C 268.659 112.850,268.571 112.912,268.571 113.095 M276.644 113.143 C 276.738 113.487,277.344 113.575,279.737 113.588 L 282.714 113.605 279.867 113.506 C 278.068 113.443,276.929 113.279,276.774 113.060 C 276.598 112.814,276.561 112.837,276.644 113.143 M115.396 113.512 C 115.521 113.636,116.769 113.700,118.169 113.653 L 120.714 113.567 117.942 113.427 C 116.417 113.349,115.271 113.387,115.396 113.512 M131.571 113.429 L 128.714 113.604 131.483 113.659 C 133.084 113.691,134.327 113.594,134.429 113.429 C 134.526 113.271,134.565 113.168,134.517 113.198 C 134.468 113.229,133.143 113.332,131.571 113.429 M215.857 113.429 L 213.000 113.604 215.769 113.659 C 217.369 113.691,218.612 113.594,218.714 113.429 C 218.811 113.271,218.851 113.168,218.803 113.198 C 218.754 113.229,217.429 113.332,215.857 113.429 M232.540 113.512 C 232.665 113.637,233.848 113.700,235.169 113.653 L 237.571 113.567 234.942 113.426 C 233.495 113.349,232.414 113.388,232.540 113.512 M137.929 113.638 C 138.596 113.698,139.689 113.698,140.357 113.638 C 141.025 113.578,140.479 113.528,139.143 113.528 C 137.807 113.528,137.261 113.578,137.929 113.638 M149.509 113.639 C 150.260 113.698,151.417 113.697,152.080 113.637 C 152.743 113.577,152.129 113.529,150.714 113.530 C 149.300 113.531,148.757 113.580,149.509 113.639 M158.929 113.641 C 160.304 113.694,162.554 113.694,163.929 113.641 C 165.304 113.589,164.179 113.546,161.429 113.546 C 158.679 113.546,157.554 113.589,158.929 113.641 M200.643 113.639 C 201.389 113.697,202.611 113.697,203.357 113.639 C 204.104 113.580,203.493 113.532,202.000 113.532 C 200.507 113.532,199.896 113.580,200.643 113.639 M222.214 113.638 C 222.882 113.698,223.975 113.698,224.643 113.638 C 225.311 113.578,224.764 113.528,223.429 113.528 C 222.093 113.528,221.546 113.578,222.214 113.638 M255.071 113.639 C 255.896 113.697,257.246 113.697,258.071 113.639 C 258.896 113.581,258.221 113.534,256.571 113.534 C 254.921 113.534,254.246 113.581,255.071 113.639 M301.081 113.640 C 301.911 113.697,303.197 113.697,303.938 113.638 C 304.679 113.580,304.000 113.532,302.429 113.533 C 300.857 113.534,300.251 113.582,301.081 113.640 M61.786 115.340 C 62.061 115.412,62.511 115.412,62.786 115.340 C 63.061 115.268,62.836 115.209,62.286 115.209 C 61.736 115.209,61.511 115.268,61.786 115.340 M163.357 161.357 C 183.511 161.398,216.489 161.398,236.643 161.357 C 256.796 161.317,240.307 161.284,200.000 161.284 C 159.693 161.284,143.204 161.317,163.357 161.357 M170.643 189.626 C 170.918 189.697,171.368 189.697,171.643 189.626 C 171.918 189.554,171.693 189.495,171.143 189.495 C 170.593 189.495,170.368 189.554,170.643 189.626 M174.503 189.631 C 174.859 189.699,175.373 189.696,175.646 189.625 C 175.919 189.553,175.629 189.497,175.000 189.501 C 174.371 189.504,174.148 189.562,174.503 189.631 M138.357 197.062 C 138.789 197.127,139.496 197.127,139.929 197.062 C 140.361 196.996,140.007 196.943,139.143 196.943 C 138.279 196.943,137.925 196.996,138.357 197.062 M218.653 201.069 C 219.563 201.125,220.977 201.125,221.796 201.067 C 222.615 201.010,221.871 200.963,220.143 200.964 C 218.414 200.965,217.744 201.012,218.653 201.069 M182.571 279.571 C 183.425 280.436,184.188 281.143,184.266 281.143 C 184.345 281.143,183.711 280.436,182.857 279.571 C 182.004 278.707,181.241 278.000,181.162 278.000 C 181.084 278.000,181.718 278.707,182.571 279.571 M217.844 279.786 L 216.714 281.000 217.929 279.871 C 219.058 278.820,219.274 278.571,219.058 278.571 C 219.011 278.571,218.465 279.118,217.844 279.786 M198.357 286.197 C 198.632 286.269,199.082 286.269,199.357 286.197 C 199.632 286.125,199.407 286.066,198.857 286.066 C 198.307 286.066,198.082 286.125,198.357 286.197 M201.500 286.197 C 201.775 286.269,202.225 286.269,202.500 286.197 C 202.775 286.125,202.550 286.066,202.000 286.066 C 201.450 286.066,201.225 286.125,201.500 286.197 M218.929 315.000 C 218.932 315.629,218.991 315.852,219.059 315.497 C 219.128 315.141,219.125 314.627,219.053 314.354 C 218.982 314.081,218.926 314.371,218.929 315.000 M218.649 318.571 C 218.649 319.279,218.705 319.568,218.773 319.214 C 218.841 318.861,218.841 318.282,218.773 317.929 C 218.705 317.575,218.649 317.864,218.649 318.571 M218.352 322.000 C 218.352 322.550,218.411 322.775,218.483 322.500 C 218.555 322.225,218.555 321.775,218.483 321.500 C 218.411 321.225,218.352 321.450,218.352 322.000 M217.143 335.429 C 217.143 335.900,217.249 336.286,217.379 336.286 C 217.509 336.286,217.559 335.900,217.490 335.429 C 217.420 334.957,217.314 334.571,217.253 334.571 C 217.193 334.571,217.143 334.957,217.143 335.429 M185.713 350.929 L 200.427 365.714 215.070 351.072 C 223.125 343.019,229.714 336.366,229.714 336.287 C 229.714 336.208,223.125 342.733,215.072 350.786 L 200.430 365.428 185.715 350.785 L 171.000 336.143 185.713 350.929 " stroke="none" fill="#a7e4f4" fill-rule="evenodd"></path><path id="path4" d="M187.848 49.429 C 187.848 58.779,187.884 62.604,187.928 57.929 C 187.972 53.254,187.972 45.604,187.928 40.929 C 187.884 36.254,187.848 40.079,187.848 49.429 M287.528 34.857 C 287.528 36.193,287.578 36.739,287.638 36.071 C 287.698 35.404,287.698 34.311,287.638 33.643 C 287.578 32.975,287.528 33.521,287.528 34.857 M260.636 51.769 C 260.600 59.735,260.668 66.312,260.786 66.385 C 260.980 66.505,260.977 55.621,260.778 42.429 C 260.735 39.600,260.672 43.803,260.636 51.769 M306.682 42.286 C 306.682 44.250,306.727 45.054,306.783 44.071 C 306.839 43.089,306.839 41.482,306.783 40.500 C 306.727 39.518,306.682 40.321,306.682 42.286 M132.676 41.857 C 132.677 43.429,132.725 44.035,132.782 43.205 C 132.840 42.374,132.840 41.089,132.781 40.348 C 132.722 39.606,132.675 40.286,132.676 41.857 M127.246 42.000 C 127.246 43.493,127.294 44.104,127.353 43.357 C 127.412 42.611,127.412 41.389,127.353 40.643 C 127.294 39.896,127.246 40.507,127.246 42.000 M300.678 42.429 C 300.679 44.157,300.726 44.827,300.783 43.918 C 300.840 43.009,300.839 41.595,300.782 40.775 C 300.724 39.956,300.678 40.700,300.678 42.429 M115.841 49.429 C 115.841 54.221,115.880 56.182,115.928 53.786 C 115.976 51.389,115.976 47.468,115.928 45.071 C 115.880 42.675,115.841 44.636,115.841 49.429 M159.274 46.780 L 161.977 46.878 162.077 49.082 L 162.177 51.286 162.160 49.000 L 162.143 46.714 159.356 46.698 L 156.570 46.682 159.274 46.780 M282.417 46.780 L 285.120 46.878 285.220 49.082 L 285.320 51.286 285.303 49.000 L 285.286 46.714 282.499 46.698 L 279.713 46.682 282.417 46.780 M296.932 47.634 C 297.367 47.699,298.010 47.698,298.361 47.630 C 298.712 47.562,298.357 47.508,297.571 47.510 C 296.786 47.512,296.498 47.568,296.932 47.634 M54.347 59.929 C 54.313 64.839,54.382 68.857,54.500 68.857 C 54.618 68.858,54.681 66.254,54.641 63.072 C 54.502 52.050,54.408 51.041,54.347 59.929 M127.253 56.000 C 127.253 57.964,127.299 58.768,127.354 57.786 C 127.410 56.804,127.410 55.196,127.354 54.214 C 127.299 53.232,127.253 54.036,127.253 56.000 M132.682 56.143 C 132.683 58.186,132.728 58.984,132.784 57.917 C 132.839 56.849,132.838 55.178,132.783 54.202 C 132.727 53.227,132.682 54.100,132.682 56.143 M143.071 61.640 C 144.054 61.696,145.661 61.696,146.643 61.640 C 147.625 61.584,146.821 61.539,144.857 61.539 C 142.893 61.539,142.089 61.584,143.071 61.640 M158.345 61.640 C 159.398 61.695,161.198 61.695,162.345 61.641 C 163.491 61.587,162.629 61.542,160.429 61.541 C 158.229 61.541,157.291 61.585,158.345 61.640 M283.560 61.638 L 287.406 61.730 287.508 64.079 L 287.611 66.429 287.591 64.000 L 287.571 61.571 283.642 61.559 L 279.714 61.546 283.560 61.638 M64.494 63.063 C 65.001 63.126,65.901 63.128,66.494 63.066 C 67.086 63.004,66.671 62.952,65.571 62.951 C 64.471 62.950,63.986 63.000,64.494 63.063 M237.563 96.714 C 237.563 106.143,237.599 109.959,237.643 105.194 C 237.687 100.429,237.687 92.715,237.643 88.051 C 237.599 83.387,237.563 87.286,237.563 96.714 M305.277 96.714 C 305.277 106.143,305.313 109.959,305.357 105.194 C 305.401 100.429,305.401 92.715,305.357 88.051 C 305.313 83.387,305.277 87.286,305.277 96.714 M54.412 89.143 C 54.412 93.779,54.451 95.675,54.499 93.357 C 54.547 91.039,54.547 87.246,54.499 84.929 C 54.451 82.611,54.412 84.507,54.412 89.143 M261.786 84.498 L 259.429 84.595 259.497 99.226 L 259.566 113.857 259.643 99.357 L 259.720 84.857 261.843 84.857 C 263.011 84.857,264.046 84.729,264.143 84.571 C 264.240 84.414,264.280 84.312,264.231 84.344 C 264.183 84.376,263.082 84.445,261.786 84.498 M163.071 84.778 C 163.582 84.841,164.418 84.841,164.929 84.778 C 165.439 84.715,165.021 84.663,164.000 84.663 C 162.979 84.663,162.561 84.715,163.071 84.778 M251.282 84.778 L 253.423 84.881 253.501 99.226 L 253.579 113.571 253.575 99.143 L 253.571 84.714 251.356 84.695 L 249.141 84.676 251.282 84.778 M283.079 84.781 C 283.751 84.841,284.780 84.841,285.365 84.779 C 285.950 84.718,285.400 84.668,284.143 84.669 C 282.886 84.670,282.407 84.721,283.079 84.781 M293.357 84.781 C 294.025 84.841,295.118 84.841,295.786 84.781 C 296.454 84.720,295.907 84.671,294.571 84.671 C 293.236 84.671,292.689 84.720,293.357 84.781 M192.096 88.000 C 192.096 89.179,192.146 89.661,192.208 89.071 C 192.270 88.482,192.270 87.518,192.208 86.929 C 192.146 86.339,192.096 86.821,192.096 88.000 M325.842 96.714 C 325.842 101.743,325.881 103.760,325.928 101.196 C 325.976 98.633,325.975 94.519,325.928 92.053 C 325.880 89.588,325.842 91.686,325.842 96.714 M173.555 96.714 C 173.555 101.271,173.594 103.096,173.642 100.768 C 173.690 98.441,173.690 94.712,173.642 92.483 C 173.594 90.253,173.555 92.157,173.555 96.714 M333.714 103.714 C 333.714 109.110,333.775 113.463,333.850 113.388 C 334.042 113.196,334.063 94.254,333.872 94.062 C 333.785 93.976,333.714 98.319,333.714 103.714 M187.143 98.143 C 188.945 99.950,190.484 101.429,190.562 101.429 C 190.641 101.429,189.231 99.950,187.429 98.143 C 185.627 96.336,184.088 94.857,184.009 94.857 C 183.931 94.857,185.341 96.336,187.143 98.143 M182.429 101.610 C 184.448 101.821,187.080 101.840,186.957 101.643 C 186.883 101.525,185.642 101.449,184.197 101.474 C 182.753 101.499,181.957 101.560,182.429 101.610 M123.071 107.639 C 123.896 107.697,125.246 107.697,126.071 107.639 C 126.896 107.581,126.221 107.534,124.571 107.534 C 122.921 107.534,122.246 107.581,123.071 107.639 M205.900 107.643 C 205.827 107.761,206.687 107.822,207.812 107.779 C 211.487 107.639,211.912 107.526,208.945 107.477 C 207.344 107.450,205.974 107.525,205.900 107.643 M269.900 107.643 C 269.827 107.761,270.687 107.822,271.812 107.779 C 275.293 107.646,275.696 107.522,272.803 107.474 C 271.280 107.449,269.974 107.525,269.900 107.643 M75.268 110.643 L 74.429 111.571 75.357 110.732 C 76.223 109.950,76.417 109.714,76.196 109.714 C 76.147 109.714,75.729 110.132,75.268 110.643 M322.982 112.071 L 322.143 113.000 323.071 112.161 C 323.937 111.379,324.131 111.143,323.911 111.143 C 323.861 111.143,323.444 111.561,322.982 112.071 M188.791 114.207 C 189.304 114.271,190.076 114.269,190.505 114.204 C 190.934 114.139,190.514 114.087,189.571 114.089 C 188.629 114.090,188.277 114.143,188.791 114.207 M316.071 114.205 C 316.504 114.270,317.211 114.270,317.643 114.205 C 318.075 114.139,317.721 114.086,316.857 114.086 C 315.993 114.086,315.639 114.139,316.071 114.205 M171.929 189.352 C 172.596 189.412,173.689 189.412,174.357 189.352 C 175.025 189.292,174.479 189.243,173.143 189.243 C 171.807 189.243,171.261 189.292,171.929 189.352 M216.505 200.778 C 217.019 200.842,217.790 200.841,218.219 200.776 C 218.649 200.710,218.229 200.658,217.286 200.660 C 216.343 200.662,215.992 200.715,216.505 200.778 M222.357 200.776 C 222.789 200.842,223.496 200.842,223.929 200.776 C 224.361 200.711,224.007 200.657,223.143 200.657 C 222.279 200.657,221.925 200.711,222.357 200.776 M198.370 285.927 C 199.595 285.981,201.524 285.980,202.656 285.926 C 203.788 285.872,202.786 285.828,200.429 285.829 C 198.071 285.829,197.145 285.873,198.370 285.927 M182.929 329.857 C 182.932 330.486,182.991 330.709,183.059 330.354 C 183.128 329.998,183.125 329.484,183.053 329.211 C 182.982 328.938,182.926 329.229,182.929 329.857 M183.209 333.429 C 183.209 333.979,183.268 334.204,183.340 333.929 C 183.412 333.654,183.412 333.204,183.340 332.929 C 183.268 332.654,183.209 332.879,183.209 333.429 M173.714 339.232 C 173.714 339.281,174.132 339.699,174.643 340.161 L 175.571 341.000 174.732 340.071 C 173.950 339.206,173.714 339.012,173.714 339.232 M179.714 345.232 C 179.714 345.281,180.132 345.699,180.643 346.161 L 181.571 347.000 180.732 346.071 C 179.950 345.206,179.714 345.012,179.714 345.232 M182.571 348.089 C 182.571 348.139,182.989 348.556,183.500 349.018 L 184.429 349.857 183.589 348.929 C 182.807 348.063,182.571 347.869,182.571 348.089 M188.571 354.089 C 188.571 354.139,188.989 354.556,189.500 355.018 L 190.429 355.857 189.589 354.929 C 188.807 354.063,188.571 353.869,188.571 354.089 M191.429 356.947 C 191.429 356.996,191.846 357.414,192.357 357.875 L 193.286 358.714 192.447 357.786 C 191.664 356.920,191.429 356.726,191.429 356.947 M194.286 359.804 C 194.286 359.853,194.704 360.271,195.214 360.732 L 196.143 361.571 195.304 360.643 C 194.521 359.777,194.286 359.583,194.286 359.804 " stroke="none" fill="#50cce8" fill-rule="evenodd"></path></g></svg>