<svg id="svg" version="1.1" xmlns="http://www.w3.org/2000/svg" xmlns:xlink="http://www.w3.org/1999/xlink" width="400" height="400" viewBox="0, 0, 400,400"><g id="svgg"><path id="path0" d="M152.081 34.129 C 148.995 34.595,147.190 36.174,146.295 39.189 C 145.577 41.605,145.671 56.376,146.419 58.798 C 148.363 65.094,158.583 65.769,161.516 59.795 L 162.267 58.267 162.267 48.928 L 162.267 39.589 161.388 37.804 C 159.872 34.724,156.625 33.442,152.081 34.129 M32.267 39.867 L 32.267 45.333 42.667 45.333 C 48.387 45.333,53.067 45.424,53.067 45.535 C 53.067 45.647,49.483 60.317,45.102 78.135 L 37.138 110.533 44.075 110.605 C 47.891 110.644,51.070 110.619,51.140 110.549 C 51.210 110.479,54.851 95.567,59.231 77.411 L 67.195 44.400 67.198 39.400 L 67.200 34.400 49.733 34.400 L 32.267 34.400 32.267 39.867 M103.652 38.058 C 103.249 40.080,101.921 46.623,100.702 52.600 L 98.484 63.467 100.950 63.467 L 103.417 63.467 103.869 60.867 C 104.117 59.437,104.406 57.907,104.510 57.467 L 104.701 56.667 107.213 56.667 L 109.726 56.667 110.166 59.067 C 110.407 60.387,110.685 61.917,110.781 62.467 L 110.958 63.467 113.345 63.467 C 115.084 63.467,115.730 63.376,115.722 63.133 C 115.716 62.950,114.417 56.440,112.835 48.667 L 109.959 34.533 107.171 34.458 L 104.384 34.383 103.652 38.058 M118.133 48.933 L 118.133 63.467 120.662 63.467 L 123.191 63.467 123.262 56.867 L 123.333 50.267 125.933 50.190 L 128.533 50.114 128.533 48.257 L 128.533 46.400 125.860 46.400 L 123.186 46.400 123.260 42.200 L 123.333 38.000 126.600 37.925 L 129.867 37.850 129.867 36.125 L 129.867 34.400 124.000 34.400 L 118.133 34.400 118.133 48.933 M132.267 48.933 L 132.267 63.467 134.800 63.467 L 137.333 63.467 137.333 56.800 L 137.333 50.133 140.000 50.133 L 142.667 50.133 142.667 48.267 L 142.667 46.400 140.000 46.400 L 137.333 46.400 137.333 42.133 L 137.333 37.867 140.667 37.867 L 144.000 37.867 144.000 36.133 L 144.000 34.400 138.133 34.400 L 132.267 34.400 132.267 48.933 M165.867 48.910 L 165.867 63.467 168.395 63.467 L 170.924 63.467 170.995 56.867 L 171.067 50.267 172.271 50.188 L 173.476 50.109 175.205 56.787 L 176.933 63.465 179.562 63.466 L 182.191 63.467 182.008 62.733 C 181.907 62.330,181.065 59.300,180.136 56.000 C 179.207 52.700,178.406 49.799,178.357 49.554 C 178.302 49.282,178.630 48.863,179.200 48.477 C 182.138 46.490,182.578 39.256,179.926 36.540 C 178.227 34.799,177.291 34.573,171.267 34.457 L 165.867 34.353 165.867 48.910 M185.067 48.938 L 185.067 63.523 190.200 63.404 C 197.162 63.241,198.486 62.716,200.079 59.480 L 200.933 57.746 201.026 49.873 C 201.195 35.538,200.561 34.612,190.467 34.443 L 185.067 34.353 185.067 48.938 M208.267 34.614 C 208.267 34.827,202.810 61.718,202.534 62.867 C 202.392 63.457,202.432 63.467,204.891 63.467 L 207.393 63.467 207.874 60.600 C 208.612 56.197,208.357 56.500,211.255 56.590 L 213.716 56.667 214.312 60.000 C 214.639 61.833,214.913 63.363,214.920 63.400 C 214.942 63.511,219.733 63.475,219.733 63.363 C 219.733 63.235,214.190 35.831,213.997 35.000 C 213.854 34.388,208.267 34.012,208.267 34.614 M222.133 48.933 L 222.133 63.514 227.533 63.417 C 236.418 63.259,238.639 61.414,238.355 54.430 C 238.205 50.749,237.179 49.059,234.544 48.153 L 233.520 47.801 234.480 47.484 C 238.829 46.049,238.769 37.733,234.392 35.333 L 232.933 34.533 227.533 34.443 L 222.133 34.353 222.133 48.933 M241.333 48.933 L 241.333 63.467 247.467 63.467 L 253.600 63.467 253.600 61.733 L 253.600 60.000 250.133 60.000 L 246.667 60.000 246.667 47.200 L 246.667 34.400 244.000 34.400 L 241.333 34.400 241.333 48.933 M255.733 48.933 L 255.733 63.467 261.867 63.467 L 268.000 63.467 268.000 61.733 L 268.000 60.000 264.533 60.000 L 261.067 60.000 261.067 55.067 L 261.067 50.133 263.733 50.133 L 266.400 50.133 266.400 48.267 L 266.400 46.400 263.733 46.400 L 261.067 46.400 261.067 42.133 L 261.067 37.867 264.533 37.867 L 268.000 37.867 268.000 36.133 L 268.000 34.400 261.867 34.400 L 255.733 34.400 255.733 48.933 M282.802 35.000 C 282.546 36.084,277.067 63.134,277.067 63.313 C 277.067 63.408,278.173 63.452,279.525 63.410 L 281.983 63.333 282.579 60.000 C 282.906 58.167,283.180 56.637,283.187 56.600 C 283.194 56.563,284.276 56.533,285.591 56.533 C 288.450 56.533,288.276 56.329,288.954 60.467 L 289.445 63.467 291.892 63.467 L 294.338 63.467 291.436 49.157 C 289.839 41.287,288.533 34.747,288.533 34.624 C 288.533 34.016,282.948 34.382,282.802 35.000 M296.533 48.922 L 296.533 63.467 298.796 63.467 L 301.059 63.467 301.130 54.916 L 301.200 46.365 304.719 54.849 L 308.238 63.333 309.986 63.412 L 311.733 63.491 311.733 48.946 L 311.733 34.400 309.600 34.400 L 307.467 34.400 307.467 42.453 C 307.467 47.392,307.371 50.409,307.220 50.253 C 307.084 50.114,305.472 46.520,303.636 42.267 L 300.299 34.533 298.416 34.455 L 296.533 34.377 296.533 48.922 M315.467 48.938 L 315.467 63.523 320.600 63.418 C 330.723 63.211,331.607 61.899,331.417 47.375 C 331.261 35.452,330.589 34.629,320.867 34.451 L 315.467 34.353 315.467 48.938 M155.748 38.141 C 157.072 38.850,157.194 39.611,157.288 47.759 C 157.412 58.534,157.065 59.867,154.133 59.867 C 151.209 59.867,150.824 58.334,150.987 47.333 C 151.099 39.728,151.237 38.871,152.467 38.155 C 153.076 37.800,155.094 37.791,155.748 38.141 M175.374 38.558 C 176.333 39.273,176.860 40.864,176.736 42.667 C 176.542 45.484,175.454 46.567,172.667 46.715 L 171.067 46.800 170.993 42.678 C 170.952 40.411,170.984 38.387,171.063 38.180 C 171.287 37.597,174.460 37.875,175.374 38.558 M194.136 38.406 C 195.616 39.182,195.600 39.066,195.600 48.761 C 195.600 59.665,195.576 59.733,191.694 59.733 L 190.400 59.733 190.400 48.774 L 190.400 37.814 192.067 38.004 C 192.983 38.109,193.915 38.290,194.136 38.406 M230.355 38.149 C 232.215 38.548,232.870 39.335,233.016 41.346 C 233.259 44.704,232.008 46.133,228.826 46.133 L 227.200 46.133 227.200 42.000 L 227.200 37.867 228.120 37.867 C 228.626 37.867,229.632 37.994,230.355 38.149 M324.800 38.645 C 326.051 39.531,326.168 40.510,326.081 49.330 C 325.980 59.480,325.883 59.733,322.094 59.733 L 320.800 59.733 320.800 48.774 L 320.800 37.814 322.467 37.993 C 323.383 38.092,324.433 38.385,324.800 38.645 M108.238 47.333 C 108.699 50.267,109.075 52.817,109.072 53.000 C 109.068 53.234,108.513 53.333,107.200 53.333 C 105.890 53.333,105.330 53.234,105.323 53.000 C 105.297 52.113,107.078 41.641,107.227 41.808 C 107.321 41.914,107.776 44.400,108.238 47.333 M212.256 47.679 C 212.702 50.509,213.067 52.944,213.067 53.091 C 213.067 53.250,212.294 53.325,211.133 53.278 C 210.045 53.234,209.215 53.084,209.233 52.933 C 209.747 48.842,211.074 41.614,211.236 42.017 C 211.351 42.301,211.810 44.849,212.256 47.679 M286.654 46.809 C 287.102 49.591,287.537 52.197,287.622 52.600 L 287.776 53.333 285.755 53.333 C 284.643 53.333,283.733 53.276,283.733 53.207 C 283.733 52.324,285.614 41.525,285.745 41.656 C 285.797 41.708,286.206 44.027,286.654 46.809 M231.009 50.232 C 233.037 51.097,233.970 53.612,233.356 56.560 C 232.870 58.895,231.998 59.572,229.317 59.694 L 227.200 59.790 227.200 54.828 L 227.200 49.867 228.675 49.867 C 229.487 49.867,230.537 50.031,231.009 50.232 M104.158 82.286 C 100.154 83.753,99.332 86.582,99.526 98.217 C 99.712 109.325,100.969 111.333,107.733 111.333 C 113.505 111.333,115.233 109.512,115.642 103.000 L 115.814 100.267 113.265 100.267 L 110.715 100.267 110.624 103.048 C 110.498 106.907,109.474 108.196,107.021 107.582 C 105.045 107.088,104.946 106.624,104.849 97.467 C 104.735 86.665,104.988 85.594,107.646 85.604 C 109.943 85.613,110.627 86.689,110.652 90.333 L 110.667 92.533 113.240 92.533 L 115.814 92.533 115.647 89.933 C 115.335 85.095,114.079 83.003,110.965 82.138 C 109.557 81.747,105.381 81.838,104.158 82.286 M265.065 82.102 C 260.645 83.537,260.133 85.066,260.135 96.800 C 260.137 106.538,260.174 106.812,261.774 109.125 C 263.925 112.233,270.208 112.366,272.076 109.343 C 272.422 108.785,272.681 108.563,272.712 108.800 C 272.741 109.020,272.838 109.650,272.928 110.200 L 273.091 111.200 274.679 111.200 L 276.267 111.200 276.267 103.867 L 276.267 96.533 272.400 96.533 L 268.533 96.533 268.533 98.133 L 268.533 99.733 270.133 99.733 L 271.733 99.733 271.733 101.818 C 271.733 106.023,270.549 107.900,268.056 107.646 C 265.394 107.375,265.200 106.621,265.200 96.533 C 265.200 86.418,265.429 85.600,268.267 85.600 C 270.370 85.600,271.200 86.819,271.200 89.906 L 271.200 91.733 273.773 91.733 L 276.346 91.733 276.191 89.346 C 275.957 85.732,274.942 83.785,272.667 82.586 C 271.512 81.977,266.443 81.655,265.065 82.102 M118.667 96.667 L 118.667 111.200 124.800 111.200 L 130.933 111.200 130.933 109.467 L 130.933 107.733 127.467 107.733 L 124.000 107.733 124.000 94.933 L 124.000 82.133 121.333 82.133 L 118.667 82.133 118.667 96.667 M133.067 96.667 L 133.067 111.200 139.200 111.200 L 145.333 111.200 145.333 109.475 L 145.333 107.749 141.933 107.675 L 138.533 107.600 138.461 102.733 L 138.388 97.867 141.061 97.867 L 143.733 97.867 143.733 96.000 L 143.733 94.133 141.060 94.133 L 138.386 94.133 138.460 89.933 L 138.533 85.733 141.933 85.659 L 145.333 85.584 145.333 83.859 L 145.333 82.133 139.200 82.133 L 133.067 82.133 133.067 96.667 M152.141 82.467 C 151.995 82.915,146.391 110.746,146.396 111.000 C 146.403 111.363,151.131 111.234,151.266 110.867 C 151.334 110.683,151.612 109.183,151.884 107.533 L 152.378 104.533 154.960 104.533 C 157.936 104.533,157.528 104.051,158.282 108.467 L 158.748 111.200 161.107 111.200 C 162.405 111.200,163.474 111.110,163.482 111.000 C 163.491 110.890,162.201 104.350,160.615 96.467 L 157.733 82.134 154.992 82.134 C 153.034 82.133,152.219 82.229,152.141 82.467 M165.867 96.667 L 165.867 111.200 168.130 111.200 L 170.393 111.200 170.463 102.737 L 170.533 94.275 174.024 102.671 L 177.514 111.067 179.291 111.146 L 181.067 111.224 181.067 96.679 L 181.067 82.133 178.933 82.133 L 176.800 82.133 176.800 90.133 C 176.800 94.533,176.710 98.133,176.600 98.133 C 176.490 98.133,174.849 94.533,172.954 90.133 L 169.509 82.133 167.688 82.133 L 165.867 82.133 165.867 96.667 M192.800 96.667 L 192.800 111.200 198.933 111.200 L 205.067 111.200 205.067 109.467 L 205.067 107.733 201.600 107.733 L 198.133 107.733 198.133 102.800 L 198.133 97.867 200.800 97.867 L 203.467 97.867 203.467 96.000 L 203.467 94.133 200.800 94.133 L 198.133 94.133 198.133 89.867 L 198.133 85.600 201.600 85.600 L 205.067 85.600 205.067 83.867 L 205.067 82.133 198.933 82.133 L 192.800 82.133 192.800 96.667 M207.467 96.667 L 207.467 111.200 209.730 111.200 L 211.993 111.200 212.063 102.668 L 212.133 94.136 215.643 102.601 L 219.153 111.067 220.910 111.146 L 222.667 111.224 222.667 96.679 L 222.667 82.133 220.537 82.133 L 218.408 82.133 218.337 90.333 L 218.267 98.533 216.295 94.000 C 215.211 91.507,213.605 87.817,212.727 85.800 L 211.131 82.133 209.299 82.133 L 207.467 82.133 207.467 96.667 M226.400 96.667 L 226.400 111.200 232.533 111.200 L 238.667 111.200 238.667 109.467 L 238.667 107.733 235.200 107.733 L 231.733 107.733 231.733 102.800 L 231.733 97.867 234.400 97.867 L 237.067 97.867 237.067 96.000 L 237.067 94.133 234.400 94.133 L 231.733 94.133 231.733 89.867 L 231.733 85.600 235.067 85.600 L 238.400 85.600 238.400 83.867 L 238.400 82.133 232.400 82.133 L 226.400 82.133 226.400 96.667 M241.067 96.667 L 241.067 111.200 243.733 111.200 L 246.400 111.200 246.400 104.533 L 246.400 97.867 247.561 97.867 L 248.721 97.867 250.374 104.200 C 251.283 107.683,252.077 110.683,252.138 110.867 C 252.289 111.318,257.333 111.343,257.333 110.892 C 257.333 110.723,256.480 107.556,255.437 103.855 L 253.541 97.125 254.879 95.829 C 256.507 94.253,256.878 93.109,256.875 89.677 C 256.870 83.731,254.499 82.133,245.677 82.133 L 241.067 82.133 241.067 96.667 M277.867 82.304 C 277.867 82.408,279.187 86.482,280.800 91.357 L 283.733 100.220 283.733 105.710 L 283.733 111.200 286.267 111.200 L 288.800 111.200 288.804 105.533 L 288.807 99.867 291.704 91.000 L 294.600 82.133 292.161 82.133 L 289.722 82.133 288.150 87.533 C 287.286 90.503,286.491 93.035,286.383 93.160 C 286.209 93.361,285.701 91.878,283.341 84.267 L 282.720 82.267 280.294 82.190 C 278.959 82.148,277.867 82.199,277.867 82.304 M250.556 86.257 C 251.603 86.943,252.071 88.347,251.952 90.447 C 251.794 93.242,250.756 94.292,247.854 94.591 L 246.400 94.741 246.400 90.134 L 246.400 85.527 248.133 85.666 C 249.092 85.743,250.174 86.007,250.556 86.257 M156.912 100.333 L 157.053 101.067 155.060 101.067 C 153.964 101.067,153.067 100.955,153.067 100.819 C 153.067 100.401,154.658 90.578,154.841 89.867 C 154.955 89.426,155.310 90.961,155.892 94.400 C 156.375 97.260,156.834 99.930,156.912 100.333 M198.267 151.110 C 195.364 152.640,195.467 152.016,195.467 168.133 C 195.467 183.197,195.439 182.875,196.845 184.187 C 199.030 186.227,202.569 185.800,204.267 183.291 L 204.933 182.306 204.933 168.133 L 204.933 153.961 204.218 152.879 C 202.945 150.956,200.140 150.122,198.267 151.110 M149.042 164.353 C 147.465 165.185,146.677 166.585,146.671 168.563 C 146.667 170.026,146.792 170.277,152.163 179.630 C 155.186 184.893,158.258 190.248,158.990 191.528 C 160.474 194.125,161.438 194.920,163.358 195.137 C 166.504 195.491,169.204 192.727,168.707 189.662 C 168.585 188.915,156.734 167.850,155.114 165.502 C 153.943 163.807,151.099 163.268,149.042 164.353 M246.283 164.338 C 244.741 165.212,231.699 187.907,231.536 190.000 C 231.205 194.240,236.381 196.802,239.456 193.920 C 241.083 192.395,253.600 169.932,253.600 168.536 C 253.600 165.733,251.607 163.742,248.800 163.742 C 247.774 163.742,247.018 163.921,246.283 164.338 M195.067 195.097 C 159.800 198.769,135.901 230.180,142.123 264.684 C 148.436 299.689,184.642 321.094,218.703 309.957 C 256.935 297.456,271.501 250.590,247.201 218.268 C 235.310 202.452,214.264 193.098,195.067 195.097 M283.539 199.991 C 282.736 200.335,261.135 212.743,260.169 213.415 C 257.678 215.149,257.970 219.753,260.667 221.261 C 263.102 222.624,263.755 222.413,272.287 217.516 C 290.816 206.882,289.454 207.846,289.776 205.129 C 290.172 201.780,286.475 198.734,283.539 199.991 M113.200 200.363 C 110.205 201.755,109.418 206.040,111.766 208.178 C 112.336 208.697,132.141 220.175,134.862 221.564 C 138.662 223.502,142.761 220.045,141.633 215.855 C 141.174 214.152,140.256 213.520,128.267 206.666 C 115.954 199.627,115.338 199.370,113.200 200.363 M202.421 214.740 C 202.916 215.073,203.597 215.756,203.935 216.258 L 204.550 217.170 204.475 228.572 L 204.400 239.975 203.350 241.050 C 201.461 242.984,199.207 243.128,197.334 241.435 C 195.687 239.948,195.709 240.133,195.791 227.970 L 195.867 216.891 196.581 215.955 C 197.987 214.112,200.664 213.555,202.421 214.740 M191.200 229.847 L 191.200 235.428 189.533 236.438 C 172.482 246.771,180.112 273.400,200.133 273.431 C 220.239 273.461,227.817 246.818,210.666 236.399 L 209.067 235.428 209.067 229.814 L 209.067 224.200 209.933 224.368 C 215.782 225.505,224.613 233.279,227.865 240.155 C 240.218 266.266,212.976 293.637,187.008 281.208 C 163.084 269.756,163.816 235.822,188.216 225.168 C 191.445 223.759,191.200 223.374,191.200 229.847 M100.400 249.032 C 96.763 250.728,96.393 255.290,99.712 257.527 L 100.612 258.133 114.736 258.133 C 128.489 258.133,128.886 258.119,129.835 257.586 C 132.912 255.857,133.032 251.354,130.054 249.382 L 128.973 248.667 115.220 248.601 C 102.280 248.539,101.404 248.565,100.400 249.032 M271.316 248.814 C 268.110 249.764,267.043 254.217,269.413 256.755 C 270.725 258.161,270.403 258.133,285.467 258.133 C 300.530 258.133,300.208 258.161,301.521 256.755 C 303.599 254.529,303.220 251.037,300.721 249.382 L 299.640 248.667 285.886 248.619 C 278.271 248.593,271.769 248.680,271.316 248.814 M135.733 284.992 C 134.330 285.519,112.020 298.575,111.538 299.152 C 108.924 302.279,111.242 306.958,115.387 306.919 C 117.580 306.898,140.229 293.953,141.256 292.133 C 143.360 288.405,139.599 283.542,135.733 284.992 M261.200 285.219 C 258.493 286.627,257.655 289.762,259.312 292.278 C 260.088 293.456,282.915 306.643,284.560 306.864 C 288.346 307.372,291.116 303.228,289.330 299.727 C 288.674 298.442,289.878 299.206,276.149 291.352 C 263.640 284.195,263.377 284.087,261.200 285.219 M162.000 312.235 C 160.495 312.926,160.740 312.551,153.464 325.283 C 146.239 337.927,146.161 338.112,147.138 340.322 C 147.979 342.223,149.304 343.067,151.446 343.067 C 154.523 343.067,154.197 343.475,161.986 329.855 L 168.862 317.832 168.749 316.274 C 168.492 312.719,165.216 310.758,162.000 312.235 M234.234 312.116 C 232.760 312.758,231.893 314.219,231.790 316.237 L 231.700 318.000 238.376 329.600 C 245.235 341.519,245.876 342.433,247.727 342.932 C 251.371 343.913,254.934 340.138,253.532 336.781 C 252.949 335.387,240.531 313.828,239.891 313.099 C 238.743 311.792,236.053 311.325,234.234 312.116 M198.267 321.730 C 195.364 323.093,195.469 322.450,195.468 338.827 L 195.467 352.988 196.073 353.888 C 197.800 356.450,201.044 356.908,203.320 354.910 C 205.103 353.344,205.096 353.414,205.010 338.267 L 204.933 324.667 204.310 323.664 C 203.066 321.664,200.296 320.777,198.267 321.730 " stroke="none" fill="#fcfbfb" fill-rule="evenodd"></path><path id="path1" d="M0.000 200.000 L 0.000 400.000 200.000 400.000 L 400.000 400.000 400.000 200.000 L 400.000 0.000 200.000 0.000 L 0.000 0.000 0.000 200.000 M157.965 34.410 C 162.011 35.924,162.533 37.601,162.533 49.094 L 162.533 58.055 161.598 59.894 C 158.544 65.898,148.871 65.426,146.318 59.149 C 145.101 56.155,145.361 40.142,146.669 37.607 C 148.365 34.316,153.689 32.810,157.965 34.410 M67.475 39.000 L 67.483 43.867 59.408 77.400 L 51.333 110.933 44.075 110.933 C 38.385 110.933,36.842 110.861,36.932 110.600 C 37.133 110.020,52.800 46.067,52.800 45.828 C 52.800 45.703,48.180 45.600,42.533 45.600 L 32.267 45.600 32.267 39.867 L 32.267 34.133 49.867 34.133 L 67.467 34.133 67.475 39.000 M110.133 34.326 C 110.133 34.432,111.453 41.021,113.067 48.969 C 114.680 56.917,116.000 63.495,116.000 63.586 C 116.000 63.678,114.833 63.718,113.407 63.676 L 110.813 63.600 110.351 61.067 C 110.096 59.673,109.818 58.143,109.732 57.667 L 109.576 56.800 107.207 56.800 L 104.838 56.800 104.561 58.200 C 104.409 58.970,104.130 60.500,103.941 61.600 L 103.597 63.600 100.998 63.676 C 98.892 63.738,98.400 63.681,98.400 63.373 C 98.400 63.058,103.692 36.640,104.137 34.733 C 104.276 34.136,110.133 33.737,110.133 34.326 M130.133 36.133 L 130.133 38.133 126.800 38.133 L 123.467 38.133 123.467 42.267 L 123.467 46.400 126.133 46.400 L 128.800 46.400 128.800 48.400 L 128.800 50.400 126.133 50.400 L 123.467 50.400 123.467 57.067 L 123.467 63.733 120.667 63.733 L 117.867 63.733 117.867 48.933 L 117.867 34.133 124.000 34.133 L 130.133 34.133 130.133 36.133 M144.267 36.133 L 144.267 38.133 140.933 38.133 L 137.600 38.133 137.600 42.267 L 137.600 46.400 140.267 46.400 L 142.933 46.400 142.933 48.400 L 142.933 50.400 140.267 50.400 L 137.600 50.400 137.600 57.067 L 137.600 63.733 134.800 63.733 L 132.000 63.733 132.000 48.933 L 132.000 34.133 138.133 34.133 L 144.267 34.133 144.267 36.133 M176.054 34.433 C 180.290 35.331,182.085 37.995,181.802 42.963 C 181.622 46.119,180.446 48.325,178.473 49.206 C 178.439 49.220,179.308 52.405,180.403 56.283 C 181.498 60.161,182.395 63.423,182.397 63.533 C 182.399 63.643,181.140 63.733,179.600 63.733 C 178.060 63.733,176.800 63.688,176.800 63.631 C 176.800 63.499,174.221 53.622,173.711 51.800 C 173.322 50.412,173.309 50.400,172.259 50.400 L 171.200 50.400 171.200 57.067 L 171.200 63.733 168.400 63.733 L 165.600 63.733 165.600 48.933 L 165.600 34.133 170.120 34.133 C 172.606 34.133,175.276 34.268,176.054 34.433 M196.933 34.890 C 200.872 36.679,201.448 38.679,201.268 49.962 C 201.072 62.252,200.034 63.505,190.000 63.568 L 184.933 63.600 184.864 48.839 L 184.795 34.079 190.198 34.181 C 195.120 34.275,195.718 34.338,196.933 34.890 M216.899 48.395 C 218.484 56.239,219.844 62.899,219.921 63.195 C 220.056 63.708,219.939 63.733,217.399 63.733 L 214.735 63.733 214.557 62.600 C 214.459 61.977,214.189 60.417,213.956 59.133 L 213.532 56.800 211.184 56.800 C 208.480 56.800,208.768 56.473,208.133 60.267 C 207.497 64.072,207.812 63.733,204.915 63.733 C 202.699 63.733,202.400 63.678,202.397 63.267 C 202.394 62.829,207.907 35.189,208.142 34.467 C 208.219 34.227,209.062 34.133,211.133 34.133 L 214.017 34.133 216.899 48.395 M232.391 34.444 C 238.039 35.578,240.069 44.150,235.405 47.172 L 234.420 47.810 235.505 48.347 C 239.616 50.381,239.798 59.049,235.793 62.056 C 234.082 63.341,233.151 63.516,227.267 63.661 L 221.867 63.795 221.867 48.964 L 221.867 34.133 226.356 34.133 C 228.824 34.133,231.540 34.273,232.391 34.444 M246.667 46.933 L 246.667 59.733 250.278 59.733 L 253.890 59.733 253.812 61.667 L 253.733 63.600 247.467 63.600 L 241.200 63.600 241.131 48.867 L 241.062 34.133 243.864 34.133 L 246.667 34.133 246.667 46.933 M268.000 36.133 L 268.000 38.133 264.533 38.133 L 261.067 38.133 261.067 42.267 L 261.067 46.400 263.867 46.400 L 266.667 46.400 266.667 48.400 L 266.667 50.400 263.867 50.400 L 261.067 50.400 261.067 55.067 L 261.067 59.733 264.678 59.733 L 268.290 59.733 268.212 61.667 L 268.133 63.600 261.867 63.600 L 255.600 63.600 255.531 48.867 L 255.462 34.133 261.731 34.133 L 268.000 34.133 268.000 36.133 M288.640 34.600 C 288.907 35.477,294.400 62.824,294.400 63.279 C 294.400 63.675,294.077 63.733,291.889 63.733 L 289.378 63.733 289.109 62.467 C 288.962 61.770,288.691 60.210,288.508 59.000 L 288.174 56.800 285.721 56.800 L 283.268 56.800 283.094 57.933 C 282.999 58.557,282.731 60.117,282.499 61.400 L 282.078 63.733 279.410 63.733 C 276.779 63.733,276.744 63.725,276.884 63.133 C 276.962 62.803,278.319 56.143,279.899 48.333 L 282.773 34.133 285.635 34.133 C 288.129 34.133,288.516 34.193,288.640 34.600 M303.778 42.133 L 307.187 50.000 307.193 42.067 L 307.200 34.133 309.602 34.133 L 312.005 34.133 311.936 48.867 L 311.867 63.600 310.013 63.600 L 308.159 63.600 304.680 55.206 L 301.200 46.812 301.130 55.272 L 301.059 63.733 298.796 63.733 L 296.533 63.733 296.533 48.922 L 296.533 34.110 298.451 34.188 L 300.370 34.267 303.778 42.133 M327.398 34.910 C 330.886 36.458,331.483 38.128,331.664 46.843 C 331.974 61.768,330.749 63.548,320.133 63.584 L 315.333 63.600 315.264 48.839 L 315.195 34.079 320.598 34.184 C 325.545 34.281,326.118 34.342,327.398 34.910 M153.135 38.171 C 151.406 38.657,151.343 38.970,151.246 47.588 C 151.123 58.484,151.403 59.733,153.967 59.733 C 156.818 59.733,156.917 59.397,157.014 49.414 C 157.120 38.428,156.687 37.172,153.135 38.171 M171.200 42.438 L 171.200 46.743 172.848 46.570 C 175.605 46.282,176.534 45.183,176.533 42.209 C 176.532 39.300,175.453 38.144,172.733 38.137 L 171.200 38.133 171.200 42.438 M190.400 48.931 L 190.400 59.802 192.054 59.615 C 195.530 59.222,195.467 59.423,195.467 48.684 L 195.467 40.008 194.725 39.178 C 194.071 38.446,193.771 38.331,192.192 38.204 L 190.400 38.060 190.400 48.931 M227.467 42.170 L 227.467 46.207 229.023 46.066 C 231.984 45.798,232.800 44.920,232.800 42.000 C 232.800 39.119,231.779 38.133,228.795 38.133 L 227.467 38.133 227.467 42.170 M320.800 48.934 L 320.800 59.807 322.250 59.636 C 325.956 59.201,325.908 59.353,325.810 48.389 L 325.733 39.745 325.033 39.044 C 324.460 38.473,324.007 38.318,322.566 38.202 L 320.800 38.060 320.800 48.934 M284.849 47.380 C 284.380 50.288,283.997 52.757,283.998 52.867 C 283.999 52.977,284.780 53.067,285.733 53.067 C 286.687 53.067,287.464 52.977,287.460 52.867 C 287.456 52.757,287.059 50.288,286.578 47.380 L 285.702 42.094 284.849 47.380 M210.290 47.288 C 209.863 49.953,209.460 52.343,209.393 52.600 C 209.286 53.010,209.487 53.067,211.036 53.067 C 212.414 53.067,212.800 52.981,212.800 52.673 C 212.800 52.188,211.229 42.607,211.134 42.511 C 211.096 42.474,210.716 44.623,210.290 47.288 M106.577 45.800 C 106.324 47.377,105.957 49.657,105.762 50.867 L 105.407 53.067 107.183 53.067 L 108.958 53.067 108.157 48.000 C 107.716 45.213,107.284 42.933,107.196 42.933 C 107.108 42.933,106.830 44.223,106.577 45.800 M227.467 54.800 L 227.467 59.467 229.213 59.467 C 232.370 59.467,233.205 58.488,233.194 54.800 C 233.183 51.351,232.078 50.133,228.960 50.133 L 227.467 50.133 227.467 54.800 M111.036 81.978 C 114.259 82.948,115.527 85.045,115.683 89.667 L 115.790 92.800 113.118 92.800 L 110.447 92.800 110.357 89.843 C 110.248 86.261,109.919 85.786,107.649 85.921 C 105.219 86.066,105.214 86.083,105.118 95.686 C 105.005 106.815,105.156 107.467,107.835 107.467 C 109.883 107.467,110.400 106.522,110.400 102.783 L 110.400 100.267 113.095 100.267 L 115.790 100.267 115.685 103.400 C 115.483 109.419,113.404 111.600,107.867 111.600 C 104.698 111.600,103.528 111.247,101.986 109.825 C 99.668 107.688,99.600 107.315,99.600 96.661 L 99.600 87.322 100.479 85.537 C 102.142 82.158,106.620 80.648,111.036 81.978 M272.622 82.378 C 275.026 83.542,276.059 85.503,276.414 89.581 L 276.602 91.733 273.794 91.733 L 270.986 91.733 270.893 89.310 C 270.783 86.441,270.366 85.867,268.392 85.867 C 265.552 85.867,265.486 86.082,265.382 95.671 C 265.267 106.218,265.578 107.467,268.320 107.467 C 270.576 107.467,271.452 106.036,271.461 102.333 L 271.467 100.000 269.867 100.000 L 268.267 100.000 268.267 98.133 L 268.267 96.267 272.400 96.267 L 276.533 96.267 276.533 103.867 L 276.533 111.467 274.667 111.467 C 272.910 111.467,272.800 111.431,272.796 110.867 C 272.786 109.207,272.543 109.037,271.645 110.060 C 268.644 113.478,262.378 111.795,260.502 107.067 C 259.513 104.575,259.515 88.739,260.505 86.282 C 262.217 82.033,268.036 80.158,272.622 82.378 M124.000 94.667 L 124.000 107.467 127.612 107.467 L 131.223 107.467 131.145 109.400 L 131.067 111.333 124.867 111.405 L 118.667 111.476 118.667 96.672 L 118.667 81.867 121.333 81.867 L 124.000 81.867 124.000 94.667 M145.333 83.867 L 145.333 85.867 142.000 85.867 L 138.667 85.867 138.667 90.000 L 138.667 94.133 141.333 94.133 L 144.000 94.133 144.000 96.133 L 144.000 98.133 141.333 98.133 L 138.667 98.133 138.667 102.800 L 138.667 107.467 142.133 107.467 L 145.600 107.467 145.600 109.467 L 145.600 111.467 139.333 111.467 L 133.067 111.467 133.067 96.667 L 133.067 81.867 139.200 81.867 L 145.333 81.867 145.333 83.867 M157.956 82.467 C 158.282 83.794,163.733 110.861,163.733 111.153 C 163.733 111.371,162.969 111.467,161.218 111.467 C 158.322 111.467,158.636 111.806,158.000 108.000 C 157.365 104.204,157.659 104.533,154.915 104.533 C 153.605 104.533,152.533 104.616,152.533 104.718 C 152.533 104.819,152.275 106.379,151.960 108.184 L 151.386 111.467 148.760 111.467 C 147.315 111.467,146.133 111.370,146.133 111.253 C 146.133 111.135,147.453 104.571,149.067 96.667 C 150.680 88.762,152.000 82.198,152.000 82.081 C 152.000 81.479,157.806 81.855,157.956 82.467 M173.021 89.836 L 176.400 97.672 176.471 89.770 L 176.541 81.867 178.804 81.867 L 181.067 81.867 181.067 96.667 L 181.067 111.467 179.339 111.467 L 177.611 111.467 177.116 110.467 C 176.843 109.917,175.251 106.149,173.577 102.094 L 170.533 94.721 170.463 103.104 L 170.392 111.487 168.063 111.410 L 165.733 111.333 165.664 96.589 L 165.595 81.844 167.619 81.922 L 169.642 82.000 173.021 89.836 M205.067 83.867 L 205.067 85.867 201.600 85.867 L 198.133 85.867 198.133 90.000 L 198.133 94.133 200.933 94.133 L 203.733 94.133 203.733 96.133 L 203.733 98.133 200.933 98.133 L 198.133 98.133 198.133 102.800 L 198.133 107.467 201.745 107.467 L 205.357 107.467 205.278 109.400 L 205.200 111.333 198.933 111.333 L 192.667 111.333 192.598 96.600 L 192.529 81.867 198.798 81.867 L 205.067 81.867 205.067 83.867 M214.644 89.764 L 218.000 97.529 218.071 89.698 L 218.141 81.867 220.540 81.867 L 222.938 81.867 222.869 96.600 L 222.800 111.333 220.938 111.333 L 219.076 111.333 215.605 102.960 L 212.133 94.587 212.063 103.027 L 211.993 111.467 209.730 111.467 L 207.467 111.467 207.467 96.655 L 207.467 81.843 209.378 81.922 L 211.289 82.000 214.644 89.764 M238.667 83.867 L 238.667 85.867 235.200 85.867 L 231.733 85.867 231.733 90.000 L 231.733 94.133 234.533 94.133 L 237.333 94.133 237.333 96.133 L 237.333 98.133 234.533 98.133 L 231.733 98.133 231.733 102.800 L 231.733 107.467 235.345 107.467 L 238.957 107.467 238.878 109.400 L 238.800 111.333 232.533 111.333 L 226.267 111.333 226.198 96.600 L 226.129 81.867 232.398 81.867 L 238.667 81.867 238.667 83.867 M252.811 82.618 C 257.797 84.571,258.882 93.454,254.495 96.410 L 253.670 96.967 255.629 103.883 C 256.707 107.687,257.591 110.950,257.594 111.133 C 257.598 111.379,256.875 111.467,254.847 111.467 L 252.094 111.467 250.376 104.867 L 248.658 98.267 247.529 98.185 L 246.400 98.103 246.400 104.794 L 246.400 111.485 243.667 111.409 L 240.933 111.333 240.864 96.572 L 240.795 81.811 246.064 81.925 C 250.672 82.024,251.519 82.111,252.811 82.618 M284.519 87.461 C 285.462 90.537,286.261 93.027,286.293 92.994 C 286.325 92.961,287.028 90.653,287.855 87.867 C 288.682 85.080,289.421 82.590,289.497 82.333 C 289.665 81.770,294.667 81.610,294.667 82.168 C 294.667 82.334,293.347 86.518,291.733 91.467 L 288.800 100.464 288.800 105.965 L 288.800 111.467 286.133 111.467 L 283.467 111.467 283.467 105.710 L 283.467 99.954 280.533 91.090 C 278.920 86.216,277.600 82.146,277.600 82.047 C 277.600 81.948,278.771 81.867,280.202 81.867 L 282.803 81.867 284.519 87.461 M246.400 90.103 L 246.400 94.400 247.667 94.394 C 250.780 94.380,251.871 93.037,251.690 89.445 C 251.551 86.707,250.927 86.062,248.269 85.912 L 246.400 85.806 246.400 90.103 M154.852 90.933 C 154.615 91.917,153.333 99.886,153.333 100.378 C 153.333 100.719,153.662 100.800,155.050 100.800 L 156.766 100.800 156.611 99.800 C 155.704 93.955,154.991 90.359,154.852 90.933 M201.407 150.683 C 202.567 151.005,204.119 152.274,204.680 153.360 C 205.247 154.456,205.257 181.796,204.690 182.880 C 202.930 186.250,198.580 186.628,196.148 183.623 L 195.333 182.618 195.252 168.709 C 195.164 153.607,195.178 153.443,196.626 152.039 C 198.070 150.640,199.645 150.193,201.407 150.683 M153.867 164.231 C 154.967 164.790,155.245 165.233,163.160 179.037 C 169.448 190.003,169.551 190.282,168.261 192.810 C 166.657 195.955,161.772 196.213,159.843 193.254 C 156.024 187.399,146.400 169.821,146.400 168.702 C 146.400 164.726,150.276 162.405,153.867 164.231 M250.746 163.827 C 252.659 164.626,254.111 167.279,253.735 169.287 C 253.445 170.831,240.303 193.543,239.221 194.370 C 236.108 196.747,231.353 194.265,231.338 190.255 C 231.333 188.785,243.658 166.533,245.458 164.763 C 246.721 163.522,249.035 163.112,250.746 163.827 M208.690 195.342 C 256.265 202.400,276.143 260.685,242.686 295.027 C 204.923 333.788,139.817 306.308,141.140 252.167 C 141.886 221.651,164.732 197.776,196.000 194.834 C 198.321 194.615,205.812 194.916,208.690 195.342 M128.490 206.642 C 140.654 213.594,141.351 214.083,141.881 216.055 C 142.791 219.432,139.694 222.892,136.316 222.273 C 134.986 222.029,112.184 208.962,111.342 207.961 C 109.134 205.338,110.243 201.317,113.508 200.108 C 115.615 199.328,115.938 199.469,128.490 206.642 M287.620 200.398 C 290.475 202.071,290.847 206.192,288.333 208.302 C 285.890 210.352,264.589 222.133,263.325 222.133 C 259.035 222.133,256.750 217.638,259.238 214.091 C 259.624 213.540,277.935 202.718,282.933 200.088 C 284.065 199.492,286.330 199.641,287.620 200.398 M198.392 214.733 C 197.739 215.063,196.930 215.746,196.594 216.251 L 195.984 217.170 196.059 228.568 L 196.133 239.965 196.933 240.807 C 199.087 243.071,202.208 242.859,203.773 240.342 C 204.487 239.193,204.923 219.745,204.284 217.569 C 203.468 214.795,200.806 213.514,198.392 214.733 M188.653 225.161 C 165.501 234.699,162.903 266.321,184.186 279.526 C 199.251 288.872,219.434 283.123,227.457 267.200 C 235.534 251.172,227.829 231.228,211.133 224.948 L 209.333 224.271 209.333 229.831 L 209.333 235.391 210.922 236.372 C 227.674 246.711,220.711 272.846,201.019 273.542 C 180.145 274.280,171.830 246.611,189.766 236.100 L 190.933 235.416 190.933 229.841 C 190.933 226.775,190.903 224.269,190.867 224.272 C 190.830 224.274,189.834 224.674,188.653 225.161 M129.913 249.135 C 133.450 251.296,133.159 256.474,129.413 258.040 C 127.865 258.686,101.350 258.556,100.056 257.895 C 97.173 256.424,96.370 252.472,98.484 250.165 C 100.049 248.456,99.259 248.535,114.800 248.536 L 128.933 248.536 129.913 249.135 M300.240 248.920 C 303.686 250.702,304.031 255.122,300.910 257.502 L 299.908 258.267 285.467 258.267 L 271.025 258.267 270.071 257.539 C 266.902 255.122,267.265 250.794,270.800 248.844 C 271.691 248.352,299.280 248.423,300.240 248.920 M276.768 291.485 C 289.889 299.003,289.849 298.973,290.075 301.703 C 290.336 304.843,287.494 307.464,284.332 307.000 C 282.540 306.737,259.669 293.310,259.008 292.133 C 257.005 288.567,259.584 284.345,263.600 284.614 C 264.783 284.694,266.270 285.469,276.768 291.485 M140.128 285.711 C 142.170 287.269,142.685 290.343,141.262 292.486 C 140.205 294.079,117.139 307.200,115.396 307.200 C 112.443 307.200,110.400 305.170,110.400 302.237 C 110.400 299.200,110.141 299.407,123.643 291.642 L 135.600 284.766 137.363 284.856 C 138.811 284.930,139.305 285.083,140.128 285.711 M165.392 311.745 C 167.461 312.320,169.049 314.460,169.061 316.692 C 169.068 318.023,156.412 340.555,154.817 342.051 C 151.358 345.294,145.558 342.014,146.626 337.418 C 146.894 336.264,159.708 313.798,160.639 312.851 C 161.773 311.696,163.647 311.260,165.392 311.745 M238.533 311.968 C 240.041 312.661,239.796 312.287,247.170 325.119 C 254.413 337.721,254.466 337.846,253.583 340.183 C 252.390 343.341,247.658 344.299,245.425 341.834 C 243.945 340.200,231.658 318.266,231.531 317.031 C 231.123 313.051,234.917 310.308,238.533 311.968 M201.627 321.376 C 202.864 321.798,203.754 322.522,204.465 323.687 L 205.064 324.667 205.064 338.800 C 205.065 352.245,205.040 352.974,204.555 353.769 C 202.656 356.884,198.291 357.118,196.082 354.223 L 195.333 353.242 195.255 339.488 C 195.167 324.190,195.155 324.374,196.344 323.019 C 197.821 321.337,199.753 320.736,201.627 321.376 " stroke="none" fill="#fcc40c" fill-rule="evenodd"></path><path id="path2" d="M41.000 34.333 C 45.877 34.374,53.857 34.374,58.733 34.333 C 63.610 34.293,59.620 34.259,49.867 34.259 C 40.113 34.259,36.123 34.293,41.000 34.333 M117.991 48.800 C 117.991 56.940,118.025 60.270,118.066 56.200 C 118.108 52.130,118.108 45.470,118.066 41.400 C 118.025 37.330,117.991 40.660,117.991 48.800 M144.051 35.925 L 144.000 37.850 140.733 37.925 L 137.467 38.000 137.456 42.200 L 137.446 46.401 137.530 42.267 L 137.614 38.133 140.815 38.133 C 144.482 38.133,144.340 38.235,144.198 35.705 L 144.103 34.000 144.051 35.925 M165.725 48.800 C 165.725 56.940,165.758 60.270,165.800 56.200 C 165.841 52.130,165.841 45.470,165.800 41.400 C 165.758 37.330,165.725 40.660,165.725 48.800 M307.141 42.159 C 307.100 46.573,307.157 50.240,307.267 50.308 C 307.377 50.376,307.467 46.764,307.467 42.282 C 307.467 37.800,307.410 34.133,307.341 34.133 C 307.272 34.133,307.182 37.745,307.141 42.159 M125.144 38.065 C 126.141 38.116,127.701 38.116,128.611 38.064 C 129.522 38.012,128.707 37.970,126.800 37.970 C 124.893 37.971,124.148 38.013,125.144 38.065 M227.317 38.212 C 227.244 38.402,227.222 40.292,227.267 42.412 L 227.349 46.267 227.408 42.219 C 227.465 38.254,227.479 38.168,228.067 38.055 L 228.667 37.939 228.058 37.903 C 227.724 37.883,227.390 38.022,227.317 38.212 M237.673 41.600 C 237.673 42.260,237.725 42.530,237.788 42.200 C 237.852 41.870,237.852 41.330,237.788 41.000 C 237.725 40.670,237.673 40.940,237.673 41.600 M176.601 42.267 C 176.604 42.853,176.658 43.062,176.722 42.730 C 176.786 42.399,176.783 41.919,176.717 41.664 C 176.650 41.409,176.598 41.680,176.601 42.267 M325.929 42.133 C 325.929 42.647,325.983 42.857,326.050 42.600 C 326.118 42.343,326.118 41.923,326.050 41.667 C 325.983 41.410,325.929 41.620,325.929 42.133 M35.733 45.524 C 44.838 45.711,53.005 45.715,52.892 45.533 C 52.824 45.423,48.126 45.360,42.451 45.392 C 36.776 45.424,33.753 45.484,35.733 45.524 M142.756 48.267 C 142.756 49.367,142.803 49.817,142.861 49.267 C 142.918 48.717,142.918 47.817,142.861 47.267 C 142.803 46.717,142.756 47.167,142.756 48.267 M266.490 48.267 C 266.490 49.367,266.537 49.817,266.594 49.267 C 266.652 48.717,266.652 47.817,266.594 47.267 C 266.537 46.717,266.490 47.167,266.490 48.267 M227.310 54.800 C 227.310 57.440,227.350 58.484,227.399 57.120 C 227.447 55.756,227.447 53.596,227.398 52.320 C 227.350 51.044,227.310 52.160,227.310 54.800 M137.449 56.933 C 137.449 60.600,137.486 62.137,137.532 60.349 C 137.578 58.561,137.579 55.561,137.533 53.682 C 137.487 51.804,137.449 53.267,137.449 56.933 M283.801 52.800 C 283.883 53.104,284.353 53.205,285.755 53.222 L 287.600 53.244 285.874 53.141 C 284.924 53.084,284.045 52.895,283.920 52.719 C 283.760 52.495,283.725 52.519,283.801 52.800 M106.200 53.261 C 106.750 53.318,107.650 53.318,108.200 53.261 C 108.750 53.203,108.300 53.156,107.200 53.156 C 106.100 53.156,105.650 53.203,106.200 53.261 M210.200 53.261 C 210.750 53.318,211.650 53.318,212.200 53.261 C 212.750 53.203,212.300 53.156,211.200 53.156 C 210.100 53.156,209.650 53.203,210.200 53.261 M325.934 55.333 C 325.937 55.920,325.991 56.129,326.055 55.797 C 326.119 55.465,326.117 54.985,326.050 54.730 C 325.983 54.475,325.931 54.747,325.934 55.333 M153.400 63.924 C 153.803 63.985,154.463 63.985,154.867 63.924 C 155.270 63.863,154.940 63.813,154.133 63.813 C 153.327 63.813,152.997 63.863,153.400 63.924 M119.933 82.063 C 120.703 82.117,121.963 82.117,122.733 82.063 C 123.503 82.009,122.873 81.965,121.333 81.965 C 119.793 81.965,119.163 82.009,119.933 82.063 M136.067 82.066 C 137.790 82.112,140.610 82.112,142.333 82.066 C 144.057 82.019,142.647 81.981,139.200 81.981 C 135.753 81.981,134.343 82.019,136.067 82.066 M153.676 82.064 C 154.525 82.117,155.845 82.117,156.610 82.063 C 157.374 82.009,156.680 81.966,155.067 81.966 C 153.453 81.967,152.828 82.011,153.676 82.064 M166.733 82.061 C 167.283 82.118,168.183 82.118,168.733 82.061 C 169.283 82.003,168.833 81.956,167.733 81.956 C 166.633 81.956,166.183 82.003,166.733 82.061 M177.675 82.063 C 178.376 82.118,179.456 82.117,180.075 82.062 C 180.694 82.006,180.120 81.961,178.800 81.961 C 177.480 81.962,176.974 82.008,177.675 82.063 M195.800 82.066 C 197.523 82.112,200.343 82.112,202.067 82.066 C 203.790 82.019,202.380 81.981,198.933 81.981 C 195.487 81.981,194.077 82.019,195.800 82.066 M208.000 82.030 C 209.592 82.231,211.407 82.251,211.293 82.067 C 211.224 81.957,210.306 81.885,209.251 81.907 C 208.196 81.929,207.633 81.984,208.000 82.030 M218.290 82.096 C 218.100 82.404,218.062 97.884,218.251 98.073 C 218.333 98.155,218.400 94.607,218.400 90.189 L 218.400 82.155 220.600 82.065 L 222.800 81.975 220.616 81.921 C 219.414 81.891,218.368 81.970,218.290 82.096 M229.400 82.066 C 231.123 82.112,233.943 82.112,235.667 82.066 C 237.390 82.019,235.980 81.981,232.533 81.981 C 229.087 81.981,227.677 82.019,229.400 82.066 M243.146 82.065 C 244.363 82.115,246.283 82.115,247.413 82.065 C 248.542 82.015,247.547 81.974,245.200 81.975 C 242.853 81.975,241.929 82.016,243.146 82.065 M277.600 82.067 C 277.600 82.177,278.789 82.267,280.241 82.267 C 281.694 82.267,282.827 82.177,282.759 82.067 C 282.691 81.957,281.502 81.867,280.118 81.867 C 278.733 81.867,277.600 81.957,277.600 82.067 M290.876 82.064 C 291.651 82.118,292.851 82.117,293.542 82.062 C 294.234 82.008,293.600 81.963,292.133 81.964 C 290.667 81.965,290.101 82.010,290.876 82.064 M246.867 85.788 C 247.197 85.852,247.737 85.852,248.067 85.788 C 248.397 85.725,248.127 85.673,247.467 85.673 C 246.807 85.673,246.537 85.725,246.867 85.788 M110.513 90.667 L 110.533 92.667 113.134 92.682 L 115.735 92.697 113.212 92.606 L 110.690 92.514 110.591 90.590 L 110.493 88.667 110.513 90.667 M104.918 96.667 C 104.918 100.920,104.955 102.623,105.000 100.450 C 105.044 98.278,105.044 94.798,104.999 92.717 C 104.954 90.636,104.918 92.413,104.918 96.667 M203.518 95.924 L 203.467 97.848 200.733 97.934 L 198.000 98.021 200.742 98.077 C 203.899 98.142,203.806 98.217,203.665 95.705 L 203.569 94.000 203.518 95.924 M237.118 95.924 L 237.067 97.848 234.333 97.934 L 231.600 98.021 234.342 98.077 C 237.499 98.142,237.406 98.217,237.265 95.705 L 237.169 94.000 237.118 95.924 M270.467 96.465 C 271.603 96.515,273.463 96.515,274.600 96.465 C 275.737 96.415,274.807 96.374,272.533 96.374 C 270.260 96.374,269.330 96.415,270.467 96.465 M139.933 98.063 C 140.703 98.117,141.963 98.117,142.733 98.063 C 143.503 98.009,142.873 97.965,141.333 97.965 C 139.793 97.965,139.163 98.009,139.933 98.063 M269.987 99.924 L 271.443 100.026 271.540 101.680 L 271.636 103.333 271.618 101.600 L 271.600 99.867 270.065 99.845 L 268.531 99.823 269.987 99.924 M283.580 105.600 C 283.580 108.753,283.619 110.043,283.666 108.467 C 283.713 106.890,283.713 104.310,283.666 102.733 C 283.619 101.157,283.580 102.447,283.580 105.600 M110.493 102.400 C 110.493 103.647,110.539 104.157,110.595 103.533 C 110.651 102.910,110.651 101.890,110.595 101.267 C 110.539 100.643,110.493 101.153,110.493 102.400 M145.423 109.333 C 145.423 110.433,145.470 110.883,145.528 110.333 C 145.585 109.783,145.585 108.883,145.528 108.333 C 145.470 107.783,145.423 108.233,145.423 109.333 M44.133 110.667 L 36.933 110.813 44.051 110.873 C 48.574 110.911,51.229 110.836,51.333 110.667 C 51.424 110.520,51.461 110.427,51.416 110.460 C 51.370 110.493,48.093 110.586,44.133 110.667 M199.800 194.850 C 200.057 194.918,200.477 194.918,200.733 194.850 C 200.990 194.783,200.780 194.729,200.267 194.729 C 199.753 194.729,199.543 194.783,199.800 194.850 M241.067 211.283 C 241.067 211.329,241.457 211.719,241.933 212.150 L 242.800 212.933 242.017 212.067 C 241.287 211.259,241.067 211.077,241.067 211.283 M213.600 238.483 C 213.600 238.529,213.990 238.919,214.467 239.350 L 215.333 240.133 214.550 239.267 C 213.820 238.459,213.600 238.277,213.600 238.483 M169.410 253.467 C 169.412 254.200,169.463 254.468,169.525 254.063 C 169.586 253.658,169.584 253.058,169.521 252.730 C 169.458 252.402,169.408 252.733,169.410 253.467 M185.067 267.017 C 185.067 267.063,185.457 267.453,185.933 267.883 L 186.800 268.667 186.017 267.800 C 185.287 266.992,185.067 266.811,185.067 267.017 M198.467 284.184 C 198.723 284.251,199.143 284.251,199.400 284.184 C 199.657 284.117,199.447 284.062,198.933 284.062 C 198.420 284.062,198.210 284.117,198.467 284.184 M200.867 284.184 C 201.123 284.251,201.543 284.251,201.800 284.184 C 202.057 284.117,201.847 284.062,201.333 284.062 C 200.820 284.062,200.610 284.117,200.867 284.184 M262.870 284.722 C 263.201 284.786,263.681 284.783,263.936 284.717 C 264.191 284.650,263.920 284.598,263.333 284.601 C 262.747 284.604,262.538 284.658,262.870 284.722 M141.929 289.600 C 141.929 290.113,141.983 290.323,142.050 290.067 C 142.118 289.810,142.118 289.390,142.050 289.133 C 141.983 288.877,141.929 289.087,141.929 289.600 M235.936 311.655 C 236.268 311.719,236.748 311.717,237.003 311.650 C 237.258 311.583,236.987 311.531,236.400 311.534 C 235.813 311.537,235.605 311.591,235.936 311.655 M168.862 316.533 C 168.862 317.047,168.917 317.257,168.984 317.000 C 169.051 316.743,169.051 316.323,168.984 316.067 C 168.917 315.810,168.862 316.020,168.862 316.533 " stroke="none" fill="#fcdb67" fill-rule="evenodd"></path><path id="path3" d="M105.067 34.306 C 107.275 34.502,110.074 34.518,109.960 34.333 C 109.891 34.223,108.552 34.154,106.984 34.178 C 105.416 34.203,104.553 34.260,105.067 34.306 M123.921 34.333 L 129.843 34.410 129.936 36.205 L 130.029 38.000 130.081 36.067 L 130.133 34.133 124.067 34.195 L 118.000 34.256 123.921 34.333 M132.064 48.867 L 132.129 63.600 132.200 49.005 L 132.271 34.410 138.202 34.333 L 144.133 34.256 138.067 34.195 L 132.000 34.133 132.064 48.867 M167.667 34.331 C 168.730 34.382,170.470 34.382,171.533 34.331 C 172.597 34.281,171.727 34.239,169.600 34.239 C 167.473 34.239,166.603 34.281,167.667 34.331 M187.012 34.332 C 188.156 34.382,189.956 34.382,191.012 34.331 C 192.069 34.281,191.133 34.240,188.933 34.240 C 186.733 34.240,185.869 34.282,187.012 34.332 M209.676 34.331 C 210.525 34.384,211.845 34.383,212.610 34.330 C 213.374 34.276,212.680 34.232,211.067 34.233 C 209.453 34.234,208.828 34.278,209.676 34.331 M221.931 48.867 L 221.995 63.600 222.067 49.007 L 222.138 34.414 226.202 34.333 L 230.267 34.252 226.067 34.193 L 221.867 34.133 221.931 48.867 M242.600 34.330 C 243.370 34.384,244.630 34.384,245.400 34.330 C 246.170 34.276,245.540 34.232,244.000 34.232 C 242.460 34.232,241.830 34.276,242.600 34.330 M258.733 34.332 C 260.457 34.379,263.277 34.379,265.000 34.332 C 266.723 34.286,265.313 34.248,261.867 34.248 C 258.420 34.248,257.010 34.286,258.733 34.332 M284.343 34.331 C 285.192 34.384,286.512 34.383,287.276 34.330 C 288.041 34.276,287.347 34.232,285.733 34.233 C 284.120 34.234,283.494 34.278,284.343 34.331 M297.400 34.328 C 297.950 34.385,298.850 34.385,299.400 34.328 C 299.950 34.270,299.500 34.223,298.400 34.223 C 297.300 34.223,296.850 34.270,297.400 34.328 M308.467 34.329 C 309.090 34.385,310.110 34.385,310.733 34.329 C 311.357 34.272,310.847 34.227,309.600 34.227 C 308.353 34.227,307.843 34.272,308.467 34.329 M317.412 34.332 C 318.556 34.382,320.356 34.382,321.412 34.331 C 322.469 34.281,321.533 34.240,319.333 34.240 C 317.133 34.240,316.269 34.282,317.412 34.332 M67.311 39.200 C 67.311 41.913,67.350 43.023,67.399 41.667 C 67.447 40.310,67.447 38.090,67.399 36.733 C 67.350 35.377,67.311 36.487,67.311 39.200 M190.733 38.050 C 190.990 38.118,191.410 38.118,191.667 38.050 C 191.923 37.983,191.713 37.929,191.200 37.929 C 190.687 37.929,190.477 37.983,190.733 38.050 M262.733 38.064 C 263.723 38.116,265.343 38.116,266.333 38.064 C 267.323 38.013,266.513 37.971,264.533 37.971 C 262.553 37.971,261.743 38.013,262.733 38.064 M321.133 38.050 C 321.390 38.118,321.810 38.118,322.067 38.050 C 322.323 37.983,322.113 37.929,321.600 37.929 C 321.087 37.929,320.877 37.983,321.133 38.050 M123.308 42.267 C 123.308 44.613,123.349 45.538,123.399 44.321 C 123.448 43.104,123.448 41.184,123.398 40.054 C 123.348 38.924,123.308 39.920,123.308 42.267 M171.056 42.400 L 171.067 46.800 171.867 46.839 C 172.614 46.875,172.619 46.869,171.940 46.755 L 171.213 46.633 171.129 42.316 L 171.046 38.000 171.056 42.400 M157.184 48.800 C 157.184 52.980,157.221 54.690,157.266 52.600 C 157.311 50.510,157.311 47.090,157.266 45.000 C 157.221 42.910,157.184 44.620,157.184 48.800 M162.516 48.800 C 162.516 52.687,162.554 54.277,162.599 52.333 C 162.645 50.390,162.645 47.210,162.599 45.267 C 162.554 43.323,162.516 44.913,162.516 48.800 M151.050 48.933 C 151.050 52.747,151.087 54.270,151.133 52.318 C 151.178 50.366,151.178 47.246,151.132 45.384 C 151.087 43.523,151.049 45.120,151.050 48.933 M145.715 48.800 C 145.715 52.393,145.753 53.863,145.799 52.067 C 145.845 50.270,145.845 47.330,145.799 45.533 C 145.753 43.737,145.715 45.207,145.715 48.800 M128.623 48.267 C 128.623 49.367,128.670 49.817,128.728 49.267 C 128.785 48.717,128.785 47.817,128.728 47.267 C 128.670 46.717,128.623 47.167,128.623 48.267 M123.316 56.933 C 123.315 60.600,123.353 62.137,123.399 60.349 C 123.445 58.561,123.445 55.561,123.399 53.682 C 123.353 51.804,123.316 53.267,123.316 56.933 M171.049 56.933 C 171.049 60.600,171.086 62.137,171.132 60.349 C 171.178 58.561,171.179 55.561,171.133 53.682 C 171.087 51.804,171.049 53.267,171.049 56.933 M233.406 54.933 C 233.406 55.593,233.458 55.863,233.522 55.533 C 233.585 55.203,233.585 54.663,233.522 54.333 C 233.458 54.003,233.406 54.273,233.406 54.933 M238.467 55.067 C 238.470 55.653,238.525 55.862,238.589 55.530 C 238.652 55.199,238.650 54.719,238.583 54.464 C 238.516 54.209,238.464 54.480,238.467 55.067 M105.933 56.729 C 106.630 56.784,107.770 56.784,108.467 56.729 C 109.163 56.674,108.593 56.629,107.200 56.629 C 105.807 56.629,105.237 56.674,105.933 56.729 M209.467 56.702 C 211.352 56.900,213.808 56.918,213.693 56.733 C 213.625 56.623,212.466 56.553,211.118 56.576 C 209.770 56.599,209.027 56.656,209.467 56.702 M284.333 56.729 C 285.030 56.784,286.170 56.784,286.867 56.729 C 287.563 56.674,286.993 56.629,285.600 56.629 C 284.207 56.629,283.637 56.674,284.333 56.729 M248.333 59.931 C 249.323 59.982,250.943 59.982,251.933 59.931 C 252.923 59.880,252.113 59.838,250.133 59.838 C 248.153 59.838,247.343 59.880,248.333 59.931 M262.733 59.931 C 263.723 59.982,265.343 59.982,266.333 59.931 C 267.323 59.880,266.513 59.838,264.533 59.838 C 262.553 59.838,261.743 59.880,262.733 59.931 M107.270 81.791 C 107.676 81.853,108.276 81.851,108.604 81.788 C 108.932 81.724,108.600 81.674,107.867 81.676 C 107.133 81.678,106.865 81.730,107.270 81.791 M267.537 81.791 C 267.942 81.853,268.542 81.851,268.870 81.788 C 269.198 81.724,268.867 81.674,268.133 81.676 C 267.400 81.678,267.132 81.730,267.537 81.791 M176.474 90.133 C 176.433 94.534,176.490 98.134,176.600 98.133 C 176.710 98.133,176.800 94.533,176.800 90.133 C 176.800 85.733,176.743 82.133,176.674 82.133 C 176.605 82.133,176.515 85.733,176.474 90.133 M238.400 83.859 L 238.400 85.584 235.000 85.667 L 231.600 85.751 235.133 85.809 L 238.667 85.867 238.667 84.000 C 238.667 82.973,238.607 82.133,238.533 82.133 C 238.460 82.133,238.400 82.910,238.400 83.859 M140.344 85.798 C 141.341 85.849,142.901 85.849,143.811 85.797 C 144.722 85.745,143.907 85.703,142.000 85.704 C 140.093 85.704,139.348 85.747,140.344 85.798 M199.800 85.798 C 200.790 85.849,202.410 85.849,203.400 85.798 C 204.390 85.746,203.580 85.704,201.600 85.704 C 199.620 85.704,198.810 85.746,199.800 85.798 M265.183 96.533 C 265.183 100.273,265.220 101.803,265.266 99.933 C 265.312 98.063,265.312 95.003,265.266 93.133 C 265.220 91.263,265.183 92.793,265.183 96.533 M259.847 96.800 C 259.847 99.953,259.885 101.243,259.932 99.667 C 259.979 98.090,259.979 95.510,259.932 93.933 C 259.885 92.357,259.847 93.647,259.847 96.800 M143.823 96.000 C 143.823 97.100,143.870 97.550,143.928 97.000 C 143.985 96.450,143.985 95.550,143.928 95.000 C 143.870 94.450,143.823 94.900,143.823 96.000 M246.867 94.588 C 247.197 94.652,247.737 94.652,248.067 94.588 C 248.397 94.525,248.127 94.473,247.467 94.473 C 246.807 94.473,246.537 94.525,246.867 94.588 M276.384 103.867 C 276.384 107.973,276.421 109.616,276.466 107.517 C 276.511 105.418,276.511 102.058,276.466 100.051 C 276.421 98.043,276.384 99.760,276.384 103.867 M125.667 107.664 C 126.657 107.716,128.277 107.716,129.267 107.664 C 130.257 107.613,129.447 107.571,127.467 107.571 C 125.487 107.571,124.677 107.613,125.667 107.664 M140.344 107.665 C 141.341 107.716,142.901 107.716,143.811 107.664 C 144.722 107.612,143.907 107.570,142.000 107.570 C 140.093 107.571,139.348 107.613,140.344 107.665 M199.800 107.664 C 200.790 107.716,202.410 107.716,203.400 107.664 C 204.390 107.613,203.580 107.571,201.600 107.571 C 199.620 107.571,198.810 107.613,199.800 107.664 M233.400 107.664 C 234.390 107.716,236.010 107.716,237.000 107.664 C 237.990 107.613,237.180 107.571,235.200 107.571 C 233.220 107.571,232.410 107.613,233.400 107.664 M107.403 111.655 C 107.735 111.719,108.215 111.717,108.470 111.650 C 108.725 111.583,108.453 111.531,107.867 111.534 C 107.280 111.537,107.071 111.591,107.403 111.655 M266.867 111.655 C 267.197 111.718,267.737 111.718,268.067 111.655 C 268.397 111.591,268.127 111.539,267.467 111.539 C 266.807 111.539,266.537 111.591,266.867 111.655 M195.324 168.133 C 195.324 175.613,195.358 178.712,195.400 175.019 C 195.442 171.326,195.442 165.206,195.400 161.419 C 195.358 157.632,195.324 160.653,195.324 168.133 M146.467 168.667 C 146.470 169.253,146.525 169.462,146.589 169.130 C 146.652 168.799,146.650 168.319,146.583 168.064 C 146.516 167.809,146.464 168.080,146.467 168.667 M262.870 222.055 C 263.201 222.119,263.681 222.117,263.936 222.050 C 264.191 221.983,263.920 221.931,263.333 221.934 C 262.747 221.937,262.538 221.991,262.870 222.055 M191.047 229.867 C 191.047 233.020,191.085 234.310,191.132 232.733 C 191.179 231.157,191.179 228.577,191.132 227.000 C 191.085 225.423,191.047 226.713,191.047 229.867 M209.180 229.867 C 209.180 233.020,209.219 234.310,209.266 232.733 C 209.313 231.157,209.313 228.577,209.266 227.000 C 209.219 225.423,209.180 226.713,209.180 229.867 M108.085 258.333 C 111.872 258.375,117.992 258.375,121.685 258.333 C 125.378 258.291,122.280 258.257,114.800 258.257 C 107.320 258.257,104.298 258.291,108.085 258.333 M278.752 258.333 C 282.539 258.375,288.659 258.375,292.352 258.333 C 296.045 258.291,292.947 258.257,285.467 258.257 C 277.987 258.257,274.965 258.291,278.752 258.333 M221.717 275.267 L 220.933 276.133 221.800 275.350 C 222.277 274.919,222.667 274.529,222.667 274.483 C 222.667 274.277,222.447 274.459,221.717 275.267 M158.267 295.733 C 159.137 296.613,159.910 297.333,159.983 297.333 C 160.057 297.333,159.404 296.613,158.533 295.733 C 157.663 294.853,156.890 294.133,156.817 294.133 C 156.743 294.133,157.396 294.853,158.267 295.733 M115.000 307.117 C 115.257 307.184,115.677 307.184,115.933 307.117 C 116.190 307.050,115.980 306.995,115.467 306.995 C 114.953 306.995,114.743 307.050,115.000 307.117 M197.536 312.989 C 197.868 313.052,198.348 313.050,198.603 312.983 C 198.858 312.916,198.587 312.864,198.000 312.867 C 197.413 312.870,197.205 312.925,197.536 312.989 M201.800 312.988 C 202.130 313.052,202.670 313.052,203.000 312.988 C 203.330 312.925,203.060 312.873,202.400 312.873 C 201.740 312.873,201.470 312.925,201.800 312.988 M231.534 316.667 C 231.537 317.253,231.591 317.462,231.655 317.130 C 231.719 316.799,231.717 316.319,231.650 316.064 C 231.583 315.809,231.531 316.080,231.534 316.667 M195.324 338.800 C 195.324 346.280,195.358 349.378,195.400 345.685 C 195.442 341.992,195.442 335.872,195.400 332.085 C 195.358 328.298,195.324 331.320,195.324 338.800 " stroke="none" fill="#fce9a4" fill-rule="evenodd"></path><path id="path4" d="M184.930 48.867 L 184.933 63.600 189.000 63.611 L 193.067 63.622 189.069 63.537 L 185.071 63.453 184.999 48.793 L 184.926 34.133 184.930 48.867 M241.197 48.867 L 241.200 63.600 247.467 63.600 L 253.733 63.600 253.754 61.600 L 253.774 59.600 253.675 61.533 L 253.577 63.467 247.457 63.467 L 241.338 63.467 241.266 48.800 L 241.193 34.133 241.197 48.867 M255.597 48.867 L 255.600 63.600 261.867 63.600 L 268.133 63.600 268.154 61.600 L 268.174 59.600 268.075 61.533 L 267.977 63.467 261.857 63.467 L 255.738 63.467 255.666 48.800 L 255.593 34.133 255.597 48.867 M311.798 48.721 L 311.733 63.442 309.933 63.536 L 308.133 63.629 309.942 63.681 C 312.237 63.747,312.017 65.419,311.934 48.533 L 311.862 34.000 311.798 48.721 M315.330 48.867 L 315.333 63.600 319.400 63.611 L 323.467 63.622 319.469 63.537 L 315.471 63.453 315.399 48.793 L 315.326 34.133 315.330 48.867 M171.670 38.055 C 172.001 38.119,172.481 38.117,172.736 38.050 C 172.991 37.983,172.720 37.931,172.133 37.934 C 171.547 37.937,171.338 37.991,171.670 38.055 M232.862 41.867 C 232.862 42.380,232.917 42.590,232.984 42.333 C 233.051 42.077,233.051 41.657,232.984 41.400 C 232.917 41.143,232.862 41.353,232.862 41.867 M195.583 48.667 C 195.583 52.627,195.620 54.284,195.666 52.349 C 195.711 50.415,195.711 47.175,195.666 45.149 C 195.621 43.124,195.584 44.707,195.583 48.667 M201.183 48.667 C 201.183 52.627,201.220 54.284,201.266 52.349 C 201.311 50.415,201.311 47.175,201.266 45.149 C 201.221 43.124,201.184 44.707,201.183 48.667 M331.582 48.667 C 331.582 52.187,331.620 53.590,331.666 51.785 C 331.712 49.980,331.712 47.100,331.666 45.385 C 331.619 43.670,331.581 45.147,331.582 48.667 M325.980 48.667 C 325.981 51.893,326.019 53.177,326.066 51.519 C 326.113 49.860,326.113 47.220,326.066 45.652 C 326.018 44.083,325.980 45.440,325.980 48.667 M227.800 50.050 C 228.057 50.118,228.477 50.118,228.733 50.050 C 228.990 49.983,228.780 49.929,228.267 49.929 C 227.753 49.929,227.543 49.983,227.800 50.050 M124.733 50.330 C 125.503 50.384,126.763 50.384,127.533 50.330 C 128.303 50.276,127.673 50.232,126.133 50.232 C 124.593 50.232,123.963 50.276,124.733 50.330 M138.867 50.330 C 139.637 50.384,140.897 50.384,141.667 50.330 C 142.437 50.276,141.807 50.232,140.267 50.232 C 138.727 50.232,138.097 50.276,138.867 50.330 M171.667 50.322 C 171.997 50.385,172.537 50.385,172.867 50.322 C 173.197 50.258,172.927 50.206,172.267 50.206 C 171.607 50.206,171.337 50.258,171.667 50.322 M262.476 50.331 C 263.325 50.384,264.645 50.383,265.410 50.330 C 266.174 50.276,265.480 50.232,263.867 50.233 C 262.253 50.234,261.628 50.278,262.476 50.331 M228.067 59.658 C 228.470 59.719,229.130 59.719,229.533 59.658 C 229.937 59.597,229.607 59.547,228.800 59.547 C 227.993 59.547,227.663 59.597,228.067 59.658 M100.933 63.467 L 98.267 63.630 100.851 63.682 C 102.345 63.712,103.505 63.621,103.600 63.467 C 103.691 63.320,103.728 63.223,103.682 63.252 C 103.637 63.280,102.400 63.377,100.933 63.467 M112.209 63.664 C 112.984 63.718,114.184 63.717,114.876 63.662 C 115.567 63.608,114.933 63.563,113.467 63.564 C 112.000 63.565,111.434 63.610,112.209 63.664 M119.276 63.664 C 120.125 63.717,121.445 63.717,122.210 63.663 C 122.974 63.609,122.280 63.566,120.667 63.566 C 119.053 63.567,118.428 63.611,119.276 63.664 M133.410 63.664 C 134.258 63.717,135.578 63.717,136.343 63.663 C 137.108 63.609,136.413 63.566,134.800 63.566 C 133.187 63.567,132.561 63.611,133.410 63.664 M167.010 63.664 C 167.858 63.717,169.178 63.717,169.943 63.663 C 170.708 63.609,170.013 63.566,168.400 63.566 C 166.787 63.567,166.161 63.611,167.010 63.664 M178.210 63.664 C 179.058 63.717,180.378 63.717,181.143 63.663 C 181.908 63.609,181.213 63.566,179.600 63.566 C 177.987 63.567,177.361 63.611,178.210 63.664 M203.676 63.664 C 204.451 63.718,205.651 63.717,206.342 63.662 C 207.034 63.608,206.400 63.563,204.933 63.564 C 203.467 63.565,202.901 63.610,203.676 63.664 M215.933 63.663 C 216.703 63.717,217.963 63.717,218.733 63.663 C 219.503 63.609,218.873 63.565,217.333 63.565 C 215.793 63.565,215.163 63.609,215.933 63.663 M224.053 63.665 C 225.329 63.714,227.489 63.714,228.853 63.666 C 230.217 63.617,229.173 63.577,226.533 63.577 C 223.893 63.577,222.777 63.616,224.053 63.665 M278.067 63.663 C 278.837 63.717,280.097 63.717,280.867 63.663 C 281.637 63.609,281.007 63.565,279.467 63.565 C 277.927 63.565,277.297 63.609,278.067 63.663 M290.609 63.664 C 291.384 63.718,292.584 63.717,293.276 63.662 C 293.967 63.608,293.333 63.563,291.867 63.564 C 290.400 63.565,289.834 63.610,290.609 63.664 M297.675 63.663 C 298.376 63.718,299.456 63.717,300.075 63.662 C 300.694 63.606,300.120 63.561,298.800 63.561 C 297.480 63.562,296.974 63.608,297.675 63.663 M165.730 96.600 L 165.733 111.333 168.133 111.351 L 170.533 111.368 168.202 111.274 L 165.871 111.179 165.799 96.523 L 165.726 81.867 165.730 96.600 M192.663 96.600 L 192.667 111.333 198.933 111.333 L 205.200 111.333 205.220 109.333 L 205.240 107.333 205.142 109.267 L 205.043 111.200 198.924 111.200 L 192.805 111.200 192.732 96.533 L 192.660 81.867 192.663 96.600 M222.731 96.454 L 222.667 111.176 220.867 111.269 L 219.067 111.362 220.875 111.414 C 223.170 111.481,222.950 113.152,222.867 96.267 L 222.795 81.733 222.731 96.454 M226.263 96.600 L 226.267 111.333 232.533 111.333 L 238.800 111.333 238.820 109.333 L 238.840 107.333 238.742 109.267 L 238.643 111.200 232.524 111.200 L 226.405 111.200 226.332 96.533 L 226.260 81.867 226.263 96.600 M240.930 96.600 L 240.933 111.333 243.600 111.347 L 246.267 111.361 243.669 111.271 L 241.071 111.181 240.999 96.524 L 240.926 81.867 240.930 96.600 M138.508 90.000 C 138.508 92.347,138.549 93.271,138.599 92.054 C 138.648 90.837,138.648 88.917,138.598 87.787 C 138.548 86.658,138.508 87.653,138.508 90.000 M271.019 90.133 C 271.019 91.087,271.067 91.477,271.126 91.000 C 271.185 90.523,271.185 89.743,271.126 89.267 C 271.067 88.790,271.019 89.180,271.019 90.133 M251.801 90.000 C 251.804 90.587,251.858 90.795,251.922 90.464 C 251.986 90.132,251.983 89.652,251.917 89.397 C 251.850 89.142,251.798 89.413,251.801 90.000 M276.343 90.533 C 276.345 91.267,276.397 91.535,276.458 91.130 C 276.519 90.724,276.518 90.124,276.454 89.796 C 276.391 89.468,276.341 89.800,276.343 90.533 M268.356 98.133 C 268.356 99.233,268.403 99.683,268.461 99.133 C 268.518 98.583,268.518 97.683,268.461 97.133 C 268.403 96.583,268.356 97.033,268.356 98.133 M246.533 98.002 C 247.143 98.214,248.753 98.272,248.632 98.078 C 248.561 97.962,247.999 97.876,247.384 97.888 C 246.770 97.899,246.387 97.951,246.533 98.002 M138.510 102.800 C 138.510 105.440,138.550 106.484,138.599 105.120 C 138.647 103.756,138.647 101.596,138.598 100.320 C 138.550 99.044,138.510 100.160,138.510 102.800 M153.306 100.880 C 153.424 100.998,154.289 101.057,155.227 101.011 L 156.933 100.927 155.012 100.797 C 153.955 100.725,153.188 100.763,153.306 100.880 M130.985 109.262 L 130.933 111.190 124.733 111.267 L 118.533 111.344 124.742 111.405 C 131.790 111.475,131.279 111.664,131.132 109.039 L 131.036 107.333 130.985 109.262 M136.215 111.399 C 138.020 111.446,140.900 111.445,142.615 111.399 C 144.330 111.353,142.853 111.315,139.333 111.315 C 135.813 111.315,134.410 111.353,136.215 111.399 M147.400 111.397 C 148.170 111.450,149.430 111.450,150.200 111.397 C 150.970 111.343,150.340 111.299,148.800 111.299 C 147.260 111.299,146.630 111.343,147.400 111.397 M159.942 111.397 C 160.717 111.451,161.917 111.450,162.609 111.396 C 163.301 111.341,162.667 111.297,161.200 111.297 C 159.733 111.298,159.167 111.343,159.942 111.397 M178.327 111.392 C 178.801 111.451,179.641 111.452,180.194 111.395 C 180.747 111.337,180.360 111.289,179.333 111.288 C 178.307 111.286,177.854 111.334,178.327 111.392 M208.608 111.396 C 209.309 111.451,210.389 111.451,211.008 111.395 C 211.627 111.339,211.053 111.294,209.733 111.295 C 208.413 111.295,207.907 111.341,208.608 111.396 M253.410 111.397 C 254.258 111.450,255.578 111.450,256.343 111.396 C 257.108 111.343,256.413 111.299,254.800 111.300 C 253.187 111.300,252.561 111.344,253.410 111.397 M273.667 111.394 C 274.217 111.452,275.117 111.452,275.667 111.394 C 276.217 111.337,275.767 111.290,274.667 111.290 C 273.567 111.290,273.117 111.337,273.667 111.394 M284.733 111.397 C 285.503 111.450,286.763 111.450,287.533 111.397 C 288.303 111.343,287.673 111.299,286.133 111.299 C 284.593 111.299,283.963 111.343,284.733 111.397 M197.670 194.858 C 198.076 194.919,198.676 194.918,199.004 194.854 C 199.332 194.791,199.000 194.741,198.267 194.743 C 197.533 194.745,197.265 194.797,197.670 194.858 M201.533 194.855 C 201.863 194.918,202.403 194.918,202.733 194.855 C 203.063 194.791,202.793 194.739,202.133 194.739 C 201.473 194.739,201.203 194.791,201.533 194.855 M163.533 195.384 C 163.790 195.451,164.210 195.451,164.467 195.384 C 164.723 195.317,164.513 195.262,164.000 195.262 C 163.487 195.262,163.277 195.317,163.533 195.384 M158.124 212.200 L 156.667 213.733 158.200 212.276 C 159.625 210.922,159.855 210.667,159.658 210.667 C 159.616 210.667,158.926 211.357,158.124 212.200 M258.201 217.200 C 258.204 217.787,258.258 217.995,258.322 217.664 C 258.386 217.332,258.383 216.852,258.317 216.597 C 258.250 216.342,258.198 216.613,258.201 217.200 M141.929 217.333 C 141.929 217.847,141.983 218.057,142.050 217.800 C 142.118 217.543,142.118 217.123,142.050 216.867 C 141.983 216.610,141.929 216.820,141.929 217.333 M195.855 228.267 C 195.855 234.060,195.890 236.430,195.933 233.533 C 195.976 230.637,195.976 225.897,195.933 223.000 C 195.890 220.103,195.855 222.473,195.855 228.267 M136.600 222.317 C 136.857 222.384,137.277 222.384,137.533 222.317 C 137.790 222.250,137.580 222.195,137.067 222.195 C 136.553 222.195,136.343 222.250,136.600 222.317 M185.586 239.400 L 184.667 240.400 185.667 239.481 C 186.597 238.626,186.789 238.400,186.586 238.400 C 186.541 238.400,186.091 238.850,185.586 239.400 M230.734 253.467 C 230.737 254.053,230.791 254.262,230.855 253.930 C 230.919 253.599,230.917 253.119,230.850 252.864 C 230.783 252.609,230.731 252.880,230.734 253.467 M259.276 254.000 C 259.278 254.733,259.330 255.002,259.391 254.596 C 259.453 254.191,259.451 253.591,259.388 253.263 C 259.324 252.935,259.274 253.267,259.276 254.000 M163.533 311.650 C 163.790 311.718,164.210 311.718,164.467 311.650 C 164.723 311.583,164.513 311.529,164.000 311.529 C 163.487 311.529,163.277 311.583,163.533 311.650 " stroke="none" fill="#fccc33" fill-rule="evenodd"></path></g></svg>