<svg id="svg" version="1.1" xmlns="http://www.w3.org/2000/svg" xmlns:xlink="http://www.w3.org/1999/xlink" width="400" height="400" viewBox="0, 0, 400,400"><g id="svgg"><path id="path0" d="M133.216 31.822 C 131.680 32.395,130.777 33.184,129.954 34.669 L 129.180 36.066 129.101 46.376 C 129.032 55.321,129.078 56.885,129.452 58.180 C 131.199 64.231,141.019 64.281,142.794 58.247 C 143.064 57.329,143.213 55.815,143.213 53.985 L 143.213 51.148 140.984 51.148 L 138.754 51.148 138.754 54.018 C 138.754 56.650,138.703 56.948,138.140 57.603 C 137.251 58.637,135.274 58.637,134.385 57.603 L 133.770 56.889 133.770 47.047 L 133.770 37.206 134.537 36.439 C 136.625 34.351,138.754 35.941,138.754 39.586 L 138.754 41.967 141.017 41.967 L 143.279 41.967 143.165 38.995 C 143.025 35.340,142.290 33.702,140.207 32.404 C 138.728 31.483,134.965 31.170,133.216 31.822 M231.691 31.905 C 230.189 32.437,228.598 34.225,228.083 35.957 C 227.495 37.936,227.475 56.161,228.058 58.116 C 229.891 64.261,239.874 64.312,241.694 58.186 C 242.295 56.162,242.290 37.985,241.687 35.957 C 240.591 32.266,235.966 30.391,231.691 31.905 M95.475 47.110 L 95.475 62.483 100.393 62.378 C 109.867 62.177,110.033 61.911,110.033 46.951 C 110.033 32.108,109.789 31.738,100.018 31.738 L 95.475 31.738 95.475 47.110 M113.311 47.082 L 113.311 62.426 119.879 62.426 L 126.447 62.426 126.371 60.262 L 126.295 58.098 122.164 58.026 L 118.033 57.954 118.033 53.502 L 118.033 49.049 121.311 49.049 L 124.590 49.049 124.590 46.820 L 124.590 44.590 121.311 44.590 L 118.033 44.590 118.033 40.262 L 118.033 35.934 122.230 35.934 L 126.426 35.934 126.426 33.836 L 126.426 31.738 119.869 31.738 L 113.311 31.738 113.311 47.082 M146.361 47.082 L 146.361 62.426 152.787 62.426 L 159.213 62.426 159.213 60.197 L 159.213 57.967 155.148 57.967 L 151.082 57.967 151.082 53.508 L 151.082 49.049 154.361 49.049 L 157.639 49.049 157.639 46.820 L 157.639 44.590 154.361 44.590 L 151.082 44.590 151.082 40.262 L 151.082 35.934 155.148 35.934 L 159.213 35.934 159.213 33.836 L 159.213 31.738 152.787 31.738 L 146.361 31.738 146.361 47.082 M162.361 47.082 L 162.361 62.426 164.459 62.426 L 166.557 62.426 166.574 51.344 C 166.583 45.249,166.684 40.498,166.798 40.787 C 166.912 41.075,168.282 46.062,169.843 51.869 L 172.681 62.426 175.127 62.426 L 177.574 62.426 177.574 47.082 L 177.574 31.738 175.475 31.738 L 173.377 31.738 173.369 40.852 C 173.365 45.866,173.266 49.790,173.150 49.574 C 173.035 49.357,171.894 45.256,170.616 40.459 L 168.293 31.738 165.327 31.738 L 162.361 31.738 162.361 47.082 M179.672 33.836 L 179.672 35.934 182.164 35.934 L 184.656 35.934 184.656 49.180 L 184.656 62.426 187.016 62.426 L 189.377 62.426 189.377 49.180 L 189.377 35.934 191.869 35.934 L 194.361 35.934 194.361 33.836 L 194.361 31.738 187.016 31.738 L 179.672 31.738 179.672 33.836 M204.036 47.082 L 205.737 62.426 208.934 62.426 L 212.131 62.426 212.268 61.705 C 212.344 61.308,212.740 57.767,213.149 53.836 C 213.558 49.905,213.959 46.689,214.040 46.689 C 214.122 46.689,214.515 49.846,214.914 53.705 C 215.314 57.564,215.705 61.105,215.784 61.574 L 215.927 62.426 219.046 62.426 C 220.761 62.426,222.164 62.387,222.164 62.338 C 222.164 62.094,225.316 33.809,225.450 32.852 L 225.606 31.738 223.491 31.738 C 221.653 31.738,221.377 31.798,221.377 32.197 C 221.376 33.202,218.998 55.712,218.880 55.830 C 218.811 55.899,218.755 55.789,218.757 55.585 C 218.761 54.993,216.663 33.534,216.509 32.590 L 216.370 31.738 214.152 31.738 C 212.932 31.738,211.930 31.767,211.925 31.803 C 211.920 31.839,211.404 37.155,210.779 43.616 C 210.153 50.078,209.591 55.414,209.530 55.475 C 209.469 55.536,208.975 51.371,208.431 46.219 C 207.888 41.068,207.316 35.702,207.160 34.295 L 206.877 31.738 204.606 31.738 L 202.334 31.738 204.036 47.082 M245.246 47.082 L 245.246 62.426 247.607 62.426 L 249.967 62.426 249.967 56.101 L 249.967 49.775 251.679 49.884 C 253.111 49.975,253.508 50.110,254.105 50.707 L 254.820 51.421 254.951 56.596 C 255.023 59.442,255.177 61.918,255.294 62.098 C 255.669 62.678,260.308 62.550,260.049 61.967 C 259.937 61.715,259.771 59.148,259.680 56.262 C 259.490 50.202,259.160 48.979,257.445 47.967 L 256.500 47.409 257.402 46.796 C 259.087 45.651,259.541 44.209,259.541 40.000 C 259.541 32.900,258.169 31.757,249.639 31.744 L 245.246 31.738 245.246 47.082 M262.820 47.082 L 262.820 62.426 265.180 62.426 L 267.541 62.426 267.541 57.842 C 267.541 53.389,267.561 53.216,268.251 51.809 C 269.162 49.953,269.178 49.959,270.154 52.525 C 270.607 53.715,271.643 56.430,272.456 58.557 L 273.935 62.426 276.359 62.426 L 278.784 62.426 278.021 60.525 C 277.602 59.479,276.086 55.636,274.651 51.985 L 272.044 45.347 275.299 38.739 C 277.090 35.105,278.555 32.038,278.556 31.924 C 278.557 31.810,277.530 31.751,276.274 31.793 L 273.990 31.869 271.014 38.164 C 269.377 41.626,267.926 44.571,267.789 44.708 C 267.633 44.865,267.541 42.504,267.541 38.348 L 267.541 31.738 265.180 31.738 L 262.820 31.738 262.820 47.082 M291.410 31.877 C 291.410 31.954,290.348 38.645,289.049 46.747 C 287.751 54.848,286.689 61.690,286.689 61.951 C 286.689 62.441,290.878 62.719,290.890 62.230 C 290.906 61.555,291.661 57.149,291.798 56.926 C 291.896 56.768,293.107 56.656,294.710 56.656 C 297.931 56.656,297.761 56.488,298.242 60.131 L 298.546 62.426 300.880 62.426 C 302.441 62.426,303.213 62.328,303.213 62.130 C 303.213 61.966,302.151 55.175,300.852 47.039 C 299.554 38.902,298.492 32.130,298.492 31.991 C 298.492 31.841,297.054 31.738,294.951 31.738 C 293.003 31.738,291.410 31.801,291.410 31.877 M305.574 47.082 L 305.574 62.426 307.672 62.426 L 309.770 62.426 309.778 51.344 C 309.783 45.249,309.881 40.439,309.996 40.656 C 310.111 40.872,311.492 45.859,313.063 51.738 L 315.921 62.426 318.354 62.426 L 320.787 62.426 320.787 47.082 L 320.787 31.738 318.692 31.738 L 316.597 31.738 316.528 40.852 L 316.459 49.967 314.403 42.361 C 313.272 38.177,312.160 34.075,311.933 33.246 L 311.521 31.738 308.547 31.738 L 305.574 31.738 305.574 47.082 M324.197 47.107 L 324.197 62.475 329.115 62.357 C 338.743 62.127,338.885 61.904,338.885 47.045 C 338.885 32.154,338.609 31.738,328.739 31.738 L 324.197 31.738 324.197 47.107 M55.344 33.185 C 45.555 35.185,41.068 42.727,41.849 55.869 C 42.221 62.127,44.333 66.378,48.193 68.640 C 49.562 69.443,49.585 69.302,47.934 70.244 C 43.487 72.780,41.191 76.904,40.660 83.306 C 38.799 105.774,44.584 114.964,60.590 114.964 C 72.877 114.964,79.264 109.394,80.552 97.555 C 82.101 83.315,79.566 73.802,73.276 70.252 C 71.969 69.515,71.840 69.373,72.253 69.130 C 77.897 65.819,79.644 61.702,79.406 52.278 C 79.109 40.583,75.062 34.970,65.616 33.156 C 63.233 32.699,57.647 32.714,55.344 33.185 M236.155 35.963 C 237.325 36.496,237.377 36.979,237.377 47.211 L 237.377 56.889 236.744 57.625 C 236.218 58.236,235.903 58.361,234.885 58.361 C 233.867 58.361,233.552 58.236,233.026 57.625 L 232.393 56.889 232.393 47.047 L 232.393 37.206 233.160 36.439 C 233.987 35.612,235.023 35.448,236.155 35.963 M104.719 36.668 C 105.309 37.257,105.312 37.305,105.388 46.499 C 105.486 58.369,105.599 57.967,102.164 57.967 L 100.197 57.967 100.197 46.922 L 100.197 35.877 102.162 35.976 C 103.771 36.058,104.234 36.183,104.719 36.668 M254.235 36.676 C 254.779 37.220,254.820 37.494,254.820 40.657 C 254.820 44.951,254.469 45.502,251.734 45.506 L 250.098 45.508 250.026 41.059 C 249.986 38.612,250.018 36.444,250.095 36.242 C 250.336 35.614,253.506 35.947,254.235 36.676 M332.748 36.207 C 334.161 36.744,334.147 36.636,334.156 46.981 C 334.166 58.593,334.345 57.967,330.997 57.967 L 328.918 57.967 328.918 47.126 C 328.918 41.163,328.997 36.205,329.093 36.109 C 329.367 35.835,331.953 35.905,332.748 36.207 M295.853 44.513 C 297.232 53.737,297.376 52.721,294.689 52.721 C 291.996 52.721,292.137 53.695,293.506 44.590 C 294.080 40.767,294.552 37.531,294.554 37.399 C 294.568 36.371,294.936 38.386,295.853 44.513 M63.670 44.114 C 66.199 45.299,66.723 46.949,66.739 53.770 C 66.760 62.282,65.536 64.393,60.590 64.373 C 55.560 64.354,54.467 62.318,54.604 53.228 L 54.689 47.607 55.455 46.223 C 56.969 43.490,60.439 42.599,63.670 44.114 M63.507 74.929 C 64.882 75.479,66.279 77.167,66.829 78.944 C 67.502 81.113,67.499 97.255,66.827 99.426 C 65.063 105.120,57.595 106.024,54.955 100.863 L 54.164 99.317 54.083 89.909 C 53.996 79.762,54.095 78.782,55.403 76.860 C 57.023 74.479,60.382 73.678,63.507 74.929 M115.380 75.363 C 113.844 75.936,112.941 76.725,112.118 78.210 L 111.344 79.607 111.267 89.926 C 111.169 103.104,111.586 104.676,115.491 105.836 C 121.628 107.658,125.377 104.507,125.377 97.526 L 125.377 94.689 123.148 94.689 L 120.918 94.689 120.918 97.559 C 120.918 101.153,120.509 101.858,118.426 101.858 C 117.376 101.858,117.059 101.737,116.549 101.144 L 115.934 100.430 115.934 90.588 L 115.934 80.747 116.701 79.980 C 118.789 77.892,120.918 79.482,120.918 83.127 L 120.918 85.508 123.177 85.508 L 125.435 85.508 125.338 82.665 C 125.156 77.342,123.323 75.243,118.727 75.089 C 117.171 75.038,115.995 75.134,115.380 75.363 M131.803 75.625 C 128.336 77.300,128.149 78.007,128.051 89.788 C 127.962 100.465,128.069 101.561,129.395 103.527 C 132.412 108.002,140.697 106.731,142.198 101.563 C 142.714 99.787,142.717 81.129,142.202 79.607 C 140.841 75.587,135.843 73.673,131.803 75.625 M168.363 75.378 C 165.948 76.241,164.655 77.980,164.188 80.991 C 163.689 84.205,163.980 100.531,164.563 102.089 C 166.565 107.433,175.217 107.785,177.750 102.625 L 178.492 101.115 178.492 90.623 C 178.492 79.104,178.450 78.781,176.708 76.887 C 175.167 75.210,170.962 74.450,168.363 75.378 M217.505 75.367 C 216.068 75.888,214.795 77.107,214.067 78.659 L 213.377 80.131 213.291 89.395 C 213.153 104.210,213.963 106.098,220.459 106.098 C 225.761 106.098,227.672 103.654,227.672 96.870 L 227.672 94.689 225.443 94.689 L 223.213 94.689 223.213 97.189 C 223.213 101.192,222.130 102.582,219.647 101.762 C 218.020 101.225,217.967 100.876,217.967 90.623 C 217.967 79.720,218.084 79.213,220.590 79.213 C 222.471 79.213,223.213 80.435,223.213 83.533 L 223.213 85.508 225.482 85.508 L 227.751 85.508 227.596 82.774 C 227.242 76.518,222.972 73.384,217.505 75.367 M240.625 75.646 C 239.129 76.343,238.111 77.505,237.513 79.199 C 236.899 80.941,236.926 100.336,237.546 102.155 C 239.103 106.725,246.610 107.781,249.736 103.869 C 250.982 102.310,251.279 100.482,251.279 94.371 L 251.279 88.918 248.000 88.918 L 244.721 88.918 244.721 91.016 L 244.721 93.115 245.770 93.115 L 246.820 93.115 246.820 96.538 C 246.820 100.489,246.562 101.293,245.146 101.760 C 244.019 102.132,243.108 101.910,242.320 101.072 L 241.705 100.418 241.620 91.848 C 241.502 79.995,241.660 79.213,244.170 79.213 C 246.119 79.213,246.672 80.014,246.779 82.993 L 246.870 85.508 249.112 85.508 L 251.353 85.508 251.219 82.672 C 251.060 79.317,250.569 77.974,248.979 76.542 C 247.102 74.852,243.224 74.436,240.625 75.646 M275.904 75.378 C 274.386 75.921,273.470 76.716,272.642 78.210 L 271.869 79.607 271.869 90.623 C 271.869 101.410,271.881 101.661,272.435 102.689 C 275.049 107.533,283.049 107.481,285.334 102.605 L 286.033 101.115 286.033 90.492 C 286.033 78.449,286.029 78.425,283.782 76.502 C 282.089 75.052,278.320 74.515,275.904 75.378 M95.475 90.623 L 95.475 105.967 102.043 105.967 L 108.611 105.967 108.535 103.803 L 108.459 101.639 104.328 101.567 L 100.197 101.495 100.197 97.043 L 100.197 92.590 103.475 92.590 L 106.754 92.590 106.754 90.361 L 106.754 88.131 103.475 88.131 L 100.197 88.131 100.197 83.803 L 100.197 79.475 104.393 79.475 L 108.590 79.475 108.590 77.377 L 108.590 75.279 102.033 75.279 L 95.475 75.279 95.475 90.623 M145.836 90.614 L 145.836 105.967 147.932 105.967 L 150.027 105.967 150.095 95.016 L 150.164 84.066 153.017 94.689 C 154.587 100.531,155.927 105.459,155.996 105.639 C 156.084 105.868,156.830 105.967,158.454 105.967 L 160.787 105.967 160.787 90.623 L 160.787 75.279 158.692 75.279 L 156.597 75.279 156.528 84.219 L 156.459 93.159 154.083 84.284 L 151.708 75.410 148.772 75.336 L 145.836 75.262 145.836 90.614 M181.770 90.623 L 181.770 105.967 183.738 105.967 L 185.705 105.967 185.713 95.279 C 185.717 89.400,185.819 84.767,185.938 84.984 C 186.058 85.200,186.904 90.010,187.820 95.672 L 189.484 105.967 191.726 105.967 L 193.967 105.966 195.516 95.541 C 196.367 89.806,197.161 84.938,197.278 84.721 C 197.396 84.505,197.496 89.197,197.500 95.148 L 197.508 105.967 199.738 105.967 L 201.967 105.967 201.967 90.623 L 201.967 75.279 198.608 75.279 L 195.248 75.279 193.735 85.443 C 192.903 91.033,192.134 95.899,192.026 96.256 C 191.890 96.705,191.359 94.017,190.314 87.601 C 189.481 82.483,188.681 77.616,188.536 76.787 L 188.272 75.279 185.021 75.279 L 181.770 75.279 181.770 90.623 M205.377 90.623 L 205.377 105.967 207.738 105.967 L 210.098 105.967 210.098 90.623 L 210.098 75.279 207.738 75.279 L 205.377 75.279 205.377 90.623 M254.426 90.599 L 254.426 105.967 256.787 105.967 L 259.148 105.967 259.148 99.672 L 259.148 93.377 260.525 93.378 C 263.602 93.380,264.127 94.398,264.130 100.361 C 264.130 102.543,264.205 104.697,264.295 105.148 L 264.459 105.967 266.934 105.967 C 268.851 105.967,269.360 105.893,269.196 105.639 C 269.079 105.459,268.918 102.951,268.837 100.066 C 268.671 94.144,268.385 93.023,266.692 91.672 L 265.781 90.946 266.777 90.047 C 268.306 88.665,268.723 87.266,268.714 83.541 C 268.699 76.582,267.454 75.475,259.475 75.325 L 254.426 75.230 254.426 90.599 M288.384 76.383 C 288.519 77.346,291.672 105.633,291.672 105.879 C 291.672 105.928,293.148 105.967,294.951 105.967 C 296.754 105.967,298.227 105.879,298.224 105.770 C 298.205 105.059,299.913 89.989,300.002 90.078 C 300.063 90.140,300.490 93.710,300.951 98.013 L 301.789 105.836 304.943 105.909 L 308.098 105.983 309.800 90.631 L 311.502 75.279 309.489 75.279 L 307.477 75.279 307.333 76.262 C 307.254 76.803,306.684 82.229,306.068 88.320 C 305.451 94.411,304.908 99.356,304.861 99.309 C 304.780 99.229,302.431 76.333,302.428 75.596 C 302.427 75.341,301.868 75.277,300.131 75.334 L 297.837 75.410 296.739 86.689 C 296.136 92.892,295.621 98.262,295.594 98.623 C 295.499 99.909,295.286 98.268,294.065 86.830 L 292.845 75.410 290.536 75.334 L 288.227 75.258 288.384 76.383 M312.656 77.377 L 312.656 79.475 315.148 79.475 L 317.639 79.475 317.639 92.721 L 317.639 105.967 320.000 105.967 L 322.361 105.967 322.361 92.721 L 322.361 79.475 324.852 79.475 L 327.344 79.475 327.344 77.377 L 327.344 75.279 320.000 75.279 L 312.656 75.279 312.656 77.377 M329.443 90.623 L 329.443 105.967 331.799 105.967 L 334.155 105.967 334.225 99.344 L 334.295 92.721 337.049 92.721 L 339.803 92.721 339.873 99.344 L 339.943 105.967 342.300 105.967 L 344.656 105.967 344.656 90.623 L 344.656 75.279 342.295 75.279 L 339.934 75.279 339.934 81.836 L 339.934 88.393 337.049 88.393 L 334.164 88.393 334.164 81.836 L 334.164 75.279 331.803 75.279 L 329.443 75.279 329.443 90.623 M137.038 79.834 C 137.923 80.719,138.019 82.014,137.921 91.803 C 137.824 101.567,137.705 102.033,135.319 102.033 C 132.827 102.033,132.690 101.390,132.777 90.129 L 132.852 80.479 133.588 79.846 C 134.591 78.983,136.182 78.978,137.038 79.834 M172.630 79.497 C 173.802 80.124,173.902 80.990,173.902 90.575 C 173.902 96.499,173.802 99.880,173.611 100.428 C 172.853 102.601,169.549 102.484,168.932 100.262 C 168.568 98.953,168.567 82.299,168.930 80.991 C 169.368 79.414,171.139 78.699,172.630 79.497 M280.576 79.846 L 281.311 80.479 281.311 90.593 C 281.311 102.065,281.391 101.651,279.133 101.954 C 278.188 102.081,277.962 102.002,277.259 101.299 L 276.459 100.499 276.459 90.562 C 276.459 83.006,276.538 80.526,276.787 80.214 C 277.706 79.062,279.465 78.891,280.576 79.846 M262.820 79.869 C 263.790 80.370,264.133 81.552,264.115 84.328 C 264.091 88.013,263.197 89.179,260.393 89.180 L 259.148 89.180 259.148 84.328 L 259.148 79.475 260.603 79.475 C 261.404 79.475,262.402 79.653,262.820 79.869 M293.770 149.135 C 292.977 149.330,285.846 150.950,277.923 152.736 C 264.530 155.754,263.502 156.025,263.294 156.589 C 263.094 157.129,263.503 157.632,267.070 161.226 L 271.071 165.257 235.798 200.530 L 200.526 235.803 184.131 219.410 C 173.384 208.664,167.556 203.016,167.212 203.016 C 166.359 203.016,105.077 264.440,105.282 265.088 C 105.500 265.774,114.429 274.623,114.903 274.623 C 115.110 274.623,126.905 262.997,141.115 248.787 C 155.324 234.577,167.087 222.951,167.255 222.951 C 167.422 222.951,174.705 230.165,183.438 238.982 C 192.171 247.799,199.572 255.192,199.884 255.411 C 200.435 255.797,201.095 255.168,221.734 234.593 C 233.439 222.924,251.603 204.820,262.097 194.363 L 281.178 175.348 285.051 179.215 C 288.791 182.948,289.742 183.608,290.235 182.810 C 290.763 181.956,297.428 149.708,297.174 149.234 C 296.851 148.630,295.930 148.603,293.770 149.135 M279.843 196.133 C 278.116 197.293,237.327 236.443,236.780 237.467 L 236.197 238.557 236.129 294.501 L 236.061 350.445 236.707 351.092 L 237.353 351.738 259.379 351.738 L 281.405 351.738 281.948 351.047 L 282.492 350.355 282.492 273.597 C 282.492 204.549,282.451 196.779,282.083 196.255 C 281.594 195.556,280.770 195.511,279.843 196.133 M161.784 247.279 C 147.487 260.561,120.389 286.685,119.738 287.815 L 118.951 289.180 118.873 319.082 C 118.830 335.528,118.866 349.374,118.953 349.851 C 119.325 351.890,117.465 351.738,142.011 351.738 C 165.436 351.738,164.551 351.779,165.124 350.670 C 165.701 349.555,165.705 248.322,165.128 246.942 C 164.553 245.566,163.516 245.670,161.784 247.279 M221.770 253.082 C 221.338 253.352,216.398 258.191,210.792 263.835 C 205.187 269.480,200.472 274.098,200.315 274.098 C 200.158 274.098,195.685 269.684,190.375 264.288 C 180.301 254.051,179.671 253.524,178.566 254.420 L 177.967 254.904 177.967 302.644 L 177.967 350.384 178.603 351.061 L 179.239 351.738 201.073 351.738 C 224.450 351.738,223.567 351.779,224.141 350.670 C 224.628 349.729,224.730 255.001,224.246 253.727 C 223.770 252.475,223.048 252.287,221.770 253.082 " stroke="none" fill="#fbfafa" fill-rule="evenodd"></path><path id="path1" d="M0.000 200.000 L 0.000 400.000 200.000 400.000 L 400.000 400.000 400.000 200.000 L 400.000 0.000 200.000 0.000 L 0.000 0.000 0.000 200.000 M139.731 31.963 C 142.259 33.253,143.329 35.519,143.338 39.607 L 143.344 42.098 141.049 42.174 L 138.754 42.250 138.753 40.338 C 138.750 36.933,138.163 35.882,136.262 35.882 C 133.830 35.882,133.727 36.386,133.823 47.770 L 133.902 56.964 134.638 57.597 C 136.897 59.540,138.584 58.021,138.714 53.927 L 138.811 50.885 141.178 50.885 L 143.545 50.885 143.420 54.230 C 143.187 60.453,141.195 62.794,136.131 62.794 C 132.743 62.794,130.753 61.633,129.540 58.949 C 128.773 57.254,128.558 38.353,129.277 35.880 C 130.414 31.966,135.789 29.952,139.731 31.963 M237.607 31.621 C 239.351 32.139,240.810 33.450,241.608 35.215 C 242.569 37.341,242.583 56.806,241.625 58.885 C 239.008 64.566,229.971 64.164,227.882 58.274 C 227.185 56.308,227.410 36.880,228.149 35.248 C 229.671 31.884,233.521 30.408,237.607 31.621 M106.361 32.100 C 109.898 33.625,110.416 35.538,110.416 47.082 C 110.416 61.526,109.961 62.229,100.525 62.380 L 95.213 62.465 95.213 47.145 C 95.213 38.719,95.302 31.734,95.410 31.623 C 95.817 31.205,105.236 31.615,106.361 32.100 M126.426 33.836 L 126.426 36.197 122.230 36.197 L 118.033 36.197 118.033 40.393 L 118.033 44.590 121.443 44.590 L 124.852 44.590 124.852 46.820 L 124.852 49.049 121.443 49.049 L 118.033 49.049 118.033 53.508 L 118.033 57.967 122.230 57.967 L 126.426 57.967 126.426 60.197 L 126.426 62.426 119.738 62.426 L 113.049 62.426 113.049 47.126 C 113.049 38.710,113.128 31.746,113.224 31.650 C 113.320 31.554,116.330 31.475,119.913 31.475 L 126.426 31.475 126.426 33.836 M159.475 33.836 L 159.475 36.197 155.279 36.197 L 151.082 36.197 151.082 40.393 L 151.082 44.590 154.361 44.590 L 157.639 44.590 157.639 46.820 L 157.639 49.049 154.361 49.049 L 151.082 49.049 151.082 53.508 L 151.082 57.967 155.279 57.967 L 159.475 57.967 159.475 60.197 L 159.475 62.426 152.787 62.426 L 146.098 62.426 146.098 46.951 L 146.098 31.475 152.787 31.475 L 159.475 31.475 159.475 33.836 M168.601 32.328 C 168.729 32.797,169.767 36.662,170.909 40.918 L 172.984 48.656 173.115 40.131 L 173.246 31.607 175.410 31.530 L 177.574 31.454 177.574 46.950 L 177.574 62.445 175.029 62.370 L 172.484 62.295 169.717 52.014 L 166.951 41.733 166.882 52.080 L 166.814 62.426 164.456 62.426 L 162.098 62.426 162.098 47.126 C 162.098 38.710,162.177 31.746,162.273 31.650 C 162.369 31.554,163.780 31.475,165.408 31.475 L 168.369 31.475 168.601 32.328 M194.623 33.836 L 194.623 36.197 192.131 36.197 L 189.639 36.197 189.639 49.311 L 189.639 62.426 187.148 62.426 L 184.656 62.426 184.656 49.311 L 184.656 36.197 182.033 36.197 L 179.410 36.197 179.410 34.011 C 179.410 31.221,178.630 31.475,187.191 31.475 L 194.623 31.475 194.623 33.836 M206.971 31.541 C 206.982 31.577,207.550 36.741,208.233 43.016 C 209.154 51.471,209.520 54.121,209.648 53.246 C 209.743 52.597,210.242 47.580,210.757 42.098 C 211.272 36.616,211.744 31.984,211.806 31.803 C 211.932 31.436,216.268 31.322,216.489 31.680 C 216.559 31.793,217.122 37.041,217.740 43.341 C 218.359 49.642,218.887 54.772,218.915 54.743 C 218.943 54.713,219.451 49.849,220.044 43.934 C 220.637 38.020,221.185 32.797,221.261 32.328 L 221.401 31.475 223.487 31.475 C 225.295 31.475,225.576 31.537,225.587 31.934 C 225.594 32.187,224.859 39.151,223.952 47.410 L 222.304 62.426 219.000 62.426 L 215.695 62.426 214.991 55.803 C 214.603 52.161,214.288 48.891,214.290 48.538 C 214.293 48.164,214.202 47.999,214.072 48.144 C 213.902 48.334,212.419 61.234,212.452 62.230 C 212.472 62.817,205.650 62.430,205.523 61.836 C 205.371 61.128,202.227 32.592,202.229 31.934 C 202.229 31.541,206.853 31.157,206.971 31.541 M255.822 31.985 C 260.099 33.317,261.539 42.792,258.002 46.330 L 256.909 47.422 257.643 47.908 C 259.320 49.017,259.750 50.643,259.916 56.493 C 259.998 59.395,260.161 61.918,260.278 62.098 C 260.443 62.353,259.902 62.426,257.857 62.426 C 254.703 62.426,255.009 63.017,254.875 56.656 C 254.749 50.642,254.471 50.098,251.529 50.098 L 250.230 50.098 250.230 56.262 L 250.230 62.426 247.738 62.426 L 245.246 62.426 245.246 46.922 L 245.246 31.418 250.033 31.546 C 252.666 31.616,255.271 31.814,255.822 31.985 M267.864 37.924 L 267.934 44.372 270.794 38.252 C 272.366 34.885,273.768 31.984,273.908 31.803 C 274.204 31.423,278.820 31.332,278.820 31.707 C 278.820 31.834,277.334 34.957,275.518 38.647 L 272.217 45.356 275.518 53.764 C 277.334 58.389,278.820 62.234,278.820 62.309 C 278.820 62.384,277.673 62.411,276.271 62.370 L 273.722 62.295 271.497 56.459 C 270.273 53.249,269.201 50.623,269.114 50.623 C 268.264 50.623,267.803 53.115,267.803 57.712 L 267.803 62.426 265.311 62.426 L 262.820 62.426 262.820 46.951 L 262.820 31.475 265.307 31.475 L 267.794 31.475 267.864 37.924 M298.613 32.066 C 298.685 32.390,299.750 39.030,300.981 46.820 C 302.211 54.610,303.286 61.313,303.369 61.715 L 303.521 62.446 300.941 62.370 L 298.361 62.295 297.996 59.598 L 297.631 56.902 294.717 56.975 L 291.803 57.049 291.427 59.738 L 291.050 62.426 288.709 62.426 L 286.368 62.426 286.519 61.574 C 286.603 61.105,287.688 54.289,288.931 46.426 C 290.174 38.564,291.236 31.984,291.292 31.803 C 291.505 31.114,298.457 31.363,298.613 32.066 M311.948 32.721 C 312.147 33.407,313.184 37.251,314.253 41.264 L 316.197 48.560 316.328 40.083 L 316.459 31.607 318.623 31.530 L 320.787 31.454 320.787 46.950 L 320.787 62.445 318.253 62.370 L 315.719 62.295 312.941 51.943 L 310.164 41.592 310.095 52.009 L 310.027 62.426 307.669 62.426 L 305.311 62.426 305.311 47.126 C 305.311 38.710,305.390 31.746,305.486 31.650 C 305.583 31.554,306.994 31.475,308.624 31.475 L 311.586 31.475 311.948 32.721 M335.536 32.318 C 338.903 33.881,339.215 35.242,339.103 47.869 C 338.977 61.980,338.667 62.426,329.002 62.426 L 324.197 62.426 324.197 46.923 L 324.197 31.419 329.115 31.520 C 333.779 31.615,334.110 31.656,335.536 32.318 M64.429 32.808 C 74.909 34.266,79.528 40.456,79.582 53.115 C 79.618 61.678,77.893 65.919,73.272 68.627 C 71.891 69.436,71.896 69.378,73.146 70.015 C 75.923 71.432,78.717 74.938,79.937 78.537 L 80.656 80.656 80.650 90.230 L 80.644 99.803 79.913 102.154 C 77.395 110.259,72.007 114.442,63.206 115.124 C 51.261 116.049,43.638 111.303,41.123 101.377 C 40.293 98.103,40.205 82.322,41.001 79.475 C 42.160 75.330,44.556 71.994,47.614 70.268 C 49.331 69.299,49.303 69.444,47.925 68.637 C 45.500 67.216,43.483 64.446,42.447 61.115 C 41.618 58.444,41.541 48.530,42.326 45.508 C 44.820 35.920,53.001 31.219,64.429 32.808 M233.958 36.034 C 232.433 36.528,232.358 37.108,232.447 47.644 L 232.525 56.876 233.160 57.553 C 234.054 58.504,235.716 58.504,236.610 57.553 L 237.246 56.877 237.328 48.045 C 237.441 35.870,237.194 34.987,233.958 36.034 M100.197 47.111 L 100.197 58.025 102.192 57.924 C 105.367 57.763,105.180 58.443,105.180 47.041 L 105.180 37.484 104.537 36.841 C 103.975 36.279,103.657 36.197,102.045 36.197 L 100.197 36.197 100.197 47.111 M250.230 40.787 L 250.230 45.377 251.554 45.377 C 254.364 45.377,254.689 44.885,254.689 40.622 C 254.689 36.669,254.382 36.197,251.815 36.197 L 250.230 36.197 250.230 40.787 M329.180 47.082 L 329.180 57.967 330.742 57.967 C 334.192 57.967,334.164 58.058,334.164 46.899 C 334.164 35.865,334.266 36.197,330.864 36.197 L 329.180 36.197 329.180 47.082 M293.662 44.606 C 293.099 48.420,292.583 51.748,292.518 52.000 C 292.410 52.411,292.634 52.459,294.651 52.459 L 296.905 52.459 296.776 51.738 C 296.706 51.341,296.234 48.184,295.727 44.721 C 295.221 41.259,294.779 38.256,294.747 38.049 C 294.714 37.841,294.226 40.792,293.662 44.606 M58.501 43.833 C 55.329 44.798,54.689 46.467,54.689 53.770 C 54.689 59.826,54.835 60.740,56.068 62.389 C 57.856 64.782,62.877 64.932,64.971 62.654 C 67.134 60.302,67.381 48.538,65.327 45.703 C 64.064 43.959,60.919 43.098,58.501 43.833 M58.131 74.877 C 54.625 76.127,54.175 77.719,54.169 88.918 C 54.163 98.863,54.283 99.902,55.650 101.788 C 58.056 105.110,64.225 104.631,66.099 100.977 C 67.430 98.383,67.655 81.023,66.394 78.232 C 64.967 75.072,61.515 73.671,58.131 74.877 M121.895 75.504 C 124.423 76.794,125.493 79.060,125.502 83.148 L 125.508 85.639 123.213 85.715 L 120.918 85.791 120.917 83.879 C 120.914 80.474,120.327 79.423,118.426 79.423 C 115.994 79.423,115.891 79.927,115.987 91.311 L 116.066 100.505 116.802 101.138 C 119.061 103.081,120.748 101.562,120.878 97.468 L 120.975 94.426 123.342 94.426 L 125.709 94.426 125.584 97.770 C 125.353 103.935,123.380 106.294,118.426 106.326 C 114.922 106.349,112.936 105.216,111.703 102.490 C 110.853 100.608,110.724 81.419,111.546 79.065 C 112.831 75.387,118.107 73.571,121.895 75.504 M139.242 75.677 C 140.748 76.497,141.766 77.805,142.313 79.623 C 142.869 81.469,142.859 99.791,142.301 101.669 C 140.621 107.326,131.771 108.208,128.888 103.006 L 128.131 101.639 128.054 91.052 C 127.966 78.926,128.000 78.675,129.981 76.693 C 132.079 74.596,136.386 74.123,139.242 75.677 M174.689 75.364 C 176.139 75.983,177.011 76.799,177.779 78.255 L 178.492 79.607 178.492 90.623 C 178.492 102.872,178.534 102.561,176.617 104.501 C 174.000 107.148,168.346 107.026,165.804 104.269 C 163.969 102.278,163.900 101.735,163.988 90.038 L 164.066 79.830 164.860 78.276 C 165.688 76.656,167.537 75.208,169.144 74.923 C 170.404 74.699,173.756 74.966,174.689 75.364 M223.190 75.165 C 226.286 76.085,227.672 78.570,227.672 83.205 L 227.672 85.791 225.377 85.715 L 223.082 85.639 222.951 83.108 C 222.789 79.982,222.457 79.475,220.569 79.475 C 218.153 79.475,218.199 79.245,218.286 90.824 L 218.361 100.768 218.980 101.269 C 219.789 101.924,221.391 101.924,222.200 101.270 C 222.779 100.802,222.825 100.561,222.907 97.598 L 222.995 94.426 225.359 94.426 L 227.722 94.426 227.632 98.033 C 227.544 101.504,227.510 101.694,226.726 103.082 C 224.183 107.585,216.657 107.573,214.164 103.063 L 213.377 101.639 213.300 91.172 C 213.231 81.785,213.271 80.553,213.683 79.241 C 214.821 75.623,218.877 73.884,223.190 75.165 M246.776 75.159 C 249.932 76.096,251.086 78.016,251.231 82.568 L 251.333 85.792 249.011 85.716 L 246.689 85.639 246.557 83.088 C 246.405 80.124,245.991 79.423,244.392 79.423 C 241.882 79.423,241.836 79.624,241.836 90.628 C 241.836 101.556,241.887 101.770,244.483 101.770 C 246.201 101.770,246.557 100.939,246.557 96.930 L 246.557 93.377 245.508 93.377 L 244.459 93.377 244.459 91.016 L 244.459 88.656 247.869 88.656 L 251.279 88.656 251.279 94.773 C 251.279 101.851,251.098 102.751,249.327 104.522 C 246.714 107.136,241.256 107.017,238.744 104.292 C 236.989 102.388,236.984 102.348,236.984 90.492 L 236.984 79.869 237.725 78.358 C 239.246 75.262,242.843 73.991,246.776 75.159 M282.669 75.576 C 284.122 76.324,285.477 77.961,285.960 79.552 C 286.535 81.445,286.420 100.507,285.825 102.015 C 283.382 108.209,273.601 107.847,271.896 101.500 C 271.150 98.726,271.366 80.379,272.164 78.689 C 273.836 75.146,278.911 73.643,282.669 75.576 M108.590 77.377 L 108.590 79.738 104.393 79.738 L 100.197 79.738 100.197 83.934 L 100.197 88.131 103.607 88.131 L 107.016 88.131 107.016 90.361 L 107.016 92.590 103.607 92.590 L 100.197 92.590 100.197 97.049 L 100.197 101.508 104.393 101.508 L 108.590 101.508 108.590 103.738 L 108.590 105.967 101.902 105.967 L 95.213 105.967 95.213 90.667 C 95.213 82.251,95.292 75.287,95.388 75.191 C 95.484 75.095,98.494 75.016,102.077 75.016 L 108.590 75.016 108.590 77.377 M152.439 77.639 C 152.825 79.010,153.908 82.964,154.846 86.426 L 156.552 92.721 156.571 83.869 L 156.590 75.016 158.820 75.016 L 161.049 75.016 161.049 90.492 L 161.049 105.967 158.474 105.967 L 155.899 105.967 153.031 95.308 L 150.164 84.648 150.095 95.308 L 150.027 105.967 147.800 105.967 L 145.574 105.967 145.574 90.483 L 145.574 75.000 148.655 75.074 L 151.737 75.148 152.439 77.639 M190.162 85.705 C 191.101 91.511,191.896 96.173,191.930 96.065 C 191.963 95.957,192.645 91.502,193.444 86.164 C 194.243 80.826,194.963 76.134,195.043 75.738 L 195.189 75.016 198.578 75.016 L 201.967 75.016 201.967 90.492 L 201.967 105.967 199.610 105.967 L 197.252 105.967 197.183 95.984 L 197.115 86.000 195.713 95.393 C 194.943 100.560,194.251 105.052,194.177 105.377 C 194.049 105.934,193.912 105.967,191.721 105.967 L 189.401 105.967 189.244 105.115 C 189.158 104.646,188.398 100.190,187.555 95.213 L 186.022 86.164 185.995 96.066 L 185.967 105.967 183.738 105.967 L 181.508 105.967 181.508 90.667 C 181.508 82.251,181.590 75.284,181.691 75.184 C 181.791 75.084,183.354 75.034,185.164 75.075 L 188.455 75.148 190.162 85.705 M210.297 90.557 L 210.365 105.967 207.871 105.967 L 205.377 105.967 205.377 90.482 L 205.377 74.997 207.803 75.072 L 210.230 75.148 210.297 90.557 M265.036 75.569 C 269.364 77.049,270.568 87.112,266.795 90.286 L 266.027 90.933 266.942 91.663 C 268.464 92.877,268.663 93.688,268.881 99.541 C 268.989 102.426,269.158 105.052,269.257 105.377 C 269.436 105.961,269.410 105.967,266.931 105.967 C 263.809 105.967,264.037 106.404,263.873 100.108 L 263.738 94.905 263.002 94.272 C 262.419 93.771,261.969 93.639,260.838 93.639 L 259.410 93.639 259.410 99.803 L 259.410 105.967 256.787 105.967 L 254.164 105.967 254.164 90.667 C 254.164 82.251,254.252 75.276,254.361 75.166 C 254.691 74.829,263.887 75.176,265.036 75.569 M292.984 75.169 C 292.984 75.394,295.347 97.636,295.420 98.096 C 295.454 98.311,295.933 93.708,296.484 87.867 C 297.036 82.025,297.552 76.740,297.633 76.122 L 297.779 74.998 300.155 75.073 L 302.531 75.148 303.626 86.164 C 304.228 92.223,304.766 97.413,304.821 97.696 C 304.877 97.980,305.439 93.082,306.070 86.811 C 306.702 80.540,307.269 75.321,307.330 75.213 C 307.532 74.856,311.606 74.981,311.608 75.344 C 311.609 75.838,308.481 104.132,308.316 105.115 L 308.173 105.967 304.906 105.967 C 303.109 105.967,301.639 105.933,301.639 105.892 C 301.639 105.452,300.039 91.164,299.983 91.109 C 299.942 91.068,299.560 94.364,299.134 98.435 L 298.361 105.836 294.935 105.909 L 291.509 105.982 289.806 90.622 C 288.869 82.175,288.159 75.207,288.226 75.140 C 288.406 74.960,292.984 74.988,292.984 75.169 M327.475 77.377 L 327.475 79.607 324.918 79.682 L 322.361 79.757 322.361 92.862 L 322.361 105.967 319.869 105.967 L 317.377 105.967 317.377 92.852 L 317.377 79.738 314.885 79.738 L 312.393 79.738 312.393 77.373 L 312.393 75.008 319.934 75.078 L 327.475 75.148 327.475 77.377 M334.426 81.705 L 334.426 88.393 337.049 88.393 L 339.672 88.393 339.672 81.695 L 339.672 74.997 342.230 75.072 L 344.787 75.148 344.855 90.557 L 344.922 105.967 342.297 105.967 L 339.672 105.967 339.672 99.410 L 339.672 92.852 337.049 92.852 L 334.426 92.852 334.426 99.410 L 334.426 105.967 331.934 105.967 L 329.443 105.967 329.443 90.492 L 329.443 75.016 331.934 75.016 L 334.426 75.016 334.426 81.705 M134.628 79.425 C 133.020 79.659,132.984 79.908,132.984 90.670 L 132.984 100.483 133.627 101.127 C 134.878 102.378,137.163 101.806,137.578 100.138 C 138.002 98.433,137.577 80.582,137.099 80.055 C 136.612 79.517,135.662 79.275,134.628 79.425 M278.022 79.578 C 276.492 80.076,276.467 80.249,276.463 90.387 C 276.459 99.876,276.566 101.004,277.519 101.514 C 278.422 101.997,279.849 101.814,280.537 101.127 L 281.180 100.483 281.180 90.549 L 281.180 80.616 280.590 80.082 C 279.800 79.367,279.095 79.228,278.022 79.578 M169.453 80.178 C 168.910 80.868,168.902 81.053,168.975 90.824 L 169.049 100.768 169.668 101.269 C 170.578 102.005,172.186 101.936,172.996 101.127 L 173.639 100.483 173.639 90.670 C 173.639 81.140,173.624 80.838,173.096 80.167 C 172.300 79.155,170.252 79.161,169.453 80.178 M259.410 84.328 L 259.410 88.918 260.873 88.918 C 262.149 88.918,262.436 88.817,263.124 88.130 L 263.912 87.342 263.825 84.041 C 263.719 80.042,263.516 79.738,260.955 79.738 L 259.410 79.738 259.410 84.328 M296.935 148.731 C 297.721 149.151,297.673 149.441,294.019 166.470 C 290.520 182.781,290.360 183.344,289.236 183.344 C 289.082 183.344,287.175 181.576,284.997 179.415 L 281.038 175.486 240.913 215.612 C 218.844 237.681,200.610 255.738,200.393 255.738 C 200.176 255.738,192.622 248.361,183.606 239.344 L 167.214 222.951 141.377 248.787 C 124.432 265.731,115.361 274.623,115.019 274.623 C 114.304 274.623,105.180 265.502,105.180 264.788 C 105.180 264.165,166.463 202.754,167.084 202.754 C 167.298 202.754,174.881 210.160,183.934 219.213 L 200.394 235.671 235.601 200.464 L 270.808 165.257 266.945 161.363 C 264.770 159.171,263.082 157.257,263.082 156.985 C 263.082 156.318,263.836 155.544,264.500 155.528 C 264.802 155.521,271.954 153.940,280.393 152.014 C 297.467 148.118,296.244 148.361,296.935 148.731 M282.123 195.962 C 282.612 196.502,282.623 198.164,282.623 273.624 L 282.623 350.734 281.887 351.367 L 281.151 352.000 259.543 352.000 C 246.420 352.000,237.677 351.901,237.276 351.749 C 235.689 351.146,235.790 355.218,235.865 294.367 L 235.934 238.820 236.530 237.610 C 237.053 236.549,273.662 201.252,279.144 196.525 C 280.579 195.287,281.376 195.136,282.123 195.962 M164.965 246.462 L 165.508 247.153 165.508 298.810 L 165.508 350.467 164.741 351.233 L 163.975 352.000 142.164 352.000 L 120.353 352.000 119.586 351.233 L 118.820 350.467 118.820 320.116 C 118.820 286.573,118.719 288.490,120.597 286.401 C 122.165 284.657,161.977 246.805,162.848 246.231 C 163.807 245.598,164.330 245.655,164.965 246.462 M223.881 252.972 L 224.525 253.615 224.525 302.129 L 224.525 350.642 223.718 351.321 L 222.911 352.000 201.140 352.000 L 179.369 352.000 178.603 351.233 L 177.836 350.467 177.840 302.905 C 177.844 252.317,177.798 254.135,179.071 253.951 C 180.177 253.792,181.263 254.766,190.546 264.245 C 195.732 269.540,200.141 273.836,200.392 273.836 C 200.642 273.836,205.374 269.219,210.972 263.512 C 222.174 252.092,222.629 251.720,223.881 252.972 " stroke="none" fill="#a41c44" fill-rule="evenodd"></path><path id="path2" d="M162.221 47.082 C 162.221 55.593,162.255 59.037,162.295 54.735 C 162.335 50.433,162.335 43.469,162.295 39.260 C 162.254 35.051,162.221 38.570,162.221 47.082 M173.056 40.419 C 173.016 45.194,173.070 49.236,173.176 49.403 C 173.282 49.569,173.371 45.662,173.373 40.721 C 173.375 35.780,173.321 31.738,173.253 31.738 C 173.185 31.738,173.096 35.644,173.056 40.419 M128.905 47.082 C 128.905 51.987,128.940 53.956,128.983 51.459 C 129.026 48.961,129.026 44.948,128.983 42.541 C 128.940 40.133,128.905 42.177,128.905 47.082 M143.301 40.131 C 143.301 41.213,143.348 41.656,143.404 41.115 C 143.461 40.574,143.461 39.689,143.404 39.148 C 143.348 38.607,143.301 39.049,143.301 40.131 M227.527 47.082 C 227.527 51.843,227.563 53.827,227.606 51.492 C 227.649 49.157,227.650 45.262,227.606 42.836 C 227.563 40.411,227.527 42.321,227.527 47.082 M309.891 51.541 C 309.891 57.600,309.925 60.041,309.967 56.966 C 310.009 53.891,310.009 48.933,309.967 45.950 C 309.925 42.966,309.890 45.482,309.891 51.541 M124.680 46.820 C 124.681 47.974,124.727 48.413,124.783 47.796 C 124.838 47.179,124.837 46.235,124.781 45.698 C 124.724 45.161,124.679 45.666,124.680 46.820 M143.308 53.508 C 143.308 54.879,143.352 55.439,143.406 54.754 C 143.460 54.069,143.460 52.948,143.406 52.262 C 143.352 51.577,143.308 52.138,143.308 53.508 M259.772 56.787 C 259.773 58.518,259.815 59.192,259.867 58.285 C 259.918 57.378,259.918 55.961,259.866 55.137 C 259.814 54.313,259.772 55.056,259.772 56.787 M317.499 92.852 C 317.499 100.138,317.532 103.118,317.574 99.475 C 317.615 95.833,317.615 89.872,317.574 86.230 C 317.532 82.587,317.499 85.567,317.499 92.852 M173.757 90.492 C 173.757 95.325,173.792 97.302,173.836 94.885 C 173.879 92.469,173.879 88.515,173.836 86.098 C 173.792 83.682,173.757 85.659,173.757 90.492 M125.463 83.803 C 125.464 84.813,125.512 85.194,125.568 84.650 C 125.625 84.106,125.624 83.279,125.566 82.814 C 125.508 82.348,125.462 82.793,125.463 83.803 M246.372 88.850 C 247.351 88.901,248.886 88.901,249.781 88.850 C 250.677 88.799,249.875 88.757,248.000 88.758 C 246.125 88.758,245.392 88.800,246.372 88.850 M245.183 93.300 C 245.510 93.363,245.982 93.361,246.233 93.295 C 246.483 93.229,246.216 93.178,245.639 93.181 C 245.062 93.184,244.857 93.238,245.183 93.300 M125.470 96.918 C 125.469 98.216,125.514 98.781,125.569 98.172 C 125.624 97.563,125.624 96.501,125.570 95.811 C 125.516 95.122,125.471 95.620,125.470 96.918 M263.971 100.066 C 263.971 101.941,264.013 102.674,264.064 101.694 C 264.114 100.714,264.114 99.180,264.063 98.284 C 264.012 97.389,263.970 98.190,263.971 100.066 M152.786 237.180 L 138.623 251.410 152.852 237.247 C 160.679 229.457,167.082 223.054,167.082 223.017 C 167.082 222.833,165.951 223.954,152.786 237.180 M219.789 254.623 L 218.885 255.607 219.869 254.703 C 220.784 253.861,220.973 253.639,220.773 253.639 C 220.729 253.639,220.286 254.082,219.789 254.623 M186.098 259.934 C 186.662 260.511,187.182 260.984,187.254 260.984 C 187.326 260.984,186.924 260.511,186.361 259.934 C 185.797 259.357,185.277 258.885,185.205 258.885 C 185.133 258.885,185.535 259.357,186.098 259.934 " stroke="none" fill="#c36987" fill-rule="evenodd"></path><path id="path3" d="M95.334 31.803 C 95.265 31.984,95.240 38.977,95.278 47.344 L 95.349 62.557 95.412 47.154 L 95.475 31.751 99.738 31.672 L 104.000 31.593 99.729 31.534 C 96.511 31.490,95.428 31.556,95.334 31.803 M113.170 31.803 C 113.101 31.984,113.076 38.977,113.114 47.344 L 113.185 62.557 113.248 47.152 L 113.311 31.747 119.934 31.672 L 126.557 31.597 119.926 31.536 C 114.817 31.489,113.266 31.551,113.170 31.803 M149.296 31.671 C 151.127 31.716,154.196 31.716,156.116 31.672 C 158.036 31.627,156.538 31.590,152.787 31.590 C 149.036 31.590,147.465 31.626,149.296 31.671 M163.879 31.670 C 164.786 31.721,166.203 31.721,167.027 31.669 C 167.851 31.617,167.108 31.575,165.377 31.576 C 163.646 31.576,162.972 31.619,163.879 31.670 M174.361 31.667 C 174.974 31.723,175.977 31.723,176.590 31.667 C 177.203 31.612,176.702 31.567,175.475 31.567 C 174.249 31.567,173.748 31.612,174.361 31.667 M179.521 31.826 C 179.447 32.020,179.427 33.111,179.476 34.253 L 179.567 36.328 179.619 34.037 L 179.672 31.746 187.213 31.672 L 194.754 31.598 187.205 31.537 C 181.099 31.487,179.630 31.543,179.521 31.826 M203.344 31.668 C 204.030 31.722,205.151 31.722,205.836 31.668 C 206.521 31.614,205.961 31.570,204.590 31.570 C 203.220 31.570,202.659 31.614,203.344 31.668 M213.057 31.669 C 213.747 31.723,214.809 31.722,215.418 31.667 C 216.027 31.612,215.462 31.568,214.164 31.569 C 212.866 31.569,212.367 31.614,213.057 31.669 M222.361 31.667 C 222.974 31.723,223.977 31.723,224.590 31.667 C 225.203 31.612,224.702 31.567,223.475 31.567 C 222.249 31.567,221.748 31.612,222.361 31.667 M247.279 31.671 C 248.469 31.719,250.416 31.719,251.607 31.671 C 252.797 31.622,251.823 31.582,249.443 31.582 C 247.062 31.582,246.089 31.622,247.279 31.671 M264.074 31.669 C 264.837 31.722,266.017 31.722,266.697 31.668 C 267.378 31.614,266.754 31.571,265.311 31.571 C 263.869 31.572,263.312 31.616,264.074 31.669 M275.213 31.668 C 275.898 31.722,277.020 31.722,277.705 31.668 C 278.390 31.614,277.830 31.570,276.459 31.570 C 275.089 31.570,274.528 31.614,275.213 31.668 M291.318 31.672 C 291.251 31.780,292.336 31.838,293.729 31.799 C 298.218 31.676,298.712 31.571,295.032 31.523 C 293.057 31.497,291.386 31.564,291.318 31.672 M305.432 31.803 C 305.363 31.984,305.338 38.977,305.377 47.344 L 305.447 62.557 305.510 47.156 L 305.574 31.754 308.656 31.671 L 311.738 31.588 308.648 31.532 C 306.374 31.490,305.524 31.562,305.432 31.803 M316.481 31.702 C 316.294 32.004,316.260 49.069,316.445 49.254 C 316.525 49.334,316.590 45.430,316.590 40.579 L 316.590 31.759 318.754 31.671 L 320.918 31.582 318.770 31.529 C 317.588 31.499,316.558 31.577,316.481 31.702 M326.374 31.671 C 327.643 31.719,329.649 31.719,330.833 31.670 C 332.016 31.622,330.977 31.582,328.525 31.583 C 326.072 31.583,325.104 31.623,326.374 31.671 M189.499 49.311 C 189.499 56.597,189.532 59.577,189.574 55.934 C 189.615 52.292,189.615 46.331,189.574 42.689 C 189.532 39.046,189.499 42.026,189.499 49.311 M105.298 46.951 C 105.298 51.784,105.333 53.761,105.377 51.344 C 105.420 48.928,105.420 44.974,105.377 42.557 C 105.333 40.141,105.298 42.118,105.298 46.951 M254.780 40.656 C 254.780 41.882,254.825 42.384,254.881 41.770 C 254.936 41.157,254.936 40.154,254.881 39.541 C 254.825 38.928,254.780 39.430,254.780 40.656 M259.753 40.000 C 259.755 40.866,259.804 41.188,259.862 40.717 C 259.921 40.245,259.919 39.537,259.860 39.143 C 259.800 38.749,259.752 39.134,259.753 40.000 M110.281 47.082 C 110.281 51.698,110.317 53.550,110.360 51.197 C 110.404 48.843,110.404 45.066,110.360 42.803 C 110.316 40.540,110.281 42.466,110.281 47.082 M166.557 51.672 C 166.557 57.635,166.614 62.457,166.683 62.388 C 166.858 62.213,166.875 41.148,166.700 40.973 C 166.622 40.895,166.557 45.709,166.557 51.672 M139.877 42.160 C 140.566 42.215,141.629 42.214,142.237 42.159 C 142.846 42.104,142.282 42.060,140.984 42.060 C 139.685 42.061,139.187 42.106,139.877 42.160 M250.689 50.021 C 251.013 50.084,251.544 50.084,251.869 50.021 C 252.193 49.959,251.928 49.908,251.279 49.908 C 250.630 49.908,250.364 49.959,250.689 50.021 M293.582 52.652 C 294.271 52.706,295.334 52.706,295.942 52.651 C 296.551 52.596,295.987 52.551,294.689 52.552 C 293.390 52.553,292.892 52.598,293.582 52.652 M95.334 75.344 C 95.265 75.525,95.240 82.518,95.278 90.885 L 95.349 106.098 95.412 90.693 L 95.475 75.288 102.098 75.213 L 108.721 75.138 102.090 75.077 C 96.981 75.030,95.430 75.092,95.334 75.344 M147.092 75.211 C 148.000 75.262,149.416 75.262,150.240 75.210 C 151.064 75.158,150.321 75.116,148.590 75.117 C 146.859 75.117,146.185 75.159,147.092 75.211 M157.713 75.210 C 158.402 75.264,159.465 75.263,160.073 75.208 C 160.682 75.153,160.118 75.109,158.820 75.109 C 157.521 75.110,157.023 75.155,157.713 75.210 M182.820 75.190 C 185.682 75.382,188.532 75.394,188.419 75.213 C 188.352 75.105,186.799 75.038,184.968 75.064 C 183.137 75.090,182.170 75.147,182.820 75.190 M196.787 75.211 C 197.761 75.261,199.354 75.261,200.328 75.211 C 201.302 75.160,200.505 75.119,198.557 75.119 C 196.610 75.119,195.813 75.160,196.787 75.211 M207.801 75.208 L 210.094 75.298 210.165 90.567 L 210.236 105.836 210.233 90.492 L 210.230 75.148 207.869 75.133 L 205.508 75.118 207.801 75.208 M254.284 75.344 C 254.215 75.525,254.191 82.518,254.229 90.885 L 254.299 106.098 254.363 90.695 L 254.426 75.292 258.689 75.213 L 262.951 75.134 258.680 75.075 C 255.461 75.031,254.379 75.097,254.284 75.344 M288.171 75.213 C 288.104 75.321,288.834 75.377,289.795 75.337 C 292.837 75.211,293.194 75.102,290.704 75.058 C 289.378 75.035,288.238 75.105,288.171 75.213 M299.926 75.207 C 301.365 75.264,302.365 75.424,302.503 75.618 C 302.663 75.843,302.698 75.821,302.622 75.541 C 302.537 75.228,302.008 75.144,300.044 75.131 L 297.574 75.114 299.926 75.207 M307.318 75.213 C 307.251 75.321,307.923 75.377,308.811 75.336 C 311.527 75.213,311.848 75.097,309.589 75.056 C 308.408 75.034,307.386 75.105,307.318 75.213 M319.858 75.211 L 327.323 75.287 327.415 77.315 L 327.507 79.344 327.491 77.246 L 327.475 75.148 319.934 75.141 L 312.393 75.135 319.858 75.211 M330.697 75.210 C 331.460 75.263,332.640 75.263,333.320 75.209 C 334.001 75.155,333.377 75.112,331.934 75.112 C 330.492 75.113,329.935 75.157,330.697 75.210 M342.161 75.208 L 344.652 75.298 344.722 90.567 L 344.793 105.836 344.790 90.492 L 344.787 75.148 342.229 75.133 L 339.671 75.117 342.161 75.208 M259.256 84.328 C 259.256 86.925,259.295 87.951,259.343 86.610 C 259.391 85.268,259.391 83.143,259.343 81.888 C 259.295 80.633,259.256 81.731,259.256 84.328 M281.298 90.623 C 281.298 95.672,281.334 97.701,281.377 95.131 C 281.420 92.561,281.420 88.430,281.377 85.950 C 281.333 83.471,281.298 85.574,281.298 90.623 M246.669 83.672 L 246.689 85.639 248.984 85.656 L 251.280 85.672 249.061 85.580 L 246.842 85.488 246.746 83.597 L 246.649 81.705 246.669 83.672 M132.839 90.623 C 132.839 95.384,132.874 97.368,132.917 95.033 C 132.961 92.698,132.961 88.803,132.918 86.377 C 132.874 83.952,132.839 85.862,132.839 90.623 M286.281 90.623 C 286.281 95.384,286.317 97.368,286.360 95.033 C 286.404 92.698,286.404 88.803,286.360 86.377 C 286.317 83.952,286.281 85.862,286.281 90.623 M122.041 85.701 C 122.730 85.756,123.793 85.755,124.401 85.700 C 125.010 85.645,124.446 85.601,123.148 85.601 C 121.849 85.602,121.351 85.647,122.041 85.701 M224.336 85.701 C 225.025 85.756,226.088 85.755,226.696 85.700 C 227.305 85.645,226.741 85.601,225.443 85.601 C 224.144 85.602,223.646 85.647,224.336 85.701 M106.847 90.361 C 106.846 91.659,106.891 92.223,106.946 91.614 C 107.001 91.006,107.001 89.943,106.947 89.254 C 106.893 88.564,106.848 89.062,106.847 90.361 M246.658 96.393 C 246.658 98.125,246.700 98.799,246.752 97.891 C 246.803 96.984,246.803 95.568,246.751 94.744 C 246.699 93.920,246.657 94.662,246.658 96.393 M259.265 93.711 C 259.195 93.894,259.172 96.756,259.213 100.071 L 259.289 106.098 259.349 99.885 L 259.410 93.671 260.393 93.568 L 261.377 93.465 260.385 93.421 C 259.789 93.395,259.342 93.510,259.265 93.711 M266.885 161.311 C 268.901 163.331,270.609 164.984,270.681 164.984 C 270.754 164.984,269.163 163.331,267.148 161.311 C 265.132 159.292,263.423 157.639,263.351 157.639 C 263.279 157.639,264.869 159.292,266.885 161.311 M284.852 179.279 C 286.941 181.370,288.708 183.082,288.780 183.082 C 288.852 183.082,287.203 181.370,285.115 179.279 C 283.027 177.187,281.259 175.475,281.187 175.475 C 281.115 175.475,282.764 177.187,284.852 179.279 M272.115 203.082 L 271.344 203.934 272.197 203.164 C 272.991 202.446,273.170 202.230,272.967 202.230 C 272.922 202.230,272.538 202.613,272.115 203.082 M135.737 233.770 L 105.049 264.525 135.803 233.836 C 164.395 205.306,166.675 203.016,166.491 203.016 C 166.455 203.016,152.616 216.856,135.737 233.770 M261.361 213.311 L 260.590 214.164 261.443 213.394 C 261.911 212.970,262.295 212.586,262.295 212.541 C 262.295 212.338,262.079 212.517,261.361 213.311 M250.606 223.541 L 249.836 224.393 250.689 223.623 C 251.157 223.199,251.541 222.816,251.541 222.771 C 251.541 222.568,251.325 222.746,250.606 223.541 M239.852 233.770 L 239.082 234.623 239.934 233.853 C 240.403 233.429,240.787 233.045,240.787 233.000 C 240.787 232.797,240.570 232.976,239.852 233.770 M235.932 295.082 C 235.932 325.449,235.963 337.872,236.000 322.689 C 236.037 307.505,236.037 282.659,236.000 267.475 C 235.963 252.292,235.932 264.715,235.932 295.082 M157.492 251.082 L 156.721 251.934 157.574 251.164 C 158.043 250.740,158.426 250.357,158.426 250.312 C 158.426 250.109,158.210 250.287,157.492 251.082 M126.950 263.016 L 115.279 274.754 127.016 263.083 C 133.472 256.664,138.754 251.382,138.754 251.345 C 138.754 251.161,137.798 252.106,126.950 263.016 M214.554 259.869 L 210.230 264.262 214.623 259.937 C 218.705 255.919,219.135 255.475,218.948 255.475 C 218.910 255.475,216.933 257.452,214.554 259.869 M146.738 261.311 L 145.967 262.164 146.820 261.394 C 147.289 260.970,147.672 260.586,147.672 260.541 C 147.672 260.338,147.456 260.517,146.738 261.311 M188.984 262.820 C 189.986 263.830,190.865 264.656,190.937 264.656 C 191.009 264.656,190.248 263.830,189.246 262.820 C 188.244 261.810,187.365 260.984,187.293 260.984 C 187.221 260.984,187.982 261.810,188.984 262.820 M135.983 271.541 L 135.213 272.393 136.066 271.623 C 136.534 271.199,136.918 270.816,136.918 270.771 C 136.918 270.568,136.702 270.746,135.983 271.541 M125.229 281.770 L 124.459 282.623 125.311 281.853 C 126.106 281.134,126.284 280.918,126.082 280.918 C 126.037 280.918,125.653 281.302,125.229 281.770 " stroke="none" fill="#bc5373" fill-rule="evenodd"></path><path id="path4" d="M135.541 31.398 C 135.866 31.461,136.397 31.461,136.721 31.398 C 137.046 31.336,136.780 31.285,136.131 31.285 C 135.482 31.285,135.216 31.336,135.541 31.398 M234.429 31.399 C 234.756 31.461,235.228 31.459,235.478 31.393 C 235.729 31.328,235.462 31.276,234.885 31.279 C 234.308 31.282,234.103 31.336,234.429 31.399 M146.221 47.082 C 146.221 55.593,146.255 59.037,146.295 54.735 C 146.335 50.433,146.335 43.469,146.295 39.260 C 146.254 35.051,146.221 38.570,146.221 47.082 M159.265 33.764 L 159.213 35.921 155.082 36.000 L 150.951 36.080 155.090 36.138 C 159.848 36.205,159.542 36.389,159.409 33.549 L 159.317 31.607 159.265 33.764 M194.413 33.761 L 194.361 35.915 191.803 36.001 L 189.246 36.087 191.812 36.142 C 194.795 36.206,194.686 36.309,194.556 33.549 L 194.465 31.607 194.413 33.761 M267.655 38.295 C 267.655 41.974,267.692 43.479,267.737 41.639 C 267.782 39.800,267.782 36.790,267.737 34.951 C 267.692 33.111,267.655 34.616,267.655 38.295 M59.742 32.715 C 60.214 32.773,60.922 32.772,61.316 32.712 C 61.710 32.652,61.325 32.604,60.459 32.606 C 59.593 32.607,59.271 32.656,59.742 32.715 M100.912 36.124 C 101.378 36.182,102.204 36.183,102.748 36.126 C 103.292 36.069,102.911 36.022,101.902 36.020 C 100.892 36.019,100.447 36.066,100.912 36.124 M120.078 36.130 C 121.275 36.178,123.164 36.178,124.275 36.129 C 125.386 36.080,124.407 36.040,122.098 36.041 C 119.790 36.041,118.881 36.081,120.078 36.130 M180.927 36.128 C 181.689 36.181,182.869 36.181,183.550 36.127 C 184.230 36.073,183.607 36.030,182.164 36.030 C 180.721 36.031,180.165 36.075,180.927 36.128 M250.084 36.272 C 250.012 36.458,249.986 38.612,250.026 41.059 L 250.098 45.508 251.410 45.529 L 252.721 45.549 251.475 45.449 L 250.230 45.350 250.230 40.786 L 250.230 36.223 251.738 36.128 L 253.246 36.034 251.729 35.984 C 250.697 35.950,250.172 36.042,250.084 36.272 M329.038 36.263 C 328.969 36.443,328.944 41.430,328.984 47.345 L 329.055 58.098 329.118 47.160 L 329.180 36.222 330.820 36.129 L 332.459 36.036 330.811 35.985 C 329.695 35.951,329.123 36.040,329.038 36.263 M46.674 37.443 L 45.770 38.426 46.754 37.522 C 47.670 36.681,47.858 36.459,47.658 36.459 C 47.614 36.459,47.172 36.902,46.674 37.443 M339.003 46.951 C 339.003 51.928,339.038 53.964,339.082 51.475 C 339.125 48.987,339.125 44.915,339.082 42.426 C 339.038 39.938,339.003 41.974,339.003 46.951 M242.215 47.082 C 242.215 51.554,242.251 53.420,242.294 51.229 C 242.338 49.038,242.338 45.379,242.295 43.098 C 242.251 40.817,242.215 42.610,242.215 47.082 M41.776 50.623 C 41.776 51.272,41.828 51.538,41.890 51.213 C 41.953 50.889,41.953 50.357,41.890 50.033 C 41.828 49.708,41.776 49.974,41.776 50.623 M66.729 53.902 C 66.729 56.210,66.770 57.119,66.818 55.922 C 66.867 54.725,66.867 52.836,66.818 51.725 C 66.769 50.614,66.729 51.593,66.729 53.902 M250.081 56.131 C 250.081 59.666,250.118 61.111,250.163 59.344 C 250.209 57.577,250.209 54.685,250.163 52.918 C 250.118 51.151,250.081 52.597,250.081 56.131 M139.877 51.078 C 140.566 51.133,141.629 51.132,142.237 51.077 C 142.846 51.022,142.282 50.978,140.984 50.978 C 139.685 50.979,139.187 51.024,139.877 51.078 M79.564 53.770 C 79.564 54.852,79.610 55.295,79.666 54.754 C 79.723 54.213,79.723 53.328,79.666 52.787 C 79.610 52.246,79.564 52.689,79.564 53.770 M267.650 57.705 C 267.650 60.374,267.689 61.466,267.736 60.131 C 267.784 58.797,267.784 56.613,267.736 55.279 C 267.689 53.944,267.650 55.036,267.650 57.705 M41.771 56.525 C 41.774 57.102,41.828 57.307,41.890 56.981 C 41.953 56.654,41.951 56.182,41.885 55.931 C 41.819 55.681,41.768 55.948,41.771 56.525 M293.321 56.850 C 294.156 56.902,295.454 56.902,296.206 56.849 C 296.958 56.796,296.275 56.753,294.689 56.754 C 293.102 56.754,292.486 56.798,293.321 56.850 M159.306 60.197 C 159.305 61.495,159.350 62.059,159.405 61.451 C 159.460 60.842,159.460 59.779,159.406 59.090 C 159.352 58.400,159.307 58.898,159.306 60.197 M60.000 64.447 C 60.325 64.510,60.856 64.510,61.180 64.447 C 61.505 64.385,61.239 64.334,60.590 64.334 C 59.941 64.334,59.675 64.385,60.000 64.447 M45.115 66.180 C 45.115 66.226,45.498 66.609,45.967 67.033 L 46.820 67.803 46.049 66.951 C 45.331 66.156,45.115 65.978,45.115 66.180 M60.131 74.410 C 60.384 74.476,60.797 74.476,61.049 74.410 C 61.302 74.344,61.095 74.290,60.590 74.290 C 60.085 74.290,59.879 74.344,60.131 74.410 M117.705 74.939 C 118.030 75.002,118.561 75.002,118.885 74.939 C 119.210 74.877,118.944 74.826,118.295 74.826 C 117.646 74.826,117.380 74.877,117.705 74.939 M134.754 74.939 C 135.079 75.002,135.610 75.002,135.934 74.939 C 136.259 74.877,135.993 74.826,135.344 74.826 C 134.695 74.826,134.430 74.877,134.754 74.939 M170.689 74.939 C 171.013 75.002,171.544 75.002,171.869 74.939 C 172.193 74.877,171.928 74.826,171.279 74.826 C 170.630 74.826,170.364 74.877,170.689 74.939 M220.003 74.940 C 220.329 75.002,220.801 75.000,221.052 74.934 C 221.303 74.869,221.036 74.817,220.459 74.820 C 219.882 74.823,219.677 74.877,220.003 74.940 M243.607 74.939 C 243.931 75.002,244.462 75.002,244.787 74.939 C 245.111 74.877,244.846 74.826,244.197 74.826 C 243.548 74.826,243.282 74.877,243.607 74.939 M278.230 74.939 C 278.554 75.002,279.085 75.002,279.410 74.939 C 279.734 74.877,279.469 74.826,278.820 74.826 C 278.170 74.826,277.905 74.877,278.230 74.939 M145.697 90.623 C 145.697 99.134,145.730 102.578,145.770 98.276 C 145.811 93.974,145.811 87.010,145.770 82.801 C 145.730 78.592,145.697 82.111,145.697 90.623 M160.910 90.623 C 160.910 99.134,160.943 102.578,160.983 98.276 C 161.024 93.974,161.024 87.010,160.983 82.801 C 160.943 78.592,160.910 82.111,160.910 90.623 M181.631 90.623 C 181.631 99.134,181.664 102.578,181.705 98.276 C 181.745 93.974,181.745 87.010,181.705 82.801 C 181.664 78.592,181.631 82.111,181.631 90.623 M312.509 77.508 L 312.525 79.607 315.083 79.622 L 317.641 79.637 315.159 79.547 L 312.677 79.457 312.585 77.433 L 312.493 75.410 312.509 77.508 M334.278 81.836 C 334.278 85.515,334.315 87.020,334.360 85.180 C 334.405 83.341,334.405 80.331,334.360 78.492 C 334.315 76.652,334.278 78.157,334.278 81.836 M339.786 81.836 C 339.786 85.515,339.823 87.020,339.868 85.180 C 339.913 83.341,339.913 80.331,339.868 78.492 C 339.823 76.652,339.786 78.157,339.786 81.836 M102.242 79.671 C 103.439 79.719,105.328 79.719,106.439 79.670 C 107.550 79.621,106.570 79.581,104.262 79.582 C 101.954 79.582,101.045 79.622,102.242 79.671 M259.869 79.665 C 260.338 79.723,261.105 79.723,261.574 79.665 C 262.043 79.607,261.659 79.559,260.721 79.559 C 259.784 79.559,259.400 79.607,259.869 79.665 M323.615 79.669 C 324.378 79.722,325.558 79.722,326.238 79.668 C 326.919 79.614,326.295 79.571,324.852 79.571 C 323.410 79.572,322.853 79.616,323.615 79.669 M218.086 90.623 C 218.086 95.816,218.121 97.978,218.163 95.427 C 218.206 92.876,218.206 88.626,218.164 85.984 C 218.121 83.342,218.086 85.430,218.086 90.623 M223.042 83.410 C 223.042 84.636,223.088 85.138,223.143 84.525 C 223.198 83.911,223.198 82.908,223.143 82.295 C 223.088 81.682,223.042 82.184,223.042 83.410 M236.971 90.623 C 236.971 95.816,237.006 97.978,237.049 95.427 C 237.092 92.876,237.092 88.626,237.049 85.984 C 237.006 83.342,236.971 85.430,236.971 90.623 M168.774 90.623 C 168.774 95.672,168.809 97.701,168.852 95.131 C 168.895 92.561,168.895 88.430,168.852 85.950 C 168.809 83.471,168.774 85.574,168.774 90.623 M271.593 90.623 C 271.594 95.672,271.629 97.701,271.672 95.131 C 271.715 92.561,271.715 88.430,271.672 85.950 C 271.629 83.471,271.593 85.574,271.593 90.623 M137.823 90.623 C 137.823 95.528,137.858 97.497,137.901 95.000 C 137.944 92.502,137.944 88.489,137.901 86.082 C 137.858 83.674,137.823 85.718,137.823 90.623 M241.692 90.623 C 241.692 95.528,241.727 97.497,241.770 95.000 C 241.813 92.502,241.813 88.489,241.770 86.082 C 241.727 83.674,241.691 85.718,241.692 90.623 M263.963 84.197 C 263.963 85.567,264.008 86.128,264.062 85.443 C 264.116 84.757,264.116 83.636,264.062 82.951 C 264.008 82.266,263.963 82.826,263.963 84.197 M67.262 89.180 C 67.262 93.003,67.299 94.567,67.344 92.656 C 67.388 90.744,67.388 87.616,67.344 85.705 C 67.299 83.793,67.262 85.357,67.262 89.180 M111.067 90.623 C 111.067 95.095,111.103 96.961,111.147 94.770 C 111.191 92.579,111.191 88.920,111.147 86.639 C 111.103 84.358,111.068 86.151,111.067 90.623 M40.460 84.328 C 40.463 84.905,40.516 85.110,40.579 84.784 C 40.642 84.458,40.639 83.985,40.574 83.735 C 40.508 83.484,40.457 83.751,40.460 84.328 M197.208 84.787 C 197.157 84.967,197.176 89.836,197.252 95.607 L 197.389 106.098 197.449 95.279 C 197.504 85.306,197.471 83.869,197.208 84.787 M185.772 95.344 L 185.824 106.098 185.961 95.738 C 186.037 90.039,186.013 85.200,185.910 84.984 C 185.806 84.767,185.744 89.430,185.772 95.344 M244.551 91.016 C 244.551 92.243,244.596 92.744,244.651 92.131 C 244.706 91.518,244.706 90.515,244.651 89.902 C 244.596 89.289,244.551 89.790,244.551 91.016 M259.738 89.106 C 260.134 89.166,260.784 89.166,261.180 89.106 C 261.577 89.046,261.252 88.997,260.459 88.997 C 259.666 88.997,259.341 89.046,259.738 89.106 M334.286 92.914 C 334.213 93.102,334.188 96.145,334.230 99.677 L 334.305 106.098 334.366 99.475 L 334.426 92.852 337.045 92.852 L 339.663 92.852 339.740 99.410 L 339.817 105.967 339.810 99.344 L 339.803 92.721 337.110 92.647 C 335.083 92.590,334.384 92.656,334.286 92.914 M122.041 94.619 C 122.730 94.674,123.793 94.673,124.401 94.618 C 125.010 94.563,124.446 94.519,123.148 94.519 C 121.849 94.520,121.351 94.565,122.041 94.619 M223.063 94.774 C 222.990 94.965,222.969 96.234,223.017 97.593 L 223.104 100.066 223.159 97.387 L 223.213 94.709 225.508 94.622 L 227.803 94.534 225.500 94.480 C 223.790 94.440,223.162 94.516,223.063 94.774 M40.465 95.738 C 40.465 96.387,40.516 96.652,40.579 96.328 C 40.641 96.003,40.641 95.472,40.579 95.148 C 40.516 94.823,40.465 95.089,40.465 95.738 M235.541 200.590 L 200.262 235.934 235.607 200.656 C 268.466 167.858,271.068 165.246,270.885 165.246 C 270.849 165.246,254.944 181.151,235.541 200.590 M282.621 273.574 C 282.621 315.482,282.651 332.626,282.689 311.672 C 282.726 290.718,282.726 256.430,282.689 235.475 C 282.651 214.521,282.621 231.666,282.621 273.574 M275.133 200.328 L 274.230 201.311 275.213 200.408 C 276.129 199.566,276.317 199.344,276.117 199.344 C 276.073 199.344,275.631 199.787,275.133 200.328 M269.888 205.311 L 268.984 206.295 269.967 205.391 C 270.883 204.550,271.071 204.328,270.871 204.328 C 270.827 204.328,270.385 204.770,269.888 205.311 M264.379 210.557 L 263.475 211.541 264.459 210.637 C 265.000 210.140,265.443 209.697,265.443 209.653 C 265.443 209.453,265.221 209.642,264.379 210.557 M221.901 234.426 L 200.787 255.607 221.967 234.492 C 241.657 214.864,243.265 213.246,243.081 213.246 C 243.045 213.246,233.514 222.777,221.901 234.426 M259.133 215.541 L 258.230 216.525 259.213 215.621 C 260.129 214.779,260.317 214.557,260.117 214.557 C 260.073 214.557,259.631 215.000,259.133 215.541 M253.625 220.787 L 252.721 221.770 253.705 220.867 C 254.246 220.369,254.689 219.927,254.689 219.883 C 254.689 219.683,254.467 219.871,253.625 220.787 M179.016 234.754 C 185.507 241.246,190.877 246.557,190.949 246.557 C 191.021 246.557,185.769 241.246,179.279 234.754 C 172.788 228.262,167.419 222.951,167.346 222.951 C 167.274 222.951,172.526 228.262,179.016 234.754 M248.379 225.770 L 247.475 226.754 248.459 225.850 C 249.375 225.009,249.563 224.787,249.363 224.787 C 249.319 224.787,248.876 225.230,248.379 225.770 M242.871 231.016 L 241.967 232.000 242.951 231.096 C 243.866 230.255,244.055 230.033,243.855 230.033 C 243.811 230.033,243.368 230.475,242.871 231.016 M160.510 248.328 L 159.607 249.311 160.590 248.408 C 161.506 247.566,161.694 247.344,161.494 247.344 C 161.450 247.344,161.008 247.787,160.510 248.328 M155.131 253.443 L 154.361 254.295 155.213 253.525 C 155.682 253.101,156.066 252.717,156.066 252.672 C 156.066 252.470,155.849 252.648,155.131 253.443 M181.246 255.023 C 181.246 255.063,182.161 255.977,183.279 257.056 L 185.311 259.016 183.351 256.984 C 181.530 255.096,181.246 254.831,181.246 255.023 M149.756 258.557 L 148.852 259.541 149.836 258.637 C 150.752 257.796,150.940 257.574,150.740 257.574 C 150.696 257.574,150.254 258.016,149.756 258.557 M144.377 263.672 L 143.607 264.525 144.459 263.754 C 144.928 263.330,145.311 262.947,145.311 262.902 C 145.311 262.699,145.095 262.878,144.377 263.672 M139.002 268.787 L 138.098 269.770 139.082 268.867 C 139.997 268.025,140.186 267.803,139.986 267.803 C 139.942 267.803,139.499 268.246,139.002 268.787 M196.328 270.426 C 197.620 271.725,198.737 272.787,198.809 272.787 C 198.881 272.787,197.883 271.725,196.590 270.426 C 195.298 269.128,194.181 268.066,194.109 268.066 C 194.037 268.066,195.036 269.128,196.328 270.426 M201.557 273.115 L 200.787 273.967 201.639 273.197 C 202.108 272.773,202.492 272.390,202.492 272.344 C 202.492 272.142,202.275 272.320,201.557 273.115 M133.756 273.770 L 132.852 274.754 133.836 273.850 C 134.752 273.009,134.940 272.787,134.740 272.787 C 134.696 272.787,134.254 273.230,133.756 273.770 M128.377 278.885 L 127.607 279.738 128.459 278.967 C 129.254 278.249,129.432 278.033,129.229 278.033 C 129.184 278.033,128.801 278.416,128.377 278.885 M123.002 284.000 L 122.098 284.984 123.082 284.080 C 123.997 283.238,124.186 283.016,123.986 283.016 C 123.942 283.016,123.499 283.459,123.002 284.000 M131.344 351.934 C 137.295 351.974,147.033 351.974,152.984 351.934 C 158.934 351.895,154.066 351.863,142.164 351.863 C 130.262 351.863,125.393 351.895,131.344 351.934 M190.361 351.934 C 196.311 351.974,206.049 351.974,212.000 351.934 C 217.951 351.895,213.082 351.863,201.180 351.863 C 189.279 351.863,184.410 351.895,190.361 351.934 M248.590 351.934 C 254.541 351.974,264.279 351.974,270.230 351.934 C 276.180 351.895,271.311 351.863,259.410 351.863 C 247.508 351.863,242.639 351.895,248.590 351.934 " stroke="none" fill="#d48ca4" fill-rule="evenodd"></path></g></svg>