<svg id="svg" version="1.1" xmlns="http://www.w3.org/2000/svg" xmlns:xlink="http://www.w3.org/1999/xlink" width="400" height="400" viewBox="0, 0, 400,400"><g id="svgg"><path id="path0" d="M150.822 31.820 C 148.228 32.647,146.763 35.562,146.930 39.564 C 147.073 42.986,147.727 44.173,151.704 48.233 C 156.146 52.767,157.342 55.657,155.560 57.554 C 153.600 59.640,151.082 58.110,151.082 54.833 L 151.082 53.246 148.815 53.246 L 146.549 53.246 146.685 55.431 C 146.977 60.109,148.976 62.363,153.070 62.630 C 158.392 62.978,160.984 60.262,160.734 54.598 C 160.575 50.977,159.840 49.638,155.830 45.655 C 151.575 41.430,150.345 38.221,152.250 36.316 C 153.926 34.640,156.328 35.876,156.328 38.414 L 156.328 39.869 158.557 39.869 L 160.787 39.869 160.787 38.474 C 160.787 33.133,156.238 30.096,150.822 31.820 M85.246 47.082 L 85.246 62.426 87.607 62.426 L 89.967 62.426 89.967 47.082 L 89.967 31.738 87.607 31.738 L 85.246 31.738 85.246 47.082 M93.377 47.082 L 93.377 62.426 95.475 62.426 L 97.574 62.426 97.574 51.366 C 97.574 45.283,97.662 40.394,97.770 40.503 C 97.878 40.611,99.276 45.558,100.875 51.497 L 103.784 62.295 106.187 62.370 L 108.590 62.446 108.590 47.092 L 108.590 31.738 106.492 31.738 L 104.393 31.738 104.377 40.852 L 104.361 49.967 102.162 41.836 C 100.952 37.364,99.834 33.262,99.676 32.721 L 99.389 31.738 96.383 31.738 L 93.377 31.738 93.377 47.082 M112.262 47.090 L 112.262 62.483 117.180 62.373 C 126.605 62.164,126.820 61.829,126.820 47.344 C 126.820 32.320,126.588 31.941,117.311 31.783 L 112.262 31.698 112.262 47.090 M129.836 44.286 C 129.836 57.816,129.874 58.253,131.243 60.322 C 133.643 63.948,141.050 63.384,143.078 59.420 L 143.869 57.874 143.944 44.806 L 144.019 31.738 141.780 31.738 L 139.541 31.738 139.541 44.313 L 139.541 56.889 138.908 57.625 C 138.382 58.236,138.067 58.361,137.049 58.361 C 136.031 58.361,135.716 58.236,135.190 57.625 L 134.557 56.889 134.557 44.313 L 134.557 31.738 132.197 31.738 L 129.836 31.738 129.836 44.286 M162.361 33.836 L 162.361 35.934 164.852 35.934 L 167.344 35.934 167.344 49.180 L 167.344 62.426 169.705 62.426 L 172.066 62.426 172.066 49.180 L 172.066 35.934 174.557 35.934 L 177.049 35.934 177.049 33.836 L 177.049 31.738 169.705 31.738 L 162.361 31.738 162.361 33.836 M179.410 47.082 L 179.410 62.426 181.770 62.426 L 184.131 62.426 184.131 56.100 L 184.131 49.773 185.717 49.888 C 188.547 50.092,188.688 50.386,188.881 56.465 C 189.084 62.858,188.873 62.426,191.794 62.426 C 193.941 62.426,194.137 62.385,193.960 61.967 C 193.853 61.715,193.686 59.089,193.588 56.131 C 193.390 50.175,193.132 49.180,191.486 48.007 L 190.697 47.446 191.714 46.477 C 193.095 45.160,193.574 43.459,193.574 39.869 C 193.574 33.078,191.966 31.738,183.821 31.738 L 179.410 31.738 179.410 47.082 M195.410 31.892 C 195.410 31.977,196.767 36.624,198.426 42.218 L 201.443 52.390 201.443 57.408 L 201.443 62.426 203.803 62.426 L 206.164 62.426 206.164 57.172 L 206.164 51.917 208.931 42.549 C 210.452 37.396,211.805 32.851,211.937 32.449 L 212.176 31.718 209.913 31.793 L 207.650 31.869 205.870 38.655 C 204.890 42.387,204.042 45.488,203.984 45.546 C 203.889 45.641,202.925 42.104,200.954 34.426 L 200.264 31.738 197.837 31.738 C 196.502 31.738,195.410 31.807,195.410 31.892 M52.328 32.538 C 44.424 33.593,39.537 37.769,37.457 45.246 C 36.723 47.886,36.537 67.782,37.215 71.213 C 38.860 79.543,43.154 83.717,50.492 84.120 C 55.824 84.412,59.381 82.785,62.080 78.820 L 62.973 77.508 62.896 87.869 C 62.821 98.050,62.809 98.252,62.215 99.541 C 60.952 102.284,59.151 103.434,56.131 103.429 C 51.153 103.419,49.575 101.305,49.366 94.361 L 49.242 90.230 43.213 90.230 L 37.184 90.230 37.313 95.279 C 37.655 108.654,42.741 114.128,55.213 114.544 C 66.626 114.925,73.263 110.132,75.623 99.808 C 76.265 96.999,76.644 55.499,76.076 50.230 C 74.664 37.134,66.040 30.709,52.328 32.538 M120.903 36.320 C 122.143 36.961,122.230 37.665,122.230 47.104 C 122.230 58.076,122.270 57.944,118.885 57.959 L 116.984 57.967 116.984 46.951 L 116.984 35.934 118.570 35.934 C 119.453 35.934,120.488 36.105,120.903 36.320 M188.137 36.675 C 188.661 37.199,188.730 37.570,188.810 40.290 C 188.939 44.706,188.330 45.639,185.320 45.639 L 184.131 45.639 184.131 40.756 L 184.131 35.873 185.842 35.982 C 187.166 36.067,187.684 36.223,188.137 36.675 M58.827 43.557 C 62.360 44.538,62.801 46.046,62.903 57.498 C 62.995 67.825,62.852 69.161,61.437 71.193 C 59.028 74.656,52.847 74.206,50.904 70.426 L 50.230 69.115 50.152 59.058 C 50.064 47.623,50.150 46.928,51.884 45.078 C 53.417 43.441,56.209 42.830,58.827 43.557 M214.295 60.066 L 214.295 62.426 215.082 62.426 C 216.015 62.426,216.028 62.547,215.344 64.787 C 215.058 65.725,214.823 66.528,214.822 66.573 C 214.821 66.618,215.249 66.618,215.774 66.573 C 217.187 66.453,218.754 62.868,218.754 59.757 L 218.754 57.705 216.525 57.705 L 214.295 57.705 214.295 60.066 M134.756 75.375 C 132.378 76.260,131.106 77.922,130.625 80.774 C 130.103 83.867,130.397 100.527,131.002 102.135 C 133.079 107.660,142.330 107.660,144.408 102.135 C 145.017 100.516,145.306 83.866,144.780 80.748 C 144.015 76.213,139.298 73.684,134.756 75.375 M210.736 75.626 C 207.198 77.313,206.891 78.601,206.998 91.279 L 207.082 101.115 207.780 102.605 C 210.066 107.481,218.066 107.533,220.680 102.689 C 221.234 101.661,221.246 101.410,221.246 90.623 L 221.246 79.607 220.431 78.164 C 218.761 75.207,214.146 73.998,210.736 75.626 M85.246 90.623 L 85.246 105.967 87.607 105.967 L 89.967 105.967 89.967 90.623 L 89.967 75.279 87.607 75.279 L 85.246 75.279 85.246 90.623 M93.377 90.623 L 93.377 105.967 95.475 105.967 L 97.574 105.967 97.574 94.907 C 97.574 88.824,97.662 83.935,97.770 84.044 C 97.878 84.152,99.276 89.099,100.875 95.038 L 103.784 105.836 106.187 105.911 L 108.590 105.987 108.590 90.633 L 108.590 75.279 106.492 75.279 L 104.393 75.279 104.377 84.393 L 104.361 93.508 102.162 85.377 C 100.952 80.905,99.834 76.803,99.676 76.262 L 99.389 75.279 96.383 75.279 L 93.377 75.279 93.377 90.623 M112.262 90.614 L 112.262 105.967 114.358 105.967 L 116.453 105.967 116.522 95.016 L 116.590 84.066 119.444 94.689 C 121.013 100.531,122.354 105.459,122.423 105.639 C 122.510 105.868,123.256 105.967,124.881 105.967 L 127.213 105.967 127.213 90.623 L 127.213 75.279 125.118 75.279 L 123.023 75.279 122.954 84.209 L 122.885 93.140 120.503 84.275 L 118.121 75.410 115.192 75.336 L 112.262 75.262 112.262 90.614 M147.011 76.131 C 147.093 76.600,148.103 83.121,149.256 90.623 C 150.409 98.125,151.422 104.646,151.508 105.115 L 151.665 105.967 155.148 105.967 L 158.630 105.967 158.785 105.115 C 158.870 104.646,159.887 98.066,161.046 90.492 C 162.204 82.918,163.219 76.397,163.302 76.000 L 163.452 75.279 161.263 75.279 L 159.075 75.279 158.365 80.197 C 156.361 94.083,155.438 100.181,155.353 100.097 C 155.302 100.045,154.502 94.824,153.574 88.493 C 152.647 82.163,151.820 76.600,151.736 76.131 L 151.583 75.279 149.222 75.279 L 146.861 75.279 147.011 76.131 M169.318 75.607 C 169.258 75.787,168.196 82.367,166.957 90.230 C 165.718 98.092,164.639 104.854,164.558 105.257 L 164.413 105.989 166.596 105.913 L 168.779 105.836 169.181 103.082 L 169.583 100.328 172.592 100.328 L 175.602 100.328 176.044 103.082 C 176.287 104.597,176.495 105.866,176.505 105.902 C 176.654 106.406,181.237 105.885,181.119 105.377 C 181.044 105.052,179.977 98.413,178.749 90.623 C 177.520 82.833,176.455 76.193,176.383 75.869 C 176.227 75.167,169.545 74.919,169.318 75.607 M182.033 77.377 L 182.033 79.475 184.525 79.475 L 187.016 79.475 187.016 92.721 L 187.016 105.967 189.375 105.967 L 191.733 105.967 191.801 92.787 L 191.869 79.607 194.426 79.531 L 196.984 79.456 196.984 77.368 L 196.984 75.279 189.508 75.279 L 182.033 75.279 182.033 77.377 M199.082 90.623 L 199.082 105.967 201.443 105.967 L 203.803 105.967 203.803 90.623 L 203.803 75.279 201.443 75.279 L 199.082 75.279 199.082 90.623 M224.525 90.623 L 224.525 105.967 226.623 105.967 L 228.721 105.967 228.721 94.907 C 228.721 88.824,228.810 83.935,228.918 84.044 C 229.026 84.152,230.423 89.099,232.023 95.038 L 234.931 105.836 237.335 105.911 L 239.738 105.987 239.738 90.633 L 239.738 75.279 237.643 75.279 L 235.548 75.279 235.479 84.312 L 235.410 93.346 233.335 85.558 C 232.194 81.275,231.098 77.210,230.899 76.525 L 230.537 75.279 227.531 75.279 L 224.525 75.279 224.525 90.623 M139.056 79.497 C 140.228 80.124,140.328 80.990,140.328 90.575 C 140.328 100.319,140.246 101.004,139.001 101.647 C 137.540 102.403,135.865 101.840,135.373 100.428 C 134.909 99.096,134.977 81.808,135.451 80.674 C 136.024 79.302,137.681 78.761,139.056 79.497 M215.588 79.597 C 216.672 80.158,216.656 79.988,216.656 90.665 L 216.656 100.499 215.856 101.299 C 215.153 102.002,214.927 102.081,213.982 101.954 C 211.724 101.651,211.803 102.065,211.803 90.593 L 211.803 80.479 212.539 79.846 C 213.381 79.122,214.494 79.031,215.588 79.597 M173.744 88.000 C 174.274 91.607,174.775 94.941,174.858 95.410 L 175.009 96.262 172.587 96.262 L 170.164 96.262 170.297 95.541 C 170.370 95.144,170.882 91.723,171.436 87.939 C 171.989 84.155,172.518 81.145,172.612 81.250 C 172.705 81.356,173.215 84.393,173.744 88.000 M227.065 121.021 C 224.638 121.922,223.411 123.852,223.055 127.322 C 222.679 130.993,223.891 133.447,228.188 137.722 C 232.802 142.310,233.877 146.073,230.925 147.306 C 228.755 148.213,227.410 147.035,227.410 144.227 L 227.410 142.426 225.149 142.426 L 222.888 142.426 222.996 144.852 C 223.217 149.819,225.837 152.165,230.767 151.811 C 234.716 151.528,236.752 149.332,237.046 145.041 C 237.313 141.153,236.400 139.324,231.874 134.688 C 228.185 130.907,227.830 130.314,227.814 127.912 C 227.789 123.889,232.266 123.562,232.597 127.562 L 232.721 129.049 234.955 129.049 L 237.190 129.049 237.021 127.229 C 236.745 124.259,235.800 122.505,233.898 121.434 C 232.509 120.651,228.682 120.420,227.065 121.021 M294.265 121.018 C 292.675 121.586,291.739 122.434,290.967 124.006 L 290.230 125.508 290.230 136.131 C 290.230 147.726,290.259 147.990,291.741 149.677 C 294.085 152.347,299.665 152.649,302.144 150.240 C 303.699 148.729,304.102 147.450,304.215 143.672 L 304.315 140.328 302.059 140.328 L 299.803 140.328 299.803 143.178 C 299.803 147.103,298.753 148.336,296.288 147.306 C 294.853 146.707,294.820 146.452,294.820 135.963 L 294.820 126.386 295.586 125.619 C 297.737 123.468,299.803 125.091,299.803 128.930 L 299.803 131.148 302.061 131.148 L 304.319 131.148 304.219 128.197 C 304.013 122.102,299.778 119.047,294.265 121.018 M88.788 121.508 C 88.712 121.833,87.647 128.413,86.422 136.131 C 85.198 143.849,84.128 150.489,84.044 150.885 L 83.893 151.607 86.101 151.607 L 88.309 151.607 88.638 149.025 C 89.073 145.605,88.846 145.804,92.218 145.892 L 95.082 145.967 95.421 148.197 C 95.997 151.990,95.664 151.607,98.386 151.607 L 100.763 151.607 100.610 150.885 C 100.527 150.489,99.456 143.849,98.232 136.131 C 97.008 128.413,95.944 121.833,95.867 121.508 C 95.731 120.934,95.637 120.918,92.328 120.918 C 89.018 120.918,88.924 120.934,88.788 121.508 M103.082 136.254 L 103.082 151.607 105.177 151.607 L 107.273 151.607 107.341 140.656 L 107.410 129.705 110.263 140.328 C 111.833 146.170,113.173 151.098,113.242 151.279 C 113.330 151.507,114.076 151.607,115.700 151.607 L 118.033 151.607 118.033 136.262 L 118.033 120.918 115.938 120.918 L 113.843 120.918 113.774 129.858 L 113.705 138.798 111.329 129.924 L 108.954 121.049 106.018 120.975 L 103.082 120.901 103.082 136.254 M121.705 136.291 L 121.705 151.663 126.623 151.567 C 136.081 151.382,136.479 150.719,136.341 135.401 C 136.243 124.459,136.226 124.362,134.132 122.518 C 132.572 121.145,131.443 120.918,126.179 120.918 L 121.705 120.918 121.705 136.291 M146.361 136.262 L 146.361 151.607 148.721 151.607 L 151.082 151.607 151.082 136.262 L 151.082 120.918 148.721 120.918 L 146.361 120.918 146.361 136.262 M154.492 136.262 L 154.492 151.607 156.590 151.607 L 158.689 151.607 158.697 140.525 C 158.701 134.430,158.803 129.620,158.923 129.836 C 159.043 130.052,160.427 135.039,161.997 140.917 L 164.852 151.604 167.279 151.605 L 169.705 151.607 169.705 136.262 L 169.705 120.918 167.610 120.918 L 165.515 120.918 165.446 130.033 L 165.377 139.148 163.583 132.459 C 162.596 128.780,161.489 124.679,161.122 123.344 L 160.456 120.918 157.474 120.918 L 154.492 120.918 154.492 136.262 M173.115 136.262 L 173.115 151.607 175.471 151.607 L 177.827 151.607 177.897 145.246 L 177.967 138.885 181.049 138.811 L 184.131 138.737 184.131 136.647 L 184.131 134.557 180.978 134.557 L 177.824 134.557 177.896 129.902 L 177.967 125.246 181.967 125.173 L 185.967 125.101 185.967 123.010 L 185.967 120.918 179.541 120.918 L 173.115 120.918 173.115 136.262 M188.328 136.262 L 188.328 151.607 190.689 151.607 L 193.049 151.607 193.049 145.311 L 193.049 139.016 194.348 139.016 C 197.444 139.016,197.833 139.752,197.961 145.836 C 198.077 151.379,198.105 151.548,198.948 151.655 C 199.431 151.716,193.726 155.127,176.850 164.866 C 158.687 175.347,153.982 178.170,153.510 178.872 L 152.918 179.750 152.918 207.600 L 152.918 235.451 128.903 249.309 C 115.696 256.931,104.659 263.459,104.379 263.816 C 103.881 264.449,103.869 265.143,103.869 294.064 L 103.869 323.664 104.590 324.434 C 105.378 325.274,154.445 353.653,155.588 353.929 C 156.666 354.190,156.279 354.400,181.494 339.852 C 194.542 332.323,205.290 326.186,205.379 326.213 C 205.469 326.240,216.319 332.483,229.492 340.085 C 249.763 351.784,253.598 353.908,254.450 353.908 C 255.303 353.908,259.219 351.739,279.926 339.802 C 306.443 324.515,305.984 324.797,306.520 323.515 C 307.065 322.211,307.065 265.855,306.520 264.551 C 305.990 263.283,306.487 263.588,280.986 248.896 L 257.578 235.410 257.576 207.516 C 257.574 177.301,257.640 178.757,256.227 177.875 C 255.953 177.704,245.374 171.592,232.717 164.292 C 220.060 156.993,209.554 150.879,209.369 150.706 C 209.096 150.450,209.096 149.977,209.370 148.179 L 209.707 145.967 212.722 145.967 L 215.738 145.967 216.136 148.721 L 216.534 151.475 218.921 151.550 C 221.280 151.624,221.307 151.618,221.205 151.026 C 221.149 150.696,220.101 144.111,218.877 136.393 C 217.653 128.675,216.584 122.036,216.501 121.639 L 216.352 120.918 212.897 120.919 L 209.443 120.919 207.916 130.558 C 207.076 135.859,206.081 142.123,205.704 144.478 L 205.018 148.760 203.992 149.284 C 202.607 149.990,202.642 150.098,202.479 144.700 C 202.318 139.346,202.114 138.559,200.557 137.276 L 199.607 136.492 200.391 135.912 C 202.041 134.692,202.361 133.579,202.361 129.049 C 202.361 121.929,201.165 120.918,192.739 120.918 L 188.328 120.918 188.328 136.262 M238.689 123.016 L 238.689 125.115 241.180 125.115 L 243.672 125.115 243.672 138.361 L 243.672 151.607 246.033 151.607 L 248.393 151.607 248.393 138.361 L 248.393 125.115 250.885 125.115 L 253.377 125.115 253.377 123.016 L 253.377 120.918 246.033 120.918 L 238.689 120.918 238.689 123.016 M255.475 136.238 L 255.475 151.607 257.836 151.607 L 260.197 151.607 260.197 145.281 L 260.197 138.955 261.887 139.063 C 264.816 139.249,265.177 140.009,265.179 146.000 C 265.180 148.182,265.254 150.336,265.344 150.787 L 265.508 151.607 267.983 151.607 C 269.901 151.607,270.409 151.533,270.245 151.279 C 270.128 151.098,269.960 148.590,269.871 145.705 C 269.678 139.480,269.347 138.278,267.494 137.076 L 266.792 136.620 267.807 135.703 C 269.356 134.303,269.772 132.917,269.762 129.180 C 269.743 122.217,268.504 121.115,260.525 120.965 L 255.475 120.870 255.475 136.238 M272.837 133.836 C 272.926 148.055,272.930 148.091,274.701 149.989 C 276.933 152.382,282.548 152.495,285.075 150.199 C 287.025 148.426,287.213 146.899,287.213 132.804 L 287.213 120.918 284.984 120.918 L 282.754 120.918 282.754 133.076 C 282.754 147.268,282.681 147.672,280.131 147.672 C 277.581 147.672,277.508 147.268,277.508 133.076 L 277.508 120.918 275.132 120.918 L 272.755 120.918 272.837 133.836 M305.836 123.007 L 305.836 125.096 308.393 125.171 L 310.951 125.246 311.019 138.426 L 311.087 151.607 313.445 151.607 L 315.803 151.607 315.803 138.361 L 315.803 125.115 318.295 125.115 L 320.787 125.115 320.787 123.016 L 320.787 120.918 313.311 120.918 L 305.836 120.918 305.836 123.007 M322.675 133.836 L 322.754 146.754 323.381 148.143 C 325.835 153.572,334.709 153.099,336.569 147.439 C 336.786 146.779,336.911 142.613,336.983 133.705 L 337.085 120.918 334.837 120.918 L 332.590 120.918 332.589 132.918 C 332.587 147.189,332.501 147.672,329.967 147.672 C 327.417 147.672,327.344 147.268,327.344 133.076 L 327.344 120.918 324.970 120.918 L 322.596 120.918 322.675 133.836 M340.197 136.262 L 340.197 151.607 342.557 151.607 L 344.918 151.607 344.918 145.311 L 344.918 139.016 346.295 139.020 C 349.414 139.029,349.891 139.925,349.927 145.836 C 349.964 151.824,349.783 151.459,352.754 151.551 C 354.691 151.611,355.148 151.557,354.980 151.289 C 354.864 151.103,354.703 148.531,354.622 145.574 C 354.456 139.449,354.108 138.157,352.343 137.116 L 351.451 136.590 352.345 135.982 C 354.007 134.853,354.482 133.373,354.487 129.311 C 354.496 122.113,353.077 120.918,344.512 120.918 L 340.197 120.918 340.197 136.262 M357.770 136.262 L 357.770 151.607 364.328 151.607 L 370.885 151.607 370.885 149.377 L 370.885 147.148 366.689 147.148 L 362.492 147.148 362.492 142.689 L 362.492 138.230 365.770 138.230 L 369.049 138.230 369.049 136.000 L 369.049 133.770 365.770 133.770 L 362.492 133.770 362.492 129.443 L 362.492 125.115 366.689 125.115 L 370.885 125.115 370.885 123.016 L 370.885 120.918 364.328 120.918 L 357.770 120.918 357.770 136.262 M130.949 125.848 C 131.537 126.436,131.541 126.497,131.620 135.417 C 131.726 147.438,131.806 147.148,128.393 147.148 L 126.426 147.148 126.426 136.102 L 126.426 125.057 128.391 125.157 C 130.001 125.238,130.463 125.363,130.949 125.848 M197.150 125.997 C 197.724 126.664,197.770 126.942,197.770 129.702 C 197.770 134.020,197.218 134.820,194.238 134.820 L 193.049 134.820 193.049 129.937 L 193.049 125.054 194.789 125.164 C 196.291 125.260,196.615 125.374,197.150 125.997 M263.870 125.509 C 264.840 126.010,265.177 127.177,265.179 130.041 C 265.181 133.670,264.268 134.820,261.385 134.820 L 260.197 134.820 260.197 129.967 L 260.197 125.115 261.652 125.115 C 262.453 125.115,263.451 125.292,263.870 125.509 M348.455 125.375 C 349.588 125.806,349.959 127.133,349.858 130.400 C 349.745 134.067,349.289 134.682,346.685 134.686 L 345.049 134.689 344.977 130.239 C 344.937 127.792,344.963 125.638,345.034 125.452 C 345.191 125.045,347.452 124.994,348.455 125.375 M213.898 133.902 C 214.418 137.508,214.906 140.784,214.983 141.180 L 215.124 141.902 212.708 141.902 L 210.292 141.902 210.428 141.049 C 210.503 140.580,211.020 137.096,211.577 133.307 C 212.144 129.452,212.670 126.621,212.772 126.881 C 212.872 127.136,213.379 130.295,213.898 133.902 M93.374 134.443 C 93.953 138.347,94.426 141.622,94.426 141.721 C 94.426 141.821,93.349 141.902,92.033 141.902 L 89.639 141.902 89.781 141.180 C 89.859 140.784,90.352 137.508,90.876 133.902 C 91.401 130.295,91.901 127.167,91.988 126.951 C 92.199 126.427,92.133 126.069,93.374 134.443 M179.048 197.409 C 189.706 203.557,198.515 208.668,198.624 208.767 C 198.799 208.925,159.836 231.607,159.390 231.607 C 159.293 231.607,159.213 221.397,159.213 208.918 C 159.213 196.230,159.314 186.230,159.441 186.230 C 159.567 186.230,168.390 191.260,179.048 197.409 M251.279 208.946 C 251.279 227.014,251.212 231.636,250.951 231.532 C 249.923 231.124,212.129 209.113,212.100 208.906 C 212.068 208.676,250.639 186.242,251.082 186.233 C 251.190 186.231,251.279 196.452,251.279 208.946 M202.230 237.246 C 202.230 250.864,202.133 259.934,201.988 259.934 C 201.502 259.934,162.836 237.459,162.921 237.225 C 163.012 236.975,201.685 214.563,202.033 214.559 C 202.141 214.558,202.230 224.767,202.230 237.246 M228.189 225.797 C 238.894 231.978,247.658 237.141,247.666 237.270 C 247.679 237.488,209.154 259.896,208.721 259.923 C 208.613 259.929,208.525 249.725,208.525 237.246 C 208.525 224.767,208.570 214.557,208.626 214.557 C 208.681 214.557,217.485 219.615,228.189 225.797 M275.995 253.377 C 287.626 260.085,297.063 265.653,296.965 265.751 C 296.867 265.848,287.260 271.426,275.616 278.147 L 254.446 290.365 233.195 278.101 C 221.507 271.355,211.974 265.742,212.009 265.627 C 212.107 265.309,254.254 241.033,254.571 241.112 C 254.723 241.150,264.364 246.669,275.995 253.377 M131.934 283.750 L 152.787 295.797 152.854 320.511 C 152.891 334.104,152.823 345.185,152.705 345.137 C 152.586 345.089,142.969 339.561,131.335 332.852 L 110.181 320.656 110.173 295.925 C 110.164 272.449,110.187 271.208,110.623 271.449 C 110.875 271.589,120.466 277.124,131.934 283.750 M202.230 294.033 C 202.230 306.422,202.141 316.609,202.033 316.669 C 201.827 316.785,162.635 294.262,162.643 294.033 C 162.651 293.802,201.828 271.294,202.033 271.402 C 202.141 271.459,202.230 281.643,202.230 294.033 M300.328 295.936 L 300.328 320.659 279.193 332.854 C 267.569 339.561,257.949 345.089,257.816 345.137 C 257.669 345.190,257.574 335.530,257.574 320.573 L 257.574 295.922 278.885 283.590 C 290.607 276.807,300.226 271.247,300.262 271.235 C 300.298 271.223,300.328 282.338,300.328 295.936 M179.076 310.973 C 189.719 317.117,198.511 322.224,198.615 322.323 C 198.774 322.474,159.771 345.180,159.353 345.180 C 159.276 345.180,159.213 334.970,159.213 322.492 C 159.213 307.868,159.304 299.803,159.470 299.803 C 159.611 299.803,168.434 304.830,179.076 310.973 " stroke="none" fill="#fcfafa" fill-rule="evenodd"></path><path id="path1" d="M0.000 200.000 L 0.000 400.000 200.000 400.000 L 400.000 400.000 400.000 200.000 L 400.000 0.000 200.000 0.000 L 0.000 0.000 0.000 200.000 M156.039 31.494 C 158.954 32.119,160.642 34.387,160.955 38.098 L 161.126 40.131 158.759 40.131 L 156.391 40.131 156.276 38.547 C 155.986 34.527,151.737 34.735,151.738 38.769 C 151.739 41.044,152.465 42.229,155.903 45.568 C 160.076 49.621,160.918 51.219,160.917 55.082 C 160.916 60.301,158.545 62.835,153.700 62.798 C 148.967 62.761,146.623 60.188,146.623 55.030 L 146.623 52.963 148.918 53.039 L 151.213 53.115 151.344 55.171 C 151.494 57.518,152.014 58.230,153.581 58.230 C 155.309 58.230,156.070 57.327,156.060 55.292 C 156.050 53.393,155.229 52.100,151.788 48.566 C 147.483 44.143,146.754 42.753,146.754 38.956 C 146.754 33.070,150.258 30.254,156.039 31.494 M89.967 46.951 L 89.967 62.426 87.475 62.426 L 84.984 62.426 84.984 47.126 C 84.984 38.710,85.062 31.746,85.158 31.650 C 85.255 31.554,86.376 31.475,87.650 31.475 L 89.967 31.475 89.967 46.951 M101.951 40.525 L 104.361 49.443 104.377 40.448 L 104.393 31.454 106.557 31.530 L 108.721 31.607 108.789 47.016 L 108.857 62.426 106.269 62.426 L 103.682 62.426 101.651 54.885 C 100.535 50.738,99.227 45.928,98.747 44.197 L 97.872 41.049 97.854 51.738 L 97.836 62.426 95.607 62.426 L 93.377 62.426 93.377 46.942 L 93.377 31.459 96.459 31.533 L 99.541 31.607 101.951 40.525 M122.885 32.030 C 126.609 33.295,126.994 34.796,126.897 47.648 L 126.820 57.836 126.005 59.279 C 125.439 60.281,124.805 60.961,123.928 61.508 L 122.666 62.295 117.333 62.380 L 112.000 62.465 112.000 47.145 C 112.000 38.719,112.089 31.735,112.197 31.625 C 112.529 31.286,121.723 31.635,122.885 32.030 M134.557 43.608 C 134.557 58.043,134.584 58.201,137.001 58.221 C 139.539 58.242,139.538 58.252,139.540 43.596 L 139.541 31.455 141.836 31.531 L 144.131 31.607 144.131 44.590 L 144.131 57.574 143.510 58.949 C 142.297 61.632,140.288 62.808,136.918 62.808 C 133.549 62.808,131.539 61.632,130.326 58.949 L 129.705 57.574 129.623 44.887 C 129.578 37.909,129.604 32.037,129.681 31.838 C 129.785 31.567,130.415 31.475,132.188 31.475 L 134.557 31.475 134.557 43.608 M177.256 33.902 L 177.332 36.197 174.830 36.197 L 172.328 36.197 172.328 49.311 L 172.328 62.426 169.836 62.426 L 167.344 62.426 167.344 49.321 L 167.344 36.216 164.787 36.141 L 162.230 36.066 162.152 34.123 C 162.035 31.209,161.304 31.457,169.764 31.537 L 177.180 31.607 177.256 33.902 M189.770 32.003 C 191.190 32.436,192.907 34.201,193.344 35.677 C 194.486 39.531,193.455 45.692,191.470 46.864 L 190.712 47.312 191.581 47.902 C 193.307 49.075,193.836 51.225,193.836 57.068 C 193.836 59.275,193.951 61.383,194.092 61.753 L 194.348 62.426 191.762 62.426 C 188.634 62.426,188.862 62.848,188.855 57.049 C 188.847 50.851,188.500 50.098,185.647 50.098 L 184.131 50.098 184.131 56.262 L 184.131 62.426 181.639 62.426 L 179.148 62.426 179.148 46.919 L 179.148 31.411 183.934 31.547 C 186.567 31.622,189.193 31.827,189.770 32.003 M200.279 31.764 C 200.377 31.923,201.244 35.051,202.206 38.715 L 203.956 45.377 205.620 39.016 C 206.535 35.518,207.384 32.390,207.505 32.066 C 207.751 31.405,212.197 31.120,212.197 31.765 C 212.197 31.924,210.839 36.643,209.180 42.252 L 206.164 52.449 206.164 57.438 L 206.164 62.426 203.672 62.426 L 201.180 62.426 201.180 57.212 L 201.180 51.998 198.283 42.196 C 196.690 36.805,195.324 32.187,195.249 31.934 C 195.085 31.386,199.943 31.221,200.279 31.764 M63.082 32.887 C 70.376 34.878,74.985 40.523,76.062 48.787 C 76.687 53.575,76.278 98.109,75.586 100.721 C 72.886 110.911,64.538 116.052,52.984 114.642 C 41.589 113.251,36.984 107.188,36.984 93.581 L 36.984 90.230 43.256 90.230 L 49.529 90.230 49.617 94.492 C 49.760 101.405,51.087 103.213,56.021 103.213 C 59.151 103.213,60.553 102.448,61.766 100.076 L 62.557 98.530 62.616 88.413 C 62.672 78.772,62.654 78.326,62.224 78.951 C 56.520 87.234,43.224 85.950,38.805 76.690 C 36.971 72.849,36.458 68.871,36.461 58.530 C 36.466 43.292,38.510 37.915,45.639 34.394 C 49.858 32.310,58.296 31.581,63.082 32.887 M116.984 47.111 L 116.984 58.025 118.979 57.924 C 122.154 57.763,121.967 58.443,121.967 47.041 L 121.967 37.484 121.323 36.841 C 120.762 36.279,120.444 36.197,118.832 36.197 L 116.984 36.197 116.984 47.111 M184.131 40.787 L 184.131 45.377 185.717 45.377 C 188.394 45.377,189.089 44.056,188.780 39.547 C 188.586 36.718,188.120 36.197,185.790 36.197 L 184.131 36.197 184.131 40.787 M54.549 43.635 C 52.589 44.164,51.522 45.164,50.684 47.262 C 49.883 49.264,50.008 68.110,50.834 69.902 C 53.178 74.990,60.697 74.544,62.278 69.223 C 62.893 67.152,62.883 49.537,62.266 47.459 C 61.301 44.211,58.168 42.658,54.549 43.635 M218.737 60.000 C 218.722 62.058,218.619 62.526,217.741 64.525 L 216.762 66.754 215.674 66.834 L 214.586 66.914 215.070 65.221 C 215.336 64.290,215.633 63.281,215.729 62.978 C 215.885 62.488,215.800 62.426,214.968 62.426 L 214.033 62.426 214.033 60.066 L 214.033 57.705 216.393 57.705 L 218.754 57.705 218.737 60.000 M141.659 75.708 C 143.181 76.536,144.107 77.739,144.674 79.623 C 145.247 81.529,145.218 99.796,144.638 101.748 C 142.770 108.040,132.590 107.992,130.756 101.684 C 130.398 100.454,130.349 98.763,130.415 90.038 L 130.492 79.830 131.286 78.276 C 132.998 74.925,137.963 73.696,141.659 75.708 M216.886 75.162 C 218.559 75.659,220.063 76.961,220.893 78.631 C 221.508 79.868,221.508 79.873,221.508 90.492 L 221.508 101.115 220.721 102.677 C 218.273 107.539,210.552 107.783,207.897 103.082 L 207.082 101.639 207.082 90.616 L 207.082 79.593 207.739 78.316 C 209.282 75.317,213.042 74.021,216.886 75.162 M89.967 90.492 L 89.967 105.967 87.475 105.967 L 84.984 105.967 84.984 90.667 C 84.984 82.251,85.062 75.287,85.158 75.191 C 85.255 75.095,86.376 75.016,87.650 75.016 L 89.967 75.016 89.967 90.492 M101.951 84.066 L 104.361 92.984 104.377 83.989 L 104.393 74.995 106.557 75.071 L 108.721 75.148 108.789 90.557 L 108.857 105.967 106.269 105.967 L 103.682 105.967 101.651 98.426 C 100.535 94.279,99.227 89.469,98.747 87.738 L 97.872 84.590 97.854 95.279 L 97.836 105.967 95.607 105.967 L 93.377 105.967 93.377 90.483 L 93.377 75.000 96.459 75.074 L 99.541 75.148 101.951 84.066 M118.269 75.607 C 118.391 75.931,119.480 79.897,120.688 84.420 L 122.885 92.644 122.954 83.819 L 123.023 74.995 125.184 75.071 L 127.344 75.148 127.412 90.557 L 127.480 105.967 124.898 105.967 L 122.317 105.967 119.453 95.279 L 116.590 84.590 116.522 95.279 L 116.453 105.967 114.227 105.967 L 112.000 105.967 112.000 90.492 L 112.000 75.016 115.023 75.016 C 117.917 75.016,118.055 75.042,118.269 75.607 M151.737 75.344 C 151.800 75.525,152.626 80.977,153.571 87.460 C 154.517 93.943,155.321 99.277,155.357 99.313 C 155.393 99.350,156.171 94.222,157.086 87.919 C 158.001 81.616,158.809 76.134,158.883 75.738 C 159.033 74.929,163.391 74.552,163.423 75.344 C 163.431 75.525,162.398 82.488,161.128 90.819 L 158.820 105.967 155.140 105.967 L 151.459 105.967 149.163 90.951 C 147.900 82.692,146.871 75.728,146.876 75.475 C 146.888 74.894,151.537 74.769,151.737 75.344 M176.398 75.344 C 176.529 75.707,181.246 105.218,181.246 105.679 C 181.246 105.868,180.400 105.967,178.790 105.967 L 176.334 105.967 176.024 103.934 C 175.854 102.816,175.651 101.577,175.574 101.180 L 175.434 100.459 172.596 100.459 L 169.759 100.459 169.488 102.098 C 169.340 103.000,169.140 104.239,169.045 104.852 L 168.872 105.967 166.559 105.967 C 164.489 105.967,164.257 105.919,164.355 105.508 C 164.415 105.256,165.522 98.404,166.815 90.281 C 168.108 82.159,169.235 75.402,169.320 75.265 C 169.563 74.871,176.253 74.946,176.398 75.344 M196.984 77.377 L 196.984 79.738 194.492 79.738 L 192.000 79.738 192.000 92.852 L 192.000 105.967 189.508 105.967 L 187.016 105.967 187.016 92.852 L 187.016 79.738 184.525 79.738 L 182.033 79.738 182.033 77.377 L 182.033 75.016 189.508 75.016 L 196.984 75.016 196.984 77.377 M203.803 90.492 L 203.803 105.967 201.311 105.967 L 198.820 105.967 198.820 90.667 C 198.820 82.251,198.898 75.287,198.995 75.191 C 199.091 75.095,200.212 75.016,201.486 75.016 L 203.803 75.016 203.803 90.492 M233.093 84.066 L 235.507 92.984 235.524 83.989 L 235.541 74.995 237.705 75.071 L 239.869 75.148 239.937 90.557 L 240.004 105.967 237.409 105.967 L 234.814 105.967 234.299 104.066 C 234.016 103.020,232.734 98.249,231.449 93.464 L 229.115 84.763 229.046 95.365 L 228.978 105.967 226.751 105.967 L 224.525 105.967 224.525 90.483 L 224.525 75.000 227.602 75.074 L 230.679 75.148 233.093 84.066 M136.989 79.404 C 135.375 79.697,135.344 79.907,135.344 90.670 L 135.344 100.483 135.988 101.127 C 136.462 101.600,136.915 101.770,137.705 101.770 C 138.494 101.770,138.948 101.600,139.422 101.127 L 140.066 100.483 140.066 90.649 C 140.066 79.194,139.975 78.862,136.989 79.404 M213.418 79.488 C 211.936 79.920,211.952 79.804,211.943 90.569 L 211.934 100.483 212.578 101.127 C 213.935 102.484,216.176 101.778,216.523 99.883 C 216.979 97.397,216.535 80.549,216.000 80.039 C 215.342 79.412,214.383 79.207,213.418 79.488 M171.455 88.721 C 170.922 92.364,170.488 95.492,170.489 95.672 C 170.492 96.034,174.681 96.164,174.698 95.803 C 174.728 95.192,172.699 82.098,172.574 82.098 C 172.492 82.098,171.988 85.079,171.455 88.721 M232.624 120.802 C 235.452 121.641,237.115 124.169,237.115 127.627 L 237.115 129.332 234.820 129.256 L 232.525 129.180 232.455 128.000 C 232.337 125.988,232.174 125.630,231.181 125.216 C 229.222 124.397,227.934 125.509,227.934 128.021 C 227.934 130.072,228.473 130.934,232.083 134.658 C 235.784 138.477,236.687 139.907,237.127 142.639 C 238.066 148.470,234.423 152.671,229.010 152.000 C 224.939 151.495,223.018 149.182,222.747 144.459 L 222.616 142.164 225.013 142.164 L 227.410 142.164 227.410 143.699 C 227.410 147.026,229.446 148.566,231.504 146.796 C 233.497 145.082,232.281 141.976,227.918 137.636 C 223.975 133.714,223.128 132.186,222.991 128.751 C 222.739 122.417,226.794 119.071,232.624 120.802 M300.780 121.143 C 303.311 122.435,304.393 124.724,304.393 128.787 L 304.393 131.279 302.098 131.354 L 299.803 131.430 299.803 129.361 C 299.803 125.733,298.767 124.432,296.474 125.183 C 294.840 125.719,294.778 126.176,294.870 136.875 L 294.951 146.144 295.687 146.777 C 298.051 148.810,299.803 147.053,299.803 142.649 L 299.803 140.066 302.199 140.066 L 304.594 140.066 304.469 143.410 C 304.324 147.281,303.778 148.958,302.215 150.330 C 298.967 153.182,293.099 152.436,291.037 148.909 C 289.366 146.050,289.250 126.988,290.885 123.812 C 292.460 120.751,297.400 119.419,300.780 121.143 M95.842 120.875 C 95.987 121.108,100.721 150.553,100.721 151.216 C 100.721 151.534,100.265 151.607,98.257 151.607 L 95.792 151.607 95.482 149.311 C 95.006 145.783,95.343 146.098,92.048 146.098 C 90.471 146.098,89.179 146.187,89.178 146.295 C 89.176 146.498,88.765 149.252,88.513 150.754 L 88.370 151.607 86.152 151.607 C 84.325 151.607,83.934 151.535,83.934 151.200 C 83.934 150.528,88.667 121.111,88.814 120.875 C 88.991 120.588,95.665 120.589,95.842 120.875 M109.090 121.246 C 109.213 121.570,110.302 125.534,111.509 130.053 L 113.705 138.271 113.774 129.463 L 113.843 120.656 116.069 120.656 L 118.295 120.656 118.295 136.131 L 118.295 151.607 115.722 151.607 L 113.149 151.607 110.279 140.918 L 107.410 130.230 107.341 140.918 L 107.273 151.607 105.046 151.607 L 102.820 151.607 102.820 136.131 L 102.820 120.656 105.843 120.656 C 108.736 120.656,108.875 120.681,109.090 121.246 M132.269 121.194 C 136.051 122.494,136.393 123.730,136.393 136.099 C 136.393 151.166,136.242 151.409,126.754 151.560 L 121.443 151.645 121.443 136.325 C 121.443 127.899,121.531 120.915,121.639 120.805 C 121.961 120.477,131.163 120.814,132.269 121.194 M151.082 136.131 L 151.082 151.607 148.590 151.607 L 146.098 151.607 146.098 136.306 C 146.098 127.891,146.177 120.927,146.273 120.831 C 146.369 120.734,147.491 120.656,148.765 120.656 L 151.082 120.656 151.082 136.131 M162.987 129.705 L 165.377 138.623 165.446 129.629 L 165.515 120.635 167.676 120.711 L 169.836 120.787 169.904 136.197 L 169.971 151.607 167.366 151.607 L 164.761 151.607 164.400 150.361 C 164.201 149.675,162.923 144.958,161.560 139.878 L 159.082 130.640 159.013 141.124 L 158.945 151.607 156.718 151.607 L 154.492 151.607 154.492 136.123 L 154.492 120.639 157.544 120.713 L 160.596 120.787 162.987 129.705 M185.967 123.016 L 185.967 125.377 182.033 125.377 L 178.098 125.377 178.098 129.828 L 178.098 134.278 181.180 134.352 L 184.262 134.426 184.338 136.721 L 184.414 139.016 181.256 139.016 L 178.098 139.016 178.098 145.311 L 178.098 151.607 175.607 151.607 L 173.115 151.607 173.115 136.131 L 173.115 120.656 179.541 120.656 L 185.967 120.656 185.967 123.016 M199.510 121.590 C 203.416 123.588,204.074 133.855,200.437 136.066 L 199.658 136.540 200.518 137.104 C 202.236 138.230,202.611 139.577,202.714 144.997 L 202.805 149.798 203.426 149.391 C 203.768 149.167,204.216 148.984,204.423 148.984 C 204.679 148.984,204.889 148.461,205.081 147.344 C 205.434 145.301,209.311 120.949,209.311 120.780 C 209.311 120.466,216.414 120.667,216.524 120.984 C 216.648 121.340,221.377 150.929,221.377 151.350 C 221.377 151.499,220.336 151.607,218.885 151.607 C 217.515 151.607,216.393 151.518,216.391 151.410 C 216.389 151.207,215.978 148.453,215.726 146.951 L 215.583 146.098 212.738 146.098 C 209.480 146.098,209.726 145.883,209.444 148.984 L 209.289 150.689 232.550 164.066 C 245.344 171.423,256.105 177.669,256.462 177.946 C 257.885 179.046,257.836 177.987,257.838 207.795 L 257.839 235.410 281.501 249.049 C 294.515 256.551,305.521 263.003,305.959 263.388 L 306.754 264.088 306.754 294.005 L 306.754 323.923 306.098 324.571 C 304.716 325.939,255.456 354.098,254.448 354.098 C 253.685 354.097,248.965 351.475,229.423 340.197 C 207.920 327.787,205.277 326.330,204.768 326.598 C 204.454 326.764,193.928 332.825,181.377 340.068 C 155.250 355.145,157.140 354.100,156.013 354.094 C 154.925 354.088,105.095 325.425,104.262 324.326 C 103.490 323.306,103.300 265.652,104.064 264.136 C 104.475 263.321,107.127 261.721,128.656 249.298 L 152.787 235.373 152.854 207.365 C 152.918 180.199,152.936 179.335,153.425 178.647 C 153.754 178.186,161.859 173.364,176.635 164.838 C 192.885 155.462,199.162 151.715,198.716 151.658 C 197.877 151.550,197.770 150.888,197.770 145.795 C 197.770 139.969,197.425 139.279,194.509 139.279 L 193.049 139.279 193.049 145.443 L 193.049 151.607 190.557 151.607 L 188.066 151.607 188.066 136.306 C 188.066 127.891,188.154 120.914,188.262 120.803 C 188.880 120.167,197.970 120.803,199.510 121.590 M253.377 123.016 L 253.377 125.377 250.885 125.377 L 248.393 125.377 248.393 138.492 L 248.393 151.607 245.902 151.607 L 243.410 151.607 243.410 138.492 L 243.410 125.377 240.918 125.377 L 238.426 125.377 238.426 123.016 L 238.426 120.656 245.902 120.656 L 253.377 120.656 253.377 123.016 M266.085 121.213 C 270.411 122.672,271.617 132.751,267.844 135.925 L 267.076 136.572 267.991 137.302 C 269.519 138.521,269.716 139.326,269.927 145.180 C 270.031 148.066,270.200 150.692,270.302 151.016 C 270.485 151.600,270.460 151.607,267.993 151.607 C 264.916 151.607,265.150 152.066,264.947 145.616 L 264.787 140.544 264.051 139.911 C 263.468 139.410,263.018 139.279,261.887 139.279 L 260.459 139.279 260.459 145.443 L 260.459 151.607 257.967 151.607 L 255.475 151.607 255.475 136.099 L 255.475 120.592 260.262 120.728 C 263.193 120.812,265.451 121.000,266.085 121.213 M277.770 133.597 L 277.902 146.407 278.521 146.909 C 278.886 147.204,279.546 147.410,280.131 147.410 C 280.716 147.410,281.376 147.204,281.741 146.909 L 282.361 146.407 282.492 133.597 L 282.623 120.787 284.918 120.711 L 287.213 120.635 287.213 133.325 C 287.213 147.036,287.179 147.427,285.787 149.530 C 283.259 153.351,275.833 152.807,273.636 148.639 L 272.918 147.279 272.843 133.957 L 272.769 120.636 275.204 120.711 L 277.639 120.787 277.770 133.597 M320.787 123.016 L 320.787 125.377 318.295 125.377 L 315.803 125.377 315.803 138.492 L 315.803 151.607 313.311 151.607 L 310.820 151.607 310.820 138.492 L 310.820 125.377 308.328 125.377 L 305.836 125.377 305.836 123.016 L 305.836 120.656 313.311 120.656 L 320.787 120.656 320.787 123.016 M327.607 133.597 L 327.738 146.407 328.357 146.909 C 329.166 147.564,330.768 147.564,331.577 146.909 L 332.197 146.407 332.328 133.597 L 332.459 120.787 334.754 120.711 L 337.049 120.635 337.049 133.325 C 337.049 146.977,337.010 147.435,335.662 149.472 C 333.491 152.751,326.801 152.978,324.230 149.859 C 322.660 147.954,322.623 147.576,322.623 133.468 L 322.623 120.636 325.049 120.711 L 327.475 120.787 327.607 133.597 M350.943 121.286 C 353.743 122.329,354.617 124.148,354.620 128.937 C 354.623 133.035,354.264 134.372,352.804 135.691 L 351.814 136.585 352.692 137.286 C 354.410 138.657,354.823 140.547,354.946 147.607 L 355.016 151.607 352.595 151.607 C 349.688 151.607,349.955 152.165,349.835 145.836 C 349.722 139.878,349.446 139.302,346.689 139.287 L 345.180 139.279 345.180 145.443 L 345.180 151.607 342.689 151.607 L 340.197 151.607 340.197 136.099 L 340.197 120.592 344.984 120.720 C 348.553 120.816,350.069 120.960,350.943 121.286 M371.016 123.016 L 371.016 125.246 366.885 125.318 L 362.754 125.390 362.754 129.580 L 362.754 133.770 366.033 133.770 L 369.311 133.770 369.311 136.000 L 369.311 138.230 366.033 138.230 L 362.754 138.230 362.754 142.682 L 362.754 147.134 366.885 147.206 L 371.016 147.279 371.093 149.443 L 371.169 151.607 364.470 151.607 L 357.770 151.607 357.770 136.127 L 357.770 120.647 364.393 120.717 L 371.016 120.787 371.016 123.016 M126.426 136.262 L 126.426 147.148 128.274 147.148 C 129.887 147.148,130.204 147.065,130.766 146.504 L 131.410 145.860 131.410 136.262 L 131.410 126.665 130.766 126.021 C 130.204 125.459,129.887 125.377,128.274 125.377 L 126.426 125.377 126.426 136.262 M193.049 129.967 L 193.049 134.557 194.509 134.557 C 197.151 134.557,197.770 133.669,197.770 129.884 C 197.770 125.999,197.339 125.377,194.640 125.377 L 193.049 125.377 193.049 129.967 M260.459 129.967 L 260.459 134.557 261.922 134.557 C 263.198 134.557,263.485 134.457,264.173 133.769 L 264.961 132.981 264.874 129.680 C 264.769 125.682,264.565 125.377,262.004 125.377 L 260.459 125.377 260.459 129.967 M345.180 129.967 L 345.180 134.557 346.505 134.557 C 349.308 134.557,349.639 134.060,349.639 129.850 C 349.639 125.807,349.373 125.377,346.866 125.377 L 345.180 125.377 345.180 129.967 M211.599 134.220 C 211.055 137.940,210.613 141.131,210.617 141.311 C 210.624 141.703,214.820 141.788,214.820 141.397 C 214.820 140.732,212.937 128.329,212.775 127.925 C 212.666 127.653,212.172 130.295,211.599 134.220 M91.030 133.836 C 90.536 137.190,90.081 140.318,90.021 140.787 L 89.910 141.639 92.037 141.639 C 93.560 141.639,94.166 141.546,94.171 141.311 C 94.187 140.545,92.211 127.738,92.076 127.738 C 91.995 127.738,91.524 130.482,91.030 133.836 M159.475 208.792 C 159.475 221.196,159.540 231.344,159.619 231.344 C 160.043 231.344,198.527 208.917,198.361 208.766 C 198.253 208.668,190.433 204.131,180.984 198.685 C 171.534 193.238,162.830 188.210,161.639 187.511 L 159.475 186.239 159.475 208.792 M231.369 197.647 C 220.780 203.770,212.085 208.812,212.046 208.850 C 211.981 208.915,250.273 231.105,250.787 231.301 C 250.917 231.350,251.016 221.674,251.016 208.940 C 251.016 196.593,250.928 186.497,250.820 186.503 C 250.711 186.509,241.959 191.524,231.369 197.647 M208.525 237.283 L 208.525 259.995 209.115 259.622 C 209.439 259.417,218.288 254.301,228.778 248.253 C 243.847 239.566,247.757 237.206,247.401 237.013 C 246.870 236.725,216.093 218.970,211.607 216.363 L 208.525 214.572 208.525 237.283 M182.348 225.955 C 171.774 232.069,163.098 237.150,163.069 237.248 C 163.023 237.403,168.112 240.372,196.000 256.464 L 201.967 259.907 201.967 237.363 C 201.967 224.964,201.879 214.824,201.770 214.830 C 201.662 214.835,192.922 219.842,182.348 225.955 M233.392 253.264 C 221.812 259.947,212.307 265.510,212.271 265.625 C 212.210 265.818,253.607 289.868,254.303 290.044 C 254.561 290.110,296.201 266.252,296.702 265.751 C 296.799 265.653,287.332 260.070,275.663 253.343 L 254.447 241.113 233.392 253.264 M110.164 295.943 L 110.164 320.454 131.360 332.686 C 143.018 339.414,152.637 344.918,152.737 344.918 C 152.836 344.918,152.916 333.911,152.914 320.459 L 152.910 296.000 131.778 283.803 C 120.155 277.095,110.537 271.567,110.405 271.519 C 110.260 271.466,110.164 281.173,110.164 295.943 M182.372 282.693 C 171.667 288.858,162.906 293.961,162.903 294.033 C 162.901 294.105,171.659 299.213,182.367 305.383 L 201.836 316.602 201.904 305.317 C 201.942 299.111,201.942 288.960,201.904 282.759 L 201.836 271.485 182.372 282.693 M279.016 283.693 L 257.836 295.919 257.836 320.419 C 257.836 333.893,257.876 344.918,257.924 344.918 C 258.066 344.918,299.916 320.761,300.133 320.554 C 300.241 320.450,300.300 309.363,300.264 295.916 L 300.197 271.468 279.016 283.693 M159.475 322.361 C 159.475 335.118,159.575 344.924,159.704 344.874 C 160.804 344.454,198.498 322.461,198.354 322.323 C 198.249 322.224,189.843 317.341,179.672 311.474 C 169.502 305.606,160.797 300.570,160.328 300.283 L 159.475 299.760 159.475 322.361 " stroke="none" fill="#fc6c24" fill-rule="evenodd"></path><path id="path2" d="M85.104 31.803 C 85.035 31.984,85.010 38.977,85.049 47.344 L 85.119 62.557 85.183 47.157 L 85.246 31.757 87.672 31.671 L 90.098 31.584 87.664 31.530 C 85.916 31.491,85.194 31.568,85.104 31.803 M94.896 31.670 C 95.803 31.721,97.219 31.721,98.043 31.669 C 98.867 31.617,98.125 31.575,96.393 31.576 C 94.662 31.576,93.988 31.619,94.896 31.670 M105.377 31.667 C 105.990 31.723,106.993 31.723,107.607 31.667 C 108.220 31.612,107.718 31.567,106.492 31.567 C 105.266 31.567,104.764 31.612,105.377 31.667 M114.295 31.671 C 115.485 31.719,117.433 31.719,118.623 31.671 C 119.813 31.622,118.839 31.582,116.459 31.582 C 114.079 31.582,113.105 31.622,114.295 31.671 M129.694 31.803 C 129.625 31.984,129.600 37.561,129.639 44.197 L 129.710 56.262 129.773 44.010 L 129.836 31.757 132.262 31.671 L 134.689 31.584 132.254 31.530 C 130.507 31.491,129.784 31.568,129.694 31.803 M141.702 31.665 L 143.995 31.758 144.067 44.010 L 144.139 56.262 144.135 43.934 L 144.131 31.607 141.770 31.589 L 139.410 31.572 141.702 31.665 M162.209 31.828 C 162.135 32.022,162.115 33.054,162.165 34.123 L 162.256 36.066 162.309 33.906 L 162.361 31.746 169.770 31.672 L 177.180 31.598 169.762 31.537 C 163.751 31.487,162.319 31.542,162.209 31.828 M181.193 31.671 C 182.390 31.719,184.278 31.719,185.390 31.670 C 186.501 31.621,185.521 31.581,183.213 31.582 C 180.905 31.582,179.996 31.622,181.193 31.671 M196.402 31.669 C 197.164 31.722,198.345 31.722,199.025 31.668 C 199.706 31.614,199.082 31.571,197.639 31.571 C 196.197 31.572,195.640 31.616,196.402 31.669 M208.860 31.669 C 209.550 31.723,210.612 31.722,211.221 31.667 C 211.830 31.612,211.266 31.568,209.967 31.569 C 208.669 31.569,208.171 31.614,208.860 31.669 M172.187 49.311 C 172.187 56.597,172.221 59.577,172.262 55.934 C 172.303 52.292,172.303 46.331,172.262 42.689 C 172.221 39.046,172.187 42.026,172.187 49.311 M193.667 40.000 C 193.666 41.298,193.710 41.863,193.765 41.254 C 193.820 40.645,193.821 39.583,193.767 38.893 C 193.713 38.204,193.668 38.702,193.667 40.000 M152.907 49.639 C 153.550 50.325,154.111 50.885,154.153 50.885 C 154.350 50.885,154.142 50.650,152.984 49.563 L 151.738 48.393 152.907 49.639 M184.725 50.024 C 185.124 50.085,185.714 50.083,186.036 50.021 C 186.359 49.958,186.033 49.909,185.311 49.911 C 184.590 49.913,184.326 49.964,184.725 50.024 M62.806 58.361 C 62.806 62.977,62.841 64.829,62.885 62.475 C 62.928 60.122,62.928 56.345,62.885 54.082 C 62.841 51.819,62.805 53.744,62.806 58.361 M36.576 58.623 C 36.576 63.239,36.612 65.091,36.655 62.738 C 36.699 60.384,36.699 56.607,36.655 54.344 C 36.612 52.081,36.576 54.007,36.576 58.623 M148.774 53.173 L 151.056 53.266 151.156 54.700 L 151.256 56.134 151.235 54.624 L 151.213 53.115 148.852 53.098 L 146.492 53.080 148.774 53.173 M153.380 62.874 C 153.706 62.937,154.179 62.934,154.429 62.869 C 154.680 62.803,154.413 62.752,153.836 62.755 C 153.259 62.758,153.054 62.811,153.380 62.874 M85.104 75.344 C 85.035 75.525,85.010 82.518,85.049 90.885 L 85.119 106.098 85.183 90.698 L 85.246 75.298 87.672 75.212 L 90.098 75.125 87.664 75.071 C 85.916 75.032,85.194 75.109,85.104 75.344 M94.896 75.211 C 95.803 75.262,97.219 75.262,98.043 75.210 C 98.867 75.158,98.125 75.116,96.393 75.117 C 94.662 75.117,93.988 75.159,94.896 75.211 M105.377 75.208 C 105.990 75.264,106.993 75.264,107.607 75.208 C 108.220 75.153,107.718 75.108,106.492 75.108 C 105.266 75.108,104.764 75.153,105.377 75.208 M113.518 75.211 C 114.426 75.262,115.842 75.262,116.666 75.210 C 117.490 75.158,116.748 75.116,115.016 75.117 C 113.285 75.117,112.611 75.159,113.518 75.211 M124.000 75.208 C 124.613 75.264,125.616 75.264,126.230 75.208 C 126.843 75.153,126.341 75.108,125.115 75.108 C 123.889 75.108,123.387 75.153,124.000 75.208 M147.541 75.183 C 149.395 75.377,151.811 75.394,151.698 75.213 C 151.631 75.105,150.491 75.035,149.165 75.058 C 147.839 75.081,147.108 75.137,147.541 75.183 M160.073 75.210 C 160.763 75.264,161.825 75.263,162.434 75.208 C 163.043 75.153,162.479 75.109,161.180 75.109 C 159.882 75.110,159.384 75.155,160.073 75.210 M171.082 75.211 C 172.056 75.261,173.649 75.261,174.623 75.211 C 175.597 75.160,174.800 75.119,172.852 75.119 C 170.905 75.119,170.108 75.160,171.082 75.211 M185.787 75.213 C 187.923 75.257,191.346 75.257,193.393 75.212 C 195.440 75.168,193.692 75.132,189.508 75.132 C 185.325 75.132,183.650 75.169,185.787 75.213 M198.940 75.344 C 198.871 75.525,198.846 82.518,198.885 90.885 L 198.955 106.098 199.019 90.698 L 199.082 75.298 201.508 75.212 L 203.934 75.125 201.500 75.071 C 199.752 75.032,199.030 75.109,198.940 75.344 M225.443 75.188 C 227.958 75.381,230.761 75.394,230.649 75.213 C 230.582 75.105,229.146 75.037,227.460 75.062 C 225.773 75.087,224.866 75.144,225.443 75.188 M236.525 75.208 C 237.138 75.264,238.141 75.264,238.754 75.208 C 239.367 75.153,238.866 75.108,237.639 75.108 C 236.413 75.108,235.911 75.153,236.525 75.208 M62.638 78.098 C 62.594 78.207,62.619 82.367,62.694 87.344 L 62.830 96.393 62.890 87.148 C 62.945 78.811,62.907 77.447,62.638 78.098 M211.790 90.492 C 211.790 95.613,211.826 97.708,211.868 95.148 C 211.911 92.587,211.911 88.397,211.868 85.836 C 211.826 83.275,211.790 85.370,211.790 90.492 M50.824 84.387 C 51.296 84.445,52.004 84.444,52.398 84.384 C 52.792 84.324,52.407 84.277,51.541 84.278 C 50.675 84.279,50.353 84.328,50.824 84.387 M170.230 96.066 C 170.230 96.174,171.292 96.262,172.590 96.262 C 173.889 96.262,174.951 96.174,174.951 96.066 C 174.951 95.957,173.889 95.869,172.590 95.869 C 171.292 95.869,170.230 95.957,170.230 96.066 M137.115 106.415 C 137.439 106.477,137.970 106.477,138.295 106.415 C 138.620 106.352,138.354 106.301,137.705 106.301 C 137.056 106.301,136.790 106.352,137.115 106.415 M213.705 106.415 C 214.030 106.477,214.561 106.477,214.885 106.415 C 215.210 106.352,214.944 106.301,214.295 106.301 C 213.646 106.301,213.380 106.352,213.705 106.415 M54.495 114.808 C 54.821 114.871,55.293 114.869,55.544 114.803 C 55.795 114.738,55.528 114.686,54.951 114.689 C 54.374 114.692,54.169 114.746,54.495 114.808 M57.118 114.808 C 57.444 114.871,57.916 114.869,58.167 114.803 C 58.418 114.738,58.151 114.686,57.574 114.689 C 56.997 114.692,56.792 114.746,57.118 114.808 M90.557 120.850 C 91.531 120.901,93.125 120.901,94.098 120.850 C 95.072 120.800,94.275 120.758,92.328 120.758 C 90.380 120.758,89.584 120.800,90.557 120.850 M104.338 120.850 C 105.245 120.902,106.662 120.901,107.486 120.849 C 108.310 120.797,107.567 120.755,105.836 120.756 C 104.105 120.756,103.431 120.799,104.338 120.850 M114.959 120.849 C 115.648 120.903,116.711 120.902,117.319 120.847 C 117.928 120.792,117.364 120.748,116.066 120.749 C 114.767 120.750,114.269 120.795,114.959 120.849 M121.563 120.984 C 121.494 121.164,121.469 128.157,121.508 136.525 L 121.578 151.738 121.642 136.334 L 121.705 120.931 125.967 120.852 L 130.230 120.773 125.959 120.714 C 122.740 120.670,121.658 120.736,121.563 120.984 M147.475 120.849 C 148.161 120.903,149.282 120.903,149.967 120.849 C 150.652 120.795,150.092 120.750,148.721 120.750 C 147.351 120.750,146.790 120.795,147.475 120.849 M155.410 120.828 C 157.925 121.020,160.729 121.033,160.616 120.852 C 160.549 120.744,159.114 120.676,157.427 120.702 C 155.741 120.727,154.833 120.783,155.410 120.828 M167.670 120.847 L 169.701 120.939 169.772 136.207 L 169.842 151.475 169.839 136.131 L 169.836 120.787 167.738 120.771 L 165.639 120.755 167.670 120.847 M176.343 120.852 C 178.191 120.897,181.142 120.897,182.901 120.852 C 184.659 120.806,183.148 120.769,179.541 120.769 C 175.934 120.770,174.495 120.807,176.343 120.852 M190.373 120.851 C 191.570 120.900,193.459 120.900,194.570 120.850 C 195.681 120.801,194.702 120.762,192.393 120.762 C 190.085 120.762,189.176 120.802,190.373 120.851 M210.361 120.830 C 213.177 121.021,216.597 121.033,216.485 120.852 C 216.418 120.744,214.746 120.677,212.771 120.703 C 210.796 120.729,209.711 120.786,210.361 120.830 M242.180 120.852 C 244.317 120.896,247.740 120.896,249.787 120.852 C 251.833 120.807,250.085 120.771,245.902 120.772 C 241.718 120.772,240.043 120.808,242.180 120.852 M257.521 120.851 C 258.718 120.900,260.606 120.900,261.717 120.850 C 262.829 120.801,261.849 120.762,259.541 120.762 C 257.233 120.762,256.324 120.802,257.521 120.851 M273.902 120.849 C 274.587 120.903,275.708 120.903,276.393 120.849 C 277.079 120.795,276.518 120.750,275.148 120.750 C 273.777 120.750,273.216 120.795,273.902 120.849 M283.877 120.849 C 284.566 120.903,285.629 120.902,286.237 120.847 C 286.846 120.792,286.282 120.748,284.984 120.749 C 283.685 120.750,283.187 120.795,283.877 120.849 M309.590 120.852 C 311.727 120.896,315.149 120.896,317.196 120.852 C 319.243 120.807,317.495 120.771,313.311 120.772 C 309.128 120.772,307.453 120.808,309.590 120.852 M325.047 120.848 L 327.339 120.938 327.411 132.928 L 327.483 144.918 327.479 132.852 L 327.475 120.787 325.115 120.772 L 322.754 120.757 325.047 120.848 M333.713 120.849 C 334.402 120.903,335.465 120.902,336.073 120.847 C 336.682 120.792,336.118 120.748,334.820 120.749 C 333.521 120.750,333.023 120.795,333.713 120.849 M342.242 120.851 C 343.439 120.900,345.328 120.900,346.439 120.850 C 347.550 120.801,346.570 120.762,344.262 120.762 C 341.954 120.762,341.045 120.802,342.242 120.851 M364.252 120.850 L 370.864 120.927 370.956 122.955 L 371.048 124.984 371.032 122.885 L 371.016 120.787 364.328 120.780 L 357.639 120.773 364.252 120.850 M260.305 129.967 C 260.305 132.564,260.345 133.591,260.392 132.249 C 260.440 130.907,260.440 128.783,260.392 127.528 C 260.344 126.273,260.305 127.370,260.305 129.967 M232.460 128.131 C 232.463 128.708,232.516 128.913,232.579 128.587 C 232.642 128.261,232.639 127.789,232.574 127.538 C 232.508 127.287,232.457 127.554,232.460 128.131 M289.954 136.131 C 289.954 141.108,289.989 143.144,290.032 140.656 C 290.075 138.167,290.075 134.095,290.032 131.607 C 289.989 129.118,289.954 131.154,289.954 136.131 M131.527 136.131 C 131.527 140.964,131.563 142.941,131.606 140.525 C 131.649 138.108,131.649 134.154,131.606 131.738 C 131.563 129.321,131.527 131.298,131.527 136.131 M349.732 129.967 C 349.732 131.266,349.776 131.830,349.831 131.221 C 349.886 130.612,349.887 129.550,349.832 128.860 C 349.778 128.171,349.733 128.669,349.732 129.967 M300.926 131.341 C 301.616 131.395,302.678 131.394,303.287 131.339 C 303.895 131.284,303.331 131.240,302.033 131.241 C 300.734 131.241,300.236 131.286,300.926 131.341 M230.689 133.508 C 231.399 134.230,232.039 134.820,232.111 134.820 C 232.184 134.820,231.661 134.230,230.951 133.508 C 230.240 132.787,229.600 132.197,229.528 132.197 C 229.456 132.197,229.978 132.787,230.689 133.508 M181.104 134.487 L 184.111 134.574 184.204 136.861 L 184.297 139.148 184.280 136.787 L 184.262 134.426 181.180 134.413 L 178.097 134.400 181.104 134.487 M193.643 139.205 C 194.042 139.265,194.632 139.263,194.954 139.201 C 195.277 139.139,194.951 139.089,194.230 139.091 C 193.508 139.093,193.244 139.144,193.643 139.205 M260.315 139.350 C 260.244 139.533,260.221 142.396,260.262 145.711 L 260.338 151.738 260.399 145.523 L 260.459 139.309 261.574 139.208 L 262.689 139.108 261.566 139.062 C 260.862 139.034,260.395 139.141,260.315 139.350 M345.774 139.205 C 346.173 139.265,346.763 139.263,347.086 139.201 C 347.408 139.139,347.082 139.089,346.361 139.091 C 345.639 139.093,345.375 139.144,345.774 139.205 M94.164 141.366 C 94.164 141.505,93.190 141.658,92.000 141.706 L 89.836 141.795 92.131 141.848 C 94.020 141.892,94.426 141.832,94.426 141.508 C 94.426 141.292,94.367 141.115,94.295 141.115 C 94.223 141.115,94.164 141.228,94.164 141.366 M210.365 141.443 C 210.361 141.849,210.623 141.896,212.656 141.849 L 214.951 141.796 212.860 141.706 C 211.609 141.652,210.690 141.488,210.569 141.299 C 210.433 141.084,210.367 141.130,210.365 141.443 M223.803 142.357 C 224.489 142.411,225.610 142.411,226.295 142.357 C 226.980 142.303,226.420 142.258,225.049 142.258 C 223.679 142.258,223.118 142.303,223.803 142.357 M265.022 145.836 C 265.022 147.928,265.063 148.784,265.113 147.738 C 265.163 146.692,265.163 144.980,265.113 143.934 C 265.063 142.889,265.022 143.744,265.022 145.836 M354.726 145.836 C 354.726 147.784,354.767 148.580,354.817 147.607 C 354.868 146.633,354.868 145.039,354.817 144.066 C 354.767 143.092,354.726 143.889,354.726 145.836 M237.176 144.262 C 237.176 144.767,237.230 144.974,237.296 144.721 C 237.362 144.469,237.362 144.056,237.296 143.803 C 237.230 143.551,237.176 143.757,237.176 144.262 M370.977 149.508 C 370.977 150.734,371.022 151.236,371.077 150.623 C 371.133 150.010,371.133 149.007,371.077 148.393 C 371.022 147.780,370.977 148.282,370.977 149.508 M229.443 152.054 C 229.767 152.116,230.298 152.116,230.623 152.054 C 230.948 151.991,230.682 151.940,230.033 151.940 C 229.384 151.940,229.118 151.991,229.443 152.054 M296.590 152.054 C 296.915 152.116,297.446 152.116,297.770 152.054 C 298.095 151.991,297.830 151.940,297.180 151.940 C 296.531 151.940,296.266 151.991,296.590 152.054 M250.951 200.852 C 250.987 208.895,251.048 219.134,251.086 223.607 C 251.124 228.079,251.183 221.498,251.217 208.984 C 251.251 196.469,251.190 186.229,251.082 186.229 C 250.974 186.229,250.915 192.810,250.951 200.852 " stroke="none" fill="#fc9d71" fill-rule="evenodd"></path><path id="path3" d="M153.380 31.399 C 153.706 31.461,154.179 31.459,154.429 31.393 C 154.680 31.328,154.413 31.276,153.836 31.279 C 153.259 31.282,153.054 31.336,153.380 31.399 M112.123 47.082 C 112.123 55.593,112.156 59.037,112.197 54.735 C 112.237 50.433,112.237 43.469,112.197 39.260 C 112.156 35.051,112.123 38.570,112.123 47.082 M177.141 33.836 C 177.141 35.062,177.186 35.564,177.241 34.951 C 177.296 34.338,177.296 33.334,177.241 32.721 C 177.186 32.108,177.141 32.610,177.141 33.836 M179.271 47.082 C 179.271 55.593,179.304 59.037,179.344 54.735 C 179.385 50.433,179.385 43.469,179.344 39.260 C 179.304 35.051,179.270 38.570,179.271 47.082 M41.557 37.311 L 40.787 38.164 41.639 37.394 C 42.434 36.675,42.612 36.459,42.410 36.459 C 42.365 36.459,41.981 36.843,41.557 37.311 M146.684 39.082 C 146.684 39.587,146.738 39.793,146.804 39.541 C 146.870 39.289,146.870 38.875,146.804 38.623 C 146.738 38.370,146.684 38.577,146.684 39.082 M160.817 39.137 C 160.787 39.842,160.770 39.848,158.623 39.936 L 156.459 40.024 158.631 40.078 C 160.913 40.134,161.247 39.966,160.971 38.901 C 160.889 38.586,160.838 38.665,160.817 39.137 M97.574 51.410 C 97.574 57.517,97.630 62.457,97.699 62.388 C 97.875 62.213,97.891 40.624,97.716 40.448 C 97.638 40.370,97.574 45.303,97.574 51.410 M154.361 44.328 C 154.924 44.905,155.444 45.377,155.516 45.377 C 155.588 45.377,155.186 44.905,154.623 44.328 C 154.059 43.751,153.539 43.279,153.467 43.279 C 153.395 43.279,153.797 43.751,154.361 44.328 M184.721 45.565 C 185.118 45.625,185.767 45.625,186.164 45.565 C 186.561 45.505,186.236 45.456,185.443 45.456 C 184.649 45.456,184.325 45.505,184.721 45.565 M150.426 47.213 C 150.990 47.790,151.510 48.262,151.582 48.262 C 151.654 48.262,151.252 47.790,150.689 47.213 C 150.125 46.636,149.605 46.164,149.533 46.164 C 149.461 46.164,149.863 46.636,150.426 47.213 M160.862 54.951 C 160.864 55.672,160.915 55.936,160.975 55.537 C 161.035 55.139,161.034 54.549,160.972 54.226 C 160.909 53.903,160.860 54.230,160.862 54.951 M193.676 57.049 C 193.676 58.925,193.718 59.657,193.769 58.678 C 193.819 57.698,193.819 56.163,193.768 55.268 C 193.717 54.372,193.675 55.174,193.676 57.049 M214.127 60.066 C 214.127 61.436,214.172 61.997,214.226 61.311 C 214.280 60.626,214.280 59.505,214.226 58.820 C 214.172 58.134,214.127 58.695,214.127 60.066 M215.738 66.623 L 214.689 66.811 215.657 66.848 C 216.189 66.868,216.698 66.767,216.787 66.623 C 216.876 66.479,216.913 66.377,216.868 66.398 C 216.823 66.418,216.315 66.520,215.738 66.623 M137.246 74.935 C 137.498 75.001,137.911 75.001,138.164 74.935 C 138.416 74.869,138.210 74.815,137.705 74.815 C 137.200 74.815,136.993 74.869,137.246 74.935 M213.836 74.935 C 214.089 75.001,214.502 75.001,214.754 74.935 C 215.007 74.869,214.800 74.815,214.295 74.815 C 213.790 74.815,213.584 74.869,213.836 74.935 M112.123 90.623 C 112.123 99.134,112.156 102.578,112.197 98.276 C 112.237 93.974,112.237 87.010,112.197 82.801 C 112.156 78.592,112.123 82.111,112.123 90.623 M127.336 90.623 C 127.336 99.134,127.369 102.578,127.410 98.276 C 127.450 93.974,127.450 87.010,127.410 82.801 C 127.369 78.592,127.336 82.111,127.336 90.623 M191.859 92.852 C 191.859 100.138,191.893 103.118,191.934 99.475 C 191.975 95.833,191.975 89.872,191.934 86.230 C 191.893 82.587,191.859 85.567,191.859 92.852 M221.495 90.623 C 221.495 95.528,221.530 97.497,221.573 95.000 C 221.617 92.502,221.616 88.489,221.573 86.082 C 221.530 83.674,221.495 85.718,221.495 90.623 M97.574 94.951 C 97.574 101.058,97.630 105.998,97.699 105.929 C 97.875 105.754,97.891 84.165,97.716 83.989 C 97.638 83.911,97.574 88.844,97.574 94.951 M228.721 94.951 C 228.721 101.058,228.778 105.998,228.847 105.929 C 229.022 105.754,229.039 84.165,228.864 83.989 C 228.785 83.911,228.721 88.844,228.721 94.951 M37.084 93.246 C 37.084 94.977,37.127 95.651,37.178 94.744 C 37.229 93.837,37.229 92.420,37.177 91.596 C 37.125 90.772,37.083 91.515,37.084 93.246 M49.413 93.770 C 49.414 95.646,49.456 96.379,49.506 95.399 C 49.557 94.419,49.556 92.885,49.505 91.989 C 49.454 91.093,49.413 91.895,49.413 93.770 M169.617 100.372 C 169.521 100.468,169.444 100.674,169.447 100.831 C 169.449 100.988,169.548 100.961,169.669 100.770 C 169.834 100.510,170.605 100.445,172.789 100.508 C 174.384 100.553,175.634 100.502,175.567 100.393 C 175.416 100.150,169.859 100.130,169.617 100.372 M55.672 103.525 C 55.925 103.591,56.338 103.591,56.590 103.525 C 56.843 103.459,56.636 103.405,56.131 103.405 C 55.626 103.405,55.420 103.459,55.672 103.525 M229.574 120.574 C 229.826 120.640,230.239 120.640,230.492 120.574 C 230.744 120.508,230.538 120.454,230.033 120.454 C 229.528 120.454,229.321 120.508,229.574 120.574 M296.721 120.574 C 296.974 120.640,297.387 120.640,297.639 120.574 C 297.892 120.508,297.685 120.454,297.180 120.454 C 296.675 120.454,296.469 120.508,296.721 120.574 M102.943 136.262 C 102.943 144.774,102.976 148.218,103.016 143.916 C 103.057 139.614,103.057 132.650,103.016 128.440 C 102.976 124.231,102.943 127.751,102.943 136.262 M118.156 136.262 C 118.156 144.774,118.189 148.218,118.229 143.916 C 118.270 139.614,118.270 132.650,118.229 128.440 C 118.189 124.231,118.156 127.751,118.156 136.262 M146.221 136.262 C 146.221 144.774,146.255 148.218,146.295 143.916 C 146.335 139.614,146.335 132.650,146.295 128.440 C 146.254 124.231,146.221 127.751,146.221 136.262 M238.518 123.016 C 238.518 124.243,238.563 124.744,238.618 124.131 C 238.674 123.518,238.674 122.515,238.618 121.902 C 238.563 121.289,238.518 121.790,238.518 123.016 M282.613 133.246 C 282.613 140.098,282.647 142.902,282.688 139.475 C 282.730 136.049,282.730 130.443,282.688 127.016 C 282.647 123.590,282.613 126.393,282.613 133.246 M332.449 133.115 C 332.449 139.895,332.483 142.706,332.524 139.362 C 332.566 136.018,332.566 130.471,332.524 127.034 C 332.483 123.598,332.449 126.334,332.449 133.115 M243.532 138.361 C 243.532 145.718,243.565 148.766,243.606 145.133 C 243.647 141.501,243.647 135.481,243.606 131.756 C 243.565 128.031,243.532 131.003,243.532 138.361 M177.944 129.967 C 177.945 132.564,177.984 133.591,178.032 132.249 C 178.079 130.907,178.079 128.783,178.031 127.528 C 177.983 126.273,177.944 127.370,177.944 129.967 M310.941 138.492 C 310.941 145.777,310.975 148.757,311.016 145.115 C 311.057 141.472,311.057 135.511,311.016 131.869 C 310.975 128.226,310.941 131.207,310.941 138.492 M345.040 130.033 L 345.049 134.689 346.428 134.711 L 347.806 134.734 346.499 134.632 L 345.192 134.530 345.111 129.953 L 345.030 125.377 345.040 130.033 M233.778 129.242 C 234.468 129.297,235.530 129.296,236.139 129.241 C 236.748 129.186,236.184 129.141,234.885 129.142 C 233.587 129.143,233.089 129.188,233.778 129.242 M369.142 136.000 C 369.141 137.298,369.186 137.863,369.241 137.254 C 369.296 136.645,369.297 135.583,369.242 134.893 C 369.188 134.204,369.143 134.702,369.142 136.000 M193.639 134.745 C 194.036 134.805,194.685 134.805,195.082 134.745 C 195.479 134.685,195.154 134.636,194.361 134.636 C 193.567 134.636,193.243 134.685,193.639 134.745 M260.787 134.745 C 261.184 134.805,261.833 134.805,262.230 134.745 C 262.626 134.685,262.302 134.636,261.508 134.636 C 260.715 134.636,260.390 134.685,260.787 134.745 M233.180 136.000 C 233.670 136.505,234.129 136.918,234.201 136.918 C 234.273 136.918,233.932 136.505,233.443 136.000 C 232.953 135.495,232.494 135.082,232.422 135.082 C 232.350 135.082,232.691 135.495,233.180 136.000 M229.246 138.885 C 229.735 139.390,230.195 139.803,230.267 139.803 C 230.339 139.803,229.998 139.390,229.508 138.885 C 229.019 138.380,228.559 137.967,228.487 137.967 C 228.415 137.967,228.757 138.380,229.246 138.885 M177.954 139.087 C 177.884 139.271,177.860 142.192,177.902 145.579 L 177.977 151.738 178.038 145.385 L 178.098 139.033 181.180 138.950 L 184.262 138.867 181.172 138.811 C 178.873 138.769,178.049 138.839,177.954 139.087 M345.031 145.311 C 345.031 148.846,345.069 150.292,345.114 148.525 C 345.159 146.757,345.159 143.866,345.114 142.098 C 345.069 140.331,345.031 141.777,345.031 145.311 M300.926 140.259 C 301.616 140.313,302.678 140.312,303.287 140.257 C 303.895 140.202,303.331 140.158,302.033 140.159 C 300.734 140.159,300.236 140.204,300.926 140.259 M202.595 145.443 C 202.596 147.462,202.637 148.254,202.687 147.202 C 202.737 146.149,202.736 144.497,202.686 143.530 C 202.636 142.562,202.595 143.423,202.595 145.443 M222.760 143.475 C 222.760 144.125,222.811 144.390,222.874 144.066 C 222.936 143.741,222.936 143.210,222.874 142.885 C 222.811 142.561,222.760 142.826,222.760 143.475 M197.875 146.361 C 197.875 148.452,197.915 149.308,197.965 148.262 C 198.015 147.216,198.015 145.505,197.965 144.459 C 197.915 143.413,197.875 144.269,197.875 146.361 M90.557 146.030 C 91.387 146.082,92.744 146.082,93.574 146.030 C 94.403 145.978,93.725 145.935,92.066 145.935 C 90.407 145.935,89.728 145.978,90.557 146.030 M209.745 146.033 C 209.679 146.141,211.018 146.230,212.721 146.230 C 214.425 146.230,215.764 146.141,215.697 146.033 C 215.630 145.925,214.291 145.836,212.721 145.836 C 211.151 145.836,209.812 145.925,209.745 146.033 M159.339 208.918 C 159.339 221.469,159.371 226.642,159.410 220.413 C 159.449 214.185,159.449 203.916,159.410 197.593 C 159.371 191.271,159.339 196.367,159.339 208.918 M202.093 237.246 C 202.093 249.797,202.125 254.970,202.164 248.741 C 202.203 242.513,202.203 232.244,202.164 225.921 C 202.125 219.599,202.093 224.695,202.093 237.246 M103.733 294.033 C 103.733 309.830,103.765 316.292,103.803 308.393 C 103.842 300.495,103.842 287.570,103.803 279.672 C 103.765 271.774,103.733 278.236,103.733 294.033 M201.836 294.033 C 201.836 306.556,201.925 316.748,202.033 316.681 C 202.141 316.614,202.230 306.422,202.230 294.033 C 202.230 281.643,202.141 271.452,202.033 271.385 C 201.925 271.318,201.836 281.510,201.836 294.033 M159.339 322.492 C 159.339 335.043,159.371 340.215,159.410 333.987 C 159.449 327.758,159.449 317.490,159.410 311.167 C 159.371 304.845,159.339 309.941,159.339 322.492 " stroke="none" fill="#fcb494" fill-rule="evenodd"></path><path id="path4" d="M108.713 47.082 C 108.713 55.593,108.746 59.037,108.787 54.735 C 108.827 50.433,108.827 43.469,108.787 39.260 C 108.746 35.051,108.713 38.570,108.713 47.082 M117.710 36.125 C 118.181 36.183,118.889 36.182,119.283 36.122 C 119.678 36.062,119.292 36.014,118.426 36.016 C 117.561 36.017,117.238 36.066,117.710 36.125 M163.475 36.127 C 164.161 36.181,165.282 36.181,165.967 36.127 C 166.652 36.073,166.092 36.029,164.721 36.029 C 163.351 36.029,162.790 36.073,163.475 36.127 M173.443 36.127 C 174.128 36.181,175.249 36.181,175.934 36.127 C 176.620 36.073,176.059 36.029,174.689 36.029 C 173.318 36.029,172.757 36.073,173.443 36.127 M184.725 36.123 C 185.124 36.183,185.714 36.181,186.036 36.119 C 186.359 36.057,186.033 36.007,185.311 36.009 C 184.590 36.011,184.326 36.062,184.725 36.123 M122.084 46.951 C 122.084 51.639,122.120 53.557,122.163 51.213 C 122.207 48.869,122.207 45.033,122.163 42.689 C 122.120 40.344,122.084 42.262,122.084 46.951 M201.291 57.311 C 201.290 60.197,201.329 61.413,201.376 60.014 C 201.423 58.615,201.423 56.254,201.376 54.768 C 201.329 53.282,201.291 54.426,201.291 57.311 M108.713 90.623 C 108.713 99.134,108.746 102.578,108.787 98.276 C 108.827 93.974,108.827 87.010,108.787 82.801 C 108.746 78.592,108.713 82.111,108.713 90.623 M239.861 90.623 C 239.861 99.134,239.894 102.578,239.934 98.276 C 239.975 93.974,239.975 87.010,239.934 82.801 C 239.894 78.592,239.861 82.111,239.861 90.623 M183.287 79.669 C 184.050 79.722,185.230 79.722,185.910 79.668 C 186.591 79.614,185.967 79.571,184.525 79.571 C 183.082 79.572,182.525 79.616,183.287 79.669 M193.115 79.668 C 193.800 79.722,194.921 79.722,195.607 79.668 C 196.292 79.614,195.731 79.570,194.361 79.570 C 192.990 79.570,192.430 79.614,193.115 79.668 M135.199 90.623 C 135.199 95.384,135.235 97.368,135.278 95.033 C 135.322 92.698,135.322 88.803,135.278 86.377 C 135.235 83.952,135.199 85.862,135.199 90.623 M140.183 90.623 C 140.183 95.384,140.218 97.368,140.262 95.033 C 140.305 92.698,140.305 88.803,140.262 86.377 C 140.219 83.952,140.183 85.862,140.183 90.623 M188.189 136.262 C 188.189 144.774,188.222 148.218,188.262 143.916 C 188.303 139.614,188.303 132.650,188.262 128.440 C 188.222 124.231,188.189 127.751,188.189 136.262 M277.629 132.984 C 277.629 139.692,277.663 142.436,277.705 139.082 C 277.746 135.728,277.746 130.239,277.705 126.885 C 277.663 123.531,277.629 126.275,277.629 132.984 M127.152 125.305 C 127.624 125.363,128.332 125.362,128.726 125.302 C 129.120 125.242,128.734 125.195,127.869 125.196 C 127.003 125.198,126.681 125.246,127.152 125.305 M180.012 125.310 C 181.137 125.359,182.907 125.359,183.946 125.309 C 184.986 125.260,184.066 125.219,181.902 125.220 C 179.738 125.220,178.887 125.261,180.012 125.310 M193.643 125.303 C 194.042 125.363,194.632 125.362,194.954 125.299 C 195.277 125.237,194.951 125.188,194.230 125.190 C 193.508 125.192,193.244 125.243,193.643 125.303 M239.803 125.308 C 240.489 125.362,241.610 125.362,242.295 125.308 C 242.980 125.254,242.420 125.209,241.049 125.209 C 239.679 125.209,239.118 125.254,239.803 125.308 M249.648 125.308 C 250.410 125.362,251.591 125.361,252.271 125.307 C 252.951 125.253,252.328 125.210,250.885 125.211 C 249.443 125.211,248.886 125.255,249.648 125.308 M261.053 125.303 C 261.451 125.363,262.042 125.362,262.364 125.299 C 262.687 125.237,262.361 125.188,261.639 125.190 C 260.918 125.192,260.654 125.243,261.053 125.303 M307.213 125.308 C 307.898 125.362,309.020 125.362,309.705 125.308 C 310.390 125.254,309.830 125.209,308.459 125.209 C 307.089 125.209,306.528 125.254,307.213 125.308 M317.058 125.308 C 317.820 125.362,319.001 125.361,319.681 125.307 C 320.361 125.253,319.738 125.210,318.295 125.211 C 316.852 125.211,316.296 125.255,317.058 125.308 M345.774 125.303 C 346.173 125.363,346.763 125.362,347.086 125.299 C 347.408 125.237,347.082 125.188,346.361 125.190 C 345.639 125.192,345.375 125.243,345.774 125.303 M362.608 125.454 C 362.536 125.640,362.514 127.617,362.558 129.847 L 362.638 133.902 362.696 129.646 L 362.754 125.390 366.885 125.311 L 371.016 125.232 366.877 125.173 C 363.693 125.128,362.708 125.193,362.608 125.454 M202.578 129.180 C 202.579 130.190,202.626 130.571,202.683 130.027 C 202.740 129.483,202.739 128.657,202.681 128.191 C 202.623 127.725,202.577 128.170,202.578 129.180 M304.348 129.443 C 304.350 130.452,304.397 130.833,304.454 130.289 C 304.510 129.745,304.510 128.919,304.452 128.453 C 304.394 127.988,304.347 128.433,304.348 129.443 M265.004 129.967 C 265.005 130.977,265.053 131.358,265.109 130.814 C 265.166 130.270,265.165 129.443,265.107 128.978 C 265.049 128.512,265.003 128.957,265.004 129.967 M158.809 140.721 C 158.809 146.780,158.843 149.222,158.885 146.146 C 158.927 143.071,158.927 138.114,158.885 135.130 C 158.843 132.146,158.808 134.662,158.809 140.721 M362.600 142.689 C 362.600 145.213,362.639 146.246,362.687 144.984 C 362.735 143.721,362.735 141.656,362.687 140.393 C 362.639 139.131,362.600 140.164,362.600 142.689 M304.355 142.557 C 304.355 143.856,304.399 144.420,304.454 143.811 C 304.509 143.202,304.510 142.140,304.455 141.451 C 304.401 140.761,304.356 141.259,304.355 142.557 M257.700 207.869 C 257.700 223.016,257.732 229.175,257.770 221.554 C 257.809 213.933,257.809 201.539,257.770 194.013 C 257.732 186.486,257.700 192.721,257.700 207.869 M257.700 320.393 C 257.700 333.954,257.732 339.463,257.770 332.636 C 257.809 325.809,257.809 314.713,257.770 307.980 C 257.731 301.247,257.700 306.833,257.700 320.393 " stroke="none" fill="#fcb48c" fill-rule="evenodd"></path></g></svg>